<svg xmlns="http://www.w3.org/2000/svg" width="517.64" height="501.52" viewBox="0 0 517.64 501.52"><title>Paperly (10)</title><g id="Layer_2" data-name="Layer 2"><g id="Layer_1-2" data-name="Layer 1"><g id="Paperly"><text/><g id="PaperlyLogo"><g id="Paperly_logo"><g id="ripple" style="opacity:0.94"><path d="M202.32,440.8c-73,0-132.26,4.8-132.26,10.72s59.22,10.73,132.26,10.73,132.25-4.8,132.25-10.73S275.36,440.8,202.32,440.8ZM199.75,461c-67.44,0-122.1-4.23-122.1-9.45s54.66-9.44,122.1-9.44,122.1,4.23,122.1,9.44S267.18,461,199.75,461Z" style="fill:#4555a5"/></g><g id="ripple-2" data-name="ripple" style="opacity:0.94"><path d="M202.16,443.66c-33.07,0-59.87,3.52-59.87,7.86s26.8,7.87,59.87,7.87S262,455.87,262,451.52,235.23,443.66,202.16,443.66ZM201,458.45c-30.52,0-55.27-3.1-55.27-6.93s24.75-6.92,55.27-6.92,55.28,3.1,55.28,6.92S231.52,458.45,201,458.45Z" style="fill:#4555a5"/></g><g id="circle1" style="opacity:0.07"><circle cx="193.15" cy="301.79" r="193.15" style="fill:#dce3e5"/></g><g id="circle2" style="opacity:0.19"><circle cx="404.18" cy="80.89" r="46.46" style="fill:#edefef"/></g><g id="part3"><path d="M394.47,150a10,10,0,0,0-5.08-8.3l-5.3-2.52-.22-.11s-2.39-1.15-5.31-2.54L205.06,54.05c-2.92-1.39-3.58-.52-1.47,1.92L283,147.91a33.7,33.7,0,0,0,9.16,7l53.89,25.6c2.92,1.39,5.3,2.54,5.29,2.56s2.38,1.16,5.3,2.55l22.76,10.84,10.17,4.84c2.68,1.27,4.86-.34,4.86-3.57Z" style="fill:#fff"/></g><g id="part2"><path d="M206.72,63.19c-2.42-2.79-4.4-2-4.4,1.64v380c0,3.7,2,4.41,4.33,1.59l48.21-57.1a21.39,21.39,0,0,0,4.33-11.85V130.35a20.93,20.93,0,0,0-4.4-11.79Z" style="fill:#fff"/></g><g id="part1"><path d="M398.5,141.22c0-3.7-2.69-5.32-6-3.61L142.73,267.92c-3.28,1.71-3.41,4.73-.3,6.72l44.7,28.52a12.87,12.87,0,0,0,11.62.51L392.56,202.41a12.23,12.23,0,0,0,5.95-9.83Z" style="fill:#31c5f4"/></g></g></g></g></g></g></svg>