<svg id="Layer_1" data-name="Layer 1" xmlns="http://www.w3.org/2000/svg" width="32" height="32" viewBox="0 0 32 32"><title>github</title><rect width="32" height="32" style="fill:none"/><path d="M20.69,28.49a.74.74,0,0,1-.77-.71V23.4a3.72,3.72,0,0,0-1.08-2.91c3.56-.38,7.3-1.71,7.3-7.75A6,6,0,0,0,24.5,8.52a5.65,5.65,0,0,0-.16-4.16S23,3.94,20,6a15.29,15.29,0,0,0-8,0C8.94,4,7.6,4.39,7.6,4.39a5.5,5.5,0,0,0-.14,4.16,6,6,0,0,0-1.65,4.22c0,6,3.73,7.37,7.29,7.77a3.36,3.36,0,0,0-1,2.1,3.44,3.44,0,0,1-4.66-1.31A3.31,3.31,0,0,0,5,19.68s-1.56,0-.11,1A4.2,4.2,0,0,1,6.67,23s.94,3,5.39,2.11v2.67a.74.74,0,0,1-.68.78,16.49,16.49,0,0,0,9.34,0" style="fill:#1fa2ff"/></svg>