<svg id="Layer_1" data-name="Layer 1" xmlns="http://www.w3.org/2000/svg" width="25" height="25" viewBox="0 0 25 25"><title>github</title><rect width="25" height="25" style="fill:none"/><path d="M499.8,22.39c3.89,0,9.31.1,11.29-3.85a11.13,11.13,0,0,0,.91-4.9h0a8.82,8.82,0,0,0-2-5.88,8.06,8.06,0,0,0,.4-2.49,5.06,5.06,0,0,0-.76-2.67A8.11,8.11,0,0,0,504,4.42a17.81,17.81,0,0,0-4.18-.48,19.9,19.9,0,0,0-4.62.52,8.22,8.22,0,0,0-5.67-1.86,5.18,5.18,0,0,0-.76,2.67,8,8,0,0,0,.4,2.52A8.77,8.77,0,0,0,487,13.64a10.92,10.92,0,0,0,1.05,4.9c2.05,4,7.8,3.85,11.75,3.85ZM494.29,12a20.36,20.36,0,0,1,2.92.31c3.56.54,5.43-.31,7.61-.31,2.44,0,3.83,2,3.83,4.26,0,4.53-4.18,5.22-7.84,5.22H498.3c-3.65,0-7.84-.7-7.84-5.22,0-2.27,1.39-4.26,3.83-4.26Z" transform="translate(-487)" style="fill:#1fa2ff"/><path d="M504.35,19.09c1.34,0,1.91-1.77,1.91-2.84s-.57-2.84-1.91-2.84-1.91,1.76-1.91,2.84.57,2.84,1.91,2.84Z" transform="translate(-487)" style="fill:#1fa2ff"/><path d="M494.78,19.09c1.35,0,1.91-1.77,1.91-2.84s-.57-2.84-1.91-2.84-1.91,1.76-1.91,2.84.57,2.84,1.91,2.84Z" transform="translate(-487)" style="fill:#1fa2ff"/></svg>