<svg id="Layer_1" data-name="Layer 1" xmlns="http://www.w3.org/2000/svg" width="32" height="32" viewBox="0 0 32 32"><title>github-2</title><rect width="32" height="32" style="fill:none"/><path d="M496.39,28.67c5,0,11.92.12,14.44-4.94A14.07,14.07,0,0,0,512,17.46h0a11.31,11.31,0,0,0-2.6-7.53,10.08,10.08,0,0,0,.51-3.18,6.5,6.5,0,0,0-1-3.42,10.39,10.39,0,0,0-7.19,2.32,23.49,23.49,0,0,0-5.36-.6,25.5,25.5,0,0,0-5.91.66,10.49,10.49,0,0,0-7.25-2.38,6.51,6.51,0,0,0-1,3.42,10.14,10.14,0,0,0,.52,3.22A11.28,11.28,0,0,0,480,17.46a13.9,13.9,0,0,0,1.35,6.27c2.62,5.12,10,4.94,15,4.94Zm-7.06-13.32a27.57,27.57,0,0,1,3.74.39c4.56.69,6.95-.39,9.74-.39,3.12,0,4.9,2.55,4.9,5.44,0,5.8-5.35,6.69-10,6.69h-3.21c-4.67,0-10-.89-10-6.69,0-2.89,1.78-5.44,4.9-5.44Z" transform="translate(-480)" style="fill:#fff"/><path d="M502.21,24.43c1.72,0,2.44-2.26,2.44-3.64s-.72-3.63-2.44-3.63-2.45,2.25-2.45,3.63.73,3.64,2.45,3.64Z" transform="translate(-480)" style="fill:#fff"/><path d="M490,24.43c1.72,0,2.45-2.26,2.45-3.64s-.73-3.63-2.45-3.63-2.45,2.26-2.45,3.64.73,3.63,2.45,3.63Z" transform="translate(-480)" style="fill:#fff"/></svg>