<svg id="Layer_1" data-name="Layer 1" xmlns="http://www.w3.org/2000/svg" width="25" height="25" viewBox="0 0 25 25"><title>github</title><rect width="25" height="25" style="fill:none"/><path d="M17.33,24.24a.7.7,0,0,1-.67-.71v-4.4a4.06,4.06,0,0,0-1-2.92c3.13-.38,6.42-1.71,6.42-7.77A6.49,6.49,0,0,0,20.67,4.2,6.38,6.38,0,0,0,20.53,0s-1.18-.43-3.82,1.64a11.93,11.93,0,0,0-7,0C7-.32,5.79,0,5.79,0a6.22,6.22,0,0,0-.13,4.17A6.51,6.51,0,0,0,4.21,8.44c0,6,3.28,7.42,6.42,7.79a3.63,3.63,0,0,0-.88,2.11,2.83,2.83,0,0,1-4-1c0-.09-.1-.19-.14-.28A3,3,0,0,0,3.5,15.38s-1.33,0-.08,1.06A4.11,4.11,0,0,1,5,18.75s.8,3,4.77,2.12v2.67a.74.74,0,0,1-.6.79,13,13,0,0,0,8.23,0" style="fill:#1fa2ff"/></svg>