<svg id="Layer_1" data-name="Layer 1" xmlns="http://www.w3.org/2000/svg" width="32" height="32" viewBox="0 0 32 32"><title>github</title><path d="M496,0a16.06,16.06,0,0,0-16,16,16.6,16.6,0,0,0,12.25,16V26.71a3.88,3.88,0,0,1-4.32-1.92c-.37-.62-1-1.28-1.68-1.23l-.17-1.87a3.84,3.84,0,0,1,3.46,2.14,2.08,2.08,0,0,0,1.2,1,2.53,2.53,0,0,0,1.58-.14,4.35,4.35,0,0,1,1.1-2.25h0c-4.17-.62-5.83-2.83-6.49-4.57a7.36,7.36,0,0,1,1.14-7s.09-.13.06-.2a6.21,6.21,0,0,1,.19-4.1c.82.25.95-.24,3.55,1.34l.45.27c.19.11.13.05.32,0A13.56,13.56,0,0,1,496,7.72a13.76,13.76,0,0,1,3.4.49h.15s0,0,.12-.06c3.25-2,3.13-1.32,4-1.61a6.27,6.27,0,0,1,.18,4.1c-.1.29,2.81,3,1.2,7.24-.66,1.74-2.32,3.95-6.49,4.57h0a4.08,4.08,0,0,1,1.18,2.92V32A16.62,16.62,0,0,0,512,16,16.07,16.07,0,0,0,496,0Z" transform="translate(-480 0)" style="fill:#1fa2ff"/></svg>