<svg id="Layer_1" data-name="Layer 1" xmlns="http://www.w3.org/2000/svg" width="32" height="32" viewBox="0 0 32 32"><title>github-2</title><rect width="32" height="32" style="fill:none"/><path d="M22.07,30.46a.86.86,0,0,1-.85-.86V24.26A4.84,4.84,0,0,0,20,20.72c3.94-.46,8.08-2.08,8.08-9.43a7.68,7.68,0,0,0-1.82-5.14,7.52,7.52,0,0,0-.17-5.06s-1.49-.51-4.81,2a15.54,15.54,0,0,0-8.86,0c-3.39-2.43-4.87-2-4.87-2a7.31,7.31,0,0,0-.16,5.07,7.7,7.7,0,0,0-1.83,5.13c0,7.31,4.13,9,8.08,9.46a4.24,4.24,0,0,0-1.11,2.56,3.63,3.63,0,0,1-5.16-1.6,3.75,3.75,0,0,0-2.7-2S3,19.73,4.57,21a5,5,0,0,1,2,2.8s1,3.65,6,2.57v3.25a.9.9,0,0,1-.76.95,16.79,16.79,0,0,0,10.35,0" style="fill:#fff"/></svg>