<svg id="Layer_1" data-name="Layer 1" xmlns="http://www.w3.org/2000/svg" width="32" height="32" viewBox="0 0 32 32"><title>instagram-2</title><rect width="32" height="32" style="fill:none"/><g id="surface5097564"><path d="M10.27,2.26a8,8,0,0,0-8,8V21.72a8,8,0,0,0,8,8H21.73a8,8,0,0,0,8-8V10.28a8,8,0,0,0-8-8ZM24,6.84A1.15,1.15,0,1,1,22.87,8,1.15,1.15,0,0,1,24,6.84ZM16,9.13A6.87,6.87,0,1,1,9.13,16,6.88,6.88,0,0,1,16,9.13Zm0,2.29A4.58,4.58,0,1,0,20.58,16,4.58,4.58,0,0,0,16,11.42Z" style="fill:#fff"/></g></svg>