<svg id="Layer_1" data-name="Layer 1" xmlns="http://www.w3.org/2000/svg" width="32" height="32" viewBox="0 0 32 32"><title>reddit-2</title><rect width="32" height="32" style="fill:none"/><g id="surface9714870"><path d="M18.66,4A3.66,3.66,0,0,0,15,7.66V11a16.23,16.23,0,0,0-7.27,2A4,4,0,0,0,4.91,12a3.94,3.94,0,0,0-3,1.24l0,0v0a4.34,4.34,0,0,0-.84,3.38,4.41,4.41,0,0,0,2,3c0,.12,0,.25,0,.37,0,5,5.83,9,13,9s13-4,13-9c0-.12,0-.25,0-.37a4.41,4.41,0,0,0,2-3,4.34,4.34,0,0,0-.84-3.38l0,0v0a3.94,3.94,0,0,0-3-1.24,4,4,0,0,0-2.82,1.08A16.23,16.23,0,0,0,17,11V7.66A1.53,1.53,0,0,1,18.66,6a7.76,7.76,0,0,1,2.15.61,12.4,12.4,0,0,0,3.33.68,2.5,2.5,0,1,0,.18-2,9.78,9.78,0,0,1-2.85-.58A8.19,8.19,0,0,0,18.66,4ZM4.91,14A2.14,2.14,0,0,1,6,14.27a8.58,8.58,0,0,0-2.45,3.17,2.37,2.37,0,0,1-.49-1.1,2.42,2.42,0,0,1,.41-1.79A2.08,2.08,0,0,1,4.91,14Zm22.18,0a2.08,2.08,0,0,1,1.45.56A2.42,2.42,0,0,1,29,16.34a2.29,2.29,0,0,1-.5,1.1A8.45,8.45,0,0,0,26,14.27,2.25,2.25,0,0,1,27.09,14ZM11,16a2,2,0,1,1-2,2A2,2,0,0,1,11,16Zm10,0a2,2,0,1,1-2,2A2,2,0,0,1,21,16Zm.24,5.53A5.51,5.51,0,0,1,16,25a5.61,5.61,0,0,1-5.24-3.33A8.58,8.58,0,0,0,16,23.27,7.8,7.8,0,0,0,21.24,21.53Z" style="fill:#fff"/></g></svg>