<svg id="Layer_1" data-name="Layer 1" xmlns="http://www.w3.org/2000/svg" width="25" height="25" viewBox="0 0 25 25"><title>reddit</title><rect width="25" height="25" style="fill:none"/><g id="surface9714870"><path d="M14.72,2a3.11,3.11,0,0,0-3.05,3.15v2.9A13.53,13.53,0,0,0,5.6,9.81a3.28,3.28,0,0,0-2.34-.92A3.21,3.21,0,0,0,.78,10h0v0A3.75,3.75,0,0,0,.06,12.9a3.79,3.79,0,0,0,1.63,2.56c0,.11,0,.21,0,.32,0,4.27,4.87,7.74,10.84,7.74s10.84-3.47,10.84-7.74c0-.11,0-.21,0-.32A3.79,3.79,0,0,0,25,12.9,3.83,3.83,0,0,0,24.26,10l0,0h0a3.21,3.21,0,0,0-2.48-1.07,3.32,3.32,0,0,0-2.35.92,13.45,13.45,0,0,0-6.06-1.75V5.16a1.3,1.3,0,0,1,1.38-1.43,6.29,6.29,0,0,1,1.79.53,9.88,9.88,0,0,0,2.78.58,2.09,2.09,0,0,0,2,1.47,2.11,2.11,0,0,0,2.08-2.15A2.12,2.12,0,0,0,21.26,2a2.09,2.09,0,0,0-1.82,1.12,7.92,7.92,0,0,1-2.37-.5A6.69,6.69,0,0,0,14.72,2ZM3.26,10.61a1.91,1.91,0,0,1,.9.23,7.37,7.37,0,0,0-2,2.73,1.89,1.89,0,0,1-.41-.94,2.1,2.1,0,0,1,.34-1.54A1.66,1.66,0,0,1,3.26,10.61Zm18.49,0a1.66,1.66,0,0,1,1.21.48,2.19,2.19,0,0,1,.34,1.54,2,2,0,0,1-.41.94,7.37,7.37,0,0,0-2-2.73A1.91,1.91,0,0,1,21.75,10.61ZM8.33,12.34a1.72,1.72,0,1,1-1.66,1.72A1.69,1.69,0,0,1,8.33,12.34Zm8.34,0A1.72,1.72,0,1,1,15,14.06,1.69,1.69,0,0,1,16.67,12.34Zm.2,4.76a4.6,4.6,0,0,1-4.37,3,4.64,4.64,0,0,1-4.36-2.87,6.89,6.89,0,0,0,4.36,1.38A6.38,6.38,0,0,0,16.87,17.1Z" style="fill:#1fa2ff"/></g></svg>