<svg id="Layer_1" data-name="Layer 1" xmlns="http://www.w3.org/2000/svg" width="25" height="25" viewBox="0 0 25 25"><title>twitter</title><rect width="25" height="25" style="fill:none"/><path d="M512,4.75a10.58,10.58,0,0,1-2.95.81,5.1,5.1,0,0,0,2.25-2.84A10.16,10.16,0,0,1,508.05,4a5.12,5.12,0,0,0-8.86,3.5,5.53,5.53,0,0,0,.11,1.17,14.5,14.5,0,0,1-10.56-5.36,5.13,5.13,0,0,0,1.58,6.85A5.18,5.18,0,0,1,488,9.5v.05a5.16,5.16,0,0,0,4.11,5,5.37,5.37,0,0,1-1.35.17,4.43,4.43,0,0,1-1-.09,5.18,5.18,0,0,0,4.79,3.57,10.32,10.32,0,0,1-6.35,2.19,9.92,9.92,0,0,1-1.23-.07A14.59,14.59,0,0,0,509.45,8.07c0-.22,0-.44,0-.66A10.16,10.16,0,0,0,512,4.75Z" transform="translate(-487)" style="fill:#1fa2ff"/></svg>