<svg id="Layer_1" data-name="Layer 1" xmlns="http://www.w3.org/2000/svg" width="32" height="32" viewBox="0 0 32 32"><title>twitter</title><path d="M496,0a16,16,0,1,0,16,16A16,16,0,0,0,496,0Zm7.31,12.48c0,.15,0,.31,0,.47A10.38,10.38,0,0,1,492.87,23.4h0a10.38,10.38,0,0,1-5.63-1.65,8.46,8.46,0,0,0,.87.05,7.43,7.43,0,0,0,4.57-1.57,3.69,3.69,0,0,1-3.44-2.55,4,4,0,0,0,.69.06,3.44,3.44,0,0,0,1-.13A3.66,3.66,0,0,1,488,14v0a3.71,3.71,0,0,0,1.66.46A3.67,3.67,0,0,1,488,11.37a3.76,3.76,0,0,1,.49-1.85,10.39,10.39,0,0,0,7.57,3.84,3.86,3.86,0,0,1-.09-.84A3.67,3.67,0,0,1,502.31,10a7.22,7.22,0,0,0,2.33-.89,3.62,3.62,0,0,1-1.61,2,7.18,7.18,0,0,0,2.11-.58A7.56,7.56,0,0,1,503.31,12.48Z" transform="translate(-480 0)" style="fill:#1fa2ff"/></svg>