<svg id="Layer_1" data-name="Layer 1" xmlns="http://www.w3.org/2000/svg" width="32" height="32" viewBox="0 0 32 32"><title>twitter-2</title><rect width="32" height="32" style="fill:none"/><path d="M512,6.08a13.48,13.48,0,0,1-3.78,1,6.51,6.51,0,0,0,2.89-3.62A13.34,13.34,0,0,1,507,5.08,6.56,6.56,0,0,0,495.6,9.56a6.7,6.7,0,0,0,.15,1.5A18.59,18.59,0,0,1,482.23,4.2a6.55,6.55,0,0,0,2,8.76,6.51,6.51,0,0,1-3-.8v.07a6.58,6.58,0,0,0,5.26,6.44,6.44,6.44,0,0,1-1.72.22,5.76,5.76,0,0,1-1.25-.11,6.63,6.63,0,0,0,6.13,4.57,13.2,13.2,0,0,1-8.13,2.8,13.51,13.51,0,0,1-1.57-.09A18.51,18.51,0,0,0,490.06,29c12.08,0,18.68-10,18.68-18.67,0-.29,0-.57,0-.85A13,13,0,0,0,512,6.08Z" transform="translate(-480)" style="fill:#fff"/></svg>