<svg xmlns="http://www.w3.org/2000/svg" width="161" height="161" viewBox="0 0 161 161"><defs><style>.a{fill:#1fa2ff;}</style></defs><title>A+</title><path class="a" d="M172.31,198.24H150.87l-4.82,13.4h-7l19.55-51.19h5.9l19.59,51.19H177.2Zm-19.4-5.52h17.4l-8.72-23.94Z" transform="translate(-104 -113)"/><path class="a" d="M208.63,184.18H222.9v6.15H208.63v16.18h-6.54V190.33H187.82v-6.15h14.27V169.24h6.54Z" transform="translate(-104 -113)"/><path class="a" d="M184.5,113A80.5,80.5,0,1,0,265,193.5,80.5,80.5,0,0,0,184.5,113Zm0,146A65.5,65.5,0,1,1,250,193.5,65.51,65.51,0,0,1,184.5,259Z" transform="translate(-104 -113)"/></svg>