<svg xmlns="http://www.w3.org/2000/svg" width="183.88" height="210.86" viewBox="0 0 183.88 210.86"><defs><style>.cls-1{isolation:isolate;}.cls-14,.cls-2{fill:none;}.cls-3{fill:#f3f3f3;}.cls-4{fill:#ccc;}.cls-5{fill:#010101;}.cls-6{fill:#808285;}.cls-18,.cls-6{mix-blend-mode:multiply;}.cls-7{fill:#dcddde;}.cls-8{fill:#a7a9ac;}.cls-9{fill:#003364;}.cls-10{fill:#2998c5;}.cls-11{fill:#8f60a8;}.cls-12{fill:#f6ca2b;}.cls-13{fill:#001b46;}.cls-14{stroke:#001b46;stroke-miterlimit:10;stroke-width:0.87px;}.cls-15{fill:#58595b;}.cls-16{fill:#fff;}.cls-17{fill:#97999c;}.cls-18{fill:#c4c6c8;}.cls-19{fill:#d9ab82;}.cls-20{fill:#333132;}.cls-21{fill:#bcbec0;}.cls-22{fill:#f69389;}.cls-23{fill:#b1b3b6;}.cls-24{fill:#414042;}</style></defs><title>accounting</title><g class="cls-1"><g id="Layer_1" data-name="Layer 1"><rect class="cls-2" width="183.88" height="210.86"/><rect class="cls-3" x="75.72" y="46.88" width="99.6" height="136.41" rx="4"/><rect class="cls-4" x="86.24" y="132.01" width="69.03" height="4.01" rx="1.88"/><rect class="cls-4" x="85.59" y="91.16" width="69.03" height="4.01" rx="1.88"/><path class="cls-5" d="M100.23,69h-3l-.67,2h-1l2.7-7.84h.82l2.71,7.84h-1Zm-2.68-.84H100l-1.21-3.67Z" transform="translate(0)"/><path class="cls-5" d="M108,68.57a3.05,3.05,0,0,1-.83,1.92,2.57,2.57,0,0,1-1.86.67,2.42,2.42,0,0,1-2-1,4.36,4.36,0,0,1-.76-2.67v-.75a4.85,4.85,0,0,1,.36-1.93,2.85,2.85,0,0,1,1-1.27,2.55,2.55,0,0,1,1.5-.44,2.4,2.4,0,0,1,1.8.69,3.08,3.08,0,0,1,.8,1.93H107a2.38,2.38,0,0,0-.53-1.36,1.5,1.5,0,0,0-1.13-.42,1.64,1.64,0,0,0-1.41.73,3.65,3.65,0,0,0-.51,2.09v.76a3.65,3.65,0,0,0,.49,2,1.52,1.52,0,0,0,1.34.76,1.7,1.7,0,0,0,1.2-.39,2.33,2.33,0,0,0,.55-1.36Z" transform="translate(0)"/><path class="cls-5" d="M114.46,68.57a3,3,0,0,1-.83,1.92,2.53,2.53,0,0,1-1.85.67,2.39,2.39,0,0,1-2-1A4.3,4.3,0,0,1,109,67.5v-.75a5,5,0,0,1,.35-1.93,2.92,2.92,0,0,1,1-1.27,2.55,2.55,0,0,1,1.5-.44,2.43,2.43,0,0,1,1.81.69,3.07,3.07,0,0,1,.79,1.93h-.94a2.38,2.38,0,0,0-.52-1.36,1.51,1.51,0,0,0-1.14-.42,1.62,1.62,0,0,0-1.4.73,3.65,3.65,0,0,0-.51,2.09v.76a3.74,3.74,0,0,0,.48,2,1.53,1.53,0,0,0,1.35.76,1.67,1.67,0,0,0,1.19-.39,2.27,2.27,0,0,0,.55-1.36Z" transform="translate(0)"/><path class="cls-5" d="M121.19,67.39a5.35,5.35,0,0,1-.35,2,2.93,2.93,0,0,1-1,1.31,2.69,2.69,0,0,1-3,0,2.94,2.94,0,0,1-1-1.3,5.1,5.1,0,0,1-.37-2v-.57a5.41,5.41,0,0,1,.35-2,3,3,0,0,1,1-1.32,2.48,2.48,0,0,1,1.49-.46,2.6,2.6,0,0,1,1.5.45,2.91,2.91,0,0,1,1,1.32,5.42,5.42,0,0,1,.35,2Zm-.93-.51a3.78,3.78,0,0,0-.51-2.14,1.7,1.7,0,0,0-2.81,0,3.72,3.72,0,0,0-.52,2.07v.58a3.8,3.8,0,0,0,.51,2.12,1.7,1.7,0,0,0,2.82,0,3.76,3.76,0,0,0,.51-2.09Z" transform="translate(0)"/><path class="cls-5" d="M127.57,63.21v5.33a2.63,2.63,0,0,1-.63,1.82,2.42,2.42,0,0,1-1.69.79H125a2.49,2.49,0,0,1-1.85-.69,2.61,2.61,0,0,1-.7-1.91V63.21h.92v5.31a2,2,0,0,0,.42,1.33,1.57,1.57,0,0,0,1.21.47,1.54,1.54,0,0,0,1.21-.47,1.9,1.9,0,0,0,.42-1.32V63.21Z" transform="translate(0)"/><path class="cls-5" d="M134.49,71.05h-.94L130,65v6h-.94V63.21H130l3.57,6.07V63.21h.93Z" transform="translate(0)"/><path class="cls-5" d="M140.9,64.06h-2.27v7h-.93v-7h-2.27v-.85h5.47Z" transform="translate(0)"/><path class="cls-5" d="M143,71.05H142V63.21H143Z" transform="translate(0)"/><path class="cls-5" d="M150.11,71.05h-.94l-3.57-6v6h-.94V63.21h.94l3.58,6.07V63.21h.93Z" transform="translate(0)"/><path class="cls-5" d="M157,70a2.22,2.22,0,0,1-1,.85,3.68,3.68,0,0,1-1.5.28,2.7,2.7,0,0,1-1.54-.45,2.88,2.88,0,0,1-1-1.28,4.6,4.6,0,0,1-.38-1.92v-.68a4.5,4.5,0,0,1,.74-2.75,2.49,2.49,0,0,1,2.1-1,2.56,2.56,0,0,1,1.79.62,2.87,2.87,0,0,1,.83,1.78h-.94a1.7,1.7,0,0,0-3.09-.83,3.78,3.78,0,0,0-.49,2.12v.64a3.63,3.63,0,0,0,.54,2.1,1.71,1.71,0,0,0,1.48.78,3.19,3.19,0,0,0,.92-.13,1.45,1.45,0,0,0,.65-.44V68h-1.64v-.85H157Z" transform="translate(0)"/><rect class="cls-4" x="84.97" y="111.96" width="69.03" height="4.01" rx="1.88"/><polyline class="cls-6" points="34.26 204.74 70.03 192.36 53.9 150.69 18.13 163.06 34.26 204.74"/><polyline class="cls-6" points="141.86 158.85 104.64 151.22 94.69 194.59 131.92 202.22"/><line class="cls-6" x1="131.92" y1="202.22" x2="141.86" y2="158.85"/><polyline class="cls-7" points="35.49 202.06 19.36 160.39 55.13 148.02 71.26 189.69 35.49 202.06"/><polygon class="cls-8" points="57.74 166.17 29.27 176.02 28.87 174.97 57.34 165.13 57.74 166.17"/><polygon class="cls-8" points="56.46 162.75 43.59 167.2 43.19 166.16 56.05 161.71 56.46 162.75"/><polygon class="cls-8" points="55.14 159.35 42.28 163.8 41.87 162.75 54.73 158.3 55.14 159.35"/><polygon class="cls-8" points="53.82 155.94 40.96 160.39 40.55 159.34 53.41 154.9 53.82 155.94"/><polygon class="cls-8" points="59.06 169.58 30.59 179.43 30.19 178.38 58.66 168.53 59.06 169.58"/><polygon class="cls-8" points="60.38 172.99 31.91 182.83 31.51 181.79 59.98 171.94 60.38 172.99"/><polygon class="cls-8" points="61.7 176.39 33.23 186.24 32.83 185.19 61.3 175.35 61.7 176.39"/><path class="cls-9" d="M30.17,171a6.13,6.13,0,0,0,7.91-2.75,5.53,5.53,0,0,0-2.88-7.49Z" transform="translate(0)"/><path class="cls-10" d="M35.21,160.78l0,0a6.12,6.12,0,0,0-7.93,2.74,5.52,5.52,0,0,0,2.9,7.5l0,0Z" transform="translate(0)"/><path class="cls-11" d="M30.18,171l2.52-5.14-5.86,1.3a5.75,5.75,0,0,0,3.3,3.82Z" transform="translate(0)"/><path class="cls-12" d="M32.7,165.87,30.17,171a6.3,6.3,0,0,0,5.7-.38Z" transform="translate(0)"/><path class="cls-10" d="M54.89,186.25a4.86,4.86,0,0,0-6-2.45l-.15,0,.55,1.44.15-.06a3.22,3.22,0,0,1,3.93,1.55l-.42.14,1.58.79.7-1.58Z" transform="translate(0)"/><path class="cls-11" d="M50.19,184.24l-1.85-.72.17.43A4.4,4.4,0,0,0,46,189.49l1.51-.52a2.92,2.92,0,0,1,1.52-3.59l.2.51Z" transform="translate(0)"/><path class="cls-13" d="M55,186.59l-.49,1.12-1-.5a2.82,2.82,0,0,1-.73,2.81h0a3.26,3.26,0,0,1-1.22.77,3.21,3.21,0,0,1-4-1.68l.53-.19-1.74-.87-.77,1.75.46-.17a4.85,4.85,0,0,0,6.06,2.59,4.72,4.72,0,0,0,2.27-1.66l0,0,0,0h0A4.38,4.38,0,0,0,55,186.59Z" transform="translate(0)"/><path class="cls-9" d="M44.22,190s0,0,0,0a4.8,4.8,0,0,0-6.06-2.66,4.54,4.54,0,0,0-3,3.51l4.67.73Z" transform="translate(0)"/><path class="cls-10" d="M39.88,191.43,35.32,193v0a4.8,4.8,0,0,0,6.06,2.65l.12,0Z" transform="translate(0)"/><path class="cls-11" d="M44.19,189.94l-4.45,1.54,1.64,4.22h0A4.39,4.39,0,0,0,44.2,190Z" transform="translate(0)"/><path class="cls-12" d="M39.73,191.48l4.46-1.54a4.57,4.57,0,0,0-3.41-2.8Z" transform="translate(0)"/><path class="cls-13" d="M35.11,190.76a4.07,4.07,0,0,0,.21,2.25l4.43-1.53Z" transform="translate(0)"/><path class="cls-10" d="M58.8,188.28a4.37,4.37,0,0,1-2.3-5.93,4.85,4.85,0,0,1,6.28-2.17,4.37,4.37,0,0,1,2.29,5.93A4.83,4.83,0,0,1,58.8,188.28Z" transform="translate(0)"/><path class="cls-12" d="M62.81,180.19h0a4.85,4.85,0,0,0-6.28,2.17,4.37,4.37,0,0,0,2.3,5.93h0Z" transform="translate(0)"/><path class="cls-9" d="M58.83,188.29l2-4.06-4.31-1.89h0a4.37,4.37,0,0,0,2.3,5.93Z" transform="translate(0)"/><line class="cls-7" x1="140.14" y1="156.41" x2="130.2" y2="199.78"/><polyline class="cls-7" points="130.2 199.78 92.97 192.15 102.92 148.78 140.14 156.41"/><polygon class="cls-8" points="129.66 184.59 100.03 178.52 100.28 177.44 129.91 183.5 129.66 184.59"/><polygon class="cls-8" points="133.62 167.85 103.84 161.75 104.09 160.66 133.87 166.76 133.62 167.85"/><polygon class="cls-8" points="134.35 164.65 104.58 158.55 104.82 157.46 134.6 163.56 134.35 164.65"/><polygon class="cls-8" points="128.83 188.19 99.2 182.12 99.45 181.03 129.08 187.1 128.83 188.19"/><polygon class="cls-8" points="128.01 191.79 98.38 185.72 98.63 184.63 128.26 190.7 128.01 191.79"/><polygon class="cls-8" points="127.18 195.39 97.55 189.32 97.8 188.23 127.43 194.3 127.18 195.39"/><polyline class="cls-8" points="135.13 161.28 105.34 155.18 105.81 153.15 135.59 159.25"/><polygon class="cls-10" points="106.11 175.89 103.82 175.43 105.7 167.22 107.99 167.69 106.11 175.89"/><polygon class="cls-11" points="108.94 176.47 106.65 176 107.9 170.58 110.19 171.04 108.94 176.47"/><polygon class="cls-12" points="111.77 177.05 109.48 176.59 110.48 172.25 112.77 172.72 111.77 177.05"/><polygon class="cls-13" points="102.55 174.94 105.13 163.69 104.47 163.56 101.76 175.42 114.22 177.97 114.36 177.35 102.55 174.94"/><polygon class="cls-13" points="112.93 171.1 111.9 168.27 109.64 169.65 107.58 164.87 105.42 166.53 105.75 166.91 107.36 165.66 109.4 170.38 111.63 169.02 112.44 171.25 111.54 171.52 113.14 172.4 113.88 170.81 112.93 171.1"/><polygon class="cls-10" points="125.2 179.8 127.48 180.27 128.47 175.95 126.19 175.49 125.2 179.8"/><polygon class="cls-11" points="122.36 179.22 124.65 179.69 126.11 173.34 123.82 172.87 122.36 179.22"/><polygon class="cls-12" points="119.53 178.64 121.82 179.11 122.74 175.1 120.45 174.63 119.53 178.64"/><polygon class="cls-13" points="118.26 178.15 120.84 166.91 120.19 166.78 117.47 178.64 129.43 181.09 129.57 180.47 118.26 178.15"/><polygon class="cls-13" points="131.85 172.16 129.78 171.99 130.38 172.85 127.74 174.71 125.63 170.61 121.3 173.65 121.61 174.04 125.43 171.35 127.54 175.45 130.66 173.26 131.21 174.05 131.85 172.16"/><rect class="cls-6" x="59.44" y="140.22" width="43.42" height="48.74"/><rect class="cls-7" x="58.74" y="138.38" width="41.61" height="48.47"/><rect class="cls-8" x="62.99" y="158.15" width="33.12" height="1.22"/><rect class="cls-8" x="62.99" y="162.11" width="33.12" height="1.22"/><rect class="cls-8" x="62.99" y="166.07" width="33.12" height="1.22"/><rect class="cls-8" x="62.99" y="170.03" width="33.12" height="1.22"/><rect class="cls-10" x="65.8" y="146.92" width="2.28" height="8.17"/><rect class="cls-11" x="68.59" y="149.82" width="2.28" height="5.41"/><rect class="cls-12" x="71.38" y="148.06" width="2.28" height="7.17"/><rect class="cls-9" x="74.16" y="152.52" width="2.28" height="2.7"/><polygon class="cls-13" points="64.74 154.83 64.74 142.92 64.05 142.92 64.05 155.48 77.68 155.48 77.68 154.83 64.74 154.83"/><polyline class="cls-14" points="65.62 146.11 67.91 144.96 69.85 148.41 72.51 145.91 75.3 149.4 77.39 147.16"/><path class="cls-12" d="M65.79,146.37a.39.39,0,0,1-.52-.07.33.33,0,0,1,.08-.49.39.39,0,0,1,.52.07A.34.34,0,0,1,65.79,146.37Z" transform="translate(0)"/><path class="cls-12" d="M72.7,146.22a.39.39,0,0,1-.52-.07.33.33,0,0,1,.08-.49.39.39,0,0,1,.52.07A.34.34,0,0,1,72.7,146.22Z" transform="translate(0)"/><path class="cls-12" d="M70.12,148.71a.39.39,0,0,1-.52-.08.34.34,0,0,1,.08-.49.39.39,0,0,1,.52.08A.34.34,0,0,1,70.12,148.71Z" transform="translate(0)"/><path class="cls-12" d="M68.08,145.28a.38.38,0,0,1-.51-.08.33.33,0,0,1,.08-.49.39.39,0,0,1,.52.08A.34.34,0,0,1,68.08,145.28Z" transform="translate(0)"/><path class="cls-12" d="M75.52,149.68a.39.39,0,0,1-.52-.08.34.34,0,0,1,.08-.49.39.39,0,0,1,.52.08A.33.33,0,0,1,75.52,149.68Z" transform="translate(0)"/><path class="cls-12" d="M77.57,147.4a.38.38,0,0,1-.52-.07.34.34,0,0,1,.08-.49.39.39,0,0,1,.52.07A.33.33,0,0,1,77.57,147.4Z" transform="translate(0)"/><polygon class="cls-11" points="93.65 153.09 90.04 146.88 84.22 146.88 80.51 153.09 93.65 153.09"/><polygon class="cls-13" points="93.38 152.63 80.78 152.63 79.08 155.48 95.04 155.48 93.38 152.63"/><polygon class="cls-10" points="90.27 147.27 87.17 141.94 83.98 147.27 90.27 147.27"/><path class="cls-9" d="M72.81,179v0a4.44,4.44,0,0,0-4.56-4.31,4.61,4.61,0,0,0-4,2.22l4,2.13Z" transform="translate(0)"/><path class="cls-10" d="M68.39,179H63.7v0a4.43,4.43,0,0,0,4.56,4.3h.13Z" transform="translate(0)"/><path class="cls-11" d="M72.81,179H68.25v4.33h0a4.43,4.43,0,0,0,4.56-4.3Z" transform="translate(0)"/><path class="cls-12" d="M68.24,179h4.57a4.14,4.14,0,0,0-2.1-3.6Z" transform="translate(0)"/><path class="cls-13" d="M64.3,176.84a4.17,4.17,0,0,0-.6,2.11h4.56Z" transform="translate(0)"/><path class="cls-9" d="M95.39,179a4.57,4.57,0,0,0-9.12,0Z" transform="translate(0)"/><path class="cls-10" d="M86.27,179v0a4.57,4.57,0,0,0,9.12,0v0Z" transform="translate(0)"/><path class="cls-11" d="M95.39,179H90.82l2.83,3.41A4.21,4.21,0,0,0,95.39,179Z" transform="translate(0)"/><path class="cls-12" d="M90.81,179h4.58a4.3,4.3,0,0,0-2.11-3.6Z" transform="translate(0)"/><ellipse class="cls-10" cx="79.54" cy="178.98" rx="4.56" ry="4.31"/><path class="cls-12" d="M82.79,176l0,0a4.76,4.76,0,0,0-6.45,0,4.14,4.14,0,0,0,0,6.09l0,0Z" transform="translate(0)"/><path class="cls-9" d="M76.34,182l3.23-3-3.24-3.06h0a4.14,4.14,0,0,0,0,6.09Z" transform="translate(0)"/><path class="cls-6" d="M67.56,119.8c.12-.21,0-.5-.35-.66l-.81-.4c-.31-.16-.66-.13-.78.08l-1,1.71a1.81,1.81,0,0,0-2.17.78L52,139.89l-.06,0a.23.23,0,0,0-.3.09l-.47.83a.2.2,0,0,0,.09.28l.06,0-3.24,5.73a.23.23,0,0,0-.3.08l-.47.84a.21.21,0,0,0,.09.28h0c-.29.53-1.77,3.64-1.42,5h0l-.27,2.17h0l-.12,1,.86-.62h0l1.89-1.37a3.21,3.21,0,0,0,.79-.48l.07-.06.18-.15.11-.1.16-.15.13-.14a1.85,1.85,0,0,0,.14-.14l.15-.16.12-.13.16-.18a1.47,1.47,0,0,1,.1-.13c.06-.06.11-.13.16-.19l.1-.12.16-.2a.44.44,0,0,1,.08-.11l.15-.2.08-.11.13-.18.08-.11.11-.16.08-.12a1,1,0,0,1,.08-.11l.08-.13,0-.07.08-.13,0,0,.07-.11h0a.22.22,0,0,0,.3-.08l.47-.83a.31.31,0,0,0,0-.08.21.21,0,0,0-.11-.21l3.24-5.74a.22.22,0,0,0,.12,0h0a.18.18,0,0,0,.09-.08l.47-.83a.19.19,0,0,0,0-.07s0,0,0,0v0s0,0,0,0,0,0,0,0l0,0,10.51-18.59a1.88,1.88,0,0,0,.12-.3.38.38,0,0,0,0-.1,1.77,1.77,0,0,0,0-.2.57.57,0,0,0,0-.13v-.18s0-.09,0-.13a1,1,0,0,0,0-.17.65.65,0,0,0,0-.13l-.06-.15A.83.83,0,0,1,67,122a.64.64,0,0,0-.1-.13l-.09-.12-.12-.12a1.27,1.27,0,0,0-.12-.1h0Z" transform="translate(0)"/><path class="cls-6" d="M24.84,163.54l.25-.68h0l.67-1.79-1-.32,1-2.74.11-.3.64.1.17,0,.5,0,.26,0,.4,0h1l.37,0h.3l.36,0,.29,0,.36-.05.29,0,.36-.06.28-.06.38-.08.26-.06.48-.13.16,0,.59-.19.23-.09.37-.14.26-.1.33-.15a2.06,2.06,0,0,0,.26-.12l.32-.15.26-.13.31-.17.26-.14.3-.19.24-.15.3-.2.23-.15.31-.23a1.56,1.56,0,0,0,.2-.16c.12-.08.23-.18.34-.27l.16-.13c.16-.13.32-.28.47-.42l.13-.13.32-.32.18-.18c.08-.1.17-.19.26-.29a1.63,1.63,0,0,0,.17-.2l.24-.29.17-.22.22-.29.16-.23.21-.31.15-.23c.07-.11.13-.22.19-.33a1.76,1.76,0,0,0,.14-.23l.19-.35.12-.23.18-.4.09-.2c.09-.2.17-.41.25-.61,2.6-7-1.27-14.62-8.65-17.07l-.08,0h0c-7.35-2.4-15.39,1.25-18,8.2a13.07,13.07,0,0,0,6.63,16.22l-1.14,3.05-.95-.32L19,160.84h0l-.66,1.8-.61,1.63-.26.69h0l-5.08,13.61a1.06,1.06,0,0,0,.69,1.37l1.88.62h0l2,.68a1.15,1.15,0,0,0,1.45-.65" transform="translate(0)"/><path class="cls-6" d="M135.59,133.74l-12.49,1.92h0L111,137.51a1.3,1.3,0,0,0-1.17,1.44L114.35,165a1.36,1.36,0,0,0,1.58,1l24.56-3.77" transform="translate(0)"/><path class="cls-6" d="M108.94,150.56h0L96.21,123.09h0l-.06-.12h0l-.29-.62-.37-.81h0l-.41-.88a1.09,1.09,0,0,0-1.4-.54l-1,.4h0l-.75.31a1,1,0,0,0-.52,1.33l.41.89h0l.71,1.55h0l12.73,27.46h0l2.46,2.29h0l1.09,1V153.9h0l.05-3.33Z" transform="translate(0)"/><path class="cls-15" d="M142.28,164.13l-24.55,3.77a1.34,1.34,0,0,1-1.58-1l-4.48-26.07a1.29,1.29,0,0,1,1.16-1.44l24.56-3.77" transform="translate(0)"/><path class="cls-16" d="M137,144.71l-20.66,3.16a1.07,1.07,0,0,1-1.19-.9l-.7-4.09a1,1,0,0,1,.83-1.22l20.65-3.16" transform="translate(0)"/><path class="cls-16" d="M119.87,153.21a.57.57,0,0,1-.49.64l-2.17.33a.59.59,0,0,1-.67-.46l-.49-2.87a.56.56,0,0,1,.49-.63l2.16-.33a.57.57,0,0,1,.67.45Z" transform="translate(0)"/><path class="cls-16" d="M124.54,152.49a.56.56,0,0,1-.48.64l-2.17.33a.58.58,0,0,1-.67-.46l-.49-2.86a.56.56,0,0,1,.48-.64l2.17-.33a.58.58,0,0,1,.67.46Z" transform="translate(0)"/><path class="cls-16" d="M129.22,151.78a.56.56,0,0,1-.49.63l-2.16.33a.57.57,0,0,1-.67-.45l-.5-2.87a.57.57,0,0,1,.49-.64l2.16-.33a.6.6,0,0,1,.68.46Z" transform="translate(0)"/><path class="cls-16" d="M133.89,151.06a.54.54,0,0,1-.48.63l-2.17.34a.58.58,0,0,1-.67-.46l-.49-2.87a.55.55,0,0,1,.48-.63l2.17-.33a.57.57,0,0,1,.67.45Z" transform="translate(0)"/><path class="cls-16" d="M120.77,158.47a.56.56,0,0,1-.49.63l-2.16.33a.57.57,0,0,1-.67-.45l-.5-2.87a.57.57,0,0,1,.49-.64l2.16-.33a.6.6,0,0,1,.68.46Z" transform="translate(0)"/><path class="cls-16" d="M125.44,157.75a.54.54,0,0,1-.48.63l-2.17.34a.58.58,0,0,1-.67-.46l-.49-2.87a.55.55,0,0,1,.48-.63l2.17-.33a.57.57,0,0,1,.67.45Z" transform="translate(0)"/><path class="cls-16" d="M130.12,157a.57.57,0,0,1-.48.64l-2.17.33a.58.58,0,0,1-.67-.46l-.49-2.86a.55.55,0,0,1,.48-.64l2.17-.33a.57.57,0,0,1,.67.46Z" transform="translate(0)"/><path class="cls-16" d="M121.7,163.93a.55.55,0,0,1-.48.63l-2.17.33a.58.58,0,0,1-.67-.45l-.49-2.87a.57.57,0,0,1,.48-.64l2.17-.33a.58.58,0,0,1,.67.46Z" transform="translate(0)"/><path class="cls-16" d="M126.38,163.21a.55.55,0,0,1-.48.63l-2.17.34a.58.58,0,0,1-.67-.46l-.49-2.87a.55.55,0,0,1,.48-.63l2.17-.33a.57.57,0,0,1,.67.45Z" transform="translate(0)"/><path class="cls-16" d="M131.06,162.49a.57.57,0,0,1-.49.64l-2.16.33a.58.58,0,0,1-.67-.46l-.5-2.86a.56.56,0,0,1,.49-.64l2.16-.33a.57.57,0,0,1,.67.46Z" transform="translate(0)"/><path class="cls-17" d="M139.85,161.84l-6.79,1a.6.6,0,0,1-.67-.46L130.94,154a.56.56,0,0,1,.48-.63l6.79-1" transform="translate(0)"/><polyline class="cls-18" points="137.39 135.6 124.89 137.52 129.79 166.05 142.28 164.13"/><polygon class="cls-19" points="108.14 155.06 108.2 151.7 104.56 153.22 107.04 155.52 108.14 155.06"/><polygon class="cls-20" points="107.04 155.52 108.12 156.53 108.14 155.06 107.04 155.52"/><polygon class="cls-21" points="91.63 125.32 104.57 153.23 108.2 151.72 95.27 123.82 91.63 125.32"/><path class="cls-22" d="M95.42,124.14l-1.08-2.32a1.08,1.08,0,0,0-1.39-.54l-1.71.71a1,1,0,0,0-.53,1.34l1.07,2.31Z" transform="translate(0)"/><polygon class="cls-15" points="91.12 124.21 91.83 125.76 95.47 124.25 94.75 122.7 91.12 124.21"/><path class="cls-18" d="M108.19,151.71,95.47,124.25h0l-1.13-2.43a1.08,1.08,0,0,0-1.39-.54l-1,.4,16.14,34.82,0-1.44h0l.06-3.33h0Z" transform="translate(0)"/><path class="cls-23" d="M66.61,124.38c-.11.2-.46.24-.77.08l-.81-.4c-.31-.16-.47-.45-.35-.66L66.61,120c.11-.2.46-.24.77-.08l.81.4c.31.16.47.46.36.66Z" transform="translate(0)"/><polygon class="cls-23" points="47.44 156.76 49.41 155.34 46.98 154.11 46.7 156.38 47.44 156.76"/><polygon class="cls-20" points="46.7 156.38 46.57 157.38 47.44 156.76 46.7 156.38"/><path class="cls-15" d="M49.32,155.4c1.5-.61,3.4-3.52,3.64-4L68,124.77a1.64,1.64,0,0,0-.73-2.27l-1.44-.72a1.82,1.82,0,0,0-2.4.69L48.4,149.15c-.25.44-1.8,3.65-1.44,5.06Z" transform="translate(0)"/><path class="cls-23" d="M53.24,151.4a.24.24,0,0,1-.3.09l-4.56-2.31a.2.2,0,0,1-.09-.28l.47-.83a.22.22,0,0,1,.3-.09l4.56,2.3a.21.21,0,0,1,.09.29Z" transform="translate(0)"/><path class="cls-23" d="M57.09,144.43a.22.22,0,0,1-.3.09l-4.56-2.3a.21.21,0,0,1-.09-.29l.47-.83a.24.24,0,0,1,.3-.09l4.56,2.31a.2.2,0,0,1,.09.28Z" transform="translate(0)"/><path class="cls-23" d="M57.65,138.78c-.11.2-.91.42-.91.42s-.25-.75-.13-.95l7.73-13.68a.45.45,0,0,1,.6-.17l.26.13a.4.4,0,0,1,.18.57Z" transform="translate(0)"/><path class="cls-18" d="M53.71,150.57a.21.21,0,0,0-.09-.29l3.25-5.74a.22.22,0,0,0,.22-.11l.47-.83a.2.2,0,0,0,0-.24L68,124.77a1.62,1.62,0,0,0-.46-2.1l1-1.71c.11-.2,0-.5-.36-.66l-.44-.22L46.58,157.33v0l.87-.62h0l1.89-1.36c1.47-.6,3.31-3.4,3.61-3.91a.24.24,0,0,0,.3-.09Z" transform="translate(0)"/><polygon class="cls-24" points="20.21 155.23 17.34 162.93 21.5 164.32 24.37 156.61 20.21 155.23"/><path class="cls-21" d="M18,158.35,10.7,177.87a1.06,1.06,0,0,0,.69,1.37l3.92,1.31a1.16,1.16,0,0,0,1.45-.66L24,160.37Z" transform="translate(0)"/><polygon class="cls-24" points="22.52 164.43 23.37 162.16 17.31 160.15 16.47 162.41 22.52 164.43"/><polygon class="cls-24" points="16.26 162.97 15.78 164.26 21.83 166.28 22.31 164.99 16.26 162.97"/><path class="cls-15" d="M40.15,148.3c-2.6,7-10.69,10.63-18.06,8.17s-11.25-10.1-8.65-17.07,10.69-10.63,18.06-8.17S42.75,141.33,40.15,148.3Z" transform="translate(0)"/><path class="cls-16" d="M37.77,147.51c-2.13,5.73-8.78,8.74-14.85,6.72a10.87,10.87,0,0,1-7.11-14c2.14-5.73,8.79-8.74,14.85-6.72A10.86,10.86,0,0,1,37.77,147.51Z" transform="translate(0)"/></g></g></svg>