<svg id="Layer_1" data-name="Layer 1" xmlns="http://www.w3.org/2000/svg" width="100" height="100" viewBox="0 0 100 100"><title>accounting</title><g id="Circle_Grid" data-name="Circle Grid"><circle cx="50" cy="50" r="50" style="fill:#ea8953"/></g><g id="icon"><rect x="26.49" y="17.58" width="47.03" height="64.84" rx="2.49" style="fill:#62667c"/><path d="M442.46,22h39.08V36.63H442.46Z" transform="translate(-412 0)" style="fill:#69b0ee"/><rect x="30.46" y="41.88" width="6.22" height="6.22" rx="0.76" style="fill:#dbd8dd"/><rect x="41.41" y="41.88" width="6.22" height="6.22" rx="0.76" style="fill:#dbd8dd"/><rect x="52.37" y="41.88" width="6.22" height="6.22" rx="0.76" style="fill:#dbd8dd"/><rect x="63.32" y="41.88" width="6.22" height="6.22" rx="0.76" style="fill:#2cbfae"/><rect x="30.46" y="51.72" width="6.22" height="6.22" rx="0.76" style="fill:#dbd8dd"/><rect x="41.41" y="51.72" width="6.22" height="6.22" rx="0.76" style="fill:#dbd8dd"/><rect x="52.37" y="51.72" width="6.22" height="6.22" rx="0.76" style="fill:#dbd8dd"/><rect x="63.32" y="51.72" width="6.22" height="6.22" rx="0.76" style="fill:#f6c863"/><rect x="30.46" y="61.56" width="6.22" height="6.22" rx="0.76" style="fill:#dbd8dd"/><rect x="41.41" y="61.56" width="6.22" height="6.22" rx="0.76" style="fill:#dbd8dd"/><rect x="52.37" y="61.56" width="6.22" height="6.22" rx="0.76" style="fill:#dbd8dd"/><rect x="63.32" y="61.56" width="6.22" height="16.06" rx="0.76" style="fill:#ef5261"/><rect x="30.46" y="71.4" width="6.22" height="6.22" rx="0.76" style="fill:#dbd8dd"/><rect x="41.41" y="71.4" width="6.22" height="6.22" rx="0.76" style="fill:#dbd8dd"/><rect x="52.37" y="71.4" width="6.22" height="6.22" rx="0.76" style="fill:#dbd8dd"/></g></svg>