<svg xmlns="http://www.w3.org/2000/svg" width="183.8816" height="210.8553" viewBox="0 0 183.8816 210.8553"><defs><style>.cls-1{isolation:isolate;}.cls-2{fill:#373f44;}.cls-3{fill:#f3f3f3;}.cls-4{fill:#ccc;}.cls-5{fill:#010101;}.cls-6{fill:#808285;}.cls-18,.cls-6{mix-blend-mode:multiply;}.cls-7{fill:#dcddde;}.cls-8{fill:#a7a9ac;}.cls-9{fill:#003364;}.cls-10{fill:#2998c5;}.cls-11{fill:#8f60a8;}.cls-12{fill:#f6ca2b;}.cls-13{fill:#001b46;}.cls-14{fill:none;stroke:#001b46;stroke-miterlimit:10;stroke-width:0.8705px;}.cls-15{fill:#58595b;}.cls-16{fill:#fff;}.cls-17{fill:#97999c;}.cls-18{fill:#c4c6c8;}.cls-19{fill:#d9ab82;}.cls-20{fill:#333132;}.cls-21{fill:#bcbec0;}.cls-22{fill:#f69389;}.cls-23{fill:#b1b3b6;}.cls-24{fill:#414042;}</style></defs><title>accounting</title><g class="cls-1"><g id="Layer_1" data-name="Layer 1"><rect class="cls-2" width="183.8816" height="210.8553"/><rect class="cls-3" x="75.7173" y="46.8805" width="99.6017" height="136.4054" rx="4"/><rect class="cls-4" x="86.2358" y="132.0113" width="69.0324" height="4.0138" rx="1.8818"/><rect class="cls-4" x="85.5885" y="91.1565" width="69.0324" height="4.0138" rx="1.8818"/><path class="cls-5" d="M100.2336,69.0025H97.2658L96.6,71.0542h-.9639l2.7051-7.84h.8174l2.71,7.84h-.959Zm-2.6855-.8452h2.4082L98.7492,64.49Z" transform="translate(0)"/><path class="cls-5" d="M107.9777,68.5664a3.0126,3.0126,0,0,1-.8291,1.92,2.5568,2.5568,0,0,1-1.8554.6757,2.4,2.4,0,0,1-2.0117-.9965,4.2951,4.2951,0,0,1-.7569-2.6651v-.7539a4.873,4.873,0,0,1,.3526-1.9224,2.8462,2.8462,0,0,1,1-1.2734,2.5806,2.5806,0,0,1,1.498-.4443,2.414,2.414,0,0,1,1.81.6972,3.0593,3.0593,0,0,1,.7929,1.9307h-.9384a2.3661,2.3661,0,0,0-.5284-1.3613,1.5036,1.5036,0,0,0-1.1357-.4214,1.6166,1.6166,0,0,0-1.4033.7329,3.6345,3.6345,0,0,0-.5088,2.0859v.76a3.7385,3.7385,0,0,0,.4824,2.0317,1.5134,1.5134,0,0,0,1.3477.7544,1.6771,1.6771,0,0,0,1.1933-.39,2.2723,2.2723,0,0,0,.5528-1.36Z" transform="translate(0)"/><path class="cls-5" d="M114.4631,68.5664a3.0138,3.0138,0,0,1-.83,1.92,2.5554,2.5554,0,0,1-1.8555.6757,2.4009,2.4009,0,0,1-2.0117-.9965,4.3013,4.3013,0,0,1-.7558-2.6651v-.7539a4.8748,4.8748,0,0,1,.3525-1.9224,2.8458,2.8458,0,0,1,.999-1.2734,2.5843,2.5843,0,0,1,1.4991-.4443,2.4153,2.4153,0,0,1,1.81.6972,3.0648,3.0648,0,0,1,.793,1.9307h-.9395a2.3722,2.3722,0,0,0-.5273-1.3613,1.5036,1.5036,0,0,0-1.1357-.4214,1.6168,1.6168,0,0,0-1.4034.7329,3.6275,3.6275,0,0,0-.5088,2.0859v.76a3.7387,3.7387,0,0,0,.4815,2.0317,1.5156,1.5156,0,0,0,1.3476.7544,1.6817,1.6817,0,0,0,1.1944-.39,2.2723,2.2723,0,0,0,.5517-1.36Z" transform="translate(0)"/><path class="cls-5" d="M121.1858,67.3872a5.3072,5.3072,0,0,1-.35,2.0113,2.8812,2.8812,0,0,1-.9921,1.311,2.677,2.677,0,0,1-2.9825-.0024,2.939,2.939,0,0,1-1.0048-1.2979,5.0879,5.0879,0,0,1-.3672-1.9521v-.5655a5.2283,5.2283,0,0,1,.3554-1.9975,2.94,2.94,0,0,1,1.0039-1.3272,2.5068,2.5068,0,0,1,1.4864-.46,2.5511,2.5511,0,0,1,1.5009.455,2.8781,2.8781,0,0,1,1,1.3194,5.3307,5.3307,0,0,1,.35,2.0107Zm-.9288-.5063a3.8027,3.8027,0,0,0-.5058-2.14,1.6172,1.6172,0,0,0-1.416-.7456,1.6,1.6,0,0,0-1.3936.7456,3.7066,3.7066,0,0,0-.5224,2.07v.5761a3.8083,3.8083,0,0,0,.5126,2.1245,1.6944,1.6944,0,0,0,2.8145.043,3.7779,3.7779,0,0,0,.5107-2.0923Z" transform="translate(0)"/><path class="cls-5" d="M127.5734,63.2139v5.331a2.6487,2.6487,0,0,1-.63,1.8145,2.4254,2.4254,0,0,1-1.6953.792L125,71.1621a2.498,2.498,0,0,1-1.8535-.6948,2.6183,2.6183,0,0,1-.7-1.9116V63.2139h.9238v5.31a1.9077,1.9077,0,0,0,.4239,1.3217,1.7932,1.7932,0,0,0,2.42.003,1.9082,1.9082,0,0,0,.4209-1.3194V63.2139Z" transform="translate(0)"/><path class="cls-5" d="M134.4914,71.0542h-.9394l-3.5655-6.0415v6.0415h-.9384v-7.84h.9384l3.5752,6.0688V63.2139h.93Z" transform="translate(0)"/><path class="cls-5" d="M140.9035,64.06h-2.2763v6.9946h-.93V64.06H135.426v-.8457h5.4775Z" transform="translate(0)"/><path class="cls-5" d="M142.9563,71.0542h-.9336v-7.84h.9336Z" transform="translate(0)"/><path class="cls-5" d="M150.1076,71.0542h-.9394l-3.5655-6.0415v6.0415h-.9384v-7.84h.9384l3.5752,6.0688V63.2139h.93Z" transform="translate(0)"/><path class="cls-5" d="M156.9963,70.0259a2.2047,2.2047,0,0,1-1.0049.8535,3.7078,3.7078,0,0,1-1.501.2827,2.6972,2.6972,0,0,1-1.5371-.45,2.909,2.909,0,0,1-1.0381-1.2788,4.8194,4.8194,0,0,1-.3779-1.9223v-.6841a4.4282,4.4282,0,0,1,.7471-2.7461,2.4915,2.4915,0,0,1,2.1-.9746,2.52,2.52,0,0,1,1.7852.6274,2.8389,2.8389,0,0,1,.8271,1.7793h-.9346a1.7033,1.7033,0,0,0-3.0957-.831,3.85,3.85,0,0,0-.4892,2.1152v.6411a3.5992,3.5992,0,0,0,.5449,2.0991,1.708,1.708,0,0,0,1.4736.7788,2.9614,2.9614,0,0,0,.92-.1289,1.4029,1.4029,0,0,0,.6514-.435V67.9956h-1.64V67.15h2.5693Z" transform="translate(0)"/><rect class="cls-4" x="84.9689" y="111.96" width="69.0324" height="4.0138" rx="1.8818"/><polyline class="cls-6" points="34.263 204.736 70.035 192.364 53.901 150.693 18.129 163.065 34.263 204.736"/><polyline class="cls-6" points="141.864 158.85 104.636 151.224 94.692 194.591 131.919 202.216"/><line class="cls-6" x1="131.9188" y1="202.2165" x2="141.8636" y2="158.8497"/><polyline class="cls-7" points="35.493 202.064 19.358 160.393 55.13 148.021 71.264 189.692 35.493 202.064"/><polygon class="cls-8" points="57.745 166.173 29.274 176.019 28.868 174.974 57.34 165.127 57.745 166.173"/><polygon class="cls-8" points="56.457 162.755 43.595 167.204 43.19 166.158 56.053 161.709 56.457 162.755"/><polygon class="cls-8" points="55.139 159.349 42.276 163.797 41.871 162.752 54.734 158.303 55.139 159.349"/><polygon class="cls-8" points="53.82 155.943 40.957 160.391 40.552 159.345 53.415 154.897 53.82 155.943"/><polygon class="cls-8" points="59.063 169.579 30.592 179.426 30.187 178.38 58.658 168.533 59.063 169.579"/><polygon class="cls-8" points="60.382 172.985 31.911 182.832 31.506 181.786 59.977 171.939 60.382 172.985"/><polygon class="cls-8" points="61.701 176.392 33.23 186.239 32.825 185.193 61.296 175.346 61.701 176.392"/><path class="cls-9" d="M30.1708,171.0117a6.1227,6.1227,0,0,0,7.9052-2.7552,5.517,5.517,0,0,0-2.8753-7.4853Z" transform="translate(0)"/><path class="cls-10" d="M35.21,160.7758l-.0369-.0172a6.1237,6.1237,0,0,0-7.9331,2.7438A5.5191,5.5191,0,0,0,30.1429,171l.0376.0154Z" transform="translate(0)"/><path class="cls-11" d="M30.1805,171.0157l2.5205-5.1317-5.8569,1.2931A5.7159,5.7159,0,0,0,30.1429,171Z" transform="translate(0)"/><path class="cls-12" d="M32.7,165.87l-2.526,5.143a6.3064,6.3064,0,0,0,5.7-.3794Z" transform="translate(0)"/><path class="cls-10" d="M54.885,186.252A4.8511,4.8511,0,0,0,48.8871,183.8c-.0511.0176-.1013.0358-.1512.055l.5543,1.4322c.0493-.02.1-.0387.1507-.0562a3.209,3.209,0,0,1,3.9268,1.5463l-.4176.1444,1.5794.792.6973-1.5795Z" transform="translate(0)"/><path class="cls-11" d="M50.1885,184.2429l-1.8443-.7194.1664.4238a4.4073,4.4073,0,0,0-2.4745,5.5456l1.514-.5237a2.9037,2.9037,0,0,1,1.5234-3.5848l.1987.5075Z" transform="translate(0)"/><path class="cls-13" d="M55.0211,186.5857l-.4916,1.1275-.9844-.4993a2.8141,2.8141,0,0,1-.7262,2.8105l.0007.0007a3.127,3.127,0,0,1-1.2233.772,3.1992,3.1992,0,0,1-3.988-1.6818l.5308-.1859-1.744-.8666-.7615,1.7434.4613-.1616A4.842,4.842,0,0,0,52.15,192.228a4.6963,4.6963,0,0,0,2.2691-1.66l.0278-.0391.0315-.0422-.0007,0A4.3827,4.3827,0,0,0,55.0211,186.5857Z" transform="translate(0)"/><path class="cls-9" d="M44.2152,190.0106c-.0056-.0143-.01-.0294-.0155-.0432a4.8057,4.8057,0,0,0-6.06-2.6591,4.5308,4.5308,0,0,0-3.0454,3.5075l4.6619.7369Z" transform="translate(0)"/><path class="cls-10" d="M39.8785,191.4293l-4.562,1.5777.01.0291a4.8051,4.8051,0,0,0,6.06,2.6588c.0427-.0146.0839-.0313.1251-.0469Z" transform="translate(0)"/><path class="cls-11" d="M44.1878,189.9388l-4.4455,1.5377,1.6348,4.2213.01-.0029A4.4009,4.4009,0,0,0,44.2,189.9674Z" transform="translate(0)"/><path class="cls-12" d="M39.7343,191.4845l4.4551-1.5409a4.5435,4.5435,0,0,0-3.412-2.8Z" transform="translate(0)"/><path class="cls-13" d="M35.1051,190.7559a4.2107,4.2107,0,0,0,.2131,2.2557l4.4355-1.534Z" transform="translate(0)"/><path class="cls-10" d="M58.8,188.28a4.3653,4.3653,0,0,1-2.2963-5.93,4.8434,4.8434,0,0,1,6.2743-2.17,4.3651,4.3651,0,0,1,2.2959,5.93A4.8424,4.8424,0,0,1,58.8,188.28Z" transform="translate(0)"/><path class="cls-12" d="M62.8078,180.1936l-.0295-.0138a4.8434,4.8434,0,0,0-6.2743,2.17A4.3653,4.3653,0,0,0,58.8,188.28l.03.0119Z" transform="translate(0)"/><path class="cls-9" d="M58.83,188.2917l1.9932-4.0578-4.314-1.8932-.0051.009A4.3653,4.3653,0,0,0,58.8,188.28Z" transform="translate(0)"/><line class="cls-7" x1="140.1427" y1="156.4099" x2="130.1978" y2="199.7766"/><polyline class="cls-7" points="130.198 199.777 92.971 192.151 102.915 148.784 140.143 156.41"/><polygon class="cls-8" points="129.659 184.593 100.03 178.524 100.279 177.435 129.909 183.504 129.659 184.593"/><polygon class="cls-8" points="133.619 167.852 103.841 161.752 104.091 160.664 133.869 166.763 133.619 167.852"/><polygon class="cls-8" points="134.353 164.652 104.575 158.553 104.824 157.464 134.603 163.563 134.353 164.652"/><polygon class="cls-8" points="128.834 188.192 99.205 182.123 99.454 181.034 129.084 187.103 128.834 188.192"/><polygon class="cls-8" points="128.009 191.792 98.379 185.723 98.629 184.634 128.258 190.703 128.009 191.792"/><polygon class="cls-8" points="127.183 195.391 97.554 189.322 97.803 188.233 127.433 194.302 127.183 195.391"/><polyline class="cls-8" points="135.128 161.283 105.345 155.183 105.812 153.146 135.595 159.247"/><polygon class="cls-10" points="106.109 175.894 103.821 175.425 105.702 167.223 107.99 167.691 106.109 175.894"/><polygon class="cls-11" points="108.941 176.474 106.653 176.005 107.898 170.576 110.185 171.045 108.941 176.474"/><polygon class="cls-12" points="111.771 177.054 109.484 176.585 110.477 172.254 112.765 172.723 111.771 177.054"/><polygon class="cls-13" points="102.551 174.935 105.128 163.694 104.475 163.56 101.756 175.418 114.222 177.971 114.363 177.354 102.551 174.935"/><polygon class="cls-13" points="112.934 171.097 111.903 168.273 109.644 169.648 107.579 164.871 105.425 166.526 105.751 166.905 107.364 165.665 109.4 170.377 111.629 169.021 112.441 171.247 111.544 171.518 113.143 172.4 113.884 170.81 112.934 171.097"/><polygon class="cls-10" points="125.196 179.803 127.483 180.272 128.474 175.953 126.187 175.485 125.196 179.803"/><polygon class="cls-11" points="122.365 179.223 124.652 179.692 126.109 173.34 123.821 172.871 122.365 179.223"/><polygon class="cls-12" points="119.534 178.643 121.821 179.112 122.741 175.099 120.454 174.631 119.534 178.643"/><polygon class="cls-13" points="118.263 178.153 120.841 166.912 120.187 166.778 117.468 178.636 129.429 181.086 129.57 180.469 118.263 178.153"/><polygon class="cls-13" points="131.849 172.161 129.782 171.987 130.381 172.851 127.736 174.71 125.625 170.612 121.298 173.651 121.607 174.044 125.433 171.355 127.544 175.454 130.664 173.261 131.206 174.046 131.849 172.161"/><rect class="cls-6" x="59.4394" y="140.2212" width="43.4198" height="48.7369"/><rect class="cls-7" x="58.7391" y="138.3755" width="41.6108" height="48.4724"/><rect class="cls-8" x="62.985" y="158.1453" width="33.1186" height="1.2172"/><rect class="cls-8" x="62.985" y="162.1077" width="33.1186" height="1.2172"/><rect class="cls-8" x="62.985" y="166.07" width="33.1186" height="1.217"/><rect class="cls-8" x="62.985" y="170.0326" width="33.1186" height="1.2167"/><rect class="cls-10" x="65.8012" y="146.922" width="2.2788" height="8.1706"/><rect class="cls-11" x="68.5885" y="149.8205" width="2.2786" height="5.4083"/><rect class="cls-12" x="71.3761" y="148.06" width="2.279" height="7.1687"/><rect class="cls-9" x="74.1632" y="152.5241" width="2.279" height="2.7046"/><polygon class="cls-13" points="64.741 154.827 64.741 142.923 64.049 142.923 64.049 155.481 77.679 155.481 77.679 154.827 64.741 154.827"/><polyline class="cls-14" points="65.619 146.114 67.908 144.955 69.848 148.412 72.509 145.915 75.303 149.397 77.392 147.165"/><path class="cls-12" d="M65.7866,146.3734a.3862.3862,0,0,1-.5192-.0755.3394.3394,0,0,1,.0805-.4915.3866.3866,0,0,1,.5192.0764A.3386.3386,0,0,1,65.7866,146.3734Z" transform="translate(0)"/><path class="cls-12" d="M72.698,146.2233a.3858.3858,0,0,1-.5195-.0755.3386.3386,0,0,1,.081-.4907.3853.3853,0,0,1,.5189.0756A.3387.3387,0,0,1,72.698,146.2233Z" transform="translate(0)"/><path class="cls-12" d="M70.1172,148.7093a.387.387,0,0,1-.5194-.0764.3389.3389,0,0,1,.08-.4907.3865.3865,0,0,1,.52.0759A.3393.3393,0,0,1,70.1172,148.7093Z" transform="translate(0)"/><path class="cls-12" d="M68.0849,145.2776a.3848.3848,0,0,1-.519-.0754.3389.3389,0,0,1,.08-.4912.3861.3861,0,0,1,.5195.0763A.3384.3384,0,0,1,68.0849,145.2776Z" transform="translate(0)"/><path class="cls-12" d="M75.5224,149.68a.3851.3851,0,0,1-.519-.076.3392.3392,0,0,1,.08-.491.3872.3872,0,0,1,.52.0765A.3386.3386,0,0,1,75.5224,149.68Z" transform="translate(0)"/><path class="cls-12" d="M77.5734,147.4041a.3855.3855,0,0,1-.52-.0756.3388.3388,0,0,1,.0809-.4908.385.385,0,0,1,.5188.0758A.3382.3382,0,0,1,77.5734,147.4041Z" transform="translate(0)"/><polygon class="cls-11" points="93.651 153.09 90.042 146.882 84.215 146.882 80.507 153.09 93.651 153.09"/><polygon class="cls-13" points="93.382 152.629 80.782 152.629 79.079 155.481 95.04 155.481 93.382 152.629"/><polygon class="cls-10" points="90.269 147.273 87.169 141.939 83.982 147.273 90.269 147.273"/><path class="cls-9" d="M72.8145,179.0216l.0007-.044a4.437,4.437,0,0,0-4.5566-4.3069,4.6027,4.6027,0,0,0-3.9884,2.2227l3.964,2.1282Z" transform="translate(0)"/><path class="cls-10" d="M68.3886,178.9478H63.7028l-.0007.03a4.4368,4.4368,0,0,0,4.5565,4.3068c.0436,0,.0868-.0017.13-.0029Z" transform="translate(0)"/><path class="cls-11" d="M72.8148,178.9478H68.2485v4.3366h.01a4.4369,4.4369,0,0,0,4.5566-4.3068Z" transform="translate(0)"/><path class="cls-12" d="M68.2383,178.9532h4.5762a4.1575,4.1575,0,0,0-2.1087-3.6056Z" transform="translate(0)"/><path class="cls-13" d="M64.3008,176.8432a4.1076,4.1076,0,0,0-.5983,2.11h4.5561Z" transform="translate(0)"/><path class="cls-9" d="M95.3865,178.9558a4.5649,4.5649,0,0,0-9.1125,0Z" transform="translate(0)"/><path class="cls-10" d="M86.274,178.9483l-.0007.0293a4.5641,4.5641,0,0,0,9.1136,0l-.0011-.0293Z" transform="translate(0)"/><path class="cls-11" d="M95.3858,178.9483H90.82l2.8279,3.4148a4.22,4.22,0,0,0,1.7395-3.3855Z" transform="translate(0)"/><path class="cls-12" d="M90.81,178.9532h4.5763a4.2793,4.2793,0,0,0-2.1084-3.6056Z" transform="translate(0)"/><ellipse class="cls-10" cx="79.5443" cy="178.9776" rx="4.5567" ry="4.3067"/><path class="cls-12" d="M82.7883,175.954l-.0218-.0215a4.7457,4.7457,0,0,0-6.4444,0,4.1416,4.1416,0,0,0,0,6.09l.0229.0206Z" transform="translate(0)"/><path class="cls-9" d="M76.345,182.0434l3.2285-3.0515L76.33,175.9261l-.0076.0064a4.1416,4.1416,0,0,0,0,6.09Z" transform="translate(0)"/><path class="cls-6" d="M67.5644,119.7985c.1157-.2041-.0455-.498-.359-.6563l-.8039-.4062c-.3133-.1583-.6619-.121-.7771.0834l-.9651,1.7078a1.815,1.815,0,0,0-2.1684.78l-10.5,18.5791-.065-.0328a.2281.2281,0,0,0-.3.0861l-.47.832a.2049.2049,0,0,0,.09.2836l.0655.0331-3.2384,5.73a.2286.2286,0,0,0-.3.0862l-.47.8319a.204.204,0,0,0,.0915.2836l.0005,0c-.2874.5254-1.7679,3.6431-1.42,5.0252l.007.0036-.2681,2.1716-.0009,0-.1236.9973.8639-.622h0l1.89-1.362a3.3424,3.3424,0,0,0,.7811-.4842c.025-.02.05-.0369.0749-.0574.0591-.0485.118-.1021.177-.1543.0387-.0344.0777-.0664.1164-.1023.0511-.0471.1017-.0978.1525-.1474.0463-.0451.0929-.0886.1388-.1355s.0892-.0936.1338-.1407c.0508-.0536.1019-.1062.152-.161.04-.0441.0792-.0894.1189-.1339.0532-.06.1065-.12.1588-.1806.0356-.0417.07-.0836.1049-.1256.0543-.0647.1084-.1292.161-.194.0319-.0394.0622-.0783.0935-.1176.0533-.0671.1066-.134.1579-.2.0292-.0378.0566-.0744.085-.1118.05-.066.1-.1315.1478-.1957.028-.0378.0537-.0735.0807-.1105.045-.0616.09-.1227.1317-.1816.0273-.0384.0524-.0742.0783-.1112.0373-.0528.0742-.1054.1086-.1551.0288-.0419.0544-.08.0812-.1191s.054-.0795.0787-.1164c.0308-.0465.0578-.0875.0848-.1291.0155-.0236.0317-.048.0457-.07.0314-.0487.0577-.09.0825-.13l.018-.0288c.0283-.0454.0506-.0823.0684-.1126l.0016-.003a.2294.2294,0,0,0,.3008-.0862l.47-.8319a.2.2,0,0,0,.0252-.08.2074.2074,0,0,0-.1158-.2038l3.2457-5.7434a.2262.2262,0,0,0,.1206-.0173l.0177-.0089a.21.21,0,0,0,.0884-.0805l.4705-.8317a.1917.1917,0,0,0,.023-.0722A.2788.2788,0,0,0,56.6,142.3a.1891.1891,0,0,0-.0108-.0345.2467.2467,0,0,0-.014-.0251.2037.2037,0,0,0-.0263-.0374L67.0552,123.61a1.6365,1.6365,0,0,0,.13-.2975c.0113-.0346.0162-.07.025-.1044a1.5721,1.5721,0,0,0,.0409-.2011c.005-.0424.0047-.0842.0063-.1265a1.571,1.571,0,0,0-.0013-.179c-.0036-.0456-.01-.09-.0178-.135a1.6426,1.6426,0,0,0-.0349-.1628c-.0126-.0463-.0271-.0914-.0438-.1367-.0187-.05-.04-.0984-.0639-.1467-.0218-.0449-.044-.0892-.07-.1322-.0273-.0451-.059-.0877-.0911-.1306-.0306-.0411-.06-.0827-.0947-.1215-.0371-.0412-.08-.0779-.1214-.1159-.0376-.0345-.0724-.0708-.1136-.1023l-.0077-.0071Z" transform="translate(0)"/><path class="cls-6" d="M24.8352,163.54l.2534-.679h0l.6695-1.7948-.95-.3164,1.0209-2.7382.1129-.3026q.32.0563.64.098c.0555.0074.1109.0118.1664.0184.1665.02.3331.039.4993.0531.0881.0075.176.0118.2638.0177.134.009.2681.0182.4019.0237.0959.0039.1911.0051.2867.0069.1257.0028.2514.0052.3771.0046.0987,0,.1974-.0029.2959-.0052.1218-.0029.2434-.0068.3648-.0126q.15-.0075.2987-.0179.18-.0125.3594-.0291c.0991-.0094.1978-.0191.2964-.03.12-.0136.24-.0293.3593-.046.0967-.0132.1936-.0265.29-.0416.1214-.0193.242-.0414.3627-.0635.0931-.017.1863-.0334.2791-.0521.1275-.026.2539-.0555.3806-.0848.0843-.0194.1689-.0372.2529-.0582.1615-.04.3216-.0847.4811-.13.0526-.015.1055-.0283.1576-.0438q.2973-.0885.59-.1892c.0781-.0269.1548-.0569.2323-.0849.1246-.0451.2492-.09.3722-.1384.0862-.0339.171-.07.2564-.1059.1125-.0468.2253-.0936.3364-.1431.0877-.039.1745-.08.2613-.1206.1073-.05.2142-.1012.32-.1539.087-.0434.1729-.088.2588-.1329q.1559-.0817.31-.167.1272-.0707.253-.1438c.1018-.059.2024-.12.3024-.1814.0819-.05.1636-.1008.2443-.1529.1009-.0648.2-.1317.2993-.1991.0769-.0522.1542-.1039.23-.1577.1032-.0731.2042-.149.3052-.2247.0691-.0519.1392-.1026.2074-.1557.1144-.0892.226-.1814.3373-.2742.0523-.0432.1055-.0847.157-.1288q.24-.2051.47-.4211c.0447-.0418.0874-.0861.1313-.1286.1091-.1052.2179-.2107.3237-.32.0581-.06.114-.1222.1711-.1833.0888-.0948.1776-.19.2635-.2869.06-.0674.117-.1367.1752-.2053.08-.0944.16-.1892.2377-.2862.058-.0723.1145-.146.171-.22.0744-.097.1479-.1946.22-.2938.0552-.0757.1091-.1523.1625-.23q.1044-.1508.2049-.3049c.0511-.0785.1021-.1573.1516-.2369.0661-.1061.13-.2136.193-.3217.0461-.079.0926-.1578.1371-.2379.0636-.1144.124-.2308.1846-.3474.04-.0771.0808-.1535.1191-.2316.0642-.13.1243-.2625.1841-.395.0306-.0674.0629-.1336.0922-.2017.0872-.202.17-.4064.2478-.6144,2.5995-6.97-1.2721-14.6132-8.6478-17.07-.0267-.009-.0528-.0172-.08-.0259l-.0006.0014c-7.3538-2.4043-15.391,1.2519-17.9809,8.1972a13.0773,13.0773,0,0,0,6.6268,16.2252l-1.1345,3.0415-.95-.3164-.67,1.795h0l-.6684,1.7923-.61,1.6355-.2562.6862h0l-5.0771,13.6136a1.0566,1.0566,0,0,0,.6922,1.3655l1.8792.6263h0l2.0379.679a1.151,1.151,0,0,0,1.4453-.654" transform="translate(0)"/><path class="cls-6" d="M135.5888,133.7421l-12.4932,1.9157h0l-12.06,1.8493a1.2948,1.2948,0,0,0-1.1617,1.439L114.35,165.02a1.3522,1.3522,0,0,0,1.5834,1.0183l24.5532-3.7652" transform="translate(0)"/><path class="cls-6" d="M108.9392,150.563l-.0058-.0128v-.0078l-.0032.0012L96.2053,123.092l.002-.0009-.054-.1167h0l-.291-.628-.372-.8026h0l-.41-.884a1.09,1.09,0,0,0-1.396-.5376l-.9672.4h0l-.7435.3079a.9856.9856,0,0,0-.5279,1.3343l.41.8841h0l.7169,1.5472.0011-.0005,12.73,27.4622-.0016.0007.0035.0032.0023.0049.0022-.0008,2.4648,2.2913h-.0006l1.0826,1.0074.01-.6372.0135-.831,0,0,.0524-3.33Z" transform="translate(0)"/><path class="cls-15" d="M142.2832,164.1338,117.73,167.8991a1.3522,1.3522,0,0,1-1.5834-1.0185l-4.4757-26.0732a1.2948,1.2948,0,0,1,1.1616-1.439l24.5531-3.7651" transform="translate(0)"/><path class="cls-16" d="M136.9475,144.7071l-20.6541,3.1674a1.0732,1.0732,0,0,1-1.1929-.9057l-.7026-4.09a1.0275,1.0275,0,0,1,.8289-1.2151l20.6543-3.1671" transform="translate(0)"/><path class="cls-16" d="M119.8653,153.2112a.5578.5578,0,0,1-.4841.6344l-2.1662.3322a.5822.5822,0,0,1-.6715-.4573l-.4922-2.867a.5575.5575,0,0,1,.4841-.6344l2.1662-.3324a.5824.5824,0,0,1,.6715.4573Z" transform="translate(0)"/><path class="cls-16" d="M124.5414,152.4941a.5582.5582,0,0,1-.4841.6345l-2.1664.3322a.5824.5824,0,0,1-.6715-.4576l-.4921-2.8667a.5582.5582,0,0,1,.484-.6346l2.1668-.3323a.5818.5818,0,0,1,.6709.4575Z" transform="translate(0)"/><path class="cls-16" d="M129.2173,151.777a.5572.5572,0,0,1-.484.6344l-2.1665.3322a.582.582,0,0,1-.6713-.4574l-.4923-2.8669a.5583.5583,0,0,1,.484-.6346l2.1669-.3321a.5821.5821,0,0,1,.6711.4575Z" transform="translate(0)"/><path class="cls-16" d="M133.8938,151.06a.5582.5582,0,0,1-.4839.6344l-2.1667.3324a.5824.5824,0,0,1-.6714-.4575l-.4919-2.867a.5573.5573,0,0,1,.4838-.6345l2.1663-.3323a.5828.5828,0,0,1,.6717.4574Z" transform="translate(0)"/><path class="cls-16" d="M120.7674,158.4665a.5577.5577,0,0,1-.484.6348l-2.1663.3318a.582.582,0,0,1-.6717-.4571l-.4919-2.8669a.5576.5576,0,0,1,.4838-.6346l2.1665-.3322a.5827.5827,0,0,1,.6715.4575Z" transform="translate(0)"/><path class="cls-16" d="M125.4434,157.75a.5577.5577,0,0,1-.4835.6346l-2.1668.3322a.5825.5825,0,0,1-.6715-.4573l-.4922-2.8669a.5581.5581,0,0,1,.4842-.6346l2.1665-.3322a.583.583,0,0,1,.6717.4576Z" transform="translate(0)"/><path class="cls-16" d="M130.12,157.0324a.5585.5585,0,0,1-.4847.6347l-2.1661.3323a.583.583,0,0,1-.6717-.4576l-.4919-2.8667a.5578.5578,0,0,1,.4842-.6346l2.1662-.3322a.582.582,0,0,1,.6715.4574Z" transform="translate(0)"/><path class="cls-16" d="M121.7045,163.9268a.5575.5575,0,0,1-.484.6347l-2.1661.332a.5826.5826,0,0,1-.6717-.4571l-.4919-2.8671a.5578.5578,0,0,1,.4842-.6344l2.1664-.3321a.5815.5815,0,0,1,.671.4573Z" transform="translate(0)"/><path class="cls-16" d="M126.381,163.21a.5578.5578,0,0,1-.4838.6345l-2.1669.3325a.5824.5824,0,0,1-.6711-.4576l-.4921-2.8667a.557.557,0,0,1,.484-.6344l2.1661-.3324a.5828.5828,0,0,1,.6718.4574Z" transform="translate(0)"/><path class="cls-16" d="M131.0571,162.4925a.5579.5579,0,0,1-.484.6348l-2.1666.3322a.5817.5817,0,0,1-.6713-.4575l-.492-2.8665a.5575.5575,0,0,1,.4838-.6348l2.1665-.3321a.5822.5822,0,0,1,.6715.4575Z" transform="translate(0)"/><path class="cls-17" d="M139.8526,161.8447l-6.7886,1.0411a.5826.5826,0,0,1-.6714-.4575l-1.4529-8.4637a.5578.5578,0,0,1,.484-.6346l6.7884-1.0411" transform="translate(0)"/><path class="cls-18" d="M137.3856,135.6033l-12.4932,1.9157,4.8977,28.53,12.4931-1.9156" transform="translate(0)"/><polygon class="cls-19" points="108.143 155.058 108.196 151.704 104.564 153.22 107.038 155.52 108.143 155.058"/><polygon class="cls-20" points="107.037 155.519 108.119 156.526 108.143 155.056 107.037 155.519"/><polygon class="cls-21" points="91.634 125.322 104.57 153.228 108.202 151.725 95.266 123.818 91.634 125.322"/><path class="cls-22" d="M95.4159,124.1361l-1.0729-2.3146a1.09,1.09,0,0,0-1.3959-.5376l-1.7107.7083a.9856.9856,0,0,0-.5279,1.3343l1.0725,2.3146Z" transform="translate(0)"/><polygon class="cls-15" points="91.118 124.211 91.835 125.758 95.47 124.253 94.753 122.705 91.118 124.211"/><path class="cls-18" d="M108.1928,151.7053l-12.725-27.4514.0021-.0011-1.1269-2.4313a1.09,1.09,0,0,0-1.3959-.5376l-.9672.4,16.14,34.8183.0234-1.4445,0,0,.0523-3.3306.0062-.0024-.0058-.0127v-.0079Z" transform="translate(0)"/><path class="cls-23" d="M66.6147,124.3805c-.1152.204-.4626.2415-.7766.083l-.8044-.4059c-.3126-.1584-.4737-.4522-.3585-.6564l1.9325-3.42c.1153-.2045.4639-.2417.7772-.0834l.8039.4062c.3135.1583.4746.4522.359.6562Z" transform="translate(0)"/><polygon class="cls-23" points="47.437 156.757 49.41 155.336 46.979 154.106 46.697 156.383 47.437 156.757"/><polygon class="cls-20" points="46.697 156.382 46.573 157.379 47.438 156.757 46.697 156.382"/><path class="cls-15" d="M49.32,155.3991c1.5027-.6072,3.3976-3.5146,3.6405-3.9441l15.0782-26.6827a1.6311,1.6311,0,0,0-.73-2.2687l-1.4343-.7244a1.8269,1.8269,0,0,0-2.4.6894L48.3954,149.1509c-.2494.4419-1.7906,3.65-1.4366,5.0564Z" transform="translate(0)"/><path class="cls-23" d="M53.2428,151.4a.2294.2294,0,0,1-.3008.0862l-4.5637-2.3042a.2038.2038,0,0,1-.0915-.2835l.47-.8319a.2287.2287,0,0,1,.3-.0861l4.5641,2.304a.2043.2043,0,0,1,.0908.2836Z" transform="translate(0)"/><path class="cls-23" d="M57.0941,144.4343a.2277.2277,0,0,1-.3.0861L52.23,142.2166a.2049.2049,0,0,1-.09-.2836l.47-.832a.2283.2283,0,0,1,.3-.0861l4.5645,2.3041a.2038.2038,0,0,1,.0906.2836Z" transform="translate(0)"/><path class="cls-23" d="M57.6524,138.7756c-.1155.2039-.9134.42-.9134.42s-.2449-.743-.1307-.9469l7.7323-13.6807a.4566.4566,0,0,1,.6-.1716l.2606.1317a.4072.4072,0,0,1,.182.5668Z" transform="translate(0)"/><path class="cls-18" d="M53.7124,150.5678a.2044.2044,0,0,0-.0908-.2836l3.2453-5.7432a.2231.2231,0,0,0,.2272-.1067l.4706-.8317a.1978.1978,0,0,0-.0326-.2381l10.5065-18.5922a1.616,1.616,0,0,0-.4589-2.0993l.9681-1.7127c.1156-.204-.0455-.4979-.359-.6562l-.4434-.224L46.579,157.3337l-.0058.0456.8642-.6222v0l1.8888-1.3617c1.4715-.6,3.314-3.3929,3.6158-3.91a.2294.2294,0,0,0,.3008-.0862Z" transform="translate(0)"/><polygon class="cls-24" points="20.215 155.228 17.341 162.932 21.496 164.316 24.37 156.612 20.215 155.228"/><path class="cls-21" d="M17.982,158.3521l-7.2808,19.5226a1.0566,1.0566,0,0,0,.6921,1.3655l3.9172,1.3053a1.1509,1.1509,0,0,0,1.4452-.654l7.2811-19.5223Z" transform="translate(0)"/><polygon class="cls-24" points="22.523 164.427 23.367 162.164 17.313 160.147 16.469 162.41 22.523 164.427"/><polygon class="cls-24" points="16.26 162.971 15.778 164.261 21.833 166.278 22.314 164.988 16.26 162.971"/><path class="cls-15" d="M40.1482,148.2993c-2.6,6.9708-10.6862,10.63-18.0614,8.1725s-11.2475-10.0992-8.6475-17.07,10.6857-10.63,18.0611-8.1727S42.7478,141.3288,40.1482,148.2993Z" transform="translate(0)"/><path class="cls-16" d="M37.7741,147.5083c-2.1376,5.7316-8.786,8.74-14.8509,6.72a10.86,10.86,0,0,1-7.11-14.0359c2.1378-5.7313,8.7868-8.74,14.8509-6.72A10.8593,10.8593,0,0,1,37.7741,147.5083Z" transform="translate(0)"/></g></g></svg>