<svg id="Layer_1" data-name="Layer 1" xmlns="http://www.w3.org/2000/svg" width="100" height="100" viewBox="0 0 100 100"><title>art</title><g id="Circle_Grid" data-name="Circle Grid"><circle cx="50" cy="50" r="50" style="fill:#2cbfae"/></g><g id="icon"><path d="M494.73,50a32.79,32.79,0,1,1,0-.19Z" transform="translate(-412 0)" style="fill:#dbd8dd"/><path d="M491.14,53.58A32.72,32.72,0,0,1,483.21,75a32.87,32.87,0,0,1-46.33-46.37,32.86,32.86,0,0,1,54.26,25Z" transform="translate(-412 0)" style="fill:#eeefee"/><path d="M467.82,27.46a5.85,5.85,0,1,1-.56-2.47h0A5.68,5.68,0,0,1,467.82,27.46Z" transform="translate(-412 0)" style="fill:#eab54e"/><path d="M467.26,25h0a5.81,5.81,0,0,1-11.08,2.46A5.82,5.82,0,0,1,467.26,25Z" transform="translate(-412 0)" style="fill:#f6c863"/><path d="M452.2,34.21a5.82,5.82,0,0,1-11.56,1,6.36,6.36,0,0,1-.09-1,5.83,5.83,0,0,1,11.65,0Z" transform="translate(-412 0)" style="fill:#da364c"/><path d="M451.38,32.06a5.82,5.82,0,0,1-10.74,3.12,6.36,6.36,0,0,1-.09-1,5.82,5.82,0,0,1,10.74-3.12A5.23,5.23,0,0,1,451.38,32.06Z" transform="translate(-412 0)" style="fill:#ef5261"/><path d="M445.55,50a5.81,5.81,0,0,1-11.36,1.75,5.72,5.72,0,0,1-.28-1.75,5.82,5.82,0,1,1,11.64,0Z" transform="translate(-412 0)" style="fill:#16a897"/><path d="M444.38,47.93a5.81,5.81,0,0,1-10.19,3.82,5.72,5.72,0,0,1-.28-1.75,5.82,5.82,0,0,1,10.2-3.83,5.83,5.83,0,0,1,.27,1.76Z" transform="translate(-412 0)" style="fill:#2cbfae"/><path d="M452.2,65.8a5.86,5.86,0,1,1-1.53-3.91A5.84,5.84,0,0,1,452.2,65.8Z" transform="translate(-412 0)" style="fill:#419be9"/><path d="M450.89,63.46a5.81,5.81,0,0,1-10.12,3.9,5.81,5.81,0,0,1,9.9-5.47A5.56,5.56,0,0,1,450.89,63.46Z" transform="translate(-412 0)" style="fill:#69b0ee"/><path d="M467.66,72.53a5.82,5.82,0,1,1-5.82-5.82A5.81,5.81,0,0,1,467.66,72.53Z" transform="translate(-412 0)" style="fill:#4f5363"/><path d="M465.81,70.68a5.8,5.8,0,0,1-8.89,4.93,5.81,5.81,0,0,1,4.92-8.9,5.7,5.7,0,0,1,3.08.89,5.61,5.61,0,0,1,.89,3.08Z" transform="translate(-412 0)" style="fill:#575b6d"/><path d="M483.59,65.8a5.82,5.82,0,0,1-10.82,3,5.69,5.69,0,0,1-.82-3,5.82,5.82,0,1,1,11.64,0Z" transform="translate(-412 0)" style="fill:#dd944b"/><path d="M481.57,63.79a5.82,5.82,0,0,1-5.81,5.82h0a5.83,5.83,0,0,1-3-.83,5.69,5.69,0,0,1-.82-3,5.81,5.81,0,0,1,8.79-5A5.62,5.62,0,0,1,481.57,63.79Z" transform="translate(-412 0)" style="fill:#eaa14e"/><path d="M495,18.82a1.59,1.59,0,0,1-.36,1l-20,25-6,7.5-.47.58-.74-1.17-1.3-2.08L462,42.94l6.13-5.13,24.21-20.25a1.62,1.62,0,0,1,1.65-.27,1.79,1.79,0,0,1,.59.39A1.65,1.65,0,0,1,495,18.82Z" transform="translate(-412 0)" style="fill:#dd944b"/><path d="M494.1,17.89a1.59,1.59,0,0,1-.36,1l-20,25-6,7.5-.28.34-1.3-2.08L462,42.94l6.13-5.13,24.21-20.25a1.62,1.62,0,0,1,1.65-.27,1.73,1.73,0,0,1,.11.6Z" transform="translate(-412 0)" style="fill:#eaa14e"/><path d="M470.09,51.43c-.3,8-14.66,7-16.9,5.86A7.84,7.84,0,0,0,454.62,56a13.07,13.07,0,0,0,3.06-7.46c.3-3.1,1.61-4.76,2.84-5.64a4.13,4.13,0,0,1,4.14-.36l.27.13A8.93,8.93,0,0,1,470.09,51.43Z" transform="translate(-412 0)" style="fill:#575b6d"/><path d="M467.25,49.35c-.2,5.72-7.61,6.86-12.63,6.61a13.07,13.07,0,0,0,3.06-7.46c.3-3.1,1.61-4.76,2.84-5.64a4.13,4.13,0,0,1,4.14-.36l.27.13A8.92,8.92,0,0,1,467.25,49.35Z" transform="translate(-412 0)" style="fill:#62667c"/></g></svg>