<svg xmlns="http://www.w3.org/2000/svg" width="161" height="161" viewBox="0 0 161 161"><defs><style>.a{fill:#e5ed74;}</style></defs><title>B</title><path class="a" d="M169.05,217.64V166.45h16.73c5.56,0,9.73,1.15,12.54,3.45s4.2,5.69,4.2,10.19a10.41,10.41,0,0,1-2,6.35,13.21,13.21,0,0,1-5.56,4.27,11.85,11.85,0,0,1,6.56,4.41,12.7,12.7,0,0,1,2.41,7.75q0,6.9-4.47,10.83t-12.62,3.94Zm6.75-29.36H186a10.69,10.69,0,0,0,7.09-2.22,7.42,7.42,0,0,0,2.65-6q0-4.23-2.46-6.15T185.78,172h-10Zm0,5.42v18.42h11.14a10.79,10.79,0,0,0,7.44-2.44,8.62,8.62,0,0,0,2.72-6.74q0-9.24-10-9.24Z" transform="translate(-104 -113)"/><path class="a" d="M184.5,113A80.5,80.5,0,1,0,265,193.5,80.5,80.5,0,0,0,184.5,113Zm0,146A65.5,65.5,0,1,1,250,193.5,65.51,65.51,0,0,1,184.5,259Z" transform="translate(-104 -113)"/></svg>