<svg xmlns="http://www.w3.org/2000/svg" xmlns:xlink="http://www.w3.org/1999/xlink" width="462" height="257" viewBox="0 0 462 257"><defs><style>.a{mask:url(#a);}.b,.bb{mix-blend-mode:multiply;}.b{fill:url(#c);}.c{isolation:isolate;}.d{fill:#1e1e20;}.e{mask:url(#d);}.f{fill:url(#f);}.g{fill:#101010;}.h{fill:#e9edf1;}.i{fill:#c9c9d1;}.j{fill:#363f44;}.k{fill:#cecfd3;}.l{fill:#cdced2;}.m{fill:#cccdd1;}.n{fill:#cbccd0;}.o{fill:#cbcccf;}.p{fill:#cacbce;}.q{fill:#c9cacd;}.r{fill:#c8c9cc;}.s{fill:#c7c8cb;}.t{fill:#c6c7ca;}.u{fill:#c6c6c9;}.v{fill:#c5c5c8;}.w{fill:#c4c5c7;}.x{fill:#c3c4c6;}.y{fill:#c2c3c5;}.z{fill:#c1c2c4;}.aa{fill:#c0c1c3;}.ab{fill:#c0c0c2;}.ac{fill:#bfbfc1;}.ad{fill:#bebec0;}.ae{fill:#bdbec0;}.af{fill:#bcbdbf;}.ag{fill:#bbbcbe;}.ah{fill:#bbbbbd;}.ai{fill:#bababc;}.aj{fill:#b9b9bb;}.ak{fill:#b8b8ba;}.al{fill:#b7b7b9;}.am{fill:#b6b7b8;}.an{fill:#b5b6b7;}.ao{fill:#b5b5b6;}.ap{fill:#b4b4b5;}.aq{fill:#b3b3b4;}.ar{fill:#b2b2b3;}.as{fill:#b1b1b2;}.at{fill:#b0b0b1;}.au{fill:#b0b0b0;}.av{fill:#afafaf;}.aw{fill:#aeaeae;}.ax{fill:#adadad;}.ay{fill:none;stroke:#282828;stroke-miterlimit:10;stroke-width:0.03px;}.az{fill:#f5f6f7;}.ba{fill:#fff;}.bb{opacity:0.75;}.bc{fill:#272525;}.bd{fill:#74b9e9;}.be{fill:#66a8de;}.bf{fill:#69b376;}.bg{fill:#cb2228;}.bh{filter:url(#e);}.bi{filter:url(#b);}</style><filter id="b" x="55.76" y="-8451" width="386.99" height="32766" filterUnits="userSpaceOnUse" color-interpolation-filters="sRGB"><feFlood flood-color="#fff" result="bg"/><feBlend in="SourceGraphic" in2="bg"/></filter><mask id="a" x="55.76" y="-8451" width="386.99" height="32766" maskUnits="userSpaceOnUse"><g class="bi"/></mask><linearGradient id="c" x1="55.76" y1="245.04" x2="442.75" y2="245.04" gradientUnits="userSpaceOnUse"><stop offset="0.26" stop-color="#fff"/><stop offset="0.29" stop-color="#fdfdfd"/><stop offset="0.31" stop-color="#f5f5f5"/><stop offset="0.32" stop-color="#e7e7e7"/><stop offset="0.33" stop-color="#d4d4d4"/><stop offset="0.35" stop-color="#bababa"/><stop offset="0.36" stop-color="#9c9c9c"/><stop offset="0.36" stop-color="#8a8a8a"/><stop offset="0.37" stop-color="#949494"/><stop offset="0.39" stop-color="#b5b5b5"/><stop offset="0.41" stop-color="#d0d0d0"/><stop offset="0.44" stop-color="#e5e5e5"/><stop offset="0.47" stop-color="#f4f4f4"/><stop offset="0.5" stop-color="#fcfcfc"/><stop offset="0.56" stop-color="#fff"/><stop offset="0.64" stop-color="#fcfcfc"/><stop offset="0.69" stop-color="#f4f4f4"/><stop offset="0.73" stop-color="#e6e6e6"/><stop offset="0.77" stop-color="#d2d2d2"/><stop offset="0.81" stop-color="#b7b7b7"/><stop offset="0.84" stop-color="#989898"/><stop offset="0.86" stop-color="gray"/><stop offset="0.87" stop-color="#9e9e9e"/><stop offset="0.9" stop-color="#c1c1c1"/><stop offset="0.92" stop-color="#dcdcdc"/><stop offset="0.95" stop-color="#efefef"/><stop offset="0.97" stop-color="#fbfbfb"/><stop offset="1" stop-color="#fff"/></linearGradient><filter id="e" x="55.76" y="123" width="386.99" height="244.08" filterUnits="userSpaceOnUse" color-interpolation-filters="sRGB"><feFlood flood-color="#fff" result="bg"/><feBlend in="SourceGraphic" in2="bg"/></filter><mask id="d" x="37.76" y="0" width="386.99" height="244.08" maskUnits="userSpaceOnUse"><g class="bh"><g transform="translate(-18 -123)"><g class="a"><path class="b" d="M442.75,367.08h-387V132a8.77,8.77,0,0,1,2.8-6.39A9.83,9.83,0,0,1,65.33,123H433.18a9.83,9.83,0,0,1,6.77,2.64,8.77,8.77,0,0,1,2.8,6.39Zm-387,0h387V132a8.73,8.73,0,0,0-2.8-6.38,9.82,9.82,0,0,0-6.76-2.64H65.33a9.8,9.8,0,0,0-6.76,2.64,8.69,8.69,0,0,0-2.8,6.38V367.08Z"/></g></g></g></mask><linearGradient id="f" x1="55.76" y1="245.04" x2="442.75" y2="245.04" gradientUnits="userSpaceOnUse"><stop offset="0.26" stop-color="#272525"/><stop offset="0.28" stop-color="#292727"/><stop offset="0.3" stop-color="#312f2f"/><stop offset="0.31" stop-color="#3f3d3d"/><stop offset="0.32" stop-color="#525050"/><stop offset="0.33" stop-color="#6b6a6a"/><stop offset="0.34" stop-color="#8a8989"/><stop offset="0.35" stop-color="#aeaeae"/><stop offset="0.36" stop-color="#d7d7d7"/><stop offset="0.36" stop-color="#ececec"/><stop offset="0.36" stop-color="#e5e5e5"/><stop offset="0.38" stop-color="#b9b9b9"/><stop offset="0.4" stop-color="#929191"/><stop offset="0.42" stop-color="#716f6f"/><stop offset="0.44" stop-color="#565454"/><stop offset="0.46" stop-color="#413f3f"/><stop offset="0.48" stop-color="#323030"/><stop offset="0.51" stop-color="#2a2828"/><stop offset="0.56" stop-color="#272525"/><stop offset="0.63" stop-color="#292828"/><stop offset="0.67" stop-color="#323030"/><stop offset="0.71" stop-color="#403e3e"/><stop offset="0.74" stop-color="#545252"/><stop offset="0.77" stop-color="#6e6d6d"/><stop offset="0.8" stop-color="#8e8d8d"/><stop offset="0.82" stop-color="#b4b3b3"/><stop offset="0.84" stop-color="#dfdfdf"/><stop offset="0.86" stop-color="#f8f8f8"/><stop offset="0.86" stop-color="#e5e4e4"/><stop offset="0.88" stop-color="#b3b2b2"/><stop offset="0.9" stop-color="#888787"/><stop offset="0.92" stop-color="#656363"/><stop offset="0.94" stop-color="#4a4848"/><stop offset="0.96" stop-color="#363535"/><stop offset="0.98" stop-color="#2b2929"/><stop offset="1" stop-color="#272525"/></linearGradient></defs><title>Banner-2</title><g class="c"><path class="d" d="M47.05,0h368.4a9.29,9.29,0,0,1,9.29,9.29V244.08a0,0,0,0,1,0,0h-387a0,0,0,0,1,0,0V9.29A9.29,9.29,0,0,1,47.05,0Z"/><g class="e"><path class="f" d="M442.75,367.08h-387V132a8.77,8.77,0,0,1,2.8-6.39A9.83,9.83,0,0,1,65.33,123H433.18a9.83,9.83,0,0,1,6.77,2.64,8.77,8.77,0,0,1,2.8,6.39Zm-387,0h387V132a8.73,8.73,0,0,0-2.8-6.38,9.82,9.82,0,0,0-6.76-2.64H65.33a9.8,9.8,0,0,0-6.76,2.64,8.69,8.69,0,0,0-2.8,6.38V367.08Z" transform="translate(-18 -123)"/></g><path class="g" d="M442.74,353.58V132a9.3,9.3,0,0,0-9.56-9H65.33a9.3,9.3,0,0,0-9.56,9V353.58a8.21,8.21,0,0,0,8.44,8H434.3A8.21,8.21,0,0,0,442.74,353.58Z" transform="translate(-18 -123)"/><path class="h" d="M479.39,367.08H18.48a.47.47,0,0,0-.48.45v2.69a5.35,5.35,0,0,0,3.66,5l6.89,2.43A37.15,37.15,0,0,0,41,379.77H458.08a33.17,33.17,0,0,0,11.35-2l8.41-3.07a3.19,3.19,0,0,0,2.15-3v-3.4C480,367.06,480.12,367.1,479.39,367.08Z" transform="translate(-18 -123)"/><path class="i" d="M219.3,367.24v2a2.34,2.34,0,0,0,2.41,2.27h55.13a2.54,2.54,0,0,0,2.6-2.46v-1.77Z" transform="translate(-18 -123)"/><rect class="j" x="54.32" y="16.11" width="355.42" height="208.44"/><path class="k" d="M20.15,374.4a5.77,5.77,0,0,0,1.51.81l6.89,2.43A37.15,37.15,0,0,0,41,379.77H458.08a33.17,33.17,0,0,0,11.35-2l8.41-3.07a3.36,3.36,0,0,0,.6-.3Z" transform="translate(-18 -123)"/><path class="l" d="M20.36,374.48a5.82,5.82,0,0,0,1.5.8s6.78,2.39,6.82,2.4A37.21,37.21,0,0,0,41,379.78H458.08a32.81,32.81,0,0,0,11.2-2l8.29-3a3,3,0,0,0,.6-.29Z" transform="translate(-18 -123)"/><path class="m" d="M20.58,374.57a5.69,5.69,0,0,0,1.49.78s6.65,2.34,6.74,2.36A37,37,0,0,0,41,379.78H458.08a32.7,32.7,0,0,0,11.05-1.93c.09,0,8.15-3,8.18-3a3.59,3.59,0,0,0,.59-.29Z" transform="translate(-18 -123)"/><path class="n" d="M20.79,374.65a5.74,5.74,0,0,0,1.48.77c.07,0,6.54,2.29,6.67,2.32a36.86,36.86,0,0,0,12,2.05H458.08a32.25,32.25,0,0,0,10.89-1.9c.15,0,8-2.89,8.08-2.91a2.52,2.52,0,0,0,.57-.28Z" transform="translate(-18 -123)"/><path class="o" d="M21,374.73a5.28,5.28,0,0,0,1.46.75c.09,0,6.43,2.26,6.6,2.3a36.94,36.94,0,0,0,11.9,2H458.08a32.18,32.18,0,0,0,10.74-1.86c.19,0,7.9-2.84,8-2.85a3.78,3.78,0,0,0,.57-.28Z" transform="translate(-18 -123)"/><path class="p" d="M21.22,374.82a5.47,5.47,0,0,0,1.45.73c.11,0,6.31,2.21,6.53,2.26a36.5,36.5,0,0,0,11.77,2H458.08A31.87,31.87,0,0,0,468.67,378c.24-.05,7.77-2.78,7.85-2.8a2.91,2.91,0,0,0,.56-.27Z" transform="translate(-18 -123)"/><path class="q" d="M21.44,374.9a5.16,5.16,0,0,0,1.43.72c.14,0,6.2,2.16,6.46,2.22a36.29,36.29,0,0,0,11.64,2H458.08a31.38,31.38,0,0,0,10.43-1.8c.29-.06,7.65-2.72,7.74-2.74a3.64,3.64,0,0,0,.56-.27Z" transform="translate(-18 -123)"/><path class="r" d="M21.66,375a4.89,4.89,0,0,0,1.41.71c.16.05,6.09,2.12,6.39,2.19A36.43,36.43,0,0,0,41,379.81H458.08a31.33,31.33,0,0,0,10.28-1.76c.34-.06,7.52-2.66,7.63-2.69a2.26,2.26,0,0,0,.54-.26Z" transform="translate(-18 -123)"/><path class="s" d="M21.87,375.07a5.22,5.22,0,0,0,1.4.69c.19.05,6,2.07,6.32,2.15A36.28,36.28,0,0,0,41,379.82H458.08a31,31,0,0,0,10.13-1.73c.38-.07,7.39-2.6,7.52-2.63a3.74,3.74,0,0,0,.53-.26Z" transform="translate(-18 -123)"/><path class="t" d="M22.09,375.15a4.79,4.79,0,0,0,1.38.68c.21.06,5.86,2,6.25,2.11A36.11,36.11,0,0,0,41,379.82H458.08a30.84,30.84,0,0,0,10-1.69c.44-.08,7.27-2.54,7.41-2.58a2.62,2.62,0,0,0,.53-.25Z" transform="translate(-18 -123)"/><path class="u" d="M22.3,375.23a5,5,0,0,0,1.37.67c.23.06,5.75,2,6.18,2.07A35.92,35.92,0,0,0,41,379.83H458.08a30.71,30.71,0,0,0,9.82-1.65c.48-.1,7.14-2.49,7.3-2.54a2.43,2.43,0,0,0,.51-.24Z" transform="translate(-18 -123)"/><path class="v" d="M22.52,375.32a4.85,4.85,0,0,0,1.35.65c.26.07,5.63,1.93,6.11,2a36.05,36.05,0,0,0,11,1.82H458.08a30.58,30.58,0,0,0,9.66-1.61c.54-.11,7-2.43,7.2-2.48a2.12,2.12,0,0,0,.5-.24Z" transform="translate(-18 -123)"/><path class="w" d="M22.73,375.4a4.93,4.93,0,0,0,1.34.64c.28.07,5.52,1.88,6.05,2A35.85,35.85,0,0,0,41,379.84H458.08a30.25,30.25,0,0,0,9.51-1.58c.58-.12,6.89-2.38,7.08-2.43a2.62,2.62,0,0,0,.5-.23Z" transform="translate(-18 -123)"/><path class="x" d="M23,375.48a4.65,4.65,0,0,0,1.32.63c.31.08,5.41,1.84,6,2A35.72,35.72,0,0,0,41,379.85H458.08a30.25,30.25,0,0,0,9.36-1.55c.63-.13,6.77-2.32,7-2.37a2.51,2.51,0,0,0,.49-.23Z" transform="translate(-18 -123)"/><path class="y" d="M23.16,375.56a4.72,4.72,0,0,0,1.31.62c.33.08,5.29,1.79,5.91,1.93A35.89,35.89,0,0,0,41,379.85H458.08a29.85,29.85,0,0,0,9.2-1.51c.68-.14,6.65-2.26,6.86-2.32a2.18,2.18,0,0,0,.48-.22Z" transform="translate(-18 -123)"/><path class="z" d="M23.38,375.65a4.77,4.77,0,0,0,1.29.59c.35.1,5.18,1.75,5.84,1.9A35.39,35.39,0,0,0,41,379.86H458.08a29.47,29.47,0,0,0,9.05-1.48c.73-.15,6.52-2.2,6.75-2.26a2.08,2.08,0,0,0,.47-.22Z" transform="translate(-18 -123)"/><path class="aa" d="M23.59,375.73a4.57,4.57,0,0,0,1.28.58c.38.11,5.07,1.7,5.77,1.86A35.32,35.32,0,0,0,41,379.86H458.08a29.49,29.49,0,0,0,8.9-1.44c.77-.15,6.39-2.14,6.64-2.21a2.6,2.6,0,0,0,.46-.2Z" transform="translate(-18 -123)"/><path class="ab" d="M23.81,375.81a4.44,4.44,0,0,0,1.26.57c.4.11,4.95,1.66,5.7,1.82A35.21,35.21,0,0,0,41,379.87H458.08a29.05,29.05,0,0,0,8.74-1.41c.82-.16,6.27-2.08,6.53-2.15a3.09,3.09,0,0,0,.46-.2Z" transform="translate(-18 -123)"/><path class="ac" d="M24,375.9a4.48,4.48,0,0,0,1.24.55c.43.12,4.84,1.61,5.63,1.79A35.44,35.44,0,0,0,41,379.88H458.08a29.11,29.11,0,0,0,8.59-1.38c.87-.17,6.14-2,6.42-2.1a2.12,2.12,0,0,0,.44-.19Z" transform="translate(-18 -123)"/><path class="ad" d="M24.24,376a4.6,4.6,0,0,0,1.23.54c.45.12,4.73,1.56,5.56,1.75A35.27,35.27,0,0,0,41,379.88H458.08a28.61,28.61,0,0,0,8.43-1.34c.92-.18,6-2,6.31-2.05a2,2,0,0,0,.44-.18Z" transform="translate(-18 -123)"/><path class="ae" d="M24.46,376.06a4.31,4.31,0,0,0,1.21.53c.47.13,4.61,1.52,5.49,1.71A35.19,35.19,0,0,0,41,379.89H458.08a28.69,28.69,0,0,0,8.28-1.31c1-.19,5.89-1.91,6.2-2a2.79,2.79,0,0,0,.43-.18Z" transform="translate(-18 -123)"/><path class="af" d="M24.67,376.15a4.83,4.83,0,0,0,1.2.51c.5.13,4.5,1.47,5.42,1.68A35.51,35.51,0,0,0,41,379.89H458.08a28.43,28.43,0,0,0,8.13-1.27c1-.2,5.76-1.85,6.09-1.94a1.94,1.94,0,0,0,.41-.17Z" transform="translate(-18 -123)"/><path class="ag" d="M24.89,376.23a4.36,4.36,0,0,0,1.18.5c.52.14,4.39,1.42,5.35,1.64A35.45,35.45,0,0,0,41,379.9H458.08a28,28,0,0,0,8-1.24c1.07-.21,5.64-1.79,6-1.88a1.94,1.94,0,0,0,.41-.17Z" transform="translate(-18 -123)"/><path class="ah" d="M25.1,376.31a4.67,4.67,0,0,0,1.17.49c.55.14,4.27,1.38,5.28,1.6A35.35,35.35,0,0,0,41,379.91H458.08a28.07,28.07,0,0,0,7.82-1.21c1.11-.22,5.51-1.73,5.87-1.83a2.68,2.68,0,0,0,.4-.16Z" transform="translate(-18 -123)"/><path class="ai" d="M25.32,376.4a4.65,4.65,0,0,0,1.15.47c.57.15,4.16,1.33,5.21,1.56A35.29,35.29,0,0,0,41,379.91H458.08a27.77,27.77,0,0,0,7.67-1.17c1.16-.23,5.38-1.67,5.76-1.77a3,3,0,0,0,.39-.16Z" transform="translate(-18 -123)"/><path class="aj" d="M25.53,376.48a4.55,4.55,0,0,0,1.14.45c.59.16,4,1.29,5.14,1.54A35.24,35.24,0,0,0,41,379.92H458.08a28.18,28.18,0,0,0,7.51-1.13c1.21-.24,5.26-1.62,5.65-1.73a1.81,1.81,0,0,0,.38-.15Z" transform="translate(-18 -123)"/><path class="ak" d="M25.75,376.56a4.24,4.24,0,0,0,1.12.44c.62.17,3.93,1.25,5.07,1.5a35.26,35.26,0,0,0,9,1.42H458.08a27.9,27.9,0,0,0,7.36-1.09c1.26-.25,5.13-1.56,5.54-1.67a1.91,1.91,0,0,0,.37-.15Z" transform="translate(-18 -123)"/><path class="al" d="M26,376.65a5,5,0,0,0,1.11.42c.64.18,3.82,1.2,5,1.46a35.26,35.26,0,0,0,8.9,1.4H458.08a28.14,28.14,0,0,0,7.21-1.06c1.3-.26,5-1.5,5.42-1.62a2.73,2.73,0,0,0,.37-.14Z" transform="translate(-18 -123)"/><path class="am" d="M26.18,376.73a5.21,5.21,0,0,0,1.09.41c.67.18,3.7,1.15,4.93,1.43A35.65,35.65,0,0,0,41,379.94H458.08a27.69,27.69,0,0,0,7.05-1c1.36-.27,4.88-1.44,5.32-1.57a2.11,2.11,0,0,0,.36-.13Z" transform="translate(-18 -123)"/><path class="an" d="M26.39,376.81a5,5,0,0,0,1.08.4c.69.19,3.59,1.11,4.87,1.39A35.51,35.51,0,0,0,41,379.94H458.08a28,28,0,0,0,6.9-1c1.4-.28,4.76-1.39,5.21-1.51a1.49,1.49,0,0,0,.34-.13Z" transform="translate(-18 -123)"/><path class="ao" d="M26.61,376.9a5.91,5.91,0,0,0,1.06.38c.71.19,3.48,1.06,4.8,1.35A35.64,35.64,0,0,0,41,380H458.08a27.69,27.69,0,0,0,6.74-1c1.46-.29,4.64-1.33,5.1-1.46a1.44,1.44,0,0,0,.34-.12Z" transform="translate(-18 -123)"/><path class="ap" d="M26.83,377a5.44,5.44,0,0,0,1,.37c.74.2,3.36,1,4.73,1.32A36.18,36.18,0,0,0,41,380H458.08a27.47,27.47,0,0,0,6.59-.92c1.5-.3,4.51-1.27,5-1.4a1.9,1.9,0,0,0,.33-.12Z" transform="translate(-18 -123)"/><path class="aq" d="M27,377.06a6.07,6.07,0,0,0,1,.36c.76.2,3.25,1,4.66,1.28A36.22,36.22,0,0,0,41,380H458.08a27.81,27.81,0,0,0,6.44-.89c1.55-.31,4.38-1.21,4.87-1.35a1.67,1.67,0,0,0,.32-.11Z" transform="translate(-18 -123)"/><path class="ar" d="M27.26,377.15a6.7,6.7,0,0,0,1,.34c.79.21,3.14.92,4.59,1.24A36.33,36.33,0,0,0,41,380H458.08a27.48,27.48,0,0,0,6.28-.85c1.6-.32,4.26-1.15,4.77-1.29a1.46,1.46,0,0,0,.31-.11Z" transform="translate(-18 -123)"/><path class="as" d="M27.47,377.23a8,8,0,0,0,1,.33c.81.21,3,.87,4.52,1.2A35.91,35.91,0,0,0,41,380H458.08a28,28,0,0,0,6.13-.82c1.64-.32,4.13-1.09,4.66-1.24l.3-.1Z" transform="translate(-18 -123)"/><path class="at" d="M27.69,377.31a6.75,6.75,0,0,0,1,.32c.84.22,2.91.82,4.45,1.17A36.75,36.75,0,0,0,41,380H458.08a27.91,27.91,0,0,0,6-.79c1.69-.33,4-1,4.54-1.18l.3-.1Z" transform="translate(-18 -123)"/><path class="au" d="M27.9,377.4s.39.13,1,.29c.85.23,2.79.79,4.37,1.14A36.85,36.85,0,0,0,41,380H458.08a28.32,28.32,0,0,0,5.82-.75c1.74-.34,3.88-1,4.44-1.13l.28-.09Z" transform="translate(-18 -123)"/><path class="av" d="M28.12,377.48s.37.12,1,.28c.87.24,2.67.74,4.3,1.1A37.13,37.13,0,0,0,41,380H458.08a28.31,28.31,0,0,0,5.67-.72c1.79-.35,3.75-.92,4.33-1.07l.27-.09Z" transform="translate(-18 -123)"/><path class="aw" d="M28.33,377.56l1,.27c.9.25,2.56.69,4.23,1.07A38.07,38.07,0,0,0,41,380H458.08a28.21,28.21,0,0,0,5.51-.68c1.84-.36,3.63-.86,4.22-1l.27-.08Z" transform="translate(-18 -123)"/><path class="ax" d="M28.55,377.64S36.73,380,41,380H458.08a45,45,0,0,0,9.73-1.69Z" transform="translate(-18 -123)"/><ellipse class="ay" cx="231" cy="8.01" rx="3.83" ry="3.61"/><rect class="az" x="73" y="108" width="279" height="11.58" rx="2.83"/><path class="ba" d="M246.08,148.45c-.42-.43-.76-.29-.76.31v57.16c0,.59.33.73.75.3l8.26-8.6a3.1,3.1,0,0,0,.75-1.86V158.64a3,3,0,0,0-.76-1.85Z" transform="translate(-18 -123)"/><g class="bb"><path class="bc" d="M277.16,156.7" transform="translate(-18 -123)"/></g><path class="ba" d="M275.94,155.65" transform="translate(-18 -123)"/><path class="ba" d="M277.65,161.81a1.47,1.47,0,0,0-.84-1.49l-30.92-12.9c-.55-.23-.66-.07-.24.35l13.44,13.66a6.35,6.35,0,0,0,1.76,1.19l14.69,6.13a9.2,9.2,0,0,0,1,.39s.09-.51.18-1.09Z" transform="translate(-18 -123)"/><path class="bd" d="M279,160.28a.65.65,0,0,0-1-.64l-43,19.69c-.54.25-.56.69,0,1l7.73,4.33a2.34,2.34,0,0,0,1.92.08L278,169.42a1.85,1.85,0,0,0,1-1.54Z" transform="translate(-18 -123)"/><rect class="az" x="73" y="145.21" width="168.85" height="11.58" rx="2.2"/><rect class="az" x="73" y="182.42" width="199.72" height="11.58" rx="2.39"/><circle class="be" cx="352" cy="34" r="8"/><circle class="bf" cx="373" cy="34" r="8"/><circle class="bg" cx="394" cy="34" r="8"/></g></svg>