<svg xmlns="http://www.w3.org/2000/svg" width="344.08" height="270.26" viewBox="0 0 344.08 270.26"><defs><style>.a{fill:#221f1f;}.b{fill:#bbbdbf;}.c{fill:#e6e6e7;}.d{fill:#fff;}.e{fill:#363f44;}.f{fill:#31c4f3;}.g{fill:#323844;}.h{fill:#68778e;}.i{fill:#1fa2ff;}.j{fill:#f2f5f7;}.k{fill:#eaeaea;}.l,.m{fill:#161922;}.m{opacity:0.73;}.n{fill:#bcbdc2;}.o{fill:#babbc0;}.p{fill:#b8babf;}.q{fill:#b7b8bd;}.r{fill:#b5b6bc;}.s{fill:#b3b5ba;}.t{fill:#b1b3b9;}.u{fill:#afb1b7;}.v{fill:#adb0b5;}.w{fill:#acaeb4;}.x{fill:#aaacb2;}.y{fill:#a8abb1;}.z{fill:#a6a9af;}.aa{fill:#a4a8ae;}.ab{fill:#a2a6ac;}.ac{fill:#a1a4ab;}.ad{fill:#9fa3a9;}.ae{fill:#9da1a7;}.af{fill:#9b9fa6;}.ag{fill:#999ea4;}.ah{fill:#979ca3;}.ai{fill:#969aa1;}.aj{fill:#9499a0;}.ak{fill:#92979e;}.al{fill:#878b92;}.am{fill:#8e9299;}.an{fill:#9499a1;}.ao{fill:#9ba0a8;}.ap{fill:#a1a7af;}.aq{fill:#a8afb6;}.ar{fill:#aeb6be;}.as{fill:#b4bdc5;}.at{fill:#bbc4cc;}.au{fill:#c1cbd4;}.av{fill:#c8d2db;}</style></defs><title>BannerHome</title><path class="a" d="M261.4,342.44V201a12,12,0,0,0-11.76-12.2H53.31A12,12,0,0,0,41.55,201V342.44Z" transform="translate(-17.92 -100)"/><path class="b" d="M278.93,350.77H24c-5.29,0-6.1-7.26-6.1-7.26H285S284.22,350.77,278.93,350.77Z" transform="translate(-17.92 -100)"/><rect class="c" y="240.67" width="267.12" height="4.07"/><rect class="d" x="32.23" y="100.34" width="202.65" height="132.84"/><rect class="b" x="107.79" y="240.67" width="51.55" height="2.31"/><path class="e" d="M90,226.92c-.5-.58-.91-.43-.91.34v79.45c0,.77.4.92.9.33l10-11.94a4.51,4.51,0,0,0,.9-2.47V241a4.33,4.33,0,0,0-.92-2.46Z" transform="translate(-17.92 -100)"/><path class="e" d="M128.2,245.36a2.06,2.06,0,0,0-1.08-2L89.84,225.53c-.7-.33-.85-.13-.35.46l16.27,18.95a7.82,7.82,0,0,0,2.17,1.67l17.66,8.45a11.27,11.27,0,0,0,1.28.56s.1-.66.2-1.42Z" transform="translate(-17.92 -100)"/><path class="f" d="M129.82,243.23a.78.78,0,0,0-1.24-.75L76.72,269.72a.75.75,0,0,0-.06,1.41l9.27,6a2.65,2.65,0,0,0,2.42.11L128.59,256a2.55,2.55,0,0,0,1.23-2Z" transform="translate(-17.92 -100)"/><rect class="g" x="152.37" width="191.72" height="260.79"/><polygon class="h" points="266.2 0 232.37 0 218.98 12.98 251.89 12.98 266.2 0"/><polygon class="h" points="294.86 0 277.95 0 263.72 12.98 279.71 12.98 294.86 0"/><polygon class="h" points="152.37 103.34 152.37 77.66 169.47 62.57 169.47 86.76 152.37 103.34"/><polygon class="h" points="152.37 115.21 152.37 131.1 160.91 122.81 160.91 106.92 152.37 115.21"/><polygon class="i" points="236.08 0 152.37 81.17 152.37 0.13 236.08 0"/><polygon class="h" points="215.58 0 152.37 61.3 152.37 0 215.58 0"/><polygon class="g" points="152.37 61.3 152.37 0 169.47 14.32 169.47 44.71 152.37 61.3"/><polygon class="i" points="169.47 14.32 184.33 0 152.37 0 169.47 14.32"/><polygon class="i" points="280.58 0 263.66 0 242.59 19.03 258.58 19.03 280.58 0"/><polygon class="h" points="190.93 260.79 236.45 260.79 254.46 243.33 210.18 243.33 190.93 260.79"/><polygon class="h" points="152.37 260.79 175.13 260.79 194.27 243.33 172.75 243.33 152.37 260.79"/><polygon class="h" points="344.08 121.75 344.08 156.31 321.08 176.6 321.08 144.06 344.08 121.75"/><polygon class="h" points="344.08 105.78 344.08 84.4 332.58 95.55 332.58 116.93 344.08 105.78"/><polygon class="i" points="231.48 260.79 344.08 151.57 343.94 260.79 231.48 260.79"/><polygon class="h" points="259.04 260.79 344.08 178.32 344.08 260.79 259.04 260.79"/><polygon class="g" points="344.08 178.32 344.08 260.79 321.08 241.52 321.08 200.63 344.08 178.32"/><polygon class="j" points="321.08 241.52 300.9 260.79 344.08 260.79 321.08 241.52"/><polygon class="i" points="171.59 260.79 194.35 260.79 222.7 235.19 201.18 235.19 171.59 260.79"/><path class="d" d="M253.45,176.12c-.51-.6-.93-.45-.93.35v82c0,.79.41.94.92.33l10.25-12.32a4.6,4.6,0,0,0,.92-2.54V190.6a4.56,4.56,0,0,0-.93-2.54Z" transform="translate(-17.92 -100)"/><path class="d" d="M292.58,195.13a2.15,2.15,0,0,0-1.11-2l-38.18-18.4c-.72-.34-.88-.13-.37.47l16.67,19.56a8.12,8.12,0,0,0,2.23,1.72l18.08,8.71a11.45,11.45,0,0,0,1.31.59s.11-.68.21-1.47Z" transform="translate(-17.92 -100)"/><path class="f" d="M294.24,192.94a.8.8,0,0,0-1.27-.77l-53.12,28.1a.78.78,0,0,0-.06,1.46l9.49,6.15a2.72,2.72,0,0,0,2.48.1L293,206.15a2.63,2.63,0,0,0,1.27-2.11Z" transform="translate(-17.92 -100)"/><rect class="k" x="129.98" y="143" width="61.1" height="127.26" rx="6.84"/><rect class="l" x="129.98" y="154.43" width="61.1" height="104.4"/><path class="l" d="M184.5,249.1H170.88a.66.66,0,0,1-.66-.67h0a.66.66,0,0,1,.66-.67H184.5a.66.66,0,0,1,.66.67h0A.66.66,0,0,1,184.5,249.1Z" transform="translate(-17.92 -100)"/><rect class="m" x="153.89" y="263.67" width="13.28" height="1.37" rx="0.67"/><path class="n" d="M190.13,248.25a1.39,1.39,0,1,1-2.78,0,1.36,1.36,0,0,1,.41-1,1.38,1.38,0,0,1,2,0A1.36,1.36,0,0,1,190.13,248.25Z" transform="translate(-17.92 -100)"/><path class="o" d="M187.76,247.26a1.38,1.38,0,0,1,2,0l0,0a1.23,1.23,0,0,1,.33.72,1.27,1.27,0,0,1,0,.2,1.37,1.37,0,0,1-.42,1l-.07.07a1.46,1.46,0,0,1-.9.35,1.21,1.21,0,0,1-.42,0,1.42,1.42,0,0,1-.44-.23l0,0a.19.19,0,0,1-.07-.06,1.44,1.44,0,0,1-.39-1A1.41,1.41,0,0,1,187.76,247.26Z" transform="translate(-17.92 -100)"/><path class="p" d="M187.76,247.26a1.39,1.39,0,0,1,1-.41,1.43,1.43,0,0,1,1,.41v0a1.11,1.11,0,0,1,.29.68v.19a1.46,1.46,0,0,1-.44.92l-.07.07a1.54,1.54,0,0,1-.88.36,1.33,1.33,0,0,1-.4,0,1.22,1.22,0,0,1-.43-.2h0l-.06-.06a1.32,1.32,0,0,1-.27-.42,1.34,1.34,0,0,1-.1-.57A1.33,1.33,0,0,1,187.76,247.26Z" transform="translate(-17.92 -100)"/><path class="q" d="M187.76,247.26a1.39,1.39,0,0,1,1-.41,1.42,1.42,0,0,1,1,.41v0a1,1,0,0,1,.25.64c0,.05,0,.12,0,.18a1.48,1.48,0,0,1-.46.89l-.07.06a1.4,1.4,0,0,1-.85.37,1,1,0,0,1-.39,0,1.13,1.13,0,0,1-.42-.17h0l-.07-.05a1.64,1.64,0,0,1-.26-.42,1.79,1.79,0,0,1-.09-.57A1.34,1.34,0,0,1,187.76,247.26Z" transform="translate(-17.92 -100)"/><path class="r" d="M187.76,247.26a1.39,1.39,0,0,1,1-.41,1.37,1.37,0,0,1,1,.42h0a.83.83,0,0,1,.2.59,1.09,1.09,0,0,1,0,.18,1.6,1.6,0,0,1-.47.86l-.07.06a1.66,1.66,0,0,1-.84.38,1.2,1.2,0,0,1-.38,0,1.06,1.06,0,0,1-.4-.14h0l-.06,0a1.43,1.43,0,0,1-.25-.43,1.36,1.36,0,0,1-.08-.57A1.33,1.33,0,0,1,187.76,247.26Z" transform="translate(-17.92 -100)"/><path class="s" d="M187.76,247.26a1.39,1.39,0,0,1,1-.41,1.37,1.37,0,0,1,1,.42h0a.8.8,0,0,1,.16.55c0,.06,0,.11,0,.17a1.66,1.66,0,0,1-.49.83l-.07.06a1.69,1.69,0,0,1-.82.39,1.47,1.47,0,0,1-.36,0,1.06,1.06,0,0,1-.38-.12h0l-.05,0a1.43,1.43,0,0,1-.25-.43,1.54,1.54,0,0,1-.07-.57A1.32,1.32,0,0,1,187.76,247.26Z" transform="translate(-17.92 -100)"/><path class="t" d="M187.76,247.26a1.39,1.39,0,0,1,1-.41,1.37,1.37,0,0,1,1,.42h0a.69.69,0,0,1,.12.51,1.24,1.24,0,0,1,0,.16,1.64,1.64,0,0,1-.5.8l-.07.06a1.78,1.78,0,0,1-.79.39,1.54,1.54,0,0,1-.36,0,1,1,0,0,1-.36-.09h0l-.06,0a1.27,1.27,0,0,1-.23-.43,1.33,1.33,0,0,1-.06-.56A1.31,1.31,0,0,1,187.76,247.26Z" transform="translate(-17.92 -100)"/><path class="u" d="M187.76,247.26a1.39,1.39,0,0,1,1-.41,1.37,1.37,0,0,1,1,.42h0a.59.59,0,0,1,.07.47.83.83,0,0,1,0,.15,1.76,1.76,0,0,1-.51.76l-.07.06a2,2,0,0,1-.78.41,1.42,1.42,0,0,1-.34,0,1,1,0,0,1-.35-.06h0l-.05,0a1.37,1.37,0,0,1-.23-.43,1.54,1.54,0,0,1-.05-.57A1.29,1.29,0,0,1,187.76,247.26Z" transform="translate(-17.92 -100)"/><path class="v" d="M187.76,247.26a1.39,1.39,0,0,1,1-.41,1.37,1.37,0,0,1,1,.42h0a.54.54,0,0,1,0,.43,1.21,1.21,0,0,1-.05.14,2.09,2.09,0,0,1-.53.73l-.07.06a2,2,0,0,1-.76.41,1,1,0,0,1-.32.06.92.92,0,0,1-.34,0h0l-.05,0a1.38,1.38,0,0,1-.21-.44,1.5,1.5,0,0,1,0-.56A1.3,1.3,0,0,1,187.76,247.26Z" transform="translate(-17.92 -100)"/><path class="w" d="M187.76,247.26a1.39,1.39,0,0,1,1-.41,1.37,1.37,0,0,1,1,.42h0a.45.45,0,0,1,0,.39,1.12,1.12,0,0,1-.05.13,2.21,2.21,0,0,1-.55.7l-.06.06a2.66,2.66,0,0,1-.75.42,1.25,1.25,0,0,1-.31.07.8.8,0,0,1-.31,0h-.06a1.63,1.63,0,0,1-.21-.44,1.5,1.5,0,0,1,0-.56A1.3,1.3,0,0,1,187.76,247.26Z" transform="translate(-17.92 -100)"/><path class="x" d="M187.76,247.26a1.39,1.39,0,0,1,1-.41,1.37,1.37,0,0,1,1,.42h0a.45.45,0,0,1-.06.35l-.06.12a2.59,2.59,0,0,1-.56.67l-.07.05a2.58,2.58,0,0,1-.72.44l-.3.09a1.1,1.1,0,0,1-.3,0h0a1.51,1.51,0,0,1-.2-.45,1.32,1.32,0,0,1,0-.56A1.24,1.24,0,0,1,187.76,247.26Z" transform="translate(-17.92 -100)"/><path class="y" d="M187.76,247.26a1.39,1.39,0,0,1,1-.41,1.41,1.41,0,0,1,1,.42h0a.5.5,0,0,1-.1.31l-.07.11a3.36,3.36,0,0,1-.58.64l-.07,0a2.92,2.92,0,0,1-.7.44,2.12,2.12,0,0,1-.29.11,1.11,1.11,0,0,1-.28.05h-.05a1.34,1.34,0,0,1-.19-.44,1.51,1.51,0,0,1,0-.56A1.24,1.24,0,0,1,187.76,247.26Z" transform="translate(-17.92 -100)"/><path class="z" d="M187.76,247.26a1.39,1.39,0,0,1,1-.41,1.41,1.41,0,0,1,1,.42h0a.6.6,0,0,1-.15.27.86.86,0,0,0-.07.1,3.77,3.77,0,0,1-.6.6l-.06.06a3.54,3.54,0,0,1-.69.45l-.27.12a1.23,1.23,0,0,1-.26.08h0a1.12,1.12,0,0,1-.18-.45,1.5,1.5,0,0,1,0-.56A1.31,1.31,0,0,1,187.76,247.26Z" transform="translate(-17.92 -100)"/><path class="aa" d="M187.76,247.26a1.39,1.39,0,0,1,1-.41,1.38,1.38,0,0,1,1,.43h0a1.45,1.45,0,0,1-.18.23.36.36,0,0,0-.08.09,7,7,0,0,1-.61.57l-.07.06a6.68,6.68,0,0,1-.67.46l-.25.13a1.6,1.6,0,0,1-.25.11h-.05a1.44,1.44,0,0,1-.17-.45,1.75,1.75,0,0,1,0-.56A1.24,1.24,0,0,1,187.76,247.26Z" transform="translate(-17.92 -100)"/><path class="ab" d="M187.76,247.26a1.39,1.39,0,0,1,1-.41,1.36,1.36,0,0,1,1,.43h0l-.22.18-.1.09c-.17.16-.39.35-.62.54l-.07,0a6.52,6.52,0,0,1-.64.47l-.25.15-.23.14h0l0,0a1.2,1.2,0,0,1-.16-.46,1.69,1.69,0,0,1,0-.55A1.37,1.37,0,0,1,187.76,247.26Z" transform="translate(-17.92 -100)"/><path class="ac" d="M187.76,247.26a1.38,1.38,0,0,1,2,0h0s-.13,0-.27.13l-.1.08-.64.51-.06.05c-.21.17-.43.34-.63.48l-.23.17-.22.16h0l0,0a1.26,1.26,0,0,1-.16-.46,1.51,1.51,0,0,1,0-.56A1.26,1.26,0,0,1,187.76,247.26Z" transform="translate(-17.92 -100)"/><path class="ad" d="M187.76,247.26a1.38,1.38,0,0,1,2,0h0c-.06,0-.16,0-.31.09l-.11.07c-.19.13-.42.3-.65.48l-.07,0-.61.48-.22.19-.19.19h0l0,0a1.37,1.37,0,0,1-.14-.46,1.46,1.46,0,0,1,0-.55A1.32,1.32,0,0,1,187.76,247.26Z" transform="translate(-17.92 -100)"/><path class="ae" d="M187.76,247.26a1.38,1.38,0,0,1,2,0h0a.48.48,0,0,0-.35.05l-.12.06a4.62,4.62,0,0,0-.67.45l-.06,0c-.21.17-.42.34-.59.5l-.21.2a1.21,1.21,0,0,0-.18.23h0l0,0a1.35,1.35,0,0,1-.09-1A1.28,1.28,0,0,1,187.76,247.26Z" transform="translate(-17.92 -100)"/><path class="af" d="M187.76,247.26a1.38,1.38,0,0,1,2,0h0a.55.55,0,0,0-.4,0l-.12,0a3.38,3.38,0,0,0-.69.41l-.06.05a4.7,4.7,0,0,0-.57.51,1.8,1.8,0,0,0-.19.21,1.28,1.28,0,0,0-.17.26h0l0,0a1.71,1.71,0,0,1-.13-.47,1.69,1.69,0,0,1,.06-.55A1.23,1.23,0,0,1,187.76,247.26Z" transform="translate(-17.92 -100)"/><path class="ag" d="M187.76,247.26a1.38,1.38,0,0,1,2,0h0a.63.63,0,0,0-.44,0l-.13,0a2.53,2.53,0,0,0-.7.38l-.07,0a3.82,3.82,0,0,0-.55.51l-.18.23a2,2,0,0,0-.15.29h0s0,0,0,0a1.26,1.26,0,0,1-.12-.47,1.44,1.44,0,0,1,.07-.55A1.3,1.3,0,0,1,187.76,247.26Z" transform="translate(-17.92 -100)"/><path class="ah" d="M187.76,247.26a1.39,1.39,0,0,1,1-.41,1.42,1.42,0,0,1,1,.43h0a.73.73,0,0,0-.48-.07.58.58,0,0,0-.14,0,2.18,2.18,0,0,0-.72.35l-.06.05a3,3,0,0,0-.54.52,1.32,1.32,0,0,0-.16.25,1.2,1.2,0,0,0-.13.31h0s0,0,0,.06a1.31,1.31,0,0,1-.12-.48,1.61,1.61,0,0,1,.08-.54A1.27,1.27,0,0,1,187.76,247.26Z" transform="translate(-17.92 -100)"/><path class="ai" d="M187.76,247.26a1.38,1.38,0,0,1,2,0h0a.82.82,0,0,0-.53-.11l-.14,0a1.94,1.94,0,0,0-.74.32l-.06,0a2.33,2.33,0,0,0-.51.53c-.06.09-.11.18-.16.27a1.35,1.35,0,0,0-.11.34h0s0,0,0,.06a1.2,1.2,0,0,1-.1-.47,1.45,1.45,0,0,1,.09-.55A1.28,1.28,0,0,1,187.76,247.26Z" transform="translate(-17.92 -100)"/><path class="aj" d="M187.76,247.26a1.38,1.38,0,0,1,2,0h0a1,1,0,0,0-.57-.15H189a1.57,1.57,0,0,0-.75.29l-.07,0a2.11,2.11,0,0,0-.49.54,1.47,1.47,0,0,0-.14.28,1.56,1.56,0,0,0-.1.37h0s0,0,0,.07a1.52,1.52,0,0,1-.1-.48,1.62,1.62,0,0,1,.1-.54A1.25,1.25,0,0,1,187.76,247.26Z" transform="translate(-17.92 -100)"/><path class="ak" d="M187.44,248.66v0a1.79,1.79,0,0,1,.09-.4,1.66,1.66,0,0,1,.6-.84,1.49,1.49,0,0,1,1-.3,1.22,1.22,0,0,1,.61.19h0a1.38,1.38,0,0,0-2,0,1.43,1.43,0,0,0-.3.44,1.46,1.46,0,0,0-.11.55,1.28,1.28,0,0,0,.09.48Z" transform="translate(-17.92 -100)"/><circle class="al" cx="170.83" cy="148.24" r="0.57"/><circle class="am" cx="170.83" cy="148.24" r="0.56"/><circle class="an" cx="170.84" cy="148.24" r="0.55"/><circle class="ao" cx="170.84" cy="148.24" r="0.54"/><circle class="ap" cx="170.84" cy="148.23" r="0.52"/><path class="aq" d="M189.26,248.23a.51.51,0,0,1-.51.52.52.52,0,0,1,0-1A.51.51,0,0,1,189.26,248.23Z" transform="translate(-17.92 -100)"/><path class="ar" d="M189.25,248.23a.5.5,0,1,1-.5-.5A.5.5,0,0,1,189.25,248.23Z" transform="translate(-17.92 -100)"/><path class="as" d="M189.24,248.23a.49.49,0,1,1-1,0,.49.49,0,0,1,1,0Z" transform="translate(-17.92 -100)"/><path class="at" d="M189.23,248.23a.48.48,0,0,1-.47.48.49.49,0,0,1-.48-.48.48.48,0,0,1,.48-.47A.47.47,0,0,1,189.23,248.23Z" transform="translate(-17.92 -100)"/><path class="au" d="M189.22,248.23a.46.46,0,0,1-.46.46.45.45,0,0,1-.46-.46.46.46,0,0,1,.46-.46A.47.47,0,0,1,189.22,248.23Z" transform="translate(-17.92 -100)"/><path class="av" d="M189.2,248.23a.45.45,0,1,1-.44-.45A.45.45,0,0,1,189.2,248.23Z" transform="translate(-17.92 -100)"/><path class="d" d="M169.72,280.1c-.27-.32-.49-.24-.49.18v44c0,.42.22.49.48.17l5.35-6.61a2.43,2.43,0,0,0,.48-1.35v-28.6a2.44,2.44,0,0,0-.49-1.34Z" transform="translate(-17.92 -100)"/><path class="d" d="M190.14,290.29a1.17,1.17,0,0,0-.59-1.1l-19.91-9.85c-.38-.19-.47-.08-.2.25l8.7,10.48a4.18,4.18,0,0,0,1.17.92l9.42,4.67c.37.18.68.33.69.32s.05-.36.1-.78Z" transform="translate(-17.92 -100)"/><path class="f" d="M191,289.11a.42.42,0,0,0-.67-.4l-27.7,15.06a.42.42,0,0,0,0,.78l4.95,3.29a1.36,1.36,0,0,0,1.3.06l21.49-11.7a1.4,1.4,0,0,0,.67-1.12Z" transform="translate(-17.92 -100)"/></svg>