<svg xmlns="http://www.w3.org/2000/svg" width="349.82" height="260.26" viewBox="0 0 349.82 260.26"><defs><style>.a{isolation:isolate;}.b{fill:#221f1f;}.c{fill:#bbbdbf;}.d{fill:#e6e6e7;}.e{fill:#fff;}.f{fill:#363f44;}.g{fill:#31c4f3;}.h{fill:#323844;}.i{fill:#68778e;}.j{fill:#1fa2ff;}.k{fill:#f2f5f7;}.l{fill:#fff4d7;}.m{fill:#ffedb3;}.n{fill:#e0e0e0;}.o{fill:#ffe59c;}.p{fill:#ffd878;}.q{fill:#969ba5;}.r{fill:#6c7482;}.s{fill:#d98d8d;}.t{fill:#f8d041;}.u{fill:#f69512;}.v{fill:#fadd74;}.w{fill:#f7a22e;}.x{fill:#7d8390;}.y{fill:#434c5e;}.z{fill:#1d283e;}.aa{fill:#f98a8a;}.ab{fill:#e05858;}.ac{fill:#e2a7a7;}.ad{fill:#ff5c50;}.ae{fill:#f72616;}.af{fill:#35ddf2;}.ag{fill:#ff8a41;}.ah{fill:#f27729;}.ai{fill:#f2a416;}.aj{fill:#ffc021;}.ak{fill:#2e384c;}.al{fill:#bfbfbf;}.am{fill:#ccc;opacity:0.45;mix-blend-mode:multiply;}.an{fill:#1f8acc;}.ao{fill:#e5e5e5;}.ap{opacity:0.74;}.aq{fill:#f2f2f2;}.ar{fill:#eaeaea;}.as,.at{fill:#161922;}.at{opacity:0.73;}.au{fill:#bcbdc2;}.av{fill:#babbc0;}.aw{fill:#b8babf;}.ax{fill:#b7b8bd;}.ay{fill:#b5b6bc;}.az{fill:#b3b5ba;}.ba{fill:#b1b3b9;}.bb{fill:#afb1b7;}.bc{fill:#adb0b5;}.bd{fill:#acaeb4;}.be{fill:#aaacb2;}.bf{fill:#a8abb1;}.bg{fill:#a6a9af;}.bh{fill:#a4a8ae;}.bi{fill:#a2a6ac;}.bj{fill:#a1a4ab;}.bk{fill:#9fa3a9;}.bl{fill:#9da1a7;}.bm{fill:#9b9fa6;}.bn{fill:#999ea4;}.bo{fill:#979ca3;}.bp{fill:#969aa1;}.bq{fill:#9499a0;}.br{fill:#92979e;}.bs{fill:#878b92;}.bt{fill:#8e9299;}.bu{fill:#9499a1;}.bv{fill:#9ba0a8;}.bw{fill:#a1a7af;}.bx{fill:#a8afb6;}.by{fill:#aeb6be;}.bz{fill:#b4bdc5;}.ca{fill:#bbc4cc;}.cb{fill:#c1cbd4;}.cc{fill:#c8d2db;}</style></defs><title>BannerHome</title><g class="a"><path class="b" d="M264.4,342.44V201a12,12,0,0,0-11.76-12.2H56.31A12,12,0,0,0,44.55,201V342.44Z" transform="translate(-20.92 -102)"/><path class="c" d="M281.93,350.77H27c-5.29,0-6.1-7.26-6.1-7.26H288S287.22,350.77,281.93,350.77Z" transform="translate(-20.92 -102)"/><rect class="d" y="238.67" width="267.12" height="4.07"/><rect class="e" x="32.23" y="98.34" width="202.65" height="132.84"/><rect class="c" x="107.79" y="238.67" width="51.55" height="2.31"/><path class="f" d="M93,226.92c-.5-.58-.91-.43-.91.34v79.45c0,.77.4.92.9.33l10-11.94a4.51,4.51,0,0,0,.9-2.47V241a4.33,4.33,0,0,0-.92-2.46Z" transform="translate(-20.92 -102)"/><path class="f" d="M131.2,245.36a2.06,2.06,0,0,0-1.08-2L92.84,225.53c-.7-.33-.85-.13-.35.46l16.27,18.95a7.82,7.82,0,0,0,2.17,1.67l17.66,8.45a11.27,11.27,0,0,0,1.28.56s.1-.66.2-1.42Z" transform="translate(-20.92 -102)"/><path class="g" d="M132.82,243.23a.78.78,0,0,0-1.24-.75L79.72,269.72a.75.75,0,0,0-.06,1.41l9.27,6a2.65,2.65,0,0,0,2.42.11L131.59,256a2.55,2.55,0,0,0,1.23-2Z" transform="translate(-20.92 -102)"/><rect class="h" x="130.37" width="187.17" height="252.79"/><polygon class="i" points="241.5 0 208.47 0 195.4 12.58 227.53 12.58 241.5 0"/><polygon class="i" points="269.48 0 252.97 0 239.07 12.58 254.69 12.58 269.48 0"/><polygon class="i" points="130.37 100.17 130.37 75.28 147.06 60.65 147.06 84.1 130.37 100.17"/><polygon class="i" points="130.37 111.68 130.37 127.08 138.71 119.05 138.71 103.64 130.37 111.68"/><polygon class="j" points="212.09 0 130.37 78.69 130.37 0.12 212.09 0"/><polygon class="i" points="192.08 0 130.37 59.41 130.37 0 192.08 0"/><polygon class="h" points="130.37 59.41 130.37 0 147.06 13.88 147.06 43.34 130.37 59.41"/><polygon class="j" points="147.06 13.88 161.57 0 130.37 0 147.06 13.88"/><polygon class="j" points="255.53 0 239.02 0 218.45 18.44 234.06 18.44 255.53 0"/><polygon class="i" points="168.02 252.79 212.46 252.79 230.04 235.87 186.81 235.87 168.02 252.79"/><polygon class="i" points="130.37 252.79 152.59 252.79 171.28 235.87 150.27 235.87 130.37 252.79"/><polygon class="i" points="317.54 118.02 317.54 151.51 295.08 171.18 295.08 139.64 317.54 118.02"/><polygon class="i" points="317.54 102.53 317.54 81.81 306.31 92.62 306.31 113.34 317.54 102.53"/><polygon class="j" points="207.61 252.79 317.54 146.92 317.39 252.79 207.61 252.79"/><polygon class="i" points="234.51 252.79 317.54 172.85 317.54 252.79 234.51 252.79"/><polygon class="h" points="317.54 172.85 317.54 252.79 295.08 234.11 295.08 194.47 317.54 172.85"/><polygon class="k" points="295.08 234.11 275.38 252.79 317.54 252.79 295.08 234.11"/><polygon class="j" points="149.13 252.79 171.35 252.79 199.03 227.97 178.02 227.97 149.13 252.79"/><path class="e" d="M232.48,175.78c-.5-.58-.91-.43-.91.34v79.45c0,.77.4.92.9.33l10-11.94a4.51,4.51,0,0,0,.9-2.47V189.82a4.4,4.4,0,0,0-.92-2.46Z" transform="translate(-20.92 -102)"/><path class="e" d="M270.68,194.22a2.07,2.07,0,0,0-1.08-2l-37.29-17.84c-.69-.33-.85-.13-.35.46l16.27,19a7.88,7.88,0,0,0,2.18,1.66l17.65,8.45a13.91,13.91,0,0,0,1.28.57s.1-.67.2-1.43Z" transform="translate(-20.92 -102)"/><path class="g" d="M272.3,192.09a.78.78,0,0,0-1.24-.75L219.2,218.59a.74.74,0,0,0-.07,1.4l9.28,6a2.65,2.65,0,0,0,2.42.11l40.23-21.17a2.56,2.56,0,0,0,1.24-2Z" transform="translate(-20.92 -102)"/><polygon class="l" points="263.96 243.43 263.9 243.57 260.49 251.32 260.38 251.29 262.27 243.48 263.96 243.43"/><polygon class="m" points="260.49 251.32 263.9 243.57 265.51 243.06 260.52 251.42 260.54 251.33 260.49 251.32"/><polygon class="n" points="263.96 243.43 265.51 243.06 263.9 243.57 263.96 243.43"/><polygon class="o" points="260.87 242.64 262.26 243.47 260.37 251.29 260.27 251.26 260.86 242.86 260.87 242.64"/><polygon class="n" points="262.26 243.47 262.27 243.48 262.11 244.15 260.38 251.29 260.37 251.29 262.1 244.14 262.26 243.47"/><polygon class="p" points="260.27 251.26 260.21 251.25 260.18 251.24 259.58 241.56 260.86 242.86 260.27 251.26"/><polygon class="n" points="260.86 242.86 259.58 241.56 260.87 242.64 260.86 242.86"/><polygon class="q" points="270.74 221.51 270.74 221.51 270.52 222.38 270.52 222.38 270.74 221.51"/><polygon class="r" points="271.02 220.34 271.02 220.34 270.74 221.51 270.74 221.51 271.02 220.34"/><polygon class="s" points="271.43 218.65 271.02 220.34 271.02 220.34 271.43 218.65"/><path class="t" d="M302.89,271.15c.86.06,1.48-.08,1.55-.39l-12.1,49.89-.41,1.69-.28,1.17-.21.87h0l-5,20.68-1.54.37Z" transform="translate(-20.92 -102)"/><path class="u" d="M298.61,269.28c-.08.31.4.72,1.19,1.09l-18,74.27-1.29-1.09,18.6-76.31-.28,1.16Z" transform="translate(-20.92 -102)"/><path class="v" d="M301.27,270.88h0a9.35,9.35,0,0,0,1.59.26l-18,74.28-1.69.05Z" transform="translate(-20.92 -102)"/><path class="w" d="M283.19,345.48h0l-1.39-.83,18-74.27a9,9,0,0,0,1.47.51h0Z" transform="translate(-20.92 -102)"/><path class="q" d="M302.89,271.15a9.35,9.35,0,0,1-1.59-.26h0l.21-.87h0a10.92,10.92,0,0,0,1.26.23c1,.11,1.8,0,1.89-.36l-.22.87C304.37,271.07,303.75,271.21,302.89,271.15Z" transform="translate(-20.92 -102)"/><path class="x" d="M299.8,270.37c-.79-.37-1.27-.78-1.19-1.09l.21-.88c-.08.32.4.73,1.19,1.09a9,9,0,0,0,1.47.52l-.21.87A9,9,0,0,1,299.8,270.37Z" transform="translate(-20.92 -102)"/><polygon class="y" points="280.57 168.01 280.36 168.88 280.35 168.88 280.57 168.01"/><path class="z" d="M301.76,268.84l-.28,1.17a9,9,0,0,1-1.47-.52c-.79-.36-1.27-.77-1.19-1.09l.28-1.16C299,267.72,300.17,268.43,301.76,268.84Z" transform="translate(-20.92 -102)"/><path class="r" d="M302.77,270.25a10.92,10.92,0,0,1-1.26-.23h0l.28-1.17h0c1.62.41,3,.35,3.15-.13l-.28,1.17C304.57,270.24,303.8,270.36,302.77,270.25Z" transform="translate(-20.92 -102)"/><path class="aa" d="M301.79,268.85h0l1-4h0c1.61.41,3,.35,3.14-.13l-1,4C304.82,269.2,303.41,269.26,301.79,268.85Z" transform="translate(-20.92 -102)"/><path class="ab" d="M302.73,264.87l-1,4c-1.59-.41-2.78-1.12-2.66-1.6l1-4C300,263.74,301.13,264.46,302.73,264.87Z" transform="translate(-20.92 -102)"/><path class="ac" d="M302.76,264.88h0l.42-1.75h0c1.61.41,2.84,1.13,2.72,1.62S304.37,265.29,302.76,264.88Z" transform="translate(-20.92 -102)"/><path class="s" d="M300.06,263.26c.12-.48,1.49-.54,3.09-.14l-.42,1.75C301.13,264.46,300,263.74,300.06,263.26Z" transform="translate(-20.92 -102)"/><path class="ad" d="M281.13,353.24l.06,0,.1,0h0l.11,0h.06l0,.09-.37,1.54c-.08.32-.3.55-.48.5Z" transform="translate(-20.92 -102)"/><path class="ae" d="M280.4,354.79l.4-1.63.3.08h0l-.54,2.22h0C280.4,355.42,280.32,355.12,280.4,354.79Z" transform="translate(-20.92 -102)"/><polygon class="af" points="252.54 251.57 252.22 234.78 246.47 235.97 252.54 251.57"/><path class="ag" d="M255.32,261.65l2.93-.61q5.08,21.39,9.19,43l-3.61.74Z" transform="translate(-20.92 -102)"/><path class="ah" d="M252.38,262.25l2.94-.6,8.51,43.15-3.61.75Q255.84,284,252.38,262.25Z" transform="translate(-20.92 -102)"/><path class="ai" d="M270.26,337.38l-2.93.61q-3.84-16.15-7.11-32.44l3.61-.75Z" transform="translate(-20.92 -102)"/><path class="aj" d="M267.44,304.06c2.09,10.87,4,21.78,5.75,32.71l-2.93.61-6.43-32.58Z" transform="translate(-20.92 -102)"/><path class="af" d="M254.9,303.62a1.2,1.2,0,0,0,.85-.71c.15-.33.61-1.64.35-4.73-.15-1.8-1.5-7.08-3.4-14.34-.87-3.33-1.69-6.48-1.92-7.63-.46-2.35-1-9-1.18-11.86l8.94-1.85a1.42,1.42,0,0,0,1-1.72,1.39,1.39,0,0,0-1.56-1.2l-11.13,2.31.08,1.27c0,.43.7,10.36,1.33,13.57.25,1.26,1,4.31,2,7.84,1.34,5.11,3.17,12.11,3.3,13.76a8.73,8.73,0,0,1-.11,3.19,1.66,1.66,0,0,0,.66,2A1.21,1.21,0,0,0,254.9,303.62Z" transform="translate(-20.92 -102)"/><path class="ak" d="M300.44,304v5.19h-2v38.7c0,4.2-3.15,7.76-7.55,9.17v1.5H265.28V357c-4.4-1.41-7.55-5-7.55-9.17v-38.7h-2V304ZM260.9,330v3.25l3.17-3.25-3.17-3.25Zm0,16.24v1.61a5.19,5.19,0,0,0,.21,1.42l3-3L260.9,343Zm5.41-34.77.68-.69h-1.35Zm-5.41,10.69,5.41,5.55,5.69-5.83-5.69-5.82-5.41,5.55Zm0,16.24,5.41,5.54,5.69-5.82-5.69-5.82-5.41,5.54Zm34.37,8.37v-1.06l-5.17-5.29-5.69,5.82,5.69,5.82Zm-2.41-36h-5.53l-2.92,3,5.69,5.82,5.17-5.29v-1.06Zm-10.69.69.68-.69h-1.36Zm-5.61,43h10.25a9.12,9.12,0,0,0,1-.09l-5.68-5.81-5.69,5.82Zm5.61-22.13-5.69,5.82,5.69,5.82,5.68-5.82Zm7.93,3.52,5.17-5.29v-1.06l-5.17-5.29L284.41,330Zm-2.25-13.94-5.68-5.82-5.69,5.82,5.69,5.83Zm7.42-3-2.93,3,2.93,3Zm0,16.23-2.93,3,2.93,3Zm-15.34,11.12-5.69-5.82-5.68,5.82,5.68,5.82Zm-5.69-10.42,5.69-5.82-5.69-5.82L268.56,330Zm0-16.23,5.69-5.82-2.92-3h-5.53l-2.92,3Zm-4.88,34.84h2.57l.07-.08-5.69-5.82-3.42,3.51A9.5,9.5,0,0,0,269.36,354.44ZM260.9,317l3.17-3.25-2.92-3h-.25V317Z" transform="translate(-20.92 -102)"/><path class="al" d="M347.37,298.41v-9.8H291.29V359h56.08V346.61c12.9,0,23.37-10.79,23.37-24.11S360.27,298.41,347.37,298.41Zm0,39.57V307a15.48,15.48,0,0,1,0,30.94Z" transform="translate(-20.92 -102)"/><path class="am" d="M347.37,298.41v-9.8h-19V359h19V346.61c12.9,0,23.36-10.79,23.36-24.11S360.27,298.41,347.37,298.41Zm0,39.57V307a15.48,15.48,0,0,1,0,30.94Z" transform="translate(-20.92 -102)"/><path class="f" d="M295.21,306.48v17.27a1.09,1.09,0,0,0,1.07,1.11h16.38a1.09,1.09,0,0,0,1.08-1.11V306.48a1.15,1.15,0,0,0-.3-.77l-.06-.06-6.86-7.25h-4.1l-6.86,7.25-.05.06A1.11,1.11,0,0,0,295.21,306.48Z" transform="translate(-20.92 -102)"/><path class="an" d="M297.26,321.3a1.09,1.09,0,0,0,1.08,1.11h11.88a1.1,1.1,0,0,0,1.08-1.11V308.77a1.1,1.1,0,0,0-1.08-1.11H298.34a1.09,1.09,0,0,0-1.08,1.11Z" transform="translate(-20.92 -102)"/><rect class="ao" x="270.37" y="186.61" width="56.08" height="2.38"/><path class="e" d="M305.63,298.86c-.64-1.46-2.58-5.74,1.78-4.83a15.15,15.15,0,0,0,3.89.65,3.26,3.26,0,0,0,3.24-2.6c.48-3.86-4.46-5.57-7.21-4.34-1.42.63-.14,1.6.93,1.12,1.54-.68,3.12.88,3.76,2.22,1.3,2.73-1.7,2-3.28,1.57a5.15,5.15,0,0,0-5.13,1.19c-1.74,1.84-1.16,3.5-.21,5.64.4.89,2.59.2,2.23-.62Z" transform="translate(-20.92 -102)"/><g class="ap"><path class="aq" d="M333.76,263.14c-3.33,7.82-25.87,7.08-24.13,17.21-3.47-3.06-3.17-6.81-2.64-8.07,1.54-3.58,7.13-5,10.2-6.35,4.44-2,9.24-3.39,8.86-9.54-.48-5-4.42-10.08-8.78-12.71a22.73,22.73,0,0,1,12.88,6C333.42,252.67,336,257.93,333.76,263.14Z" transform="translate(-20.92 -102)"/></g><g class="ap"><path class="aq" d="M331.45,277.94c-2.48,1-10.71,4-12.75,7.87-1.92-1.14-3.61-2.65-3.61-4.5,0-4,5.2-5.16,7.89-5.95,6.23-2.15,13.23-4,14.73-10.94C338.76,270.65,338.88,275,331.45,277.94Z" transform="translate(-20.92 -102)"/></g><rect class="ar" x="118.98" y="133" width="61.1" height="127.26" rx="6.84"/><rect class="as" x="118.98" y="144.43" width="61.1" height="104.4"/><path class="as" d="M176.5,241.1H162.88a.66.66,0,0,1-.66-.67h0a.66.66,0,0,1,.66-.67H176.5a.66.66,0,0,1,.66.67h0A.66.66,0,0,1,176.5,241.1Z" transform="translate(-20.92 -102)"/><rect class="at" x="142.89" y="253.67" width="13.28" height="1.37" rx="0.67"/><path class="au" d="M182.13,240.25a1.39,1.39,0,1,1-2.78,0,1.36,1.36,0,0,1,.41-1,1.38,1.38,0,0,1,2,0A1.36,1.36,0,0,1,182.13,240.25Z" transform="translate(-20.92 -102)"/><path class="av" d="M179.76,239.26a1.38,1.38,0,0,1,2,0l0,0a1.23,1.23,0,0,1,.33.72,1.27,1.27,0,0,1,0,.2,1.37,1.37,0,0,1-.42,1l-.07.07a1.46,1.46,0,0,1-.9.35,1.21,1.21,0,0,1-.42,0,1.42,1.42,0,0,1-.44-.23l0,0a.19.19,0,0,1-.07-.06,1.44,1.44,0,0,1-.39-1A1.41,1.41,0,0,1,179.76,239.26Z" transform="translate(-20.92 -102)"/><path class="aw" d="M179.76,239.26a1.39,1.39,0,0,1,1-.41,1.43,1.43,0,0,1,1,.41v0a1.11,1.11,0,0,1,.29.68v.19a1.46,1.46,0,0,1-.44.92l-.07.07a1.54,1.54,0,0,1-.88.36,1.33,1.33,0,0,1-.4,0,1.22,1.22,0,0,1-.43-.2h0l-.06-.06a1.32,1.32,0,0,1-.27-.42,1.34,1.34,0,0,1-.1-.57A1.33,1.33,0,0,1,179.76,239.26Z" transform="translate(-20.92 -102)"/><path class="ax" d="M179.76,239.26a1.39,1.39,0,0,1,1-.41,1.42,1.42,0,0,1,1,.41v0a1,1,0,0,1,.25.64c0,.05,0,.12,0,.18a1.48,1.48,0,0,1-.46.89l-.07.06a1.4,1.4,0,0,1-.85.37,1,1,0,0,1-.39,0,1.13,1.13,0,0,1-.42-.17h0l-.07-.05a1.64,1.64,0,0,1-.26-.42,1.79,1.79,0,0,1-.09-.57A1.34,1.34,0,0,1,179.76,239.26Z" transform="translate(-20.92 -102)"/><path class="ay" d="M179.76,239.26a1.39,1.39,0,0,1,1-.41,1.37,1.37,0,0,1,1,.42h0a.83.83,0,0,1,.2.59,1.09,1.09,0,0,1,0,.18,1.6,1.6,0,0,1-.47.86l-.07.06a1.66,1.66,0,0,1-.84.38,1.2,1.2,0,0,1-.38,0,1.06,1.06,0,0,1-.4-.14h0l-.06,0a1.43,1.43,0,0,1-.25-.43,1.36,1.36,0,0,1-.08-.57A1.33,1.33,0,0,1,179.76,239.26Z" transform="translate(-20.92 -102)"/><path class="az" d="M179.76,239.26a1.39,1.39,0,0,1,1-.41,1.37,1.37,0,0,1,1,.42h0a.8.8,0,0,1,.16.55c0,.06,0,.11,0,.17a1.66,1.66,0,0,1-.49.83l-.07.06a1.69,1.69,0,0,1-.82.39,1.47,1.47,0,0,1-.36,0,1.06,1.06,0,0,1-.38-.12h0l-.05,0a1.43,1.43,0,0,1-.25-.43,1.54,1.54,0,0,1-.07-.57A1.32,1.32,0,0,1,179.76,239.26Z" transform="translate(-20.92 -102)"/><path class="ba" d="M179.76,239.26a1.39,1.39,0,0,1,1-.41,1.37,1.37,0,0,1,1,.42h0a.69.69,0,0,1,.12.51,1.24,1.24,0,0,1,0,.16,1.64,1.64,0,0,1-.5.8l-.07.06a1.78,1.78,0,0,1-.79.39,1.54,1.54,0,0,1-.36,0,1,1,0,0,1-.36-.09h0l-.06,0a1.27,1.27,0,0,1-.23-.43,1.33,1.33,0,0,1-.06-.56A1.31,1.31,0,0,1,179.76,239.26Z" transform="translate(-20.92 -102)"/><path class="bb" d="M179.76,239.26a1.39,1.39,0,0,1,1-.41,1.37,1.37,0,0,1,1,.42h0a.59.59,0,0,1,.07.47.83.83,0,0,1,0,.15,1.76,1.76,0,0,1-.51.76l-.07.06a2,2,0,0,1-.78.41,1.42,1.42,0,0,1-.34,0,1,1,0,0,1-.35-.06h0l-.05,0a1.37,1.37,0,0,1-.23-.43,1.54,1.54,0,0,1-.05-.57A1.29,1.29,0,0,1,179.76,239.26Z" transform="translate(-20.92 -102)"/><path class="bc" d="M179.76,239.26a1.39,1.39,0,0,1,1-.41,1.37,1.37,0,0,1,1,.42h0a.54.54,0,0,1,0,.43,1.21,1.21,0,0,1-.05.14,2.09,2.09,0,0,1-.53.73l-.07.06a2,2,0,0,1-.76.41,1,1,0,0,1-.32.06.92.92,0,0,1-.34,0h0l-.05,0a1.38,1.38,0,0,1-.21-.44,1.5,1.5,0,0,1,0-.56A1.3,1.3,0,0,1,179.76,239.26Z" transform="translate(-20.92 -102)"/><path class="bd" d="M179.76,239.26a1.39,1.39,0,0,1,1-.41,1.37,1.37,0,0,1,1,.42h0a.45.45,0,0,1,0,.39,1.12,1.12,0,0,1-.05.13,2.21,2.21,0,0,1-.55.7l-.06.06a2.66,2.66,0,0,1-.75.42,1.25,1.25,0,0,1-.31.07.8.8,0,0,1-.31,0h-.06a1.63,1.63,0,0,1-.21-.44,1.5,1.5,0,0,1,0-.56A1.3,1.3,0,0,1,179.76,239.26Z" transform="translate(-20.92 -102)"/><path class="be" d="M179.76,239.26a1.39,1.39,0,0,1,1-.41,1.37,1.37,0,0,1,1,.42h0a.45.45,0,0,1-.06.35l-.06.12a2.59,2.59,0,0,1-.56.67l-.07.05a2.58,2.58,0,0,1-.72.44l-.3.09a1.1,1.1,0,0,1-.3,0h0a1.51,1.51,0,0,1-.2-.45,1.32,1.32,0,0,1,0-.56A1.24,1.24,0,0,1,179.76,239.26Z" transform="translate(-20.92 -102)"/><path class="bf" d="M179.76,239.26a1.39,1.39,0,0,1,1-.41,1.41,1.41,0,0,1,1,.42h0a.5.5,0,0,1-.1.31l-.07.11a3.36,3.36,0,0,1-.58.64l-.07,0a2.92,2.92,0,0,1-.7.44,2.12,2.12,0,0,1-.29.11,1.11,1.11,0,0,1-.28.05h-.05a1.34,1.34,0,0,1-.19-.44,1.51,1.51,0,0,1,0-.56A1.24,1.24,0,0,1,179.76,239.26Z" transform="translate(-20.92 -102)"/><path class="bg" d="M179.76,239.26a1.39,1.39,0,0,1,1-.41,1.41,1.41,0,0,1,1,.42h0a.6.6,0,0,1-.15.27.86.86,0,0,0-.07.1,3.77,3.77,0,0,1-.6.6l-.06.06a3.54,3.54,0,0,1-.69.45l-.27.12a1.23,1.23,0,0,1-.26.08h0a1.12,1.12,0,0,1-.18-.45,1.5,1.5,0,0,1,0-.56A1.31,1.31,0,0,1,179.76,239.26Z" transform="translate(-20.92 -102)"/><path class="bh" d="M179.76,239.26a1.39,1.39,0,0,1,1-.41,1.38,1.38,0,0,1,1,.43h0a1.45,1.45,0,0,1-.18.23.36.36,0,0,0-.08.09,7,7,0,0,1-.61.57l-.07.06a6.68,6.68,0,0,1-.67.46l-.25.13a1.6,1.6,0,0,1-.25.11h-.05a1.44,1.44,0,0,1-.17-.45,1.75,1.75,0,0,1,0-.56A1.24,1.24,0,0,1,179.76,239.26Z" transform="translate(-20.92 -102)"/><path class="bi" d="M179.76,239.26a1.39,1.39,0,0,1,1-.41,1.36,1.36,0,0,1,1,.43h0l-.22.18-.1.09c-.17.16-.39.35-.62.54l-.07,0a6.52,6.52,0,0,1-.64.47l-.25.15-.23.14h0l0,0a1.2,1.2,0,0,1-.16-.46,1.69,1.69,0,0,1,0-.55A1.37,1.37,0,0,1,179.76,239.26Z" transform="translate(-20.92 -102)"/><path class="bj" d="M179.76,239.26a1.38,1.38,0,0,1,2,0h0s-.13,0-.27.13l-.1.08-.64.51-.06.05c-.21.17-.43.34-.63.48l-.23.17-.22.16h0l0,0a1.26,1.26,0,0,1-.16-.46,1.51,1.51,0,0,1,0-.56A1.26,1.26,0,0,1,179.76,239.26Z" transform="translate(-20.92 -102)"/><path class="bk" d="M179.76,239.26a1.38,1.38,0,0,1,2,0h0c-.06,0-.16,0-.31.09l-.11.07c-.19.13-.42.3-.65.48l-.07,0-.61.48-.22.19-.19.19h0l0,0a1.37,1.37,0,0,1-.14-.46,1.46,1.46,0,0,1,0-.55A1.32,1.32,0,0,1,179.76,239.26Z" transform="translate(-20.92 -102)"/><path class="bl" d="M179.76,239.26a1.38,1.38,0,0,1,2,0h0a.48.48,0,0,0-.35.05l-.12.06a4.62,4.62,0,0,0-.67.45l-.06,0c-.21.17-.42.34-.59.5l-.21.2a1.21,1.21,0,0,0-.18.23h0l0,0a1.35,1.35,0,0,1-.09-1A1.28,1.28,0,0,1,179.76,239.26Z" transform="translate(-20.92 -102)"/><path class="bm" d="M179.76,239.26a1.38,1.38,0,0,1,2,0h0a.55.55,0,0,0-.4,0l-.12,0a3.38,3.38,0,0,0-.69.41l-.06.05a4.7,4.7,0,0,0-.57.51,1.8,1.8,0,0,0-.19.21,1.28,1.28,0,0,0-.17.26h0l0,0a1.71,1.71,0,0,1-.13-.47,1.69,1.69,0,0,1,.06-.55A1.23,1.23,0,0,1,179.76,239.26Z" transform="translate(-20.92 -102)"/><path class="bn" d="M179.76,239.26a1.38,1.38,0,0,1,2,0h0a.63.63,0,0,0-.44,0l-.13,0a2.53,2.53,0,0,0-.7.38l-.07,0a3.82,3.82,0,0,0-.55.51l-.18.23a2,2,0,0,0-.15.29h0s0,0,0,0a1.26,1.26,0,0,1-.12-.47,1.44,1.44,0,0,1,.07-.55A1.3,1.3,0,0,1,179.76,239.26Z" transform="translate(-20.92 -102)"/><path class="bo" d="M179.76,239.26a1.39,1.39,0,0,1,1-.41,1.42,1.42,0,0,1,1,.43h0a.73.73,0,0,0-.48-.07.58.58,0,0,0-.14,0,2.18,2.18,0,0,0-.72.35l-.06.05a3,3,0,0,0-.54.52,1.32,1.32,0,0,0-.16.25,1.2,1.2,0,0,0-.13.31h0s0,0,0,.06a1.31,1.31,0,0,1-.12-.48,1.61,1.61,0,0,1,.08-.54A1.27,1.27,0,0,1,179.76,239.26Z" transform="translate(-20.92 -102)"/><path class="bp" d="M179.76,239.26a1.38,1.38,0,0,1,2,0h0a.82.82,0,0,0-.53-.11l-.14,0a1.94,1.94,0,0,0-.74.32l-.06,0a2.33,2.33,0,0,0-.51.53c-.06.09-.11.18-.16.27a1.35,1.35,0,0,0-.11.34h0s0,0,0,.06a1.2,1.2,0,0,1-.1-.47,1.45,1.45,0,0,1,.09-.55A1.28,1.28,0,0,1,179.76,239.26Z" transform="translate(-20.92 -102)"/><path class="bq" d="M179.76,239.26a1.38,1.38,0,0,1,2,0h0a1,1,0,0,0-.57-.15H181a1.57,1.57,0,0,0-.75.29l-.07,0a2.11,2.11,0,0,0-.49.54,1.47,1.47,0,0,0-.14.28,1.56,1.56,0,0,0-.1.37h0s0,0,0,.07a1.52,1.52,0,0,1-.1-.48,1.62,1.62,0,0,1,.1-.54A1.25,1.25,0,0,1,179.76,239.26Z" transform="translate(-20.92 -102)"/><path class="br" d="M179.44,240.66v0a1.79,1.79,0,0,1,.09-.4,1.66,1.66,0,0,1,.6-.84,1.49,1.49,0,0,1,1-.3,1.22,1.22,0,0,1,.61.19h0a1.38,1.38,0,0,0-2,0,1.43,1.43,0,0,0-.3.44,1.46,1.46,0,0,0-.11.55,1.28,1.28,0,0,0,.09.48Z" transform="translate(-20.92 -102)"/><circle class="bs" cx="159.83" cy="138.24" r="0.57"/><circle class="bt" cx="159.83" cy="138.24" r="0.56"/><circle class="bu" cx="159.84" cy="138.24" r="0.55"/><circle class="bv" cx="159.84" cy="138.24" r="0.54"/><circle class="bw" cx="159.84" cy="138.23" r="0.52"/><path class="bx" d="M181.26,240.23a.51.51,0,0,1-.51.52.52.52,0,0,1,0-1A.51.51,0,0,1,181.26,240.23Z" transform="translate(-20.92 -102)"/><path class="by" d="M181.25,240.23a.5.5,0,1,1-.5-.5A.5.5,0,0,1,181.25,240.23Z" transform="translate(-20.92 -102)"/><path class="bz" d="M181.24,240.23a.49.49,0,1,1-1,0,.49.49,0,0,1,1,0Z" transform="translate(-20.92 -102)"/><path class="ca" d="M181.23,240.23a.48.48,0,0,1-.47.48.49.49,0,0,1-.48-.48.48.48,0,0,1,.48-.47A.47.47,0,0,1,181.23,240.23Z" transform="translate(-20.92 -102)"/><path class="cb" d="M181.22,240.23a.46.46,0,0,1-.46.46.45.45,0,0,1-.46-.46.46.46,0,0,1,.46-.46A.47.47,0,0,1,181.22,240.23Z" transform="translate(-20.92 -102)"/><path class="cc" d="M181.2,240.23a.45.45,0,1,1-.44-.45A.45.45,0,0,1,181.2,240.23Z" transform="translate(-20.92 -102)"/><path class="e" d="M161.72,272.1c-.27-.32-.49-.24-.49.18v44c0,.42.22.49.48.17l5.35-6.61a2.43,2.43,0,0,0,.48-1.35v-28.6a2.44,2.44,0,0,0-.49-1.34Z" transform="translate(-20.92 -102)"/><path class="e" d="M182.14,282.29a1.17,1.17,0,0,0-.59-1.1l-19.91-9.85c-.38-.19-.47-.08-.2.25l8.7,10.48a4.18,4.18,0,0,0,1.17.92l9.42,4.67c.37.18.68.33.69.32s.05-.36.1-.78Z" transform="translate(-20.92 -102)"/><path class="g" d="M183,281.11a.42.42,0,0,0-.67-.4l-27.7,15.06a.42.42,0,0,0,0,.78l4.95,3.29a1.36,1.36,0,0,0,1.3.06l21.49-11.7a1.4,1.4,0,0,0,.67-1.12Z" transform="translate(-20.92 -102)"/></g></svg>