<svg xmlns="http://www.w3.org/2000/svg" width="349.82" height="256.97" viewBox="0 0 349.82 256.97"><defs><style>.a{isolation:isolate;}.b{fill:#221f1f;}.c{fill:#bbbdbf;}.d{fill:#e6e6e7;}.e{fill:#fff;}.f{fill:#363f44;}.g{fill:#31c4f3;}.h{fill:#323844;}.i{fill:#68778e;}.j{fill:#1fa2ff;}.k{fill:#f2f5f7;}.l{fill:#fff4d7;}.m{fill:#ffedb3;}.n{fill:#e0e0e0;}.o{fill:#ffe59c;}.p{fill:#ffd878;}.q{fill:#969ba5;}.r{fill:#6c7482;}.s{fill:#d98d8d;}.t{fill:#f8d041;}.u{fill:#f69512;}.v{fill:#fadd74;}.w{fill:#f7a22e;}.x{fill:#7d8390;}.y{fill:#434c5e;}.z{fill:#1d283e;}.aa{fill:#f98a8a;}.ab{fill:#e05858;}.ac{fill:#e2a7a7;}.ad{fill:#ff5c50;}.ae{fill:#f72616;}.af{fill:#35ddf2;}.ag{fill:#ff8a41;}.ah{fill:#f27729;}.ai{fill:#f2a416;}.aj{fill:#ffc021;}.ak{fill:#2e384c;}.al{fill:#d62b09;}.am{fill:#ccc;opacity:0.45;mix-blend-mode:multiply;}.an{fill:#ffa600;}.ao{fill:#f2531f;}.ap{fill:#e5e5e5;}.aq{opacity:0.74;}.ar{fill:#f2f2f2;}</style></defs><title>BannerHome</title><g class="a"><path class="b" d="M653.4,569.44V428a12,12,0,0,0-11.76-12.2H445.31A12,12,0,0,0,433.55,428V569.44Z" transform="translate(-409.92 -329)"/><path class="c" d="M670.93,577.77H416c-5.29,0-6.1-7.26-6.1-7.26H677S676.22,577.77,670.93,577.77Z" transform="translate(-409.92 -329)"/><rect class="d" y="238.67" width="267.12" height="4.07"/><rect class="e" x="32.23" y="98.34" width="202.65" height="132.84"/><rect class="c" x="107.79" y="238.67" width="51.55" height="2.31"/><path class="f" d="M482,453.92c-.5-.58-.91-.43-.91.34v79.45c0,.77.4.92.9.33l10-11.94a4.51,4.51,0,0,0,.9-2.47V468a4.33,4.33,0,0,0-.92-2.46Z" transform="translate(-409.92 -329)"/><path class="f" d="M520.2,472.36a2.06,2.06,0,0,0-1.08-2l-37.28-17.84c-.7-.33-.85-.13-.35.46l16.27,18.95a7.82,7.82,0,0,0,2.17,1.67l17.66,8.45a11.27,11.27,0,0,0,1.28.56s.1-.66.2-1.42Z" transform="translate(-409.92 -329)"/><path class="g" d="M521.82,470.23a.78.78,0,0,0-1.24-.75l-51.86,27.24a.75.75,0,0,0-.06,1.41l9.27,6a2.65,2.65,0,0,0,2.42.11L520.59,483a2.55,2.55,0,0,0,1.23-2Z" transform="translate(-409.92 -329)"/><rect class="h" x="130.37" width="187.17" height="252.79"/><polygon class="i" points="241.5 0 208.47 0 195.4 12.58 227.53 12.58 241.5 0"/><polygon class="i" points="269.48 0 252.97 0 239.07 12.58 254.69 12.58 269.48 0"/><polygon class="i" points="130.37 100.17 130.37 75.28 147.06 60.65 147.06 84.1 130.37 100.17"/><polygon class="i" points="130.37 111.68 130.37 127.08 138.71 119.05 138.71 103.64 130.37 111.68"/><polygon class="j" points="212.09 0 130.37 78.69 130.37 0.12 212.09 0"/><polygon class="i" points="192.08 0 130.37 59.41 130.37 0 192.08 0"/><polygon class="h" points="130.37 59.41 130.37 0 147.06 13.88 147.06 43.34 130.37 59.41"/><polygon class="j" points="147.06 13.88 161.57 0 130.37 0 147.06 13.88"/><polygon class="j" points="255.53 0 239.02 0 218.45 18.44 234.06 18.44 255.53 0"/><polygon class="i" points="168.02 252.79 212.46 252.79 230.04 235.87 186.81 235.87 168.02 252.79"/><polygon class="i" points="130.37 252.79 152.59 252.79 171.28 235.87 150.27 235.87 130.37 252.79"/><polygon class="i" points="317.54 118.02 317.54 151.51 295.08 171.18 295.08 139.64 317.54 118.02"/><polygon class="i" points="317.54 102.53 317.54 81.81 306.31 92.62 306.31 113.34 317.54 102.53"/><polygon class="j" points="207.61 252.79 317.54 146.92 317.39 252.79 207.61 252.79"/><polygon class="i" points="234.51 252.79 317.54 172.85 317.54 252.79 234.51 252.79"/><polygon class="h" points="317.54 172.85 317.54 252.79 295.08 234.11 295.08 194.47 317.54 172.85"/><polygon class="k" points="295.08 234.11 275.38 252.79 317.54 252.79 295.08 234.11"/><polygon class="j" points="149.13 252.79 171.35 252.79 199.03 227.97 178.02 227.97 149.13 252.79"/><path class="e" d="M621.48,402.78c-.5-.58-.91-.43-.91.34v79.45c0,.77.4.92.9.33l10-11.94a4.51,4.51,0,0,0,.9-2.47V416.82a4.4,4.4,0,0,0-.92-2.46Z" transform="translate(-409.92 -329)"/><path class="e" d="M659.68,421.22a2.07,2.07,0,0,0-1.08-2l-37.29-17.84c-.69-.33-.85-.13-.35.46l16.27,19a7.88,7.88,0,0,0,2.18,1.66l17.65,8.45a13.91,13.91,0,0,0,1.28.57s.1-.67.2-1.43Z" transform="translate(-409.92 -329)"/><path class="g" d="M661.3,419.09a.78.78,0,0,0-1.24-.75L608.2,445.59a.74.74,0,0,0-.07,1.4l9.28,6a2.65,2.65,0,0,0,2.42.11l40.23-21.17a2.56,2.56,0,0,0,1.24-2.05Z" transform="translate(-409.92 -329)"/><polygon class="l" points="263.96 243.43 263.9 243.57 260.49 251.32 260.38 251.29 262.27 243.48 263.96 243.43"/><polygon class="m" points="260.49 251.32 263.9 243.57 265.51 243.06 260.52 251.42 260.54 251.33 260.49 251.32"/><polygon class="n" points="263.96 243.43 265.51 243.06 263.9 243.57 263.96 243.43"/><polygon class="o" points="260.87 242.64 262.26 243.47 260.37 251.29 260.27 251.26 260.86 242.86 260.87 242.64"/><polygon class="n" points="262.26 243.47 262.27 243.48 262.11 244.15 260.38 251.29 260.37 251.29 262.1 244.14 262.26 243.47"/><polygon class="p" points="260.27 251.26 260.21 251.25 260.18 251.24 259.58 241.56 260.86 242.86 260.27 251.26"/><polygon class="n" points="260.86 242.86 259.58 241.56 260.87 242.64 260.86 242.86"/><polygon class="q" points="270.74 221.51 270.74 221.51 270.52 222.38 270.52 222.38 270.74 221.51"/><polygon class="r" points="271.02 220.34 271.02 220.34 270.74 221.51 270.74 221.51 271.02 220.34"/><polygon class="s" points="271.43 218.65 271.02 220.34 271.02 220.34 271.43 218.65"/><path class="t" d="M691.89,498.15c.86.06,1.48-.08,1.55-.39l-12.1,49.89-.41,1.69-.28,1.17-.21.87h0l-5,20.68-1.54.37Z" transform="translate(-409.92 -329)"/><path class="u" d="M687.61,496.28c-.08.31.4.72,1.19,1.09l-18,74.27-1.29-1.09,18.6-76.31-.28,1.16Z" transform="translate(-409.92 -329)"/><path class="v" d="M690.27,497.88h0a9.35,9.35,0,0,0,1.59.26l-18,74.28-1.69.05Z" transform="translate(-409.92 -329)"/><path class="w" d="M672.19,572.48h0l-1.39-.83,18-74.27a9,9,0,0,0,1.47.51h0Z" transform="translate(-409.92 -329)"/><path class="q" d="M691.89,498.15a9.35,9.35,0,0,1-1.59-.26h0l.21-.87h0a10.92,10.92,0,0,0,1.26.23c1,.11,1.8,0,1.89-.36l-.22.87C693.37,498.07,692.75,498.21,691.89,498.15Z" transform="translate(-409.92 -329)"/><path class="x" d="M688.8,497.37c-.79-.37-1.27-.78-1.19-1.09l.21-.88c-.08.32.4.73,1.19,1.09a9,9,0,0,0,1.47.52l-.21.87A9,9,0,0,1,688.8,497.37Z" transform="translate(-409.92 -329)"/><polygon class="y" points="280.57 168.01 280.36 168.88 280.35 168.88 280.57 168.01"/><path class="z" d="M690.76,495.84l-.28,1.17a9,9,0,0,1-1.47-.52c-.79-.36-1.27-.77-1.19-1.09l.28-1.16C688,494.72,689.17,495.43,690.76,495.84Z" transform="translate(-409.92 -329)"/><path class="r" d="M691.77,497.25a10.92,10.92,0,0,1-1.26-.23h0l.28-1.17h0c1.62.41,3,.35,3.15-.13l-.28,1.17C693.57,497.24,692.8,497.36,691.77,497.25Z" transform="translate(-409.92 -329)"/><path class="aa" d="M690.79,495.85h0l1-4h0c1.61.41,3,.35,3.14-.13l-1,4C693.82,496.2,692.41,496.26,690.79,495.85Z" transform="translate(-409.92 -329)"/><path class="ab" d="M691.73,491.87l-1,4c-1.59-.41-2.78-1.12-2.66-1.6l1-4C689,490.74,690.13,491.46,691.73,491.87Z" transform="translate(-409.92 -329)"/><path class="ac" d="M691.76,491.88h0l.42-1.75h0c1.61.41,2.84,1.13,2.72,1.62S693.37,492.29,691.76,491.88Z" transform="translate(-409.92 -329)"/><path class="s" d="M689.06,490.26c.12-.48,1.49-.54,3.09-.14l-.42,1.75C690.13,491.46,689,490.74,689.06,490.26Z" transform="translate(-409.92 -329)"/><path class="ad" d="M670.13,580.24l.06,0,.1,0h0l.11,0h.06l0,.09-.37,1.54c-.08.32-.3.55-.48.5Z" transform="translate(-409.92 -329)"/><path class="ae" d="M669.4,581.79l.4-1.63.3.08h0l-.54,2.22h0C669.4,582.42,669.32,582.12,669.4,581.79Z" transform="translate(-409.92 -329)"/><polygon class="af" points="252.54 251.57 252.22 234.78 246.47 235.97 252.54 251.57"/><path class="ag" d="M644.32,488.65l2.93-.61q5.09,21.39,9.19,43l-3.61.74Z" transform="translate(-409.92 -329)"/><path class="ah" d="M641.38,489.25l2.94-.6,8.51,43.15-3.61.75Q644.84,511,641.38,489.25Z" transform="translate(-409.92 -329)"/><path class="ai" d="M659.26,564.38l-2.93.61q-3.84-16.15-7.11-32.44l3.61-.75Z" transform="translate(-409.92 -329)"/><path class="aj" d="M656.44,531.06c2.09,10.87,4,21.78,5.75,32.71l-2.93.61-6.43-32.58Z" transform="translate(-409.92 -329)"/><path class="af" d="M643.9,530.62a1.2,1.2,0,0,0,.85-.71c.15-.33.61-1.64.35-4.73-.15-1.8-1.5-7.08-3.4-14.34-.87-3.33-1.69-6.48-1.92-7.63-.46-2.35-1-9-1.18-11.86l8.94-1.85a1.42,1.42,0,0,0,1-1.72,1.39,1.39,0,0,0-1.56-1.2l-11.13,2.31.08,1.27c0,.43.7,10.36,1.33,13.57.25,1.26,1,4.31,2,7.84,1.34,5.11,3.17,12.11,3.3,13.76a8.73,8.73,0,0,1-.11,3.19,1.66,1.66,0,0,0,.66,2A1.21,1.21,0,0,0,643.9,530.62Z" transform="translate(-409.92 -329)"/><path class="ak" d="M689.44,531v5.19h-2v38.7c0,4.2-3.15,7.76-7.55,9.17v1.5H654.28V584c-4.4-1.41-7.55-5-7.55-9.17v-38.7h-2V531ZM649.9,557v3.25l3.17-3.25-3.17-3.25Zm0,16.24v1.61a5.19,5.19,0,0,0,.21,1.42l3-3L649.9,570Zm5.41-34.77.68-.69h-1.35Zm-5.41,10.69,5.41,5.55,5.69-5.83-5.69-5.82-5.41,5.55Zm0,16.24,5.41,5.54,5.69-5.82-5.69-5.82-5.41,5.54Zm34.37,8.37v-1.06l-5.17-5.29-5.69,5.82,5.69,5.82Zm-2.41-36h-5.53l-2.92,3,5.69,5.82,5.17-5.29v-1.06Zm-10.69.69.68-.69h-1.36Zm-5.61,43h10.25a9.12,9.12,0,0,0,1-.09l-5.68-5.81-5.69,5.82Zm5.61-22.13-5.69,5.82,5.69,5.82,5.68-5.82Zm7.93,3.52,5.17-5.29v-1.06l-5.17-5.29L673.41,557Zm-2.25-13.94-5.68-5.82-5.69,5.82,5.69,5.83Zm7.42-3-2.93,3,2.93,3Zm0,16.23-2.93,3,2.93,3Zm-15.34,11.12-5.69-5.82-5.68,5.82,5.68,5.82Zm-5.69-10.42,5.69-5.82-5.69-5.82L657.56,557Zm0-16.23,5.69-5.82-2.92-3h-5.53l-2.92,3Zm-4.88,34.84h2.57l.07-.08-5.69-5.82-3.42,3.51A9.5,9.5,0,0,0,658.36,581.44ZM649.9,544l3.17-3.25-2.92-3h-.25V544Z" transform="translate(-409.92 -329)"/><path class="al" d="M736.37,525.41v-9.8H680.29V586h56.08V573.61c12.9,0,23.37-10.79,23.37-24.11S749.27,525.41,736.37,525.41Zm0,39.57V534a15.48,15.48,0,0,1,0,30.94Z" transform="translate(-409.92 -329)"/><path class="am" d="M736.37,525.41v-9.8h-19V586h19V573.61c12.9,0,23.36-10.79,23.36-24.11S749.27,525.41,736.37,525.41Zm0,39.57V534a15.48,15.48,0,0,1,0,30.94Z" transform="translate(-409.92 -329)"/><path class="an" d="M684.21,533.48v17.27a1.09,1.09,0,0,0,1.07,1.11h16.38a1.09,1.09,0,0,0,1.08-1.11V533.48a1.15,1.15,0,0,0-.3-.77l-.06-.06-6.86-7.25h-4.1l-6.86,7.25,0,.06A1.11,1.11,0,0,0,684.21,533.48Z" transform="translate(-409.92 -329)"/><path class="ao" d="M686.26,548.3a1.09,1.09,0,0,0,1.08,1.11h11.88a1.1,1.1,0,0,0,1.08-1.11V535.77a1.1,1.1,0,0,0-1.08-1.11H687.34a1.09,1.09,0,0,0-1.08,1.11Z" transform="translate(-409.92 -329)"/><rect class="ap" x="270.37" y="186.61" width="56.08" height="2.38"/><path class="e" d="M694.63,525.86c-.64-1.46-2.58-5.74,1.78-4.83a15.15,15.15,0,0,0,3.89.65,3.26,3.26,0,0,0,3.24-2.6c.48-3.86-4.46-5.57-7.21-4.34-1.42.63-.14,1.6.93,1.12,1.54-.68,3.12.88,3.76,2.22,1.3,2.73-1.7,2-3.28,1.57a5.15,5.15,0,0,0-5.13,1.19c-1.74,1.84-1.16,3.5-.21,5.64.4.89,2.59.2,2.23-.62Z" transform="translate(-409.92 -329)"/><g class="aq"><path class="ar" d="M722.76,490.14c-3.33,7.82-25.87,7.08-24.13,17.21-3.47-3.06-3.17-6.81-2.64-8.07,1.54-3.58,7.13-5,10.2-6.35,4.44-2,9.24-3.39,8.86-9.54-.48-5-4.42-10.08-8.78-12.71a22.73,22.73,0,0,1,12.88,6C722.42,479.67,725,484.93,722.76,490.14Z" transform="translate(-409.92 -329)"/></g><g class="aq"><path class="ar" d="M720.45,504.94c-2.48,1-10.71,4-12.75,7.87-1.92-1.14-3.61-2.65-3.61-4.5,0-4,5.2-5.16,7.89-5.95,6.23-2.15,13.23-4,14.73-10.94C727.76,497.65,727.88,502,720.45,504.94Z" transform="translate(-409.92 -329)"/></g></g></svg>