<svg id="Layer_1" data-name="Layer 1" xmlns="http://www.w3.org/2000/svg" width="100" height="100" viewBox="0 0 100 100"><title>biology</title><g id="Circle_Grid" data-name="Circle Grid"><circle cx="50" cy="50" r="50" style="fill:#69b0ee"/></g><g id="icon"><path d="M462,45.37l-2.62-.68L464,26.57A2.9,2.9,0,0,0,462,23h-.06l-4.13-1,.64-2.62,4.13,1a5.6,5.6,0,0,1,4.12,6.75l0,.1Z" transform="translate(-412 0)" style="fill:#eeefee"/><path d="M460.35,21.4c-.23,1.51-3.47,2.24-4.79,2a2.6,2.6,0,0,1-2-3.08A2.63,2.63,0,0,1,456.38,18C457.7,18.19,460.57,19.9,460.35,21.4Z" transform="translate(-412 0)" style="fill:#62667c"/><path d="M439.3,45.37l2.62-.68-4.66-18.12a2.89,2.89,0,0,1,2.06-3.52l.06,0,4.13-1-.63-2.63-4.14,1a5.59,5.59,0,0,0-4.12,6.74l0,.11Z" transform="translate(-412 0)" style="fill:#eeefee"/><path d="M440.94,21.4c.23,1.51,3.47,2.24,4.79,2a2.59,2.59,0,0,0,2-3.08A2.62,2.62,0,0,0,444.91,18C443.59,18.19,440.71,19.9,440.94,21.4Z" transform="translate(-412 0)" style="fill:#62667c"/><path d="M450.64,53.73a12.33,12.33,0,0,1-11.55-7.14A2,2,0,0,1,440.15,44a2.23,2.23,0,0,1,.44-.13l.11,0a2,2,0,0,1,2.16,1.22,8.87,8.87,0,0,0,15.56,0,2,2,0,0,1,2.16-1.21l.11,0a2,2,0,0,1,1.62,2.28,1.73,1.73,0,0,1-.12.43,12.33,12.33,0,0,1-11.55,7.14Z" transform="translate(-412 0)" style="fill:#575b6d"/><path d="M469.56,82h-5.95a15,15,0,0,1-15-15V52.38h4.05V67A11,11,0,0,0,463.61,78h5.95A11,11,0,0,0,480.51,67V42.75h4.05V67A15,15,0,0,1,469.56,82Z" transform="translate(-412 0)" style="fill:#575b6d"/><path d="M489.54,37.27a7,7,0,1,1-7-7h0A7,7,0,0,1,489.54,37.27Z" transform="translate(-412 0)" style="fill:#62667c"/><path d="M482.54,40.26a3,3,0,1,1,3-3h0A3,3,0,0,1,482.54,40.26Z" transform="translate(-412 0)" style="fill:#9a9eaf"/></g></svg>