<svg id="Layer_1" data-name="Layer 1" xmlns="http://www.w3.org/2000/svg" width="100" height="100" viewBox="0 0 100 100"><title>busstudies</title><g id="Circle_Grid" data-name="Circle Grid"><circle cx="50" cy="50" r="50" style="fill:#69b0ee"/></g><g id="icon"><path d="M451.45,31.59h-3.37V26.64a4.22,4.22,0,0,1,4.21-4.21h19.42a4.22,4.22,0,0,1,4.21,4.21v4.52h-3.37V26.64a.84.84,0,0,0-.84-.84H452.29a.84.84,0,0,0-.84.84Z" transform="translate(-412 0)" style="fill:#575b6d"/><path d="M446.28,29.8h7a.78.78,0,0,1,.78.78v2H445.5v-2a.78.78,0,0,1,.78-.78Z" transform="translate(-412 0)" style="fill:#eab54e"/><path d="M470.76,29.8h7a.78.78,0,0,1,.78.78v2H470v-2A.78.78,0,0,1,470.76,29.8Z" transform="translate(-412 0)" style="fill:#eab54e"/><path d="M492.4,34.56v38.2a1.68,1.68,0,0,1-1.68,1.68H433.28a1.68,1.68,0,0,1-1.68-1.68V34.56A2.52,2.52,0,0,1,434.12,32h55.76a2.52,2.52,0,0,1,2.52,2.52Z" transform="translate(-412 0)" style="fill:#575b6d"/><path d="M492.78,46.82,462,54.9l-30.78-8.08A1.69,1.69,0,0,1,430,45.19V33.72A1.68,1.68,0,0,1,431.65,32h60.7A1.68,1.68,0,0,1,494,33.72h0V45.19a1.69,1.69,0,0,1-1.25,1.63Z" transform="translate(-412 0)" style="fill:#575b6d"/><path d="M492.4,46.92v2l-30.4,8-30.4-8v-2l30.4,8Z" transform="translate(-412 0)" style="fill:#414451"/><rect x="45.87" y="49.85" width="8.26" height="11.06" rx="0.78" style="fill:#f6c863"/><path d="M464.45,51.54v7.69h-4.9V51.54Z" transform="translate(-412 0)" style="fill:#eab54e"/></g></svg>