<svg xmlns="http://www.w3.org/2000/svg" width="161" height="161" viewBox="0 0 161 161"><defs><style>.a{fill:#f4b04d;}</style></defs><title>C</title><path class="a" d="M202.7,201.4q-.94,8.11-6,12.53t-13.42,4.41a18,18,0,0,1-14.53-6.5q-5.47-6.51-5.47-17.4v-4.93A29.18,29.18,0,0,1,165.84,177a19,19,0,0,1,7.22-8.31,20.08,20.08,0,0,1,10.83-2.9q8.16,0,13.08,4.55t5.73,12.6h-6.78q-.88-6.14-3.82-8.88c-2-1.84-4.69-2.75-8.21-2.75a12.07,12.07,0,0,0-10.14,4.78q-3.67,4.78-3.67,13.62v5q0,8.34,3.48,13.27a11.24,11.24,0,0,0,9.73,4.92q5.63,0,8.63-2.55t4-8.87Z" transform="translate(-104 -113)"/><path class="a" d="M184.5,113A80.5,80.5,0,1,0,265,193.5,80.5,80.5,0,0,0,184.5,113Zm0,146A65.5,65.5,0,1,1,250,193.5,65.51,65.51,0,0,1,184.5,259Z" transform="translate(-104 -113)"/></svg>