<svg xmlns="http://www.w3.org/2000/svg" width="710" height="400" viewBox="0 0 710 400"><defs><style>.a{fill:#373f44;}.b{fill:#2a3136;}.c{fill:#4e9ad4;}</style></defs><title>cardBackground</title><rect class="a" width="710" height="400"/><rect class="b" x="9.86" y="374.49" width="690.28" height="21.55"/><rect class="c" x="9.86" y="387.31" width="690.28" height="8.73"/><polygon class="b" points="700.14 396.04 700.14 352.94 361.4 352.94 233.02 396.04 700.14 396.04"/><polygon class="c" points="239.54 352.94 111.15 396.04 233.02 396.04 361.4 352.94 239.54 352.94"/><rect class="b" x="9.86" y="3.96" width="690.28" height="17.82"/><rect class="c" x="9.86" y="3.96" width="690.28" height="7.22"/><polygon class="b" points="9.86 3.96 9.86 53.02 120.14 53.02 263.68 3.96 9.86 3.96"/><polygon class="c" points="220.87 53.02 364.42 3.96 263.68 3.96 120.14 53.02 220.87 53.02"/></svg>