<svg id="Layer_1" data-name="Layer 1" xmlns="http://www.w3.org/2000/svg" width="183.88" height="210.86" viewBox="0 0 183.88 210.86"><defs><style>.cls-1{fill:none;}.cls-2{fill:#f3f3f3;}.cls-3{fill:#ccc;}.cls-4{fill:#010101;}.cls-5{fill:#f1b14e;}.cls-6{fill:#c6933f;}.cls-7{fill:#fff;}.cls-8{fill:#231f20;}</style></defs><title>chemistry</title><rect class="cls-1" width="183.88" height="210.86"/><rect class="cls-2" x="75.51" y="46.88" width="99.6" height="136.41" rx="4"/><rect class="cls-3" x="86.03" y="132.01" width="69.03" height="4.01" rx="1.88"/><rect class="cls-3" x="85.38" y="91.16" width="69.03" height="4.01" rx="1.88"/><path class="cls-4" d="M106.74,68.57a3.05,3.05,0,0,1-.83,1.92,2.56,2.56,0,0,1-1.86.67,2.42,2.42,0,0,1-2-1,4.36,4.36,0,0,1-.75-2.67v-.75a4.85,4.85,0,0,1,.35-1.93,2.85,2.85,0,0,1,1-1.27,2.55,2.55,0,0,1,1.5-.44,2.44,2.44,0,0,1,1.81.69,3.13,3.13,0,0,1,.79,1.93h-.94a2.38,2.38,0,0,0-.53-1.36,1.5,1.5,0,0,0-1.13-.42,1.64,1.64,0,0,0-1.41.73,3.65,3.65,0,0,0-.51,2.09v.76a3.65,3.65,0,0,0,.49,2,1.52,1.52,0,0,0,1.34.76,1.7,1.7,0,0,0,1.2-.39,2.33,2.33,0,0,0,.55-1.36Z"/><path class="cls-4" d="M113.46,71.05h-.94V67.43H109v3.62H108V63.21H109v3.37h3.57V63.21h.94Z"/><path class="cls-4" d="M119.12,67.43h-3.07v2.78h3.57v.84h-4.5V63.21h4.45v.85h-3.52v2.52h3.07Z"/><path class="cls-4" d="M122,63.21l2.31,6.4,2.32-6.4h1.21v7.84h-.94V68l.09-3.29-2.32,6.34h-.72l-2.32-6.33.09,3.28v3h-.93V63.21Z"/><path class="cls-4" d="M130.48,71.05h-.93V63.21h.93Z"/><path class="cls-4" d="M134.27,67.56a4.37,4.37,0,0,1-1.75-.94,1.9,1.9,0,0,1-.54-1.38,2,2,0,0,1,.67-1.53,2.48,2.48,0,0,1,1.73-.6,2.67,2.67,0,0,1,1.31.31,2.21,2.21,0,0,1,.88.86,2.4,2.4,0,0,1,.32,1.2H136a1.53,1.53,0,0,0-.41-1.12,1.85,1.85,0,0,0-2.23-.07,1.17,1.17,0,0,0-.39.94,1,1,0,0,0,.37.81,3.37,3.37,0,0,0,1.25.6,5.68,5.68,0,0,1,1.38.61,2.25,2.25,0,0,1,.74.77,2.16,2.16,0,0,1,.24,1,1.9,1.9,0,0,1-.67,1.53,2.7,2.7,0,0,1-1.8.57,3,3,0,0,1-1.36-.31,2.3,2.3,0,0,1-1-.85,2.18,2.18,0,0,1-.35-1.22h.94a1.38,1.38,0,0,0,.48,1.12,1.83,1.83,0,0,0,1.26.42,1.69,1.69,0,0,0,1.14-.34,1.27,1.27,0,0,0,0-1.8A4,4,0,0,0,134.27,67.56Z"/><path class="cls-4" d="M143,64.06h-2.28v7h-.92v-7h-2.28v-.85H143Z"/><path class="cls-4" d="M146.64,67.88H145v3.17H144V63.21h2.34a2.6,2.6,0,0,1,1.84.61,2.58,2.58,0,0,1,.29,3,2.18,2.18,0,0,1-1,.81L149.18,71v.06h-1ZM145,67h1.43a1.57,1.57,0,0,0,1.11-.4,1.44,1.44,0,0,0,.41-1.07,1.51,1.51,0,0,0-.39-1.12,1.54,1.54,0,0,0-1.13-.39H145Z"/><path class="cls-4" d="M152.1,67.15,154,63.21H155l-2.44,4.92v2.92h-.93V68.13l-2.45-4.92h1.07Z"/><rect class="cls-3" x="84.76" y="111.96" width="69.03" height="4.01" rx="1.88"/><path class="cls-1" d="M70.38,159.93h0v32.63h.06A5.73,5.73,0,0,1,76,197.09H93.52a3.82,3.82,0,0,1,3.59-2.61,4.07,4.07,0,0,1,.71.07l8.88-15.7a5.6,5.6,0,0,1,0-8.08l-9.11-16.1a3.71,3.71,0,0,1-.48.05A3.41,3.41,0,0,1,94,152.53H78.79A8.56,8.56,0,0,1,70.38,159.93Zm22.2,35.84H76.79v-2.58H92.58Zm3.71-39.53,7.94,13.92-2.18,1.3-7.94-13.92Z"/><path class="cls-1" d="M69.84,107.22l-8.93,16.09A5.92,5.92,0,0,1,61,132l6.31,11.16a8.54,8.54,0,0,1,3.12-.61V107.28"/><path class="cls-1" d="M61.87,151.24a8.71,8.71,0,0,1,3.21-6.79l-6.32-11.17a5.5,5.5,0,0,1-1.72.3A5.82,5.82,0,0,1,51.4,129H33.49a3.36,3.36,0,0,1-3.12,2.15,2.31,2.31,0,0,1-.46-.05l-9.1,16.09a5.67,5.67,0,0,1,0,8.19l9.1,16.08a3.41,3.41,0,0,1,.46,0,3.36,3.36,0,0,1,3.12,2.15H53.24a4,4,0,0,1,3.8-2.81,4.28,4.28,0,0,1,.81.08L65.08,158A8.71,8.71,0,0,1,61.87,151.24Zm-31.31,17.3-7.94-13.92,2.18-1.3,7.94,13.91Zm4.15-38.07H50.49V133H34.71ZM51.6,172H35.82v-2.58H51.6Z"/><path class="cls-1" d="M70.38,159.93a8.21,8.21,0,0,1-3.06-.59l-7.25,12.81a4.08,4.08,0,0,1,0,5.33l8.69,15.35a5.45,5.45,0,0,1,1.62-.27Z"/><path class="cls-5" d="M67.64,106l-8.93,16.1a5.56,5.56,0,0,1,2.2,1.26l8.93-16.09"/><path class="cls-5" d="M27.74,176.94l-9.17,16.53a5.53,5.53,0,0,1,2.21,1.26l9.16-16.52A3.34,3.34,0,0,1,27.74,176.94Z"/><path class="cls-6" d="M105.33,133.81l-7.76,14a3.34,3.34,0,0,1,2.19,1.27l7.77-14A8.31,8.31,0,0,1,105.33,133.81Z"/><path class="cls-7" d="M65.08,158l-7.23,12.76.06,0,7.21-12.74S65.09,158.05,65.08,158Z"/><path class="cls-5" d="M53.24,173.52H33.49a3.49,3.49,0,0,1,.25,1.29,3.45,3.45,0,0,1-.25,1.29H53.24a4.2,4.2,0,0,1-.22-1.29A4.26,4.26,0,0,1,53.24,173.52Z"/><path class="cls-5" d="M29.91,171.42l-9.1-16.08a5.36,5.36,0,0,1-2.19,1.27l9.11,16.1A3.3,3.3,0,0,1,29.91,171.42Z"/><path class="cls-5" d="M33.49,129H51.4a6.07,6.07,0,0,1-.15-1.29,6.15,6.15,0,0,1,.15-1.29H33.49a3.49,3.49,0,0,1,.25,1.29A3.45,3.45,0,0,1,33.49,129Z"/><path class="cls-5" d="M29.91,131.06a3.29,3.29,0,0,1-2.18-1.28l-9.11,16.09a5.49,5.49,0,0,1,2.19,1.28Z"/><path class="cls-5" d="M67.26,143.16,61,132a5.63,5.63,0,0,1-2.19,1.28l6.32,11.17A8.53,8.53,0,0,1,67.26,143.16Z"/><path class="cls-6" d="M97.82,194.55a3.78,3.78,0,0,1,2.18,1.3l8.9-15.72a5.37,5.37,0,0,1-2.2-1.28Z"/><path class="cls-7" d="M67.26,159.32,60,172.1l0,.05,7.25-12.81Z"/><path class="cls-6" d="M78.79,152.53H94a3.45,3.45,0,0,1-.25-1.29A3.49,3.49,0,0,1,94,150H78.79a9.22,9.22,0,0,1,.1,1.29A9.1,9.1,0,0,1,78.79,152.53Z"/><path class="cls-6" d="M97.59,154.67l9.11,16.1a5.56,5.56,0,0,1,2.19-1.28l-9.11-16.11A3.36,3.36,0,0,1,97.59,154.67Z"/><path class="cls-6" d="M93.52,197.09H76a5.55,5.55,0,0,1,.15,1.29,5.43,5.43,0,0,1-.15,1.29H93.52a3.88,3.88,0,0,1-.23-1.29A4,4,0,0,1,93.52,197.09Z"/><path class="cls-5" d="M60.07,177.48a3.92,3.92,0,0,1-2.16,1.33l8.66,15.3a5.76,5.76,0,0,1,2.19-1.28Z"/><path class="cls-5" d="M65.12,158.07l-7.21,12.74A4.06,4.06,0,0,1,60,172.1l7.22-12.78A8.51,8.51,0,0,1,65.12,158.07Z"/><rect class="cls-5" x="34.71" y="130.47" width="15.78" height="2.58"/><rect class="cls-6" x="76.79" y="193.19" width="15.78" height="2.58"/><polygon class="cls-6" points="104.23 170.16 96.28 156.24 94.11 157.54 102.05 171.46 104.23 170.16"/><polygon class="cls-5" points="22.62 154.62 30.56 168.54 32.74 167.23 24.8 153.32 22.62 154.62"/><rect class="cls-5" x="35.82" y="169.42" width="15.78" height="2.58"/><path class="cls-8" d="M22.56,151.24a5.67,5.67,0,0,0-1.75-4.09l-2.31,4.09,2.31,4.1A5.67,5.67,0,0,0,22.56,151.24Z"/><path class="cls-8" d="M18.62,145.87a5.5,5.5,0,0,0-1.58-.26,5.64,5.64,0,0,0,0,11.27,5.19,5.19,0,0,0,1.58-.27l-3-5.37Z"/><path class="cls-8" d="M18.5,151.24l2.31-4.09a5.49,5.49,0,0,0-2.19-1.28l-3,5.37,3,5.37a5.36,5.36,0,0,0,2.19-1.27Z"/><path class="cls-8" d="M33.49,126.38A3.36,3.36,0,0,0,27,127.67a3.43,3.43,0,0,0,.73,2.11l1.92-3.4Z"/><path class="cls-8" d="M33.49,129H31.1l-1.19,2.1a2.31,2.31,0,0,0,.46.05A3.36,3.36,0,0,0,33.49,129Z"/><path class="cls-8" d="M29.91,131.06,31.1,129h2.39a3.45,3.45,0,0,0,.25-1.29,3.49,3.49,0,0,0-.25-1.29H29.65l-1.92,3.4A3.29,3.29,0,0,0,29.91,131.06Z"/><path class="cls-8" d="M57,133.58a5.5,5.5,0,0,0,1.72-.3L56.31,129H51.4A5.82,5.82,0,0,0,57,133.58Z"/><path class="cls-8" d="M62.83,127.67a5.92,5.92,0,0,0-1.92-4.36l-2.41,4.35L61,132A5.91,5.91,0,0,0,62.83,127.67Z"/><path class="cls-8" d="M58.71,122.05a5.41,5.41,0,0,0-1.67-.28,5.81,5.81,0,0,0-5.64,4.61h4.91Z"/><path class="cls-8" d="M57.77,126.38l.73,1.28,2.41-4.35a5.56,5.56,0,0,0-2.2-1.26l-2.4,4.33Z"/><path class="cls-8" d="M51.4,129h4.91l2.45,4.32A5.63,5.63,0,0,0,61,132l-2.45-4.34-.36.65L55.94,127l.37-.66H51.4a6.15,6.15,0,0,0-.15,1.29A6.07,6.07,0,0,0,51.4,129Z"/><polygon class="cls-8" points="56.31 126.38 55.94 127.04 58.14 128.31 58.5 127.66 57.77 126.38 56.31 126.38"/><path class="cls-8" d="M70.38,148.67v-6.12a8.54,8.54,0,0,0-3.12.61Z"/><path class="cls-8" d="M65.08,144.45a8.79,8.79,0,0,0,0,13.58l3.84-6.79Z"/><path class="cls-4" d="M71.1,150h7.69a8.58,8.58,0,0,0-8.41-7.4h0v6.12Z"/><path class="cls-4" d="M70.38,159.93a8.56,8.56,0,0,0,8.41-7.4H71.17l-.79,1.41v6Z"/><path class="cls-8" d="M70.38,159.93v-6l-3.06,5.4A8.21,8.21,0,0,0,70.38,159.93Z"/><polygon class="cls-8" points="71.11 149.95 70.38 148.67 70.38 149.95 71.11 149.95"/><path class="cls-8" d="M68.92,151.24,65.08,158s0,0,0,0L69.71,150h.67v-1.28l-3.12-5.51a8.53,8.53,0,0,0-2.18,1.29Z"/><path class="cls-4" d="M71.83,151.24l-1.45,2.58v.12l.79-1.41h7.62a9.1,9.1,0,0,0,.1-1.29,9.22,9.22,0,0,0-.1-1.29H71.1Z"/><path class="cls-8" d="M67.32,159.34l3.06-5.4v-.12l-3.12,5.5Z"/><path class="cls-8" d="M69.71,150l-4.59,8.12a8.51,8.51,0,0,0,2.14,1.25l3.12-5.5V150Z"/><polygon class="cls-8" points="70.38 153.82 71.83 151.24 71.11 149.95 70.38 149.95 70.38 153.82"/><path class="cls-8" d="M27.73,172.71a3.41,3.41,0,0,0-.73,2.1,3.48,3.48,0,0,0,.74,2.13l1.18-2.12Z"/><path class="cls-8" d="M30.37,171.37a3.41,3.41,0,0,0-.46,0l1.19,2.1h2.39A3.36,3.36,0,0,0,30.37,171.37Z"/><path class="cls-8" d="M29.94,178.21a3.13,3.13,0,0,0,.43,0,3.36,3.36,0,0,0,3.12-2.15H31.11Z"/><path class="cls-8" d="M29.65,176.1l-.73-1.28-1.18,2.12a3.34,3.34,0,0,0,2.2,1.27l1.17-2.11Z"/><path class="cls-8" d="M33.49,173.52H31.1l-1.19-2.1a3.3,3.3,0,0,0-2.18,1.29l1.19,2.11.36-.64,2.2,1.27-.37.65h2.38a3.45,3.45,0,0,0,.25-1.29A3.49,3.49,0,0,0,33.49,173.52Z"/><polygon class="cls-8" points="31.11 176.1 31.48 175.45 29.28 174.18 28.92 174.82 29.65 176.1 31.11 176.1"/><path class="cls-8" d="M53.24,176.1a4,4,0,0,0,3.8,2.81,3.57,3.57,0,0,0,.87-.1l-1.53-2.71Z"/><path class="cls-8" d="M60.07,172.15l-1.5,2.66,1.5,2.67a4.08,4.08,0,0,0,0-5.33Z"/><path class="cls-8" d="M53.24,173.52h3.07l1.54-2.73a4.28,4.28,0,0,0-.81-.08A4,4,0,0,0,53.24,173.52Z"/><path class="cls-8" d="M55.65,174.81l2.26-4-.06,0-1.54,2.73H53.24a4.26,4.26,0,0,0-.22,1.29,4.2,4.2,0,0,0,.22,1.29h3.14Z"/><path class="cls-8" d="M60.07,177.48l-1.5-2.67,1.5-2.66,0-.05-2.27,4H56.38l1.53,2.71A3.92,3.92,0,0,0,60.07,177.48Z"/><path class="cls-8" d="M57.91,170.81l-2.26,4,.73,1.29h1.39l2.27-4A4.06,4.06,0,0,0,57.91,170.81Z"/><path class="cls-4" d="M108.9,180.13a5.24,5.24,0,0,0,1.55.26,5.58,5.58,0,0,0,0-11.15,5.36,5.36,0,0,0-1.56.25l3,5.32Z"/><path class="cls-4" d="M105,174.81a5.59,5.59,0,0,0,1.72,4l2.29-4-2.29-4A5.62,5.62,0,0,0,105,174.81Z"/><path class="cls-4" d="M109,174.81l-2.29,4a5.37,5.37,0,0,0,2.2,1.28l3-5.32-3-5.32a5.56,5.56,0,0,0-2.19,1.28Z"/><path class="cls-4" d="M97.11,154.72a3.71,3.71,0,0,0,.48-.05l-1.21-2.14H94A3.41,3.41,0,0,0,97.11,154.72Z"/><path class="cls-4" d="M99.78,153.38a3.46,3.46,0,0,0,0-4.3l-1.19,2.16Z"/><path class="cls-4" d="M97.57,147.81A3.3,3.3,0,0,0,94,150h2.43Z"/><path class="cls-4" d="M97.57,147.81,96.38,150h1.46l.73,1.29,1.19-2.16A3.34,3.34,0,0,0,97.57,147.81Z"/><path class="cls-4" d="M98.21,151.88,96,150.61l.36-.66H94a3.49,3.49,0,0,0-.25,1.29,3.45,3.45,0,0,0,.25,1.29h2.43l1.21,2.14a3.36,3.36,0,0,0,2.19-1.29l-1.21-2.14Z"/><polygon class="cls-4" points="98.21 151.88 98.57 151.24 97.84 149.95 96.38 149.95 96.02 150.61 98.21 151.88"/><path class="cls-4" d="M70.44,192.55h-.06v3.13l.79,1.4H76A5.73,5.73,0,0,0,70.44,192.55Z"/><path class="cls-8" d="M69.71,199.67l-3.14-5.56a5.86,5.86,0,0,0-1.85,4.27,5.78,5.78,0,0,0,5.66,5.83v-4.54Z"/><path class="cls-4" d="M70.38,204.21h.06A5.74,5.74,0,0,0,76,199.67H70.38Z"/><path class="cls-8" d="M68.76,192.83l1.62,2.86v-3.13A5.45,5.45,0,0,0,68.76,192.83Z"/><path class="cls-4" d="M76,197.09H71.17l-.79-1.4v4H76a5.43,5.43,0,0,0,.15-1.29A5.55,5.55,0,0,0,76,197.09Z"/><path class="cls-8" d="M70.38,199.67v-4l-1.62-2.86a5.76,5.76,0,0,0-2.19,1.28l3.14,5.56Z"/><path class="cls-4" d="M93.52,199.67a3.82,3.82,0,0,0,3.59,2.62,3.87,3.87,0,0,0,3.83-3.91,3.91,3.91,0,0,0-.94-2.53l-2.16,3.82Z"/><path class="cls-4" d="M93.52,197.09h2.86l1.44-2.54a4.07,4.07,0,0,0-.71-.07A3.82,3.82,0,0,0,93.52,197.09Z"/><path class="cls-4" d="M97.82,194.55l-1.44,2.54H93.52a4,4,0,0,0-.23,1.29,3.88,3.88,0,0,0,.23,1.29h4.32l2.16-3.82A3.78,3.78,0,0,0,97.82,194.55Z"/><path class="cls-4" d="M111.55,127.83l-4,7.25a8.1,8.1,0,0,0,2.92.55,8.43,8.43,0,1,0-8.26-8.43,8.49,8.49,0,0,0,3.14,6.61l4-7.25Z"/><path class="cls-4" d="M111.55,127.83l-2.2-1.27-4,7.25a8.31,8.31,0,0,0,2.2,1.27Z"/><path class="cls-8" d="M15.94,198.22l2.63-4.75a5.51,5.51,0,0,0-1.53-.25,5.64,5.64,0,1,0,5.52,5.64,5.66,5.66,0,0,0-1.78-4.13l-2.64,4.76Z"/><path class="cls-8" d="M15.94,198.22l2.2,1.27,2.64-4.76a5.53,5.53,0,0,0-2.21-1.26Z"/></svg>