<svg id="Layer_1" data-name="Layer 1" xmlns="http://www.w3.org/2000/svg" width="100" height="100" viewBox="0 0 100 100"><title>chemistry</title><circle cx="50" cy="50" r="50" style="fill:#00c1fb"/><path d="M458.7,41.47a3.36,3.36,0,0,0-6.11,1.92v3.55l-5-5a4,4,0,0,0-7.26,2.27v3.29a1.8,1.8,0,0,1-.48,1.22L434,42.87a4.87,4.87,0,0,0-8.63,3.1v6.26h-5.32a1.53,1.53,0,0,0-1.1,2.59h0l2.31,2.31v8.19a15.65,15.65,0,0,0-6.61,25.15h0l.18.17a10.81,10.81,0,0,0,1.07,1.07L442,117.88A50,50,0,0,0,489.83,72.6Z" transform="translate(-390.06 -17.92)" style="opacity:0.10000000149011612;isolation:isolate"/><path d="M459.31,71.77h-1.56V43.39a1.8,1.8,0,0,0-3.6,0V47.3a3.37,3.37,0,0,1-3.36,3.36h-.71a3.37,3.37,0,0,1-3.36-3.36V44.19a2.42,2.42,0,0,0-4.84,0v3.29a3.37,3.37,0,0,1-3.36,3.36h-1.6a3.36,3.36,0,0,1-3.36-3.36V46a3.31,3.31,0,1,0-6.62,0V59h-1.56V46a4.87,4.87,0,0,1,9.74,0v1.51a1.81,1.81,0,0,0,1.8,1.8h1.6a1.81,1.81,0,0,0,1.8-1.8V44.19a4,4,0,1,1,8,0V47.3a1.81,1.81,0,0,0,1.8,1.8h.71a1.81,1.81,0,0,0,1.8-1.8V43.39a3.36,3.36,0,1,1,6.72,0Z" transform="translate(-390.06 -17.92)" style="fill:#d9dde6"/><path d="M431.56,65.33V53.24H421.24V65.33a15.69,15.69,0,1,0,10.32,0Z" transform="translate(-390.06 -17.92)" style="fill:#e6e9ef"/><path d="M421.24,53.24h10.32v3.13H421.24Z" transform="translate(-390.06 -17.92)" style="fill:#d9dde6"/><path d="M412.3,79.38c0,.25,0,.5,0,.75a14.13,14.13,0,1,0,28.26,0c0-.25,0-.5,0-.75Z" transform="translate(-390.06 -17.92)" style="fill:#717588"/><path d="M432.75,52.22H420.06a1.53,1.53,0,0,0,0,3.06h12.69a1.53,1.53,0,0,0,0-3.06Z" transform="translate(-390.06 -17.92)" style="fill:#e6e9ef"/><path d="M440.09,62l4.62,4.62L438,73.3l-4.62-4.63Z" transform="translate(-390.06 -17.92)" style="fill:#e6e9ef"/><path d="M440.09,62l4.62,4.62-1,1L439.07,63Z" transform="translate(-390.06 -17.92)" style="fill:#d9dde6"/><path d="M439.25,60.76a1,1,0,0,0,0,1.4l5.41,5.42a1,1,0,0,0,1.4,0,1,1,0,0,0,0-1.4l-5.42-5.42A1,1,0,0,0,439.25,60.76Z" transform="translate(-390.06 -17.92)" style="fill:#e6e9ef"/><path d="M452.25,78.27h1.33V94.94h-1.33Z" transform="translate(-390.06 -17.92)" style="fill:#4d5c7d"/><path d="M464.47,78.27h1.33V94.94h-1.33Z" transform="translate(-390.06 -17.92)" style="fill:#4d5c7d"/><path d="M454.13,66.27V85.6a4.9,4.9,0,0,0,9.79,0V66.27Z" transform="translate(-390.06 -17.92)" style="fill:#e6e9ef"/><path d="M455.38,73.33V85.6a3.65,3.65,0,0,0,7.29,0V73.33Z" transform="translate(-390.06 -17.92)" style="fill:#acb301"/><path d="M454.13,66.27h9.79v2.55h-9.79Z" transform="translate(-390.06 -17.92)" style="fill:#d9dde6"/><path d="M463.92,64.88h-9.79a1.37,1.37,0,0,0,0,2.73h9.79a1.37,1.37,0,0,0,0-2.73Z" transform="translate(-390.06 -17.92)" style="fill:#e6e9ef"/><g style="opacity:0.25"><path d="M456.2,71.77h1.19v6.48H456.2Z" transform="translate(-390.06 -17.92)" style="fill:#fff"/><path d="M456.2,79.59h1.19V81.1H456.2Z" transform="translate(-390.06 -17.92)" style="fill:#fff"/></g><path d="M466.14,77.59H451.91a.71.71,0,0,0,0,1.42h14.23a.71.71,0,0,0,0-1.42Z" transform="translate(-390.06 -17.92)" style="fill:#717588"/><path d="M468.43,93.87H449.62a1,1,0,0,0,0,1.95h18.81a1,1,0,0,0,0-1.95Z" transform="translate(-390.06 -17.92)" style="fill:#4d5c7d"/><circle cx="41.63" cy="57.54" r="1.27" style="fill:#717588"/><circle cx="34.85" cy="53.77" r="1.27" style="fill:#717588"/><circle cx="37.11" cy="44.09" r="1.27" style="fill:#717588"/></svg>