<svg id="Layer_1" data-name="Layer 1" xmlns="http://www.w3.org/2000/svg" width="183.8816" height="210.8553" viewBox="0 0 183.8816 210.8553"><defs><style>.cls-1{fill:none;}.cls-2{fill:#f3f3f3;}.cls-3{fill:#ccc;}.cls-4{fill:#010101;}.cls-5{fill:#f1b14e;}.cls-6{fill:#c6933f;}.cls-7{fill:#fff;}.cls-8{fill:#231f20;}</style></defs><title>chemistry-2</title><rect class="cls-1" width="183.8816" height="210.8553"/><rect class="cls-2" x="75.5078" y="46.8805" width="99.6017" height="136.4054" rx="4"/><rect class="cls-3" x="86.0263" y="132.0113" width="69.0324" height="4.0138" rx="1.8818"/><rect class="cls-3" x="85.379" y="91.1565" width="69.0324" height="4.0138" rx="1.8818"/><path class="cls-4" d="M106.7385,68.5664a3.0131,3.0131,0,0,1-.8291,1.92,2.557,2.557,0,0,1-1.8555.6757,2.4,2.4,0,0,1-2.0117-.9965,4.2951,4.2951,0,0,1-.7568-2.6651v-.7539a4.873,4.873,0,0,1,.3525-1.9224,2.8476,2.8476,0,0,1,1-1.2734,2.5808,2.5808,0,0,1,1.498-.4443,2.4139,2.4139,0,0,1,1.81.6972,3.0594,3.0594,0,0,1,.793,1.9307H105.8a2.3654,2.3654,0,0,0-.5283-1.3613,1.5037,1.5037,0,0,0-1.1358-.4214,1.6167,1.6167,0,0,0-1.4033.7329,3.6353,3.6353,0,0,0-.5088,2.0859v.76a3.7385,3.7385,0,0,0,.4825,2.0317,1.5134,1.5134,0,0,0,1.3476.7544,1.6774,1.6774,0,0,0,1.1934-.39,2.2723,2.2723,0,0,0,.5527-1.36Z"/><path class="cls-4" d="M113.4572,71.0542h-.9394V67.43h-3.57v3.624h-.9336v-7.84h.9336V66.585h3.57V63.2139h.9394Z"/><path class="cls-4" d="M119.1193,67.43H116.05V70.209h3.5664v.8452h-4.5v-7.84h4.4512V64.06H116.05V66.585h3.0693Z"/><path class="cls-4" d="M121.9856,63.2139l2.3154,6.3975,2.3154-6.3975h1.211v7.84h-.9336V68.001l.0879-3.2954-2.3262,6.3486h-.7149l-2.32-6.3325.0928,3.2793v3.0532h-.9346v-7.84Z"/><path class="cls-4" d="M130.4787,71.0542h-.9336v-7.84h.9336Z"/><path class="cls-4" d="M134.2736,67.56a4.2352,4.2352,0,0,1-1.749-.94,1.8858,1.8858,0,0,1-.5478-1.3759,1.98,1.98,0,0,1,.6689-1.5318,2.4912,2.4912,0,0,1,1.7393-.6059,2.6676,2.6676,0,0,1,1.3017.3125,2.2224,2.2224,0,0,1,.8848.8613,2.3716,2.3716,0,0,1,.3144,1.2007h-.9394a1.5128,1.5128,0,0,0-.4082-1.1211,1.5617,1.5617,0,0,0-1.1533-.4082,1.5846,1.5846,0,0,0-1.0772.3374,1.1758,1.1758,0,0,0-.3867.936,1.0512,1.0512,0,0,0,.3672.8115,3.4388,3.4388,0,0,0,1.25.607,5.5085,5.5085,0,0,1,1.3818.6064,2.2076,2.2076,0,0,1,.7393.7725,2.1444,2.1444,0,0,1,.2412,1.04,1.9051,1.9051,0,0,1-.6719,1.5264,2.67,2.67,0,0,1-1.7949.5737,3.0575,3.0575,0,0,1-1.3623-.31,2.349,2.349,0,0,1-.9756-.8477,2.2292,2.2292,0,0,1-.3428-1.2226h.94a1.4127,1.4127,0,0,0,.4736,1.123,1.8677,1.8677,0,0,0,1.2676.4116,1.707,1.707,0,0,0,1.1338-.334,1.1279,1.1279,0,0,0,.3935-.91,1.1132,1.1132,0,0,0-.3642-.8911A4.0139,4.0139,0,0,0,134.2736,67.56Z"/><path class="cls-4" d="M142.9914,64.06h-2.2773v6.9946h-.9287V64.06h-2.2725v-.8457h5.4785Z"/><path class="cls-4" d="M146.64,67.8828h-1.6641v3.1714h-.9385v-7.84h2.3447a2.5928,2.5928,0,0,1,1.8409.6035,2.6021,2.6021,0,0,1,.2871,3.0313,2.1635,2.1635,0,0,1-.9951.8129l1.664,3.3282v.0644H148.177Zm-1.6641-.8457h1.4355a1.5222,1.5222,0,0,0,1.1065-.3989,1.423,1.423,0,0,0,.4111-1.0684,1.5058,1.5058,0,0,0-.3916-1.1166,1.5574,1.5574,0,0,0-1.1308-.3936h-1.4307Z"/><path class="cls-4" d="M152.1027,67.15l1.8487-3.9365h1.06L152.57,68.13v2.9238h-.9336V68.13l-2.4423-4.9165h1.07Z"/><rect class="cls-3" x="84.7594" y="111.96" width="69.0324" height="4.0138" rx="1.8818"/><path class="cls-1" d="M70.3773,159.93h-.0007v32.6255c.0228-.0012.0438-.0074.0667-.0074a5.7438,5.7438,0,0,1,5.5705,4.5468H93.5187a3.8177,3.8177,0,0,1,3.5938-2.6146,3.7558,3.7558,0,0,1,.7084.0723l8.8812-15.6989a5.6092,5.6092,0,0,1-.0007-8.0805l-9.108-16.1019a3.4666,3.4666,0,0,1-.4809.0489A3.4117,3.4117,0,0,1,93.95,152.53H78.7866A8.5652,8.5652,0,0,1,70.3773,159.93Zm22.1983,35.8393H76.7942V193.191H92.5756Zm3.71-39.5248,7.9441,13.9124-2.18,1.2988L94.1051,157.54Z"/><path class="cls-1" d="M69.8357,107.2212,60.9108,123.31a5.9234,5.9234,0,0,1,.04,8.6918l6.3126,11.1606a8.339,8.339,0,0,1,3.1136-.6077V107.2764"/><path class="cls-1" d="M61.8664,151.2426a8.7367,8.7367,0,0,1,3.21-6.7915l-6.3205-11.1679a5.6019,5.6019,0,0,1-1.7131.2941,5.8137,5.8137,0,0,1-5.64-4.6167H33.4934A3.3725,3.3725,0,0,1,30.37,131.112a3.136,3.136,0,0,1-.4575-.0478l-9.1,16.0849a5.67,5.67,0,0,1,0,8.187l9.1,16.0849a3.15,3.15,0,0,1,.4575-.0477,3.37,3.37,0,0,1,3.1238,2.1514H53.2445a3.9729,3.9729,0,0,1,4.6091-2.73l7.2231-12.7621A8.73,8.73,0,0,1,61.8664,151.2426ZM30.5628,168.5355l-7.9441-13.9149,2.18-1.2987,7.9442,13.9125Zm4.148-38.0691H50.4886v2.5767H34.7108ZM51.598,172.0006h-15.78v-2.5779h15.78Z"/><path class="cls-1" d="M70.3766,159.93a8.3257,8.3257,0,0,1-3.0572-.5869L60.074,172.1488a4.0941,4.0941,0,0,1-.0007,5.33l8.6892,15.3545a5.5523,5.5523,0,0,1,1.6141-.278Z"/><path class="cls-5" d="M67.6387,105.9483l-8.9274,16.0982a5.7106,5.7106,0,0,1,2.2,1.2633l8.9249-16.0886"/><path class="cls-5" d="M27.744,176.9431l-9.1693,16.53a5.4549,5.4549,0,0,1,2.2029,1.262l9.167-16.526A3.3243,3.3243,0,0,1,27.744,176.9431Z"/><path class="cls-6" d="M105.3317,133.8064,97.5658,147.812a3.3623,3.3623,0,0,1,2.197,1.2694l7.7671-14.0057A8.1615,8.1615,0,0,1,105.3317,133.8064Z"/><path class="cls-7" d="M65.0767,158.0328l-7.2231,12.7621c.0209.0049.04.0147.0606.02l7.2093-12.746C65.1079,158.0562,65.0917,158.0451,65.0767,158.0328Z"/><path class="cls-5" d="M53.2445,173.5247H33.4934a3.4519,3.4519,0,0,1,0,2.578H53.2445a3.8434,3.8434,0,0,1,0-2.578Z"/><path class="cls-5" d="M29.9121,171.421l-9.1-16.0849a5.4368,5.4368,0,0,1-2.191,1.2767l9.1044,16.0935A3.3321,3.3321,0,0,1,29.9121,171.421Z"/><path class="cls-5" d="M33.4934,128.9606H51.4023a5.6928,5.6928,0,0,1,0-2.5767H33.4934a3.4485,3.4485,0,0,1,0,2.5767Z"/><path class="cls-5" d="M29.9121,131.0642a3.3307,3.3307,0,0,1-2.1862-1.2852l-9.105,16.0935a5.4567,5.4567,0,0,1,2.191,1.2766Z"/><path class="cls-5" d="M67.263,143.1622,60.95,132.0016a5.7209,5.7209,0,0,1-2.1947,1.2816l6.3205,11.1679A8.4873,8.4873,0,0,1,67.263,143.1622Z"/><path class="cls-6" d="M97.8209,194.5522a3.7872,3.7872,0,0,1,2.182,1.3012l8.8932-15.7235a5.41,5.41,0,0,1-2.194-1.2766Z"/><path class="cls-7" d="M67.2635,159.3219l-7.2279,12.78c.0132.0147.0252.0319.0384.0466l7.2454-12.8061C67.3007,159.3353,67.2822,159.3291,67.2635,159.3219Z"/><path class="cls-6" d="M78.7866,152.53H93.95a3.464,3.464,0,0,1,0-2.5767H78.7866a8.04,8.04,0,0,1,0,2.5767Z"/><path class="cls-6" d="M97.5934,154.6709l9.108,16.1019a5.416,5.416,0,0,1,2.1935-1.2778l-9.1135-16.1144A3.3715,3.3715,0,0,1,97.5934,154.6709Z"/><path class="cls-6" d="M93.5187,197.0945H76.0138a5.5985,5.5985,0,0,1-.0006,2.5779H93.5193a3.7237,3.7237,0,0,1-.0006-2.5779Z"/><path class="cls-5" d="M60.0733,177.4786a3.9834,3.9834,0,0,1-2.16,1.3331l8.6554,15.3019a5.6754,5.6754,0,0,1,2.1935-1.28Z"/><path class="cls-5" d="M65.1235,158.0685l-7.2093,12.746a3.9751,3.9751,0,0,1,2.1214,1.2877l7.2279-12.78A8.419,8.419,0,0,1,65.1235,158.0685Z"/><rect class="cls-5" x="34.7108" y="130.4664" width="15.7778" height="2.5767"/><rect class="cls-6" x="76.7942" y="193.191" width="15.7814" height="2.5779"/><polygon class="cls-6" points="104.23 170.157 96.285 156.244 94.105 157.54 102.049 171.455 104.23 170.157"/><polygon class="cls-5" points="22.619 154.621 30.563 168.536 32.743 167.234 24.799 153.322 22.619 154.621"/><rect class="cls-5" x="35.8177" y="169.4227" width="15.7803" height="2.5779"/><path class="cls-8" d="M22.5587,151.2426a5.6571,5.6571,0,0,0-1.7468-4.0935l-2.3159,4.0935,2.3159,4.0935A5.6525,5.6525,0,0,0,22.5587,151.2426Z"/><path class="cls-8" d="M18.6209,145.8725a5.333,5.333,0,0,0-1.5824-.2635,5.6348,5.6348,0,0,0,0,11.2673,5.3362,5.3362,0,0,0,1.5824-.2635l-3.0386-5.37Z"/><path class="cls-8" d="M18.496,151.2426l2.3159-4.0935a5.4567,5.4567,0,0,0-2.191-1.2766l-3.0386,5.37,3.0386,5.37a5.4368,5.4368,0,0,0,2.191-1.2767Z"/><path class="cls-8" d="M33.4934,126.3839A3.371,3.371,0,0,0,30.37,124.236,3.407,3.407,0,0,0,27,127.6716a3.4491,3.4491,0,0,0,.7263,2.1074l1.9209-3.3951Z"/><path class="cls-8" d="M33.4934,128.9606h-2.39l-1.1911,2.1036a3.136,3.136,0,0,0,.4575.0478A3.3725,3.3725,0,0,0,33.4934,128.9606Z"/><path class="cls-8" d="M29.9121,131.0642l1.1911-2.1036h2.39a3.4485,3.4485,0,0,0,0-2.5767H29.6468l-1.9209,3.3951A3.3307,3.3307,0,0,0,29.9121,131.0642Z"/><path class="cls-8" d="M57.0426,133.5773a5.6019,5.6019,0,0,0,1.7131-.2941l-2.4467-4.3226H51.4023A5.8137,5.8137,0,0,0,57.0426,133.5773Z"/><path class="cls-8" d="M62.8292,127.6716a5.9183,5.9183,0,0,0-1.9184-4.3618l-2.415,4.3532,2.4546,4.3386A5.9251,5.9251,0,0,0,62.8292,127.6716Z"/><path class="cls-8" d="M58.7113,122.0465a5.6289,5.6289,0,0,0-1.6687-.2793,5.8144,5.8144,0,0,0-5.64,4.6167h4.9043Z"/><path class="cls-8" d="M57.7724,126.3839l.7234,1.2791,2.415-4.3532a5.7106,5.7106,0,0,0-2.2-1.2633l-2.4047,4.3374Z"/><path class="cls-8" d="M51.4023,128.9606H56.309l2.4467,4.3226a5.7209,5.7209,0,0,0,2.1947-1.2816l-2.4546-4.3386-.3571.6433-2.1958-1.2669.3637-.6555H51.4023a5.6928,5.6928,0,0,0,0,2.5767Z"/><polygon class="cls-8" points="56.307 126.384 55.943 127.039 58.139 128.306 58.496 127.663 57.772 126.384 56.307 126.384"/><path class="cls-8" d="M70.3766,148.6672v-6.1127a8.339,8.339,0,0,0-3.1136.6077Z"/><path class="cls-8" d="M65.0762,144.4511a8.788,8.788,0,0,0,.0005,13.5817l3.843-6.79Z"/><path class="cls-4" d="M71.1048,149.9537h7.6818a8.5661,8.5661,0,0,0-8.4093-7.3992h-.0007v6.1127Z"/><path class="cls-4" d="M70.3773,159.93a8.5652,8.5652,0,0,0,8.4093-7.3992H71.1732l-.7966,1.4078V159.93Z"/><path class="cls-8" d="M70.3766,159.93v-5.9914l-3.0572,5.4045A8.3257,8.3257,0,0,0,70.3766,159.93Z"/><polygon class="cls-8" points="71.105 149.954 70.377 148.667 70.377 149.954 71.105 149.954"/><path class="cls-8" d="M68.92,151.2426l-3.843,6.79c.015.0123.0312.0234.0468.0357l4.59-8.1148h.6633v-1.2865l-3.1136-5.505a8.4873,8.4873,0,0,0-2.1868,1.2889Z"/><path class="cls-4" d="M71.8335,151.2426l-1.4569,2.5755v.12l.7966-1.4078h7.6134a8.04,8.04,0,0,0,0-2.5767H71.1048Z"/><path class="cls-8" d="M67.3194,159.3427l3.0572-5.4045v-.12l-3.1131,5.5038C67.2822,159.3291,67.3007,159.3353,67.3194,159.3427Z"/><path class="cls-8" d="M69.7133,149.9537l-4.59,8.1148a8.419,8.419,0,0,0,2.14,1.2534l3.1131-5.5038v-3.8644Z"/><polygon class="cls-8" points="70.377 153.818 71.833 151.243 71.105 149.954 70.377 149.954 70.377 153.818"/><path class="cls-8" d="M27.7253,172.7063a3.42,3.42,0,0,0,.0187,4.2368l1.1771-2.1233Z"/><path class="cls-8" d="M30.37,171.3733a3.15,3.15,0,0,0-.4575.0477l1.1911,2.1037h2.39A3.37,3.37,0,0,0,30.37,171.3733Z"/><path class="cls-8" d="M29.9446,178.2088a3.2582,3.2582,0,0,0,.425.0442,3.371,3.371,0,0,0,3.1238-2.15H31.1127Z"/><path class="cls-8" d="M29.6468,176.1027l-.7257-1.2829-1.1771,2.1233a3.3243,3.3243,0,0,0,2.2006,1.2657l1.1681-2.1061Z"/><path class="cls-8" d="M33.4934,173.5247h-2.39l-1.1911-2.1037a3.3321,3.3321,0,0,0-2.1868,1.2853l1.1958,2.1135.3559-.6408,2.2,1.2681-.3638.6556h2.3807a3.4519,3.4519,0,0,0,0-2.578Z"/><polygon class="cls-8" points="31.113 176.103 31.477 175.447 29.277 174.179 28.921 174.82 29.647 176.103 31.113 176.103"/><path class="cls-8" d="M53.2445,176.1027a4.0165,4.0165,0,0,0,3.7981,2.8119,3.9324,3.9324,0,0,0,.871-.1029l-1.5326-2.709Z"/><path class="cls-8" d="M60.074,172.1488l-1.508,2.6648,1.5073,2.665a4.0941,4.0941,0,0,0,.0007-5.33Z"/><path class="cls-8" d="M53.2445,173.5247H56.309l1.5446-2.73a3.9729,3.9729,0,0,0-4.6091,2.73Z"/><path class="cls-8" d="M55.6522,174.8136l2.262-3.9991c-.021-.0049-.04-.0147-.0606-.02l-1.5446,2.73H53.2445a3.8434,3.8434,0,0,0,0,2.578H56.381Z"/><path class="cls-8" d="M60.0733,177.4786l-1.5073-2.665,1.508-2.6648c-.0132-.0147-.0252-.0319-.0384-.0466l-2.2632,4H56.381l1.5326,2.709A3.9834,3.9834,0,0,0,60.0733,177.4786Z"/><path class="cls-8" d="M57.9142,170.8145l-2.262,3.9991.7288,1.2891h1.3914l2.2632-4A3.9751,3.9751,0,0,0,57.9142,170.8145Z"/><path class="cls-4" d="M108.8961,180.13a5.2893,5.2893,0,0,0,1.5511.2561,5.5747,5.5747,0,0,0,0-11.1471,5.3045,5.3045,0,0,0-1.5523.2561l3.0087,5.3186Z"/><path class="cls-4" d="M104.9835,174.8136a5.5922,5.5922,0,0,0,1.7186,4.04l2.2853-4.04-2.286-4.0408A5.5974,5.5974,0,0,0,104.9835,174.8136Z"/><path class="cls-4" d="M108.9874,174.8136l-2.2853,4.04a5.41,5.41,0,0,0,2.194,1.2766l3.0075-5.3163-3.0087-5.3186a5.416,5.416,0,0,0-2.1935,1.2778Z"/><path class="cls-4" d="M97.1125,154.72a3.4666,3.4666,0,0,0,.4809-.0489L96.3827,152.53H93.95A3.4117,3.4117,0,0,0,97.1125,154.72Z"/><path class="cls-4" d="M99.7814,153.3806a3.464,3.464,0,0,0-.0186-4.2992l-1.1952,2.1552Z"/><path class="cls-4" d="M97.5658,147.812a3.2607,3.2607,0,0,0-.4533-.0466,3.4107,3.4107,0,0,0-3.1622,2.1883h2.4276Z"/><path class="cls-4" d="M97.5658,147.812l-1.1879,2.1417h1.4646l.7251,1.2829,1.1952-2.1552A3.3623,3.3623,0,0,0,97.5658,147.812Z"/><path class="cls-4" d="M98.2123,151.8773l-2.197-1.2693.3626-.6543H93.95a3.464,3.464,0,0,0,0,2.5767h2.4324l1.2107,2.1405a3.3715,3.3715,0,0,0,2.188-1.29l-1.2138-2.144Z"/><polygon class="cls-4" points="98.212 151.877 98.568 151.237 97.843 149.954 96.378 149.954 96.015 150.608 98.212 151.877"/><path class="cls-4" d="M70.4433,192.5477c-.0229,0-.0439.0062-.0667.0074v3.1317l.7966,1.4077h4.8406A5.7438,5.7438,0,0,0,70.4433,192.5477Z"/><path class="cls-8" d="M69.7133,199.6724l-3.1443-5.5588a5.8526,5.8526,0,0,0-1.8464,4.2687,5.7775,5.7775,0,0,0,5.654,5.83v-4.54Z"/><path class="cls-4" d="M70.3766,204.212c.0228.0012.0438.0072.0667.0072a5.7439,5.7439,0,0,0,5.57-4.5468H70.3766Z"/><path class="cls-8" d="M68.7625,192.8331l1.6141,2.8537v-3.1317A5.5523,5.5523,0,0,0,68.7625,192.8331Z"/><path class="cls-4" d="M76.0138,197.0945H71.1732l-.7966-1.4077v3.9856h5.6366a5.5985,5.5985,0,0,0,.0006-2.5779Z"/><path class="cls-8" d="M70.3766,199.6724v-3.9856l-1.6141-2.8537a5.6754,5.6754,0,0,0-2.1935,1.28l3.1443,5.5588Z"/><path class="cls-4" d="M93.5193,199.6724a3.818,3.818,0,0,0,3.5932,2.6147,3.8644,3.8644,0,0,0,3.8239-3.9048,3.9141,3.9141,0,0,0-.9335-2.5289l-2.16,3.819Z"/><path class="cls-4" d="M93.5187,197.0945h2.864l1.4382-2.5423a3.7558,3.7558,0,0,0-.7084-.0723A3.8177,3.8177,0,0,0,93.5187,197.0945Z"/><path class="cls-4" d="M97.8209,194.5522l-1.4382,2.5423h-2.864a3.7237,3.7237,0,0,0,.0006,2.5779h4.3232l2.16-3.819A3.7872,3.7872,0,0,0,97.8209,194.5522Z"/><path class="cls-4" d="M111.5469,127.8322l-4.017,7.2435a8.07,8.07,0,0,0,2.9209.5525,8.4313,8.4313,0,1,0-8.261-8.4295,8.47,8.47,0,0,0,3.1419,6.6077l4.0159-7.2424Z"/><path class="cls-4" d="M111.5469,127.8322l-2.1993-1.2682-4.0159,7.2424a8.1615,8.1615,0,0,0,2.1982,1.2693Z"/><path class="cls-8" d="M15.9388,198.2242l2.6359-4.7514a5.36,5.36,0,0,0-1.5362-.2487,5.6348,5.6348,0,1,0,5.52,5.6336,5.6538,5.6538,0,0,0-1.7811-4.1229L18.14,199.4911Z"/><path class="cls-8" d="M15.9388,198.2242l2.2007,1.2669,2.6381-4.7563a5.4549,5.4549,0,0,0-2.2029-1.262Z"/></svg>