<svg id="Layer_1" data-name="Layer 1" xmlns="http://www.w3.org/2000/svg" width="168.9564" height="185.1014" viewBox="0 0 168.9564 185.1014"><defs><style>.cls-1{fill:#f3f3f3;}.cls-2{fill:#ccc;}.cls-3{fill:#010101;}.cls-4{fill:#fff;}.cls-5{fill:#ddd;}.cls-6{fill:#539eb0;}.cls-7{fill:#64bcd2;}.cls-8{fill:#3b885c;}.cls-9{fill:#4aa06d;}.cls-10{fill:#e2b157;}.cls-11{fill:#e56d5a;}.cls-12{fill:#231f20;}.cls-13{fill:#8b603d;}</style></defs><title>chemi</title><rect class="cls-1" x="78.82" y="46.3058" width="90.1364" height="118.5335" rx="4"/><rect class="cls-2" x="83.9043" y="120.2827" width="65.9086" height="3.4879" rx="1.7133"/><rect class="cls-2" x="82.6947" y="102.8585" width="65.9086" height="3.4879" rx="1.7133"/><rect class="cls-2" x="83.2863" y="84.7807" width="65.9086" height="3.4879" rx="1.7133"/><path class="cls-3" d="M107.7824,70.0034a2.5159,2.5159,0,0,1-.792,1.668,2.5831,2.5831,0,0,1-1.7724.5874,2.3743,2.3743,0,0,1-1.92-.8657,3.495,3.495,0,0,1-.7227-2.3164v-.6548a3.9031,3.9031,0,0,1,.3369-1.67,2.5264,2.5264,0,0,1,.9541-1.1069,2.6431,2.6431,0,0,1,1.4307-.3858,2.43,2.43,0,0,1,1.7275.606,2.5442,2.5442,0,0,1,.7578,1.6772h-.8965a1.972,1.972,0,0,0-.5039-1.1826,1.5182,1.5182,0,0,0-1.0849-.3662,1.5908,1.5908,0,0,0-1.34.6372,2.94,2.94,0,0,0-.4853,1.812v.6607a3.0208,3.0208,0,0,0,.46,1.7651,1.4816,1.4816,0,0,0,1.2862.6558,1.7063,1.7063,0,0,0,1.1406-.3394,1.8885,1.8885,0,0,0,.5273-1.1812Z" transform="translate(-4.1022 -4.8531)"/><path class="cls-3" d="M114.1965,72.1651H113.3v-3.149h-3.4092v3.149h-.8916v-6.813h.8916v2.9292H113.3V65.3521h.8965Z" transform="translate(-4.1022 -4.8531)"/><path class="cls-3" d="M119.6027,69.0161h-2.9306V71.43h3.4043v.7349h-4.2959v-6.813h4.25v.7348h-3.3584v2.1944h2.9306Z" transform="translate(-4.1022 -4.8531)"/><path class="cls-3" d="M122.3381,65.3521l2.2109,5.5591,2.211-5.5591h1.1562v6.813h-.8916V69.5117l.084-2.8632-2.2207,5.5166h-.6826l-2.2149-5.503.0879,2.85v2.6534h-.8916v-6.813Z" transform="translate(-4.1022 -4.8531)"/><path class="cls-3" d="M130.4484,72.1651h-.8925v-6.813h.8925Z" transform="translate(-4.1022 -4.8531)"/><path class="cls-3" d="M134.0705,69.1284a4.181,4.181,0,0,1-1.67-.8169,1.5667,1.5667,0,0,1-.5225-1.1953,1.6515,1.6515,0,0,1,.6387-1.331,2.5259,2.5259,0,0,1,1.6611-.5264,2.758,2.758,0,0,1,1.2422.271,2.0488,2.0488,0,0,1,.8448.749,1.9212,1.9212,0,0,1,.3,1.0435h-.8965a1.251,1.251,0,0,0-.39-.9746,1.58,1.58,0,0,0-1.1006-.3545,1.6154,1.6154,0,0,0-1.0293.293.98.98,0,0,0-.3691.8134.8834.8834,0,0,0,.3506.7056,3.4355,3.4355,0,0,0,1.1933.5273,5.5,5.5,0,0,1,1.3194.5269,2.0077,2.0077,0,0,1,.706.6714,1.7214,1.7214,0,0,1,.23.9028,1.5946,1.5946,0,0,1-.6406,1.3267,2.7178,2.7178,0,0,1-1.7139.4985,3.1636,3.1636,0,0,1-1.3007-.269,2.19,2.19,0,0,1-.9307-.7373,1.8039,1.8039,0,0,1-.3281-1.062h.8965a1.1773,1.1773,0,0,0,.4531.9755,1.8953,1.8953,0,0,0,1.21.358,1.7433,1.7433,0,0,0,1.0821-.29.9452.9452,0,0,0,.3769-.791.9281.9281,0,0,0-.3486-.7744A4.0115,4.0115,0,0,0,134.0705,69.1284Z" transform="translate(-4.1022 -4.8531)"/><path class="cls-3" d="M142.3938,66.0869h-2.1729v6.0782h-.8877V66.0869h-2.1689v-.7348h5.23Z" transform="translate(-4.1022 -4.8531)"/><path class="cls-3" d="M145.8781,69.4092h-1.5888v2.7559h-.8965v-6.813h2.2383a2.6392,2.6392,0,0,1,1.7588.5244,1.8918,1.8918,0,0,1,.6152,1.5254,1.845,1.845,0,0,1-.3418,1.1089,2.0416,2.0416,0,0,1-.9492.7065l1.5879,2.8916v.0562h-.9571Zm-1.5888-.7349h1.37a1.54,1.54,0,0,0,1.0566-.3466,1.1781,1.1781,0,0,0,.3926-.9283,1.2409,1.2409,0,0,0-.374-.97,1.5746,1.5746,0,0,0-1.08-.3423h-1.3652Z" transform="translate(-4.1022 -4.8531)"/><path class="cls-3" d="M151.093,68.7725l1.7656-3.42h1.0127l-2.332,4.2719v2.5411h-.8916V69.624l-2.3321-4.2719h1.0225Z" transform="translate(-4.1022 -4.8531)"/><path class="cls-4" d="M33.0285,178.5583a4.3149,4.3149,0,0,1-4.3425-4.277v-4.8368h16.69V148.792H36.0948a3.3557,3.3557,0,1,0,0,6.7108h.3812a8.5617,8.5617,0,0,1,.26,2.2526c0,1.393-.703,2.2467-1.0825,2.2467H33.0285a7.383,7.383,0,0,0-7.4268,7.32v6.9592A7.3827,7.3827,0,0,0,33.0285,181.6H45.376v-3.0421Z" transform="translate(-4.1022 -4.8531)"/><path class="cls-5" d="M57.8445,160.0021H55.2227c-.3823,0-1.0835-.8537-1.0835-2.2467a9.0876,9.0876,0,0,1,.2425-2.2526h.2757a3.3557,3.3557,0,1,0,0-6.7108H45.376v20.6525H62.1879v4.8368a4.3138,4.3138,0,0,1-4.3434,4.277H45.376V181.6H57.8445a7.3812,7.3812,0,0,0,7.4258-7.3191v-6.9592A7.3815,7.3815,0,0,0,57.8445,160.0021Z" transform="translate(-4.1022 -4.8531)"/><path class="cls-6" d="M57.8445,178.5583a4.3138,4.3138,0,0,0,4.3434-4.277v-4.8368H45.376v9.1138Z" transform="translate(-4.1022 -4.8531)"/><path class="cls-7" d="M28.686,174.2813a4.3149,4.3149,0,0,0,4.3425,4.277H45.376v-9.1138H28.686Z" transform="translate(-4.1022 -4.8531)"/><path class="cls-5" d="M64.5946,72.68c-3.9451-3.0792-8.1657-7.8147-8.1657-11.8742,0-.4539-.1094-11.2362-.15-15.3022h.49a4.3988,4.3988,0,1,0,0-8.7967H46.2131V94.4291H74.1987c.0113.3442.06.6817.06,1.0287a27.7324,27.7324,0,0,1-27.9334,27.5269c-.0379,0-.0746-.0056-.1125-.0056v1.52c.0379,0,.0746.0057.1125.0057A29.2972,29.2972,0,0,0,75.8013,95.4578,28.7214,28.7214,0,0,0,64.5946,72.68Z" transform="translate(-4.1022 -4.8531)"/><path class="cls-8" d="M46.2131,121.4594c.0379,0,.0746.0056.1125.0056A26.2328,26.2328,0,0,0,72.717,95.4578c0-.346-.0454-.6845-.0586-1.0287H46.2131Z" transform="translate(-4.1022 -4.8531)"/><path class="cls-5" d="M56.712,103.0847a4.3858,4.3858,0,1,1-4.384-4.32A4.3542,4.3542,0,0,1,56.712,103.0847Z" transform="translate(-4.1022 -4.8531)"/><path class="cls-8" d="M54.3015,100.3085a3.3564,3.3564,0,0,1,.9514,2.33,3.4356,3.4356,0,0,1-5.2758,2.8495,3.4376,3.4376,0,0,0,5.9175-2.3278A3.3769,3.3769,0,0,0,54.3015,100.3085Z" transform="translate(-4.1022 -4.8531)"/><path class="cls-9" d="M19.9917,94.4291c-.0132.3442-.0584.6827-.0584,1.0287a26.2256,26.2256,0,0,0,26.28,26.0016v-27.03Z" transform="translate(-4.1022 -4.8531)"/><path class="cls-10" d="M40.8816,146.0151a7.3181,7.3181,0,0,1-2.3962-4.4881l1.8121-4.107s2.937-2.7379,2.7671-2.9163,1.1592-3.3927,1.1592-3.3927l.4227-1.9047,1.6988,1.5475,2.8918,2.1428,2.7183,3.9282s2.1405,2.976,1.9762,3.1547a31.34,31.34,0,0,0,0,3.9283l-1.931,2.1073s-.3756.5468-1.1468,1.7791C56.546,139.7414,42.9438,130.44,40.8816,146.0151Z" transform="translate(-4.1022 -4.8531)"/><path class="cls-4" d="M46.3256,99.54a3.5982,3.5982,0,1,1-3.5969-3.5441A3.5735,3.5735,0,0,1,46.3256,99.54Z" transform="translate(-4.1022 -4.8531)"/><path class="cls-9" d="M44.2481,97.3987a2.5922,2.5922,0,0,1,.6806,1.7168,2.6835,2.6835,0,0,1-2.7049,2.6625,2.6436,2.6436,0,0,1-1.4071-.4455,2.6811,2.6811,0,0,0,4.7265-1.7167A2.6152,2.6152,0,0,0,44.2481,97.3987Z" transform="translate(-4.1022 -4.8531)"/><path class="cls-11" d="M41.2168,146.2754a7.6731,7.6731,0,0,1-3.1816-4.2528,5.2784,5.2784,0,0,1,.1935-2.8467,6.703,6.703,0,0,1,.5832-1.31,10.8192,10.8192,0,0,1,.78-1.1559,27.0751,27.0751,0,0,0,2.9757-3.946,3.769,3.769,0,0,0,.1954-.492c.0207-.0558.0737-.2232.0671-.187l.0688-.3143a4.3524,4.3524,0,0,0,.0756-.9913,10.7579,10.7579,0,0,0-.4266-2.2749l-.9317-3.4083,2.78,2.2756c1.5685,1.2826,3.1872,2.5966,4.7567,4.0195a21.9282,21.9282,0,0,1,4.1594,4.9207,9.2441,9.2441,0,0,1,1.3335,6.3759,4.7038,4.7038,0,0,1-.63,1.5894,10.1032,10.1032,0,0,1-.9863,1.2807c-.6908.8-1.4713,1.4749-2.1755,2.2366.5087-.9068,1.1439-1.7391,1.6894-2.593a10.1594,10.1594,0,0,0,.6966-1.3047,3.6161,3.6161,0,0,0,.2851-1.3281,8.5973,8.5973,0,0,0-1.7849-5.28c-2.2583-3.1657-5.6637-5.4833-8.8385-8.2212l1.8517-1.131a12.66,12.66,0,0,1,.4492,2.7892,5.6648,5.6648,0,0,1-.1821,1.56l-.0879.3116-.1556.4185a6.0108,6.0108,0,0,1-.3294.6855,20.9074,20.9074,0,0,1-3.5308,4.08,9.0725,9.0725,0,0,0-.76.9224,5.7089,5.7089,0,0,0-.604.9793,4.6268,4.6268,0,0,0-.4775,2.2C39.1064,143.452,40.1568,144.926,41.2168,146.2754Z" transform="translate(-4.1022 -4.8531)"/><path class="cls-9" d="M39.8208,32.0665a7.138,7.138,0,0,1-.7766-.3431,3.7438,3.7438,0,0,1-1.8857-3.5517,6.2665,6.2665,0,0,1,.3746-1.7744c.4039-1.1113.9212-2.0591,1.3223-2.9266a12.8053,12.8053,0,0,0,.4963-1.2639,4.0266,4.0266,0,0,0,.2465-1.2556c-.0284-.5032-.0482-.8443-.11-1.3456-.0659-.467-.1293-.9058-.1887-1.3132-.2586-1.6443-.3755-2.8105-.3755-2.8105a13.5121,13.5121,0,0,1,1.6694,2.3669,12.1539,12.1539,0,0,1,.658,1.2443,8.2661,8.2661,0,0,1,.5887,1.5781,5.8175,5.8175,0,0,1,.2059,1.9382,6.1819,6.1819,0,0,1-.3936,1.9317,17.507,17.507,0,0,1-1.4875,2.9834,9.0858,9.0858,0,0,0-.554,1.08,2.9523,2.9523,0,0,0-.27.9281,3.2947,3.2947,0,0,0,.0207.9217,5.571,5.571,0,0,0,.1964.8175A7.0377,7.0377,0,0,1,39.8208,32.0665Z" transform="translate(-4.1022 -4.8531)"/><path class="cls-9" d="M46.603,32.7026s-.352-.3188-.8947-.9224a7.7193,7.7193,0,0,1-1.5384-3.176,11.4472,11.4472,0,0,1,.102-4.9764c.386-1.7195.9259-3.388,1.3525-5.0118.1952-.8175.4-1.6182.5189-2.4216.08-.3971.1048-.799.1653-1.1951l.0708-.5349-.0265-.6342c-.0265-1.7121-.202-3.1415-.2907-4.4862-.2567-2.6682-.36-4.4909-.36-4.4909a34.6407,34.6407,0,0,1,1.69,4.2155A32.14,32.14,0,0,1,48.59,13.6163l.1143.6287.0821.7487a7.8963,7.8963,0,0,1,.0632,1.4118,13.399,13.399,0,0,1-.2992,2.8466,38.9568,38.9568,0,0,1-1.4959,5.1029,16.4458,16.4458,0,0,0-.94,4.0725,11.2846,11.2846,0,0,0,.2056,3.0337C46.5247,32.2377,46.603,32.7026,46.603,32.7026Z" transform="translate(-4.1022 -4.8531)"/><path class="cls-9" d="M53.9136,32.7026a6.79,6.79,0,0,1-.7747-.3423A3.6427,3.6427,0,0,1,51.5278,30.55a3.7177,3.7177,0,0,1-.2785-1.7391,6.325,6.325,0,0,1,.3738-1.7755c.402-1.114.921-2.0608,1.3223-2.9267a12.2234,12.2234,0,0,0,.4964-1.2646,4.0408,4.0408,0,0,0,.2462-1.2575c-.0272-.5032-.05-.8407-.11-1.3466-.0651-.4677-.1264-.9067-.1859-1.3122-.2606-1.6443-.3794-2.8115-.3794-2.8115a13.7073,13.7073,0,0,1,1.6733,2.3669,12.1167,12.1167,0,0,1,.656,1.2472,8.059,8.059,0,0,1,.587,1.5762,5.8347,5.8347,0,0,1,.21,1.941,6.0749,6.0749,0,0,1-.3965,1.9289,17.4837,17.4837,0,0,1-1.4844,2.987A9.1784,9.1784,0,0,0,53.7,29.24a2.759,2.759,0,0,0-.2652.929,3.2828,3.2828,0,0,0,.017.9244,5.5631,5.5631,0,0,0,.1981.8155A7.5511,7.5511,0,0,1,53.9136,32.7026Z" transform="translate(-4.1022 -4.8531)"/><path class="cls-9" d="M24.0718,92.4539s-.01-.4391.0292-1.19a10.98,10.98,0,0,1,.4616-3.0421,17.4826,17.4826,0,0,1,1.81-4.1551c.4388-.678.8155-1.4527,1.343-2.1185.5389-.6584,1.0826-1.3272,1.6291-1.9968a30.5609,30.5609,0,0,1,3.6968-3.4364A23.8015,23.8015,0,0,1,36.76,74.133a14.9972,14.9972,0,0,1,2.8974-1.2368c.7306-.2307,1.1592-.3293,1.1592-.3293s-.2635.3664-.7438.9429c-.48.5526-1.1628,1.3468-1.981,2.2953-.8391.9-1.746,2.0117-2.7965,3.0941-.537.53-.9835,1.182-1.5469,1.7307a22.7212,22.7212,0,0,0-1.5893,1.7679c-1.09,1.1645-2.1227,2.3594-3.0617,3.5043-.4577.5785-1.0174,1.0927-1.3628,1.6256-.3766.5291-.7891,1.0165-1.178,1.4788-.8087.902-1.2751,1.9259-1.7564,2.495C24.3577,92.1154,24.0718,92.4539,24.0718,92.4539Z" transform="translate(-4.1022 -4.8531)"/><rect class="cls-12" y="175.2266" width="120.5444" height="9.8747"/><path class="cls-4" d="M18.4523,94.4291c-.0122.3442-.06.6817-.06,1.0287,0-.3479.0481-.6835.06-1.0287Z" transform="translate(-4.1022 -4.8531)"/><path class="cls-4" d="M74.1987,94.4291h0c.0132.3452.06.6808.06,1.0287C74.259,95.1108,74.21,94.7733,74.1987,94.4291Z" transform="translate(-4.1022 -4.8531)"/><path class="cls-5" d="M72.717,95.4578A26.2328,26.2328,0,0,1,46.3256,121.465c-.0379,0-.0746-.0056-.1125-.0056v1.52c.0379,0,.0746.0056.1125.0056A27.7324,27.7324,0,0,0,74.259,95.4578c0-.3479-.0471-.6835-.06-1.0287h-1.54C72.6716,94.7733,72.717,95.1118,72.717,95.4578Z" transform="translate(-4.1022 -4.8531)"/><path class="cls-4" d="M19.9333,95.4578c0-.346.0452-.6845.0584-1.0287H18.4523c-.0122.3452-.06.6808-.06,1.0287a27.7251,27.7251,0,0,0,27.8211,27.5213v-1.52A26.2256,26.2256,0,0,1,19.9333,95.4578Z" transform="translate(-4.1022 -4.8531)"/><path class="cls-4" d="M35.8824,36.7073a4.3988,4.3988,0,1,0,0,8.7967H36.22V60.8062c0,4.06-4.2177,8.795-8.1657,11.8742A28.7229,28.7229,0,0,0,16.85,95.4578a29.2917,29.2917,0,0,0,29.3634,29.0409v-1.52A27.7251,27.7251,0,0,1,18.392,95.4578c0-.347.0481-.6845.06-1.0287H46.2131V36.7073Z" transform="translate(-4.1022 -4.8531)"/><path class="cls-12" d="M101.1346,113.5964a2.7833,2.7833,0,0,1-2.805,2.764H15.672a2.7848,2.7848,0,0,1-2.806-2.764h0a2.7841,2.7841,0,0,1,2.806-2.7631H98.33a2.7825,2.7825,0,0,1,2.805,2.7631Z" transform="translate(-4.1022 -4.8531)"/><rect class="cls-12" x="90.8676" y="33.3718" width="6.1648" height="141.8549"/><ellipse class="cls-11" cx="93.952" cy="108.7433" rx="11.1783" ry="11.0148"/><path class="cls-12" d="M98.0542,126.462a12.867,12.867,0,1,1,13.0545-12.8656A12.98,12.98,0,0,1,98.0542,126.462Zm0-22.0307a9.1666,9.1666,0,1,0,9.302,9.1651A9.244,9.244,0,0,0,98.0542,104.4313Z" transform="translate(-4.1022 -4.8531)"/><path class="cls-8" d="M47.9413,86.1987a2.469,2.469,0,1,0,2.5078,2.47A2.4889,2.4889,0,0,0,47.9413,86.1987Zm.0435,4.3208a1.7684,1.7684,0,0,1-1.5687-.97,1.7775,1.7775,0,0,0,1.2355.4994,1.76,1.76,0,0,0,1.7744-1.7466,1.7057,1.7057,0,0,0-.2059-.782,1.7213,1.7213,0,0,1,.537,1.25A1.76,1.76,0,0,1,47.9848,90.52Z" transform="translate(-4.1022 -4.8531)"/><path class="cls-13" d="M51.9391,172.5022c-6.2-5.18-9.4058-11.463-8.8018-17.2466a44.6829,44.6829,0,0,1,1.1507-5.9232,28.4883,28.4883,0,0,0,1.15-7.9311l3.0823-.1265a31.214,31.214,0,0,1-1.2326,8.7606,41.1708,41.1708,0,0,0-1.0824,5.5344c-.71,6.77,5.1653,12.474,7.7268,14.6148Z" transform="translate(-4.1022 -4.8531)"/></svg>