<svg fill="#1FA2FF" height="389pt" viewBox="0 -3 389.12 389" width="389pt" xmlns="http://www.w3.org/2000/svg"><path d="m64.851562 232.167969h53.476563c3.773437 0 6.828125-3.058594 6.828125-6.828125 0-3.769532-3.054688-6.828125-6.828125-6.828125h-53.476563c-28.230468 0-51.199218-22.964844-51.199218-51.199219 0-26.285156 19.691406-48.171875 45.796875-50.910156 2.144531-.222656 4.054687-1.445313 5.15625-3.292969 1.101562-1.851563 1.265625-4.109375.445312-6.097656-2.398437-5.808594-3.609375-11.929688-3.609375-18.203125 0-26.351563 21.4375-47.789063 47.785156-47.789063 13.34375 0 26.199219 5.695313 35.257813 15.625 1.457031 1.597657 3.5625 2.453125 5.734375 2.183594 2.152344-.214844 4.066406-1.441406 5.171875-3.300781 15.585937-26.179688 42.984375-41.8125 73.300781-41.8125 47.054688 0 85.335938 38.277344 85.335938 85.332031 0 3.019531-.195313 6.183594-.589844 9.671875-.230469 2.019531.714844 4.011719 2.121094 5.476562 1.40625 1.464844 3.632812 2.179688 5.679687 2.066407 1.003907-.070313 2.003907-.148438 3.027344-.148438 28.234375 0 51.199219 22.964844 51.199219 51.199219s-22.964844 51.199219-51.199219 51.199219h-78.503906c-3.773438 0-6.828125 3.058593-6.828125 6.828125 0 3.769531 3.054687 6.828125 6.828125 6.828125h78.503906c35.761719 0 64.855469-29.09375 64.855469-64.855469 0-34.640625-27.300782-63.019531-61.511719-64.765625.046875-1.1875.070313-2.351563.070313-3.5 0-54.578125-44.40625-98.9882812-98.988282-98.9882812-31.828125 0-61.910156 15.6796872-80.394531 41.4101562-10.949219-9.042969-24.789063-14.101562-39.070313-14.101562-33.878906 0-61.441406 27.5625-61.441406 61.441406 0 5.238281.660156 10.402344 1.96875 15.421875-28.882812 6.828125-49.753906 32.621093-49.753906 63.082031 0 35.761719 29.09375 64.855469 64.851562 64.855469zm0 0"/><path d="m177.492188 327.738281c3.769531 0 6.828124-3.054687 6.828124-6.824219v-177.492187h55.582032c3.054687 11.742187 13.652344 20.476563 26.335937 20.476563 15.058594 0 27.308594-12.25 27.308594-27.304688s-12.25-27.308594-27.308594-27.308594c-12.683593 0-23.28125 8.738282-26.335937 20.480469h-62.410156c-3.769532 0-6.824219 3.058594-6.824219 6.828125v177.492188h-136.535157v-21.449219c11.742188-3.050781 20.480469-13.652344 20.480469-26.335938 0-15.058593-12.25-27.308593-27.304687-27.308593-15.058594 0-27.308594 12.25-27.308594 27.308593 0 12.683594 8.738281 23.285157 20.480469 26.335938v28.277343c0 3.769532 3.054687 6.824219 6.828125 6.824219zm88.746093-204.796875c7.53125 0 13.65625 6.121094 13.65625 13.652344s-6.125 13.652344-13.65625 13.652344c-7.527343 0-13.652343-6.121094-13.652343-13.652344s6.125-13.652344 13.652343-13.652344zm-252.585937 143.359375c0-7.53125 6.125-13.652343 13.65625-13.652343 7.527344 0 13.652344 6.121093 13.652344 13.652343 0 7.527344-6.125 13.652344-13.652344 13.652344-7.53125 0-13.65625-6.125-13.65625-13.652344zm0 0"/><path d="m102.398438 266.300781c-3.769532 0-6.824219 3.054688-6.824219 6.824219 0 3.773438 3.054687 6.828125 6.824219 6.828125h47.789062c3.769531 0 6.824219-3.054687 6.824219-6.828125v-81.917969c0-1.597656-.558594-3.144531-1.582031-4.371093l-29.90625-35.886719c2.609374-4.183594 4.183593-9.074219 4.183593-14.359375 0-15.054688-12.25-27.304688-27.308593-27.304688-15.054688 0-27.304688 12.25-27.304688 27.304688 0 15.058594 12.25 27.308594 27.304688 27.308594 4.808593 0 9.261718-1.355469 13.191406-3.546876l27.769531 33.324219v72.625zm-13.652344-129.707031c0-7.53125 6.125-13.652344 13.652344-13.652344 7.53125 0 13.65625 6.121094 13.65625 13.652344 0 2.640625-.789063 5.082031-2.089844 7.175781-.808594.261719-1.589844.65625-2.28125 1.234375-1.007813.835938-1.59375 1.933594-1.984375 3.085938-2.113281 1.347656-4.609375 2.15625-7.300781 2.15625-7.527344 0-13.652344-6.121094-13.652344-13.652344zm0 0"/><path d="m368.640625 266.300781h-143.359375v-55.582031c11.742188-3.054688 20.480469-13.652344 20.480469-26.339844 0-15.054687-12.253907-27.304687-27.308594-27.304687s-27.304687 12.25-27.304687 27.304687c0 12.6875 8.734374 23.285156 20.476562 26.339844v62.40625c0 3.773438 3.058594 6.828125 6.828125 6.828125h150.1875c3.769531 0 6.824219-3.054687 6.824219-6.828125 0-3.769531-3.054688-6.824219-6.824219-6.824219zm-163.839844-81.921875c0-7.527344 6.121094-13.652344 13.652344-13.652344s13.652344 6.125 13.652344 13.652344c0 7.53125-6.121094 13.65625-13.652344 13.65625s-13.652344-6.125-13.652344-13.65625zm0 0"/><path d="m361.8125 348.21875h-50.652344l-25.339844-44.34375c-1.214843-2.128906-3.476562-3.441406-5.925781-3.441406h-61.441406c-3.769531 0-6.828125 3.054687-6.828125 6.828125 0 3.769531 3.058594 6.824219 6.828125 6.824219h57.480469l25.339844 44.347656c1.210937 2.125 3.476562 3.441406 5.925781 3.441406h54.613281c3.769531 0 6.828125-3.058594 6.828125-6.828125s-3.058594-6.828125-6.828125-6.828125zm0 0"/><path d="m273.066406 348.21875h-21.449218c-3.054688-11.742188-13.652344-20.480469-26.335938-20.480469-12.6875 0-23.285156 8.738281-26.339844 20.480469h-164.808594c-3.769531 0-6.824218 3.058594-6.824218 6.828125s3.054687 6.828125 6.824218 6.828125h164.808594c3.054688 11.742188 13.652344 20.476562 26.339844 20.476562 12.683594 0 23.28125-8.734374 26.335938-20.476562h21.449218c3.769532 0 6.828125-3.058594 6.828125-6.828125s-3.058593-6.828125-6.828125-6.828125zm-47.785156 20.480469c-7.53125 0-13.65625-6.121094-13.65625-13.652344s6.125-13.652344 13.65625-13.652344c7.527344 0 13.652344 6.121094 13.652344 13.652344s-6.125 13.652344-13.652344 13.652344zm0 0"/></svg>