<svg xmlns="http://www.w3.org/2000/svg" width="19.76mm" height="27.8mm" viewBox="0 0 56.02 78.8"><title>Coffee</title><g style="isolation:isolate"><g id="Layer_1" data-name="Layer 1"><path d="M326.28,414.56v-6.69H286.74V456h39.54v-8.44a16.48,16.48,0,1,0,0-32.95Zm0,27.05V420.46a10.58,10.58,0,1,1,0,21.15Z" transform="translate(-286.74 -377.16)" style="fill:#4e9ad4"/><path d="M326.28,414.56v-6.69H312.87V456h13.41v-8.44a16.48,16.48,0,0,0,0-32.95Zm0,27.05V420.46a10.58,10.58,0,0,1,0,21.15Z" transform="translate(-286.74 -377.16)" style="fill:#ccc;opacity:0.45;mix-blend-mode:multiply"/><path d="M289.5,420.08v11.8a.76.76,0,0,0,.76.76h11.55a.76.76,0,0,0,.76-.76v-11.8a.81.81,0,0,0-.21-.53l0,0-4.84-4.95h-2.89l-4.84,4.95,0,0A.77.77,0,0,0,289.5,420.08Z" transform="translate(-286.74 -377.16)" style="fill:#64cae1"/><rect x="4.21" y="43.73" width="9.9" height="10.09" rx="0.76" style="fill:#2a3136"/><rect y="30.71" width="39.54" height="1.63" style="fill:#e5e5e5"/><path d="M296.85,414.87c-.45-1-1.82-3.92,1.25-3.3a10.74,10.74,0,0,0,2.75.44,2.29,2.29,0,0,0,2.29-1.77c.33-2.64-3.15-3.81-5.09-3-1,.43-.1,1.09.65.77,1.09-.47,2.21.6,2.66,1.51.91,1.87-1.2,1.36-2.32,1.07a3.73,3.73,0,0,0-3.62.82c-1.22,1.26-.81,2.39-.14,3.85.28.62,1.83.14,1.57-.42Z" transform="translate(-286.74 -377.16)" style="fill:#fff"/><g style="opacity:0.74"><path d="M316.68,390.46c-2.35,5.34-18.23,4.83-17,11.76a5.11,5.11,0,0,1-1.86-5.52c1.09-2.44,5-3.39,7.19-4.34,3.13-1.36,6.52-2.31,6.25-6.52-.34-3.44-3.12-6.88-6.19-8.68a16.23,16.23,0,0,1,9.08,4.1C316.45,383.3,318.25,386.89,316.68,390.46Z" transform="translate(-286.74 -377.16)" style="fill:#f3f3f3"/></g><g style="opacity:0.74"><path d="M315.06,400.57c-1.76.68-7.55,2.76-9,5.38-1.35-.78-2.54-1.81-2.54-3.07,0-2.71,3.67-3.53,5.57-4.07,4.39-1.47,9.32-2.72,10.38-7.48C320.21,395.59,320.29,398.55,315.06,400.57Z" transform="translate(-286.74 -377.16)" style="fill:#f3f3f3"/></g></g></g></svg>