<svg id="Layer_1" data-name="Layer 1" xmlns="http://www.w3.org/2000/svg" width="120" height="120" viewBox="0 0 120 120"><title>directionals</title><rect width="120" height="120" style="fill:none"/><g id="icon"><path d="M427.56,43.27h23.89V32H427.56l-5.26,5.63Z" transform="translate(-392)" style="fill:#1fa2ff"/><path d="M476.44,43.27H453.49V32h22.95l5.26,5.63Z" transform="translate(-392)" style="fill:#3f51b5"/><path d="M476.44,58.68H453.49V47.43h22.95l5.26,5.63Z" transform="translate(-392)" style="fill:#4094bf"/><path d="M450.13,27.55h4.31V91.2h-4.31Z" transform="translate(-392)" style="fill:#fff"/><rect x="56.07" y="19.92" width="8.51" height="8.51" rx="1.09" style="fill:#fff"/><path d="M448.81,87h6.87v7.9h-6.87Z" transform="translate(-392)" style="fill:#fff"/><path d="M444.79,93.91H460a3.51,3.51,0,0,1,3.51,3.5v1H441.28v-1a3.51,3.51,0,0,1,3.51-3.5Z" transform="translate(-392)" style="fill:#fff"/></g></svg>