<svg id="Layer_1" data-name="Layer 1" xmlns="http://www.w3.org/2000/svg" width="100" height="100" viewBox="0 0 100 100"><title>drama</title><circle cx="50" cy="50" r="50" style="fill:#dbd8dd"/><path d="M488.76,83.25,454.51,48.76s0,0-.07-.07l-.11-.11A14.49,14.49,0,0,0,429.74,59c0,.26,0,.52,0,.78l-4.54-4.52a11.39,11.39,0,0,0-1.77-1.77l0,0a11.72,11.72,0,0,0-15.91,17.14h0l.28.29.28.27,6.36,6.33v17.4a4.55,4.55,0,0,0,1.2,3.07,2.47,2.47,0,0,0,.28.28l23.73,23.73h.42A50,50,0,0,0,488.76,83.25Z" transform="translate(-390.06 -21.94)" style="opacity:0.10000000149011612;isolation:isolate"/><path d="M458.71,77.9h7.57V88.63h-7.57Z" transform="translate(-390.06 -21.94)" style="fill:#293b44"/><path d="M456.84,67.12H419a4.56,4.56,0,0,0-4.56,4.56V94.84A4.57,4.57,0,0,0,419,99.41h37.85a4.57,4.57,0,0,0,4.57-4.57V71.68A4.56,4.56,0,0,0,456.84,67.12Z" transform="translate(-390.06 -21.94)" style="fill:#344d5b"/><path d="M475.74,93.26,465,88.63V77.9l10.73-4.63Z" transform="translate(-390.06 -21.94)" style="fill:#467082"/><path d="M444.22,44.48A14.49,14.49,0,1,0,458.71,59,14.48,14.48,0,0,0,444.22,44.48Zm-8.1,17.59A3.11,3.11,0,1,1,439.23,59,3.1,3.1,0,0,1,436.12,62.07Zm8.1,8.1a3.11,3.11,0,1,1,3.11-3.11A3.1,3.1,0,0,1,444.22,70.17Zm0-16.21a3.1,3.1,0,1,1,3.11-3.1A3.1,3.1,0,0,1,444.22,54Zm8.11,8.11a3.11,3.11,0,1,1,3.1-3.11A3.11,3.11,0,0,1,452.33,62.07Z" transform="translate(-390.06 -21.94)" style="fill:#467082"/><path d="M444.23,56.89A2.08,2.08,0,1,0,446.31,59,2.08,2.08,0,0,0,444.23,56.89Z" transform="translate(-390.06 -21.94)" style="fill:#cd5248"/><path d="M416.11,50.86a11.74,11.74,0,1,0,11.74,11.73A11.73,11.73,0,0,0,416.11,50.86Zm-6.56,14.25a2.52,2.52,0,1,1,2.51-2.52A2.52,2.52,0,0,1,409.55,65.11Zm6.56,6.56a2.52,2.52,0,1,1,2.52-2.52A2.51,2.51,0,0,1,416.11,71.67Zm0-13.13A2.51,2.51,0,1,1,418.63,56,2.51,2.51,0,0,1,416.11,58.54Zm6.57,6.57a2.52,2.52,0,1,1,2.51-2.52A2.52,2.52,0,0,1,422.68,65.11Z" transform="translate(-390.06 -21.94)" style="fill:#467082"/><path d="M416.11,60.91a1.69,1.69,0,1,0,1.68,1.68A1.68,1.68,0,0,0,416.11,60.91Z" transform="translate(-390.06 -21.94)" style="fill:#cd5248"/></svg>