<svg id="Layer_1" data-name="Layer 1" xmlns="http://www.w3.org/2000/svg" width="183.8816" height="210.8553" viewBox="0 0 183.8816 210.8553"><defs><style>.cls-1{fill:#373f44;}.cls-2{fill:#f3f3f3;}.cls-3{fill:#ccc;}.cls-4{fill:#010101;}.cls-5{fill:#ffce68;}.cls-6{fill:#df915e;}.cls-7{fill:#2d2f37;}.cls-8{fill:#f9e0ba;}.cls-9{fill:#231f20;}.cls-10{fill:#dec5a5;}.cls-11{fill:#fefbea;}.cls-12{fill:#eeeded;}.cls-13{fill:#535861;}.cls-14{fill:#ccae8c;}</style></defs><title>drama</title><rect class="cls-1" width="183.8816" height="210.8553"/><rect class="cls-2" x="75.5078" y="46.8805" width="99.6017" height="136.4054" rx="4"/><rect class="cls-3" x="86.0263" y="127.0113" width="69.0324" height="4.0138" rx="1.8818"/><rect class="cls-3" x="85.379" y="86.1565" width="69.0324" height="4.0138" rx="1.8818"/><path class="cls-4" d="M110.2512,71.0542v-7.84h1.999a2.8893,2.8893,0,0,1,2.7315,1.7393,4.5607,4.5607,0,0,1,.3916,1.9169v.501a4.58,4.58,0,0,1-.3868,1.9439,2.9025,2.9025,0,0,1-1.1045,1.2817,3.1657,3.1657,0,0,1-1.6709.4575Zm.9336-6.9946V70.209h.9824a2.0386,2.0386,0,0,0,1.6807-.7436,3.2909,3.2909,0,0,0,.6015-2.1182v-.4585a3.3515,3.3515,0,0,0-.5674-2.0772,1.9314,1.9314,0,0,0-1.6074-.7519Z"/><path class="cls-4" d="M119.382,67.8828h-1.664v3.1714H116.78v-7.84h2.3447a2.5924,2.5924,0,0,1,1.8408.6035,2.6019,2.6019,0,0,1,.2872,3.0313,2.1638,2.1638,0,0,1-.9952.8129l1.6641,3.3282v.0644h-1.0019Zm-1.664-.8457h1.4355a1.5222,1.5222,0,0,0,1.1065-.3989,1.423,1.423,0,0,0,.4111-1.0684,1.5062,1.5062,0,0,0-.3916-1.1166,1.5575,1.5575,0,0,0-1.1309-.3936H117.718Z"/><path class="cls-4" d="M126.8293,69.0025h-2.9668l-.667,2.0517h-.9629l2.7041-7.84h.8174l2.71,7.84h-.958Zm-2.6855-.8452h2.4082l-1.2061-3.667Z"/><path class="cls-4" d="M130.6242,63.2139l2.3155,6.3975,2.3154-6.3975h1.2119v7.84h-.9346V68.001l.0879-3.2954-2.3252,6.3486H132.58l-2.3213-6.3325.0928,3.2793v3.0532h-.9336v-7.84Z"/><path class="cls-4" d="M142.1145,69.0025h-2.9668l-.667,2.0517h-.9629l2.7041-7.84h.8174l2.71,7.84h-.958Zm-2.6856-.8452h2.4082l-1.206-3.667Z"/><rect class="cls-3" x="84.7594" y="106.96" width="69.0324" height="4.0138" rx="1.8818"/><path class="cls-5" d="M126.916,141.7169a59.958,59.958,0,1,1-59.9577-59.96A59.9579,59.9579,0,0,1,126.916,141.7169Z"/><path class="cls-6" d="M107.3238,123.429H45.3149l-.0772-.1284-2.1458-2.4713,3.904-.6868L57.17,118.3532l9.5842-1.6863,10.1742-1.7908,9.586-1.6854,10.1742-1.7893,9.5152-1.6738-.012-.0772-1.5011-8.5216.0015,0-.1541-.8711h-.0009l-.09-.5105-8.9162,1.5686-9.5861,1.6861-10.1745,1.789-9.5838,1.6867-10.1724,1.79-9.5859,1.6846-10.1747,1.7918-2.228.3917a4.2619,4.2619,0,0,0-1.1036-.0771l-2.3962.1631a3.7351,3.7351,0,0,0-2.1629.91l-1.6953.2982-.0761.013.3491,1.9819a4.5576,4.5576,0,0,0-.1487,1.143v13.3982a4.3479,4.3479,0,0,0,1.4815,3.3113v.2875h.3827a3.6062,3.6062,0,0,0,1.5684.5831v47.599a2.4558,2.4558,0,0,0,2.4565,2.4571h69.81a2.4563,2.4563,0,0,0,2.4558-2.4571v-47.701a2.4371,2.4371,0,0,0-.0479-.4811h2.4245Z"/><path class="cls-7" d="M29.2318,127.38H99.0409a2.4558,2.4558,0,0,1,2.4558,2.4558v47.7025a2.4574,2.4574,0,0,1-2.4574,2.4574H29.2308a2.4563,2.4563,0,0,1-2.4563-2.4563v-47.702A2.4573,2.4573,0,0,1,29.2318,127.38Z"/><rect class="cls-8" x="35.4267" y="169.7585" width="55.8033" height="0.7807"/><rect class="cls-8" x="76.122" y="170.5392" width="0.7833" height="6.2447"/><rect class="cls-8" x="49.7534" y="170.5392" width="0.7814" height="6.2447"/><path class="cls-9" d="M63.5171,136.2942A14.2227,14.2227,0,1,0,77.7383,150.517,14.2241,14.2241,0,0,0,63.5171,136.2942Zm0,26.5279A12.3047,12.3047,0,1,1,75.8209,150.517,12.3064,12.3064,0,0,1,63.5171,162.8221Z"/><path class="cls-8" d="M49.5522,150.517a13.9642,13.9642,0,1,0,13.9649-13.9649A13.98,13.98,0,0,0,49.5522,150.517Zm1.4027,0a12.5615,12.5615,0,1,1,12.5622,12.5619A12.5765,12.5765,0,0,1,50.9549,150.517Z"/><path class="cls-9" d="M71.7955,151.3286a.8578.8578,0,0,0,0-1.6237l-4.6888-2.7077c-.7722-.4478-2.0394-1.177-2.8125-1.6242l-4.6892-2.7074c-.7726-.4466-1.4061-.0807-1.4061.8134v14.0773c0,.8932.6335,1.2566,1.4061.81l4.6892-2.7052c.7731-.4469,2.04-1.1789,2.8125-1.6264Z"/><path class="cls-8" d="M58.74,142.7923a.7569.7569,0,0,0-.2837.6867v14.0773a.6088.6088,0,0,0,1.02.5866l4.6895-2.7046,7.501-4.3323a.61.61,0,0,0,0-1.1786l-12.1895-7.0383A.757.757,0,0,0,58.74,142.7923Z"/><path class="cls-10" d="M49.6113,149.335c.5159-.3769,1.0343-.75,1.5635-1.1123a12.5439,12.5439,0,0,1,18.3929-8.7082c.6052-.179,1.2128-.3545,1.8272-.5174A13.9447,13.9447,0,0,0,49.6113,149.335Z"/><path class="cls-10" d="M58.74,142.7923a.7569.7569,0,0,0-.2837.6867v.4395q.7525-.3795,1.517-.7434l-.4963-.286A.757.757,0,0,0,58.74,142.7923Z"/><polygon class="cls-8" points="92.081 97.108 102.741 105.443 102.753 105.52 93.238 107.194 82.495 98.794 92.081 97.108"/><polygon class="cls-8" points="52.564 104.06 63.304 112.459 53.72 114.146 42.978 105.744 52.564 104.06"/><polygon class="cls-8" points="32.803 107.536 43.545 115.935 33.961 117.621 23.218 109.222 32.803 107.536"/><polygon class="cls-8" points="72.32 100.583 83.064 108.983 73.477 110.669 62.737 102.27 72.32 100.583"/><polygon class="cls-7" points="100.997 95.54 102.741 105.443 92.081 97.108 100.997 95.54"/><polygon class="cls-7" points="82.495 98.794 93.238 107.194 83.064 108.983 72.32 100.583 82.495 98.794"/><polygon class="cls-7" points="62.737 102.27 73.477 110.669 63.304 112.459 52.564 104.06 62.737 102.27"/><polygon class="cls-7" points="42.978 105.744 53.72 114.146 43.545 115.935 32.803 107.536 42.978 105.744"/><polygon class="cls-7" points="23.141 109.235 23.218 109.222 33.961 117.621 24.9 119.216 23.141 109.235"/><polygon class="cls-11" points="92.646 97.534 93.584 98.268 84 99.954 83.06 99.22 92.646 97.534"/><polygon class="cls-11" points="72.886 101.011 73.827 101.744 64.241 103.43 63.302 102.696 72.886 101.011"/><polygon class="cls-11" points="53.129 104.486 54.067 105.22 44.481 106.905 43.545 106.173 53.129 104.486"/><polygon class="cls-12" points="33.371 107.963 34.306 108.695 24.72 110.382 23.783 109.648 33.371 107.963"/><polygon class="cls-13" points="101.087 96.05 101.242 96.921 93.584 98.268 92.646 97.534 101.087 96.05"/><polygon class="cls-13" points="83.06 99.22 84 99.954 73.827 101.744 72.886 101.011 83.06 99.22"/><polygon class="cls-13" points="63.302 102.696 64.241 103.43 54.067 105.22 53.129 104.486 63.302 102.696"/><polygon class="cls-13" points="43.545 106.173 44.481 106.905 34.306 108.695 33.371 107.963 43.545 106.173"/><polygon class="cls-13" points="24.72 110.382 23.388 110.616 23.233 109.745 23.783 109.648 24.72 110.382"/><polygon class="cls-8" points="33.876 119.222 24.823 129.278 24.823 129.357 34.485 129.357 43.607 119.222 33.876 119.222"/><polygon class="cls-8" points="74.002 119.222 64.876 129.357 74.608 129.357 83.736 119.222 74.002 119.222"/><polygon class="cls-8" points="94.062 119.222 84.94 129.357 94.672 129.357 103.795 119.222 94.062 119.222"/><polygon class="cls-8" points="53.939 119.222 44.814 129.357 54.547 129.357 63.671 119.222 53.939 119.222"/><polygon class="cls-7" points="43.607 119.222 34.485 129.357 44.814 129.357 53.939 119.222 43.607 119.222"/><polygon class="cls-7" points="63.671 119.222 54.547 129.357 64.876 129.357 74.002 119.222 63.671 119.222"/><polygon class="cls-7" points="83.736 119.222 74.608 129.357 84.94 129.357 94.062 119.222 83.736 119.222"/><polygon class="cls-7" points="103.873 119.222 103.795 119.222 94.672 129.357 103.873 129.357 103.873 119.222"/><polygon class="cls-12" points="33.394 119.74 32.596 120.626 42.328 120.626 43.125 119.74 33.394 119.74"/><polygon class="cls-11" points="53.457 119.74 52.66 120.626 62.391 120.626 63.188 119.74 53.457 119.74"/><polygon class="cls-11" points="73.519 119.74 72.723 120.626 82.454 120.626 83.252 119.74 73.519 119.74"/><polygon class="cls-11" points="93.581 119.74 92.783 120.626 102.516 120.626 103.313 119.74 93.581 119.74"/><polygon class="cls-13" points="43.125 119.74 42.328 120.626 52.66 120.626 53.457 119.74 43.125 119.74"/><polygon class="cls-13" points="63.188 119.74 62.391 120.626 72.723 120.626 73.519 119.74 63.188 119.74"/><polygon class="cls-13" points="83.252 119.74 82.454 120.626 92.783 120.626 93.581 119.74 83.252 119.74"/><polygon class="cls-13" points="102.516 120.626 103.873 120.626 103.873 119.74 103.313 119.74 102.516 120.626"/><path class="cls-13" d="M29.4318,107.8508l-2.3962.1631a4.2692,4.2692,0,0,0-3.734,4.3458V125.758a4.0435,4.0435,0,0,0,3.8493,4.2074H39.4094a4.0461,4.0461,0,0,0,3.8511-4.2074v-1.2565a11.78,11.78,0,0,0-1.4249-5.26l-.0887-.148-7.7-8.8686.1986.2754A5.5856,5.5856,0,0,0,29.4318,107.8508Z"/><path class="cls-7" d="M27.1456,109.9226a2.4028,2.4028,0,0,0-2.0965,2.4371V125.758a2.2124,2.2124,0,0,0,2.1018,2.295H39.4094a2.21,2.21,0,0,0,2.1-2.295v-1.2565a9.7736,9.7736,0,0,0-1.143-4.22l-7.5886-8.7411a3.88,3.88,0,0,0-3.238-1.7826Z"/><path class="cls-14" d="M30.3385,113.3788a1.4,1.4,0,1,1-1.3964-1.5253A1.4646,1.4646,0,0,1,30.3385,113.3788Z"/><path class="cls-14" d="M30.3385,124.8453a1.4,1.4,0,1,1-1.3964-1.5234A1.4648,1.4648,0,0,1,30.3385,124.8453Z"/><path class="cls-14" d="M39.5966,124.8453a1.4,1.4,0,1,1-1.393-1.5234A1.4643,1.4643,0,0,1,39.5966,124.8453Z"/><rect class="cls-8" x="35.4267" y="131.556" width="54.8483" height="0.4961"/><path class="cls-8" d="M29.4555,113.1246a.6776.6776,0,1,1-.6719-.7649A.7229.7229,0,0,1,29.4555,113.1246Z"/><path class="cls-8" d="M29.3171,124.5811a.5612.5612,0,1,1-.5559-.6379A.6012.6012,0,0,1,29.3171,124.5811Z"/><path class="cls-8" d="M38.6432,124.5581a.6322.6322,0,1,1-.6323-.6323A.6322.6322,0,0,1,38.6432,124.5581Z"/></svg>