<svg id="Layer_1" data-name="Layer 1" xmlns="http://www.w3.org/2000/svg" width="183.88" height="210.86" viewBox="0 0 183.88 210.86"><defs><style>.cls-1{fill:none;}.cls-2{fill:#f3f3f3;}.cls-3{fill:#ccc;}.cls-4{fill:#010101;}.cls-5{fill:#ffce68;}.cls-6{fill:#df915e;}.cls-7{fill:#2d2f37;}.cls-8{fill:#f9e0ba;}.cls-9{fill:#231f20;}.cls-10{fill:#dec5a5;}.cls-11{fill:#fefbea;}.cls-12{fill:#eeeded;}.cls-13{fill:#535861;}.cls-14{fill:#ccae8c;}</style></defs><title>drama</title><rect class="cls-1" width="183.88" height="210.86"/><rect class="cls-2" x="75.51" y="46.88" width="99.6" height="136.41" rx="4"/><rect class="cls-3" x="86.03" y="127.01" width="69.03" height="4.01" rx="1.88"/><rect class="cls-3" x="85.38" y="86.16" width="69.03" height="4.01" rx="1.88"/><path class="cls-4" d="M110.25,71.05V63.21h2a2.88,2.88,0,0,1,1.63.46A2.94,2.94,0,0,1,115,65a4.51,4.51,0,0,1,.39,1.92v.5a4.66,4.66,0,0,1-.38,1.94,2.93,2.93,0,0,1-1.11,1.29,3.16,3.16,0,0,1-1.67.45Zm.93-7v6.15h1a2.05,2.05,0,0,0,1.68-.74,3.32,3.32,0,0,0,.6-2.12v-.46a3.36,3.36,0,0,0-.57-2.08,2,2,0,0,0-1.61-.75Z"/><path class="cls-4" d="M119.38,67.88h-1.66v3.17h-.94V63.21h2.34a2.63,2.63,0,0,1,1.85.61,2.3,2.3,0,0,1,.64,1.75,2.26,2.26,0,0,1-.36,1.28,2.2,2.2,0,0,1-1,.81L121.92,71v.06h-1ZM117.72,67h1.43a1.54,1.54,0,0,0,1.11-.4,1.44,1.44,0,0,0,.41-1.07,1.51,1.51,0,0,0-.39-1.12,1.54,1.54,0,0,0-1.13-.39h-1.43Z"/><path class="cls-4" d="M126.83,69h-3l-.66,2h-1l2.71-7.84h.81l2.71,7.84h-1Zm-2.69-.84h2.41l-1.2-3.67Z"/><path class="cls-4" d="M130.62,63.21l2.32,6.4,2.32-6.4h1.21v7.84h-.94V68l.09-3.29-2.32,6.34h-.72l-2.32-6.33.09,3.28v3h-.93V63.21Z"/><path class="cls-4" d="M142.11,69h-3l-.67,2h-1l2.7-7.84H141l2.71,7.84h-1Zm-2.68-.84h2.41l-1.21-3.67Z"/><rect class="cls-3" x="84.76" y="106.96" width="69.03" height="4.01" rx="1.88"/><path class="cls-5" d="M126.92,141.72a60,60,0,1,1-60-60A60,60,0,0,1,126.92,141.72Z"/><path class="cls-6" d="M107.32,123.43h-62l-.07-.13-2.15-2.47,3.91-.69,10.17-1.79,9.58-1.68,10.18-1.79,9.58-1.69,10.18-1.79,9.51-1.67v-.08l-1.5-8.52h0l-.15-.87h0l-.09-.51-8.92,1.57L86,103l-10.18,1.79-9.58,1.69L56,108.27,46.43,110l-10.18,1.79-2.22.4a3.83,3.83,0,0,0-1.11-.08l-2.39.16a3.77,3.77,0,0,0-2.17.91l-1.69.3h-.08l.35,2a4.83,4.83,0,0,0-.15,1.15V130a4.35,4.35,0,0,0,1.48,3.31v.28h.39a3.61,3.61,0,0,0,1.57.59v47.6a2.45,2.45,0,0,0,2.45,2.45h69.81a2.46,2.46,0,0,0,2.46-2.45v-47.7a2.63,2.63,0,0,0,0-.49h2.42Z"/><rect class="cls-7" x="26.77" y="127.38" width="74.72" height="52.62" rx="2.46"/><rect class="cls-8" x="35.43" y="169.76" width="55.8" height="0.78"/><rect class="cls-8" x="76.12" y="170.54" width="0.78" height="6.24"/><rect class="cls-8" x="49.75" y="170.54" width="0.78" height="6.24"/><path class="cls-9" d="M63.52,136.29a14.23,14.23,0,1,0,14.22,14.23A14.23,14.23,0,0,0,63.52,136.29Zm0,26.53a12.31,12.31,0,1,1,12.3-12.3A12.31,12.31,0,0,1,63.52,162.82Z"/><path class="cls-8" d="M49.55,150.52a14,14,0,1,0,14-14A14,14,0,0,0,49.55,150.52Zm1.4,0a12.57,12.57,0,1,1,12.57,12.56A12.58,12.58,0,0,1,51,150.52Z"/><path class="cls-9" d="M71.8,151.33a.86.86,0,0,0,0-1.63L67.11,147l-2.82-1.63-4.69-2.7c-.77-.45-1.4-.09-1.4.81v14.08c0,.89.63,1.25,1.4.81l4.69-2.71L67.11,154Z"/><path class="cls-8" d="M58.74,142.79a.78.78,0,0,0-.28.69v14.08a.61.61,0,0,0,1,.58l4.69-2.7,7.5-4.33a.78.78,0,0,0,.45-.59.76.76,0,0,0-.45-.59l-12.19-7A.77.77,0,0,0,58.74,142.79Z"/><path class="cls-10" d="M49.61,149.34l1.56-1.12a12.57,12.57,0,0,1,18.4-8.71c.6-.17,1.21-.35,1.82-.51a13.85,13.85,0,0,0-7.87-2.45A14,14,0,0,0,49.61,149.34Z"/><path class="cls-10" d="M58.74,142.79a.78.78,0,0,0-.28.69v.44l1.51-.74-.49-.29A.77.77,0,0,0,58.74,142.79Z"/><polygon class="cls-8" points="92.08 97.11 102.74 105.44 102.75 105.52 93.24 107.19 82.5 98.79 92.08 97.11"/><polygon class="cls-8" points="52.56 104.06 63.3 112.46 53.72 114.15 42.98 105.74 52.56 104.06"/><polygon class="cls-8" points="32.8 107.54 43.55 115.94 33.96 117.62 23.22 109.22 32.8 107.54"/><polygon class="cls-8" points="72.32 100.58 83.06 108.98 73.48 110.67 62.74 102.27 72.32 100.58"/><polygon class="cls-7" points="101 95.54 102.74 105.44 92.08 97.11 101 95.54"/><polygon class="cls-7" points="82.5 98.79 93.24 107.19 83.06 108.98 72.32 100.58 82.5 98.79"/><polygon class="cls-7" points="62.74 102.27 73.48 110.67 63.3 112.46 52.56 104.06 62.74 102.27"/><polygon class="cls-7" points="42.98 105.74 53.72 114.15 43.55 115.94 32.8 107.54 42.98 105.74"/><polygon class="cls-7" points="23.14 109.23 23.22 109.22 33.96 117.62 24.9 119.22 23.14 109.23"/><polygon class="cls-11" points="92.65 97.53 93.58 98.27 84 99.95 83.06 99.22 92.65 97.53"/><polygon class="cls-11" points="72.89 101.01 73.83 101.74 64.24 103.43 63.3 102.7 72.89 101.01"/><polygon class="cls-11" points="53.13 104.49 54.07 105.22 44.48 106.91 43.55 106.17 53.13 104.49"/><polygon class="cls-12" points="33.37 107.96 34.31 108.69 24.72 110.38 23.78 109.65 33.37 107.96"/><polygon class="cls-13" points="101.09 96.05 101.24 96.92 93.58 98.27 92.65 97.53 101.09 96.05"/><polygon class="cls-13" points="83.06 99.22 84 99.95 73.83 101.74 72.89 101.01 83.06 99.22"/><polygon class="cls-13" points="63.3 102.7 64.24 103.43 54.07 105.22 53.13 104.49 63.3 102.7"/><polygon class="cls-13" points="43.55 106.17 44.48 106.91 34.31 108.69 33.37 107.96 43.55 106.17"/><polygon class="cls-13" points="24.72 110.38 23.39 110.62 23.23 109.75 23.78 109.65 24.72 110.38"/><polygon class="cls-8" points="33.88 119.22 24.82 129.28 24.82 129.36 34.48 129.36 43.61 119.22 33.88 119.22"/><polygon class="cls-8" points="74 119.22 64.88 129.36 74.61 129.36 83.74 119.22 74 119.22"/><polygon class="cls-8" points="94.06 119.22 84.94 129.36 94.67 129.36 103.8 119.22 94.06 119.22"/><polygon class="cls-8" points="53.94 119.22 44.81 129.36 54.55 129.36 63.67 119.22 53.94 119.22"/><polygon class="cls-7" points="43.61 119.22 34.48 129.36 44.81 129.36 53.94 119.22 43.61 119.22"/><polygon class="cls-7" points="63.67 119.22 54.55 129.36 64.88 129.36 74 119.22 63.67 119.22"/><polygon class="cls-7" points="83.74 119.22 74.61 129.36 84.94 129.36 94.06 119.22 83.74 119.22"/><polygon class="cls-7" points="103.87 119.22 103.8 119.22 94.67 129.36 103.87 129.36 103.87 119.22"/><polygon class="cls-12" points="33.39 119.74 32.6 120.63 42.33 120.63 43.13 119.74 33.39 119.74"/><polygon class="cls-11" points="53.46 119.74 52.66 120.63 62.39 120.63 63.19 119.74 53.46 119.74"/><polygon class="cls-11" points="73.52 119.74 72.72 120.63 82.45 120.63 83.25 119.74 73.52 119.74"/><polygon class="cls-11" points="93.58 119.74 92.78 120.63 102.52 120.63 103.31 119.74 93.58 119.74"/><polygon class="cls-13" points="43.13 119.74 42.33 120.63 52.66 120.63 53.46 119.74 43.13 119.74"/><polygon class="cls-13" points="63.19 119.74 62.39 120.63 72.72 120.63 73.52 119.74 63.19 119.74"/><polygon class="cls-13" points="83.25 119.74 82.45 120.63 92.78 120.63 93.58 119.74 83.25 119.74"/><polygon class="cls-13" points="102.52 120.63 103.87 120.63 103.87 119.74 103.31 119.74 102.52 120.63"/><path class="cls-13" d="M29.43,107.85,27,108a4.27,4.27,0,0,0-3.74,4.35v13.4A4,4,0,0,0,27.15,130H39.41a4,4,0,0,0,3.85-4.21V124.5a11.8,11.8,0,0,0-1.42-5.26l-.09-.15-7.7-8.87.2.28A5.6,5.6,0,0,0,29.43,107.85Z"/><path class="cls-7" d="M27.15,109.92a2.41,2.41,0,0,0-2.1,2.44v13.4a2.21,2.21,0,0,0,2.1,2.29H39.41a2.21,2.21,0,0,0,2.1-2.29V124.5a9.77,9.77,0,0,0-1.14-4.22l-7.59-8.74a3.88,3.88,0,0,0-3.24-1.78Z"/><path class="cls-14" d="M30.34,113.38a1.4,1.4,0,1,1-1.4-1.53A1.47,1.47,0,0,1,30.34,113.38Z"/><path class="cls-14" d="M30.34,124.85a1.4,1.4,0,1,1-1.4-1.53A1.47,1.47,0,0,1,30.34,124.85Z"/><path class="cls-14" d="M39.6,124.85a1.4,1.4,0,1,1-1.4-1.53A1.47,1.47,0,0,1,39.6,124.85Z"/><rect class="cls-8" x="35.43" y="131.56" width="54.85" height="0.5"/><path class="cls-8" d="M29.46,113.12a.73.73,0,0,1-.68.77.77.77,0,1,1,.68-.77Z"/><path class="cls-8" d="M29.32,124.58a.61.61,0,0,1-.56.64.65.65,0,0,1,0-1.28A.61.61,0,0,1,29.32,124.58Z"/><path class="cls-8" d="M38.64,124.56a.63.63,0,1,1-.63-.63A.63.63,0,0,1,38.64,124.56Z"/></svg>