<svg id="Layer_1" data-name="Layer 1" xmlns="http://www.w3.org/2000/svg" width="100" height="100" viewBox="0 0 100 100"><title>economics</title><circle cx="50" cy="50" r="50" style="fill:#ef1b4e"/><path d="M425.26,64.67h-1.61l-.69,45h3Z" transform="translate(-374.45 -37.55)" style="fill:#fcd462"/><path d="M424.45,63a2,2,0,1,0,2,2h0A2,2,0,0,0,424.45,63Z" transform="translate(-374.45 -37.55)" style="fill:#f7be56"/><path d="M436.45,107.52h-24a2.29,2.29,0,0,0-2.29,2.28h0v2.35h28.58V109.8a2.28,2.28,0,0,0-2.29-2.28Z" transform="translate(-374.45 -37.55)" style="fill:#f7be56"/><path d="M452.16,69.62a11,11,0,0,0-3.85-.82,14.23,14.23,0,0,0-3.9.48c-2.51.62-4.88,1.46-7.27,2.24a15.21,15.21,0,0,1-3.46.78,10.55,10.55,0,0,1-3.4-.38,10,10,0,0,1-3.12-1.47,11.63,11.63,0,0,1-1.36-1.07,10.62,10.62,0,0,1-1.11-1.21v3l.22.17-.22.2-.28-.25,0-.18V68l0,0v0a11,11,0,0,1-1.14,1.22,11.75,11.75,0,0,1-1.35,1.07,10.23,10.23,0,0,1-6.54,1.82,15.21,15.21,0,0,1-3.46-.78c-2.39-.78-4.76-1.62-7.26-2.24a14.75,14.75,0,0,0-3.91-.48,11.07,11.07,0,0,0-3.85.83.51.51,0,0,0-.29.67h0a.52.52,0,0,0,.65.29,10.16,10.16,0,0,1,3.5-.62,13.73,13.73,0,0,1,3.54.59c2.35.68,4.69,1.61,7,2.48a19.12,19.12,0,0,0,1.85.62,6.09,6.09,0,0,0,1,.22c6.33,1.9,9.37-.42,10.43-1.5,1,1.17,4.18,3.52,10.68,1.49a3.1,3.1,0,0,0,.58-.15,18.14,18.14,0,0,0,1.89-.62c2.35-.87,4.69-1.8,7-2.48a13.73,13.73,0,0,1,3.54-.59,9.94,9.94,0,0,1,3.5.63.53.53,0,0,0,.66-.3.52.52,0,0,0-.29-.67Z" transform="translate(-374.45 -37.55)" style="fill:#fcd462"/><path d="M462.25,91.05a.36.36,0,0,1-.33-.19L451.52,71,441.11,90.86a.37.37,0,0,1-.66-.34L451.19,70a.38.38,0,0,1,.54-.12.43.43,0,0,1,.11.12l10.74,20.5a.38.38,0,0,1-.16.5Z" transform="translate(-374.45 -37.55)" style="fill:#ebf0f3"/><path d="M451.52,91.37a.37.37,0,0,1-.37-.37h0V70.19a.37.37,0,1,1,.73,0V91a.37.37,0,0,1-.36.37Z" transform="translate(-374.45 -37.55)" style="fill:#ebf0f3"/><path d="M440.78,90.67a10.74,10.74,0,0,0,21.47,0Z" transform="translate(-374.45 -37.55)" style="fill:#f7be56"/><path d="M462.51,90.19h-22a.81.81,0,0,0,0,1.62h22a.81.81,0,0,0,0-1.62Z" transform="translate(-374.45 -37.55)" style="fill:#fcd462"/><path d="M408.13,91.05a.35.35,0,0,1-.33-.19L397.39,71,387,90.86a.38.38,0,0,1-.5.16.37.37,0,0,1-.15-.5L397.06,70a.38.38,0,0,1,.54-.12.34.34,0,0,1,.12.12l10.73,20.5a.37.37,0,0,1-.15.5Z" transform="translate(-374.45 -37.55)" style="fill:#ebf0f3"/><path d="M397.39,91.37A.38.38,0,0,1,397,91h0V70.19a.37.37,0,0,1,.74,0V91a.38.38,0,0,1-.37.37Z" transform="translate(-374.45 -37.55)" style="fill:#ebf0f3"/><path d="M386.66,90.67a10.74,10.74,0,0,0,21.47,0Z" transform="translate(-374.45 -37.55)" style="fill:#f7be56"/><path d="M408.38,90.19h-22a.81.81,0,0,0,0,1.62h22a.81.81,0,1,0,0-1.62Z" transform="translate(-374.45 -37.55)" style="fill:#fcd462"/></svg>