<svg xmlns="http://www.w3.org/2000/svg" xmlns:xlink="http://www.w3.org/1999/xlink" width="189.9627" height="210.8553" viewBox="0 0 189.9627 210.8553"><defs><style>.cls-1{fill:#0678a5;}.cls-2{isolation:isolate;}.cls-3{fill:#373f44;}.cls-4{fill:#f3f3f3;}.cls-5{fill:#ccc;}.cls-6{fill:#010101;}.cls-7{clip-path:url(#clip-path);}.cls-8{fill:#8cc540;}.cls-9{fill:#e6e7e7;}.cls-16,.cls-9{mix-blend-mode:multiply;}.cls-10,.cls-11,.cls-12,.cls-13,.cls-16{fill:none;}.cls-10,.cls-11,.cls-12,.cls-13{stroke:#1d547a;stroke-width:1.5px;}.cls-10,.cls-11,.cls-12,.cls-13,.cls-16,.cls-17{stroke-miterlimit:10;}.cls-11{stroke-dasharray:5.9841 5.9841;}.cls-12{stroke-dasharray:5.9841 5.9841;}.cls-13{stroke-dasharray:6;}.cls-14{fill:#ffe400;}.cls-15{fill:#fdd00b;}.cls-16{stroke:#dfca22;}.cls-17{fill:#af8b2f;stroke:#f6e496;}</style><clipPath id="clip-path" transform="translate(6.0811)"><ellipse class="cls-1" cx="68.4048" cy="153.685" rx="47.0399" ry="46.5276"/></clipPath></defs><title>accounting</title><g class="cls-2"><g id="Layer_1" data-name="Layer 1"><rect class="cls-3" x="6.0811" width="183.8816" height="210.8553"/><rect class="cls-4" x="81.7984" y="46.8805" width="99.6017" height="136.4054" rx="4"/><rect class="cls-5" x="92.3169" y="132.0113" width="69.0324" height="4.0138" rx="1.8818"/><rect class="cls-5" x="91.6695" y="91.1565" width="69.0324" height="4.0138" rx="1.8818"/><path class="cls-6" d="M100.4836,69.0025H97.5158l-.666,2.0517h-.9639l2.7051-7.84h.8174l2.71,7.84h-.959Zm-2.6855-.8452h2.4082L98.9992,64.49Z" transform="translate(6.0811)"/><path class="cls-6" d="M108.2277,68.5664a3.0126,3.0126,0,0,1-.8291,1.92,2.5568,2.5568,0,0,1-1.8554.6757,2.4,2.4,0,0,1-2.0117-.9965,4.2951,4.2951,0,0,1-.7569-2.6651v-.7539a4.873,4.873,0,0,1,.3526-1.9224,2.8462,2.8462,0,0,1,1-1.2734,2.5806,2.5806,0,0,1,1.498-.4443,2.414,2.414,0,0,1,1.81.6972,3.0593,3.0593,0,0,1,.7929,1.9307h-.9384a2.3661,2.3661,0,0,0-.5284-1.3613,1.5036,1.5036,0,0,0-1.1357-.4214,1.6166,1.6166,0,0,0-1.4033.7329,3.6345,3.6345,0,0,0-.5088,2.0859v.76a3.7385,3.7385,0,0,0,.4824,2.0317,1.5134,1.5134,0,0,0,1.3477.7544,1.6771,1.6771,0,0,0,1.1933-.39,2.2723,2.2723,0,0,0,.5528-1.36Z" transform="translate(6.0811)"/><path class="cls-6" d="M114.7131,68.5664a3.0138,3.0138,0,0,1-.83,1.92,2.5554,2.5554,0,0,1-1.8555.6757,2.4009,2.4009,0,0,1-2.0117-.9965,4.3013,4.3013,0,0,1-.7558-2.6651v-.7539a4.8748,4.8748,0,0,1,.3525-1.9224,2.8458,2.8458,0,0,1,.999-1.2734,2.5843,2.5843,0,0,1,1.4991-.4443,2.4153,2.4153,0,0,1,1.81.6972,3.0648,3.0648,0,0,1,.793,1.9307h-.9395a2.3722,2.3722,0,0,0-.5273-1.3613,1.5036,1.5036,0,0,0-1.1357-.4214,1.6168,1.6168,0,0,0-1.4034.7329,3.6275,3.6275,0,0,0-.5088,2.0859v.76a3.7387,3.7387,0,0,0,.4815,2.0317,1.5156,1.5156,0,0,0,1.3476.7544,1.6817,1.6817,0,0,0,1.1944-.39,2.2723,2.2723,0,0,0,.5517-1.36Z" transform="translate(6.0811)"/><path class="cls-6" d="M121.4358,67.3872a5.3072,5.3072,0,0,1-.35,2.0113,2.8812,2.8812,0,0,1-.9921,1.311,2.677,2.677,0,0,1-2.9825-.0024,2.939,2.939,0,0,1-1.0048-1.2979,5.0879,5.0879,0,0,1-.3672-1.9521v-.5655a5.2283,5.2283,0,0,1,.3554-1.9975,2.94,2.94,0,0,1,1.0039-1.3272,2.5068,2.5068,0,0,1,1.4864-.46,2.5511,2.5511,0,0,1,1.5009.455,2.8781,2.8781,0,0,1,1,1.3194,5.3307,5.3307,0,0,1,.35,2.0107Zm-.9288-.5063a3.8027,3.8027,0,0,0-.5058-2.14,1.6172,1.6172,0,0,0-1.416-.7456,1.6,1.6,0,0,0-1.3936.7456,3.7066,3.7066,0,0,0-.5224,2.07v.5761a3.8083,3.8083,0,0,0,.5126,2.1245,1.6944,1.6944,0,0,0,2.8145.043,3.7779,3.7779,0,0,0,.5107-2.0923Z" transform="translate(6.0811)"/><path class="cls-6" d="M127.8234,63.2139v5.331a2.6487,2.6487,0,0,1-.63,1.8145,2.4254,2.4254,0,0,1-1.6953.792l-.2481.0107a2.498,2.498,0,0,1-1.8535-.6948,2.6183,2.6183,0,0,1-.7-1.9116V63.2139h.9238v5.31a1.9077,1.9077,0,0,0,.4239,1.3217,1.7932,1.7932,0,0,0,2.42.003,1.9082,1.9082,0,0,0,.4209-1.3194V63.2139Z" transform="translate(6.0811)"/><path class="cls-6" d="M134.7414,71.0542h-.9394l-3.5655-6.0415v6.0415h-.9384v-7.84h.9384l3.5752,6.0688V63.2139h.93Z" transform="translate(6.0811)"/><path class="cls-6" d="M141.1535,64.06h-2.2763v6.9946h-.93V64.06H135.676v-.8457h5.4775Z" transform="translate(6.0811)"/><path class="cls-6" d="M143.2063,71.0542h-.9336v-7.84h.9336Z" transform="translate(6.0811)"/><path class="cls-6" d="M150.3576,71.0542h-.9394l-3.5655-6.0415v6.0415h-.9384v-7.84h.9384l3.5752,6.0688V63.2139h.93Z" transform="translate(6.0811)"/><path class="cls-6" d="M157.2463,70.0259a2.2047,2.2047,0,0,1-1.0049.8535,3.7078,3.7078,0,0,1-1.501.2827,2.6972,2.6972,0,0,1-1.5371-.45,2.909,2.909,0,0,1-1.0381-1.2788,4.8194,4.8194,0,0,1-.3779-1.9223v-.6841a4.4282,4.4282,0,0,1,.7471-2.7461,2.4915,2.4915,0,0,1,2.1-.9746,2.52,2.52,0,0,1,1.7852.6274,2.8389,2.8389,0,0,1,.8271,1.7793h-.9346a1.7033,1.7033,0,0,0-3.0957-.831,3.85,3.85,0,0,0-.4892,2.1152v.6411a3.5992,3.5992,0,0,0,.5449,2.0991,1.708,1.708,0,0,0,1.4736.7788,2.9614,2.9614,0,0,0,.92-.1289,1.4029,1.4029,0,0,0,.6514-.435V67.9956h-1.64V67.15h2.5693Z" transform="translate(6.0811)"/><rect class="cls-5" x="91.05" y="111.96" width="69.0324" height="4.0138" rx="1.8818"/><ellipse class="cls-1" cx="74.4859" cy="153.685" rx="47.0399" ry="46.5276"/><g class="cls-7"><path class="cls-8" d="M111.8989,174.6886s-3.5741-1.3261-3.8721-4.5659.422-5.8912,3.1148-6.9229,2.2462-2.3313,1.5016-3.2277-.5955-3.5475,1.7871-2.37S115.6216,171.448,111.8989,174.6886Z" transform="translate(6.0811)"/><path class="cls-8" d="M52.6307,143.9043s-3.1273-.1431-2.5316,1.77.8939,2.6491,2.5316,1.9128,4.8366-2.3569,3.8329-2.6513S52.6307,143.9043,52.6307,143.9043Z" transform="translate(6.0811)"/><path class="cls-8" d="M62.4591,123.4307a14.5223,14.5223,0,0,0-3.7228,1.7676c-1.34,1.031-4.0141,2.3565-2.0817,3.3877s3.8681,3.8295,4.3151,1.7675,0-2.3541,1.4894-3.0917S64.8418,125.1982,62.4591,123.4307Z" transform="translate(6.0811)"/><path class="cls-8" d="M84.4983,114.8878s-1.8386.4418-.6958,2.2094.5912,2.2368,3.0786,2.6332,3.4249-1.4728,1.6379-2.4213S84.4983,114.8878,84.4983,114.8878Z" transform="translate(6.0811)"/><path class="cls-8" d="M85.392,171.301s-1.1913,3.0932,0,4.2715,1.4891.5892,1.7867-.8839S86.8815,169.8283,85.392,171.301Z" transform="translate(6.0811)"/><path class="cls-8" d="M7.9378,127.7088a7.914,7.914,0,0,1,3.1411-1.6068c1.3-.1071,1.3-.3212,3.3573.8035s2.9241,2.1961,3.7905,2.41,1.1917-1.2855,2.6-1.1785,1.4083.8984,2.2745,1.1991,1.7328.5566,1.7328,0-1.5165-3.02,0-2.1633l1.5164.8572a1.2421,1.2421,0,0,1,0-.9644c.2164-.5356-.65-1.714-.4334-2.0353a8.07,8.07,0,0,0,.4684-.8571,16.7341,16.7341,0,0,1,.723,1.714c.1083.4286.65.3493.8666,1.0317s-1.2993.2541,0,1.3251,1.95,2.6265,2.0579,1.42-.65-2.3473,0-2.5265,1.6241-.6076,1.1909-.8218-1.8413.4284-1.9494-.75a17.3428,17.3428,0,0,1-.2164-2.9995A5.7842,5.7842,0,0,1,30.14,120.96s1.733-.5358,2.2747,0,1.0826.1071,1.516.9641,1.6247,1.1784,1.95,1.8213,1.3,1.0842,1.7332,1.6669.8662.7971.8662,1.5469.5413,1.0714,1.4079,1.8211,1.083.8241.9749,1.3224.9171.713.0253,1.0343-1,.3214-1.4332,0-1.3-1.0178-.65.2413,3.4656,1.58,1.0828,2.4372-2.7077-.1073-2.8158,0-.5417-.4287-.5417-.4287-.4326-.75-.8662-.8568l-.4334-.1074s-1.3,2.0358-1.4079,1.2856-.5417-1.714.1081-2.1424a5.2486,5.2486,0,0,0,1.7332-1.7143c.2164-.5354,1.1911-1.2855.1081-1.1781s-.866,1.0711-1.0828.1069-.1085-1.2725-.4336-1.3327-.433.2744-.7579,0-1.1913.2744-1.5162,0-.3253,1.5471-.4336,2.19-.5411,1.1782-.5411,1.4995.2166.5354.65.8568.8662,1.1786.2164,1.2856-.8666-.107-1.3,0a6.8275,6.8275,0,0,1-1.516,0s-1.1915-.4281-2.1663,1.393-1.3,2.5711-.3249,3.3207A10.0306,10.0306,0,0,0,28.3,139.2786a10.6311,10.6311,0,0,1,1.733.75c.866.5358,1.1913.1073,1.3.75s-.3253,1.6071.2162,2.1424.434.9641,1.0834.75.65-.4285.65-1.2852-.9749-1.1786,0-1.6071,1.6247-.6431,1.3-1.3929a3.5625,3.5625,0,0,1-.4332-1.6068c0-.5354-.1083-.5354-.1083-1.3926s-.9747-1.5,0-1.607,1.5162-.75,2.166,0a3.832,3.832,0,0,1,.8666,1.9284c.2168.75-.5417,1.1785.433,1.2854s.9753.4285,1.1917-.5357.7585-2.1423.9747-1.5,0,.3214.3249,1.2856-.2162.3213.3249.9643.136,1.071.9344,1.9281,1.4484,1.1784,1.7733,1.7136a8.4846,8.4846,0,0,1,.65,1.878c0,.05-.7581.05,0,.5861s1.9494,1.2857,1.4079,1.607a2.72,2.72,0,0,1-1.8415,0c-.5413-.1069-.7581-.1069-1.083-.6427l-.3249-.5358a6.44,6.44,0,0,0-1.5162,0c-.65.1073-1.1909-.857-1.3-.214s-.3249,1.1962.3249,1.5622,1.0834-.1693,1.3.58.2164,1.2857-.4336,1.5-1.7328-.5358-2.1658,0-.8668,0-.9749.6428a6.0613,6.0613,0,0,1-1.6247,2.3568c-.8664.9641-1.0834,1.071-1.1915,2.0353s-.65.8571-1.0828,1.3925.1085.1074-.4332.5358-.5417.6432-.3249,1.3926.4337.6431.2166,1.2854.4332,1.0712-.2166.643-.8668-1.1784-1.3-1.5a2.7188,2.7188,0,0,0-.8666-.4287,2.7722,2.7722,0,0,0-1.1911-.1071c-.5417.1071-.8666-.3214-1.6247,0s-.9747.2144-1.3.5358-1.1912.7734-1.0829,1.6722-.4337,1.6483-.1088,2.291.6783.8572,1.639.9643,1.6109.75,1.827,0,.8664-2.4638,1.083-1.9279.3245.1069.1083,1.0712-.5413.2142-.2164.964a1.3655,1.3655,0,0,0,1.3.8568h1.1911s-.7581,1.9284-.1081,2.4642a3.7986,3.7986,0,0,0,1.8409.6427c.4334.1071.65.6429,1.0834,0s.4326-1.1785,1.1911-1.2855.867-.5354,1.7332-.4284.65.1075,1.7328.6429.8662-.9643,1.8411.4283.2166,1.35,2.2743,2.1212.8664-.8356,2.0579.7712,1.083,1.821,2.2745,2.1424,1.4079-.214,2.2745.5358a10.0243,10.0243,0,0,0,1.7328,1.1785c.65.4285,1.3-.75,1.3.75s-1.1913,2.0349-1.5162,2.7851a16.4424,16.4424,0,0,0-.65,2.4641c-.2166.8566,0,1.7144-.7585,1.9282s-2.2739.6429-2.2739.6429-1.3.75-1.3,1.3926a3.2554,3.2554,0,0,1-.7585,2.3566,5.92,5.92,0,0,0-1.1911,1.6652s-1.0834-.5845-1.4083,0,.217.585-.9743,1.7631-1.95,1.1777-2.1664,1.6066,0-.1065-.2168.4289-.4326.3213-.5413,1.071-.1081.1075-.3249,1.1787a5.579,5.579,0,0,1-.65,2.1422,3.67,3.67,0,0,0-.4332,2.25c0,1.0712.6494,1.2853,1.1913,1.8211s1.1913-.3214.5415.5357-1.8413,0-2.2743,0-2.1664-1.0712-2.2747-2.0354a12.6033,12.6033,0,0,1-.1081-3.1069,47.4745,47.4745,0,0,1,1.3-7.6547,20.4744,20.4744,0,0,0,.866-4.9861,5.5392,5.5392,0,0,0-.2162-2.678c-.4336-.8571-.4336-.4285-1.1917-1.7139s-1.0834-.2144-1.9494-2.25-1.2994-2.1422-1.1913-2.678-.2166-.6432.1083-1.393.7585-.6427.8666-1.3926a12.2317,12.2317,0,0,0,.1081-1.521s-.8659.5143-1.4079,0-1.3-.086-1.7869-.9427-.8125-1.5-1.0293-1.8213a2.3621,2.3621,0,0,0-1.083-.9642,4.9413,4.9413,0,0,1-.8664-.3214l-1.1912-.2145a2.08,2.08,0,0,0-1.0835-.4282c-.541,0-1.19-.4285-1.624-.4285s-.65.1075-1.0835-.3214a4.6157,4.6157,0,0,1-.758-1.0716c-.433-.6423-.5416-.4278-.65-1.3921a3.198,3.198,0,0,0-.7581-1.8213c-.3249-.4285.2168-.3217-.65-1.0712l-.8666-.75-.8662-.5354s-.4336-.3214-.4336.1071a4.3964,4.3964,0,0,0,.9749,2.0353c.4334.4289.8666.9643.8666.9643a3.1431,3.1431,0,0,1,.2162,1.5176,16.6072,16.6072,0,0,1-1.949-1.9461,15.7636,15.7636,0,0,0-.65-1.5c-.3249-.5354.2162-.214-.7585-1.5a14.4613,14.4613,0,0,1-1.1913-1.7143s-1.8413-1.8208-1.9494-2.5707a7.2782,7.2782,0,0,1-.2168-2.4641c.1085-1.3926.4334-2.4636-.2164-3.321s-1.083-1.7139-1.6245-2.5706-1.6249-2.6787-1.95-3.2139a13.1626,13.1626,0,0,0-3.5741-2.25c-.3249,0-.2164-.2148-1.1911-.3214s-.65-.5353-1.4083-.3214-1.4083.3214-1.6247.8568-.5413,2.1423-.8662,2.25-.2168.8569-.3249.1075.5417-2.0358,0-1.9284-1.5166,1.1782-1.8415,1.607.4336,1.0713-.866,1.3926-1.7334.4283-1.7334.4283A3.9638,3.9638,0,0,0-2.46,137.886s-1.7332-.5358-1.8413-.8572-.6494.2145-.5413-.8571-.7864-1.4995-.0142-1.821a4.5356,4.5356,0,0,0,1.4221-1.0715s.1083-.4284-.5415-.6428-.5539,0-1.1974-.428-1.185-1.2855-.752-1.5l.4332-.2144a7.6484,7.6484,0,0,0,1.4079.2144h.5417s-1.6247-1.5-1.6247-1.8214-.4336-.9642.1083-1.2853.9751-.9642,1.5164-1.2856.7575-.6426,1.1911-.8569-.4332-1.0714,1.3-.4286a13.2086,13.2086,0,0,1,2.3828,1.0713,10.1472,10.1472,0,0,1,1.4083.107,3.8618,3.8618,0,0,1,1.8409.4286,7.7142,7.7142,0,0,0,2.0579.857c.4334.1072-.4326,0,.4334.1072Z" transform="translate(6.0811)"/><path class="cls-8" d="M61.0929,152.6748s.1271-.8811.5091-.8811h1.1451s.8909,0,1.1451.4406,1.4.5662,2.163,1.4471.763,1.0067,1.3991,1.0067h1.4l1.7812-1.4471a1.9751,1.9751,0,0,0,1.2724,1.4471,4.0067,4.0067,0,0,0,2.1629,0,9.0279,9.0279,0,0,0,2.0357-1.3746v-.6387s-1.654-1.2584-2.9261-.8811-1.4-.5189-2.0359-.0705-1.6481.4271-1.7145-.1289-.9574-.9332-.83-1.4366.509-1.2583,0-1.3841a10.9081,10.9081,0,0,1-1.6538-.7553l-.127,1.1326.89.8809a1.3513,1.3513,0,0,1-.3815.8812c-.3819.3773-1.2721,1.1519-1.1451.513s1.1449,1.3747.1269-.6389l-1.0179-2.0135-.89-.7553s-.3818-.8809-.89,0A6.9312,6.9312,0,0,1,61.602,149.78s-.382,0-1.2724.8807l-.89.8809-1.6544-.3119s.5088-.0658,0-.569-.2545-.8807,0-1.3843.5088-1.0068,1.2723-1.0068a1.4081,1.4081,0,0,0,1.1453-.6431s1.1451-.8672.2544-1.2446l-.89-.3774s.7638-1.1328,1.1451-1.1328h1.145a12.47,12.47,0,0,1,1.1453-1.7619c.3814-.3775.763-1.384,1.272-1.7617s-.5084-3.1464.7636-1.8878,1.1055,1.7618,1.7614,2.1394.4017.5032,1.2921.3775a2.0864,2.0864,0,0,0,1.3391-.7551,1.1689,1.1689,0,0,1,.6968-1.2584c.89-.5034,1.1447.23,1.5264-.8291l.3821-1.0586s1.018-1.3843-.5087-1.51-2.539.881-2.0966-.5035.4424-2.3911.824-2.3911,1.1455-1.1326.2545-1.0068-1.0182-1.2585-1.7814.8809-.3815.5033-.7632,2.1394-.3817,1.2584-.6362,2.5169,1.1425.5511-.2546,1.2586-1.6541-1.762-1.6541-1.762a.8857.8857,0,0,0-1.1452.2518c-.5088.6294-1.5265,0-1.5265-.6293s-.2546-2.1394.6359-2.5168a6.5741,6.5741,0,0,0,1.5271-.6294,5.8905,5.8905,0,0,0,1.8885-1.8355s.3622.5772,0-1.0588-2.1436-.1259-.3621-1.636a11.1434,11.1434,0,0,1,2.9933-2.1395c.4422-.1258-.067.2518,1.2055,0s1.5272.073,1.9087-.0265.89,1.4107,1.3994,1.5367,1.6538-.3778,2.1629.3775.2545-.1257.5091.7551,1.1451,1.636,0,1.636H74.9612s-1.2717,1.8877-.1268,2.0135a4.78,4.78,0,0,0,2.3512-.5033,2.2277,2.2277,0,0,0,.5749-.8811c.2545-.6291-.6359-.8808,0-1.2583s.6366-.881,1.1453-.7552-.8912.1259.5085.1259a6.0227,6.0227,0,0,0,2.5451-.7552,3.3574,3.3574,0,0,0,1.1451-.7549s.127-.126,1.145,0,1.2719-.8808,1.7813-.8808.7634.2516,1.2721.7548-.1276.126.5087.5035l.6364.3774a25.6309,25.6309,0,0,1,0-3.1462,5.6308,5.6308,0,0,1,.7634-1.51c.2546-.3775,0-2.0135.5091-1.3843a4.2522,4.2522,0,0,1,.8906,1.3843c.2545.6293.1273.6293,0,1.1328a9.1721,9.1721,0,0,1-.2546,2.8945c-.509,1.636-1.6541,2.0132-1.2723,2.2651s.6359.1257,1.018,0a2.2394,2.2394,0,0,0,.7848-.6291,2.745,2.745,0,0,1,0-1.7619c.36-.6292.3605-3.2721.742-3.7755s-.3823-1.1326.3815-.5034a5.6244,5.6244,0,0,1,.7636.6293c1.1451,1.0067.2546.881,1.1451,1.0067l.8906.1261v-1.8879s-1.9087-1.1658-.6366-1.0233l1.2725.1423a6.1821,6.1821,0,0,1,.6364-1.2584c.6361-1.1326-.2545-.5037.6361-1.1326s0-.2515.8907-.6292,1.018-1.1327,1.5267-1.6359.6362-2.0138.8907-1.2586-1.7813,1.2583,0,1.51a4.6777,4.6777,0,0,0,2.29,0s-1.5265-1.422,0-1.7178,2.0357-.711,2.0357,0-1.0176.5851,0,1.0885-.3816-.6293,1.0179.5034,1.4.1259,1.4,1.1326-.1277.6293-.6364,1.2586-1.7813,2.1393-1.7813,2.1393c.5088.881.8913.5035,1.4.3776s.127-.6291,1.0177-.2516a10.7006,10.7006,0,0,1,2.0357.8808c.5087.3775.1268.5036,1.5265-.3774s.3819-2.2656,1.4-.8811,1.1453,1.0066,1.2725,2.0135-1.1451,1.3842,0,1.636.2547,1.1328,1.1451.2519,1.5272-1.3845,2.0359-1.1326.7634.5034,1.2721-.2517-.5087-2.7685,1.0181-1.636.7632,1.1324,2.0355,1.3842,1.4-.8806,1.9085.2518.5091,1.8877,1.6542,1.7617,1.0174.126,1.5266.7552.6363,1.1325,1.4.755.6364-1.0067,1.2725-.5034a3.5969,3.5969,0,0,0,2.0355.3777s-1.2725-1.0069,0-.881,3.3077-.6293,3.5623.5033-1.0178.1258.2547,1.1327,2.29.7553,2.5446,1.3844-.2544.6291,0,1.2584-.2547.881-.6364.881a2.7774,2.7774,0,0,1-1.3991-.1259c-.5091-.2518-1.1451-.7553-1.2725-.3777s-.89.5035-.7634,1.1326.891.7553.1274,1.2586-.7634-.0771-2.29.7165a6.8057,6.8057,0,0,0-2.0355,1.423,1.6027,1.6027,0,0,0-1.1451,0c-.5094.2515-.1275-1.133-.5094.2515s-.6357,1.0068-.6357,2.2654.3813.881-.3821,1.8878.2546,0-.7632,1.0067-1.6542,0-1.6542,0a4.0068,4.0068,0,0,1,.1272-1.0067c.1272-.3777-.127-1.2587.6364-2.0138a3.2245,3.2245,0,0,0,1.0178-1.3842c.3815-.7552.7634-1.3843.7634-1.3843s0-1.7132-1.1451-1.0454,0-.4649-1.1453.6678-.891,1.3844-2.4174,1.2585-3.5622-.6293-3.8167-.1259-.5087.1259-.7634,1.2585-.6364,1.2587-.6364,1.762-.7633-.5033,0,.5034,1.0177.6291,1.4,1.3842.127,1.0067.2545,1.3843-1.0183,2.5168-1.7817,3.146-2.1633.7553-2.29,1.2587-.6359,0-.6359.7551a1.777,1.777,0,0,1-.6362,1.2582,11.1157,11.1157,0,0,1,.7634,1.8881.81.81,0,0,1-.5091.8809l-.5087-1.2586-1.1451-1.2583-.636-.2521s-.1274-.2515-.5091,0-1.2725.1261-1.1451.7553.7632,1.1328.7632,1.51v.3773c0,1.0068-.2545,0,0,1.0068a1.9718,1.9718,0,0,1-.2541,1.762c-.2546.6292,0,.3773-.7638,1.0066a5.33,5.33,0,0,1-1.9085,1.1326c-.5087.126-.1268-1.51-.5087.126s-1.145,1.7617-1.145,1.7617.2546-1.1324-.1275-1.1324-1.6542.1256-1.2721,1.1324,1.6538,1.1328,1.781,1.51a3.4023,3.4023,0,0,1-1.018,2.14c-.3813.1255.2551.629-.3813.1255a5.6494,5.6494,0,0,0-1.2725-.7549s-.1277-.5036-.7634-.2519-.6362-.5032-.6362.2519.3815.1868.6362.9743a13.2416,13.2416,0,0,1,.3817,1.4721s.5087-.181.7634.5739-.1275,1.3841.3817,1.7616.3821.7555.5091,1.5106,2.5444,1.0069,2.5444,1.3843-.5091-.3774-1.4,0-2.29.8475-2.4172.1089a4.0231,4.0231,0,0,0-1.0177-1.6193s-2.672-3.9161-2.29-3.72.2547-1.077,1.1451,0,1.4,3.216.8907,1.0771-1.399-2.1394-1.2719-3.5237l.1268-1.3843s2.2907,0-.2543-1.2585-2.7993-1.636-3.5625-1.2582-1.4-.2519-1.9085.7548-.8906.881-1.1452,1.636-.6364,1.0072-.2543,1.6364.89,2.5168-.1274,1.3841-1.5266-1.51-1.5266-2.2652-.2549-2.1392-.7636-2.3911a10.0666,10.0666,0,0,1-1.3994-1.0067,5.5372,5.5372,0,0,0-1.2725-1.51,1.7258,1.7258,0,0,0-1.145-.2517,3.2873,3.2873,0,0,1-1.4-.2515,14.5281,14.5281,0,0,0-1.9085-.5036,6.1182,6.1182,0,0,1-1.6538-.6288s-1.5266.3774-1.1451.8807,0,.7549,1.0177.8808a7.9005,7.9005,0,0,0,1.6538.126c.8908,0,1.9089.8813,1.5272,1.51s-.1275.755-1.1451,1.51a8.7422,8.7422,0,0,1-2.7993,1.1328c-1.0181.3774-1.7809.6293-2.29.3774a2.0735,2.0735,0,0,1-1.1453-1.51c-.127-.7551-.2544-1.1328-.3819-1.8879a3.4844,3.4844,0,0,0-.5089-1.51c-.2543-.3776.5093-.2517-.2543-.3776s-.6367-1.2584-.7636-.1258-1.0174,1.007-.2542,2.2652.6378,2.2032,1.5268,2.2655,0,1.51,1.3995,1.8876a19.4042,19.4042,0,0,0,3.0536.5034s.8908.3773.3817.8807-.89.2366-1.1451.9363-1.1455.7-1.6542,1.5807-1.2721.8811-1.3994,1.6362-.5091,1.51-.3819,1.8876a9.379,9.379,0,0,1-.5089,3.65c-.3815.5032-1.4-.5032-1.5266,1.007s0,2.2646-.6363,3.2715a14.0736,14.0736,0,0,0-1.1449,2.1394c-.891,1.7623-2.6725,1.5059-3.0538,1.76s-1.2721,0-1.2721,0-.3819.5053-.5091-1.634a8.5489,8.5489,0,0,0-.89-4.0271c-.5094-.8807-.1277,0-.5094-.8807a5.0013,5.0013,0,0,1-.3815-2.2657c0-.7548,1.1453,1.007,0-2.0133s-.89-.7551-1.145-3.02-.509-3.0356-1.2724-3.091-.7637.0554-1.4,0,.7636-.8255-1.7813,0-3.8167,1.0622-4.326,0a22.6529,22.6529,0,0,1-1.145-2.32c-.1272-.5034-1.1455-1.8873-.891-2.7686s0-1.8875.5093-2.7686.1271-.8807,1.0178-1.636.6364-.7551,1.0177-1.3841-.1276-1.1326.5088-1.2584.5091,0,1.4-.1261a8.7105,8.7105,0,0,0,1.5267-.3775Z" transform="translate(6.0811)"/></g><path class="cls-9" d="M68.6157,107.3628c25.8647,0,46.8321,20.7391,46.8321,46.3222S94.48,200.0072,68.6157,200.0072" transform="translate(6.0811)"/><path class="cls-10" d="M31.9746,124.2479q-.5948-1.4317-1.1089-2.79" transform="translate(6.0811)"/><path class="cls-11" d="M28.9821,115.7765c-1.6731-6.0515-1.5839-10.2831.6323-11.8115C35.8567,99.66,56.61,118.43,75.9679,145.89s29.99,53.21,23.7481,57.5155c-2.0328,1.402-5.6046.3568-10.166-2.6388" transform="translate(6.0811)"/><path class="cls-10" d="M87.1025,199.0436q-1.1492-.8594-2.3621-1.8541" transform="translate(6.0811)"/><path class="cls-10" d="M105.4187,124.2478q.5948-1.4317,1.1088-2.79" transform="translate(6.0811)"/><path class="cls-12" d="M108.4112,115.7764c1.6731-6.0515,1.5839-10.2831-.6323-11.8115C101.5366,99.66,80.7833,118.43,61.4254,145.89S31.4349,199.1,37.6772,203.4052c2.0329,1.402,5.6047.3568,10.1661-2.6388" transform="translate(6.0811)"/><path class="cls-10" d="M50.2908,199.0436q1.1491-.8594,2.3621-1.8541" transform="translate(6.0811)"/><path class="cls-13" d="M115.1257,148.23c9.9168,1.2466,15.9482,2.8935,15.9482,4.6988,0,3.89-27.9988,7.0436-62.537,7.0436S6,156.8185,6,152.9283c0-1.8085,6.0524-3.4578,16-4.705" transform="translate(6.0811)"/><path class="cls-14" d="M45.9562,106.0342a6.55,6.55,0,1,1-6.55-6.4782A6.5143,6.5143,0,0,1,45.9562,106.0342Z" transform="translate(6.0811)"/><path class="cls-15" d="M39.4065,99.556a6.4786,6.4786,0,1,1,0,12.9564" transform="translate(6.0811)"/><path class="cls-16" d="M44.6812,106.0342a5.275,5.275,0,1,1-5.2747-5.2171A5.2461,5.2461,0,0,1,44.6812,106.0342Z" transform="translate(6.0811)"/><path class="cls-17" d="M38.9784,109.1233a3.5614,3.5614,0,0,1-2.1848-.9277l.8286-1.2067a2.7321,2.7321,0,0,0,1.3562.73v-1c-.9373-.2072-1.9847-.5853-1.9847-1.8641a1.9879,1.9879,0,0,1,1.9847-1.8824v-.8466h1.0107v.8556a3.6725,3.6725,0,0,1,1.8849.8016l-.8561,1.1618a2.7807,2.7807,0,0,0-1.0288-.5224v.8735c.9472.2161,2.0306.5944,2.0306,1.8462a1.9821,1.9821,0,0,1-2.0306,1.9813v.82H38.9784Zm0-4.0614v-.7207c-.273.0452-.3913.1893-.3913.3872C38.5871,104.8906,38.7329,104.99,38.9784,105.0619Zm1.0107,1.882v.7926c.2734-.072.4373-.2253.4373-.4324C40.4264,107.1331,40.2531,107.0248,39.9891,106.9439Z" transform="translate(6.0811)"/><path class="cls-14" d="M18.6952,155.97a4.3249,4.3249,0,1,1-4.3248-4.2774A4.3013,4.3013,0,0,1,18.6952,155.97Z" transform="translate(6.0811)"/><path class="cls-15" d="M14.37,151.6924a4.2777,4.2777,0,1,1,0,8.5549" transform="translate(6.0811)"/><path class="cls-16" d="M17.8533,155.97A3.483,3.483,0,1,1,14.37,152.525,3.4639,3.4639,0,0,1,17.8533,155.97Z" transform="translate(6.0811)"/><path class="cls-17" d="M14.0878,158.01a2.3515,2.3515,0,0,1-1.4425-.6125l.5469-.7968a1.8048,1.8048,0,0,0,.8956.4816v-.66c-.6189-.1369-1.31-.3866-1.31-1.2309a1.3126,1.3126,0,0,1,1.31-1.2429v-.559h.6674v.565A2.4254,2.4254,0,0,1,16,154.4832l-.5652.7671a1.8379,1.8379,0,0,0-.6793-.3449v.5769c.6254.1425,1.3408.3924,1.3408,1.219a1.3089,1.3089,0,0,1-1.3408,1.3082v.541h-.6674Zm0-2.6818v-.4757c-.18.03-.2584.1249-.2584.2556C13.8294,155.2147,13.9257,155.28,14.0878,155.3277Zm.6674,1.2427v.5235c.18-.0477.2886-.149.2886-.2855C15.0438,156.6952,14.93,156.624,14.7552,156.57Z" transform="translate(6.0811)"/><path class="cls-14" d="M128.4578,155.97a4.3249,4.3249,0,1,1-4.3249-4.2774A4.3013,4.3013,0,0,1,128.4578,155.97Z" transform="translate(6.0811)"/><path class="cls-15" d="M124.1329,151.6924a4.2777,4.2777,0,1,1,0,8.5549" transform="translate(6.0811)"/><path class="cls-16" d="M127.616,155.97a3.4831,3.4831,0,1,1-3.4831-3.4448A3.464,3.464,0,0,1,127.616,155.97Z" transform="translate(6.0811)"/><path class="cls-17" d="M123.85,158.01a2.3515,2.3515,0,0,1-1.4425-.6125l.547-.7968a1.8036,1.8036,0,0,0,.8955.4816v-.66c-.6189-.1369-1.31-.3866-1.31-1.2309a1.3126,1.3126,0,0,1,1.31-1.2429v-.559h.6673v.565a2.4253,2.4253,0,0,1,1.2446.5292l-.5651.7671a1.84,1.84,0,0,0-.6795-.3449v.5769c.6255.1425,1.3409.3924,1.3409,1.219a1.3089,1.3089,0,0,1-1.3409,1.3082v.541H123.85Zm0-2.6818v-.4757c-.18.03-.2584.1249-.2584.2556C123.592,155.2147,123.6883,155.28,123.85,155.3277Zm.6673,1.2427v.5235c.18-.0477.2886-.149.2886-.2855C124.8063,156.6952,124.6921,156.624,124.5177,156.57Z" transform="translate(6.0811)"/><ellipse class="cls-14" cx="83.068" cy="147.67" rx="6.5495" ry="6.4782"/><path class="cls-15" d="M76.9869,141.1918a6.4785,6.4785,0,1,1,0,12.9563" transform="translate(6.0811)"/><path class="cls-16" d="M82.2617,147.67a5.275,5.275,0,1,1-5.2748-5.2173A5.2462,5.2462,0,0,1,82.2617,147.67Z" transform="translate(6.0811)"/><path class="cls-17" d="M74.5117,148.6274h-.4332v-.7726h.28V147.67a1.716,1.716,0,0,1,.0086-.21h-.2887v-.7728h.4332a2.9407,2.9407,0,0,1,2.9127-1.9149,2.6136,2.6136,0,0,1,2.471,1.495l-1.2569.5963a1.3593,1.3593,0,0,0-1.2141-.8147,1.5177,1.5177,0,0,0-1.2823.6383h1.7917v.7728H75.8533a1.7566,1.7566,0,0,0-.0084.21,1.302,1.302,0,0,0,.0084.1848h2.0805v.7726h-1.809a1.5285,1.5285,0,0,0,1.3.6637,1.3593,1.3593,0,0,0,1.2141-.8147l1.2569.5879a2.6457,2.6457,0,0,1-2.471,1.5033A2.9348,2.9348,0,0,1,74.5117,148.6274Z" transform="translate(6.0811)"/><path class="cls-14" d="M40.1465,195.7973a4.2568,4.2568,0,1,1-4.2565-4.21A4.2333,4.2333,0,0,1,40.1465,195.7973Z" transform="translate(6.0811)"/><path class="cls-15" d="M35.89,191.587a4.21,4.21,0,1,1,0,8.42" transform="translate(6.0811)"/><path class="cls-16" d="M39.3179,195.7973a3.4281,3.4281,0,1,1-3.4279-3.3908A3.4092,3.4092,0,0,1,39.3179,195.7973Z" transform="translate(6.0811)"/><path class="cls-17" d="M34.2814,196.42H34v-.5022h.182v-.12a1.0919,1.0919,0,0,1,.0057-.1365H34v-.5022h.2816a1.9111,1.9111,0,0,1,1.893-1.2446,1.6985,1.6985,0,0,1,1.6057.9716l-.8167.3874a.8836.8836,0,0,0-.789-.5294.9866.9866,0,0,0-.8334.415h1.1644v.5022H35.1533a1.1314,1.1314,0,0,0-.0055.1365.8394.8394,0,0,0,.0055.12h1.3521v.5022H35.33a.9931.9931,0,0,0,.8446.4313.8837.8837,0,0,0,.789-.53l.8167.3822a1.7192,1.7192,0,0,1-1.6057.9769A1.9074,1.9074,0,0,1,34.2814,196.42Z" transform="translate(6.0811)"/><path class="cls-14" d="M88.0667,119.0981a4.2567,4.2567,0,1,1-4.2563-4.21A4.2331,4.2331,0,0,1,88.0667,119.0981Z" transform="translate(6.0811)"/><path class="cls-15" d="M83.81,114.8878a4.21,4.21,0,1,1,0,8.42" transform="translate(6.0811)"/><path class="cls-16" d="M87.2382,119.0981a3.4282,3.4282,0,1,1-3.4278-3.3908A3.4092,3.4092,0,0,1,87.2382,119.0981Z" transform="translate(6.0811)"/><path class="cls-17" d="M82.2018,119.72H81.92v-.5022h.182v-.12a1.0919,1.0919,0,0,1,.0057-.1365H81.92v-.5022h.2817a1.9112,1.9112,0,0,1,1.8928-1.2446,1.6988,1.6988,0,0,1,1.6058.9716l-.8167.3874a.8836.8836,0,0,0-.7891-.5294.9868.9868,0,0,0-.8334.415h1.1644v.5022H83.0735a1.1738,1.1738,0,0,0-.0053.1365.87.87,0,0,0,.0053.12h1.3521v.5022H83.25a.9926.9926,0,0,0,.8444.4313.8838.8838,0,0,0,.7891-.53l.8167.3822a1.72,1.72,0,0,1-1.6058.977A1.9072,1.9072,0,0,1,82.2018,119.72Z" transform="translate(6.0811)"/><path class="cls-14" d="M116.1155,114.8879a6.55,6.55,0,1,1-6.5495-6.4782A6.5141,6.5141,0,0,1,116.1155,114.8879Z" transform="translate(6.0811)"/><path class="cls-15" d="M109.566,108.41a6.4786,6.4786,0,1,1,0,12.9564" transform="translate(6.0811)"/><path class="cls-16" d="M114.8407,114.8879a5.2749,5.2749,0,1,1-5.2747-5.2172A5.246,5.246,0,0,1,114.8407,114.8879Z" transform="translate(6.0811)"/><path class="cls-17" d="M107.2252,114.6039h.4681a1.6678,1.6678,0,0,1-.2915-.8738,2.0673,2.0673,0,0,1,2.2171-1.8521,2.2259,2.2259,0,0,1,2.1907,1.092l-1.21.69a.8221.8221,0,0,0-.7861-.568.69.69,0,0,0-.751.664,1.6778,1.6778,0,0,0,.309.8476H110.6v.8387h-.9718v.0613a1.0817,1.0817,0,0,1-.53.8824,1.3,1.3,0,0,1,.424-.07c.4949,0,.6712.2534,1.0777.2534a.8613.8613,0,0,0,.7154-.3057l.592,1.1882a1.7948,1.7948,0,0,1-1.36.4455c-.76,0-1.1394-.3756-1.6078-.3756a2.2385,2.2385,0,0,0-1.0156.3319l-.5034-1.0047c.45-.2271.8568-.55.8568-.9612a1.0963,1.0963,0,0,0-.0973-.4456h-.9539Z" transform="translate(6.0811)"/><path class="cls-14" d="M101.3312,177.5865a6.55,6.55,0,1,1-6.55-6.4782A6.5141,6.5141,0,0,1,101.3312,177.5865Z" transform="translate(6.0811)"/><path class="cls-15" d="M94.7815,171.1083a6.4785,6.4785,0,1,1,0,12.9563" transform="translate(6.0811)"/><path class="cls-16" d="M100.0562,177.5865a5.2749,5.2749,0,1,1-5.2747-5.2173A5.2461,5.2461,0,0,1,100.0562,177.5865Z" transform="translate(6.0811)"/><path class="cls-17" d="M94.1309,180.2723v-.894H92.3561v-.741h1.7748v-.5315H92.3561v-.741h1.2945l-1.5795-2.4642h1.5795l1.1805,1.9809,1.1645-1.9809h1.5876l-1.58,2.4642h1.3027v.741h-1.775v.5315h1.775v.741h-1.775v.894Z" transform="translate(6.0811)"/><path class="cls-14" d="M55.3719,159.9721a4.1546,4.1546,0,1,1-4.1545-4.1093A4.1317,4.1317,0,0,1,55.3719,159.9721Z" transform="translate(6.0811)"/><path class="cls-15" d="M51.2174,155.8628a4.1093,4.1093,0,1,1,0,8.2181" transform="translate(6.0811)"/><path class="cls-16" d="M54.5631,159.9721a3.3459,3.3459,0,1,1-3.3457-3.31A3.3273,3.3273,0,0,1,54.5631,159.9721Z" transform="translate(6.0811)"/><path class="cls-17" d="M50.8048,161.6755v-.567H49.679v-.47h1.1258v-.3372H49.679v-.47H50.5l-1.002-1.5631H50.5l.7487,1.2567.7386-1.2567h1.007l-1.0018,1.5631h.8261v.47H51.6932v.3372h1.1257v.47H51.6932v.567Z" transform="translate(6.0811)"/></g></g></svg>