<?xml version="1.0"?>
<svg xmlns="http://www.w3.org/2000/svg" fill="#1fa2ff" viewBox="0 0 64 64" width="512" height="512">
    <g id="Outline">
        <g>
            <path
                d="M47,34a1,1,0,0,0-1,1V52H7a4.948,4.948,0,0,0-3,1.026V7A3,3,0,0,1,7,4H46V7a1,1,0,0,0,2,0V3a1,1,0,0,0-1-1H7A5.006,5.006,0,0,0,2,7V57a5.006,5.006,0,0,0,5,5H47a1,1,0,0,0,1-1V35A1,1,0,0,0,47,34ZM46,60H7a3,3,0,0,1,0-6H46Z" />
            <path d="M31,32a1,1,0,0,0,1-1V25a1,1,0,0,0-1-1H25a1,1,0,0,0-1,1v6a1,1,0,0,0,1,1Zm-5-6h4v4H26Z" />
            <path d="M35,32h6a1,1,0,0,0,1-1V21a1,1,0,0,0-1-1H35a1,1,0,0,0-1,1V31A1,1,0,0,0,35,32Zm1-10h4v8H36Z" />
            <path
                d="M51,16H45a1,1,0,0,0-1,1V31a1,1,0,0,0,1,1h6a1,1,0,0,0,1-1V27a1,1,0,0,0-2,0v3H46V18h4v5a1,1,0,0,0,2,0V17A1,1,0,0,0,51,16Z" />
            <path
                d="M54,4h2.468a44.746,44.746,0,0,1-30.06,11.5H25a1,1,0,0,0,0,2h1.408A46.736,46.736,0,0,0,58,5.309V8a1,1,0,0,0,2,0V3a1,1,0,0,0-1-1H54a1,1,0,0,0,0,2Z" />
            <path
                d="M61,17a1,1,0,0,0,1-1V13a1,1,0,0,0-1-1H55a1,1,0,0,0-1,1V31a1,1,0,0,0,1,1h6a1,1,0,0,0,1-1V20a1,1,0,0,0-2,0V30H56V14h4v2A1,1,0,0,0,61,17Z" />
            <path
                d="M18,33a1.5,1.5,0,0,1,1.5,1.5,1,1,0,0,0,2,0A3.494,3.494,0,0,0,19,31.163V30a1,1,0,0,0-2,0v1.163A3.49,3.49,0,0,0,18,38a1.5,1.5,0,1,1-1.5,1.5,1,1,0,0,0-2,0A3.494,3.494,0,0,0,17,42.837V44a1,1,0,0,0,2,0V42.837A3.49,3.49,0,0,0,18,36a1.5,1.5,0,0,1,0-3Z" />
            <path
                d="M18,49A11.967,11.967,0,0,0,29.793,34.817a1,1,0,0,0-1.967.366,10,10,0,1,1-7.1-7.8,1,1,0,1,0,.544-1.924A12,12,0,1,0,18,49Z" />
            <path
                d="M16,16v5a1,1,0,0,0,2,0V17h2a1,1,0,0,0,.8-1.6l-6-8a1.036,1.036,0,0,0-1.6,0l-6,8A1,1,0,0,0,8,17h2v4a1,1,0,0,0,2,0V16a1,1,0,0,0-1-1H10l4-5.333L18,15H17A1,1,0,0,0,16,16Z" />
            <path d="M43,38H35a1,1,0,0,0,0,2h8a1,1,0,0,0,0-2Z" />
            <path d="M31,48H43a1,1,0,0,0,1-1V43a1,1,0,0,0-1-1H31a1,1,0,0,0-1,1v4A1,1,0,0,0,31,48Zm1-4H42v2H32Z" />
        </g>
    </g>
</svg>