<svg xmlns="http://www.w3.org/2000/svg" xmlns:xlink="http://www.w3.org/1999/xlink" width="189.96" height="210.86" viewBox="0 0 189.96 210.86"><defs><style>.cls-1{fill:#0678a5;}.cls-2{isolation:isolate;}.cls-10,.cls-11,.cls-12,.cls-13,.cls-16,.cls-3{fill:none;}.cls-4{fill:#f3f3f3;}.cls-5{fill:#ccc;}.cls-6{fill:#010101;}.cls-7{clip-path:url(#clip-path);}.cls-8{fill:#8cc540;}.cls-9{fill:#e6e7e7;}.cls-16,.cls-9{mix-blend-mode:multiply;}.cls-10,.cls-11,.cls-12,.cls-13{stroke:#1d547a;stroke-width:1.5px;}.cls-10,.cls-11,.cls-12,.cls-13,.cls-16,.cls-17{stroke-miterlimit:10;}.cls-11{stroke-dasharray:5.98 5.98;}.cls-12{stroke-dasharray:5.98 5.98;}.cls-13{stroke-dasharray:6;}.cls-14{fill:#ffe400;}.cls-15{fill:#fdd00b;}.cls-16{stroke:#dfca22;}.cls-17{fill:#af8b2f;stroke:#f6e496;}</style><clipPath id="clip-path" transform="translate(6.08)"><ellipse class="cls-1" cx="68.4" cy="153.68" rx="47.04" ry="46.53"/></clipPath></defs><title>economics</title><g class="cls-2"><g id="Layer_1" data-name="Layer 1"><rect class="cls-3" x="6.08" width="183.88" height="210.86"/><rect class="cls-4" x="81.8" y="46.88" width="99.6" height="136.41" rx="4"/><rect class="cls-5" x="92.32" y="132.01" width="69.03" height="4.01" rx="1.88"/><rect class="cls-5" x="91.67" y="91.16" width="69.03" height="4.01" rx="1.88"/><path class="cls-6" d="M100.48,69h-3l-.67,2h-1l2.7-7.84h.82l2.71,7.84h-1Zm-2.68-.84h2.41L99,64.49Z" transform="translate(6.08)"/><path class="cls-6" d="M108.23,68.57a3.05,3.05,0,0,1-.83,1.92,2.57,2.57,0,0,1-1.86.67,2.42,2.42,0,0,1-2-1,4.36,4.36,0,0,1-.76-2.67v-.75a4.85,4.85,0,0,1,.36-1.93,2.85,2.85,0,0,1,1-1.27,2.55,2.55,0,0,1,1.5-.44,2.4,2.4,0,0,1,1.8.69,3.08,3.08,0,0,1,.8,1.93h-.94a2.38,2.38,0,0,0-.53-1.36,1.5,1.5,0,0,0-1.13-.42,1.64,1.64,0,0,0-1.41.73,3.65,3.65,0,0,0-.51,2.09v.76a3.65,3.65,0,0,0,.49,2,1.52,1.52,0,0,0,1.34.76,1.7,1.7,0,0,0,1.2-.39,2.33,2.33,0,0,0,.55-1.36Z" transform="translate(6.08)"/><path class="cls-6" d="M114.71,68.57a3,3,0,0,1-.83,1.92,2.53,2.53,0,0,1-1.85.67,2.39,2.39,0,0,1-2-1,4.3,4.3,0,0,1-.76-2.67v-.75a5,5,0,0,1,.35-1.93,2.92,2.92,0,0,1,1-1.27,2.55,2.55,0,0,1,1.5-.44,2.43,2.43,0,0,1,1.81.69,3.07,3.07,0,0,1,.79,1.93h-.94a2.38,2.38,0,0,0-.52-1.36,1.51,1.51,0,0,0-1.14-.42,1.62,1.62,0,0,0-1.4.73,3.65,3.65,0,0,0-.51,2.09v.76a3.74,3.74,0,0,0,.48,2,1.53,1.53,0,0,0,1.35.76,1.67,1.67,0,0,0,1.19-.39,2.27,2.27,0,0,0,.55-1.36Z" transform="translate(6.08)"/><path class="cls-6" d="M121.44,67.39a5.35,5.35,0,0,1-.35,2,2.93,2.93,0,0,1-1,1.31,2.69,2.69,0,0,1-3,0,2.94,2.94,0,0,1-1-1.3,5.1,5.1,0,0,1-.37-2v-.57a5.41,5.41,0,0,1,.35-2,3,3,0,0,1,1-1.32,2.48,2.48,0,0,1,1.49-.46,2.6,2.6,0,0,1,1.5.45,2.91,2.91,0,0,1,1,1.32,5.42,5.42,0,0,1,.35,2Zm-.93-.51a3.78,3.78,0,0,0-.51-2.14,1.7,1.7,0,0,0-2.81,0,3.72,3.72,0,0,0-.52,2.07v.58a3.8,3.8,0,0,0,.51,2.12,1.7,1.7,0,0,0,2.82,0,3.76,3.76,0,0,0,.51-2.09Z" transform="translate(6.08)"/><path class="cls-6" d="M127.82,63.21v5.33a2.63,2.63,0,0,1-.63,1.82,2.42,2.42,0,0,1-1.69.79h-.25a2.49,2.49,0,0,1-1.85-.69,2.61,2.61,0,0,1-.7-1.91V63.21h.92v5.31a2,2,0,0,0,.42,1.33,1.57,1.57,0,0,0,1.21.47,1.54,1.54,0,0,0,1.21-.47,1.9,1.9,0,0,0,.42-1.32V63.21Z" transform="translate(6.08)"/><path class="cls-6" d="M134.74,71.05h-.94l-3.56-6v6h-.94V63.21h.94l3.57,6.07V63.21h.93Z" transform="translate(6.08)"/><path class="cls-6" d="M141.15,64.06h-2.27v7H138v-7h-2.27v-.85h5.47Z" transform="translate(6.08)"/><path class="cls-6" d="M143.21,71.05h-.94V63.21h.94Z" transform="translate(6.08)"/><path class="cls-6" d="M150.36,71.05h-.94l-3.57-6v6h-.94V63.21h.94l3.58,6.07V63.21h.93Z" transform="translate(6.08)"/><path class="cls-6" d="M157.25,70a2.22,2.22,0,0,1-1,.85,3.68,3.68,0,0,1-1.5.28,2.7,2.7,0,0,1-1.54-.45,2.88,2.88,0,0,1-1-1.28,4.6,4.6,0,0,1-.38-1.92v-.68a4.5,4.5,0,0,1,.74-2.75,2.49,2.49,0,0,1,2.1-1,2.56,2.56,0,0,1,1.79.62,2.87,2.87,0,0,1,.83,1.78h-.94a1.7,1.7,0,0,0-3.09-.83,3.78,3.78,0,0,0-.49,2.12v.64a3.63,3.63,0,0,0,.54,2.1,1.71,1.71,0,0,0,1.48.78,3.19,3.19,0,0,0,.92-.13,1.45,1.45,0,0,0,.65-.44V68h-1.64v-.85h2.57Z" transform="translate(6.08)"/><rect class="cls-5" x="91.05" y="111.96" width="69.03" height="4.01" rx="1.88"/><ellipse class="cls-1" cx="74.49" cy="153.68" rx="47.04" ry="46.53"/><g class="cls-7"><path class="cls-8" d="M111.9,174.69s-3.58-1.33-3.87-4.57.42-5.89,3.11-6.92,2.25-2.33,1.5-3.23-.59-3.55,1.79-2.37S115.62,171.45,111.9,174.69Z" transform="translate(6.08)"/><path class="cls-8" d="M52.63,143.9s-3.13-.14-2.53,1.77.89,2.65,2.53,1.92,4.84-2.36,3.83-2.65S52.63,143.9,52.63,143.9Z" transform="translate(6.08)"/><path class="cls-8" d="M62.46,123.43a14.6,14.6,0,0,0-3.72,1.77c-1.34,1-4,2.35-2.09,3.39s3.87,3.83,4.32,1.76,0-2.35,1.49-3.09S64.84,125.2,62.46,123.43Z" transform="translate(6.08)"/><path class="cls-8" d="M84.5,114.89s-1.84.44-.7,2.21.59,2.23,3.08,2.63,3.43-1.47,1.64-2.42S84.5,114.89,84.5,114.89Z" transform="translate(6.08)"/><path class="cls-8" d="M85.39,171.3s-1.19,3.09,0,4.27,1.49.59,1.79-.88S86.88,169.83,85.39,171.3Z" transform="translate(6.08)"/><path class="cls-8" d="M7.94,127.71a7.93,7.93,0,0,1,3.14-1.61c1.3-.11,1.3-.32,3.36.81s2.92,2.19,3.79,2.41,1.19-1.29,2.6-1.18,1.4.9,2.27,1.2,1.73.55,1.73,0-1.51-3,0-2.17l1.52.86a1.21,1.21,0,0,1,0-1c.22-.54-.65-1.72-.43-2a8.47,8.47,0,0,0,.46-.86,16.91,16.91,0,0,1,.73,1.72c.11.43.65.35.86,1s-1.29.25,0,1.32,2,2.63,2.06,1.42-.65-2.34,0-2.52,1.63-.61,1.19-.82-1.84.42-1.95-.75a17.9,17.9,0,0,1-.21-3A5.79,5.79,0,0,1,30.14,121s1.73-.54,2.28,0,1.08.11,1.51,1,1.63,1.18,2,1.83,1.3,1.08,1.73,1.66.87.8.87,1.55.54,1.07,1.41,1.82,1.08.82,1,1.32.92.72,0,1-1,.32-1.43,0-1.3-1-.65.24,3.46,1.58,1.08,2.44-2.71-.11-2.82,0-.54-.43-.54-.43-.43-.75-.87-.86l-.43-.11s-1.3,2-1.41,1.29-.54-1.72.11-2.14a5.16,5.16,0,0,0,1.73-1.72c.22-.53,1.2-1.28.11-1.18s-.86,1.07-1.08.11-.11-1.27-.43-1.33-.44.27-.76,0-1.19.27-1.52,0-.32,1.54-.43,2.19-.54,1.18-.54,1.5.21.53.65.85.86,1.18.21,1.29-.86-.11-1.3,0a6.62,6.62,0,0,1-1.51,0s-1.19-.43-2.17,1.39-1.3,2.57-.32,3.32a9.83,9.83,0,0,0,1.73,1.29A9.91,9.91,0,0,1,30,140c.87.53,1.19.11,1.3.75s-.32,1.61.22,2.14.43,1,1.08.75.65-.43.65-1.28-1-1.18,0-1.61,1.63-.64,1.3-1.39a3.65,3.65,0,0,1-.43-1.61c0-.54-.11-.54-.11-1.39s-1-1.5,0-1.61,1.52-.75,2.17,0a3.76,3.76,0,0,1,.86,1.93c.22.75-.54,1.18.44,1.28s1,.43,1.19-.53.76-2.15,1-1.5,0,.32.33,1.28-.22.32.32,1,.14,1.07.94,1.93,1.44,1.17,1.77,1.71a8.87,8.87,0,0,1,.65,1.88c0,.05-.76.05,0,.58s2,1.29,1.41,1.61a2.71,2.71,0,0,1-1.84,0c-.55-.11-.76-.11-1.09-.64l-.32-.54a6.31,6.31,0,0,0-1.52,0c-.65.11-1.19-.86-1.3-.21s-.32,1.19.33,1.56,1.08-.17,1.3.58.21,1.29-.44,1.5-1.73-.54-2.16,0-.87,0-1,.64a6.06,6.06,0,0,1-1.62,2.36c-.87,1-1.09,1.07-1.19,2s-.65.86-1.09,1.4.11.1-.43.53-.54.65-.32,1.4.43.64.21,1.28.43,1.07-.21.64-.87-1.17-1.3-1.5a3,3,0,0,0-2.06-.53c-.54.11-.87-.32-1.63,0s-1,.21-1.3.53-1.19.78-1.08,1.68-.43,1.65-.11,2.29.68.85,1.64,1,1.61.75,1.83,0,.86-2.46,1.08-1.93.33.11.11,1.08-.54.21-.22,1a1.38,1.38,0,0,0,1.3.86h1.19s-.75,1.92-.1,2.46a3.65,3.65,0,0,0,1.84.64c.43.11.65.65,1.08,0s.43-1.18,1.19-1.28.87-.54,1.73-.43.65.11,1.74.64.86-1,1.84.43.21,1.35,2.27,2.12.87-.83,2.06.77,1.08,1.82,2.27,2.15,1.41-.22,2.28.53a10.26,10.26,0,0,0,1.73,1.18c.65.43,1.3-.75,1.3.75s-1.19,2-1.51,2.78a15.12,15.12,0,0,0-.65,2.47c-.22.86,0,1.71-.76,1.93l-2.28.64s-1.3.75-1.3,1.39a3.26,3.26,0,0,1-.76,2.36A6.05,6.05,0,0,0,44.65,186s-1.08-.58-1.4,0,.21.59-1,1.77-2,1.17-2.17,1.6,0-.1-.21.43-.43.32-.54,1.07-.11.11-.33,1.18a5.35,5.35,0,0,1-.65,2.14,3.7,3.7,0,0,0-.43,2.25c0,1.08.65,1.29,1.19,1.83s1.19-.33.54.53-1.84,0-2.27,0-2.17-1.07-2.28-2A13,13,0,0,1,35,193.7a48.79,48.79,0,0,1,1.3-7.66,20.43,20.43,0,0,0,.87-5,5.47,5.47,0,0,0-.22-2.68c-.43-.86-.43-.43-1.19-1.71s-1.08-.22-2-2.25-1.3-2.15-1.19-2.68-.21-.64.11-1.39.76-.65.87-1.4a13.2,13.2,0,0,0,.1-1.52s-.86.52-1.4,0-1.3-.08-1.79-.94-.81-1.5-1-1.82a2.42,2.42,0,0,0-1.08-1,4.3,4.3,0,0,1-.87-.32l-1.19-.21a2.06,2.06,0,0,0-1.08-.43c-.54,0-1.19-.43-1.63-.43s-.65.11-1.08-.32a4.7,4.7,0,0,1-.76-1.07c-.43-.64-.54-.43-.65-1.39a3.19,3.19,0,0,0-.76-1.83c-.32-.42.22-.32-.65-1.07l-.86-.75-.87-.53s-.43-.32-.43.1a4.44,4.44,0,0,0,1,2c.44.43.87,1,.87,1a3.17,3.17,0,0,1,.21,1.52A16.68,16.68,0,0,1,17.69,158c-.22-.43-.33-1-.65-1.5s.21-.22-.76-1.5a13.47,13.47,0,0,1-1.19-1.72s-1.85-1.82-1.95-2.57a7.16,7.16,0,0,1-.22-2.46c.11-1.4.43-2.47-.22-3.32s-1.08-1.72-1.62-2.57-1.63-2.68-1.95-3.22a13.33,13.33,0,0,0-3.58-2.25c-.32,0-.21-.21-1.19-.32s-.65-.53-1.4-.32-1.41.32-1.63.86-.54,2.14-.87,2.25-.21.85-.32.1.54-2,0-1.93-1.52,1.18-1.84,1.61.43,1.07-.87,1.39L-4.3,141a4,4,0,0,0,1.84-3.1s-1.73-.54-1.84-.86-.65.21-.54-.86-.79-1.5,0-1.82a4.5,4.5,0,0,0,1.43-1.07s.1-.43-.55-.64-.55,0-1.19-.43-1.19-1.29-.76-1.5l.44-.22a7.37,7.37,0,0,0,1.41.22h.54s-1.63-1.5-1.63-1.82-.43-1,.11-1.29,1-1,1.52-1.28.75-.65,1.19-.86-.43-1.07,1.3-.43a13.05,13.05,0,0,1,2.38,1.07,9.93,9.93,0,0,1,1.41.11,3.87,3.87,0,0,1,1.84.43,7.32,7.32,0,0,0,2.06.85c.43.11-.43,0,.43.11Z" transform="translate(6.08)"/><path class="cls-8" d="M61.09,152.67s.13-.88.51-.88h1.15s.89,0,1.14.44,1.4.57,2.17,1.45.76,1,1.39,1h1.4l1.79-1.45a2,2,0,0,0,1.27,1.45,4.07,4.07,0,0,0,2.16,0,9.1,9.1,0,0,0,2-1.38v-.64s-1.66-1.25-2.93-.88-1.4-.52-2-.07-1.64.43-1.71-.13-1-.93-.83-1.43.51-1.26,0-1.39A10.29,10.29,0,0,1,67,148l-.13,1.13.89.88a1.34,1.34,0,0,1-.38.88c-.38.38-1.27,1.15-1.15.52s1.15,1.37.13-.64l-1-2L64.4,148s-.38-.88-.89,0a6.94,6.94,0,0,1-1.91,1.76s-.38,0-1.27.88l-.89.88-1.66-.31s.51-.07,0-.57-.25-.88,0-1.38.51-1,1.28-1a1.4,1.4,0,0,0,1.14-.64s1.15-.87.26-1.25l-.89-.38s.76-1.13,1.14-1.13h1.15A12.61,12.61,0,0,1,63,143.11c.38-.38.76-1.38,1.27-1.76s-.5-3.15.77-1.89,1.1,1.76,1.76,2.14.4.5,1.29.38a2.11,2.11,0,0,0,1.34-.76,1.18,1.18,0,0,1,.7-1.26c.89-.5,1.14.23,1.52-.83l.39-1s1-1.39-.51-1.51-2.54.88-2.1-.51.44-2.39.82-2.39,1.15-1.13.26-1-1-1.25-1.78.89-.38.5-.77,2.14-.38,1.25-.63,2.51,1.14.55-.26,1.26-1.65-1.76-1.65-1.76a.89.89,0,0,0-1.15.25c-.51.63-1.52,0-1.52-.63s-.26-2.14.63-2.52a6.65,6.65,0,0,0,1.53-.62,5.84,5.84,0,0,0,1.89-1.84s.36.58,0-1.06-2.14-.13-.36-1.64a10.85,10.85,0,0,1,3-2.13c.44-.13-.07.25,1.21,0s1.52.07,1.9,0,.89,1.41,1.4,1.54,1.66-.38,2.17.37.25-.12.51.76,1.14,1.63,0,1.63H75s-1.27,1.89-.13,2a4.85,4.85,0,0,0,2.36-.51,2.18,2.18,0,0,0,.57-.88c.25-.63-.64-.88,0-1.26s.64-.88,1.15-.75-.9.13.5.13a6,6,0,0,0,2.55-.76A3.38,3.38,0,0,0,83.1,129s.13-.13,1.15,0,1.27-.89,1.78-.89.76.26,1.27.76-.12.13.51.5l.64.38a25.09,25.09,0,0,1,0-3.15,5.94,5.94,0,0,1,.76-1.51c.26-.37,0-2,.51-1.38a4.14,4.14,0,0,1,.89,1.38c.26.63.13.63,0,1.14a9.14,9.14,0,0,1-.25,2.89c-.51,1.64-1.66,2-1.28,2.27s.64.12,1,0a2.35,2.35,0,0,0,.79-.63,2.75,2.75,0,0,1,0-1.76c.36-.63.36-3.28.74-3.78s-.38-1.13.38-.5-.38-.38.76.63.26.88,1.15,1l.89.13v-1.89s-1.91-1.17-.64-1l1.28.14a6,6,0,0,1,.63-1.26c.64-1.13-.25-.5.64-1.13s0-.25.89-.63,1-1.13,1.53-1.64.63-2,.89-1.26-1.78,1.26,0,1.52a4.71,4.71,0,0,0,2.29,0s-1.53-1.43,0-1.72,2-.71,2,0-1,.58,0,1.09-.38-.63,1,.5,1.4.13,1.4,1.13-.13.63-.64,1.26-1.78,2.14-1.78,2.14c.51.88.89.5,1.4.38s.13-.63,1-.25a10.19,10.19,0,0,1,2,.88c.5.37.12.5,1.52-.38s.38-2.27,1.4-.88,1.15,1,1.27,2-1.14,1.39,0,1.64.26,1.13,1.15.25,1.53-1.39,2-1.13.76.5,1.27-.25-.51-2.77,1-1.64.76,1.13,2,1.38,1.4-.88,1.91.26.51,1.88,1.65,1.76,1,.12,1.53.75.64,1.13,1.4.76.64-1,1.27-.51a3.56,3.56,0,0,0,2,.38s-1.27-1,0-.88,3.31-.63,3.56.5-1,.13.25,1.14,2.29.75,2.55,1.38-.26.63,0,1.26-.26.88-.64.88a2.7,2.7,0,0,1-1.4-.13c-.51-.25-1.14-.75-1.27-.37s-.89.5-.76,1.13.89.75.13,1.26-.77-.08-2.29.71a6.88,6.88,0,0,0-2,1.43,1.63,1.63,0,0,0-1.15,0c-.5.25-.12-1.14-.5.25s-.64,1-.64,2.26.38.89-.38,1.89.25,0-.77,1-1.65,0-1.65,0a4,4,0,0,1,.13-1c.12-.38-.13-1.26.63-2a3.18,3.18,0,0,0,1-1.39c.38-.75.76-1.38.76-1.38s0-1.71-1.14-1,0-.46-1.15.67-.89,1.39-2.41,1.26-3.57-.63-3.82-.13-.51.13-.76,1.26-.64,1.26-.64,1.77-.76-.51,0,.5,1,.63,1.4,1.38.13,1,.25,1.39-1,2.51-1.78,3.14-2.16.76-2.29,1.26-.63,0-.63.76a1.79,1.79,0,0,1-.64,1.26,10.41,10.41,0,0,1,.76,1.88.8.8,0,0,1-.51.88l-.5-1.25-1.15-1.26-.63-.25s-.13-.26-.51,0-1.28.12-1.15.75.76,1.13.76,1.51v.38c0,1-.25,0,0,1a2,2,0,0,1-.25,1.77c-.25.63,0,.37-.76,1a5.48,5.48,0,0,1-1.91,1.14c-.51.12-.13-1.51-.51.12s-1.15,1.76-1.15,1.76.26-1.13-.12-1.13S103,159,103.33,160s1.66,1.14,1.79,1.51a3.43,3.43,0,0,1-1,2.14c-.38.13.25.63-.38.13a6,6,0,0,0-1.28-.76s-.12-.5-.76-.25-.64-.5-.64.25.39.19.64,1a14.45,14.45,0,0,1,.38,1.47s.51-.18.77.57-.13,1.39.38,1.77.38.75.51,1.51,2.54,1,2.54,1.38-.51-.38-1.4,0-2.29.85-2.42.11a4,4,0,0,0-1-1.62s-2.68-3.92-2.29-3.72.25-1.08,1.14,0,1.4,3.22.89,1.08-1.4-2.14-1.27-3.53l.13-1.38s2.29,0-.26-1.26-2.8-1.63-3.56-1.26-1.4-.25-1.91.76-.89.88-1.14,1.63-.64,1-.26,1.64.89,2.52-.13,1.38-1.52-1.51-1.52-2.26-.26-2.14-.77-2.39a10.45,10.45,0,0,1-1.4-1,5.48,5.48,0,0,0-1.27-1.51,1.73,1.73,0,0,0-1.14-.25,3.3,3.3,0,0,1-1.4-.25,15.77,15.77,0,0,0-1.91-.51,6,6,0,0,1-1.65-.62s-1.53.37-1.15.88,0,.75,1,.88a8.26,8.26,0,0,0,1.65.12c.89,0,1.91.88,1.53,1.51s-.13.76-1.15,1.51a8.62,8.62,0,0,1-2.8,1.14c-1,.37-1.78.63-2.29.37a2.06,2.06,0,0,1-1.14-1.51c-.13-.75-.26-1.13-.38-1.88a3.51,3.51,0,0,0-.51-1.51c-.26-.38.51-.26-.26-.38s-.63-1.26-.76-.13-1,1-.25,2.27.63,2.2,1.52,2.26,0,1.51,1.4,1.89a18.89,18.89,0,0,0,3.06.5s.89.38.38.88-.89.24-1.15.94-1.14.7-1.65,1.58-1.27.88-1.4,1.64-.51,1.51-.38,1.89a9.51,9.51,0,0,1-.51,3.64c-.38.51-1.4-.5-1.53,1s0,2.27-.63,3.27a13.78,13.78,0,0,0-1.15,2.14c-.89,1.76-2.67,1.51-3.05,1.76s-1.28,0-1.28,0-.38.51-.5-1.63a8.55,8.55,0,0,0-.9-4c-.5-.88-.12,0-.5-.88a4.89,4.89,0,0,1-.39-2.26c0-.76,1.15,1,0-2s-.89-.75-1.14-3-.51-3-1.27-3.09-.77.06-1.4,0,.76-.82-1.78,0-3.82,1.06-4.33,0a23.46,23.46,0,0,1-1.15-2.32c-.12-.5-1.14-1.89-.89-2.77s0-1.89.51-2.77.13-.88,1-1.63.64-.76,1-1.39-.13-1.13.51-1.26.51,0,1.4-.12a8.62,8.62,0,0,0,1.52-.38Z" transform="translate(6.08)"/></g><path class="cls-9" d="M68.62,107.36c25.86,0,46.83,20.74,46.83,46.33S94.48,200,68.62,200" transform="translate(6.08)"/><path class="cls-10" d="M32,124.25c-.39-1-.76-1.89-1.1-2.79" transform="translate(6.08)"/><path class="cls-11" d="M29,115.78c-1.67-6.06-1.58-10.29.63-11.82,6.25-4.3,27,14.47,46.36,41.93s30,53.21,23.75,57.52c-2,1.4-5.61.35-10.17-2.64" transform="translate(6.08)"/><path class="cls-10" d="M87.1,199c-.76-.57-1.55-1.19-2.36-1.85" transform="translate(6.08)"/><path class="cls-10" d="M105.42,124.25q.6-1.44,1.11-2.79" transform="translate(6.08)"/><path class="cls-12" d="M108.41,115.78c1.67-6.06,1.59-10.29-.63-11.82-6.24-4.3-27,14.47-46.35,41.93s-30,53.21-23.75,57.52c2,1.4,5.6.35,10.16-2.64" transform="translate(6.08)"/><path class="cls-10" d="M50.29,199c.77-.57,1.55-1.19,2.36-1.85" transform="translate(6.08)"/><path class="cls-13" d="M115.13,148.23c9.91,1.25,15.94,2.89,15.94,4.7,0,3.89-28,7-62.53,7S6,156.82,6,152.93c0-1.81,6.05-3.46,16-4.71" transform="translate(6.08)"/><path class="cls-14" d="M46,106a6.55,6.55,0,1,1-6.55-6.47A6.52,6.52,0,0,1,46,106Z" transform="translate(6.08)"/><path class="cls-15" d="M39.41,99.56a6.48,6.48,0,1,1,0,13" transform="translate(6.08)"/><path class="cls-16" d="M44.68,106a5.28,5.28,0,1,1-5.27-5.21A5.24,5.24,0,0,1,44.68,106Z" transform="translate(6.08)"/><path class="cls-17" d="M39,109.12a3.6,3.6,0,0,1-2.19-.92l.83-1.21a2.79,2.79,0,0,0,1.36.73v-1c-.94-.21-2-.59-2-1.87A2,2,0,0,1,39,103v-.84h1V103a3.64,3.64,0,0,1,1.88.8L41,104.94a2.87,2.87,0,0,0-1-.52v.88c.95.21,2,.59,2,1.84a2,2,0,0,1-2,2v.82H39Zm0-4.06v-.72c-.27,0-.39.19-.39.39S38.73,105,39,105.06Zm1,1.88v.8c.27-.08.44-.23.44-.44S40.25,107,40,106.94Z" transform="translate(6.08)"/><path class="cls-14" d="M18.7,156a4.33,4.33,0,1,1-4.33-4.28A4.31,4.31,0,0,1,18.7,156Z" transform="translate(6.08)"/><path class="cls-15" d="M14.37,151.69a4.28,4.28,0,1,1,0,8.56" transform="translate(6.08)"/><path class="cls-16" d="M17.85,156a3.48,3.48,0,1,1-3.48-3.44A3.46,3.46,0,0,1,17.85,156Z" transform="translate(6.08)"/><path class="cls-17" d="M14.09,158a2.34,2.34,0,0,1-1.44-.61l.54-.8a1.9,1.9,0,0,0,.9.48v-.66c-.62-.14-1.31-.38-1.31-1.23A1.3,1.3,0,0,1,14.09,154v-.56h.67V154a2.49,2.49,0,0,1,1.24.53l-.57.77a1.64,1.64,0,0,0-.67-.34v.57c.62.14,1.34.39,1.34,1.22A1.32,1.32,0,0,1,14.76,158v.54h-.67Zm0-2.68v-.48c-.18,0-.26.13-.26.26S13.93,155.28,14.09,155.33Zm.67,1.24v.52c.18,0,.28-.15.28-.28S14.93,156.62,14.76,156.57Z" transform="translate(6.08)"/><path class="cls-14" d="M128.46,156a4.33,4.33,0,1,1-4.33-4.28A4.31,4.31,0,0,1,128.46,156Z" transform="translate(6.08)"/><path class="cls-15" d="M124.13,151.69a4.28,4.28,0,1,1,0,8.56" transform="translate(6.08)"/><path class="cls-16" d="M127.62,156a3.49,3.49,0,1,1-3.49-3.44A3.46,3.46,0,0,1,127.62,156Z" transform="translate(6.08)"/><path class="cls-17" d="M123.85,158a2.34,2.34,0,0,1-1.44-.61l.54-.8a1.9,1.9,0,0,0,.9.48v-.66c-.62-.14-1.31-.38-1.31-1.23a1.3,1.3,0,0,1,1.31-1.24v-.56h.67V154a2.49,2.49,0,0,1,1.24.53l-.56.77a1.74,1.74,0,0,0-.68-.34v.57c.62.14,1.34.39,1.34,1.22a1.32,1.32,0,0,1-1.34,1.31v.54h-.67Zm0-2.68v-.48c-.18,0-.26.13-.26.26S123.69,155.28,123.85,155.33Zm.67,1.24v.52c.18,0,.29-.15.29-.28S124.69,156.62,124.52,156.57Z" transform="translate(6.08)"/><ellipse class="cls-14" cx="83.07" cy="147.67" rx="6.55" ry="6.48"/><path class="cls-15" d="M77,141.19a6.48,6.48,0,1,1,0,13" transform="translate(6.08)"/><path class="cls-16" d="M82.26,147.67A5.28,5.28,0,1,1,77,142.45,5.25,5.25,0,0,1,82.26,147.67Z" transform="translate(6.08)"/><path class="cls-17" d="M74.51,148.63h-.43v-.78h.28v-.18a1.48,1.48,0,0,1,0-.21h-.29v-.77h.43a2.94,2.94,0,0,1,2.91-1.92,2.63,2.63,0,0,1,2.48,1.5l-1.26.59a1.37,1.37,0,0,0-1.22-.81,1.5,1.5,0,0,0-1.28.64h1.79v.77H75.85a1.48,1.48,0,0,0,0,.21,1,1,0,0,0,0,.18h2.08v.78H76.12a1.54,1.54,0,0,0,1.3.66,1.37,1.37,0,0,0,1.22-.81l1.26.58a2.66,2.66,0,0,1-2.48,1.51A2.94,2.94,0,0,1,74.51,148.63Z" transform="translate(6.08)"/><path class="cls-14" d="M40.15,195.8a4.26,4.26,0,1,1-4.26-4.21A4.24,4.24,0,0,1,40.15,195.8Z" transform="translate(6.08)"/><path class="cls-15" d="M35.89,191.59a4.21,4.21,0,1,1,0,8.42" transform="translate(6.08)"/><path class="cls-16" d="M39.32,195.8a3.43,3.43,0,1,1-3.43-3.39A3.41,3.41,0,0,1,39.32,195.8Z" transform="translate(6.08)"/><path class="cls-17" d="M34.28,196.42H34v-.5h.18v-.12a.61.61,0,0,1,0-.14H34v-.5h.28a1.9,1.9,0,0,1,1.89-1.25,1.7,1.7,0,0,1,1.61,1l-.82.38a.88.88,0,0,0-.79-.53,1,1,0,0,0-.83.42h1.17v.5H35.15v.26h1.36v.5H35.33a1,1,0,0,0,.84.43.88.88,0,0,0,.79-.53l.82.38a1.72,1.72,0,0,1-1.61,1A1.91,1.91,0,0,1,34.28,196.42Z" transform="translate(6.08)"/><path class="cls-14" d="M88.07,119.1a4.26,4.26,0,1,1-4.26-4.21A4.24,4.24,0,0,1,88.07,119.1Z" transform="translate(6.08)"/><path class="cls-15" d="M83.81,114.89a4.21,4.21,0,1,1,0,8.42" transform="translate(6.08)"/><path class="cls-16" d="M87.24,119.1a3.43,3.43,0,1,1-3.43-3.39A3.41,3.41,0,0,1,87.24,119.1Z" transform="translate(6.08)"/><path class="cls-17" d="M82.2,119.72h-.28v-.5h.18v-.12a.66.66,0,0,1,0-.14h-.19v-.5h.28a1.93,1.93,0,0,1,1.89-1.25,1.7,1.7,0,0,1,1.61,1l-.82.38a.88.88,0,0,0-.79-.53,1,1,0,0,0-.83.42h1.17v.5H83.07v.26h1.36v.5H83.25a1,1,0,0,0,.84.43.88.88,0,0,0,.79-.53l.82.38a1.72,1.72,0,0,1-1.61,1A1.91,1.91,0,0,1,82.2,119.72Z" transform="translate(6.08)"/><path class="cls-14" d="M116.12,114.89a6.55,6.55,0,1,1-6.55-6.48A6.52,6.52,0,0,1,116.12,114.89Z" transform="translate(6.08)"/><path class="cls-15" d="M109.57,108.41a6.48,6.48,0,1,1,0,13" transform="translate(6.08)"/><path class="cls-16" d="M114.84,114.89a5.28,5.28,0,1,1-5.27-5.22A5.24,5.24,0,0,1,114.84,114.89Z" transform="translate(6.08)"/><path class="cls-17" d="M107.23,114.6h.46a1.64,1.64,0,0,1-.29-.87,2.06,2.06,0,0,1,2.22-1.85,2.23,2.23,0,0,1,2.19,1.09l-1.21.69a.82.82,0,0,0-.79-.57.69.69,0,0,0-.75.67,1.65,1.65,0,0,0,.31.84h1.23v.84h-1v.06a1.1,1.1,0,0,1-.53.89,1.12,1.12,0,0,1,.42-.07c.5,0,.67.25,1.08.25a.84.84,0,0,0,.71-.31l.6,1.19a1.78,1.78,0,0,1-1.36.45c-.76,0-1.14-.38-1.61-.38a2.3,2.3,0,0,0-1,.33l-.5-1c.45-.23.86-.55.86-1a1.14,1.14,0,0,0-.1-.45h-1Z" transform="translate(6.08)"/><path class="cls-14" d="M101.33,177.59a6.55,6.55,0,1,1-6.55-6.48A6.51,6.51,0,0,1,101.33,177.59Z" transform="translate(6.08)"/><path class="cls-15" d="M94.78,171.11a6.48,6.48,0,1,1,0,12.95" transform="translate(6.08)"/><path class="cls-16" d="M100.06,177.59a5.28,5.28,0,1,1-5.28-5.22A5.25,5.25,0,0,1,100.06,177.59Z" transform="translate(6.08)"/><path class="cls-17" d="M94.13,180.27v-.89H92.36v-.74h1.77v-.53H92.36v-.75h1.29l-1.58-2.46h1.58l1.18,2,1.17-2h1.58L96,177.36h1.31v.75H95.53v.53h1.78v.74H95.53v.89Z" transform="translate(6.08)"/><path class="cls-14" d="M55.37,160a4.16,4.16,0,1,1-4.15-4.11A4.13,4.13,0,0,1,55.37,160Z" transform="translate(6.08)"/><path class="cls-15" d="M51.22,155.86a4.11,4.11,0,1,1,0,8.22" transform="translate(6.08)"/><path class="cls-16" d="M54.56,160a3.35,3.35,0,1,1-3.34-3.31A3.32,3.32,0,0,1,54.56,160Z" transform="translate(6.08)"/><path class="cls-17" d="M50.8,161.68v-.57H49.68v-.47H50.8v-.34H49.68v-.47h.82l-1-1.56h1l.75,1.25.74-1.25h1l-1,1.56h.83v.47H51.69v.34h1.13v.47H51.69v.57Z" transform="translate(6.08)"/></g></g></svg>