<svg id="Layer_1" data-name="Layer 1" xmlns="http://www.w3.org/2000/svg" width="183.8816" height="210.8553" viewBox="0 0 183.8816 210.8553"><defs><style>.cls-1{fill:#373f44;}.cls-2{fill:#f3f3f3;}.cls-3{fill:#ccc;}.cls-4{fill:#010101;}.cls-5{fill:#2b3990;opacity:0.88;}.cls-6{fill:#262262;}.cls-7{fill:#27aae1;}.cls-8{fill:#1b75bc;}</style></defs><title>engtech</title><rect class="cls-1" width="183.8816" height="210.8553"/><rect class="cls-2" x="75.7173" y="46.8805" width="99.6017" height="136.4054" rx="4"/><rect class="cls-3" x="86.2358" y="145.2612" width="69.0324" height="4.0138" rx="1.8818"/><rect class="cls-3" x="85.5885" y="104.4064" width="69.0324" height="4.0138" rx="1.8818"/><path class="cls-4" d="M97.73,67.43H94.66V70.209h3.5664v.8452h-4.5v-7.84h4.4511V64.06H94.66V66.585H97.73Z"/><path class="cls-4" d="M104.8322,71.0542h-.9384l-3.5655-6.0415v6.0415h-.9394v-7.84h.9394l3.5752,6.0688V63.2139h.9287Z"/><path class="cls-4" d="M111.7209,70.0259a2.2021,2.2021,0,0,1-1.0039.8535,3.7146,3.7146,0,0,1-1.501.2827,2.6972,2.6972,0,0,1-1.5371-.45,2.91,2.91,0,0,1-1.039-1.2788,4.816,4.816,0,0,1-.377-1.9223v-.6841a4.4282,4.4282,0,0,1,.7471-2.7461,2.49,2.49,0,0,1,2.0986-.9746,2.5185,2.5185,0,0,1,1.7852.6274,2.8338,2.8338,0,0,1,.8271,1.7793h-.9336a1.704,1.704,0,0,0-3.0967-.831,3.8676,3.8676,0,0,0-.4892,2.1152v.6411a3.5992,3.5992,0,0,0,.5449,2.0991,1.7085,1.7085,0,0,0,1.4746.7788,2.96,2.96,0,0,0,.919-.1289,1.4061,1.4061,0,0,0,.6523-.435V67.9956h-1.64V67.15h2.5684Z"/><path class="cls-4" d="M114.28,71.0542h-.9336v-7.84h.9336Z"/><path class="cls-4" d="M121.4309,71.0542h-.9395l-3.5654-6.0415v6.0415h-.9385v-7.84h.9385l3.5752,6.0688V63.2139h.93Z"/><path class="cls-4" d="M127.093,67.43h-3.0694V70.209H127.59v.8452h-4.5v-7.84h4.4512V64.06h-3.5176V66.585h3.0694Z"/><path class="cls-4" d="M132.7561,67.43h-3.0694V70.209h3.5655v.8452h-4.5v-7.84h4.4511V64.06h-3.5166V66.585h3.0694Z"/><path class="cls-4" d="M137.0129,67.8828h-1.6641v3.1714H134.41v-7.84h2.3447a2.5927,2.5927,0,0,1,1.8408.6035,2.6021,2.6021,0,0,1,.2871,3.0313,2.1635,2.1635,0,0,1-.9951.8129L139.552,70.99v.0644H138.55Zm-1.6641-.8457h1.4356a1.5219,1.5219,0,0,0,1.1064-.3989,1.4227,1.4227,0,0,0,.4112-1.0684,1.5062,1.5062,0,0,0-.3916-1.1166A1.5577,1.5577,0,0,0,136.78,64.06h-1.4307Z"/><path class="cls-4" d="M141.551,71.0542h-.9336v-7.84h.9336Z"/><path class="cls-4" d="M148.7024,71.0542h-.94l-3.5654-6.0415v6.0415h-.9385v-7.84h.9385l3.5752,6.0688V63.2139h.93Z"/><path class="cls-4" d="M155.591,70.0259a2.2047,2.2047,0,0,1-1.0049.8535,3.707,3.707,0,0,1-1.5009.2827,2.6967,2.6967,0,0,1-1.5371-.45,2.9076,2.9076,0,0,1-1.0381-1.2788,4.8193,4.8193,0,0,1-.378-1.9223v-.6841a4.4288,4.4288,0,0,1,.7471-2.7461,2.4916,2.4916,0,0,1,2.1-.9746,2.52,2.52,0,0,1,1.7852.6274,2.8384,2.8384,0,0,1,.8271,1.7793h-.9345a1.7033,1.7033,0,0,0-3.0957-.831,3.8492,3.8492,0,0,0-.4893,2.1152v.6411a3.5992,3.5992,0,0,0,.5449,2.0991,1.708,1.708,0,0,0,1.4736.7788,2.9621,2.9621,0,0,0,.92-.1289,1.4021,1.4021,0,0,0,.6513-.435V67.9956h-1.64V67.15h2.5693Z"/><path class="cls-4" d="M98.426,77.293H96.15v6.9946h-.93V77.293H92.9484v-.8457H98.426Z"/><path class="cls-4" d="M103.4807,80.6636h-3.0694v2.7788h3.5655v.8452h-4.5v-7.84h4.4511v.8457h-3.5166v2.5254h3.0694Z"/><path class="cls-4" d="M110.35,81.8a3.0133,3.0133,0,0,1-.83,1.92,2.5552,2.5552,0,0,1-1.8554.6757,2.4011,2.4011,0,0,1-2.0118-.9965,4.3013,4.3013,0,0,1-.7558-2.6651V79.98a4.8748,4.8748,0,0,1,.3525-1.9224,2.8453,2.8453,0,0,1,.9991-1.2734,2.5837,2.5837,0,0,1,1.499-.4443,2.4153,2.4153,0,0,1,1.81.6972,3.0648,3.0648,0,0,1,.793,1.9307H109.41a2.3729,2.3729,0,0,0-.5274-1.3613,1.5036,1.5036,0,0,0-1.1357-.4214,1.6165,1.6165,0,0,0-1.4033.7329,3.6267,3.6267,0,0,0-.5088,2.0859v.76a3.7388,3.7388,0,0,0,.4814,2.0317,1.5156,1.5156,0,0,0,1.3477.7544,1.6814,1.6814,0,0,0,1.1943-.39,2.2729,2.2729,0,0,0,.5518-1.36Z"/><path class="cls-4" d="M117.0676,84.2876h-.9385v-3.624h-3.57v3.624h-.9346v-7.84h.9346v3.3711h3.57V76.4473h.9385Z"/><path class="cls-4" d="M124.17,84.2876h-.9384l-3.5655-6.0415v6.0415h-.9394v-7.84h.9394l3.5752,6.0688V76.4473h.9287Z"/><path class="cls-4" d="M131.2775,80.6206a5.3072,5.3072,0,0,1-.35,2.0113,2.8812,2.8812,0,0,1-.9921,1.311,2.677,2.677,0,0,1-2.9825-.0024,2.94,2.94,0,0,1-1.0049-1.2979,5.09,5.09,0,0,1-.3671-1.9521V80.125a5.2283,5.2283,0,0,1,.3554-1.9975A2.94,2.94,0,0,1,126.9406,76.8a2.5068,2.5068,0,0,1,1.4864-.46,2.5511,2.5511,0,0,1,1.5009.455,2.8781,2.8781,0,0,1,1,1.3194,5.3307,5.3307,0,0,1,.35,2.0107Zm-.9287-.5063a3.8027,3.8027,0,0,0-.5058-2.14,1.6172,1.6172,0,0,0-1.416-.7456,1.6,1.6,0,0,0-1.3936.7456,3.7074,3.7074,0,0,0-.5225,2.07v.5761a3.8083,3.8083,0,0,0,.5127,2.1245,1.6944,1.6944,0,0,0,2.8145.043,3.7779,3.7779,0,0,0,.5107-2.0923Z"/><path class="cls-4" d="M133.6184,83.4424h3.3564v.8452h-4.2959v-7.84h.94Z"/><path class="cls-4" d="M143.1721,80.6206a5.3067,5.3067,0,0,1-.3506,2.0113,2.8814,2.8814,0,0,1-.9922,1.311,2.6769,2.6769,0,0,1-2.9824-.0024,2.9445,2.9445,0,0,1-1.0039-1.2979,5.0711,5.0711,0,0,1-.3672-1.9521V80.125a5.2478,5.2478,0,0,1,.3545-1.9975A2.9469,2.9469,0,0,1,138.8352,76.8a2.5045,2.5045,0,0,1,1.4863-.46,2.5534,2.5534,0,0,1,1.501.455,2.8771,2.8771,0,0,1,.999,1.3194,5.33,5.33,0,0,1,.3506,2.0107Zm-.93-.5063a3.7945,3.7945,0,0,0-.5059-2.14,1.6952,1.6952,0,0,0-2.8086,0,3.708,3.708,0,0,0-.5234,2.07v.5761a3.8,3.8,0,0,0,.5137,2.1245,1.6935,1.6935,0,0,0,2.8135.043,3.78,3.78,0,0,0,.5107-2.0923Z"/><path class="cls-4" d="M149.8029,83.2593a2.2049,2.2049,0,0,1-1.0048.8535,3.7078,3.7078,0,0,1-1.501.2827,2.6967,2.6967,0,0,1-1.5371-.45,2.9076,2.9076,0,0,1-1.0381-1.2788,4.8176,4.8176,0,0,1-.3779-1.9223v-.6841a4.4288,4.4288,0,0,1,.747-2.7461,2.4916,2.4916,0,0,1,2.1-.9746,2.52,2.52,0,0,1,1.7852.6274,2.8379,2.8379,0,0,1,.8271,1.7793h-.9345a1.7033,1.7033,0,0,0-3.0957-.831,3.8492,3.8492,0,0,0-.4893,2.1152v.6411a3.5992,3.5992,0,0,0,.5449,2.0991,1.7081,1.7081,0,0,0,1.4737.7788,2.9619,2.9619,0,0,0,.92-.1289,1.4029,1.4029,0,0,0,.6514-.435V81.229h-1.64v-.8452h2.5693Z"/><path class="cls-4" d="M153.5188,80.3838l1.8486-3.9365h1.06l-2.4414,4.9165v2.9238h-.9345V81.3638L150.61,76.4473h1.07Z"/><rect class="cls-3" x="84.9689" y="125.21" width="69.0324" height="4.0138" rx="1.8818"/><path class="cls-5" d="M101.9605,108.6856l-.0253-3.8506-5.1319-1.0717a19.448,19.448,0,0,0-1.1-4.1471l3.9138-3.633-1.9132-3.3218L92.657,94.3708a19.2462,19.2462,0,0,0-2.9583-2.9146l1.65-5.2807L88.06,84.2729l-3.6747,4.2137a18.5828,18.5828,0,0,0-3.795-.9284l-1.2205-5.6676-3.7822.0258-1.1743,5.8267a18.5717,18.5717,0,0,0-3.4755,1.0494l-4.0456-4.5158-3.263,1.9476,1.94,5.9348a19.274,19.274,0,0,0-2.3283,2.4717l-5.9829-1.9364-1.869,3.3478,4.7485,4.2911a19.4567,19.4567,0,0,0-.79,3.1492l-6.2987,1.4055.0256,3.8506,6.2969,1.3154a19.4443,19.4443,0,0,0,.8009,3.0994l-4.7792,4.4371,1.9127,3.3217,6.0247-2.04a19.2725,19.2725,0,0,0,2.2523,2.3743l-1.9213,6.1519,3.2883,1.903,4.07-4.667a18.5773,18.5773,0,0,0,3.3188,1.0053l1.3014,6.0435,3.7824-.0257,1.1743-5.8263a18.5719,18.5719,0,0,0,3.6329-.8745l3.8879,4.34,3.2633-1.9475L89.63,121.9934a19.2379,19.2379,0,0,0,2.8871-2.8084l5.2348,1.6942,1.8693-3.3474-3.979-3.5956a19.4277,19.4277,0,0,0,1.1257-4.092ZM66.623,106.7739a11.4308,11.4308,0,1,1,11.5049,11.5569A11.5369,11.5369,0,0,1,66.623,106.7739Z"/><path class="cls-6" d="M119.1358,191.3821V188.471l-3.8743-.8367a14.7041,14.7041,0,0,0-.8113-3.1408l2.9768-2.7264-1.43-2.5209-3.8236,1.2663a14.5447,14.5447,0,0,0-2.222-2.2187l1.2734-3.9836-2.4767-1.4553-2.799,3.1666a14.0465,14.0465,0,0,0-2.8643-.7214l-.8945-4.2909H99.3313l-.9169,4.3988a14.0454,14.0454,0,0,0-2.6325.7754l-3.036-3.4347L90.27,174.2042l1.437,4.4967a14.5773,14.5773,0,0,0-1.7724,1.8565l-4.5133-1.4947-1.43,2.5213,3.5684,3.2684a14.71,14.71,0,0,0-.6127,2.3767l-4.7687,1.03,0,2.9111,4.7537,1.0269a14.7132,14.7132,0,0,0,.59,2.3473l-3.635,3.33,1.43,2.521,4.5645-1.5114a14.5856,14.5856,0,0,0,1.691,1.8066l-1.483,4.6407,2.4764,1.4557,3.1-3.5072a14.0452,14.0452,0,0,0,2.504.777l.9537,4.5755h2.86l.9167-4.3984a14.0385,14.0385,0,0,0,2.7507-.6424l2.9177,3.3013,2.4766-1.4555-1.2969-4.058a14.5361,14.5361,0,0,0,2.1967-2.1081l3.9489,1.3077,1.43-2.521-2.99-2.7387a14.6987,14.6987,0,0,0,.8714-3.0876Zm-26.7049-1.6273a8.6416,8.6416,0,1,1,8.64,8.7961A8.7193,8.7193,0,0,1,92.4309,189.7548Z"/><path class="cls-7" d="M101.9605,161.0912l-.0217-6.0028-6.6032-1.4a32.3593,32.3593,0,0,0-2.0141-7.7567l5.0437-4.6538L95.3977,136.09l-6.4331,2.1572a32.0234,32.0234,0,0,0-5.5464-5.64l2.1016-6.6591-5.1179-2.982-4.5615,5.2a30.901,30.901,0,0,0-7.5029-2.021l-1.4715-6.9335-5.8965.0221-1.4213,6.9444a30.9053,30.9053,0,0,0-7.388,2.0366l-4.7575-5.3427-5.0954,3.02,2.2173,6.8534a32.0366,32.0366,0,0,0-5.3273,5.4437l-6.8525-2.241-2.9294,5.21L34.76,146.017a32.34,32.34,0,0,0-1.9433,7.3614l-7.0894,1.5591.0221,6.0028,7.0529,1.4959a32.3594,32.3594,0,0,0,1.899,7.3517l-5.3784,4.9631,2.9671,5.1875,6.8164-2.2857a32.0487,32.0487,0,0,0,5.2667,5.44L42.168,190.08l5.1172,2.9819,4.718-5.3775a30.91,30.91,0,0,0,7.3191,2.07l1.4988,7.063,5.8968-.0221,1.4239-6.9576a30.9,30.9,0,0,0,7.4532-1.947l4.6894,5.2666,5.0957-3.0207-2.1466-6.6347a32.0228,32.0228,0,0,0,5.5564-5.5641l6.5526,2.143,2.93-5.21-5.0461-4.588a32.3648,32.3648,0,0,0,2.077-7.7277ZM90.4433,157.88a26.3895,26.3895,0,1,1-26.4825-26.7609A26.6605,26.6605,0,0,1,90.4433,157.88Z"/><path class="cls-8" d="M64.2472,137.825a20.1932,20.1932,0,0,1,.0721,40.3784l-.0747,0a20.2566,20.2566,0,0,1-14.0665-34.4053,19.5254,19.5254,0,0,1,13.9944-5.9731l.0747,0m0-2.1964-.0823,0a22.39,22.39,0,0,0,.08,44.7713l.0824,0a22.39,22.39,0,0,0-.08-44.7713Z"/></svg>