<svg id="Layer_1" data-name="Layer 1" xmlns="http://www.w3.org/2000/svg" width="100" height="100" viewBox="0 0 100 100"><title>engtech</title><g id="Circle_Grid" data-name="Circle Grid"><circle cx="50" cy="50" r="50" style="fill:#69b0ee"/></g><g id="icon"><path d="M476,40.5V33.65l-5-1.07a16.07,16.07,0,0,0-1.4-3.38l2.81-4.32L467.52,20l-4.32,2.81a15.16,15.16,0,0,0-3.38-1.4l-1.07-5H451.9l-1.07,5a16.11,16.11,0,0,0-3.38,1.41L443.13,20l-4.84,4.84,2.81,4.32a15.56,15.56,0,0,0-1.4,3.38l-5,1.07V40.5l5,1.07A15.36,15.36,0,0,0,441.1,45l-2.81,4.32,4.84,4.85,4.32-2.82a15.89,15.89,0,0,0,3.38,1.41l1.07,5h6.85l1.07-5a16.39,16.39,0,0,0,3.38-1.4l4.32,2.81,4.84-4.85L469.55,45a15.36,15.36,0,0,0,1.4-3.38ZM455.33,46a8.92,8.92,0,1,1,8.91-8.92h0A8.91,8.91,0,0,1,455.33,46Z" transform="translate(-412 0)" style="fill:#575b6d"/><path d="M489.34,70.88v-5l-3.71-.79a11.78,11.78,0,0,0-1-2.49l2.07-3.19-3.58-3.56-3.18,2.07a11.81,11.81,0,0,0-2.49-1l-.79-3.72h-5l-.79,3.72a11.78,11.78,0,0,0-2.49,1l-3.18-2.06-3.57,3.56,2.07,3.19a11.81,11.81,0,0,0-1,2.49l-3.71.79v5l3.71.79a11.57,11.57,0,0,0,1,2.49l-2.06,3.18,3.57,3.58,3.18-2.07a11.78,11.78,0,0,0,2.49,1l.79,3.71h5.05l.78-3.71a11.57,11.57,0,0,0,2.49-1l3.18,2.07,3.58-3.58-2.07-3.18a11.78,11.78,0,0,0,1-2.49Zm-15.23,4.05a6.57,6.57,0,1,1,6.57-6.57A6.57,6.57,0,0,1,474.11,74.93Z" transform="translate(-412 0)" style="fill:#575b6d"/></g></svg>