<svg id="Layer_1" data-name="Layer 1" xmlns="http://www.w3.org/2000/svg" width="183.88" height="210.86" viewBox="0 0 183.88 210.86"><defs><style>.cls-1{fill:none;}.cls-2{fill:#f3f3f3;}.cls-3{fill:#ccc;}.cls-4{fill:#010101;}.cls-5{fill:#2b3990;opacity:0.88;}.cls-6{fill:#262262;}.cls-7{fill:#27aae1;}.cls-8{fill:#1b75bc;}</style></defs><title>engtech</title><rect class="cls-1" width="183.88" height="210.86"/><rect class="cls-2" x="75.72" y="46.88" width="99.6" height="136.41" rx="4"/><rect class="cls-3" x="86.24" y="145.26" width="69.03" height="4.01" rx="1.88"/><rect class="cls-3" x="85.59" y="104.41" width="69.03" height="4.01" rx="1.88"/><path class="cls-4" d="M97.73,67.43H94.66v2.78h3.57v.84h-4.5V63.21h4.45v.85H94.66v2.52h3.07Z"/><path class="cls-4" d="M104.83,71.05h-.94l-3.56-6v6h-.94V63.21h.94l3.57,6.07V63.21h.93Z"/><path class="cls-4" d="M111.72,70a2.19,2.19,0,0,1-1,.85,3.68,3.68,0,0,1-1.5.28,2.7,2.7,0,0,1-1.54-.45,2.83,2.83,0,0,1-1-1.28,4.76,4.76,0,0,1-.38-1.92v-.68a4.43,4.43,0,0,1,.75-2.75,2.49,2.49,0,0,1,2.1-1,2.54,2.54,0,0,1,1.78.62,2.87,2.87,0,0,1,.83,1.78h-.93a1.71,1.71,0,0,0-3.1-.83,4,4,0,0,0-.49,2.12v.64a3.56,3.56,0,0,0,.55,2.1,1.7,1.7,0,0,0,1.47.78,3.14,3.14,0,0,0,.92-.13,1.4,1.4,0,0,0,.65-.44V68h-1.64v-.85h2.57Z"/><path class="cls-4" d="M114.28,71.05h-.93V63.21h.93Z"/><path class="cls-4" d="M121.43,71.05h-.94l-3.56-6v6H116V63.21h.94l3.57,6.07V63.21h.93Z"/><path class="cls-4" d="M127.09,67.43H124v2.78h3.57v.84h-4.5V63.21h4.45v.85H124v2.52h3.07Z"/><path class="cls-4" d="M132.76,67.43h-3.07v2.78h3.56v.84h-4.5V63.21h4.45v.85h-3.51v2.52h3.07Z"/><path class="cls-4" d="M137,67.88h-1.66v3.17h-.94V63.21h2.35a2.62,2.62,0,0,1,1.84.61,2.6,2.6,0,0,1,.28,3,2.2,2.2,0,0,1-1,.81L139.55,71v.06h-1ZM135.35,67h1.43a1.54,1.54,0,0,0,1.11-.4,1.44,1.44,0,0,0,.41-1.07,1.51,1.51,0,0,0-.39-1.12,1.54,1.54,0,0,0-1.13-.39h-1.43Z"/><path class="cls-4" d="M141.55,71.05h-.93V63.21h.93Z"/><path class="cls-4" d="M148.7,71.05h-.94l-3.56-6v6h-.94V63.21h.94l3.57,6.07V63.21h.93Z"/><path class="cls-4" d="M155.59,70a2.19,2.19,0,0,1-1,.85,3.68,3.68,0,0,1-1.5.28,2.7,2.7,0,0,1-1.54-.45,2.83,2.83,0,0,1-1-1.28,4.76,4.76,0,0,1-.38-1.92v-.68a4.43,4.43,0,0,1,.75-2.75,2.49,2.49,0,0,1,2.1-1,2.54,2.54,0,0,1,1.78.62,2.87,2.87,0,0,1,.83,1.78h-.93a1.71,1.71,0,0,0-3.1-.83,3.86,3.86,0,0,0-.49,2.12v.64a3.56,3.56,0,0,0,.55,2.1,1.7,1.7,0,0,0,1.47.78,3.14,3.14,0,0,0,.92-.13,1.4,1.4,0,0,0,.65-.44V68H153v-.85h2.57Z"/><path class="cls-4" d="M98.43,77.29H96.15v7h-.93v-7H93v-.84h5.48Z"/><path class="cls-4" d="M103.48,80.66h-3.07v2.78H104v.85h-4.5V76.45h4.45v.84h-3.52v2.53h3.07Z"/><path class="cls-4" d="M110.35,81.8a3,3,0,0,1-.83,1.92,2.56,2.56,0,0,1-1.86.68,2.43,2.43,0,0,1-2-1,4.34,4.34,0,0,1-.75-2.67V80a4.77,4.77,0,0,1,.35-1.92,2.82,2.82,0,0,1,1-1.28,2.62,2.62,0,0,1,1.5-.44,2.41,2.41,0,0,1,1.81.7,3.1,3.1,0,0,1,.79,1.93h-.94a2.35,2.35,0,0,0-.53-1.36,1.5,1.5,0,0,0-1.13-.42,1.62,1.62,0,0,0-1.41.73,3.61,3.61,0,0,0-.5,2.08v.76a3.78,3.78,0,0,0,.48,2,1.51,1.51,0,0,0,1.34.75,1.7,1.7,0,0,0,1.2-.39,2.24,2.24,0,0,0,.55-1.36Z"/><path class="cls-4" d="M117.07,84.29h-.94V80.66h-3.57v3.63h-.94V76.45h.94v3.37h3.57V76.45h.94Z"/><path class="cls-4" d="M124.17,84.29h-.94l-3.56-6v6h-.94V76.45h.94l3.57,6.07V76.45h.93Z"/><path class="cls-4" d="M131.28,80.62a5.35,5.35,0,0,1-.35,2,3,3,0,0,1-1,1.31,2.66,2.66,0,0,1-3,0,3,3,0,0,1-1-1.3,5.1,5.1,0,0,1-.37-2v-.56a5.17,5.17,0,0,1,.36-2,2.92,2.92,0,0,1,1-1.33,2.48,2.48,0,0,1,1.49-.46,2.58,2.58,0,0,1,1.5.45,3,3,0,0,1,1,1.32,5.44,5.44,0,0,1,.35,2Zm-.93-.51a3.78,3.78,0,0,0-.51-2.14A1.7,1.7,0,0,0,127,78a3.72,3.72,0,0,0-.52,2.07v.58a3.86,3.86,0,0,0,.51,2.13,1.64,1.64,0,0,0,1.42.77,1.61,1.61,0,0,0,1.4-.73,3.81,3.81,0,0,0,.51-2.09Z"/><path class="cls-4" d="M133.62,83.44H137v.85h-4.29V76.45h.94Z"/><path class="cls-4" d="M143.17,80.62a5.35,5.35,0,0,1-.35,2,2.84,2.84,0,0,1-1,1.31,2.56,2.56,0,0,1-1.5.46,2.52,2.52,0,0,1-1.48-.46,3,3,0,0,1-1-1.3,4.92,4.92,0,0,1-.36-2v-.56a5.18,5.18,0,0,1,.35-2,2.94,2.94,0,0,1,1-1.33,2.45,2.45,0,0,1,1.48-.46,2.56,2.56,0,0,1,1.5.45,2.88,2.88,0,0,1,1,1.32,5.44,5.44,0,0,1,.35,2Zm-.93-.51a3.87,3.87,0,0,0-.5-2.14,1.63,1.63,0,0,0-1.42-.74,1.61,1.61,0,0,0-1.39.74A3.72,3.72,0,0,0,138.4,80v.58a3.85,3.85,0,0,0,.52,2.13,1.69,1.69,0,0,0,2.81,0,3.81,3.81,0,0,0,.51-2.09Z"/><path class="cls-4" d="M149.8,83.26a2.19,2.19,0,0,1-1,.85,3.68,3.68,0,0,1-1.5.29,2.7,2.7,0,0,1-1.54-.45,3,3,0,0,1-1-1.28,5,5,0,0,1-.38-1.93v-.68a4.43,4.43,0,0,1,.75-2.75,2.49,2.49,0,0,1,2.1-1A2.54,2.54,0,0,1,149,77a2.83,2.83,0,0,1,.82,1.78h-.93c-.18-1-.73-1.56-1.67-1.56a1.6,1.6,0,0,0-1.43.73,3.91,3.91,0,0,0-.49,2.11v.64a3.63,3.63,0,0,0,.55,2.1,1.7,1.7,0,0,0,1.47.78,2.84,2.84,0,0,0,.92-.13,1.46,1.46,0,0,0,.65-.43V81.23h-1.64v-.85h2.57Z"/><path class="cls-4" d="M153.52,80.38l1.85-3.93h1.06L154,81.36v2.93h-.94V81.36l-2.44-4.91h1.07Z"/><rect class="cls-3" x="84.97" y="125.21" width="69.03" height="4.01" rx="1.88"/><path class="cls-5" d="M102,108.69l0-3.85-5.14-1.08a19,19,0,0,0-1.1-4.14L99.62,96,97.7,92.66l-5,1.71a19.39,19.39,0,0,0-3-2.91l1.65-5.28-3.29-1.91-3.68,4.22a18.42,18.42,0,0,0-3.79-.93l-1.22-5.67-3.78,0-1.18,5.82a18.56,18.56,0,0,0-3.47,1.05l-4-4.51-3.26,1.94,1.94,5.94a18.77,18.77,0,0,0-2.33,2.47l-6-1.94L55.39,96l4.75,4.29a19.62,19.62,0,0,0-.79,3.15l-6.3,1.41,0,3.85,6.3,1.31a18.54,18.54,0,0,0,.8,3.1l-4.78,4.44,1.92,3.32,6-2a19.49,19.49,0,0,0,2.25,2.38l-1.92,6.15L67,129.3,71,124.63a17.72,17.72,0,0,0,3.32,1l1.3,6,3.78,0,1.18-5.83a19,19,0,0,0,3.63-.87l3.89,4.34,3.26-2L89.63,122a19.19,19.19,0,0,0,2.89-2.81l5.23,1.7,1.87-3.35-4-3.59a19.25,19.25,0,0,0,1.13-4.1Zm-35.34-1.92a11.43,11.43,0,1,1,11.51,11.56A11.54,11.54,0,0,1,66.62,106.77Z"/><path class="cls-6" d="M119.14,191.38v-2.91l-3.88-.84a14.34,14.34,0,0,0-.81-3.14l3-2.72L116,179.25l-3.83,1.26a14.56,14.56,0,0,0-2.22-2.22l1.28-4-2.48-1.46L106,176a13.78,13.78,0,0,0-2.86-.72l-.9-4.29H99.33l-.92,4.4a13.73,13.73,0,0,0-2.63.77l-3-3.43-2.48,1.45,1.44,4.5a14.89,14.89,0,0,0-1.78,1.86l-4.51-1.5L84,181.58l3.57,3.27a14.57,14.57,0,0,0-.61,2.38l-4.77,1v2.91l4.75,1a15.12,15.12,0,0,0,.59,2.34l-3.63,3.33,1.43,2.53,4.56-1.52a14.49,14.49,0,0,0,1.69,1.81l-1.48,4.64,2.48,1.46,3.1-3.51a14,14,0,0,0,2.5.78l1,4.57H102l.92-4.4a13.93,13.93,0,0,0,2.75-.64l2.92,3.3,2.47-1.45-1.29-4.06a14.1,14.1,0,0,0,2.19-2.11l4,1.31,1.43-2.52-3-2.74a14.59,14.59,0,0,0,.87-3.09Zm-26.71-1.63a8.64,8.64,0,1,1,8.64,8.8A8.72,8.72,0,0,1,92.43,189.75Z"/><path class="cls-7" d="M102,161.09l0-6-6.6-1.4a32.33,32.33,0,0,0-2-7.76l5.05-4.65-3-5.19L89,138.25a31.81,31.81,0,0,0-5.54-5.64l2.1-6.66-5.12-3-4.56,5.2a30.54,30.54,0,0,0-7.5-2l-1.47-6.94-5.9,0-1.42,7a31.07,31.07,0,0,0-7.39,2l-4.76-5.34-5.09,3,2.21,6.86a31.85,31.85,0,0,0-5.32,5.44L32.34,136l-2.92,5.21L34.76,146a32.15,32.15,0,0,0-1.94,7.36l-7.09,1.56,0,6,7,1.5a32.67,32.67,0,0,0,1.9,7.35l-5.38,5,3,5.19,6.82-2.29a31.51,31.51,0,0,0,5.26,5.44l-2.2,7,5.12,3L52,187.68a30.72,30.72,0,0,0,7.32,2.07l1.5,7.07,5.9,0,1.42-6.95a30.83,30.83,0,0,0,7.45-2l4.69,5.27,5.1-3-2.15-6.64a31.8,31.8,0,0,0,5.56-5.56l6.55,2.14,2.93-5.21-5-4.59a32.68,32.68,0,0,0,2.07-7.72Zm-11.52-3.21a26.39,26.39,0,1,1-52.77.2c-.05-14.81,11.74-26.91,26.29-27S90.39,143.07,90.44,157.88Z"/><path class="cls-8" d="M64.25,137.83a20.19,20.19,0,0,1,.07,40.37h-.08a20.25,20.25,0,0,1-14.06-34.4,19.51,19.51,0,0,1,14-6h.08m0-2.2h-.09a22.39,22.39,0,0,0,.08,44.77h.09a22.39,22.39,0,0,0-.08-44.77Z"/></svg>