<?xml version="1.0" encoding="iso-8859-1"?>
<!-- Generator: Adobe Illustrator 19.0.0, SVG Export Plug-In . SVG Version: 6.00 Build 0)  -->
<svg fill="#1FA2FF" version="1.1" id="Capa_1" xmlns="http://www.w3.org/2000/svg"
	xmlns:xlink="http://www.w3.org/1999/xlink" x="0px" y="0px" viewBox="0 0 512 512"
	style="enable-background:new 0 0 512 512;" xml:space="preserve">
	<path d="M479.975,396.734C475.612,389.878,335.323,169.425,331,162.632V90c24.813,0,45-20.187,45-45S355.814,0,331,0H181
	c-24.813,0-45,20.187-45,45s20.187,45,45,45v72.632L32.026,396.734C0.216,446.723,36.059,512,95.301,512H416.7
	C475.951,512,511.78,446.714,479.975,396.734z M208.656,175.053c1.531-2.407,2.345-5.2,2.345-8.053V90c8.284,0,15-6.716,15-15
	s-6.716-15-15-15h-30c-8.271,0-15-6.729-15-15s6.729-15,15-15h150c8.271,0,15,6.729,15,15s-6.729,15-15,15h-30
	c-8.284,0-15,6.716-15,15s6.716,15,15,15v77c0,2.853,0.813,5.646,2.345,8.053l40.783,64.087
	c-34.906-7.468-72.041-0.893-103.012,19.755l-46.871,31.248c-20.791,13.861-45.363,19.73-69.667,17.034L208.656,175.053z M416.7,482
	H95.301c-35.55,0-57.049-39.171-37.965-69.159l49.762-78.198c9.625,2.121,19.357,3.188,29.047,3.188
	c26.287,0,52.239-7.726,74.739-22.726l46.871-31.248c34.457-22.971,78.716-23.563,113.686-1.794l83.222,130.778
	C473.752,442.833,452.245,482,416.7,482z" />
	<path d="M166,362c-24.813,0-45,20.187-45,45s20.187,45,45,45s45-20.187,45-45S190.814,362,166,362z M166,422
	c-8.271,0-15-6.729-15-15s6.729-15,15-15s15,6.729,15,15S174.272,422,166,422z" />
	<path d="M316,302c-24.813,0-45,20.187-45,45s20.187,45,45,45s45-20.187,45-45S340.814,302,316,302z M316,362
	c-8.271,0-15-6.729-15-15s6.729-15,15-15s15,6.729,15,15S324.272,362,316,362z" />
	<circle cx="256" cy="407" r="15" />
	<circle cx="376" cy="407" r="15" />
	<circle cx="316" cy="437" r="15" />
	<g>
	</g>
	<g>
	</g>
	<g>
	</g>
	<g>
	</g>
	<g>
	</g>
	<g>
	</g>
	<g>
	</g>
	<g>
	</g>
	<g>
	</g>
	<g>
	</g>
	<g>
	</g>
	<g>
	</g>
	<g>
	</g>
	<g>
	</g>
	<g>
	</g>
</svg>