<svg xmlns="http://www.w3.org/2000/svg" preserveAspectRatio="xMinYMin" viewBox="0 0 1440 320">
    <path fill="#1fa2ff" fill-opacity="1"
        d="M0,96L40,85.3C80,75,160,53,240,64C320,75,400,117,480,154.7C560,192,640,224,720,208C800,192,880,128,960,85.3C1040,43,1120,21,1200,42.7C1280,64,1360,128,1400,160L1440,192L1440,320L1400,320C1360,320,1280,320,1200,320C1120,320,1040,320,960,320C880,320,800,320,720,320C640,320,560,320,480,320C400,320,320,320,240,320C160,320,80,320,40,320L0,320Z">
    </path>
</svg>