<svg height="384pt" fill="#1FA2FF" viewBox="0 0 384 384" width="384pt" xmlns="http://www.w3.org/2000/svg">
    <path
        d="m192 32v-32c-44.832031 0-83.167969 32.007812-91.183594 76.113281l-18.167968 99.886719h-42.648438v32h36.832031l-17.128906 94.167969c-5.246094 28.878906-30.351563 49.832031-59.703125 49.832031v32c44.832031 0 83.167969-32.007812 91.183594-76.113281l18.167968-99.886719h34.648438v-32h-28.832031l17.128906-94.167969c5.246094-28.878906 30.351563-49.832031 59.703125-49.832031zm0 0" />
    <path
        d="m208 96-12.800781-9.601562c-1.109375 1.480468-27.199219 37.058593-27.199219 105.601562s26.089844 104.121094 27.199219 105.601562l25.59375-19.203124c-.199219-.269532-20.792969-29.328126-20.792969-86.398438 0-57.054688 20.664062-86.207031 20.871094-86.503906zm0 0" />
    <path
        d="m331.199219 105.601562c.207031.269532 20.800781 29.328126 20.800781 86.398438 0 57.054688-20.664062 86.207031-20.871094 86.503906l12.871094 9.496094 12.800781 9.601562c1.121094-1.488281 27.199219-37.058593 27.199219-105.601562s-26.089844-104.121094-27.199219-105.601562zm0 0" />
    <path
        d="m291.0625 142.585938-19.0625 26.214843-19.0625-26.214843-25.875 18.828124 25.152344 34.585938-25.152344 34.585938 25.875 18.828124 19.0625-26.214843 19.0625 26.214843 25.875-18.828124-25.152344-34.585938 25.152344-34.585938zm0 0" />
    </svg>