<svg id="Layer_1" data-name="Layer 1" xmlns="http://www.w3.org/2000/svg" width="150" height="150" viewBox="0 0 150 150"><title>Goal</title><path d="M474.45,112.55a75,75,0,1,1-75-75,75,75,0,0,1,75,75" transform="translate(-324.45 -37.55)" style="fill:#1fa2ff"/><path d="M380.74,71.65h1V90.84h-1Z" transform="translate(-324.45 -37.55)" style="fill:#3a556a"/><path d="M436.1,117.5l-1.57-3.08h-14.4l-2.38,4.65-8.5,16.6-9.52,18.61h55.18Z" transform="translate(-324.45 -37.55)" style="fill:#2f4859"/><path d="M418.78,154.27H344l24.41-47.72a3.37,3.37,0,0,0,.77.14,14.89,14.89,0,0,0,4.49-.81,5.58,5.58,0,0,1,4.37.27c.68.43,1.18,1.08,1.83,1.56a6.61,6.61,0,0,0,5.15.78,48.85,48.85,0,0,1,5.23-1,18.92,18.92,0,0,1,2.13,0,18.27,18.27,0,0,0,2.34,0h.22l14.31,28.22Z" transform="translate(-324.45 -37.55)" style="fill:#3a556a"/><path d="M394.85,107.47c-1.54.15-3.07-.14-4.69,0a47.17,47.17,0,0,0-5.24,1,6.58,6.58,0,0,1-5.14-.79c-.65-.48-1.17-1.17-1.83-1.56a5.58,5.58,0,0,0-4.28-.29,14.65,14.65,0,0,1-4.5.81l-.42-.72,10.64-20.81a2.34,2.34,0,0,1,3.2-.88,2.4,2.4,0,0,1,.88.88Z" transform="translate(-324.45 -37.55)" style="fill:#ebf0f3"/><path d="M428.62,102.88a1.45,1.45,0,0,0-1.95-.64,1.42,1.42,0,0,0-.64.64l-8.28,16.19a1.93,1.93,0,0,0,1.54.14,3.78,3.78,0,0,0,.94-.58,5.22,5.22,0,0,1,4.69-.67,3.08,3.08,0,0,0,1.11.28c.69,0,1.17-.65,1.71-1.06a3.34,3.34,0,0,1,3.32-.43c1.1.47,2,1.54,3.2,1.37a6.19,6.19,0,0,0,1.25-.44l.55-.18Z" transform="translate(-324.45 -37.55)" style="fill:#ebf0f3"/><path d="M391.77,77.78c-3.67-5.39-7.35,5.4-11,0V72.39c3.68,5.39,7.36-5.41,11,0Z" transform="translate(-324.45 -37.55)" style="fill:#e21742"/><path d="M371.56,118.41l-10.71,13.32-3.75,13.49s8.77-9.93,9.18-10.88,10.54-1.78,10.54-1.78l2.09-13.24Z" transform="translate(-324.45 -37.55)" style="fill:#344e61"/><path d="M394,109.48l-2,4.94v5.91l13.62,21.26-4.65-12.31-.55-6.23Z" transform="translate(-324.45 -37.55)" style="fill:#344e61"/><path d="M386.32,126.23,380,139l4.94,11.54-.39-8.9,5.19-.82V131Z" transform="translate(-324.45 -37.55)" style="fill:#344e61"/><path d="M382.12,87.6v4.51l3.66,7.62.48,5,1.4-5-2.25-5.55-1-5.79-1.83-2.8Z" transform="translate(-324.45 -37.55)" style="fill:#d5d6db"/><path d="M379.13,94.24l-.79-.55-3.53,5-.31,5,1.28-3.47,5-1Z" transform="translate(-324.45 -37.55)" style="fill:#d5d6db"/><path d="M437.43,120.11l17.48,34.17Z" transform="translate(-324.45 -37.55)" style="fill:#92554f"/><path d="M437.43,120.11l-.52,7.35-6.81-4.68v7.15l5.17,10.57,19.64,13.78Z" transform="translate(-324.45 -37.55)" style="fill:#2a4150"/><path d="M423.29,120.9,417,126.23l1.82,7.11L417,139.56l4.81,11.73,2.94-6.07-2.94-10.88Z" transform="translate(-324.45 -37.55)" style="fill:#2a4150"/></svg>