<svg xmlns="http://www.w3.org/2000/svg" xmlns:xlink="http://www.w3.org/1999/xlink" width="183.8816" height="210.8553" viewBox="0 0 183.8816 210.8553"><defs><style>.cls-1{fill:none;}.cls-2{isolation:isolate;}.cls-3{fill:#373f44;}.cls-4{fill:#f3f3f3;}.cls-5{fill:#ccc;}.cls-6{fill:#010101;}.cls-7{fill:url(#Áåçûìÿííûé_ãðàäèåíò_185);}.cls-8{fill:url(#Áåçûìÿííûé_ãðàäèåíò_163);}.cls-26,.cls-9{opacity:0.5;}.cls-11,.cls-12,.cls-16,.cls-20,.cls-31,.cls-9{mix-blend-mode:color-dodge;}.cls-9{fill:url(#Áåçûìÿííûé_ãðàäèåíò_363);}.cls-10,.cls-15,.cls-51{fill:#c94c9c;}.cls-10{opacity:0.13;}.cls-10,.cls-15,.cls-21,.cls-28,.cls-51,.cls-57{mix-blend-mode:multiply;}.cls-11,.cls-12,.cls-16,.cls-20,.cls-27,.cls-28,.cls-57{opacity:0.2;}.cls-11{fill:url(#Áåçûìÿííûé_ãðàäèåíò_363-2);}.cls-12{fill:url(#Áåçûìÿííûé_ãðàäèåíò_363-3);}.cls-13{fill:url(#Áåçûìÿííûé_ãðàäèåíò_106);}.cls-14{fill:url(#Áåçûìÿííûé_ãðàäèåíò_163-2);}.cls-15{opacity:0.06;}.cls-16{fill:url(#Áåçûìÿííûé_ãðàäèåíò_363-4);}.cls-17{fill:url(#Áåçûìÿííûé_ãðàäèåíò_378);}.cls-18,.cls-42{opacity:0.76;}.cls-18,.cls-19,.cls-26,.cls-27,.cls-42,.cls-59{mix-blend-mode:soft-light;}.cls-19,.cls-26,.cls-27,.cls-32,.cls-42{fill:#fff;}.cls-20{fill:url(#Áåçûìÿííûé_ãðàäèåíò_363-5);}.cls-21{fill:#d97762;opacity:0.3;}.cls-22{fill:url(#Áåçûìÿííûé_ãðàäèåíò_172);}.cls-23{fill:url(#Áåçûìÿííûé_ãðàäèåíò_163-3);}.cls-24{clip-path:url(#clip-path);}.cls-25{opacity:0.41;}.cls-28{fill:#cd495a;}.cls-29{fill:url(#Áåçûìÿííûé_ãðàäèåíò_172-2);}.cls-30{fill:url(#Áåçûìÿííûé_ãðàäèåíò_163-4);}.cls-31{fill:url(#Áåçûìÿííûé_ãðàäèåíò_275);}.cls-33{fill:url(#Áåçûìÿííûé_ãðàäèåíò_106-2);}.cls-34{fill:#db5626;}.cls-35{fill:url(#Áåçûìÿííûé_ãðàäèåíò_258);}.cls-36{fill:url(#Áåçûìÿííûé_ãðàäèåíò_36);}.cls-37{fill:url(#Áåçûìÿííûé_ãðàäèåíò_36-2);}.cls-38{fill:url(#Áåçûìÿííûé_ãðàäèåíò_258-2);}.cls-39{fill:url(#Áåçûìÿííûé_ãðàäèåíò_258-3);}.cls-40{fill:url(#Áåçûìÿííûé_ãðàäèåíò_36-3);}.cls-41{fill:url(#Áåçûìÿííûé_ãðàäèåíò_36-4);}.cls-43{fill:url(#Áåçûìÿííûé_ãðàäèåíò_263);}.cls-44{fill:url(#Áåçûìÿííûé_ãðàäèåíò_36-5);}.cls-45{fill:url(#Áåçûìÿííûé_ãðàäèåíò_106-3);}.cls-46{fill:url(#Áåçûìÿííûé_ãðàäèåíò_163-5);}.cls-47{fill:url(#Áåçûìÿííûé_ãðàäèåíò_106-4);}.cls-48{fill:url(#Áåçûìÿííûé_ãðàäèåíò_163-6);}.cls-49{fill:url(#Áåçûìÿííûé_ãðàäèåíò_106-5);}.cls-50{fill:url(#Áåçûìÿííûé_ãðàäèåíò_163-7);}.cls-51{opacity:0.24;}.cls-52{fill:url(#Áåçûìÿííûé_ãðàäèåíò_285);}.cls-53{fill:url(#Áåçûìÿííûé_ãðàäèåíò_276);}.cls-54{fill:#fec767;}.cls-55{fill:#fcb451;}.cls-56{fill:#f79146;}.cls-57{fill:#6d2266;}.cls-58{fill:url(#Áåçûìÿííûé_ãðàäèåíò_92);}.cls-59{fill:#fdec7f;opacity:0.57;}</style><linearGradient id="Áåçûìÿííûé_ãðàäèåíò_185" x1="53.7487" y1="189.5799" x2="53.7487" y2="138.818" gradientUnits="userSpaceOnUse"><stop offset="0.004" stop-color="#f47c38"/><stop offset="1" stop-color="#fdb83a"/></linearGradient><linearGradient id="Áåçûìÿííûé_ãðàäèåíò_163" x1="85.1122" y1="189.2476" x2="85.1122" y2="138.818" gradientUnits="userSpaceOnUse"><stop offset="0.004" stop-color="#d05027"/><stop offset="1" stop-color="#ef7422"/></linearGradient><linearGradient id="Áåçûìÿííûé_ãðàäèåíò_363" x1="73.6597" y1="170.9601" x2="79.1663" y2="170.9601" gradientUnits="userSpaceOnUse"><stop offset="0" stop-color="#5b75b9"/><stop offset="1" stop-color="#8bd4e2"/></linearGradient><linearGradient id="Áåçûìÿííûé_ãðàäèåíò_363-2" x1="84.6863" y1="185.23" x2="100.487" y2="185.23" xlink:href="#Áåçûìÿííûé_ãðàäèåíò_363"/><linearGradient id="Áåçûìÿííûé_ãðàäèåíò_363-3" x1="42.0308" y1="184.9178" x2="53.9796" y2="184.9178" xlink:href="#Áåçûìÿííûé_ãðàäèåíò_363"/><linearGradient id="Áåçûìÿííûé_ãðàäèåíò_106" x1="84.8719" y1="189.5799" x2="84.8719" y2="134.7613" gradientUnits="userSpaceOnUse"><stop offset="0.004" stop-color="#f68f50"/><stop offset="1" stop-color="#fdb84a"/></linearGradient><linearGradient id="Áåçûìÿííûé_ãðàäèåíò_163-2" x1="118.7418" y1="189.2211" x2="118.7418" y2="134.7613" xlink:href="#Áåçûìÿííûé_ãðàäèåíò_163"/><linearGradient id="Áåçûìÿííûé_ãðàäèåíò_363-4" x1="118.2819" y1="184.8824" x2="135.3453" y2="184.8824" xlink:href="#Áåçûìÿííûé_ãðàäèåíò_363"/><linearGradient id="Áåçûìÿííûé_ãðàäèåíò_378" x1="24.4289" y1="191.3018" x2="24.4289" y2="180.9743" gradientUnits="userSpaceOnUse"><stop offset="0" stop-color="#f78e2f"/><stop offset="0.996" stop-color="#cd5328"/></linearGradient><linearGradient id="Áåçûìÿííûé_ãðàäèåíò_363-5" x1="26.2082" y1="186.1944" x2="47.4204" y2="186.1944" xlink:href="#Áåçûìÿííûé_ãðàäèåíò_363"/><linearGradient id="Áåçûìÿííûé_ãðàäèåíò_172" x1="115.0336" y1="189.1573" x2="115.0336" y2="158.2364" gradientUnits="userSpaceOnUse"><stop offset="0.004" stop-color="#faab53"/><stop offset="1" stop-color="#fdba2d"/></linearGradient><linearGradient id="Áåçûìÿííûé_ãðàäèåíò_163-3" x1="134.3026" y1="189.1573" x2="134.3026" y2="158.2364" xlink:href="#Áåçûìÿííûé_ãðàäèåíò_163"/><clipPath id="clip-path"><polygon class="cls-1" points="180.49 187.5 178.623 187.128 176.455 182.182 169.788 181.249 168.214 183.474 162.559 183.474 161.572 183.995 156.258 184.091 154.001 187.5 152.098 187.5 151.937 187.624 151.421 187.624 151.22 186.997 151.197 186.924 151.197 186.924 150.664 185.259 150.664 185.259 150.383 184.381 149.362 181.19 148.358 181.202 148.963 181.19 148.044 178.672 146.576 178.672 143.26 178.672 142.779 180.902 142.779 180.902 142.706 181.244 142.351 181.245 141.653 184.1 141.247 183.522 141.212 183.522 123.347 158.311 119.753 163.211 99.646 134.836 89.556 148.588 89.178 149.104 89.178 149.104 87.368 151.571 87.368 151.571 81.796 159.166 67.43 138.892 51.564 160.518 51.564 160.518 50.359 162.16 50.359 162.16 39.624 176.792 39.624 176.792 35.004 183.089 35.004 183.089 34.225 184.151 31.828 182.854 30.953 181.262 26.302 181.049 23.496 182.305 21.994 182.305 13.353 185.079 11.351 188.273 2.603 190.247 1.437 191.17 24.2 191.272 24.201 191.278 42.603 191.355 42.603 191.355 47.42 191.376 47.32 191.273 58.861 191.273 59.939 191.273 59.59 192.364 74.476 192.364 74.476 192.364 75.93 192.364 74.926 193.23 78.423 193.23 81.224 193.23 89.085 193.23 94.378 193.23 96.57 193.23 98.719 193.23 103.095 193.23 110.311 193.23 112.605 193.23 111.089 192.066 108.756 192.066 107.219 189.745 139.624 189.308 139.396 190.027 140.204 190.027 145.843 190.027 146.407 190.027 152.19 190.027 153.036 190.027 152.481 188.45 152.732 188.45 158.618 188.45 162.187 188.45 163.939 188.45 165.727 188.45 170.044 188.45 176.455 188.45 178.739 188.45 181.592 188.45 180.49 187.5"/></clipPath><linearGradient id="Áåçûìÿííûé_ãðàäèåíò_172-2" x1="48.8882" y1="191.1989" x2="48.8882" y2="169.743" xlink:href="#Áåçûìÿííûé_ãðàäèåíò_172"/><linearGradient id="Áåçûìÿííûé_ãðàäèåíò_163-4" x1="62.2588" y1="191.1989" x2="62.2588" y2="169.743" xlink:href="#Áåçûìÿííûé_ãðàäèåíò_163"/><radialGradient id="Áåçûìÿííûé_ãðàäèåíò_275" cx="-396.0111" cy="-151.509" r="2.1602" gradientTransform="matrix(-0.2781, -0.2853, -0.237, 0.3348, -52.2813, 127.246)" gradientUnits="userSpaceOnUse"><stop offset="0" stop-color="#6bcce1"/><stop offset="0.1889" stop-color="#4f97a6"/><stop offset="0.3986" stop-color="#34626c"/><stop offset="0.5921" stop-color="#1e383e"/><stop offset="0.763" stop-color="#0e1a1d"/><stop offset="0.9048" stop-color="#040808"/><stop offset="1" stop-color="#010101"/></radialGradient><linearGradient id="Áåçûìÿííûé_ãðàäèåíò_106-2" x1="67.0331" y1="192.29" x2="67.0331" y2="183.8046" xlink:href="#Áåçûìÿííûé_ãðàäèåíò_106"/><linearGradient id="Áåçûìÿííûé_ãðàäèåíò_258" x1="60.6358" y1="188.8826" x2="73.8637" y2="188.8826" gradientUnits="userSpaceOnUse"><stop offset="0" stop-color="#fde977"/><stop offset="0.996" stop-color="#faab53"/></linearGradient><linearGradient id="Áåçûìÿííûé_ãðàäèåíò_36" x1="72.8162" y1="188.903" x2="79.4086" y2="188.903" gradientUnits="userSpaceOnUse"><stop offset="0" stop-color="#f58029"/><stop offset="0.996" stop-color="#cf6549"/></linearGradient><linearGradient id="Áåçûìÿííûé_ãðàäèåíò_36-2" x1="71.6963" y1="186.0402" x2="77.5693" y2="186.0402" xlink:href="#Áåçûìÿííûé_ãðàäèåíò_36"/><linearGradient id="Áåçûìÿííûé_ãðàäèåíò_258-2" x1="62.2972" y1="186.1353" x2="72.1456" y2="186.1353" xlink:href="#Áåçûìÿííûé_ãðàäèåíò_258"/><linearGradient id="Áåçûìÿííûé_ãðàäèåíò_258-3" x1="63.3582" y1="184.9704" x2="71.512" y2="184.9704" xlink:href="#Áåçûìÿííûé_ãðàäèåíò_258"/><linearGradient id="Áåçûìÿííûé_ãðàäèåíò_36-3" x1="71.0494" y1="184.9704" x2="76.4139" y2="184.9704" xlink:href="#Áåçûìÿííûé_ãðàäèåíò_36"/><linearGradient id="Áåçûìÿííûé_ãðàäèåíò_36-4" x1="93.7651" y1="193.1555" x2="93.7651" y2="184.3259" xlink:href="#Áåçûìÿííûé_ãðàäèåíò_36"/><linearGradient id="Áåçûìÿííûé_ãðàäèåíò_263" x1="81.2237" y1="188.7407" x2="112.6047" y2="188.7407" gradientUnits="userSpaceOnUse"><stop offset="0" stop-color="#fdb84a"/><stop offset="0.996" stop-color="#e99c4b"/></linearGradient><linearGradient id="Áåçûìÿííûé_ãðàäèåíò_36-5" x1="457.0297" y1="188.3751" x2="457.0297" y2="181.1741" gradientTransform="matrix(-1, 0, 0, 1, 623.2565, 0)" xlink:href="#Áåçûìÿííûé_ãðàäèåíò_36"/><linearGradient id="Áåçûìÿííûé_ãðàäèåíò_106-3" x1="140.2042" y1="185.5512" x2="146.4382" y2="185.5512" xlink:href="#Áåçûìÿííûé_ãðàäèåíò_106"/><linearGradient id="Áåçûìÿííûé_ãðàäèåíò_163-5" x1="146.1409" y1="185.5343" x2="152.1901" y2="185.5343" xlink:href="#Áåçûìÿííûé_ãðàäèåíò_163"/><linearGradient id="Áåçûìÿííûé_ãðàäèåíò_106-4" x1="142.7046" y1="179.886" x2="146.8428" y2="179.886" xlink:href="#Áåçûìÿííûé_ãðàäèåíò_106"/><linearGradient id="Áåçûìÿííûé_ãðàäèåíò_163-6" x1="146.5757" y1="179.8796" x2="148.9626" y2="179.8796" xlink:href="#Áåçûìÿííûé_ãðàäèåíò_163"/><linearGradient id="Áåçûìÿííûé_ãðàäèåíò_106-5" x1="139.3959" y1="188.7512" x2="153.0355" y2="188.7512" xlink:href="#Áåçûìÿííûé_ãðàäèåíò_106"/><linearGradient id="Áåçûìÿííûé_ãðàäèåíò_163-7" x1="145.8435" y1="188.7512" x2="153.0355" y2="188.7512" xlink:href="#Áåçûìÿííûé_ãðàäèåíò_163"/><linearGradient id="Áåçûìÿííûé_ãðàäèåíò_285" x1="100.5305" y1="153.3311" x2="100.5305" y2="134.7613" gradientUnits="userSpaceOnUse"><stop offset="0.004" stop-color="#fcb553"/><stop offset="1" stop-color="#fdba2d"/></linearGradient><linearGradient id="Áåçûìÿííûé_ãðàäèåíò_276" x1="105.5754" y1="153.3311" x2="105.5754" y2="134.7613" gradientUnits="userSpaceOnUse"><stop offset="0.004" stop-color="#f07648"/><stop offset="1" stop-color="#f58029"/></linearGradient><linearGradient id="Áåçûìÿííûé_ãðàäèåíò_92" x1="113.5705" y1="191.9849" x2="119.7107" y2="191.9849" gradientUnits="userSpaceOnUse"><stop offset="0" stop-color="#ba4d27"/><stop offset="0.996" stop-color="#9d1c27"/></linearGradient></defs><title>history</title><g class="cls-2"><g id="Layer_1" data-name="Layer 1"><rect class="cls-3" width="183.8816" height="210.8553"/><rect class="cls-4" x="75.7173" y="46.8805" width="99.6017" height="136.4054" rx="4"/><rect class="cls-5" x="86.2358" y="132.0113" width="69.0324" height="4.0138" rx="1.8818"/><rect class="cls-5" x="85.5885" y="91.1565" width="69.0324" height="4.0138" rx="1.8818"/><path class="cls-6" d="M114.2473,71.0542h-.9385V67.43h-3.57v3.624h-.9346v-7.84h.9346V66.585h3.57V63.2139h.9385Z"/><path class="cls-6" d="M116.9084,71.0542h-.9336v-7.84h.9336Z"/><path class="cls-6" d="M120.7033,67.56a4.2352,4.2352,0,0,1-1.749-.94,1.8858,1.8858,0,0,1-.5478-1.3759,1.98,1.98,0,0,1,.6689-1.5318,2.4912,2.4912,0,0,1,1.7393-.6059,2.6676,2.6676,0,0,1,1.3017.3125,2.2224,2.2224,0,0,1,.8848.8613,2.3726,2.3726,0,0,1,.3144,1.2007h-.9394a1.5132,1.5132,0,0,0-.4082-1.1211,1.5617,1.5617,0,0,0-1.1533-.4082,1.5846,1.5846,0,0,0-1.0772.3374,1.1758,1.1758,0,0,0-.3867.936,1.0512,1.0512,0,0,0,.3672.8115,3.4388,3.4388,0,0,0,1.25.607,5.51,5.51,0,0,1,1.3818.6064,2.2085,2.2085,0,0,1,.7393.7725,2.1444,2.1444,0,0,1,.2412,1.04,1.9051,1.9051,0,0,1-.6719,1.5264,2.67,2.67,0,0,1-1.7949.5737,3.0575,3.0575,0,0,1-1.3623-.31,2.349,2.349,0,0,1-.9756-.8477,2.2292,2.2292,0,0,1-.3428-1.2226h.9395a1.4127,1.4127,0,0,0,.4736,1.123,1.8677,1.8677,0,0,0,1.2676.4116,1.707,1.707,0,0,0,1.1338-.334,1.1279,1.1279,0,0,0,.3935-.91,1.1132,1.1132,0,0,0-.3642-.8911A4.0139,4.0139,0,0,0,120.7033,67.56Z"/><path class="cls-6" d="M129.4211,64.06h-2.2773v6.9946h-.9288V64.06h-2.2724v-.8457h5.4785Z"/><path class="cls-6" d="M135.7834,67.3872a5.3072,5.3072,0,0,1-.35,2.0113,2.8814,2.8814,0,0,1-.9922,1.311,2.6769,2.6769,0,0,1-2.9824-.0024,2.9392,2.9392,0,0,1-1.0049-1.2979,5.09,5.09,0,0,1-.3672-1.9521v-.5655a5.2283,5.2283,0,0,1,.3555-1.9975,2.9389,2.9389,0,0,1,1.0039-1.3272,2.5067,2.5067,0,0,1,1.4863-.46,2.5512,2.5512,0,0,1,1.501.455,2.8787,2.8787,0,0,1,1,1.3194,5.3307,5.3307,0,0,1,.35,2.0107Zm-.9287-.5063a3.8019,3.8019,0,0,0-.5059-2.14,1.6171,1.6171,0,0,0-1.416-.7456,1.6,1.6,0,0,0-1.3935.7456,3.7074,3.7074,0,0,0-.5225,2.07v.5761a3.8083,3.8083,0,0,0,.5127,2.1245,1.6944,1.6944,0,0,0,2.8145.043,3.78,3.78,0,0,0,.5107-2.0923Z"/><path class="cls-6" d="M139.7824,67.8828h-1.6631v3.1714H137.18v-7.84h2.3447a2.5952,2.5952,0,0,1,1.8418.6035,2.6021,2.6021,0,0,1,.2871,3.0313,2.1635,2.1635,0,0,1-.9951.8129l1.6641,3.3282v.0644H141.32Zm-1.6631-.8457h1.4346a1.5191,1.5191,0,0,0,1.1065-.3989,1.4192,1.4192,0,0,0,.4111-1.0684,1.5021,1.5021,0,0,0-.3916-1.1166,1.5543,1.5543,0,0,0-1.1309-.3936h-1.43Z"/><path class="cls-6" d="M145.2453,67.15l1.8487-3.9365h1.0605L145.7131,68.13v2.9238h-.9346V68.13l-2.4424-4.9165h1.07Z"/><rect class="cls-5" x="84.9689" y="111.96" width="69.0324" height="4.0138" rx="1.8818"/><polygon class="cls-7" points="30.187 189.58 67.43 138.818 77.31 189.248 30.187 189.58"/><polygon class="cls-8" points="67.43 138.818 102.795 188.727 77.31 189.248 67.43 138.818"/><polygon class="cls-9" points="73.66 170.525 73.821 171.395 79.166 171.395 78.765 170.525 73.66 170.525"/><polygon class="cls-10" points="82.757 160.448 51.564 160.444 50.359 162.086 83.974 162.167 82.757 160.448"/><polygon class="cls-10" points="93.361 182.23 37.059 180.214 30.187 189.58 97.606 188.832 93.361 182.23"/><polygon class="cls-11" points="100.209 184.99 84.686 184.99 84.877 185.47 100.487 185.47 100.209 184.99"/><polygon class="cls-10" points="39.624 176.717 94.807 174.849 100.487 185.47 35.004 183.015 39.624 176.717"/><polygon class="cls-12" points="42.031 185.051 42.412 184.698 53.98 184.797 53.98 185.138 42.031 185.051"/><polygon class="cls-13" points="59.428 189.58 99.646 134.761 110.316 189.221 59.428 189.58"/><polygon class="cls-14" points="99.646 134.761 137.837 188.659 110.316 189.221 99.646 134.761"/><polygon class="cls-15" points="87.368 151.496 111.505 151.496 117.372 159.777 80.804 160.444 87.368 151.496"/><polygon class="cls-10" points="129.054 176.264 69.197 176.264 58.661 190.368 136.073 188.443 129.054 176.264"/><polygon class="cls-16" points="135.045 184.623 118.282 184.623 118.487 185.142 135.345 185.142 135.045 184.623"/><polygon class="cls-17" points="1.437 191.096 2.603 190.173 11.351 188.199 13.353 185.005 21.994 182.23 23.496 182.23 26.302 180.974 30.953 181.187 31.828 182.78 37.938 186.084 38.668 188.581 45.114 188.947 47.42 191.302 1.437 191.096"/><g class="cls-18"><polygon class="cls-19" points="31.828 182.78 29.783 183.951 21.697 185.773 37.938 186.084 31.828 182.78"/><polygon class="cls-19" points="30.953 181.187 27.219 181.789 26.302 180.974 30.953 181.187"/><polygon class="cls-19" points="38.668 188.581 35.612 189.33 25.128 190.173 42.352 190.173 45.114 188.947 38.668 188.581"/><polygon class="cls-19" points="16.859 187.947 20.153 188.35 23.746 188.35 19.892 189.33 16.859 187.947"/><polygon class="cls-19" points="21.994 182.23 23.496 183.112 24.463 183.112 23.496 182.23 21.994 182.23"/><polygon class="cls-19" points="2.603 190.173 10.017 189.66 13.162 189.377 11.351 188.199 2.603 190.173"/></g><polygon class="cls-20" points="47.42 191.302 45.114 188.947 38.668 188.581 37.938 186.084 31.828 182.78 30.953 181.187 26.208 181.087 30.713 181.389 31.693 182.858 37.623 186.078 38.395 188.648 44.921 189.032 47.42 191.302"/><polygon class="cls-21" points="2.603 190.173 1.437 191.096 19.337 191.02 19.892 189.33 16.859 187.947 16.427 184.935 13.353 185.005 11.351 188.199 13.162 189.377 2.603 190.173"/><polygon class="cls-21" points="23.496 183.112 19.127 184.432 20.153 188.35 23.746 188.35 24.201 191.204 42.603 191.28 42.352 190.173 25.128 190.173 35.612 189.33 29.298 185.919 21.697 185.773 29.783 183.951 27.219 181.789 24.463 183.112 23.496 183.112"/><polygon class="cls-22" points="100.662 189.157 129.406 189.157 123.347 158.236 100.662 189.157"/><polygon class="cls-23" points="129.406 189.157 145.258 189.157 123.347 158.236 129.406 189.157"/><polygon class="cls-15" points="100.216 189.765 145.258 189.157 135.042 175.059 111.723 174.08 100.216 189.765"/><polygon class="cls-10" points="104.727 183.616 141.247 183.447 145.258 189.157 100.216 189.765 104.727 183.616"/><g class="cls-24"><g class="cls-25"><path class="cls-26" d="M65.6214,153.4856c0,.2375,8.2961,0,8.2961,0a4.5119,4.5119,0,0,0,0-1.2671c-.1184-.1392-4.7025-.2639-4.8147-.3959s3.0856-.0924,3.1866-.2112a12.8117,12.8117,0,0,0-.0224-3.1411,36.1542,36.1542,0,0,0-5.8571,0,16.6551,16.6551,0,0,0-.4264,1.98s4.5555-.1056,4.5555.2112-.0925.7292-.1515.7292-3.0884.04-3.1389.0989a3.5579,3.5579,0,0,0,.0337.7523s1.7336-.0594,1.7756-.01.2946.881.2946.881-3.7311,0-3.7311.0792Z"/><path class="cls-26" d="M67.7816,179.6827c0,.2375,8.2961,0,8.2961,0a4.5112,4.5112,0,0,0,0-1.267c-.1184-.1393-4.7025-.264-4.8147-.396s3.0856-.0924,3.1866-.2112a12.8119,12.8119,0,0,0-.0225-3.1411,36.1656,36.1656,0,0,0-5.8571,0,16.6732,16.6732,0,0,0-.4263,1.98s4.5555-.1055,4.5555.2112-.0926.7292-.1515.7292-3.0884.04-3.1389.099a3.5579,3.5579,0,0,0,.0337.7523s1.7335-.0594,1.7756-.01.2945.8809.2945.8809-3.731,0-3.731.0792Z"/><path class="cls-27" d="M65.6214,173.8258c0,.2375,8.2961,0,8.2961,0a4.5112,4.5112,0,0,0,0-1.267c-.1184-.1393-4.7025-.264-4.8147-.396s3.0856-.0923,3.1866-.2111a12.8125,12.8125,0,0,0-.0224-3.1412,36.1542,36.1542,0,0,0-5.8571,0,16.6551,16.6551,0,0,0-.4264,1.98s4.5555-.1056,4.5555.2112-.0925.7292-.1515.7292-3.0884.04-3.1389.099a3.5569,3.5569,0,0,0,.0337.7522s1.7336-.0593,1.7756-.01.2946.8811.2946.8811-3.7311,0-3.7311.0791Z"/><path class="cls-27" d="M73.7705,151.41a38.2158,38.2158,0,0,0,5.498,0,12.4484,12.4484,0,0,0,.3555-2.944c-.1157-.136-3.9011-.4347-3.9011-.4347s2.67-.0264,2.67-.2376a9.5793,9.5793,0,0,0-.1519-2.402c-.2045-.2406-4.6953-.29-4.6953,0S73.7705,151.41,73.7705,151.41Z"/><path class="cls-27" d="M81.8669,178.6323a33.3732,33.3732,0,0,0-4.7977,0,10.8608,10.8608,0,0,0-.31,2.569c.1009.1188,3.4042.3794,3.4042.3794a9.9724,9.9724,0,0,0-2.33.2073,8.3611,8.3611,0,0,0,.1325,2.0961c.1785.21,4.0973.2534,4.0973,0S81.8669,178.6323,81.8669,178.6323Z"/><path class="cls-27" d="M64.185,160.2791a38.2316,38.2316,0,0,0,5.4981,0,12.4541,12.4541,0,0,0,.3554-2.944c-.1157-.1361-3.9011-.4347-3.9011-.4347s2.6705-.0264,2.6705-.2376.0526-.1387-.1519-.3793-4.6161-.0618-4.6161.2285S64.185,160.2791,64.185,160.2791Z"/><path class="cls-26" d="M78.9809,177.7663a38.2158,38.2158,0,0,0,5.498,0,12.4483,12.4483,0,0,0,.3554-2.944c-.1156-.136-3.901-.4347-3.901-.4347s2.67-.0264,2.67-.2376.0527-.1386-.1519-.3793-4.616-.0618-4.616.2285S78.9809,177.7663,78.9809,177.7663Z"/><path class="cls-27" d="M72.4209,186.1612c-.127.1188-7.1362.231-7.1362,0a18.125,18.125,0,0,1,.4488-2.8138c.1346-.126,5.0492-.1051,5.2287-.2731a3.2827,3.2827,0,0,0,.2244-1.2809,26.94,26.94,0,0,0-3.4334-.231s.2244-1.0079.4264-1.0079,6.5415.1154,6.6649.231a2.3,2.3,0,0,1,0,1.1549c-.0729.0683-3.0576.0472-3.1417.126a1.9724,1.9724,0,0,0-.101.6825c0,.063,2.8051.0105,2.8724.0735s.1571.8609.0449.8609-4.8135.0525-4.8135.1575,2.5744.0244,2.6368.0827A9.525,9.525,0,0,1,72.4209,186.1612Z"/><path class="cls-26" d="M77.78,160.2521a28.9168,28.9168,0,0,1-5.3339,0,21.0832,21.0832,0,0,1,.3355-2.6438c.1006-.1184,3.774-.0987,3.9082-.2565a3.8061,3.8061,0,0,0,.1677-1.2036,16.1057,16.1057,0,0,0-2.5664-.217s.1678-.947.3187-.947,4.8895.1085,4.9818.217a2.7009,2.7009,0,0,1,0,1.0852c-.0545.0641-2.2854.0444-2.3483.1183a2.2978,2.2978,0,0,0-.0755.6413c0,.0591,2.0967.01,2.147.069s.1174.8089.0335.8089-3.5979.0493-3.5979.148,1.9243.0229,1.9709.0777A11.2219,11.2219,0,0,1,77.78,160.2521Z"/><path class="cls-26" d="M64.6416,155.5576c-.2154.2534,7.8834.2376,8.0854,0a2.0946,2.0946,0,0,0,0-1.399c-.1178-.1386-7.3718-.1715-7.5962-.1715S64.6416,155.5576,64.6416,155.5576Z"/><path class="cls-26" d="M70.2206,160.25c0,.198,1.6649,0,1.8164,0a7.0382,7.0382,0,0,0,.4088-2.3954,5.4637,5.4637,0,0,0-1.8563-.1729C70.516,157.7677,70.2206,160.25,70.2206,160.25Z"/><path class="cls-26" d="M65.6584,177.0163c0,.1979,2.0945.1517,2.246.1517a8.2881,8.2881,0,0,0-.0208-2.5472,5.4633,5.4633,0,0,0-1.8563-.1728C65.9539,174.5344,65.6584,177.0163,65.6584,177.0163Z"/><path class="cls-27" d="M64.8366,180.8027c0,.198,2.0944.1518,2.2459.1518a11.7473,11.7473,0,0,0,.6991-3.0889,17.41,17.41,0,0,0-3.3689-.0256C64.3392,177.9264,64.8366,180.8027,64.8366,180.8027Z"/><path class="cls-26" d="M74.2642,154.515a25.3,25.3,0,0,0,5.383,0,8.4834,8.4834,0,0,0-.0869-1.597,22.5335,22.5335,0,0,0-2.6045-.2772s4.1473.1387,4.2651,0a1.4477,1.4477,0,0,0,0-.937c-.09-.1056-6.9567.1848-6.9567.2772v1.189a27.1272,27.1272,0,0,1,2.8612.1439c.09.1056-2.85-.0132-2.94.0924A2.5463,2.5463,0,0,0,74.2642,154.515Z"/><path class="cls-27" d="M76.3512,157.1282a24.47,24.47,0,0,1-4.23,0,1.9558,1.9558,0,0,1-.1459-.9239,31.2,31.2,0,0,1,4.23,0A3.7808,3.7808,0,0,1,76.3512,157.1282Z"/><path class="cls-26" d="M69.7958,163.2389a39.0266,39.0266,0,0,1-5.35-.1584,10.4861,10.4861,0,0,1-.1178-2.2054,49.3341,49.3341,0,0,1,5.3185.0079A21.0616,21.0616,0,0,1,69.7958,163.2389Z"/><path class="cls-26" d="M70.102,164.7135a24.47,24.47,0,0,1-4.23,0,1.9552,1.9552,0,0,1-.1459-.9238,31.198,31.198,0,0,1,4.23,0A3.776,3.776,0,0,1,70.102,164.7135Z"/><path class="cls-26" d="M69.2484,182.9889a24.47,24.47,0,0,1-4.23,0,1.9557,1.9557,0,0,1-.1458-.9239,31.198,31.198,0,0,1,4.23,0A3.7808,3.7808,0,0,1,69.2484,182.9889Z"/><path class="cls-26" d="M79.5414,144.7352a24.47,24.47,0,0,1-4.23,0,1.9553,1.9553,0,0,1-.1458-.9238,31.198,31.198,0,0,1,4.23,0A3.78,3.78,0,0,1,79.5414,144.7352Z"/><path class="cls-26" d="M83.8223,147.623a7.6225,7.6225,0,0,1-2.3581-.092,1.9569,1.9569,0,0,1-.1458-.9239,10.0614,10.0614,0,0,1,2.403-.0722A4.6926,4.6926,0,0,1,83.8223,147.623Z"/><path class="cls-27" d="M80.1213,156.9962c0,.32,1.6606-.0272,1.6606.224v1.439a26.0111,26.0111,0,0,0-3.209,0c-.1122.132.1265,2.3756-.1275,2.3756s-8.07-.1823-8.2248,0a18.72,18.72,0,0,0,.4306,4.1442c.1571.1848,6.3059-.2111,6.4854,0s.03,1.1645.2072,1.3726,3.8373.2044,3.9553.3431a1.6032,1.6032,0,0,1,.1572.6072l-3.7321-.2112v1.32l4.3046-.29s.2489-11.1194.2489-11.644-2.2013-.5441-2.2013-.5441Z"/><path class="cls-26" d="M77.5676,165.6542c.1031.1212.23,3.3456.3029,3.4314s4.9258-.1451,5.0492,0a14.2349,14.2349,0,0,1,0,3.7219c-.2019,0-9.09-.264-9.09-.5807V169l2.5541-.0989a12.5236,12.5236,0,0,1-2.3058-.29c0-.1452.1038-2.0655.1038-2.1843s-4.7154.2178-4.7154,0-.101-.6533,0-.772A77.0821,77.0821,0,0,1,77.5676,165.6542Z"/><path class="cls-26" d="M84.3792,159.4968c0,.2376,8.2961,0,8.2961,0a4.5112,4.5112,0,0,0,0-1.267c-.1184-.1392-4.7025-.2639-4.8147-.3959s3.0857-.0924,3.1866-.2112a12.8117,12.8117,0,0,0-.0224-3.1411,36.1542,36.1542,0,0,0-5.8571,0,16.6551,16.6551,0,0,0-.4264,1.98s4.5555-.1056,4.5555.2111-.0925.7292-.1514.7292-3.0885.04-3.139.099a3.5646,3.5646,0,0,0,.0337.7523s1.7336-.0594,1.7757-.01.2945.881.2945.881-3.7311,0-3.7311.0792Z"/><path class="cls-26" d="M86.4594,185.0817c0,.2375,8.2962,0,8.2962,0a4.5119,4.5119,0,0,0,0-1.2671c-.1184-.1392-4.7025-.2639-4.8148-.3959s3.0857-.0924,3.1866-.2112a12.8117,12.8117,0,0,0-.0224-3.1411,36.1542,36.1542,0,0,0-5.8571,0,16.6551,16.6551,0,0,0-.4264,1.98s4.5555-.1056,4.5555.2112-.0925.7292-.1514.7292-3.0885.04-3.1389.0989a3.5584,3.5584,0,0,0,.0336.7523s1.7336-.0594,1.7757-.01.2945.881.2945.881-3.7311,0-3.7311.0792Z"/><path class="cls-27" d="M84.3792,179.8371c0,.2375,8.2961,0,8.2961,0a4.5112,4.5112,0,0,0,0-1.267c-.1184-.1393-4.7025-.264-4.8147-.396s3.0857-.0924,3.1866-.2111a12.8125,12.8125,0,0,0-.0224-3.1412,36.1656,36.1656,0,0,0-5.8571,0,16.6551,16.6551,0,0,0-.4264,1.98s4.5555-.1056,4.5555.2112-.0925.7292-.1514.7292-3.0885.04-3.139.099a3.5646,3.5646,0,0,0,.0337.7523s1.7336-.0594,1.7757-.01.2945.8809.2945.8809-3.7311,0-3.7311.0792Z"/><path class="cls-27" d="M92.5283,157.4213a38.2172,38.2172,0,0,0,5.4981,0,12.4489,12.4489,0,0,0,.3554-2.944c-.1157-.136-3.9011-.4347-3.9011-.4347s2.67-.0264,2.67-.2376a9.5841,9.5841,0,0,0-.1518-2.402c-.2046-.2407-4.6954-.29-4.6954,0S92.5283,157.4213,92.5283,157.4213Z"/><path class="cls-27" d="M82.9428,166.29a38.2172,38.2172,0,0,0,5.4981,0,12.4535,12.4535,0,0,0,.3554-2.944c-.1157-.136-3.9011-.4347-3.9011-.4347s2.6705-.0264,2.6705-.2376.0526-.1387-.1519-.3793-4.6161-.0619-4.6161.2285S82.9428,166.29,82.9428,166.29Z"/><path class="cls-26" d="M94.3374,149.1065a38.2172,38.2172,0,0,0,5.4981,0,12.4481,12.4481,0,0,0,.3554-2.9439c-.1157-.1361-3.9011-.4348-3.9011-.4348s5.2514.2542,5.2514.0431.3476-.4193.143-.66-7.4919-.0619-7.4919.2284S94.3374,149.1065,94.3374,149.1065Z"/><path class="cls-26" d="M95.1507,183.7776a38.2158,38.2158,0,0,0,5.498,0,12.4484,12.4484,0,0,0,.3555-2.944c-.1157-.136-3.9011-.4347-3.9011-.4347s2.67-.0264,2.67-.2375.0527-.1387-.1519-.3793-4.616-.0619-4.616.2285S95.1507,183.7776,95.1507,183.7776Z"/><path class="cls-27" d="M90.8725,153.4653c-.127.1493-7.1362.29-7.1362,0a28.2371,28.2371,0,0,1,.4488-3.5371c.1346-.1583,5.0492-.1319,5.2287-.3431a5.0893,5.0893,0,0,0,.2244-1.61,21.5374,21.5374,0,0,0-3.4334-.29s.2244-1.267.4263-1.267,6.5416.1451,6.665.29a3.6126,3.6126,0,0,1,0,1.4518c-.0729.0858-3.0576.0594-3.1417.1584a3.0717,3.0717,0,0,0-.101.8578c0,.0792,2.8051.0132,2.8724.0924s.1571,1.0823.0449,1.0823-4.8136.066-4.8136.1979,2.5744.0307,2.6368.104A15.0119,15.0119,0,0,1,90.8725,153.4653Z"/><path class="cls-26" d="M96.5375,166.2633a28.9081,28.9081,0,0,1-5.3339,0,21.0863,21.0863,0,0,1,.3355-2.6437c.1006-.1184,3.774-.0987,3.9082-.2565a3.8063,3.8063,0,0,0,.1677-1.2035,16.0814,16.0814,0,0,0-2.5663-.2171s.1677-.947.3187-.947,4.8894.1085,4.9817.217a2.7,2.7,0,0,1,0,1.0851c-.0545.0642-2.2854.0444-2.3483.1184a2.298,2.298,0,0,0-.0755.6412c0,.0592,2.0967.01,2.147.0691s.1174.809.0336.809-3.598.0493-3.598.1479,1.9243.0229,1.971.0777A11.2212,11.2212,0,0,1,96.5375,166.2633Z"/><path class="cls-26" d="M83.3994,161.5689c-.2154.2535,7.8835.2376,8.0854,0a2.0946,2.0946,0,0,0,0-1.399c-.1178-.1385-7.3718-.1715-7.5962-.1715S83.3994,161.5689,83.3994,161.5689Z"/><path class="cls-26" d="M88.9784,166.2608c0,.198,1.6649,0,1.8164,0a7.0362,7.0362,0,0,0,.4088-2.3954,5.4633,5.4633,0,0,0-1.8563-.1728C89.2739,163.779,88.9784,166.2608,88.9784,166.2608Z"/><path class="cls-26" d="M84.4162,183.0275c0,.198,2.0945.1519,2.246.1519a8.2825,8.2825,0,0,0-.0208-2.5473,5.4655,5.4655,0,0,0-1.8562-.1728C84.7117,180.5457,84.4162,183.0275,84.4162,183.0275Z"/><path class="cls-26" d="M93.022,160.5263a25.2936,25.2936,0,0,0,5.383,0,8.4834,8.4834,0,0,0-.0869-1.597,22.5324,22.5324,0,0,0-2.6045-.2771s4.1473.1385,4.2651,0a1.448,1.448,0,0,0,0-.9371c-.09-.1056-6.9567.1848-6.9567.2772v1.1889a27.101,27.101,0,0,1,2.8612.1441c.09.1055-2.85-.0132-2.94.0923A2.5463,2.5463,0,0,0,93.022,160.5263Z"/><path class="cls-26" d="M84.4942,148.2611a25.3068,25.3068,0,0,0,5.383,0,8.4746,8.4746,0,0,0-.087-1.597,22.53,22.53,0,0,0-2.6044-.2772s4.1472.1386,4.2651,0a1.4484,1.4484,0,0,0,0-.937c-.09-.1056-6.9567.1847-6.9567.2771v1.189a27.1013,27.1013,0,0,1,2.8612.144c.09.1056-2.85-.0132-2.94.0924A2.5448,2.5448,0,0,0,84.4942,148.2611Z"/><path class="cls-27" d="M95.109,163.14a24.47,24.47,0,0,1-4.23,0,1.957,1.957,0,0,1-.1459-.9239,31.2,31.2,0,0,1,4.23,0A3.7808,3.7808,0,0,1,95.109,163.14Z"/><path class="cls-26" d="M88.5536,169.25a39.0271,39.0271,0,0,1-5.35-.1584,10.4934,10.4934,0,0,1-.1178-2.2055,49.36,49.36,0,0,1,5.3185.008A21.0616,21.0616,0,0,1,88.5536,169.25Z"/><path class="cls-26" d="M88.86,170.7249a24.49,24.49,0,0,1-4.23,0,1.9574,1.9574,0,0,1-.1459-.9239,31.2,31.2,0,0,1,4.23,0A3.7808,3.7808,0,0,1,88.86,170.7249Z"/><path class="cls-26" d="M98.2993,150.7465a24.47,24.47,0,0,1-4.23,0,1.9558,1.9558,0,0,1-.1459-.9239,31.2306,31.2306,0,0,1,4.23,0A3.7767,3.7767,0,0,1,98.2993,150.7465Z"/><path class="cls-26" d="M100.54,153.6342a7.6225,7.6225,0,0,1-2.3581-.0919,1.9569,1.9569,0,0,1-.1458-.9239,10.0614,10.0614,0,0,1,2.403-.0722A4.6918,4.6918,0,0,1,100.54,153.6342Z"/><path class="cls-27" d="M98.8791,163.0075c0,.32,1.6606-.0272,1.6606.224v1.439a26.0111,26.0111,0,0,0-3.209,0c-.1122.1319.1265,2.3756-.1275,2.3756s-8.07-.1822-8.2248,0a18.7138,18.7138,0,0,0,.4307,4.1442c.157.1848,6.3058-.2112,6.4854,0s.03,1.1645.2071,1.3726,3.8373.2044,3.9553.3432a1.6021,1.6021,0,0,1,.1572.607l-3.7321-.2111v1.32l4.3046-.29s.2489-11.12.2489-11.6441-2.2013-.5441-2.2013-.5441Z"/><path class="cls-26" d="M95.3447,171.6654c.1031.1214.23,3.3457.3029,3.4315s4.9258-.1452,5.0492,0a14.2349,14.2349,0,0,1,0,3.7219c-.2019,0-9.09-.264-9.09-.5807v-3.227l2.5541-.099a12.5234,12.5234,0,0,1-2.3058-.29c0-.1452.1038-2.0655.1038-2.1843s-4.7154.2178-4.7154,0-.101-.6533,0-.7721A77.1907,77.1907,0,0,1,95.3447,171.6654Z"/><path class="cls-26" d="M101.0355,143.6106c0,.2375,8.2962,0,8.2962,0a4.5112,4.5112,0,0,0,0-1.267c-.1184-.1393-4.7026-.264-4.8148-.396s3.0857-.0924,3.1867-.2111a12.8176,12.8176,0,0,0-.0225-3.1412,36.1542,36.1542,0,0,0-5.8571,0,16.6551,16.6551,0,0,0-.4264,1.98s4.5555-.1056,4.5555.2112-.0925.7292-.1514.7292-3.0884.04-3.1389.099a3.5584,3.5584,0,0,0,.0336.7523s1.7336-.0594,1.7757-.01.2945.8809.2945.8809-3.7311,0-3.7311.0792Z"/><path class="cls-27" d="M101.9079,171.1826c0,.2376,8.2962,0,8.2962,0a4.5112,4.5112,0,0,0,0-1.267c-.1184-.1392-4.7026-.2639-4.8148-.3959s3.0856-.0924,3.1866-.2112a12.8117,12.8117,0,0,0-.0224-3.1411,36.1542,36.1542,0,0,0-5.8571,0,16.6551,16.6551,0,0,0-.4264,1.98s4.5556-.1056,4.5556.2112-.0926.7292-.1515.7292-3.0885.04-3.139.0989a3.5579,3.5579,0,0,0,.0337.7523s1.7336-.0593,1.7756-.01.2946.881.2946.881-3.7311,0-3.7311.0792Z"/><path class="cls-27" d="M110.057,148.7669a38.2461,38.2461,0,0,0,5.4981,0,12.4541,12.4541,0,0,0,.3554-2.944c-.1157-.1361-3.9011-.4348-3.9011-.4348s2.6705-.0264,2.6705-.2375a9.5837,9.5837,0,0,0-.1519-2.402c-.2046-.2407-4.6954-.29-4.6954,0S110.057,148.7669,110.057,148.7669Z"/><path class="cls-27" d="M118.1534,175.9892a33.3443,33.3443,0,0,0-4.7977,0,10.8654,10.8654,0,0,0-.31,2.569c.101.1187,3.4043.3794,3.4043.3794a9.9733,9.9733,0,0,0-2.33.2073,8.3572,8.3572,0,0,0,.1326,2.0961c.1785.21,4.0973.2534,4.0973,0S118.1534,175.9892,118.1534,175.9892Z"/><path class="cls-27" d="M100.4715,157.6359a38.2158,38.2158,0,0,0,5.498,0,12.4424,12.4424,0,0,0,.3555-2.9439c-.1157-.1361-3.9011-.4348-3.9011-.4348s2.67-.0264,2.67-.2375.0527-.1387-.1518-.3793-4.6161-.0619-4.6161.2285S100.4715,157.6359,100.4715,157.6359Z"/><path class="cls-26" d="M112.6794,175.1232a38.2447,38.2447,0,0,0,5.498,0,12.4437,12.4437,0,0,0,.3554-2.944c-.1156-.1361-3.901-.4347-3.901-.4347s2.67-.0264,2.67-.2376.0527-.1387-.1519-.3793-2.9857.0516-2.9857.3419S112.6794,175.1232,112.6794,175.1232Z"/><path class="cls-26" d="M114.0663,157.6089a28.9179,28.9179,0,0,1-5.334,0,21.1069,21.1069,0,0,1,.3354-2.6438c.1007-.1184,3.7741-.0986,3.9083-.2565a3.8026,3.8026,0,0,0,.1677-1.2035,16.0929,16.0929,0,0,0-2.5663-.217s.1677-.9471.3187-.9471,4.8895.1086,4.9817.2171a2.7,2.7,0,0,1,0,1.0851c-.0545.0642-2.2854.0444-2.3483.1184a2.2975,2.2975,0,0,0-.0755.6412c0,.0592,2.0967.01,2.147.0691s.1174.8089.0336.8089-3.5979.0493-3.5979.148,1.9242.0228,1.9708.0777A11.2207,11.2207,0,0,1,114.0663,157.6089Z"/><path class="cls-26" d="M100.9281,152.9145c-.2155.2534,7.8835.2376,8.0854,0a2.094,2.094,0,0,0,0-1.399c-.1178-.1386-7.3718-.1716-7.5962-.1716S100.9281,152.9145,100.9281,152.9145Z"/><path class="cls-26" d="M106.5071,157.6064c0,.198,1.6649,0,1.8164,0a7.0386,7.0386,0,0,0,.4088-2.3954,5.4634,5.4634,0,0,0-1.8562-.1729C106.8026,155.1245,106.5071,157.6064,106.5071,157.6064Z"/><path class="cls-26" d="M101.945,174.3731c0,.198,2.0944.1518,2.2459.1518a8.2819,8.2819,0,0,0-.0208-2.5472,5.4631,5.4631,0,0,0-1.8562-.1729C102.24,171.8912,101.945,174.3731,101.945,174.3731Z"/><path class="cls-27" d="M101.1231,178.16c0,.198,2.0945.1518,2.2459.1518a11.748,11.748,0,0,0,.6991-3.089,17.4262,17.4262,0,0,0-3.3689-.0256C100.6257,175.2832,101.1231,178.16,101.1231,178.16Z"/><path class="cls-26" d="M110.5507,151.8718a25.2936,25.2936,0,0,0,5.383,0,8.4745,8.4745,0,0,0-.0869-1.5969,22.5335,22.5335,0,0,0-2.6045-.2772s4.1473.1386,4.2651,0a1.448,1.448,0,0,0,0-.9371c-.09-.1055-6.9567.1848-6.9567.2772v1.189a27.1032,27.1032,0,0,1,2.8613.144c.09.1056-2.85-.0132-2.94.0924A2.5457,2.5457,0,0,0,110.5507,151.8718Z"/><path class="cls-27" d="M112.6377,154.4851a24.48,24.48,0,0,1-4.23,0,1.9557,1.9557,0,0,1-.1458-.9239,31.198,31.198,0,0,1,4.23,0A3.7808,3.7808,0,0,1,112.6377,154.4851Z"/><path class="cls-26" d="M106.0823,160.5958a39.041,39.041,0,0,1-5.3494-.1584,10.4868,10.4868,0,0,1-.1179-2.2055,49.3085,49.3085,0,0,1,5.3185.008A21.0616,21.0616,0,0,1,106.0823,160.5958Z"/><path class="cls-26" d="M106.3885,162.07a24.47,24.47,0,0,1-4.23,0,1.9544,1.9544,0,0,1-.1458-.9239,31.2128,31.2128,0,0,1,4.23,0A3.7767,3.7767,0,0,1,106.3885,162.07Z"/><path class="cls-26" d="M105.535,180.3458a24.4913,24.4913,0,0,1-4.23,0,1.9557,1.9557,0,0,1-.1458-.9239,31.198,31.198,0,0,1,4.23,0A3.7767,3.7767,0,0,1,105.535,180.3458Z"/><path class="cls-26" d="M107.7326,186.2516a24.47,24.47,0,0,1-4.23,0,1.9552,1.9552,0,0,1-.1459-.9238,31.198,31.198,0,0,1,4.23,0A3.776,3.776,0,0,1,107.7326,186.2516Z"/><path class="cls-26" d="M115.828,142.0921a24.4813,24.4813,0,0,1-4.23,0,1.9569,1.9569,0,0,1-.1458-.9239,31.198,31.198,0,0,1,4.23,0A3.7767,3.7767,0,0,1,115.828,142.0921Z"/><path class="cls-26" d="M118.0684,144.98a7.6194,7.6194,0,0,1-2.3581-.092,1.9563,1.9563,0,0,1-.1458-.9238,10.0666,10.0666,0,0,1,2.403-.0723A4.6931,4.6931,0,0,1,118.0684,144.98Z"/><path class="cls-27" d="M116.4078,154.3531c0,.32,1.6606-.0272,1.6606.2239v1.439a26.0111,26.0111,0,0,0-3.209,0c-.1122.132.1265,2.3757-.1275,2.3757s-8.07-.1823-8.2248,0a18.72,18.72,0,0,0,.4306,4.1442c.1571.1847,6.3059-.2112,6.4855,0s.03,1.1644.2071,1.3726,3.8373.2043,3.9553.3431a1.6029,1.6029,0,0,1,.1572.6071l-3.7321-.2111v1.32l4.3046-.29s.2489-11.1195.2489-11.644-2.2013-.5441-2.2013-.5441Z"/><path class="cls-26" d="M47.4176,164.3708c0,.2376,8.2962,0,8.2962,0a4.5112,4.5112,0,0,0,0-1.267c-.1184-.1393-4.7025-.264-4.8147-.3959s3.0856-.0925,3.1866-.2112a12.8126,12.8126,0,0,0-.0225-3.1412,36.1757,36.1757,0,0,0-5.857,0,16.6366,16.6366,0,0,0-.4264,1.98s4.5555-.1056,4.5555.2111-.0926.7292-.1515.7292-3.0884.04-3.1389.099a3.5584,3.5584,0,0,0,.0336.7523s1.7336-.0594,1.7757-.01.2945.8809.2945.8809-3.7311,0-3.7311.0792Z"/><path class="cls-26" d="M48.0831,154.7124c0,.2376,8.2961,0,8.2961,0a4.5112,4.5112,0,0,0,0-1.267c-.1184-.1392-4.7025-.264-4.8147-.3959s3.0856-.0924,3.1866-.2112a12.8126,12.8126,0,0,0-.0225-3.1412,36.1757,36.1757,0,0,0-5.857,0,16.6606,16.6606,0,0,0-.4264,1.98s4.5555-.1056,4.5555.2111-.0926.7292-.1515.7292-3.0884.04-3.1389.099a3.5579,3.5579,0,0,0,.0337.7523s1.7335-.0594,1.7756-.01.2945.881.2945.881-3.731,0-3.731.0792Z"/><path class="cls-26" d="M49.5778,190.5679c0,.2376,8.2962,0,8.2962,0a4.5149,4.5149,0,0,0,0-1.267c-.1184-.1392-4.7025-.2639-4.8148-.3959s3.0857-.0924,3.1866-.2112a12.8117,12.8117,0,0,0-.0224-3.1411,36.1542,36.1542,0,0,0-5.8571,0,16.6533,16.6533,0,0,0-.4263,1.98s4.5554-.1056,4.5554.2111-.0925.7292-.1514.7292-3.0885.04-3.139.099a3.5646,3.5646,0,0,0,.0337.7523s1.7336-.0594,1.7757-.01.2945.881.2945.881-3.7311,0-3.7311.0792Z"/><path class="cls-27" d="M47.4176,184.711c0,.2376,8.2962,0,8.2962,0a4.5112,4.5112,0,0,0,0-1.267c-.1184-.1392-4.7025-.2639-4.8147-.3959s3.0856-.0924,3.1866-.2112a12.8119,12.8119,0,0,0-.0225-3.1411,36.153,36.153,0,0,0-5.857,0,16.6353,16.6353,0,0,0-.4264,1.98s4.5555-.1056,4.5555.2112-.0926.7292-.1515.7292-3.0884.04-3.1389.099a3.5577,3.5577,0,0,0,.0336.7522s1.7336-.0593,1.7757-.01.2945.881.2945.881-3.7311,0-3.7311.0792Z"/><path class="cls-27" d="M55.5668,162.2953a38.2447,38.2447,0,0,0,5.498,0,12.4489,12.4489,0,0,0,.3554-2.944c-.1156-.1361-3.9011-.4348-3.9011-.4348s2.67-.0264,2.67-.2375a9.584,9.584,0,0,0-.1519-2.402c-.2046-.2407-4.6953-.29-4.6953,0S55.5668,162.2953,55.5668,162.2953Z"/><path class="cls-27" d="M63.6632,189.5176a33.36,33.36,0,0,0-4.7978,0,10.86,10.86,0,0,0-.31,2.569c.1009.1187,3.4042.3794,3.4042.3794a9.9733,9.9733,0,0,0-2.33.2073,8.3616,8.3616,0,0,0,.1326,2.0961c.1785.21,4.0973.2534,4.0973,0S63.6632,189.5176,63.6632,189.5176Z"/><path class="cls-27" d="M45.9813,171.1643a38.2158,38.2158,0,0,0,5.498,0,12.4475,12.4475,0,0,0,.3554-2.9439c-.1156-.1361-3.9011-.4348-3.9011-.4348s2.6705-.0263,2.6705-.2375.0527-.1387-.1519-.3793-4.6161-.0619-4.6161.2285S45.9813,171.1643,45.9813,171.1643Z"/><path class="cls-26" d="M58.1892,188.6516a38.2447,38.2447,0,0,0,5.498,0,12.4489,12.4489,0,0,0,.3554-2.944c-.1157-.1361-3.9011-.4347-3.9011-.4347s2.67-.0264,2.67-.2376.0526-.1387-.1519-.3793-4.6161-.0619-4.6161.2285S58.1892,188.6516,58.1892,188.6516Z"/><path class="cls-27" d="M54.2171,197.0465c-.1269.1188-7.1362.231-7.1362,0a18.1161,18.1161,0,0,1,.4489-2.8139c.1346-.126,5.0492-.105,5.2287-.273a3.2848,3.2848,0,0,0,.2244-1.2809,26.9413,26.9413,0,0,0-3.4335-.231s.2245-1.008.4264-1.008,6.5415.1155,6.665.231a2.3,2.3,0,0,1,0,1.1549c-.073.0683-3.0576.0473-3.1418.1261a1.9743,1.9743,0,0,0-.101.6824c0,.063,2.8052.0105,2.8725.0735s.1571.861.0449.861-4.8136.0525-4.8136.1575,2.5744.0244,2.6368.0827A9.5143,9.5143,0,0,1,54.2171,197.0465Z"/><path class="cls-26" d="M59.576,171.1373a28.9179,28.9179,0,0,1-5.334,0,21.0879,21.0879,0,0,1,.3355-2.6438c.1006-.1184,3.774-.0986,3.9082-.2565a3.8026,3.8026,0,0,0,.1677-1.2035,16.0929,16.0929,0,0,0-2.5663-.217s.1678-.9471.3187-.9471,4.8895.1086,4.9817.2171a2.6986,2.6986,0,0,1,0,1.0851c-.0545.0642-2.2854.0444-2.3483.1184a2.3011,2.3011,0,0,0-.0754.6412c0,.0592,2.0966.01,2.147.0691s.1174.8089.0335.8089-3.5979.0493-3.5979.148,1.9242.0228,1.9709.0777A11.2208,11.2208,0,0,1,59.576,171.1373Z"/><path class="cls-26" d="M46.4379,166.4429c-.2155.2534,7.8834.2376,8.0854,0a2.0946,2.0946,0,0,0,0-1.399c-.1179-.1386-7.3719-.1716-7.5963-.1716S46.4379,166.4429,46.4379,166.4429Z"/><path class="cls-26" d="M52.0169,171.1348c0,.198,1.6648,0,1.8163,0a7.0338,7.0338,0,0,0,.4088-2.3954,5.4631,5.4631,0,0,0-1.8562-.1729C52.3123,168.6529,52.0169,171.1348,52.0169,171.1348Z"/><path class="cls-26" d="M47.4547,187.9015c0,.198,2.0944.1518,2.2459.1518a8.2848,8.2848,0,0,0-.0207-2.5472,5.4637,5.4637,0,0,0-1.8563-.1729C47.75,185.42,47.4547,187.9015,47.4547,187.9015Z"/><path class="cls-27" d="M46.6328,191.688c0,.198,2.0945.1518,2.246.1518a11.7479,11.7479,0,0,0,.699-3.089,17.4261,17.4261,0,0,0-3.3689-.0256C46.1354,188.8116,46.6328,191.688,46.6328,191.688Z"/><path class="cls-26" d="M56.0605,165.4a25.2936,25.2936,0,0,0,5.383,0,8.474,8.474,0,0,0-.087-1.5969,22.53,22.53,0,0,0-2.6044-.2772s4.1472.1386,4.265,0a1.4474,1.4474,0,0,0,0-.9371c-.09-.1055-6.9566.1848-6.9566.2772v1.189a27.1013,27.1013,0,0,1,2.8612.144c.09.1056-2.85-.0132-2.94.0924A2.5457,2.5457,0,0,0,56.0605,165.4Z"/><path class="cls-26" d="M42.9737,146.5372a25.3068,25.3068,0,0,0,5.383,0,8.4746,8.4746,0,0,0-.087-1.597,22.53,22.53,0,0,0-2.6044-.2772s4.1473.1386,4.2651,0a1.4484,1.4484,0,0,0,0-.937c-.09-.1056-6.9567.1847-6.9567.2771v1.189a27.1268,27.1268,0,0,1,2.8612.144c.09.1056-2.85-.0132-2.94.0924A2.5478,2.5478,0,0,0,42.9737,146.5372Z"/><path class="cls-26" d="M41.43,159.62a25.2936,25.2936,0,0,0,5.383,0,8.4731,8.4731,0,0,0-.087-1.5969,22.5076,22.5076,0,0,0-2.6044-.2772s4.1473.1386,4.2651,0a1.4487,1.4487,0,0,0,0-.9371c-.09-.1055-6.9567.1848-6.9567.2772v1.189a27.1,27.1,0,0,1,2.8612.144c.09.1056-2.85-.0132-2.94.0924A2.5475,2.5475,0,0,0,41.43,159.62Z"/><path class="cls-27" d="M58.1475,168.0135a24.48,24.48,0,0,1-4.23,0,1.9558,1.9558,0,0,1-.1459-.9239,31.198,31.198,0,0,1,4.23,0A3.7767,3.7767,0,0,1,58.1475,168.0135Z"/><path class="cls-26" d="M51.592,174.1242a39.041,39.041,0,0,1-5.3494-.1584,10.48,10.48,0,0,1-.1178-2.2055,49.3066,49.3066,0,0,1,5.3184.008A21.0616,21.0616,0,0,1,51.592,174.1242Z"/><path class="cls-26" d="M48.4246,175.3641a24.47,24.47,0,0,1-4.23,0,1.9552,1.9552,0,0,1-.1459-.9238,31.198,31.198,0,0,1,4.23,0A3.776,3.776,0,0,1,48.4246,175.3641Z"/><path class="cls-26" d="M51.0447,193.8742a24.49,24.49,0,0,1-4.23,0,1.9558,1.9558,0,0,1-.1459-.9239,31.198,31.198,0,0,1,4.23,0A3.7767,3.7767,0,0,1,51.0447,193.8742Z"/><path class="cls-26" d="M61.3377,155.6205a24.47,24.47,0,0,1-4.23,0,1.9558,1.9558,0,0,1-.1459-.9239,31.198,31.198,0,0,1,4.23,0A3.7767,3.7767,0,0,1,61.3377,155.6205Z"/><path class="cls-26" d="M54.0556,158.4225a24.47,24.47,0,0,1-4.23,0,1.9558,1.9558,0,0,1-.1459-.9239,31.2143,31.2143,0,0,1,4.23,0A3.7767,3.7767,0,0,1,54.0556,158.4225Z"/><path class="cls-26" d="M63.5782,158.5082a7.6193,7.6193,0,0,1-2.3581-.092,1.9552,1.9552,0,0,1-.1459-.9238,10.0667,10.0667,0,0,1,2.403-.0723A4.6883,4.6883,0,0,1,63.5782,158.5082Z"/><path class="cls-27" d="M64.4278,142.4524c-.0485,2.5056-.24,10.9724-.24,10.9724l-4.3033.2914v-1.3208l3.7324.2122a1.6106,1.6106,0,0,0-.1589-.6082c-.1158-.1394-3.7781-.1331-3.9532-.3421-.1777-.2091-.03-1.1625-.2073-1.3747-.1805-.2091-6.3283.1869-6.4872,0A18.8329,18.8329,0,0,1,52.38,146.14c.1562-.1806,7.971,0,8.2268,0,.2532,0,.0135-2.2427.1266-2.3757a25.83,25.83,0,0,1,3.21,0v-1.305Z"/><path class="cls-26" d="M41.6516,176.2627c0-.2376-8.2961,0-8.2961,0a4.5074,4.5074,0,0,0,0,1.267c.1183.1393,4.7025.264,4.8147.3959s-3.0857.0924-3.1866.2112a12.8117,12.8117,0,0,0,.0224,3.1411,36.1542,36.1542,0,0,0,5.8571,0,16.65,16.65,0,0,0,.4264-1.98s-4.5555.1055-4.5555-.2112.0925-.7292.1514-.7292,3.0885-.04,3.1389-.099a3.5584,3.5584,0,0,0-.0336-.7523s-1.7336.0594-1.7757.01-.2945-.881-.2945-.881,3.7311,0,3.7311-.0792Z"/><path class="cls-26" d="M39.4914,150.0655c0-.2375-8.2961,0-8.2961,0a4.5112,4.5112,0,0,0,0,1.267c.1184.1393,4.7025.264,4.8147.396s-3.0856.0924-3.1866.2112a12.8167,12.8167,0,0,0,.0224,3.1411,36.1542,36.1542,0,0,0,5.8571,0,16.6551,16.6551,0,0,0,.4264-1.98s-4.5555.1056-4.5555-.2112.0926-.7292.1515-.7292,3.0884-.04,3.1389-.099a3.5573,3.5573,0,0,0-.0337-.7522s-1.7336.0593-1.7756.01-.2946-.881-.2946-.881,3.7311,0,3.7311-.0792Z"/><path class="cls-27" d="M41.6516,155.9224c0-.2375-8.2961,0-8.2961,0a4.5081,4.5081,0,0,0,0,1.2671c.1183.1392,4.7025.2639,4.8147.3959s-3.0857.0924-3.1866.2111a12.8125,12.8125,0,0,0,.0224,3.1412,36.1542,36.1542,0,0,0,5.8571,0,16.6551,16.6551,0,0,0,.4264-1.98s-4.5555.1056-4.5555-.2112.0925-.7292.1514-.7292,3.0885-.04,3.1389-.0989a3.5584,3.5584,0,0,0-.0336-.7523s-1.7336.0594-1.7757.01-.2945-.881-.2945-.881,3.7311,0,3.7311-.0792Z"/><path class="cls-27" d="M25.406,151.1159a33.36,33.36,0,0,0,4.7978,0,10.8654,10.8654,0,0,0,.31-2.569c-.1009-.1188-3.4042-.3794-3.4042-.3794a9.9724,9.9724,0,0,0,2.33-.2073,8.3611,8.3611,0,0,0-.1325-2.0961c-.1786-.21-4.0974-.2534-4.0974,0S25.406,151.1159,25.406,151.1159Z"/><path class="cls-27" d="M43.088,169.4691a38.2461,38.2461,0,0,0-5.4981,0,12.4489,12.4489,0,0,0-.3554,2.944c.1157.1361,3.9011.4347,3.9011.4347s-2.67.0264-2.67.2376-.0526.1387.1519.3793,4.6161.0619,4.6161-.2285S43.088,169.4691,43.088,169.4691Z"/><path class="cls-26" d="M30.88,151.9819a38.2158,38.2158,0,0,0-5.498,0,12.4484,12.4484,0,0,0-.3555,2.944c.1157.136,3.9011.4347,3.9011.4347s-2.67.0264-2.67.2376-.0527.1386.1519.3793,4.616.0618,4.616-.2285S30.88,151.9819,30.88,151.9819Z"/><path class="cls-27" d="M34.8521,143.587c.1269-.1188,7.1362-.231,7.1362,0a18.1282,18.1282,0,0,1-.4488,2.8139c-.1347.126-5.0492.105-5.2288.273a3.2845,3.2845,0,0,0-.2244,1.2809,26.9413,26.9413,0,0,0,3.4335.231s-.2244,1.008-.4264,1.008-6.5415-.1155-6.665-.231a2.3,2.3,0,0,1,0-1.155c.073-.0682,3.0576-.0472,3.1418-.126a1.9722,1.9722,0,0,0,.101-.6824c0-.063-2.8051-.0106-2.8724-.0736s-.1571-.8609-.045-.8609,4.8136-.0525,4.8136-.1575-2.5744-.0244-2.6368-.0827A9.525,9.525,0,0,1,34.8521,143.587Z"/><path class="cls-26" d="M29.4933,169.4961a28.9168,28.9168,0,0,1,5.3339,0,21.0872,21.0872,0,0,1-.3355,2.6439c-.1006.1183-3.774.0986-3.9082.2564a3.8032,3.8032,0,0,0-.1677,1.2036,16.0929,16.0929,0,0,0,2.5663.217s-.1677.947-.3187.947-4.8894-.1085-4.9817-.217a2.7009,2.7009,0,0,1,0-1.0852c.0545-.0641,2.2854-.0443,2.3483-.1183a2.2975,2.2975,0,0,0,.0755-.6412c0-.0592-2.0967-.01-2.147-.0691s-.1174-.8089-.0336-.8089,3.5979-.0493,3.5979-.148-1.9242-.0229-1.9709-.0777A11.222,11.222,0,0,1,29.4933,169.4961Z"/><path class="cls-26" d="M42.6314,174.1906c.2154-.2534-7.8835-.2376-8.0854,0a2.0946,2.0946,0,0,0,0,1.399c.1178.1386,7.3718.1716,7.5962.1716S42.6314,174.1906,42.6314,174.1906Z"/><path class="cls-26" d="M37.0524,169.4987c0-.198-1.6649,0-1.8164,0a7.0362,7.0362,0,0,0-.4088,2.3954,5.4635,5.4635,0,0,0,1.8563.1729C36.7569,171.9805,37.0524,169.4987,37.0524,169.4987Z"/><path class="cls-26" d="M41.6146,152.7319c0-.1979-2.0945-.1517-2.246-.1517a8.2819,8.2819,0,0,0,.0208,2.5472,5.46,5.46,0,0,0,1.8562.1728C41.3191,155.2138,41.6146,152.7319,41.6146,152.7319Z"/><path class="cls-27" d="M42.4364,148.9455c0-.198-2.0945-.1518-2.246-.1518a11.751,11.751,0,0,0-.699,3.089,17.4261,17.4261,0,0,0,3.3689.0256C42.9338,151.8219,42.4364,148.9455,42.4364,148.9455Z"/><path class="cls-26" d="M33.0088,175.2332a25.3068,25.3068,0,0,0-5.383,0,8.4751,8.4751,0,0,0,.0869,1.597,22.5335,22.5335,0,0,0,2.6045.2772s-4.1473-.1386-4.2651,0a1.4477,1.4477,0,0,0,0,.937c.09.1056,6.9567-.1847,6.9567-.2771v-1.1891a27.1259,27.1259,0,0,1-2.8612-.1439c-.09-.1056,2.85.0132,2.94-.0924A2.5463,2.5463,0,0,0,33.0088,175.2332Z"/><path class="cls-26" d="M46.0955,194.0963a25.3059,25.3059,0,0,0-5.3829,0,8.4751,8.4751,0,0,0,.0869,1.597,22.53,22.53,0,0,0,2.6045.2771s-4.1473-.1385-4.2651,0a1.448,1.448,0,0,0,0,.9371c.09.1056,6.9566-.1848,6.9566-.2772v-1.189a27.1013,27.1013,0,0,1-2.8612-.144c-.09-.1056,2.85.0132,2.94-.0924A2.5444,2.5444,0,0,0,46.0955,194.0963Z"/><path class="cls-26" d="M65.832,171.6137a25.2936,25.2936,0,0,0-5.383,0,8.474,8.474,0,0,0,.087,1.5969,22.53,22.53,0,0,0,2.6044.2772s-4.1473-.1386-4.2651,0a1.4477,1.4477,0,0,0,0,.937c.09.1056,6.9567-.1848,6.9567-.2771v-1.189a27.1,27.1,0,0,1-2.8612-.144c-.09-.1056,2.85.0132,2.94-.0924A2.5457,2.5457,0,0,0,65.832,171.6137Z"/><path class="cls-27" d="M30.9217,172.62a24.4913,24.4913,0,0,1,4.23,0,1.9557,1.9557,0,0,1,.1458.9239,31.198,31.198,0,0,1-4.23,0A3.7767,3.7767,0,0,1,30.9217,172.62Z"/><path class="cls-26" d="M37.4772,166.5093a39.043,39.043,0,0,1,5.3495.1584,10.4928,10.4928,0,0,1,.1178,2.2054,49.2826,49.2826,0,0,1-5.3185-.0079A21.0616,21.0616,0,0,1,37.4772,166.5093Z"/><path class="cls-26" d="M37.171,165.0347a24.47,24.47,0,0,1,4.23,0,1.9566,1.9566,0,0,1,.1459.9238,31.2,31.2,0,0,1-4.23,0A3.78,3.78,0,0,1,37.171,165.0347Z"/><path class="cls-26" d="M38.0246,146.7593a24.469,24.469,0,0,1,4.23,0,1.9558,1.9558,0,0,1,.1459.9239,31.198,31.198,0,0,1-4.23,0A3.7808,3.7808,0,0,1,38.0246,146.7593Z"/><path class="cls-26" d="M35.0136,182.211a24.47,24.47,0,0,1,4.23,0,1.9556,1.9556,0,0,1,.1459.9238,31.198,31.198,0,0,1-4.23,0A3.7753,3.7753,0,0,1,35.0136,182.211Z"/><path class="cls-27" d="M24.9923,172.752c0-.32-1.6606.0272-1.6606-.224v-1.4389a26.0308,26.0308,0,0,0,3.209,0c.1122-.132-.1265-2.3757.1275-2.3757s8.07.1823,8.2248,0a18.72,18.72,0,0,0-.4306-4.1442c-.1571-.1848-6.3059.2112-6.4855,0s-.03-1.1645-.2071-1.3726-3.8373-.2043-3.9553-.3431a1.6029,1.6029,0,0,1-.1572-.6071l3.7321.2111v-1.32l-4.3046.29s-.2489,11.1194-.2489,11.644,2.2013.5441,2.2013.5441Z"/><path class="cls-26" d="M30.6861,164.0941c-.1031-.1213-.23-3.3457-.3029-3.4315s-4.9258.1452-5.0492,0a14.2349,14.2349,0,0,1,0-3.7219c.2019,0,9.09.264,9.09.5808v3.2269l-2.5541.099a12.5234,12.5234,0,0,1,2.3058.29c0,.1452-.1038,2.0655-.1038,2.1843s4.7154-.2178,4.7154,0,.101.6533,0,.7721A77.1363,77.1363,0,0,1,30.6861,164.0941Z"/><path class="cls-26" d="M118.8031,155.709c0,.2376,8.2962,0,8.2962,0a4.5112,4.5112,0,0,0,0-1.267c-.1184-.1393-4.7025-.2639-4.8147-.3959s3.0856-.0924,3.1866-.2112a12.8167,12.8167,0,0,0-.0225-3.1411,36.153,36.153,0,0,0-5.857,0,16.6311,16.6311,0,0,0-.4264,1.98s4.5555-.1056,4.5555.2111-.0926.7292-.1515.7292-3.0884.04-3.1389.099a3.5584,3.5584,0,0,0,.0336.7523s1.7336-.0594,1.7757-.01.2945.881.2945.881-3.7311,0-3.7311.0791Z"/><path class="cls-26" d="M120.9633,181.9062c0,.2375,8.2962,0,8.2962,0a4.5119,4.5119,0,0,0,0-1.2671c-.1184-.1392-4.7026-.2639-4.8148-.3959s3.0857-.0924,3.1866-.2111a12.8125,12.8125,0,0,0-.0224-3.1412,36.1542,36.1542,0,0,0-5.8571,0,16.6533,16.6533,0,0,0-.4263,1.98s4.5555-.1056,4.5555.2112-.0926.7292-.1515.7292-3.0885.04-3.139.0989a3.5642,3.5642,0,0,0,.0337.7523s1.7336-.0594,1.7757-.01.2945.881.2945.881-3.7311,0-3.7311.0792Z"/><path class="cls-27" d="M118.8031,176.0493c0,.2376,8.2962,0,8.2962,0a4.5112,4.5112,0,0,0,0-1.267c-.1184-.1393-4.7025-.264-4.8147-.396s3.0856-.0924,3.1866-.2111a12.8176,12.8176,0,0,0-.0225-3.1412,36.1757,36.1757,0,0,0-5.857,0,16.6353,16.6353,0,0,0-.4264,1.98s4.5555-.1056,4.5555.2112-.0926.7292-.1515.7292-3.0884.04-3.1389.099a3.5584,3.5584,0,0,0,.0336.7523s1.7336-.0594,1.7757-.01.2945.8809.2945.8809-3.7311,0-3.7311.0792Z"/><path class="cls-27" d="M126.9523,153.6335a38.2158,38.2158,0,0,0,5.498,0,12.4483,12.4483,0,0,0,.3554-2.944c-.1156-.136-3.9011-.4347-3.9011-.4347s2.6705-.0264,2.6705-.2376a9.58,9.58,0,0,0-.1519-2.402c-.2046-.2406-4.6953-.29-4.6953,0S126.9523,153.6335,126.9523,153.6335Z"/><path class="cls-27" d="M135.0487,180.8558a33.36,33.36,0,0,0-4.7978,0,10.8656,10.8656,0,0,0-.31,2.5691c.101.1187,3.4043.3793,3.4043.3793a9.9787,9.9787,0,0,0-2.33.2073,8.3616,8.3616,0,0,0,.1326,2.0961c.1785.21,4.0973.2534,4.0973,0S135.0487,180.8558,135.0487,180.8558Z"/><path class="cls-27" d="M117.3668,162.5026a38.2158,38.2158,0,0,0,5.498,0,12.4536,12.4536,0,0,0,.3555-2.944c-.1157-.136-3.9012-.4347-3.9012-.4347s2.67-.0264,2.67-.2376.0527-.1387-.1519-.3793-4.616-.0619-4.616.2285S117.3668,162.5026,117.3668,162.5026Z"/><path class="cls-26" d="M129.5747,179.99a38.2158,38.2158,0,0,0,5.498,0,12.4489,12.4489,0,0,0,.3554-2.944c-.1157-.136-3.9011-.4347-3.9011-.4347s2.6705-.0264,2.6705-.2375.0527-.1387-.1519-.3794-4.6161-.0618-4.6161.2286S129.5747,179.99,129.5747,179.99Z"/><path class="cls-27" d="M125.2964,149.6775c-.1269.1493-7.1362.29-7.1362,0a28.2371,28.2371,0,0,1,.4488-3.5371c.1347-.1583,5.0492-.1319,5.2288-.3431a5.0893,5.0893,0,0,0,.2244-1.61,21.527,21.527,0,0,0-3.4335-.29s.2244-1.267.4264-1.267,6.5415.1451,6.6649.29a3.609,3.609,0,0,1,0,1.4518c-.0729.0858-3.0575.0594-3.1417.1584a3.0721,3.0721,0,0,0-.101.8578c0,.0792,2.8051.0132,2.8725.0924s.157,1.0823.0449,1.0823-4.8136.066-4.8136.1979,2.5744.0307,2.6368.104A15.012,15.012,0,0,1,125.2964,149.6775Z"/><path class="cls-27" d="M125.6027,188.3847c-.127.1188-7.1362.231-7.1362,0a18.1163,18.1163,0,0,1,.4488-2.8139c.1346-.126,5.0492-.105,5.2287-.273a3.2842,3.2842,0,0,0,.2244-1.2809,26.9413,26.9413,0,0,0-3.4335-.231s.2244-1.008.4264-1.008,6.5415.1156,6.665.231a2.3,2.3,0,0,1,0,1.155c-.073.0682-3.0576.0472-3.1417.126a1.9719,1.9719,0,0,0-.101.6824c0,.0631,2.8051.0106,2.8724.0735s.1571.861.0449.861-4.8136.0525-4.8136.1575,2.5744.0244,2.6368.0828A9.5186,9.5186,0,0,1,125.6027,188.3847Z"/><path class="cls-26" d="M130.9615,162.4755a28.9091,28.9091,0,0,1-5.334,0,21.1065,21.1065,0,0,1,.3355-2.6438c.1007-.1183,3.7741-.0986,3.9082-.2564a3.8036,3.8036,0,0,0,.1678-1.2035,16.0826,16.0826,0,0,0-2.5664-.2171s.1678-.947.3187-.947,4.8895.1085,4.9817.217a2.6986,2.6986,0,0,1,0,1.0851c-.0545.0642-2.2854.0444-2.3482.1184a2.2942,2.2942,0,0,0-.0755.6412c0,.0593,2.0966.01,2.147.0691s.1174.8089.0335.8089-3.5979.0494-3.5979.148,1.9243.0229,1.9709.0777A11.221,11.221,0,0,1,130.9615,162.4755Z"/><path class="cls-26" d="M117.8234,157.7811c-.2155.2534,7.8834.2376,8.0854,0a2.0946,2.0946,0,0,0,0-1.399c-.1178-.1385-7.3719-.1716-7.5963-.1716S117.8234,157.7811,117.8234,157.7811Z"/><path class="cls-26" d="M123.4023,162.473c0,.198,1.665,0,1.8164,0a7.0338,7.0338,0,0,0,.4088-2.3954,5.46,5.46,0,0,0-1.8562-.1728C123.6978,159.9912,123.4023,162.473,123.4023,162.473Z"/><path class="cls-26" d="M118.84,179.24c0,.198,2.0945.1519,2.246.1519a8.2888,8.2888,0,0,0-.0208-2.5473,5.4661,5.4661,0,0,0-1.8563-.1728C119.1356,176.7579,118.84,179.24,118.84,179.24Z"/><path class="cls-27" d="M118.0184,183.0262c0,.198,2.0944.1518,2.2459.1518a11.7431,11.7431,0,0,0,.699-3.089,17.4261,17.4261,0,0,0-3.3689-.0256C117.521,180.15,118.0184,183.0262,118.0184,183.0262Z"/><path class="cls-26" d="M127.446,156.7385a25.3068,25.3068,0,0,0,5.383,0,8.4746,8.4746,0,0,0-.087-1.597,22.5285,22.5285,0,0,0-2.6044-.2771s4.1472.1385,4.265,0a1.4473,1.4473,0,0,0,0-.9371c-.09-.1056-6.9566.1848-6.9566.2772v1.1889a27.0756,27.0756,0,0,1,2.8612.1441c.09.1055-2.85-.0132-2.94.0923A2.5463,2.5463,0,0,0,127.446,156.7385Z"/><path class="cls-27" d="M129.533,159.3517a24.47,24.47,0,0,1-4.23,0,1.9558,1.9558,0,0,1-.1459-.9239,31.198,31.198,0,0,1,4.23,0A3.7767,3.7767,0,0,1,129.533,159.3517Z"/><path class="cls-26" d="M122.3648,170.6423a28.2708,28.2708,0,0,1-3.8752-.1147,7.59,7.59,0,0,1-.0854-1.5977,35.7592,35.7592,0,0,1,3.8528.0058A15.2591,15.2591,0,0,1,122.3648,170.6423Z"/><path class="cls-26" d="M123.2838,166.937a24.47,24.47,0,0,1-4.23,0,1.9556,1.9556,0,0,1-.1459-.9238,31.198,31.198,0,0,1,4.23,0A3.7753,3.7753,0,0,1,123.2838,166.937Z"/><path class="cls-26" d="M122.43,185.2124a24.47,24.47,0,0,1-4.23,0,1.9558,1.9558,0,0,1-.1459-.9239,31.2306,31.2306,0,0,1,4.23,0A3.7767,3.7767,0,0,1,122.43,185.2124Z"/><path class="cls-26" d="M113.63,183.23a24.47,24.47,0,0,1-4.23,0,1.9538,1.9538,0,0,1-.1458-.9238,31.198,31.198,0,0,1,4.23,0A3.78,3.78,0,0,1,113.63,183.23Z"/><path class="cls-26" d="M119.0044,186.2516a24.469,24.469,0,0,1-4.23,0,1.954,1.954,0,0,1-.1459-.9238,31.198,31.198,0,0,1,4.23,0A3.78,3.78,0,0,1,119.0044,186.2516Z"/><path class="cls-26" d="M132.7232,146.9587a24.47,24.47,0,0,1-4.23,0,1.9556,1.9556,0,0,1-.1459-.9238,31.198,31.198,0,0,1,4.23,0A3.7753,3.7753,0,0,1,132.7232,146.9587Z"/><path class="cls-26" d="M134.9637,149.8464a7.6223,7.6223,0,0,1-2.3581-.0919,1.9558,1.9558,0,0,1-.1459-.9239,10.0614,10.0614,0,0,1,2.403-.0722A4.687,4.687,0,0,1,134.9637,149.8464Z"/><path class="cls-27" d="M133.303,159.22c0,.32,1.6607-.0272,1.6607.2239v1.4391a26.0128,26.0128,0,0,0-3.2091,0c-.1122.1319.1266,2.3756-.1274,2.3756s-8.07-.1823-8.2249,0a18.72,18.72,0,0,0,.4307,4.1442c.1571.1847,6.3059-.2112,6.4854,0s.03,1.1645.2072,1.3726,3.8372.2044,3.9552.3432a1.6027,1.6027,0,0,1,.1573.607l-3.7322-.2111v1.32l4.3046-.29s.2489-11.1194.2489-11.644-2.2012-.5441-2.2012-.5441Z"/><path class="cls-26" d="M129.7686,167.8776c.1031.1214.23,3.3457.3029,3.4315s4.9258-.1452,5.0492,0a14.2349,14.2349,0,0,1,0,3.7219c-.2019,0-9.09-.264-9.09-.5807v-3.227l2.5541-.099a12.5224,12.5224,0,0,1-2.3057-.29c0-.1452.1037-2.0655.1037-2.1843s-4.7154.2178-4.7154,0-.101-.6533,0-.7721A77.1907,77.1907,0,0,1,129.7686,167.8776Z"/><path class="cls-26" d="M137.0643,155.709c0,.2376,8.2961,0,8.2961,0a4.5112,4.5112,0,0,0,0-1.267c-.1184-.1393-4.7025-.2639-4.8147-.3959s3.0856-.0924,3.1866-.2112a12.8166,12.8166,0,0,0-.0224-3.1411,36.1542,36.1542,0,0,0-5.8571,0,16.6509,16.6509,0,0,0-.4264,1.98s4.5555-.1056,4.5555.2111-.0926.7292-.1515.7292-3.0884.04-3.1389.099a3.5579,3.5579,0,0,0,.0337.7523s1.7335-.0594,1.7756-.01.2945.881.2945.881-3.731,0-3.731.0791Z"/><path class="cls-27" d="M137.0643,176.0493c0,.2376,8.2961,0,8.2961,0a4.5112,4.5112,0,0,0,0-1.267c-.1184-.1393-4.7025-.264-4.8147-.396s3.0856-.0924,3.1866-.2111a12.8175,12.8175,0,0,0-.0224-3.1412,36.177,36.177,0,0,0-5.8571,0,16.6551,16.6551,0,0,0-.4264,1.98s4.5555-.1056,4.5555.2112-.0926.7292-.1515.7292-3.0884.04-3.1389.099a3.5579,3.5579,0,0,0,.0337.7523s1.7335-.0594,1.7756-.01.2945.8809.2945.8809-3.731,0-3.731.0792Z"/><path class="cls-27" d="M145.2134,153.6335a38.2158,38.2158,0,0,0,5.498,0,12.4483,12.4483,0,0,0,.3554-2.944c-.1156-.136-3.901-.4347-3.901-.4347s2.67-.0264,2.67-.2376a9.58,9.58,0,0,0-.1519-2.402c-.2046-.2406-4.6953-.29-4.6953,0S145.2134,153.6335,145.2134,153.6335Z"/><path class="cls-27" d="M135.6279,162.5026a38.2158,38.2158,0,0,0,5.498,0,12.4484,12.4484,0,0,0,.3555-2.944c-.1157-.136-3.9012-.4347-3.9012-.4347s2.6705-.0264,2.6705-.2376.0527-.1387-.1519-.3793-4.616-.0619-4.616.2285S135.6279,162.5026,135.6279,162.5026Z"/><path class="cls-27" d="M143.5575,149.6775c-.1269.1493-7.1362.29-7.1362,0a28.2371,28.2371,0,0,1,.4488-3.5371c.1347-.1583,5.0492-.1319,5.2288-.3431a5.0893,5.0893,0,0,0,.2244-1.61,21.527,21.527,0,0,0-3.4335-.29s.2244-1.267.4264-1.267,6.5415.1451,6.665.29a3.6126,3.6126,0,0,1,0,1.4518c-.073.0858-3.0576.0594-3.1417.1584a3.0723,3.0723,0,0,0-.1011.8578c0,.0792,2.8052.0132,2.8725.0924s.1571,1.0823.0449,1.0823-4.8136.066-4.8136.1979,2.5744.0307,2.6368.104A15.012,15.012,0,0,1,143.5575,149.6775Z"/><path class="cls-27" d="M143.8638,188.3847c-.127.1188-7.1362.231-7.1362,0a18.1163,18.1163,0,0,1,.4488-2.8139c.1346-.126,5.0492-.105,5.2287-.273a3.2842,3.2842,0,0,0,.2244-1.2809,26.94,26.94,0,0,0-3.4334-.231s.2244-1.008.4263-1.008,6.5416.1156,6.665.231a2.3,2.3,0,0,1,0,1.155c-.0729.0682-3.0576.0472-3.1417.126a1.9719,1.9719,0,0,0-.101.6824c0,.0631,2.8051.0106,2.8724.0735s.1571.861.0449.861-4.8136.0525-4.8136.1575,2.5745.0244,2.6368.0828A9.5186,9.5186,0,0,1,143.8638,188.3847Z"/><path class="cls-26" d="M149.2226,162.4755a28.9091,28.9091,0,0,1-5.334,0,21.1065,21.1065,0,0,1,.3355-2.6438c.1007-.1183,3.7741-.0986,3.9082-.2564a3.8036,3.8036,0,0,0,.1678-1.2035,16.0826,16.0826,0,0,0-2.5664-.2171s.1678-.947.3187-.947,4.8895.1085,4.9818.217a2.7022,2.7022,0,0,1,0,1.0851c-.0546.0642-2.2854.0444-2.3483.1184a2.298,2.298,0,0,0-.0755.6412c0,.0593,2.0967.01,2.147.0691s.1174.8089.0336.8089-3.598.0494-3.598.148,1.9243.0229,1.9709.0777A11.2126,11.2126,0,0,1,149.2226,162.4755Z"/><path class="cls-26" d="M136.0845,157.7811c-.2155.2534,7.8834.2376,8.0854,0a2.0946,2.0946,0,0,0,0-1.399c-.1178-.1385-7.3719-.1716-7.5962-.1716S136.0845,157.7811,136.0845,157.7811Z"/><path class="cls-26" d="M141.6635,162.473c0,.198,1.6649,0,1.8163,0a7.0338,7.0338,0,0,0,.4088-2.3954,5.46,5.46,0,0,0-1.8562-.1728C141.9589,159.9912,141.6635,162.473,141.6635,162.473Z"/><path class="cls-26" d="M137.1013,179.24c0,.198,2.0945.1519,2.246.1519a8.2888,8.2888,0,0,0-.0208-2.5473,5.4659,5.4659,0,0,0-1.8563-.1728C137.3968,176.7579,137.1013,179.24,137.1013,179.24Z"/><path class="cls-27" d="M136.28,183.0262c0,.198,2.0944.1518,2.2459.1518a11.7431,11.7431,0,0,0,.699-3.089,17.4261,17.4261,0,0,0-3.3689-.0256C135.7821,180.15,136.28,183.0262,136.28,183.0262Z"/><path class="cls-26" d="M145.7071,156.7385a25.3068,25.3068,0,0,0,5.383,0,8.4746,8.4746,0,0,0-.087-1.597,22.5285,22.5285,0,0,0-2.6044-.2771s4.1473.1385,4.2651,0a1.4487,1.4487,0,0,0,0-.9371c-.09-.1056-6.9567.1848-6.9567.2772v1.1889a27.0743,27.0743,0,0,1,2.8612.1441c.09.1055-2.85-.0132-2.94.0923A2.5478,2.5478,0,0,0,145.7071,156.7385Z"/><path class="cls-27" d="M147.7941,159.3517a24.47,24.47,0,0,1-4.23,0,1.9558,1.9558,0,0,1-.1459-.9239,31.198,31.198,0,0,1,4.23,0A3.7767,3.7767,0,0,1,147.7941,159.3517Z"/><path class="cls-26" d="M141.2387,165.4624a39.0266,39.0266,0,0,1-5.35-.1584,10.48,10.48,0,0,1-.1178-2.2055,49.3342,49.3342,0,0,1,5.3185.008A21.0616,21.0616,0,0,1,141.2387,165.4624Z"/><path class="cls-26" d="M141.5449,166.937a24.47,24.47,0,0,1-4.23,0,1.9556,1.9556,0,0,1-.1459-.9238,31.198,31.198,0,0,1,4.23,0A3.7753,3.7753,0,0,1,141.5449,166.937Z"/><path class="cls-26" d="M140.6913,185.2124a24.47,24.47,0,0,1-4.23,0,1.9558,1.9558,0,0,1-.1459-.9239,31.2306,31.2306,0,0,1,4.23,0A3.7767,3.7767,0,0,1,140.6913,185.2124Z"/><path class="cls-26" d="M150.9843,146.9587a24.47,24.47,0,0,1-4.23,0,1.9542,1.9542,0,0,1-.1458-.9238,31.198,31.198,0,0,1,4.23,0A3.7794,3.7794,0,0,1,150.9843,146.9587Z"/><path class="cls-26" d="M153.2248,149.8464a7.6225,7.6225,0,0,1-2.3581-.0919,1.957,1.957,0,0,1-.1459-.9239,10.0617,10.0617,0,0,1,2.403-.0722A4.687,4.687,0,0,1,153.2248,149.8464Z"/><path class="cls-27" d="M151.5642,159.22c0,.32,1.6606-.0272,1.6606.2239v1.4391a26.0127,26.0127,0,0,0-3.2091,0c-.1121.1319.1266,2.3756-.1274,2.3756s-8.07-.1823-8.2248,0a18.7136,18.7136,0,0,0,.4306,4.1442c.1571.1847,6.3059-.2112,6.4854,0s.03,1.1645.2072,1.3726,3.8373.2044,3.9553.3432a1.6021,1.6021,0,0,1,.1572.607l-3.7322-.2111v1.32l4.3046-.29s.249-11.1194.249-11.644-2.2013-.5441-2.2013-.5441Z"/><path class="cls-26" d="M148.03,167.8776c.1032.1214.23,3.3457.303,3.4315s4.9258-.1452,5.0492,0a14.2392,14.2392,0,0,1,0,3.7219c-.202,0-9.09-.264-9.09-.5807v-3.227l2.5542-.099a12.5234,12.5234,0,0,1-2.3058-.29c0-.1452.1038-2.0655.1038-2.1843s-4.7154.2178-4.7154,0-.101-.6533,0-.7721A77.1888,77.1888,0,0,1,148.03,167.8776Z"/></g></g><polygon class="cls-28" points="73.274 170.708 77.145 184.014 80.513 186.344 91.514 185.612 102.928 186.135 118.004 188.172 119.703 189.248 58.2 191.22 73.274 170.708"/><polygon class="cls-29" points="38.916 191.199 58.861 191.199 54.657 169.743 38.916 191.199"/><polygon class="cls-30" points="58.861 191.199 69.861 191.199 54.657 169.743 58.861 191.199"/><polygon class="cls-10" points="41.737 187.354 63.358 182.101 70.178 190.962 38.916 191.199 41.737 187.354"/><polygon class="cls-10" points="38.916 191.199 70.178 190.962 68.247 188.922 40.472 189.078 38.916 191.199"/><ellipse class="cls-31" cx="93.7631" cy="189.5105" rx="0.7893" ry="0.9503"/><path class="cls-32" d="M93.4525,189.2381a.5289.5289,0,0,0,.043.65.34.34,0,0,0,.54-.0519.5288.5288,0,0,0-.0431-.65A.34.34,0,0,0,93.4525,189.2381Z"/><polygon class="cls-33" points="73.864 189.024 72.907 189.024 72.146 186.136 71.759 186.136 71.512 185.351 71.149 185.351 70.84 183.805 65.582 184 65.162 185.351 63.358 185.351 62.855 186.334 62.297 186.334 61.412 189.024 60.636 189.024 59.59 192.29 74.476 192.29 73.864 189.024"/><polygon class="cls-34" points="71.512 185.351 76.414 185.351 77.041 186.144 77.569 186.144 78.707 189.065 79.409 189.065 80.252 192.29 74.476 192.29 73.864 189.024 72.907 189.024 72.146 186.136 71.759 186.136 71.512 185.351"/><polygon class="cls-34" points="70.84 183.805 74.476 183.885 74.952 184.655 70.997 184.589 70.84 183.805"/><polygon class="cls-35" points="60.636 189.024 61.479 188.821 72.816 188.741 73.864 189.024 60.636 189.024"/><polygon class="cls-36" points="79.409 189.065 78.636 188.883 72.816 188.741 73.864 189.024 79.409 189.065"/><polygon class="cls-37" points="77.569 186.144 76.876 185.936 71.696 185.936 72.146 186.136 77.569 186.144"/><polygon class="cls-38" points="72.146 186.136 71.696 185.936 62.957 186.136 62.297 186.334 72.146 186.136"/><polygon class="cls-39" points="63.358 185.351 65.352 184.753 71.049 184.589 71.512 185.351 63.358 185.351"/><polygon class="cls-40" points="76.414 185.351 74.952 184.655 71.049 184.589 71.512 185.351 76.414 185.351"/><polygon class="cls-41" points="78.566 191.535 81.224 185.47 89.398 184.326 91.329 187.055 98.262 187.055 99.472 187.694 105.989 187.811 108.756 191.991 111.089 191.991 112.605 193.155 74.926 193.155 76.277 191.991 78.566 191.535"/><polygon class="cls-42" points="89.398 184.326 86.628 185.572 81.224 185.47 81.224 185.47 89.398 184.326"/><polygon class="cls-42" points="91.329 187.055 90.039 188.047 96.312 188.047 98.262 187.055 91.329 187.055"/><polygon class="cls-42" points="99.472 187.694 97.606 188.832 100.727 188.982 105.581 188.338 105.989 187.811 99.472 187.694"/><polygon class="cls-42" points="108.756 191.991 107.32 192.29 110.289 192.538 111.089 191.991 108.756 191.991"/><polygon class="cls-42" points="87.308 189.953 90.185 190.301 93.87 190.301 89.085 191.199 87.308 189.953"/><polygon class="cls-42" points="78.566 191.535 76.277 191.991 80.873 192.29 78.566 191.535"/><polygon class="cls-42" points="96.882 191.199 101.956 191.574 98.719 192.178 96.882 191.199"/><polygon class="cls-21" points="76.277 191.991 78.423 192.131 78.423 193.155 74.926 193.155 76.277 191.991"/><polygon class="cls-21" points="81.224 193.155 80.873 192.29 78.566 191.535 81.224 185.47 86.628 185.572 87.308 189.953 89.085 191.199 89.085 193.155 81.224 193.155"/><polygon class="cls-21" points="90.039 188.047 90.039 190.284 93.87 190.301 94.378 193.155 96.57 193.155 98.719 193.155 98.719 192.178 96.882 191.199 101.956 191.574 103.095 193.155 110.311 193.155 110.289 192.538 107.32 192.29 105.581 188.338 100.727 188.982 97.606 188.832 96.312 188.047 90.039 188.047"/><polygon class="cls-43" points="112.605 193.155 111.089 191.991 108.756 191.991 105.989 187.811 99.472 187.694 98.262 187.055 91.329 187.055 89.398 184.326 81.224 185.47 89.232 184.509 91.129 187.209 98.262 187.176 99.354 187.766 105.892 187.946 108.5 192.045 111.089 192.178 112.605 193.155"/><polygon class="cls-44" points="178.623 187.053 176.455 182.107 169.788 181.174 168.214 183.4 162.559 183.4 161.572 183.921 156.258 184.017 154.001 187.426 152.098 187.426 150.862 188.375 181.592 188.375 180.49 187.426 178.623 187.053"/><polygon class="cls-42" points="169.788 181.174 172.047 182.191 176.455 182.107 176.455 182.107 169.788 181.174"/><polygon class="cls-42" points="168.214 183.4 169.266 184.209 164.15 184.209 162.559 183.4 168.214 183.4"/><polygon class="cls-42" points="161.572 183.921 163.094 184.849 160.549 184.971 156.591 184.446 156.258 184.017 161.572 183.921"/><polygon class="cls-42" points="154.001 187.426 155.172 187.669 152.751 187.871 152.098 187.426 154.001 187.426"/><polygon class="cls-42" points="171.493 185.763 169.146 186.047 166.141 186.047 170.044 186.779 171.493 185.763"/><polygon class="cls-42" points="178.623 187.053 180.49 187.426 176.741 187.669 178.623 187.053"/><polygon class="cls-42" points="163.685 186.779 159.547 187.085 162.187 187.578 163.685 186.779"/><polygon class="cls-21" points="180.49 187.426 178.739 187.539 178.739 188.375 181.592 188.375 180.49 187.426"/><polygon class="cls-21" points="176.455 188.375 176.741 187.669 178.623 187.053 176.455 182.107 172.047 182.191 171.493 185.763 170.044 186.779 170.044 188.375 176.455 188.375"/><polygon class="cls-21" points="169.266 184.209 169.266 186.033 166.141 186.047 165.727 188.375 163.939 188.375 162.187 188.375 162.187 187.578 163.685 186.779 159.547 187.085 158.618 188.375 152.732 188.375 152.751 187.871 155.172 187.669 156.591 184.446 160.549 184.971 163.094 184.849 164.15 184.209 169.266 184.209"/><polygon class="cls-19" points="150.862 188.375 152.098 187.426 154.001 187.426 156.258 184.017 161.572 183.921 162.559 183.4 168.214 183.4 169.788 181.174 176.455 182.107 169.924 181.324 168.377 183.525 162.559 183.499 161.669 183.98 156.336 184.126 154.21 187.469 152.098 187.578 150.862 188.375"/><polygon class="cls-45" points="140.204 189.953 142.351 181.171 146.438 181.149 146.407 189.953 140.204 189.953"/><polygon class="cls-46" points="152.19 189.953 146.407 189.953 146.141 181.153 149.362 181.116 152.19 189.953"/><polygon class="cls-47" points="142.705 181.174 143.26 178.598 146.576 178.598 146.843 181.156 142.705 181.174"/><polygon class="cls-48" points="146.576 178.598 148.044 178.598 148.963 181.116 146.576 181.161 146.576 178.598"/><polygon class="cls-49" points="139.396 189.953 140.204 187.549 152.19 187.549 153.036 189.953 139.396 189.953"/><polygon class="cls-50" points="145.969 187.549 145.844 189.953 153.036 189.953 152.19 187.549 145.969 187.549"/><polygon class="cls-19" points="139.396 189.953 140.204 187.549 145.969 187.549 140.204 187.399 139.396 189.953"/><polygon class="cls-19" points="146.141 181.153 142.351 181.171 140.829 187.399 142.465 181.378 146.141 181.153"/><polygon class="cls-19" points="146.576 178.598 143.26 178.598 142.779 180.827 143.321 178.772 146.576 178.598"/><polygon class="cls-10" points="141.924 182.919 146.237 182.919 149.996 183.098 150.664 185.185 141.444 184.882 141.924 182.919"/><polygon class="cls-10" points="146.321 186.728 151.197 186.85 151.422 187.552 146.334 187.549 146.321 186.728"/><polygon class="cls-51" points="89.556 148.514 89.178 149.03 93.093 149.03 94.372 150.325 100.53 150.912 103.157 153.86 108.924 152.011 111.778 151.882 111.505 151.496 93.272 148.514 89.556 148.514"/><polygon class="cls-52" points="89.556 148.514 93.272 148.514 94.461 149.739 100.831 150.472 103.324 153.331 108.924 151.496 111.505 151.496 99.646 134.761 89.556 148.514"/><polygon class="cls-53" points="103.324 153.331 99.646 134.761 111.505 151.496 108.924 151.496 103.324 153.331"/><polygon class="cls-54" points="72.146 186.136 72.816 188.741 73.536 189.024 74.037 189.949 73.935 189.024 73.033 188.741 72.337 186.144 72.146 186.136"/><polygon class="cls-55" points="86.428 185.572 86.856 185.47 86.716 186.135 86.428 185.572"/><polygon class="cls-55" points="88.885 191.059 89.225 191.173 89.055 191.393 88.885 191.059"/><polygon class="cls-55" points="98.369 191.991 98.94 192.137 98.758 192.355 98.369 191.991"/><polygon class="cls-55" points="105.327 188.371 105.829 188.903 105.581 188.338 105.327 188.371"/><polygon class="cls-56" points="19.388 189.1 20.303 189.33 19.728 189.831 19.388 189.1"/><polygon class="cls-56" points="28.864 185.875 29.818 186.344 29.704 185.927 28.864 185.875"/><polygon class="cls-56" points="15.998 184.945 16.577 184.897 16.467 185.212 15.998 184.945"/><polygon class="cls-26" points="74.646 196.987 76.336 197.918 90.705 197.918 91.514 196.987 74.646 196.987"/><ellipse class="cls-57" cx="117.281" cy="193.0492" rx="5.0837" ry="0.1764"/><path class="cls-58" d="M119.7107,193.0693l-6.14-.0453.4573-.2511h.0023c.7932-.4326,2.3586-1.8725,2.6315-1.8725a4.56,4.56,0,0,1,1.0615.46A9.3535,9.3535,0,0,1,119.7107,193.0693Z"/><path class="cls-59" d="M117.7231,191.36a5.333,5.333,0,0,1-.7722,1.0194c-.1913.0877-2.8135.3812-2.9208.3933.7932-.4326,2.3586-1.8725,2.6315-1.8725A4.56,4.56,0,0,1,117.7231,191.36Z"/></g></g></svg>