<svg xmlns="http://www.w3.org/2000/svg" xmlns:xlink="http://www.w3.org/1999/xlink" width="183.88" height="210.86" viewBox="0 0 183.88 210.86"><defs><style>.cls-1{fill:none;}.cls-2{isolation:isolate;}.cls-3{fill:#f3f3f3;}.cls-4{fill:#ccc;}.cls-5{fill:#010101;}.cls-6{fill:url(#Áåçûìÿííûé_ãðàäèåíò_185);}.cls-7{fill:url(#Áåçûìÿííûé_ãðàäèåíò_163);}.cls-25,.cls-8{opacity:0.5;}.cls-10,.cls-11,.cls-15,.cls-19,.cls-30,.cls-8{mix-blend-mode:color-dodge;}.cls-8{fill:url(#Áåçûìÿííûé_ãðàäèåíò_363);}.cls-14,.cls-50,.cls-9{fill:#c94c9c;}.cls-9{opacity:0.13;}.cls-14,.cls-20,.cls-27,.cls-50,.cls-56,.cls-9{mix-blend-mode:multiply;}.cls-10,.cls-11,.cls-15,.cls-19,.cls-26,.cls-27,.cls-56{opacity:0.2;}.cls-10{fill:url(#Áåçûìÿííûé_ãðàäèåíò_363-2);}.cls-11{fill:url(#Áåçûìÿííûé_ãðàäèåíò_363-3);}.cls-12{fill:url(#Áåçûìÿííûé_ãðàäèåíò_106);}.cls-13{fill:url(#Áåçûìÿííûé_ãðàäèåíò_163-2);}.cls-14{opacity:0.06;}.cls-15{fill:url(#Áåçûìÿííûé_ãðàäèåíò_363-4);}.cls-16{fill:url(#Áåçûìÿííûé_ãðàäèåíò_378);}.cls-17,.cls-41{opacity:0.76;}.cls-17,.cls-18,.cls-25,.cls-26,.cls-41,.cls-58{mix-blend-mode:soft-light;}.cls-18,.cls-25,.cls-26,.cls-31,.cls-41{fill:#fff;}.cls-19{fill:url(#Áåçûìÿííûé_ãðàäèåíò_363-5);}.cls-20{fill:#d97762;opacity:0.3;}.cls-21{fill:url(#Áåçûìÿííûé_ãðàäèåíò_172);}.cls-22{fill:url(#Áåçûìÿííûé_ãðàäèåíò_163-3);}.cls-23{clip-path:url(#clip-path);}.cls-24{opacity:0.41;}.cls-27{fill:#cd495a;}.cls-28{fill:url(#Áåçûìÿííûé_ãðàäèåíò_172-2);}.cls-29{fill:url(#Áåçûìÿííûé_ãðàäèåíò_163-4);}.cls-30{fill:url(#Áåçûìÿííûé_ãðàäèåíò_275);}.cls-32{fill:url(#Áåçûìÿííûé_ãðàäèåíò_106-2);}.cls-33{fill:#db5626;}.cls-34{fill:url(#Áåçûìÿííûé_ãðàäèåíò_258);}.cls-35{fill:url(#Áåçûìÿííûé_ãðàäèåíò_36);}.cls-36{fill:url(#Áåçûìÿííûé_ãðàäèåíò_36-2);}.cls-37{fill:url(#Áåçûìÿííûé_ãðàäèåíò_258-2);}.cls-38{fill:url(#Áåçûìÿííûé_ãðàäèåíò_258-3);}.cls-39{fill:url(#Áåçûìÿííûé_ãðàäèåíò_36-3);}.cls-40{fill:url(#Áåçûìÿííûé_ãðàäèåíò_36-4);}.cls-42{fill:url(#Áåçûìÿííûé_ãðàäèåíò_263);}.cls-43{fill:url(#Áåçûìÿííûé_ãðàäèåíò_36-5);}.cls-44{fill:url(#Áåçûìÿííûé_ãðàäèåíò_106-3);}.cls-45{fill:url(#Áåçûìÿííûé_ãðàäèåíò_163-5);}.cls-46{fill:url(#Áåçûìÿííûé_ãðàäèåíò_106-4);}.cls-47{fill:url(#Áåçûìÿííûé_ãðàäèåíò_163-6);}.cls-48{fill:url(#Áåçûìÿííûé_ãðàäèåíò_106-5);}.cls-49{fill:url(#Áåçûìÿííûé_ãðàäèåíò_163-7);}.cls-50{opacity:0.24;}.cls-51{fill:url(#Áåçûìÿííûé_ãðàäèåíò_285);}.cls-52{fill:url(#Áåçûìÿííûé_ãðàäèåíò_276);}.cls-53{fill:#fec767;}.cls-54{fill:#fcb451;}.cls-55{fill:#f79146;}.cls-56{fill:#6d2266;}.cls-57{fill:url(#Áåçûìÿííûé_ãðàäèåíò_92);}.cls-58{fill:#fdec7f;opacity:0.57;}</style><linearGradient id="Áåçûìÿííûé_ãðàäèåíò_185" x1="53.75" y1="189.58" x2="53.75" y2="138.82" gradientUnits="userSpaceOnUse"><stop offset="0" stop-color="#f47c38"/><stop offset="1" stop-color="#fdb83a"/></linearGradient><linearGradient id="Áåçûìÿííûé_ãðàäèåíò_163" x1="85.11" y1="189.25" x2="85.11" y2="138.82" gradientUnits="userSpaceOnUse"><stop offset="0" stop-color="#d05027"/><stop offset="1" stop-color="#ef7422"/></linearGradient><linearGradient id="Áåçûìÿííûé_ãðàäèåíò_363" x1="73.66" y1="170.96" x2="79.17" y2="170.96" gradientUnits="userSpaceOnUse"><stop offset="0" stop-color="#5b75b9"/><stop offset="1" stop-color="#8bd4e2"/></linearGradient><linearGradient id="Áåçûìÿííûé_ãðàäèåíò_363-2" x1="84.69" y1="185.23" x2="100.49" y2="185.23" xlink:href="#Áåçûìÿííûé_ãðàäèåíò_363"/><linearGradient id="Áåçûìÿííûé_ãðàäèåíò_363-3" x1="42.03" y1="184.92" x2="53.98" y2="184.92" xlink:href="#Áåçûìÿííûé_ãðàäèåíò_363"/><linearGradient id="Áåçûìÿííûé_ãðàäèåíò_106" x1="84.87" y1="189.58" x2="84.87" y2="134.76" gradientUnits="userSpaceOnUse"><stop offset="0" stop-color="#f68f50"/><stop offset="1" stop-color="#fdb84a"/></linearGradient><linearGradient id="Áåçûìÿííûé_ãðàäèåíò_163-2" x1="118.74" y1="189.22" x2="118.74" y2="134.76" xlink:href="#Áåçûìÿííûé_ãðàäèåíò_163"/><linearGradient id="Áåçûìÿííûé_ãðàäèåíò_363-4" x1="118.28" y1="184.88" x2="135.35" y2="184.88" xlink:href="#Áåçûìÿííûé_ãðàäèåíò_363"/><linearGradient id="Áåçûìÿííûé_ãðàäèåíò_378" x1="24.43" y1="191.3" x2="24.43" y2="180.97" gradientUnits="userSpaceOnUse"><stop offset="0" stop-color="#f78e2f"/><stop offset="1" stop-color="#cd5328"/></linearGradient><linearGradient id="Áåçûìÿííûé_ãðàäèåíò_363-5" x1="26.21" y1="186.19" x2="47.42" y2="186.19" xlink:href="#Áåçûìÿííûé_ãðàäèåíò_363"/><linearGradient id="Áåçûìÿííûé_ãðàäèåíò_172" x1="115.03" y1="189.16" x2="115.03" y2="158.24" gradientUnits="userSpaceOnUse"><stop offset="0" stop-color="#faab53"/><stop offset="1" stop-color="#fdba2d"/></linearGradient><linearGradient id="Áåçûìÿííûé_ãðàäèåíò_163-3" x1="134.3" y1="189.16" x2="134.3" y2="158.24" xlink:href="#Áåçûìÿííûé_ãðàäèåíò_163"/><clipPath id="clip-path"><polygon class="cls-1" points="180.49 187.5 178.62 187.13 176.46 182.18 169.79 181.25 168.21 183.47 162.56 183.47 161.57 184 156.26 184.09 154 187.5 152.1 187.5 151.94 187.62 151.42 187.62 151.22 187 151.2 186.92 151.2 186.92 150.66 185.26 150.66 185.26 150.38 184.38 149.36 181.19 148.36 181.2 148.96 181.19 148.04 178.67 146.58 178.67 143.26 178.67 142.78 180.9 142.78 180.9 142.71 181.24 142.35 181.25 141.65 184.1 141.25 183.52 141.21 183.52 123.35 158.31 119.75 163.21 99.65 134.84 89.56 148.59 89.18 149.1 89.18 149.1 87.37 151.57 87.37 151.57 81.8 159.17 67.43 138.89 51.56 160.52 51.56 160.52 50.36 162.16 50.36 162.16 39.62 176.79 39.62 176.79 35 183.09 35 183.09 34.23 184.15 31.83 182.85 30.95 181.26 26.3 181.05 23.5 182.31 21.99 182.31 13.35 185.08 11.35 188.27 2.6 190.25 1.44 191.17 24.2 191.27 24.2 191.28 42.6 191.35 42.6 191.35 47.42 191.38 47.32 191.27 58.86 191.27 59.94 191.27 59.59 192.36 74.48 192.36 74.48 192.36 75.93 192.36 74.93 193.23 78.42 193.23 81.22 193.23 89.08 193.23 94.38 193.23 96.57 193.23 98.72 193.23 103.09 193.23 110.31 193.23 112.61 193.23 111.09 192.07 108.76 192.07 107.22 189.75 139.62 189.31 139.4 190.03 140.2 190.03 145.84 190.03 146.41 190.03 152.19 190.03 153.04 190.03 152.48 188.45 152.73 188.45 158.62 188.45 162.19 188.45 163.94 188.45 165.73 188.45 170.04 188.45 176.46 188.45 178.74 188.45 181.59 188.45 180.49 187.5"/></clipPath><linearGradient id="Áåçûìÿííûé_ãðàäèåíò_172-2" x1="48.89" y1="191.2" x2="48.89" y2="169.74" xlink:href="#Áåçûìÿííûé_ãðàäèåíò_172"/><linearGradient id="Áåçûìÿííûé_ãðàäèåíò_163-4" x1="62.26" y1="191.2" x2="62.26" y2="169.74" xlink:href="#Áåçûìÿííûé_ãðàäèåíò_163"/><radialGradient id="Áåçûìÿííûé_ãðàäèåíò_275" cx="-396.01" cy="-151.51" r="2.16" gradientTransform="matrix(-0.28, -0.29, -0.24, 0.33, -52.28, 127.25)" gradientUnits="userSpaceOnUse"><stop offset="0" stop-color="#6bcce1"/><stop offset="0.19" stop-color="#4f97a6"/><stop offset="0.4" stop-color="#34626c"/><stop offset="0.59" stop-color="#1e383e"/><stop offset="0.76" stop-color="#0e1a1d"/><stop offset="0.9" stop-color="#040808"/><stop offset="1" stop-color="#010101"/></radialGradient><linearGradient id="Áåçûìÿííûé_ãðàäèåíò_106-2" x1="67.03" y1="192.29" x2="67.03" y2="183.8" xlink:href="#Áåçûìÿííûé_ãðàäèåíò_106"/><linearGradient id="Áåçûìÿííûé_ãðàäèåíò_258" x1="60.64" y1="188.88" x2="73.86" y2="188.88" gradientUnits="userSpaceOnUse"><stop offset="0" stop-color="#fde977"/><stop offset="1" stop-color="#faab53"/></linearGradient><linearGradient id="Áåçûìÿííûé_ãðàäèåíò_36" x1="72.82" y1="188.9" x2="79.41" y2="188.9" gradientUnits="userSpaceOnUse"><stop offset="0" stop-color="#f58029"/><stop offset="1" stop-color="#cf6549"/></linearGradient><linearGradient id="Áåçûìÿííûé_ãðàäèåíò_36-2" x1="71.7" y1="186.04" x2="77.57" y2="186.04" xlink:href="#Áåçûìÿííûé_ãðàäèåíò_36"/><linearGradient id="Áåçûìÿííûé_ãðàäèåíò_258-2" x1="62.3" y1="186.14" x2="72.15" y2="186.14" xlink:href="#Áåçûìÿííûé_ãðàäèåíò_258"/><linearGradient id="Áåçûìÿííûé_ãðàäèåíò_258-3" x1="63.36" y1="184.97" x2="71.51" y2="184.97" xlink:href="#Áåçûìÿííûé_ãðàäèåíò_258"/><linearGradient id="Áåçûìÿííûé_ãðàäèåíò_36-3" x1="71.05" y1="184.97" x2="76.41" y2="184.97" xlink:href="#Áåçûìÿííûé_ãðàäèåíò_36"/><linearGradient id="Áåçûìÿííûé_ãðàäèåíò_36-4" x1="93.77" y1="193.16" x2="93.77" y2="184.33" xlink:href="#Áåçûìÿííûé_ãðàäèåíò_36"/><linearGradient id="Áåçûìÿííûé_ãðàäèåíò_263" x1="81.22" y1="188.74" x2="112.6" y2="188.74" gradientUnits="userSpaceOnUse"><stop offset="0" stop-color="#fdb84a"/><stop offset="1" stop-color="#e99c4b"/></linearGradient><linearGradient id="Áåçûìÿííûé_ãðàäèåíò_36-5" x1="457.03" y1="188.38" x2="457.03" y2="181.17" gradientTransform="matrix(-1, 0, 0, 1, 623.26, 0)" xlink:href="#Áåçûìÿííûé_ãðàäèåíò_36"/><linearGradient id="Áåçûìÿííûé_ãðàäèåíò_106-3" x1="140.2" y1="185.55" x2="146.44" y2="185.55" xlink:href="#Áåçûìÿííûé_ãðàäèåíò_106"/><linearGradient id="Áåçûìÿííûé_ãðàäèåíò_163-5" x1="146.14" y1="185.53" x2="152.19" y2="185.53" xlink:href="#Áåçûìÿííûé_ãðàäèåíò_163"/><linearGradient id="Áåçûìÿííûé_ãðàäèåíò_106-4" x1="142.7" y1="179.89" x2="146.84" y2="179.89" xlink:href="#Áåçûìÿííûé_ãðàäèåíò_106"/><linearGradient id="Áåçûìÿííûé_ãðàäèåíò_163-6" x1="146.58" y1="179.88" x2="148.96" y2="179.88" xlink:href="#Áåçûìÿííûé_ãðàäèåíò_163"/><linearGradient id="Áåçûìÿííûé_ãðàäèåíò_106-5" x1="139.4" y1="188.75" x2="153.04" y2="188.75" xlink:href="#Áåçûìÿííûé_ãðàäèåíò_106"/><linearGradient id="Áåçûìÿííûé_ãðàäèåíò_163-7" x1="145.84" y1="188.75" x2="153.04" y2="188.75" xlink:href="#Áåçûìÿííûé_ãðàäèåíò_163"/><linearGradient id="Áåçûìÿííûé_ãðàäèåíò_285" x1="100.53" y1="153.33" x2="100.53" y2="134.76" gradientUnits="userSpaceOnUse"><stop offset="0" stop-color="#fcb553"/><stop offset="1" stop-color="#fdba2d"/></linearGradient><linearGradient id="Áåçûìÿííûé_ãðàäèåíò_276" x1="105.58" y1="153.33" x2="105.58" y2="134.76" gradientUnits="userSpaceOnUse"><stop offset="0" stop-color="#f07648"/><stop offset="1" stop-color="#f58029"/></linearGradient><linearGradient id="Áåçûìÿííûé_ãðàäèåíò_92" x1="113.57" y1="191.98" x2="119.71" y2="191.98" gradientUnits="userSpaceOnUse"><stop offset="0" stop-color="#ba4d27"/><stop offset="1" stop-color="#9d1c27"/></linearGradient></defs><title>history</title><g class="cls-2"><g id="Layer_1" data-name="Layer 1"><rect class="cls-1" width="183.88" height="210.86"/><rect class="cls-3" x="75.72" y="46.88" width="99.6" height="136.41" rx="4"/><rect class="cls-4" x="86.24" y="132.01" width="69.03" height="4.01" rx="1.88"/><rect class="cls-4" x="85.59" y="91.16" width="69.03" height="4.01" rx="1.88"/><path class="cls-5" d="M114.25,71.05h-.94V67.43h-3.57v3.62h-.94V63.21h.94v3.37h3.57V63.21h.94Z"/><path class="cls-5" d="M116.91,71.05H116V63.21h.94Z"/><path class="cls-5" d="M120.7,67.56a4.37,4.37,0,0,1-1.75-.94,1.9,1.9,0,0,1-.54-1.38,2,2,0,0,1,.67-1.53,2.48,2.48,0,0,1,1.73-.6,2.67,2.67,0,0,1,1.31.31,2.21,2.21,0,0,1,.88.86,2.4,2.4,0,0,1,.32,1.2h-.94a1.53,1.53,0,0,0-.41-1.12,1.58,1.58,0,0,0-1.16-.41,1.55,1.55,0,0,0-1.07.34,1.17,1.17,0,0,0-.39.94,1,1,0,0,0,.37.81,3.37,3.37,0,0,0,1.25.6,5.68,5.68,0,0,1,1.38.61,2.25,2.25,0,0,1,.74.77,2.16,2.16,0,0,1,.24,1,1.9,1.9,0,0,1-.67,1.53,2.7,2.7,0,0,1-1.8.57,3,3,0,0,1-1.36-.31,2.3,2.3,0,0,1-1-.85,2.18,2.18,0,0,1-.35-1.22h.94a1.38,1.38,0,0,0,.48,1.12,1.83,1.83,0,0,0,1.26.42A1.69,1.69,0,0,0,122,70a1.27,1.27,0,0,0,0-1.8A4,4,0,0,0,120.7,67.56Z"/><path class="cls-5" d="M129.42,64.06h-2.28v7h-.92v-7h-2.28v-.85h5.48Z"/><path class="cls-5" d="M135.78,67.39a5.16,5.16,0,0,1-.35,2,2.84,2.84,0,0,1-1,1.31,2.56,2.56,0,0,1-1.5.45,2.52,2.52,0,0,1-1.48-.45,3,3,0,0,1-1-1.3,5.1,5.1,0,0,1-.36-2v-.57a5.41,5.41,0,0,1,.35-2,2.91,2.91,0,0,1,1-1.32,2.48,2.48,0,0,1,1.48-.46,2.56,2.56,0,0,1,1.5.45,2.77,2.77,0,0,1,1,1.32,5.23,5.23,0,0,1,.35,2Zm-.93-.51a3.78,3.78,0,0,0-.5-2.14,1.61,1.61,0,0,0-1.42-.74,1.58,1.58,0,0,0-1.39.74,3.72,3.72,0,0,0-.52,2.07v.58a3.8,3.8,0,0,0,.51,2.12,1.69,1.69,0,0,0,2.81,0,3.68,3.68,0,0,0,.51-2.09Z"/><path class="cls-5" d="M139.78,67.88h-1.66v3.17h-.94V63.21h2.34a2.63,2.63,0,0,1,1.85.61,2.6,2.6,0,0,1,.28,3,2.15,2.15,0,0,1-1,.81L142.32,71v.06h-1ZM138.12,67h1.43a1.54,1.54,0,0,0,1.11-.4,1.44,1.44,0,0,0,.41-1.07,1.51,1.51,0,0,0-.39-1.12,1.54,1.54,0,0,0-1.13-.39h-1.43Z"/><path class="cls-5" d="M145.25,67.15l1.84-3.94h1.06l-2.44,4.92v2.92h-.93V68.13l-2.44-4.92h1.07Z"/><rect class="cls-4" x="84.97" y="111.96" width="69.03" height="4.01" rx="1.88"/><polygon class="cls-6" points="30.19 189.58 67.43 138.82 77.31 189.25 30.19 189.58"/><polygon class="cls-7" points="67.43 138.82 102.8 188.73 77.31 189.25 67.43 138.82"/><polygon class="cls-8" points="73.66 170.53 73.82 171.4 79.17 171.4 78.77 170.53 73.66 170.53"/><polygon class="cls-9" points="82.76 160.45 51.56 160.44 50.36 162.09 83.97 162.17 82.76 160.45"/><polygon class="cls-9" points="93.36 182.23 37.06 180.21 30.19 189.58 97.61 188.83 93.36 182.23"/><polygon class="cls-10" points="100.21 184.99 84.69 184.99 84.88 185.47 100.49 185.47 100.21 184.99"/><polygon class="cls-9" points="39.62 176.72 94.81 174.85 100.49 185.47 35 183.01 39.62 176.72"/><polygon class="cls-11" points="42.03 185.05 42.41 184.7 53.98 184.8 53.98 185.14 42.03 185.05"/><polygon class="cls-12" points="59.43 189.58 99.65 134.76 110.32 189.22 59.43 189.58"/><polygon class="cls-13" points="99.65 134.76 137.84 188.66 110.32 189.22 99.65 134.76"/><polygon class="cls-14" points="87.37 151.5 111.5 151.5 117.37 159.78 80.8 160.44 87.37 151.5"/><polygon class="cls-9" points="129.05 176.26 69.2 176.26 58.66 190.37 136.07 188.44 129.05 176.26"/><polygon class="cls-15" points="135.04 184.62 118.28 184.62 118.49 185.14 135.34 185.14 135.04 184.62"/><polygon class="cls-16" points="1.44 191.1 2.6 190.17 11.35 188.2 13.35 185 21.99 182.23 23.5 182.23 26.3 180.97 30.95 181.19 31.83 182.78 37.94 186.08 38.67 188.58 45.11 188.95 47.42 191.3 1.44 191.1"/><g class="cls-17"><polygon class="cls-18" points="31.83 182.78 29.78 183.95 21.7 185.77 37.94 186.08 31.83 182.78"/><polygon class="cls-18" points="30.95 181.19 27.22 181.79 26.3 180.97 30.95 181.19"/><polygon class="cls-18" points="38.67 188.58 35.61 189.33 25.13 190.17 42.35 190.17 45.11 188.95 38.67 188.58"/><polygon class="cls-18" points="16.86 187.95 20.15 188.35 23.75 188.35 19.89 189.33 16.86 187.95"/><polygon class="cls-18" points="21.99 182.23 23.5 183.11 24.46 183.11 23.5 182.23 21.99 182.23"/><polygon class="cls-18" points="2.6 190.17 10.02 189.66 13.16 189.38 11.35 188.2 2.6 190.17"/></g><polygon class="cls-19" points="47.42 191.3 45.11 188.95 38.67 188.58 37.94 186.08 31.83 182.78 30.95 181.19 26.21 181.09 30.71 181.39 31.69 182.86 37.62 186.08 38.4 188.65 44.92 189.03 47.42 191.3"/><polygon class="cls-20" points="2.6 190.17 1.44 191.1 19.34 191.02 19.89 189.33 16.86 187.95 16.43 184.94 13.35 185 11.35 188.2 13.16 189.38 2.6 190.17"/><polygon class="cls-20" points="23.5 183.11 19.13 184.43 20.15 188.35 23.75 188.35 24.2 191.2 42.6 191.28 42.35 190.17 25.13 190.17 35.61 189.33 29.3 185.92 21.7 185.77 29.78 183.95 27.22 181.79 24.46 183.11 23.5 183.11"/><polygon class="cls-21" points="100.66 189.16 129.41 189.16 123.35 158.24 100.66 189.16"/><polygon class="cls-22" points="129.41 189.16 145.26 189.16 123.35 158.24 129.41 189.16"/><polygon class="cls-14" points="100.22 189.76 145.26 189.16 135.04 175.06 111.72 174.08 100.22 189.76"/><polygon class="cls-9" points="104.73 183.62 141.25 183.45 145.26 189.16 100.22 189.76 104.73 183.62"/><g class="cls-23"><g class="cls-24"><path class="cls-25" d="M65.62,153.49c0,.23,8.3,0,8.3,0a4.47,4.47,0,0,0,0-1.27c-.12-.14-4.71-.27-4.82-.4s3.09-.09,3.19-.21a13.21,13.21,0,0,0,0-3.14,37,37,0,0,0-5.86,0,17.09,17.09,0,0,0-.43,2s4.56-.11,4.56.21-.09.73-.15.73-3.09,0-3.14.1a3.58,3.58,0,0,0,0,.75s1.74-.06,1.78,0,.29.88.29.88-3.73,0-3.73.08Z"/><path class="cls-25" d="M67.78,179.68c0,.24,8.3,0,8.3,0a4.41,4.41,0,0,0,0-1.26c-.12-.14-4.7-.27-4.82-.4s3.09-.09,3.19-.21a13.21,13.21,0,0,0,0-3.14,35.83,35.83,0,0,0-5.86,0,17.09,17.09,0,0,0-.43,2s4.56-.11,4.56.21-.09.73-.15.73-3.09,0-3.14.1a3.58,3.58,0,0,0,0,.75s1.74-.06,1.78,0,.29.88.29.88-3.73,0-3.73.08Z"/><path class="cls-26" d="M65.62,173.83c0,.23,8.3,0,8.3,0a4.47,4.47,0,0,0,0-1.27c-.12-.14-4.71-.27-4.82-.4s3.09-.09,3.19-.21a13.21,13.21,0,0,0,0-3.14,37,37,0,0,0-5.86,0,17.09,17.09,0,0,0-.43,2s4.56-.11,4.56.21-.09.73-.15.73-3.09,0-3.14.1a3.58,3.58,0,0,0,0,.75s1.74-.06,1.78,0,.29.88.29.88-3.73,0-3.73.08Z"/><path class="cls-26" d="M73.77,151.41a37.4,37.4,0,0,0,5.5,0,12.43,12.43,0,0,0,.35-2.94c-.11-.14-3.9-.44-3.9-.44s2.67,0,2.67-.24a9.32,9.32,0,0,0-.15-2.4c-.2-.24-4.69-.29-4.69,0S73.77,151.41,73.77,151.41Z"/><path class="cls-26" d="M81.87,178.63a35,35,0,0,0-4.8,0,10.81,10.81,0,0,0-.31,2.57c.1.12,3.4.38,3.4.38a9.68,9.68,0,0,0-2.33.21,8.27,8.27,0,0,0,.14,2.09c.17.21,4.09.26,4.09,0S81.87,178.63,81.87,178.63Z"/><path class="cls-26" d="M64.19,160.28a38.69,38.69,0,0,0,5.49,0,12.44,12.44,0,0,0,.36-2.94c-.12-.14-3.9-.44-3.9-.44s2.67,0,2.67-.24,0-.14-.15-.38-4.62-.06-4.62.23S64.19,160.28,64.19,160.28Z"/><path class="cls-25" d="M79,177.77a38.83,38.83,0,0,0,5.5,0,12.45,12.45,0,0,0,.35-3c-.11-.13-3.9-.43-3.9-.43s2.67,0,2.67-.24.06-.14-.15-.38-4.61-.06-4.61.23S79,177.77,79,177.77Z"/><path class="cls-26" d="M72.42,186.16c-.13.12-7.14.23-7.14,0a18.54,18.54,0,0,1,.45-2.81c.14-.13,5-.11,5.23-.28s.23-1.13.23-1.28a28.39,28.39,0,0,0-3.44-.23s.23-1,.43-1,6.54.12,6.66.24a2.14,2.14,0,0,1,0,1.15c-.07.07-3,.05-3.14.13a2.08,2.08,0,0,0-.1.68c0,.06,2.81,0,2.87.07s.16.86,0,.86-4.81.06-4.81.16,2.57,0,2.63.08A9.81,9.81,0,0,1,72.42,186.16Z"/><path class="cls-25" d="M77.78,160.25a28.75,28.75,0,0,1-5.33,0,21.38,21.38,0,0,1,.33-2.64c.1-.12,3.78-.1,3.91-.26a3.91,3.91,0,0,0,.17-1.2,15.93,15.93,0,0,0-2.57-.22s.17-1,.32-1,4.89.11,5,.22a2.67,2.67,0,0,1,0,1.09c0,.06-2.28,0-2.35.11a2.49,2.49,0,0,0-.07.65c0,.06,2.09,0,2.14.07s.12.8,0,.8-3.6.05-3.6.15,1.92,0,2,.08A11.22,11.22,0,0,1,77.78,160.25Z"/><path class="cls-25" d="M64.64,155.56c-.21.25,7.89.24,8.09,0a2.16,2.16,0,0,0,0-1.4c-.12-.14-7.37-.17-7.6-.17S64.64,155.56,64.64,155.56Z"/><path class="cls-25" d="M70.22,160.25c0,.2,1.67,0,1.82,0a7.11,7.11,0,0,0,.41-2.4,5.46,5.46,0,0,0-1.86-.17C70.52,157.77,70.22,160.25,70.22,160.25Z"/><path class="cls-25" d="M65.66,177c0,.19,2.09.15,2.24.15a7.81,7.81,0,0,0,0-2.55,5.38,5.38,0,0,0-1.85-.17C66,174.53,65.66,177,65.66,177Z"/><path class="cls-26" d="M64.84,180.8c0,.2,2.09.15,2.24.15a11.83,11.83,0,0,0,.7-3.08,16.52,16.52,0,0,0-3.37,0C64.34,177.93,64.84,180.8,64.84,180.8Z"/><path class="cls-25" d="M74.26,154.51a24.27,24.27,0,0,0,5.39,0,8,8,0,0,0-.09-1.59,23.1,23.1,0,0,0-2.6-.28s4.14.14,4.26,0a1.44,1.44,0,0,0,0-.94c-.09-.1-7,.19-7,.28v1.19s2.78,0,2.87.14-2.85,0-2.94.1A2.55,2.55,0,0,0,74.26,154.51Z"/><path class="cls-26" d="M76.35,157.13a24.9,24.9,0,0,1-4.23,0,1.94,1.94,0,0,1-.14-.93,33.17,33.17,0,0,1,4.23,0A4.11,4.11,0,0,1,76.35,157.13Z"/><path class="cls-25" d="M69.8,163.24a38.12,38.12,0,0,1-5.35-.16,10.3,10.3,0,0,1-.12-2.2,49.69,49.69,0,0,1,5.32,0A22.65,22.65,0,0,1,69.8,163.24Z"/><path class="cls-25" d="M70.1,164.71a23.9,23.9,0,0,1-4.23,0,1.89,1.89,0,0,1-.14-.92,31.43,31.43,0,0,1,4.23,0A4,4,0,0,1,70.1,164.71Z"/><path class="cls-25" d="M69.25,183A24.9,24.9,0,0,1,65,183a2.07,2.07,0,0,1-.15-.92,29.86,29.86,0,0,1,4.23,0A3.56,3.56,0,0,1,69.25,183Z"/><path class="cls-25" d="M79.54,144.74a26,26,0,0,1-4.23,0,1.94,1.94,0,0,1-.14-.93,31.43,31.43,0,0,1,4.23,0A4,4,0,0,1,79.54,144.74Z"/><path class="cls-25" d="M83.82,147.62a7.46,7.46,0,0,1-2.36-.09,1.89,1.89,0,0,1-.14-.92,10.12,10.12,0,0,1,2.4-.08A4.49,4.49,0,0,1,83.82,147.62Z"/><path class="cls-26" d="M80.12,157c0,.32,1.66,0,1.66.22v1.44a26.42,26.42,0,0,0-3.21,0c-.11.13.13,2.37-.12,2.37s-8.07-.18-8.23,0a18.88,18.88,0,0,0,.43,4.15c.16.18,6.31-.21,6.49,0s0,1.16.2,1.37,3.84.21,4,.34a1.6,1.6,0,0,1,.16.61l-3.74-.21v1.32l4.31-.29s.25-11.12.25-11.64-2.2-.55-2.2-.55Z"/><path class="cls-25" d="M77.57,165.65c.1.13.23,3.35.3,3.44s4.93-.15,5,0a14.46,14.46,0,0,1,0,3.72c-.2,0-9.09-.27-9.09-.58V169l2.55-.1a12.06,12.06,0,0,1-2.3-.29c0-.14.1-2.06.1-2.18s-4.71.21-4.71,0-.1-.66,0-.78S77.43,165.49,77.57,165.65Z"/><path class="cls-25" d="M84.38,159.5c0,.23,8.3,0,8.3,0a4.88,4.88,0,0,0,0-1.27c-.12-.14-4.71-.26-4.82-.4s3.09-.09,3.19-.21a12.72,12.72,0,0,0,0-3.14,36.86,36.86,0,0,0-5.85,0,17.09,17.09,0,0,0-.43,2s4.56-.1,4.56.21a1.51,1.51,0,0,1-.15.73c-.06,0-3.09,0-3.14.1a3.58,3.58,0,0,0,0,.75s1.73-.06,1.78,0,.29.88.29.88-3.73,0-3.73.08Z"/><path class="cls-25" d="M86.46,185.08c0,.24,8.3,0,8.3,0a4.88,4.88,0,0,0,0-1.27c-.12-.13-4.71-.26-4.82-.39s3.09-.09,3.19-.21a12.72,12.72,0,0,0,0-3.14,34.63,34.63,0,0,0-5.85,0,17.09,17.09,0,0,0-.43,2s4.56-.11,4.56.21a1.54,1.54,0,0,1-.15.73c-.06,0-3.09,0-3.14.1a3.62,3.62,0,0,0,0,.75s1.73-.06,1.78,0,.29.88.29.88-3.73,0-3.73.08Z"/><path class="cls-26" d="M84.38,179.84c0,.23,8.3,0,8.3,0a4.88,4.88,0,0,0,0-1.27c-.12-.14-4.71-.26-4.82-.4s3.09-.09,3.19-.21a12.72,12.72,0,0,0,0-3.14,36.86,36.86,0,0,0-5.85,0,17.09,17.09,0,0,0-.43,2s4.56-.1,4.56.21a1.51,1.51,0,0,1-.15.73c-.06,0-3.09,0-3.14.1a3.58,3.58,0,0,0,0,.75s1.73-.06,1.78,0,.29.88.29.88-3.73,0-3.73.08Z"/><path class="cls-26" d="M92.53,157.42a37.4,37.4,0,0,0,5.5,0,12.37,12.37,0,0,0,.35-2.94c-.11-.14-3.9-.44-3.9-.44s2.67,0,2.67-.23A9.83,9.83,0,0,0,97,151.4c-.21-.24-4.7-.29-4.7,0S92.53,157.42,92.53,157.42Z"/><path class="cls-26" d="M82.94,166.29a37.4,37.4,0,0,0,5.5,0,12.92,12.92,0,0,0,.36-2.94c-.12-.14-3.9-.44-3.9-.44s2.67,0,2.67-.24.05-.13-.16-.38-4.61-.06-4.61.23S82.94,166.29,82.94,166.29Z"/><path class="cls-25" d="M94.34,149.11a38.83,38.83,0,0,0,5.5,0,12.45,12.45,0,0,0,.35-3c-.11-.13-3.9-.43-3.9-.43s5.25.25,5.25,0,.35-.42.14-.66-7.49-.06-7.49.23S94.34,149.11,94.34,149.11Z"/><path class="cls-25" d="M95.15,183.78a38.83,38.83,0,0,0,5.5,0,12.45,12.45,0,0,0,.35-2.95c-.11-.13-3.9-.43-3.9-.43s2.67,0,2.67-.24.06-.14-.15-.38S95,179.72,95,180,95.15,183.78,95.15,183.78Z"/><path class="cls-26" d="M90.87,153.47c-.12.14-7.13.29-7.13,0a27.13,27.13,0,0,1,.45-3.54c.13-.16,5-.13,5.22-.34a5.16,5.16,0,0,0,.23-1.62,22.18,22.18,0,0,0-3.44-.29s.23-1.26.43-1.26,6.54.14,6.67.29a3.72,3.72,0,0,1,0,1.45c-.08.09-3.06.06-3.15.16a3.25,3.25,0,0,0-.1.86c0,.08,2.81,0,2.88.09s.15,1.08,0,1.08-4.81.07-4.81.2,2.57,0,2.63.1A14.64,14.64,0,0,1,90.87,153.47Z"/><path class="cls-25" d="M96.54,166.26a28.86,28.86,0,0,1-5.34,0,21.35,21.35,0,0,1,.34-2.64c.1-.12,3.77-.1,3.91-.26a3.87,3.87,0,0,0,.17-1.2,15.93,15.93,0,0,0-2.57-.22s.17-.94.32-.94,4.89.1,5,.21a2.85,2.85,0,0,1,0,1.09c-.06.06-2.29,0-2.35.12a2.37,2.37,0,0,0-.07.64c0,.06,2.09,0,2.14.07s.12.81,0,.81-3.6,0-3.6.14,1.92,0,2,.08A11.25,11.25,0,0,1,96.54,166.26Z"/><path class="cls-25" d="M83.4,161.57c-.22.25,7.88.24,8.08,0a2,2,0,0,0,0-1.4c-.11-.14-7.37-.17-7.59-.17S83.4,161.57,83.4,161.57Z"/><path class="cls-25" d="M89,166.26c0,.2,1.66,0,1.81,0a6.63,6.63,0,0,0,.41-2.39,5.39,5.39,0,0,0-1.85-.18C89.27,163.78,89,166.26,89,166.26Z"/><path class="cls-25" d="M84.42,183c0,.2,2.09.15,2.24.15a8.41,8.41,0,0,0,0-2.55,5.38,5.38,0,0,0-1.85-.17C84.71,180.55,84.42,183,84.42,183Z"/><path class="cls-25" d="M93,160.53a25.54,25.54,0,0,0,5.39,0,9,9,0,0,0-.09-1.6,23.26,23.26,0,0,0-2.61-.28s4.15.14,4.27,0a1.41,1.41,0,0,0,0-.93c-.09-.11-7,.18-7,.27v1.19a26,26,0,0,1,2.86.15c.09.1-2.85,0-2.94.09A2.61,2.61,0,0,0,93,160.53Z"/><path class="cls-25" d="M84.49,148.26a25.54,25.54,0,0,0,5.39,0,8.17,8.17,0,0,0-.09-1.6,23,23,0,0,0-2.6-.27s4.14.14,4.26,0a1.44,1.44,0,0,0,0-.94c-.09-.11-7,.18-7,.28v1.19a26.09,26.09,0,0,1,2.87.14c.09.11-2.85,0-2.94.09A2.58,2.58,0,0,0,84.49,148.26Z"/><path class="cls-26" d="M95.11,163.14a23.9,23.9,0,0,1-4.23,0,2.07,2.07,0,0,1-.15-.92,29.86,29.86,0,0,1,4.23,0A3.56,3.56,0,0,1,95.11,163.14Z"/><path class="cls-25" d="M88.55,169.25a38.17,38.17,0,0,1-5.35-.16,10.21,10.21,0,0,1-.11-2.2,49.5,49.5,0,0,1,5.31,0A20.21,20.21,0,0,1,88.55,169.25Z"/><path class="cls-25" d="M88.86,170.72a23.9,23.9,0,0,1-4.23,0,2,2,0,0,1-.15-.92,31.43,31.43,0,0,1,4.23,0A3.56,3.56,0,0,1,88.86,170.72Z"/><path class="cls-25" d="M98.3,150.75a24.9,24.9,0,0,1-4.23,0,2.09,2.09,0,0,1-.15-.93,31.43,31.43,0,0,1,4.23,0A3.62,3.62,0,0,1,98.3,150.75Z"/><path class="cls-25" d="M100.54,153.63a7.46,7.46,0,0,1-2.36-.09,1.89,1.89,0,0,1-.14-.92,9.59,9.59,0,0,1,2.4-.07A4.92,4.92,0,0,1,100.54,153.63Z"/><path class="cls-26" d="M98.88,163c0,.32,1.66,0,1.66.22v1.44a26.43,26.43,0,0,0-3.21,0c-.11.13.13,2.38-.13,2.38s-8.07-.19-8.22,0a18.2,18.2,0,0,0,.43,4.14c.16.19,6.3-.21,6.48,0s0,1.16.21,1.37,3.84.21,4,.35a1.65,1.65,0,0,1,.15.6l-3.73-.21v1.32l4.31-.29s.25-11.12.25-11.64-2.21-.55-2.21-.55Z"/><path class="cls-25" d="M95.34,171.67c.11.12.23,3.34.31,3.43s4.92-.15,5,0a14.46,14.46,0,0,1,0,3.72c-.21,0-9.09-.27-9.09-.58V175l2.55-.1a12.06,12.06,0,0,1-2.3-.29c0-.14.1-2.06.1-2.18s-4.72.22-4.72,0-.1-.66,0-.77A75.47,75.47,0,0,1,95.34,171.67Z"/><path class="cls-25" d="M101,143.61c0,.24,8.29,0,8.29,0a4.47,4.47,0,0,0,0-1.27c-.12-.14-4.7-.26-4.81-.39s3.08-.09,3.18-.21a12.71,12.71,0,0,0,0-3.14,34.75,34.75,0,0,0-5.86,0,16.9,16.9,0,0,0-.42,2s4.55-.11,4.55.21-.09.73-.15.73-3.09,0-3.14.09a3.64,3.64,0,0,0,0,.76s1.73-.06,1.77,0,.3.88.3.88-3.73,0-3.73.08Z"/><path class="cls-26" d="M101.91,171.18c0,.24,8.29,0,8.29,0a4.41,4.41,0,0,0,0-1.26c-.11-.14-4.7-.27-4.81-.4s3.08-.09,3.19-.21a12.72,12.72,0,0,0,0-3.14,35.71,35.71,0,0,0-5.85,0,15.23,15.23,0,0,0-.43,2s4.56-.11,4.56.21-.1.73-.16.73-3.08,0-3.13.1a3,3,0,0,0,0,.75s1.73-.06,1.77,0a9.22,9.22,0,0,1,.3.88s-3.73,0-3.73.08Z"/><path class="cls-26" d="M110.06,148.77a38.83,38.83,0,0,0,5.5,0,12.45,12.45,0,0,0,.35-3c-.12-.13-3.9-.43-3.9-.43s2.67,0,2.67-.24a9.78,9.78,0,0,0-.15-2.4c-.21-.24-4.7-.29-4.7,0S110.06,148.77,110.06,148.77Z"/><path class="cls-26" d="M118.15,176a33.3,33.3,0,0,0-4.79,0,10.32,10.32,0,0,0-.31,2.57c.1.12,3.4.38,3.4.38a10.2,10.2,0,0,0-2.33.2,8.3,8.3,0,0,0,.13,2.1c.18.21,4.1.25,4.1,0S118.15,176,118.15,176Z"/><path class="cls-26" d="M100.47,157.64a40.38,40.38,0,0,0,5.5,0,13,13,0,0,0,.36-2.95c-.12-.13-3.91-.43-3.91-.43s2.67,0,2.67-.24.06-.14-.15-.38-4.61-.06-4.61.23S100.47,157.64,100.47,157.64Z"/><path class="cls-25" d="M112.68,175.12a37.4,37.4,0,0,0,5.5,0,12.31,12.31,0,0,0,.35-2.94c-.11-.14-3.9-.44-3.9-.44s2.67,0,2.67-.23,0-.14-.15-.38-3,.05-3,.34S112.68,175.12,112.68,175.12Z"/><path class="cls-25" d="M114.07,157.61a28.86,28.86,0,0,1-5.34,0,20.86,20.86,0,0,1,.34-2.64c.1-.12,3.77-.1,3.91-.26a3.93,3.93,0,0,0,.16-1.2,15.8,15.8,0,0,0-2.56-.22s.17-.95.32-.95,4.89.11,5,.22a2.8,2.8,0,0,1,0,1.08c-.06.07-2.29.05-2.35.12a2.44,2.44,0,0,0-.08.64c0,.06,2.1,0,2.15.07s.12.81,0,.81-3.59.05-3.59.15,1.92,0,2,.08A12.14,12.14,0,0,1,114.07,157.61Z"/><path class="cls-25" d="M100.93,152.91c-.22.26,7.88.24,8.08,0a2,2,0,0,0,0-1.39c-.11-.14-7.37-.18-7.59-.18S100.93,152.91,100.93,152.91Z"/><path class="cls-25" d="M106.51,157.61c0,.19,1.66,0,1.81,0a7.15,7.15,0,0,0,.41-2.4,5.38,5.38,0,0,0-1.85-.17C106.8,155.12,106.51,157.61,106.51,157.61Z"/><path class="cls-25" d="M101.94,174.37c0,.2,2.1.15,2.25.15a8.34,8.34,0,0,0,0-2.54,5.68,5.68,0,0,0-1.86-.18C102.24,171.89,101.94,174.37,101.94,174.37Z"/><path class="cls-26" d="M101.12,178.16c0,.2,2.1.15,2.25.15a11.9,11.9,0,0,0,.7-3.09,17.27,17.27,0,0,0-3.37,0C100.63,175.28,101.12,178.16,101.12,178.16Z"/><path class="cls-25" d="M110.55,151.87a25.45,25.45,0,0,0,5.38,0,9.07,9.07,0,0,0-.08-1.6,23.15,23.15,0,0,0-2.61-.27s4.15.14,4.27,0a1.44,1.44,0,0,0,0-.94c-.09-.1-7,.19-7,.28v1.19a28.62,28.62,0,0,1,2.86.14c.09.11-2.85,0-2.94.09A2.58,2.58,0,0,0,110.55,151.87Z"/><path class="cls-26" d="M112.64,154.49a26,26,0,0,1-4.23,0,2,2,0,0,1-.15-.93,31.43,31.43,0,0,1,4.23,0A3.62,3.62,0,0,1,112.64,154.49Z"/><path class="cls-25" d="M106.08,160.6a41.42,41.42,0,0,1-5.35-.16,10.34,10.34,0,0,1-.11-2.21,49.52,49.52,0,0,1,5.31,0A20.07,20.07,0,0,1,106.08,160.6Z"/><path class="cls-25" d="M106.39,162.07a23.9,23.9,0,0,1-4.23,0,2,2,0,0,1-.15-.92,29.86,29.86,0,0,1,4.23,0A3.56,3.56,0,0,1,106.39,162.07Z"/><path class="cls-25" d="M105.53,180.35a26,26,0,0,1-4.23,0,2.07,2.07,0,0,1-.14-.93,31.43,31.43,0,0,1,4.23,0A4,4,0,0,1,105.53,180.35Z"/><path class="cls-25" d="M107.73,186.25a23.9,23.9,0,0,1-4.23,0,1.89,1.89,0,0,1-.14-.92,31.43,31.43,0,0,1,4.23,0A4,4,0,0,1,107.73,186.25Z"/><path class="cls-25" d="M115.83,142.09a23.9,23.9,0,0,1-4.23,0,1.9,1.9,0,0,1-.15-.92,31.43,31.43,0,0,1,4.23,0A3.56,3.56,0,0,1,115.83,142.09Z"/><path class="cls-25" d="M118.07,145a7.76,7.76,0,0,1-2.36-.09,2.09,2.09,0,0,1-.15-.93,10.19,10.19,0,0,1,2.41-.07A5,5,0,0,1,118.07,145Z"/><path class="cls-26" d="M116.41,154.35c0,.32,1.66,0,1.66.23V156a24.54,24.54,0,0,0-3.21,0c-.11.13.13,2.37-.13,2.37s-8.07-.18-8.22,0a18.35,18.35,0,0,0,.43,4.15c.15.18,6.3-.22,6.48,0s0,1.16.21,1.37,3.84.2,4,.34a1.74,1.74,0,0,1,.15.61l-3.73-.21V166l4.31-.29s.24-11.12.24-11.65-2.2-.54-2.2-.54Z"/><path class="cls-25" d="M47.42,164.37c0,.24,8.29,0,8.29,0a4.47,4.47,0,0,0,0-1.27c-.11-.14-4.7-.26-4.81-.39s3.08-.09,3.19-.21a12.72,12.72,0,0,0,0-3.14,34.63,34.63,0,0,0-5.85,0,15.23,15.23,0,0,0-.43,2s4.56-.11,4.56.21-.1.73-.16.73-3.08,0-3.14.09a3.64,3.64,0,0,0,0,.76s1.73-.06,1.77,0a9.22,9.22,0,0,1,.3.88s-3.73,0-3.73.08Z"/><path class="cls-25" d="M48.08,154.71c0,.24,8.3,0,8.3,0a4.41,4.41,0,0,0,0-1.26c-.12-.14-4.7-.27-4.82-.4s3.09-.09,3.19-.21a12.71,12.71,0,0,0,0-3.14,35.83,35.83,0,0,0-5.86,0,16.9,16.9,0,0,0-.42,2s4.55-.11,4.55.21-.09.73-.15.73-3.09,0-3.14.1a3.58,3.58,0,0,0,0,.75s1.74-.06,1.78,0,.29.88.29.88-3.73,0-3.73.08Z"/><path class="cls-25" d="M49.58,190.57c0,.24,8.29,0,8.29,0a4.47,4.47,0,0,0,0-1.27c-.11-.14-4.7-.26-4.81-.4s3.08-.09,3.19-.21a12.72,12.72,0,0,0,0-3.14,36.86,36.86,0,0,0-5.85,0,15.23,15.23,0,0,0-.43,2s4.56-.1,4.56.21-.1.73-.16.73-3.08,0-3.13.1a3,3,0,0,0,0,.75s1.73-.06,1.77,0a9.34,9.34,0,0,1,.3.89s-3.73,0-3.73.07Z"/><path class="cls-26" d="M47.42,184.71c0,.24,8.29,0,8.29,0a4.47,4.47,0,0,0,0-1.27c-.11-.14-4.7-.26-4.81-.39s3.08-.09,3.19-.21a12.72,12.72,0,0,0,0-3.14,34.63,34.63,0,0,0-5.85,0,15.23,15.23,0,0,0-.43,2s4.56-.11,4.56.21-.1.73-.16.73-3.08,0-3.14.09a3.64,3.64,0,0,0,0,.76s1.73-.06,1.77,0a9.22,9.22,0,0,1,.3.88s-3.73,0-3.73.08Z"/><path class="cls-26" d="M55.57,162.3a40.23,40.23,0,0,0,5.49,0,12,12,0,0,0,.36-3c-.12-.13-3.9-.43-3.9-.43s2.67,0,2.67-.24a9.78,9.78,0,0,0-.15-2.4c-.21-.24-4.7-.29-4.7,0S55.57,162.3,55.57,162.3Z"/><path class="cls-26" d="M63.66,189.52a31.91,31.91,0,0,0-4.79,0,10.27,10.27,0,0,0-.31,2.57c.1.12,3.4.38,3.4.38a10.2,10.2,0,0,0-2.33.2,8.3,8.3,0,0,0,.13,2.1c.18.21,4.1.25,4.1,0S63.66,189.52,63.66,189.52Z"/><path class="cls-26" d="M46,171.16a37.4,37.4,0,0,0,5.5,0,12.31,12.31,0,0,0,.35-2.94c-.11-.14-3.9-.43-3.9-.43s2.67,0,2.67-.24.06-.14-.15-.38-4.61-.06-4.61.23S46,171.16,46,171.16Z"/><path class="cls-25" d="M58.19,188.65a37.4,37.4,0,0,0,5.5,0,12.37,12.37,0,0,0,.35-2.94c-.11-.14-3.9-.44-3.9-.44s2.67,0,2.67-.23,0-.14-.15-.38-4.62-.07-4.62.22S58.19,188.65,58.19,188.65Z"/><path class="cls-26" d="M54.22,197.05c-.13.12-7.14.23-7.14,0a18.88,18.88,0,0,1,.45-2.82c.13-.12,5-.1,5.23-.27a3.26,3.26,0,0,0,.22-1.28,26.35,26.35,0,0,0-3.43-.23s.22-1,.43-1,6.54.12,6.66.23a2.39,2.39,0,0,1,0,1.16c-.07.06-3.06,0-3.14.12s-.1.62-.1.68,2.8,0,2.87.08.16.86,0,.86-4.82.05-4.82.16,2.58,0,2.64.08A9.78,9.78,0,0,1,54.22,197.05Z"/><path class="cls-25" d="M59.58,171.14a29.76,29.76,0,0,1-5.34,0,21.27,21.27,0,0,1,.34-2.65c.1-.11,3.77-.1,3.91-.25a4,4,0,0,0,.16-1.21,17,17,0,0,0-2.56-.21s.16-.95.32-.95,4.89.11,5,.22a2.8,2.8,0,0,1,0,1.08c-.06.07-2.29.05-2.35.12a2.39,2.39,0,0,0-.08.64c0,.06,2.1,0,2.15.07s.12.81,0,.81-3.59.05-3.59.15,1.92,0,2,.07A12.29,12.29,0,0,1,59.58,171.14Z"/><path class="cls-25" d="M46.44,166.44c-.22.26,7.88.24,8.08,0a2,2,0,0,0,0-1.4c-.11-.13-7.37-.17-7.59-.17S46.44,166.44,46.44,166.44Z"/><path class="cls-25" d="M52,171.13c0,.2,1.66,0,1.81,0a7.09,7.09,0,0,0,.41-2.39,5.38,5.38,0,0,0-1.85-.17C52.31,168.65,52,171.13,52,171.13Z"/><path class="cls-25" d="M47.45,187.9c0,.2,2.1.15,2.25.15a8.34,8.34,0,0,0,0-2.54,5.43,5.43,0,0,0-1.86-.18C47.75,185.42,47.45,187.9,47.45,187.9Z"/><path class="cls-26" d="M46.63,191.69c0,.2,2.1.15,2.25.15a11.9,11.9,0,0,0,.7-3.09,17.27,17.27,0,0,0-3.37,0C46.14,188.81,46.63,191.69,46.63,191.69Z"/><path class="cls-25" d="M56.06,165.4a25.45,25.45,0,0,0,5.38,0,9.07,9.07,0,0,0-.08-1.6,23.15,23.15,0,0,0-2.61-.27s4.15.13,4.27,0a1.51,1.51,0,0,0,0-.94c-.09-.11-7,.18-7,.28v1.19a25.92,25.92,0,0,1,2.86.14c.09.1-2.85,0-2.94.09A2.59,2.59,0,0,0,56.06,165.4Z"/><path class="cls-25" d="M43,146.54a25.54,25.54,0,0,0,5.39,0,8.12,8.12,0,0,0-.09-1.6,23.1,23.1,0,0,0-2.6-.28s4.14.14,4.26,0a1.41,1.41,0,0,0,0-.93c-.09-.11-7,.18-7,.27v1.19a25.88,25.88,0,0,1,2.86.15c.09.1-2.85,0-2.93.09A2.6,2.6,0,0,0,43,146.54Z"/><path class="cls-25" d="M41.43,159.62a25.45,25.45,0,0,0,5.38,0,9.07,9.07,0,0,0-.08-1.6,23.15,23.15,0,0,0-2.61-.27s4.15.13,4.27,0a1.51,1.51,0,0,0,0-.94c-.09-.11-7,.18-7,.28v1.18a26,26,0,0,1,2.86.15c.09.1-2.85,0-2.94.09A2.59,2.59,0,0,0,41.43,159.62Z"/><path class="cls-26" d="M58.15,168a23.9,23.9,0,0,1-4.23,0,1.9,1.9,0,0,1-.15-.92,31.43,31.43,0,0,1,4.23,0A3.56,3.56,0,0,1,58.15,168Z"/><path class="cls-25" d="M51.59,174.12a39.71,39.71,0,0,1-5.35-.15,11,11,0,0,1-.12-2.21,49.7,49.7,0,0,1,5.32,0A19.91,19.91,0,0,1,51.59,174.12Z"/><path class="cls-25" d="M48.42,175.36a23.9,23.9,0,0,1-4.23,0,1.89,1.89,0,0,1-.14-.92,31.43,31.43,0,0,1,4.23,0A4,4,0,0,1,48.42,175.36Z"/><path class="cls-25" d="M51,193.87a23.9,23.9,0,0,1-4.23,0,1.89,1.89,0,0,1-.14-.92,31.43,31.43,0,0,1,4.23,0A4,4,0,0,1,51,193.87Z"/><path class="cls-25" d="M61.34,155.62a23.9,23.9,0,0,1-4.23,0,1.92,1.92,0,0,1-.15-.92,29.86,29.86,0,0,1,4.23,0A3.56,3.56,0,0,1,61.34,155.62Z"/><path class="cls-25" d="M54.06,158.42a23.9,23.9,0,0,1-4.23,0,1.9,1.9,0,0,1-.15-.92,31.43,31.43,0,0,1,4.23,0A3.56,3.56,0,0,1,54.06,158.42Z"/><path class="cls-25" d="M63.58,158.51a7.76,7.76,0,0,1-2.36-.09,2.09,2.09,0,0,1-.15-.93,10.19,10.19,0,0,1,2.41-.07A5,5,0,0,1,63.58,158.51Z"/><path class="cls-26" d="M64.43,142.45c-.05,2.51-.24,11-.24,11l-4.31.3V152.4l3.74.21a1.6,1.6,0,0,0-.16-.61c-.12-.14-3.78-.13-4-.34s0-1.17-.21-1.38-6.33.19-6.49,0a18.79,18.79,0,0,1-.43-4.14c.16-.18,8,0,8.23,0s0-2.24.12-2.38a26.42,26.42,0,0,1,3.21,0v-1.3Z"/><path class="cls-25" d="M41.65,176.26c0-.23-8.29,0-8.29,0a4.47,4.47,0,0,0,0,1.27c.11.14,4.7.26,4.81.4s-3.09.09-3.19.21a12.72,12.72,0,0,0,0,3.14,36.86,36.86,0,0,0,5.85,0,15.23,15.23,0,0,0,.43-2s-4.56.1-4.56-.21.1-.73.16-.73,3.08,0,3.13-.1a3.58,3.58,0,0,0,0-.75s-1.73.06-1.77,0a9.22,9.22,0,0,1-.3-.88s3.73,0,3.73-.08Z"/><path class="cls-25" d="M39.49,150.07c0-.24-8.29,0-8.29,0a4.4,4.4,0,0,0,0,1.26c.11.14,4.7.27,4.81.4s-3.09.09-3.19.21a12.72,12.72,0,0,0,0,3.14,35.71,35.71,0,0,0,5.85,0,15.23,15.23,0,0,0,.43-2s-4.56.11-4.56-.21.1-.73.16-.73,3.08,0,3.13-.1a3.58,3.58,0,0,0,0-.75s-1.73.06-1.78,0-.29-.88-.29-.88,3.73,0,3.73-.08Z"/><path class="cls-26" d="M41.65,155.92c0-.24-8.29,0-8.29,0a4.47,4.47,0,0,0,0,1.27c.11.14,4.7.26,4.81.4s-3.09.09-3.19.21a12.72,12.72,0,0,0,0,3.14,36.86,36.86,0,0,0,5.85,0,15.23,15.23,0,0,0,.43-2s-4.56.1-4.56-.21.1-.73.16-.73,3.08,0,3.13-.1a3.58,3.58,0,0,0,0-.75s-1.73.06-1.77,0a9.22,9.22,0,0,1-.3-.88s3.73,0,3.73-.08Z"/><path class="cls-26" d="M25.41,151.12a34.8,34.8,0,0,0,4.79,0,10.81,10.81,0,0,0,.31-2.57c-.1-.12-3.4-.38-3.4-.38a10.21,10.21,0,0,0,2.33-.21,8.33,8.33,0,0,0-.13-2.1c-.18-.21-4.1-.25-4.1,0S25.41,151.12,25.41,151.12Z"/><path class="cls-26" d="M43.09,169.47a37.4,37.4,0,0,0-5.5,0,12.92,12.92,0,0,0-.36,2.94c.12.14,3.91.44,3.91.44s-2.67,0-2.67.24-.06.13.15.37,4.61.07,4.61-.22S43.09,169.47,43.09,169.47Z"/><path class="cls-25" d="M30.88,152a38.83,38.83,0,0,0-5.5,0,12.45,12.45,0,0,0-.35,3c.11.13,3.9.43,3.9.43s-2.67,0-2.67.24-.06.14.15.38S31,156,31,155.75,30.88,152,30.88,152Z"/><path class="cls-26" d="M34.85,143.59c.13-.12,7.14-.23,7.14,0a18.74,18.74,0,0,1-.45,2.81c-.14.13-5,.11-5.23.27a3.29,3.29,0,0,0-.22,1.28,26.36,26.36,0,0,0,3.43.24s-.22,1-.43,1-6.54-.11-6.66-.23a2.35,2.35,0,0,1,0-1.15c.07-.07,3.06-.05,3.14-.13a2.08,2.08,0,0,0,.1-.68c0-.06-2.8,0-2.87-.07s-.16-.87,0-.87,4.82-.05,4.82-.15-2.58,0-2.64-.09A9.7,9.7,0,0,1,34.85,143.59Z"/><path class="cls-25" d="M29.49,169.5a28,28,0,0,1,5.34,0,21.35,21.35,0,0,1-.34,2.64c-.1.12-3.77.1-3.91.26a3.85,3.85,0,0,0-.16,1.2,15.8,15.8,0,0,0,2.56.22s-.17.94-.32.94-4.89-.1-5-.21a2.85,2.85,0,0,1,0-1.09c.06-.06,2.29,0,2.35-.12a2.39,2.39,0,0,0,.08-.64c0-.06-2.1,0-2.15-.07s-.12-.81,0-.81,3.6,0,3.6-.14-1.92,0-2-.08A12.2,12.2,0,0,1,29.49,169.5Z"/><path class="cls-25" d="M42.63,174.19c.22-.25-7.88-.24-8.08,0a2,2,0,0,0,0,1.4c.11.14,7.37.17,7.59.17S42.63,174.19,42.63,174.19Z"/><path class="cls-25" d="M37.05,169.5c0-.2-1.66,0-1.81,0a6.85,6.85,0,0,0-.41,2.39,5.39,5.39,0,0,0,1.85.18C36.76,172,37.05,169.5,37.05,169.5Z"/><path class="cls-25" d="M41.61,152.73c0-.2-2.09-.15-2.24-.15a8.41,8.41,0,0,0,0,2.55,5.41,5.41,0,0,0,1.86.17C41.32,155.21,41.61,152.73,41.61,152.73Z"/><path class="cls-26" d="M42.44,149c0-.2-2.1-.16-2.25-.16a11.9,11.9,0,0,0-.7,3.09,18.1,18.1,0,0,0,3.37,0C42.93,151.82,42.44,149,42.44,149Z"/><path class="cls-25" d="M33,175.23a25.45,25.45,0,0,0-5.38,0,9,9,0,0,0,.08,1.6,23.26,23.26,0,0,0,2.61.28s-4.15-.14-4.27,0a1.41,1.41,0,0,0,0,.93c.09.11,7-.18,7-.27v-1.19a26,26,0,0,1-2.86-.15c-.09-.1,2.85,0,2.94-.09A2.61,2.61,0,0,0,33,175.23Z"/><path class="cls-25" d="M46.1,194.1a24.89,24.89,0,0,0-5.39,0,8,8,0,0,0,.09,1.59,20.79,20.79,0,0,0,2.6.28s-4.14-.14-4.26,0a1.44,1.44,0,0,0,0,.94c.09.1,7-.19,7-.28v-1.19s-2.78,0-2.87-.14,2.85,0,2.94-.1A2.55,2.55,0,0,0,46.1,194.1Z"/><path class="cls-25" d="M65.83,171.61a25.45,25.45,0,0,0-5.38,0,8.12,8.12,0,0,0,.09,1.6,22.86,22.86,0,0,0,2.6.28s-4.15-.14-4.26,0a1.41,1.41,0,0,0,0,.93c.09.11,6.95-.18,6.95-.27V173a26,26,0,0,1-2.86-.15c-.09-.1,2.85,0,2.94-.09A2.61,2.61,0,0,0,65.83,171.61Z"/><path class="cls-26" d="M30.92,172.62a23.9,23.9,0,0,1,4.23,0,1.92,1.92,0,0,1,.15.92,29.86,29.86,0,0,1-4.23,0A3.56,3.56,0,0,1,30.92,172.62Z"/><path class="cls-25" d="M37.48,166.51a38.12,38.12,0,0,1,5.35.16,10.21,10.21,0,0,1,.11,2.2,49.5,49.5,0,0,1-5.31,0A20.21,20.21,0,0,1,37.48,166.51Z"/><path class="cls-25" d="M37.17,165a26,26,0,0,1,4.23,0,2.09,2.09,0,0,1,.15.93,31.43,31.43,0,0,1-4.23,0A3.62,3.62,0,0,1,37.17,165Z"/><path class="cls-25" d="M38,146.76a23.9,23.9,0,0,1,4.23,0,1.9,1.9,0,0,1,.15.92,29.86,29.86,0,0,1-4.23,0A4,4,0,0,1,38,146.76Z"/><path class="cls-25" d="M35,182.21a24.9,24.9,0,0,1,4.23,0,1.94,1.94,0,0,1,.15.92,29.86,29.86,0,0,1-4.23,0A3.56,3.56,0,0,1,35,182.21Z"/><path class="cls-26" d="M25,172.75c0-.32-1.66,0-1.66-.22v-1.44a26.43,26.43,0,0,0,3.21,0c.11-.13-.13-2.38.13-2.38s8.07.19,8.22,0a18.2,18.2,0,0,0-.43-4.14c-.15-.19-6.3.21-6.48,0s0-1.17-.21-1.37-3.84-.21-4-.35a1.7,1.7,0,0,1-.15-.6l3.73.21v-1.32l-4.31.29s-.24,11.12-.24,11.64,2.2.55,2.2.55Z"/><path class="cls-25" d="M30.69,164.09c-.11-.12-.23-3.34-.31-3.43s-4.92.15-5.05,0a14.46,14.46,0,0,1,0-3.72c.21,0,9.09.26,9.09.58v3.23l-2.55.1a12.17,12.17,0,0,1,2.31.29c0,.14-.11,2.06-.11,2.18s4.72-.22,4.72,0,.1.66,0,.77A75.47,75.47,0,0,1,30.69,164.09Z"/><path class="cls-25" d="M118.8,155.71c0,.24,8.3,0,8.3,0a4.47,4.47,0,0,0,0-1.27c-.12-.14-4.7-.26-4.82-.39s3.09-.1,3.19-.22a12.71,12.71,0,0,0,0-3.14,37,37,0,0,0-5.86,0,17.34,17.34,0,0,0-.42,2s4.55-.1,4.55.21-.09.73-.15.73-3.09,0-3.14.1a3.68,3.68,0,0,0,0,.76s1.74-.06,1.78,0,.29.88.29.88-3.73,0-3.73.08Z"/><path class="cls-25" d="M121,181.91c0,.23,8.3,0,8.3,0a4.47,4.47,0,0,0,0-1.27c-.12-.14-4.7-.26-4.82-.4s3.09-.09,3.19-.21a12.71,12.71,0,0,0,0-3.14,37,37,0,0,0-5.86,0,16.9,16.9,0,0,0-.42,2s4.55-.1,4.55.21-.09.73-.15.73-3.09,0-3.14.1a3.58,3.58,0,0,0,0,.75s1.74-.06,1.78,0,.29.88.29.88-3.73,0-3.73.08Z"/><path class="cls-26" d="M118.8,176.05c0,.24,8.3,0,8.3,0a4.47,4.47,0,0,0,0-1.27c-.12-.14-4.7-.26-4.82-.39s3.09-.1,3.19-.21a12.79,12.79,0,0,0,0-3.15,37,37,0,0,0-5.86,0,17.34,17.34,0,0,0-.42,2s4.55-.1,4.55.21-.09.73-.15.73-3.09,0-3.14.1a3.68,3.68,0,0,0,0,.76s1.74-.06,1.78,0,.29.88.29.88-3.73,0-3.73.08Z"/><path class="cls-26" d="M127,153.63a37.4,37.4,0,0,0,5.5,0,12.85,12.85,0,0,0,.36-2.94c-.12-.14-3.91-.44-3.91-.44s2.68,0,2.68-.23a9.33,9.33,0,0,0-.16-2.4c-.2-.25-4.69-.3-4.69,0S127,153.63,127,153.63Z"/><path class="cls-26" d="M135.05,180.86a32,32,0,0,0-4.8,0,10.73,10.73,0,0,0-.31,2.56c.1.12,3.41.38,3.41.38A10.3,10.3,0,0,0,131,184a8.31,8.31,0,0,0,.14,2.1c.18.21,4.09.25,4.09,0S135.05,180.86,135.05,180.86Z"/><path class="cls-26" d="M117.37,162.5a37.26,37.26,0,0,0,5.49,0,11.89,11.89,0,0,0,.36-2.94c-.12-.14-3.9-.44-3.9-.44s2.67,0,2.67-.23.05-.14-.15-.38-4.62-.06-4.62.23S117.37,162.5,117.37,162.5Z"/><path class="cls-25" d="M129.57,180a37.4,37.4,0,0,0,5.5,0,12.44,12.44,0,0,0,.36-2.94c-.12-.14-3.9-.44-3.9-.44s2.67,0,2.67-.24.05-.14-.15-.38-4.62-.06-4.62.23S129.57,180,129.57,180Z"/><path class="cls-26" d="M125.3,149.68c-.13.15-7.14.29-7.14,0a27.35,27.35,0,0,1,.45-3.54c.13-.16,5-.13,5.23-.34a5.08,5.08,0,0,0,.22-1.61,20.9,20.9,0,0,0-3.43-.29s.22-1.27.43-1.27,6.54.14,6.66.29a3.72,3.72,0,0,1,0,1.45c-.07.09-3.06.06-3.14.16a2.88,2.88,0,0,0-.1.86c0,.08,2.8,0,2.87.09s.16,1.08,0,1.08-4.81.07-4.81.2,2.58,0,2.64.1A15.51,15.51,0,0,1,125.3,149.68Z"/><path class="cls-26" d="M125.6,188.38c-.12.12-7.13.24-7.13,0a17.55,17.55,0,0,1,.45-2.81c.13-.13,5-.1,5.22-.27a3.31,3.31,0,0,0,.23-1.28,26.5,26.5,0,0,0-3.44-.23s.23-1,.43-1,6.54.11,6.67.23a2.35,2.35,0,0,1,0,1.15c-.08.07-3.06.05-3.15.13a2.08,2.08,0,0,0-.1.68c0,.07,2.81,0,2.88.08s.15.86,0,.86-4.81.05-4.81.15,2.57,0,2.63.09A9.19,9.19,0,0,1,125.6,188.38Z"/><path class="cls-25" d="M131,162.48a29.65,29.65,0,0,1-5.33,0,21.31,21.31,0,0,1,.33-2.65c.1-.12,3.78-.1,3.91-.25a3.69,3.69,0,0,0,.17-1.21,15.93,15.93,0,0,0-2.57-.22s.17-.94.32-.94,4.89.11,5,.21a2.5,2.5,0,0,1,0,1.09c-.05.06-2.28,0-2.35.12a2.37,2.37,0,0,0-.07.64c0,.06,2.1,0,2.15.07s.11.81,0,.81-3.6,0-3.6.15,1.93,0,2,.07A10.55,10.55,0,0,1,131,162.48Z"/><path class="cls-25" d="M117.82,157.78c-.21.25,7.89.24,8.09,0a2.1,2.1,0,0,0,0-1.4c-.12-.14-7.37-.17-7.6-.17S117.82,157.78,117.82,157.78Z"/><path class="cls-25" d="M123.4,162.47c0,.2,1.67,0,1.82,0a7.09,7.09,0,0,0,.41-2.39,5.71,5.71,0,0,0-1.86-.18C123.7,160,123.4,162.47,123.4,162.47Z"/><path class="cls-25" d="M118.84,179.24c0,.2,2.09.15,2.25.15a8.41,8.41,0,0,0,0-2.55,5.72,5.72,0,0,0-1.86-.17C119.14,176.76,118.84,179.24,118.84,179.24Z"/><path class="cls-26" d="M118,183c0,.19,2.09.15,2.24.15a11.14,11.14,0,0,0,.7-3.09,18.09,18.09,0,0,0-3.37,0C117.52,180.15,118,183,118,183Z"/><path class="cls-25" d="M127.45,156.74a25.45,25.45,0,0,0,5.38,0,8.12,8.12,0,0,0-.09-1.6,22.86,22.86,0,0,0-2.6-.28s4.14.14,4.26,0a1.41,1.41,0,0,0,0-.93c-.09-.11-7,.18-7,.27v1.19a26,26,0,0,1,2.86.15c.09.1-2.85,0-2.94.09A2.45,2.45,0,0,0,127.45,156.74Z"/><path class="cls-26" d="M129.53,159.35a23.9,23.9,0,0,1-4.23,0,1.89,1.89,0,0,1-.14-.92,31.43,31.43,0,0,1,4.23,0A4,4,0,0,1,129.53,159.35Z"/><path class="cls-25" d="M122.36,170.64a29.34,29.34,0,0,1-3.87-.11,7.89,7.89,0,0,1-.09-1.6,33.15,33.15,0,0,1,3.86,0A14.82,14.82,0,0,1,122.36,170.64Z"/><path class="cls-25" d="M123.28,166.94a24.9,24.9,0,0,1-4.23,0,1.94,1.94,0,0,1-.14-.93,31.43,31.43,0,0,1,4.23,0A4.11,4.11,0,0,1,123.28,166.94Z"/><path class="cls-25" d="M122.43,185.21a23.9,23.9,0,0,1-4.23,0,2,2,0,0,1-.15-.92,31.43,31.43,0,0,1,4.23,0A3.56,3.56,0,0,1,122.43,185.21Z"/><path class="cls-25" d="M113.63,183.23a23.9,23.9,0,0,1-4.23,0,2,2,0,0,1-.15-.92,29.86,29.86,0,0,1,4.23,0A3.56,3.56,0,0,1,113.63,183.23Z"/><path class="cls-25" d="M119,186.25a23.9,23.9,0,0,1-4.23,0,1.89,1.89,0,0,1-.14-.92,31.43,31.43,0,0,1,4.23,0A4,4,0,0,1,119,186.25Z"/><path class="cls-25" d="M132.72,147a24.9,24.9,0,0,1-4.23,0,1.94,1.94,0,0,1-.14-.93,33.17,33.17,0,0,1,4.23,0A4.11,4.11,0,0,1,132.72,147Z"/><path class="cls-25" d="M135,149.85a7.41,7.41,0,0,1-2.35-.1,1.9,1.9,0,0,1-.15-.92,10.12,10.12,0,0,1,2.4-.07A4.45,4.45,0,0,1,135,149.85Z"/><path class="cls-26" d="M133.3,159.22c0,.32,1.66,0,1.66.22v1.44a26.42,26.42,0,0,0-3.21,0c-.11.13.13,2.38-.12,2.38s-8.07-.18-8.23,0a19.41,19.41,0,0,0,.43,4.14c.16.19,6.31-.21,6.49,0s0,1.17.21,1.38,3.83.2,3.95.34a1.6,1.6,0,0,1,.16.61l-3.73-.22v1.32l4.3-.29s.25-11.12.25-11.64-2.2-.54-2.2-.54Z"/><path class="cls-25" d="M129.77,167.88c.1.12.23,3.34.3,3.43s4.93-.15,5.05,0a14.46,14.46,0,0,1,0,3.72c-.2,0-9.09-.26-9.09-.58v-3.23l2.55-.1a12.06,12.06,0,0,1-2.3-.29c0-.14.1-2.06.1-2.18s-4.71.22-4.71,0-.1-.65,0-.77A75.47,75.47,0,0,1,129.77,167.88Z"/><path class="cls-25" d="M137.06,155.71c0,.24,8.3,0,8.3,0a4.47,4.47,0,0,0,0-1.27c-.12-.14-4.7-.26-4.81-.39s3.08-.1,3.18-.22a12.71,12.71,0,0,0,0-3.14,37,37,0,0,0-5.86,0,17.34,17.34,0,0,0-.42,2s4.55-.1,4.55.21-.09.73-.15.73-3.09,0-3.14.1a3.64,3.64,0,0,0,0,.76s1.73-.06,1.77,0,.3.88.3.88-3.74,0-3.74.08Z"/><path class="cls-26" d="M137.06,176.05c0,.24,8.3,0,8.3,0a4.47,4.47,0,0,0,0-1.27c-.12-.14-4.7-.26-4.81-.39s3.08-.1,3.18-.21a12.79,12.79,0,0,0,0-3.15,37,37,0,0,0-5.86,0,17.34,17.34,0,0,0-.42,2s4.55-.1,4.55.21-.09.73-.15.73-3.09,0-3.14.1a3.64,3.64,0,0,0,0,.76s1.73-.06,1.77,0,.3.88.3.88-3.74,0-3.74.08Z"/><path class="cls-26" d="M145.21,153.63a37.4,37.4,0,0,0,5.5,0,12.85,12.85,0,0,0,.36-2.94c-.12-.14-3.9-.44-3.9-.44s2.67,0,2.67-.23a9.33,9.33,0,0,0-.16-2.4c-.2-.25-4.69-.3-4.69,0S145.21,153.63,145.21,153.63Z"/><path class="cls-26" d="M135.63,162.5a37.4,37.4,0,0,0,5.5,0,12.37,12.37,0,0,0,.35-2.94c-.11-.14-3.9-.44-3.9-.44s2.67,0,2.67-.23.05-.14-.15-.38-4.62-.06-4.62.23S135.63,162.5,135.63,162.5Z"/><path class="cls-26" d="M143.56,149.68c-.13.15-7.14.29-7.14,0a29.21,29.21,0,0,1,.45-3.54c.13-.16,5-.13,5.23-.34a5.08,5.08,0,0,0,.22-1.61,20.9,20.9,0,0,0-3.43-.29s.22-1.27.43-1.27,6.54.14,6.66.29a3.72,3.72,0,0,1,0,1.45c-.07.09-3.06.06-3.14.16a3.25,3.25,0,0,0-.1.86c0,.08,2.8,0,2.87.09s.16,1.08,0,1.08-4.82.07-4.82.2,2.58,0,2.64.1A15.51,15.51,0,0,1,143.56,149.68Z"/><path class="cls-26" d="M143.86,188.38c-.12.12-7.13.24-7.13,0a17.55,17.55,0,0,1,.45-2.81c.13-.13,5-.1,5.23-.27a3.49,3.49,0,0,0,.22-1.28,26.35,26.35,0,0,0-3.43-.23s.22-1,.42-1,6.54.11,6.67.23a2.35,2.35,0,0,1,0,1.15c-.08.07-3.06.05-3.14.13s-.11.62-.11.68,2.81,0,2.88.08.15.86,0,.86-4.81.05-4.81.15,2.57,0,2.64.09A9.19,9.19,0,0,1,143.86,188.38Z"/><path class="cls-25" d="M149.22,162.48a29.65,29.65,0,0,1-5.33,0,21.31,21.31,0,0,1,.33-2.65c.1-.12,3.78-.1,3.91-.25a3.69,3.69,0,0,0,.17-1.21,15.93,15.93,0,0,0-2.57-.22s.17-.94.32-.94,4.89.11,5,.21a2.5,2.5,0,0,1,0,1.09c-.05.06-2.28,0-2.34.12a2,2,0,0,0-.08.64c0,.06,2.1,0,2.15.07s.11.81,0,.81-3.6,0-3.6.15,1.93,0,2,.07A10.55,10.55,0,0,1,149.22,162.48Z"/><path class="cls-25" d="M136.08,157.78c-.21.25,7.89.24,8.09,0a2.1,2.1,0,0,0,0-1.4c-.12-.14-7.37-.17-7.6-.17S136.08,157.78,136.08,157.78Z"/><path class="cls-25" d="M141.66,162.47c0,.2,1.67,0,1.82,0a7.09,7.09,0,0,0,.41-2.39,5.68,5.68,0,0,0-1.86-.18C142,160,141.66,162.47,141.66,162.47Z"/><path class="cls-25" d="M137.1,179.24c0,.2,2.1.15,2.25.15a8.41,8.41,0,0,0,0-2.55,5.72,5.72,0,0,0-1.86-.17C137.4,176.76,137.1,179.24,137.1,179.24Z"/><path class="cls-26" d="M136.28,183c0,.19,2.09.15,2.25.15a11.5,11.5,0,0,0,.69-3.09,18,18,0,0,0-3.36,0C135.78,180.15,136.28,183,136.28,183Z"/><path class="cls-25" d="M145.71,156.74a25.45,25.45,0,0,0,5.38,0,8.12,8.12,0,0,0-.09-1.6,22.86,22.86,0,0,0-2.6-.28s4.15.14,4.26,0a1.41,1.41,0,0,0,0-.93c-.09-.11-6.95.18-6.95.27v1.19a26,26,0,0,1,2.86.15c.09.1-2.85,0-2.94.09A2.45,2.45,0,0,0,145.71,156.74Z"/><path class="cls-26" d="M147.79,159.35a23.9,23.9,0,0,1-4.23,0,1.89,1.89,0,0,1-.14-.92,31.43,31.43,0,0,1,4.23,0A4,4,0,0,1,147.79,159.35Z"/><path class="cls-25" d="M141.24,165.46a38.12,38.12,0,0,1-5.35-.16,10.23,10.23,0,0,1-.12-2.2,47.22,47.22,0,0,1,5.32,0A19.91,19.91,0,0,1,141.24,165.46Z"/><path class="cls-25" d="M141.54,166.94a24.9,24.9,0,0,1-4.23,0,2.07,2.07,0,0,1-.14-.93,31.43,31.43,0,0,1,4.23,0A4.11,4.11,0,0,1,141.54,166.94Z"/><path class="cls-25" d="M140.69,185.21a23.9,23.9,0,0,1-4.23,0,1.89,1.89,0,0,1-.14-.92,31.43,31.43,0,0,1,4.23,0A4,4,0,0,1,140.69,185.21Z"/><path class="cls-25" d="M151,147a24.9,24.9,0,0,1-4.23,0,1.94,1.94,0,0,1-.14-.93,33.17,33.17,0,0,1,4.23,0A4.11,4.11,0,0,1,151,147Z"/><path class="cls-25" d="M153.22,149.85a7.41,7.41,0,0,1-2.35-.1,1.9,1.9,0,0,1-.15-.92,10.12,10.12,0,0,1,2.4-.07A4.45,4.45,0,0,1,153.22,149.85Z"/><path class="cls-26" d="M151.56,159.22c0,.32,1.66,0,1.66.22v1.44a26.26,26.26,0,0,0-3.2,0c-.12.13.12,2.38-.13,2.38s-8.07-.18-8.23,0a19.41,19.41,0,0,0,.43,4.14c.16.19,6.31-.21,6.49,0s0,1.17.21,1.38,3.83.2,4,.34a1.6,1.6,0,0,1,.16.61l-3.73-.22v1.32l4.3-.29s.25-11.12.25-11.64-2.2-.54-2.2-.54Z"/><path class="cls-25" d="M148,167.88c.1.12.23,3.34.3,3.43s4.93-.15,5,0a14,14,0,0,1,0,3.72c-.2,0-9.09-.26-9.09-.58v-3.23l2.56-.1a12.17,12.17,0,0,1-2.31-.29c0-.14.1-2.06.1-2.18s-4.71.22-4.71,0-.1-.65,0-.77A75.47,75.47,0,0,1,148,167.88Z"/></g></g><polygon class="cls-27" points="73.27 170.71 77.14 184.01 80.51 186.34 91.51 185.61 102.93 186.13 118 188.17 119.7 189.25 58.2 191.22 73.27 170.71"/><polygon class="cls-28" points="38.92 191.2 58.86 191.2 54.66 169.74 38.92 191.2"/><polygon class="cls-29" points="58.86 191.2 69.86 191.2 54.66 169.74 58.86 191.2"/><polygon class="cls-9" points="41.74 187.35 63.36 182.1 70.18 190.96 38.92 191.2 41.74 187.35"/><polygon class="cls-9" points="38.92 191.2 70.18 190.96 68.25 188.92 40.47 189.08 38.92 191.2"/><ellipse class="cls-30" cx="93.76" cy="189.51" rx="0.79" ry="0.95"/><path class="cls-31" d="M93.45,189.24a.53.53,0,0,0,0,.65.35.35,0,0,0,.54,0,.54.54,0,0,0-.05-.65A.33.33,0,0,0,93.45,189.24Z"/><polygon class="cls-32" points="73.86 189.02 72.91 189.02 72.15 186.14 71.76 186.14 71.51 185.35 71.15 185.35 70.84 183.81 65.58 184 65.16 185.35 63.36 185.35 62.85 186.33 62.3 186.33 61.41 189.02 60.64 189.02 59.59 192.29 74.48 192.29 73.86 189.02"/><polygon class="cls-33" points="71.51 185.35 76.41 185.35 77.04 186.14 77.57 186.14 78.71 189.06 79.41 189.06 80.25 192.29 74.48 192.29 73.86 189.02 72.91 189.02 72.15 186.14 71.76 186.14 71.51 185.35"/><polygon class="cls-33" points="70.84 183.81 74.48 183.88 74.95 184.66 71 184.59 70.84 183.81"/><polygon class="cls-34" points="60.64 189.02 61.48 188.82 72.82 188.74 73.86 189.02 60.64 189.02"/><polygon class="cls-35" points="79.41 189.06 78.64 188.88 72.82 188.74 73.86 189.02 79.41 189.06"/><polygon class="cls-36" points="77.57 186.14 76.88 185.94 71.7 185.94 72.15 186.14 77.57 186.14"/><polygon class="cls-37" points="72.15 186.14 71.7 185.94 62.96 186.14 62.3 186.33 72.15 186.14"/><polygon class="cls-38" points="63.36 185.35 65.35 184.75 71.05 184.59 71.51 185.35 63.36 185.35"/><polygon class="cls-39" points="76.41 185.35 74.95 184.66 71.05 184.59 71.51 185.35 76.41 185.35"/><polygon class="cls-40" points="78.57 191.53 81.22 185.47 89.4 184.33 91.33 187.06 98.26 187.06 99.47 187.69 105.99 187.81 108.76 191.99 111.09 191.99 112.61 193.16 74.93 193.16 76.28 191.99 78.57 191.53"/><polygon class="cls-41" points="89.4 184.33 86.63 185.57 81.22 185.47 81.22 185.47 89.4 184.33"/><polygon class="cls-41" points="91.33 187.06 90.04 188.05 96.31 188.05 98.26 187.06 91.33 187.06"/><polygon class="cls-41" points="99.47 187.69 97.61 188.83 100.73 188.98 105.58 188.34 105.99 187.81 99.47 187.69"/><polygon class="cls-41" points="108.76 191.99 107.32 192.29 110.29 192.54 111.09 191.99 108.76 191.99"/><polygon class="cls-41" points="87.31 189.95 90.19 190.3 93.87 190.3 89.08 191.2 87.31 189.95"/><polygon class="cls-41" points="78.57 191.53 76.28 191.99 80.87 192.29 78.57 191.53"/><polygon class="cls-41" points="96.88 191.2 101.96 191.57 98.72 192.18 96.88 191.2"/><polygon class="cls-20" points="76.28 191.99 78.42 192.13 78.42 193.16 74.93 193.16 76.28 191.99"/><polygon class="cls-20" points="81.22 193.16 80.87 192.29 78.57 191.53 81.22 185.47 86.63 185.57 87.31 189.95 89.08 191.2 89.08 193.16 81.22 193.16"/><polygon class="cls-20" points="90.04 188.05 90.04 190.28 93.87 190.3 94.38 193.16 96.57 193.16 98.72 193.16 98.72 192.18 96.88 191.2 101.96 191.57 103.09 193.16 110.31 193.16 110.29 192.54 107.32 192.29 105.58 188.34 100.73 188.98 97.61 188.83 96.31 188.05 90.04 188.05"/><polygon class="cls-42" points="112.61 193.16 111.09 191.99 108.76 191.99 105.99 187.81 99.47 187.69 98.26 187.06 91.33 187.06 89.4 184.33 81.22 185.47 89.23 184.51 91.13 187.21 98.26 187.18 99.35 187.77 105.89 187.95 108.5 192.04 111.09 192.18 112.61 193.16"/><polygon class="cls-43" points="178.62 187.05 176.46 182.11 169.79 181.17 168.21 183.4 162.56 183.4 161.57 183.92 156.26 184.02 154 187.43 152.1 187.43 150.86 188.38 181.59 188.38 180.49 187.43 178.62 187.05"/><polygon class="cls-41" points="169.79 181.17 172.05 182.19 176.46 182.11 176.46 182.11 169.79 181.17"/><polygon class="cls-41" points="168.21 183.4 169.27 184.21 164.15 184.21 162.56 183.4 168.21 183.4"/><polygon class="cls-41" points="161.57 183.92 163.09 184.85 160.55 184.97 156.59 184.45 156.26 184.02 161.57 183.92"/><polygon class="cls-41" points="154 187.43 155.17 187.67 152.75 187.87 152.1 187.43 154 187.43"/><polygon class="cls-41" points="171.49 185.76 169.15 186.05 166.14 186.05 170.04 186.78 171.49 185.76"/><polygon class="cls-41" points="178.62 187.05 180.49 187.43 176.74 187.67 178.62 187.05"/><polygon class="cls-41" points="163.69 186.78 159.55 187.09 162.19 187.58 163.69 186.78"/><polygon class="cls-20" points="180.49 187.43 178.74 187.54 178.74 188.38 181.59 188.38 180.49 187.43"/><polygon class="cls-20" points="176.46 188.38 176.74 187.67 178.62 187.05 176.46 182.11 172.05 182.19 171.49 185.76 170.04 186.78 170.04 188.38 176.46 188.38"/><polygon class="cls-20" points="169.27 184.21 169.27 186.03 166.14 186.05 165.73 188.38 163.94 188.38 162.19 188.38 162.19 187.58 163.69 186.78 159.55 187.09 158.62 188.38 152.73 188.38 152.75 187.87 155.17 187.67 156.59 184.45 160.55 184.97 163.09 184.85 164.15 184.21 169.27 184.21"/><polygon class="cls-18" points="150.86 188.38 152.1 187.43 154 187.43 156.26 184.02 161.57 183.92 162.56 183.4 168.21 183.4 169.79 181.17 176.46 182.11 169.92 181.32 168.38 183.53 162.56 183.5 161.67 183.98 156.34 184.13 154.21 187.47 152.1 187.58 150.86 188.38"/><polygon class="cls-44" points="140.2 189.95 142.35 181.17 146.44 181.15 146.41 189.95 140.2 189.95"/><polygon class="cls-45" points="152.19 189.95 146.41 189.95 146.14 181.15 149.36 181.12 152.19 189.95"/><polygon class="cls-46" points="142.71 181.17 143.26 178.6 146.58 178.6 146.84 181.16 142.71 181.17"/><polygon class="cls-47" points="146.58 178.6 148.04 178.6 148.96 181.12 146.58 181.16 146.58 178.6"/><polygon class="cls-48" points="139.4 189.95 140.2 187.55 152.19 187.55 153.04 189.95 139.4 189.95"/><polygon class="cls-49" points="145.97 187.55 145.84 189.95 153.04 189.95 152.19 187.55 145.97 187.55"/><polygon class="cls-18" points="139.4 189.95 140.2 187.55 145.97 187.55 140.2 187.4 139.4 189.95"/><polygon class="cls-18" points="146.14 181.15 142.35 181.17 140.83 187.4 142.47 181.38 146.14 181.15"/><polygon class="cls-18" points="146.58 178.6 143.26 178.6 142.78 180.83 143.32 178.77 146.58 178.6"/><polygon class="cls-9" points="141.92 182.92 146.24 182.92 150 183.1 150.66 185.19 141.44 184.88 141.92 182.92"/><polygon class="cls-9" points="146.32 186.73 151.2 186.85 151.42 187.55 146.33 187.55 146.32 186.73"/><polygon class="cls-50" points="89.56 148.51 89.18 149.03 93.09 149.03 94.37 150.32 100.53 150.91 103.16 153.86 108.92 152.01 111.78 151.88 111.5 151.5 93.27 148.51 89.56 148.51"/><polygon class="cls-51" points="89.56 148.51 93.27 148.51 94.46 149.74 100.83 150.47 103.32 153.33 108.92 151.5 111.5 151.5 99.65 134.76 89.56 148.51"/><polygon class="cls-52" points="103.32 153.33 99.65 134.76 111.5 151.5 108.92 151.5 103.32 153.33"/><polygon class="cls-53" points="72.15 186.14 72.82 188.74 73.54 189.02 74.04 189.95 73.94 189.02 73.03 188.74 72.34 186.14 72.15 186.14"/><polygon class="cls-54" points="86.43 185.57 86.86 185.47 86.72 186.13 86.43 185.57"/><polygon class="cls-54" points="88.89 191.06 89.22 191.17 89.06 191.39 88.89 191.06"/><polygon class="cls-54" points="98.37 191.99 98.94 192.14 98.76 192.35 98.37 191.99"/><polygon class="cls-54" points="105.33 188.37 105.83 188.9 105.58 188.34 105.33 188.37"/><polygon class="cls-55" points="19.39 189.1 20.3 189.33 19.73 189.83 19.39 189.1"/><polygon class="cls-55" points="28.86 185.88 29.82 186.34 29.7 185.93 28.86 185.88"/><polygon class="cls-55" points="16 184.94 16.58 184.9 16.47 185.21 16 184.94"/><polygon class="cls-25" points="74.65 196.99 76.34 197.92 90.7 197.92 91.51 196.99 74.65 196.99"/><ellipse class="cls-56" cx="117.28" cy="193.05" rx="5.08" ry="0.18"/><path class="cls-57" d="M119.71,193.07l-6.14,0,.46-.25h0c.79-.43,2.36-1.87,2.63-1.87a4.5,4.5,0,0,1,1.06.46A9.21,9.21,0,0,1,119.71,193.07Z"/><path class="cls-58" d="M117.72,191.36a5.54,5.54,0,0,1-.77,1c-.19.09-2.81.38-2.92.39.79-.43,2.36-1.87,2.63-1.87A4.5,4.5,0,0,1,117.72,191.36Z"/></g></g></svg>