<svg id="Layer_1" data-name="Layer 1" xmlns="http://www.w3.org/2000/svg" width="100" height="100" viewBox="0 0 100 100"><title>history</title><g id="Circle_Grid" data-name="Circle Grid"><circle cx="50" cy="50" r="50" style="fill:#69b0ee"/></g><g id="icon"><path d="M442.2,41.62h40v33h-40Z" transform="translate(-412 0)" style="fill:#575b6d"/><path d="M433.84,40.32h56.32v2.59H433.84Z" transform="translate(-412 0)" style="fill:#dbd8dd"/><path d="M434.93,72.41h54.14v4.42H434.93Z" transform="translate(-412 0)" style="fill:#dbd8dd"/><path d="M432.39,76h59.22v4.52H432.39Z" transform="translate(-412 0)" style="fill:#eeefee"/><path d="M462,16.41,430,40.32H494Z" transform="translate(-412 0)" style="fill:#eeefee"/><path d="M437.39,37.68,462,19.16l24.61,18.52Z" transform="translate(-412 0)" style="fill:#dbd8dd"/><path d="M438.38,45.67H446V69.75h-7.64Z" transform="translate(-412 0)" style="fill:#dbd8dd"/><path d="M437,42.91h10.32v2.28a1,1,0,0,1-1,1H438a1,1,0,0,1-1-1V42.91Z" transform="translate(-412 0)" style="fill:#eeefee"/><path d="M438,69.24h8.34a1,1,0,0,1,1,1h0v2.19H437V70.23a1,1,0,0,1,1-1Z" transform="translate(-412 0)" style="fill:#e4e7e7"/><path d="M458.18,45.67h7.64V69.75h-7.64Z" transform="translate(-412 0)" style="fill:#dbd8dd"/><path d="M456.84,42.91h10.32v2.28a1,1,0,0,1-1,1h-8.34a1,1,0,0,1-1-1V42.91Z" transform="translate(-412 0)" style="fill:#eeefee"/><path d="M457.83,69.24h8.34a1,1,0,0,1,1,1h0v2.19H456.84V70.23a1,1,0,0,1,1-1Z" transform="translate(-412 0)" style="fill:#e4e7e7"/><path d="M478,45.67h7.64V69.75H478Z" transform="translate(-412 0)" style="fill:#dbd8dd"/><path d="M476.65,42.91H487v2.28a1,1,0,0,1-1,1h-8.34a1,1,0,0,1-1-1h0V42.91Z" transform="translate(-412 0)" style="fill:#eeefee"/><path d="M477.63,69.24H486a1,1,0,0,1,1,1h0v2.19H476.64V70.23a1,1,0,0,1,1-1Z" transform="translate(-412 0)" style="fill:#e4e7e7"/><path d="M465.23,27A3.22,3.22,0,0,1,462,30.19h0a3.23,3.23,0,1,1,3.22-3.32A.31.31,0,0,1,465.23,27Z" transform="translate(-412 0)" style="fill:#575b6d"/></g></svg>