<svg xmlns="http://www.w3.org/2000/svg" width="188.4871" height="210.8553" viewBox="0 0 188.4871 210.8553"><defs><style>.cls-1{isolation:isolate;}.cls-18,.cls-2{fill:none;}.cls-3{fill:#f3f3f3;}.cls-4{fill:#ccc;}.cls-5{fill:#010101;}.cls-6{fill:#fff9e4;}.cls-7{fill:#def1f3;}.cls-8{fill:#d7cce5;}.cls-9{fill:#241e42;}.cls-10,.cls-12{fill:#181533;}.cls-10,.cls-23{opacity:0.1;}.cls-10,.cls-21,.cls-23{mix-blend-mode:multiply;}.cls-11{fill:#50486e;}.cls-13{fill:#a89dc6;}.cls-14{opacity:0.5;}.cls-15{fill:#fff6cb;}.cls-16{fill:#ffdc80;}.cls-17{fill:#8dd4de;}.cls-18{stroke:#50486e;stroke-miterlimit:10;stroke-width:0.5px;}.cls-19{opacity:0.04;mix-blend-mode:hard-light;}.cls-20{fill:#fff;}.cls-21{opacity:0.2;}.cls-22{fill:#978dc4;}</style></defs><title>IT-2</title><g class="cls-1"><g id="Layer_1" data-name="Layer 1"><rect class="cls-2" x="4.6055" width="183.8816" height="210.8553"/><rect class="cls-3" x="80.1133" y="46.8805" width="99.6017" height="136.4054" rx="4"/><rect class="cls-4" x="90.6318" y="141.0113" width="69.0324" height="4.0138" rx="1.8818"/><rect class="cls-4" x="89.9845" y="100.1564" width="69.0324" height="4.0138" rx="1.8818"/><path class="cls-5" d="M96.9455,71.0542h-.9336v-7.84h.9336Z" transform="translate(4.6055)"/><path class="cls-5" d="M104.0969,71.0542h-.94L99.592,65.0127v6.0415h-.9385v-7.84h.9385l3.5752,6.0688V63.2139h.93Z" transform="translate(4.6055)"/><path class="cls-5" d="M109.6623,67.5918H106.69v3.4624h-.9336v-7.84h4.3877V64.06H106.69v2.687h2.9726Z" transform="translate(4.6055)"/><path class="cls-5" d="M116.7111,67.3872a5.3068,5.3068,0,0,1-.35,2.0113,2.8814,2.8814,0,0,1-.9922,1.311,2.6771,2.6771,0,0,1-2.9825-.0024,2.9452,2.9452,0,0,1-1.0039-1.2979,5.0711,5.0711,0,0,1-.3671-1.9521v-.5655a5.2478,5.2478,0,0,1,.3544-1.9975,2.9483,2.9483,0,0,1,1.0049-1.3272,2.5046,2.5046,0,0,1,1.4864-.46,2.5533,2.5533,0,0,1,1.5009.455,2.8766,2.8766,0,0,1,.9991,1.3194,5.33,5.33,0,0,1,.35,2.0107Zm-.93-.5063a3.7945,3.7945,0,0,0-.5059-2.14,1.6952,1.6952,0,0,0-2.8086,0,3.7072,3.7072,0,0,0-.5234,2.07v.5761a3.8005,3.8005,0,0,0,.5136,2.1245,1.6935,1.6935,0,0,0,2.8135.043,3.7787,3.7787,0,0,0,.5108-2.0923Z" transform="translate(4.6055)"/><path class="cls-5" d="M120.71,67.8828h-1.6641v3.1714h-.9385v-7.84h2.3448a2.5927,2.5927,0,0,1,1.8408.6035,2.6021,2.6021,0,0,1,.2871,3.0313,2.1635,2.1635,0,0,1-.9951.8129l1.664,3.3282v.0644h-1.0019Zm-1.6641-.8457h1.4356a1.5221,1.5221,0,0,0,1.1064-.3989,1.423,1.423,0,0,0,.4111-1.0684,1.5058,1.5058,0,0,0-.3916-1.1166,1.5573,1.5573,0,0,0-1.1308-.3936h-1.4307Z" transform="translate(4.6055)"/><path class="cls-5" d="M125.4533,63.2139l2.3155,6.3975,2.3154-6.3975h1.2109v7.84h-.9336V68.001l.0879-3.2954-2.3261,6.3486h-.7149l-2.32-6.3325.0928,3.2793v3.0532h-.9346v-7.84Z" transform="translate(4.6055)"/><path class="cls-5" d="M136.9436,69.0025h-2.9678l-.666,2.0517h-.9639l2.7051-7.84h.8174l2.71,7.84h-.959Zm-2.6856-.8452h2.4082l-1.207-3.667Z" transform="translate(4.6055)"/><path class="cls-5" d="M143.7981,64.06h-2.2764v6.9946h-.93V64.06h-2.2715v-.8457h5.4776Z" transform="translate(4.6055)"/><path class="cls-5" d="M145.8508,71.0542h-.9336v-7.84h.9336Z" transform="translate(4.6055)"/><path class="cls-5" d="M153.007,67.3872a5.3068,5.3068,0,0,1-.3505,2.0113,2.8814,2.8814,0,0,1-.9922,1.311,2.6771,2.6771,0,0,1-2.9825-.0024,2.9452,2.9452,0,0,1-1.0039-1.2979,5.0711,5.0711,0,0,1-.3671-1.9521v-.5655a5.2478,5.2478,0,0,1,.3544-1.9975,2.9476,2.9476,0,0,1,1.0049-1.3272,2.5046,2.5046,0,0,1,1.4864-.46,2.5533,2.5533,0,0,1,1.5009.455,2.8772,2.8772,0,0,1,.9991,1.3194,5.33,5.33,0,0,1,.3505,2.0107Zm-.93-.5063a3.7945,3.7945,0,0,0-.5059-2.14,1.6952,1.6952,0,0,0-2.8086,0,3.7072,3.7072,0,0,0-.5234,2.07v.5761a3.8005,3.8005,0,0,0,.5136,2.1245,1.6935,1.6935,0,0,0,2.8135.043,3.7787,3.7787,0,0,0,.5108-2.0923Z" transform="translate(4.6055)"/><path class="cls-5" d="M159.8518,71.0542h-.94l-3.5654-6.0415v6.0415h-.9385v-7.84h.9385l3.5752,6.0688V63.2139h.93Z" transform="translate(4.6055)"/><path class="cls-5" d="M101.716,77.293H99.4387v6.9946H98.51V77.293H96.2375v-.8457h5.4785Z" transform="translate(4.6055)"/><path class="cls-5" d="M106.77,80.6636H103.7v2.7788h3.5664v.8452h-4.5v-7.84h4.4512v.8457H103.7v2.5254H106.77Z" transform="translate(4.6055)"/><path class="cls-5" d="M113.6389,81.8a3.0131,3.0131,0,0,1-.8291,1.92,2.557,2.557,0,0,1-1.8555.6757,2.4,2.4,0,0,1-2.0117-.9965,4.2951,4.2951,0,0,1-.7568-2.6651V79.98a4.873,4.873,0,0,1,.3525-1.9224,2.8469,2.8469,0,0,1,1-1.2734,2.5808,2.5808,0,0,1,1.498-.4443,2.4139,2.4139,0,0,1,1.81.6972,3.0594,3.0594,0,0,1,.793,1.9307H112.7a2.3661,2.3661,0,0,0-.5283-1.3613,1.5037,1.5037,0,0,0-1.1358-.4214,1.6167,1.6167,0,0,0-1.4033.7329,3.6353,3.6353,0,0,0-.5088,2.0859v.76a3.7385,3.7385,0,0,0,.4825,2.0317,1.5134,1.5134,0,0,0,1.3476.7544,1.6774,1.6774,0,0,0,1.1934-.39A2.2723,2.2723,0,0,0,112.7,81.8Z" transform="translate(4.6055)"/><path class="cls-5" d="M120.3576,84.2876h-.9394v-3.624h-3.57v3.624h-.9336v-7.84h.9336v3.3711h3.57V76.4473h.9394Z" transform="translate(4.6055)"/><path class="cls-5" d="M127.46,84.2876h-.9395l-3.5654-6.0415v6.0415h-.9385v-7.84h.9385l3.5752,6.0688V76.4473h.93Z" transform="translate(4.6055)"/><path class="cls-5" d="M134.5676,80.6206a5.3067,5.3067,0,0,1-.3506,2.0113,2.8814,2.8814,0,0,1-.9922,1.311,2.6769,2.6769,0,0,1-2.9824-.0024,2.9445,2.9445,0,0,1-1.0039-1.2979,5.0711,5.0711,0,0,1-.3672-1.9521V80.125a5.2478,5.2478,0,0,1,.3545-1.9975A2.9476,2.9476,0,0,1,130.2307,76.8a2.5045,2.5045,0,0,1,1.4863-.46,2.5534,2.5534,0,0,1,1.501.455,2.8771,2.8771,0,0,1,.999,1.3194,5.33,5.33,0,0,1,.3506,2.0107Zm-.93-.5063a3.7945,3.7945,0,0,0-.5059-2.14,1.6952,1.6952,0,0,0-2.8086,0,3.708,3.708,0,0,0-.5234,2.07v.5761a3.8,3.8,0,0,0,.5137,2.1245,1.6935,1.6935,0,0,0,2.8135.043,3.78,3.78,0,0,0,.5107-2.0923Z" transform="translate(4.6055)"/><path class="cls-5" d="M136.9074,83.4424h3.3565v.8452H135.969v-7.84h.9384Z" transform="translate(4.6055)"/><path class="cls-5" d="M146.4611,80.6206a5.3072,5.3072,0,0,1-.35,2.0113,2.8807,2.8807,0,0,1-.9922,1.311,2.6769,2.6769,0,0,1-2.9824-.0024,2.94,2.94,0,0,1-1.0049-1.2979,5.09,5.09,0,0,1-.3671-1.9521V80.125a5.2283,5.2283,0,0,1,.3554-1.9975A2.94,2.94,0,0,1,142.1242,76.8a2.5068,2.5068,0,0,1,1.4864-.46,2.5511,2.5511,0,0,1,1.5009.455,2.8781,2.8781,0,0,1,1,1.3194,5.3307,5.3307,0,0,1,.35,2.0107Zm-.9287-.5063a3.8027,3.8027,0,0,0-.5058-2.14,1.6172,1.6172,0,0,0-1.416-.7456,1.6,1.6,0,0,0-1.3936.7456,3.7074,3.7074,0,0,0-.5225,2.07v.5761a3.8083,3.8083,0,0,0,.5127,2.1245,1.6944,1.6944,0,0,0,2.8145.043,3.7788,3.7788,0,0,0,.5107-2.0923Z" transform="translate(4.6055)"/><path class="cls-5" d="M153.092,83.2593a2.2021,2.2021,0,0,1-1.0039.8535,3.7146,3.7146,0,0,1-1.501.2827,2.6972,2.6972,0,0,1-1.5371-.45,2.9109,2.9109,0,0,1-1.0391-1.2788,4.8178,4.8178,0,0,1-.3769-1.9223v-.6841a4.4282,4.4282,0,0,1,.7471-2.7461A2.49,2.49,0,0,1,150.48,76.34a2.5185,2.5185,0,0,1,1.7852.6274,2.8338,2.8338,0,0,1,.8271,1.7793h-.9336a1.704,1.704,0,0,0-3.0967-.831,3.8676,3.8676,0,0,0-.4892,2.1152v.6411a3.5992,3.5992,0,0,0,.5449,2.0991,1.7085,1.7085,0,0,0,1.4746.7788,2.9588,2.9588,0,0,0,.9189-.1289,1.4059,1.4059,0,0,0,.6524-.435V81.229h-1.64v-.8452h2.5684Z" transform="translate(4.6055)"/><path class="cls-5" d="M156.8088,80.3838l1.8486-3.9365h1.0606l-2.4424,4.9165v2.9238h-.9336V81.3638L153.9,76.4473h1.07Z" transform="translate(4.6055)"/><rect class="cls-4" x="89.3649" y="120.96" width="69.0324" height="4.0138" rx="1.8818"/><polygon class="cls-6" points="88.31 108.893 62.749 84.75 6.268 138.099 31.829 162.243 88.31 108.893"/><polygon class="cls-7" points="47.007 93.567 43.043 89.823 11.639 119.486 15.603 123.23 47.007 93.567"/><polygon class="cls-7" points="135.404 119.277 109.843 95.133 64.355 138.099 89.916 162.243 135.404 119.277"/><polygon class="cls-6" points="133.452 145.024 125.445 137.462 107.216 154.68 115.222 162.243 133.452 145.024"/><path class="cls-8" d="M23.5379,124.505H126.0616a3.34,3.34,0,0,1,3.34,3.34v71.53a0,0,0,0,1,0,0H20.198a0,0,0,0,1,0,0v-71.53A3.34,3.34,0,0,1,23.5379,124.505Z"/><path class="cls-9" d="M121.6661,124.76a2.9279,2.9279,0,0,1,2.8819,2.9654V199.375H15.8406V127.7256a2.9279,2.9279,0,0,1,2.8819-2.9654H121.6661" transform="translate(4.6055)"/><path class="cls-10" d="M144.994,203.7706c0-.5244-33.489-.95-74.8-.95s-74.8.4251-74.8.95,33.489.9494,74.8.9494S144.994,204.2949,144.994,203.7706Z" transform="translate(4.6055)"/><rect class="cls-11" x="22.112" y="128.0762" width="105.3756" height="67.8763"/><path class="cls-12" d="M122.696,128.2676V195.761H17.6925V128.2676H122.696" transform="translate(4.6055)"/><rect class="cls-11" x="20.4461" y="197.303" width="108.7074" height="2.072"/><path class="cls-8" d="M3.0222,199.5416v2.3153a.164.164,0,0,0,.1072.157c.7169.2542,5.0514,1.6539,13.5952,1.6539H123.6639c8.5438,0,12.8783-1.4,13.5953-1.6539a.1639.1639,0,0,0,.1071-.157v-2.3153a.1643.1643,0,0,0-.162-.1666H3.1842A.1643.1643,0,0,0,3.0222,199.5416Z" transform="translate(4.6055)"/><path class="cls-13" d="M3.071,201.9745a.1553.1553,0,0,0,.0584.0394c.7169.2542,5.0514,1.6539,13.5952,1.6539H123.6639c8.5438,0,12.8783-1.4,13.5953-1.6539a.1549.1549,0,0,0,.0583-.0394Z" transform="translate(4.6055)"/><path class="cls-13" d="M78.0476,200.911H62.341a1.5148,1.5148,0,0,1-1.4928-1.536H79.54A1.5149,1.5149,0,0,1,78.0476,200.911Z" transform="translate(4.6055)"/><rect class="cls-11" x="73.2839" y="135.1741" width="25.8397" height="54.1177" rx="3.7038"/><path class="cls-12" d="M90.8372,136.0728a2.8523,2.8523,0,0,1,2.8075,2.8888v46.5427a2.8523,2.8523,0,0,1-2.8075,2.8888H72.3594a2.8523,2.8523,0,0,1-2.8076-2.8888V138.9616a2.8523,2.8523,0,0,1,2.8076-2.8888H90.8372" transform="translate(4.6055)"/><path class="cls-9" d="M90.7939,136.62H88.4606a.2883.2883,0,0,0-.28.26,1.8817,1.8817,0,0,1-1.8456,1.6565H76.8611a1.8815,1.8815,0,0,1-1.8455-1.6565.2874.2874,0,0,0-.2787-.26H72.4025a2.4119,2.4119,0,0,0-2.3768,2.4457V185.4a2.4121,2.4121,0,0,0,2.3769,2.4457H90.7939A2.4121,2.4121,0,0,0,93.1708,185.4V139.0659A2.412,2.412,0,0,0,90.7939,136.62Z" transform="translate(4.6055)"/><g class="cls-14"><path class="cls-15" d="M79.4233,165.8559l1.0348-.67-.6045-1.5824a3.5785,3.5785,0,0,0,.5114-.7435l1.6518.0619.2712-1.2268-1.5154-.6793a3.6638,3.6638,0,0,0-.1485-.8979l1.21-1.1577-.6513-1.0648-1.5379.622a3.4749,3.4749,0,0,0-.7225-.5262l.06-1.7-1.1923-.2791-.66,1.5592a3.3888,3.3888,0,0,0-.8726.1528l-1.1251-1.2452-1.0349.67.6045,1.5824a3.5709,3.5709,0,0,0-.5113.7434l-1.6519-.0619-.2711,1.2268,1.5153.6794a3.67,3.67,0,0,0,.1485.8979l-1.21,1.1577.6513,1.0647,1.5379-.6219a3.4745,3.4745,0,0,0,.7225.5261l-.06,1.7,1.1923.279.66-1.5592a3.386,3.386,0,0,0,.8726-.1528Zm-4.4759-3.179a2.8823,2.8823,0,0,1,.8637-3.9074,2.7086,2.7086,0,0,1,3.7974.8888,2.8821,2.8821,0,0,1-.8638,3.9073A2.7084,2.7084,0,0,1,74.9474,162.6769Z" transform="translate(4.6055)"/><path class="cls-16" d="M88.6428,161.6974l.936-.8095-.809-1.4825a3.6153,3.6153,0,0,0,.4077-.8084l1.6445-.1711.1056-1.2534-1.5914-.46a3.6465,3.6465,0,0,0-.2664-.8685l1.045-1.3171-.7867-.9632-1.4408.8325a3.4408,3.4408,0,0,0-.7857-.4195l-.1662-1.6922-1.2182-.1086-.4468,1.6374a3.4089,3.4089,0,0,0-.8441.2742l-1.28-1.0752-.9361.8094.8091,1.4825a3.6112,3.6112,0,0,0-.4077.8084l-1.6446.1711-.1056,1.2535,1.5914.46a3.6532,3.6532,0,0,0,.2664.8686l-1.0449,1.3171.7866.9631,1.4408-.8325a3.4472,3.4472,0,0,0,.7857.42l.1663,1.6921,1.2181.1087.4468-1.6375a3.4018,3.4018,0,0,0,.8441-.2741Zm-4.8564-2.5194a2.89,2.89,0,0,1,.3364-3.9922,2.7007,2.7007,0,0,1,3.88.3461,2.89,2.89,0,0,1-.3364,3.9922A2.7007,2.7007,0,0,1,83.7864,159.178Zm.3729-.3225a2.3791,2.3791,0,0,1,.2769-3.286,2.2229,2.2229,0,0,1,3.1935.2849,2.3791,2.3791,0,0,1-.2769,3.286A2.223,2.223,0,0,1,84.1593,158.8555Z" transform="translate(4.6055)"/><path class="cls-7" d="M88.2814,170.0284l.7107-1.0237L87.85,167.7761a3.662,3.662,0,0,0,.1993-.8874l1.5513-.587-.2009-1.241-1.6525-.0376a3.5953,3.5953,0,0,0-.4682-.773l.6934-1.5433-.995-.7313-1.194,1.1754a3.3865,3.3865,0,0,0-.8624-.2051l-.57-1.5963-1.2061.2068-.0366,1.7a3.4583,3.4583,0,0,0-.7512.4817l-1.5-.7135-.7107,1.0238,1.1423,1.2286a3.662,3.662,0,0,0-.1993.8874l-1.5514.5869.201,1.241,1.6525.0377a3.5953,3.5953,0,0,0,.4682.773l-.6934,1.5432.9949.7314,1.194-1.1754a3.3966,3.3966,0,0,0,.8625.2051l.57,1.5963,1.2061-.2068.0366-1.7a3.4645,3.4645,0,0,0,.7512-.4817Zm-5.3131-1.1961a2.8865,2.8865,0,0,1-.64-3.9526,2.7044,2.7044,0,0,1,3.8414-.6587,2.8865,2.8865,0,0,1,.64,3.9527A2.7043,2.7043,0,0,1,82.9683,168.8323Z" transform="translate(4.6055)"/></g><path class="cls-12" d="M94.64,153.2117h0a.1237.1237,0,0,1-.1219-.1254v-5.7285a.1238.1238,0,0,1,.1219-.1255h0a.1237.1237,0,0,1,.1219.1255v5.7285A.1236.1236,0,0,1,94.64,153.2117Z" transform="translate(4.6055)"/><path class="cls-12" d="M68.5554,154.5332h0a.1238.1238,0,0,1-.1219-.1255l.0011-3.4732a.1237.1237,0,0,1,.1219-.1254h0a.1237.1237,0,0,1,.1219.1254l-.001,3.4733A.1237.1237,0,0,1,68.5554,154.5332Z" transform="translate(4.6055)"/><path class="cls-12" d="M68.5554,149.4425h0a.1238.1238,0,0,1-.1219-.1255l.0011-3.4732a.1237.1237,0,0,1,.1219-.1254h0a.1237.1237,0,0,1,.1219.1255l-.001,3.4732A.1237.1237,0,0,1,68.5554,149.4425Z" transform="translate(4.6055)"/><path class="cls-12" d="M68.5554,144.3519h0a.1238.1238,0,0,1-.1219-.1256l.0011-1.9814a.1237.1237,0,0,1,.1219-.1254h0a.1236.1236,0,0,1,.1219.1255l-.001,1.9815A.1238.1238,0,0,1,68.5554,144.3519Z" transform="translate(4.6055)"/><path class="cls-9" d="M83.18,137.1307H79.9109a.1679.1679,0,0,1-.1654-.17h0a.1679.1679,0,0,1,.1654-.17H83.18a.1678.1678,0,0,1,.1654.17h0A.1678.1678,0,0,1,83.18,137.1307Z" transform="translate(4.6055)"/><path class="cls-9" d="M84.8831,136.9605a.3086.3086,0,1,0-.3084.3174A.313.313,0,0,0,84.8831,136.9605Z" transform="translate(4.6055)"/><path class="cls-12" d="M84.8122,136.9605a.2376.2376,0,1,0-.2375.2444A.2411.2411,0,0,0,84.8122,136.9605Z" transform="translate(4.6055)"/><path class="cls-17" d="M84.63,136.9605a.0551.0551,0,1,0-.0551.0567A.0559.0559,0,0,0,84.63,136.9605Z" transform="translate(4.6055)"/><path class="cls-8" d="M44.1392,137.7042H24.5212a.6637.6637,0,0,0-.654.6729h0a.6636.6636,0,0,0,.654.6728h19.618a.6635.6635,0,0,0,.6539-.6728h0A.6636.6636,0,0,0,44.1392,137.7042Z" transform="translate(4.6055)"/><path class="cls-17" d="M36.1489,141.9935H24.2566a.3951.3951,0,0,0-.3894.4006h0a.3951.3951,0,0,0,.3894.4006H36.1489a.3951.3951,0,0,0,.3893-.4006h0A.395.395,0,0,0,36.1489,141.9935Z" transform="translate(4.6055)"/><path class="cls-11" d="M36.1489,147.808H24.2566a.395.395,0,0,0-.3894.4h0a.3951.3951,0,0,0,.3894.4006H36.1489a.395.395,0,0,0,.3893-.4006h0A.395.395,0,0,0,36.1489,147.808Z" transform="translate(4.6055)"/><path class="cls-11" d="M30.09,143.9317H24.2566a.395.395,0,0,0-.3894.4h0a.3951.3951,0,0,0,.3894.4006H30.09a.395.395,0,0,0,.3893-.4006h0A.395.395,0,0,0,30.09,143.9317Z" transform="translate(4.6055)"/><path class="cls-11" d="M52.3944,145.87H46.5607a.3951.3951,0,0,0-.3893.4006h0a.3951.3951,0,0,0,.3893.4006h5.8337a.3951.3951,0,0,0,.3893-.4006h0A.3951.3951,0,0,0,52.3944,145.87Z" transform="translate(4.6055)"/><path class="cls-17" d="M43.4644,147.808H37.6306a.395.395,0,0,0-.3893.4h0a.395.395,0,0,0,.3893.4006h5.8338a.395.395,0,0,0,.3893-.4006h0A.395.395,0,0,0,43.4644,147.808Z" transform="translate(4.6055)"/><path class="cls-11" d="M58.7459,141.9935H38.1015a.395.395,0,0,0-.3893.4006h0a.3951.3951,0,0,0,.3893.4006H58.7459a.3951.3951,0,0,0,.3893-.4006h0A.395.395,0,0,0,58.7459,141.9935Z" transform="translate(4.6055)"/><path class="cls-16" d="M44.9009,145.87H24.2566a.3951.3951,0,0,0-.3894.4006h0a.3951.3951,0,0,0,.3894.4006H44.9009a.3952.3952,0,0,0,.3894-.4006h0A.3952.3952,0,0,0,44.9009,145.87Z" transform="translate(4.6055)"/><path class="cls-11" d="M52.3944,143.9317H31.75a.395.395,0,0,0-.3894.4h0a.3951.3951,0,0,0,.3894.4006H52.3944a.395.395,0,0,0,.3893-.4006h0A.395.395,0,0,0,52.3944,143.9317Z" transform="translate(4.6055)"/><path class="cls-11" d="M62.6734,141.9935H60.7376a.395.395,0,0,0-.3893.4006h0a.3951.3951,0,0,0,.3893.4006h1.9358a.3951.3951,0,0,0,.3893-.4006h0A.395.395,0,0,0,62.6734,141.9935Z" transform="translate(4.6055)"/><path class="cls-11" d="M56.0339,145.87H54.0981a.3952.3952,0,0,0-.3894.4006h0a.3952.3952,0,0,0,.3894.4006h1.9358a.3951.3951,0,0,0,.3893-.4006h0A.3951.3951,0,0,0,56.0339,145.87Z" transform="translate(4.6055)"/><path class="cls-11" d="M47.1182,147.808H45.1825a.3951.3951,0,0,0-.3894.4h0a.3951.3951,0,0,0,.3894.4006h1.9357a.3951.3951,0,0,0,.3894-.4006h0A.395.395,0,0,0,47.1182,147.808Z" transform="translate(4.6055)"/><path class="cls-11" d="M30.09,149.7461H24.2566a.3951.3951,0,0,0-.3894.4006h0a.3951.3951,0,0,0,.3894.4006H30.09a.3951.3951,0,0,0,.3893-.4006h0A.3951.3951,0,0,0,30.09,149.7461Z" transform="translate(4.6055)"/><path class="cls-16" d="M33.7442,149.7461H31.8084a.395.395,0,0,0-.3893.4006h0a.395.395,0,0,0,.3893.4006h1.9358a.3951.3951,0,0,0,.3893-.4006h0A.3951.3951,0,0,0,33.7442,149.7461Z" transform="translate(4.6055)"/><path class="cls-8" d="M57.1153,137.7042H48.1047a.6637.6637,0,0,0-.654.6729h0a.6636.6636,0,0,0,.654.6728h9.0106a.6636.6636,0,0,0,.6539-.6728h0A.6636.6636,0,0,0,57.1153,137.7042Z" transform="translate(4.6055)"/><path class="cls-17" d="M109.0182,159.4753h-8.59a.5052.5052,0,0,0-.4978.5123h0a.5052.5052,0,0,0,.4978.5123h8.59a.5053.5053,0,0,0,.4979-.5123h0A.5053.5053,0,0,0,109.0182,159.4753Z" transform="translate(4.6055)"/><path class="cls-11" d="M105.4381,161.9752h-5.2117a.3008.3008,0,0,0-.2964.305h0a.3008.3008,0,0,0,.2964.305h5.2117a.3008.3008,0,0,0,.2964-.305h0A.3008.3008,0,0,0,105.4381,161.9752Z" transform="translate(4.6055)"/><path class="cls-11" d="M105.4381,166.4021h-5.2117a.3008.3008,0,0,0-.2964.305h0a.3007.3007,0,0,0,.2964.3049h5.2117a.3007.3007,0,0,0,.2964-.3049h0A.3008.3008,0,0,0,105.4381,166.4021Z" transform="translate(4.6055)"/><path class="cls-11" d="M102.6627,163.4508h-2.4363a.3008.3008,0,0,0-.2964.305h0a.3008.3008,0,0,0,.2964.305h2.4363a.3008.3008,0,0,0,.2964-.305h0A.3008.3008,0,0,0,102.6627,163.4508Z" transform="translate(4.6055)"/><path class="cls-11" d="M112.88,164.9264h-2.4363a.3008.3008,0,0,0-.2964.305h0a.3008.3008,0,0,0,.2964.305H112.88a.3008.3008,0,0,0,.2964-.305h0A.3008.3008,0,0,0,112.88,164.9264Z" transform="translate(4.6055)"/><path class="cls-11" d="M108.7893,166.4021H106.353a.3008.3008,0,0,0-.2964.305h0a.3007.3007,0,0,0,.2964.3049h2.4363a.3007.3007,0,0,0,.2964-.3049h0A.3008.3008,0,0,0,108.7893,166.4021Z" transform="translate(4.6055)"/><path class="cls-11" d="M115.79,161.9752h-9.221a.3008.3008,0,0,0-.2964.305h0a.3008.3008,0,0,0,.2964.305h9.221a.3008.3008,0,0,0,.2964-.305h0A.3008.3008,0,0,0,115.79,161.9752Z" transform="translate(4.6055)"/><path class="cls-11" d="M109.4474,164.9264h-9.221a.3008.3008,0,0,0-.2964.305h0a.3008.3008,0,0,0,.2964.305h9.221a.3008.3008,0,0,0,.2964-.305h0A.3008.3008,0,0,0,109.4474,164.9264Z" transform="translate(4.6055)"/><path class="cls-11" d="M112.88,163.4508h-9.221a.3008.3008,0,0,0-.2964.305h0a.3008.3008,0,0,0,.2964.305h9.221a.3008.3008,0,0,0,.2964-.305h0A.3008.3008,0,0,0,112.88,163.4508Z" transform="translate(4.6055)"/><path class="cls-11" d="M117.5889,161.9752h-.6507a.3008.3008,0,0,0-.2964.305h0a.3008.3008,0,0,0,.2964.305h.6507a.3008.3008,0,0,0,.2964-.305h0A.3008.3008,0,0,0,117.5889,161.9752Z" transform="translate(4.6055)"/><path class="cls-11" d="M114.5473,164.9264h-.6506a.3008.3008,0,0,0-.2964.305h0a.3008.3008,0,0,0,.2964.305h.6506a.3008.3008,0,0,0,.2964-.305h0A.3008.3008,0,0,0,114.5473,164.9264Z" transform="translate(4.6055)"/><path class="cls-11" d="M110.4631,166.4021h-.6506a.3007.3007,0,0,0-.2964.305h0a.3007.3007,0,0,0,.2964.3049h.6506a.3007.3007,0,0,0,.2964-.3049h0A.3008.3008,0,0,0,110.4631,166.4021Z" transform="translate(4.6055)"/><path class="cls-11" d="M102.6627,167.8777h-2.4363a.3008.3008,0,0,0-.2964.305h0a.3008.3008,0,0,0,.2964.305h2.4363a.3008.3008,0,0,0,.2964-.305h0A.3008.3008,0,0,0,102.6627,167.8777Z" transform="translate(4.6055)"/><path class="cls-11" d="M104.3365,167.8777h-.6507a.3008.3008,0,0,0-.2964.305h0a.3008.3008,0,0,0,.2964.305h.6507a.3008.3008,0,0,0,.2964-.305h0A.3008.3008,0,0,0,104.3365,167.8777Z" transform="translate(4.6055)"/><path class="cls-17" d="M114.9625,159.4753h-3.7311a.5053.5053,0,0,0-.4979.5123h0a.5053.5053,0,0,0,.4979.5123h3.7311a.5052.5052,0,0,0,.4978-.5123h0A.5052.5052,0,0,0,114.9625,159.4753Z" transform="translate(4.6055)"/><path class="cls-16" d="M109.0182,172.934h-8.59a.5052.5052,0,0,0-.4978.5123h0a.5052.5052,0,0,0,.4978.5123h8.59a.5053.5053,0,0,0,.4979-.5123h0A.5053.5053,0,0,0,109.0182,172.934Z" transform="translate(4.6055)"/><path class="cls-11" d="M105.4381,175.4339h-5.2117a.3008.3008,0,0,0-.2964.305h0a.3008.3008,0,0,0,.2964.305h5.2117a.3008.3008,0,0,0,.2964-.305h0A.3008.3008,0,0,0,105.4381,175.4339Z" transform="translate(4.6055)"/><path class="cls-11" d="M105.4381,179.8608h-5.2117a.3008.3008,0,0,0-.2964.305h0a.3008.3008,0,0,0,.2964.305h5.2117a.3008.3008,0,0,0,.2964-.305h0A.3008.3008,0,0,0,105.4381,179.8608Z" transform="translate(4.6055)"/><path class="cls-11" d="M102.6627,176.91h-2.4363a.3008.3008,0,0,0-.2964.305h0a.3008.3008,0,0,0,.2964.305h2.4363a.3008.3008,0,0,0,.2964-.305h0A.3008.3008,0,0,0,102.6627,176.91Z" transform="translate(4.6055)"/><path class="cls-11" d="M112.88,178.3852h-2.4363a.3008.3008,0,0,0-.2964.305h0a.3007.3007,0,0,0,.2964.3049H112.88a.3007.3007,0,0,0,.2964-.3049h0A.3008.3008,0,0,0,112.88,178.3852Z" transform="translate(4.6055)"/><path class="cls-11" d="M108.7893,179.8608H106.353a.3008.3008,0,0,0-.2964.305h0a.3008.3008,0,0,0,.2964.305h2.4363a.3008.3008,0,0,0,.2964-.305h0A.3008.3008,0,0,0,108.7893,179.8608Z" transform="translate(4.6055)"/><path class="cls-11" d="M115.79,175.4339h-9.221a.3008.3008,0,0,0-.2964.305h0a.3008.3008,0,0,0,.2964.305h9.221a.3008.3008,0,0,0,.2964-.305h0A.3008.3008,0,0,0,115.79,175.4339Z" transform="translate(4.6055)"/><path class="cls-11" d="M109.4474,178.3852h-9.221a.3008.3008,0,0,0-.2964.305h0a.3007.3007,0,0,0,.2964.3049h9.221a.3007.3007,0,0,0,.2964-.3049h0A.3008.3008,0,0,0,109.4474,178.3852Z" transform="translate(4.6055)"/><path class="cls-11" d="M112.88,176.91h-9.221a.3008.3008,0,0,0-.2964.305h0a.3008.3008,0,0,0,.2964.305h9.221a.3008.3008,0,0,0,.2964-.305h0A.3008.3008,0,0,0,112.88,176.91Z" transform="translate(4.6055)"/><path class="cls-11" d="M117.5889,175.4339h-.6507a.3008.3008,0,0,0-.2964.305h0a.3008.3008,0,0,0,.2964.305h.6507a.3008.3008,0,0,0,.2964-.305h0A.3008.3008,0,0,0,117.5889,175.4339Z" transform="translate(4.6055)"/><path class="cls-11" d="M114.5473,178.3852h-.6506a.3008.3008,0,0,0-.2964.305h0a.3007.3007,0,0,0,.2964.3049h.6506a.3007.3007,0,0,0,.2964-.3049h0A.3008.3008,0,0,0,114.5473,178.3852Z" transform="translate(4.6055)"/><path class="cls-11" d="M110.4631,179.8608h-.6506a.3007.3007,0,0,0-.2964.305h0a.3008.3008,0,0,0,.2964.305h.6506a.3008.3008,0,0,0,.2964-.305h0A.3008.3008,0,0,0,110.4631,179.8608Z" transform="translate(4.6055)"/><path class="cls-11" d="M102.6627,181.3364h-2.4363a.3008.3008,0,0,0-.2964.305h0a.3008.3008,0,0,0,.2964.305h2.4363a.3008.3008,0,0,0,.2964-.305h0A.3008.3008,0,0,0,102.6627,181.3364Z" transform="translate(4.6055)"/><path class="cls-11" d="M104.3365,181.3364h-.6507a.3008.3008,0,0,0-.2964.305h0a.3008.3008,0,0,0,.2964.305h.6507a.3008.3008,0,0,0,.2964-.305h0A.3008.3008,0,0,0,104.3365,181.3364Z" transform="translate(4.6055)"/><path class="cls-16" d="M114.9625,172.934h-3.7311a.5053.5053,0,0,0-.4979.5123h0a.5053.5053,0,0,0,.4979.5123h3.7311a.5052.5052,0,0,0,.4978-.5123h0A.5052.5052,0,0,0,114.9625,172.934Z" transform="translate(4.6055)"/><path class="cls-8" d="M44.1392,155.7931H24.5212a.6637.6637,0,0,0-.654.6729h0a.6637.6637,0,0,0,.654.6729h19.618a.6636.6636,0,0,0,.6539-.6729h0A.6636.6636,0,0,0,44.1392,155.7931Z" transform="translate(4.6055)"/><path class="cls-17" d="M36.1489,160.0824H24.2566a.3951.3951,0,0,0-.3894.4006h0a.3951.3951,0,0,0,.3894.4006H36.1489a.3951.3951,0,0,0,.3893-.4006h0A.395.395,0,0,0,36.1489,160.0824Z" transform="translate(4.6055)"/><path class="cls-17" d="M36.1489,165.8969H24.2566a.3951.3951,0,0,0-.3894.4006h0a.395.395,0,0,0,.3894.4H36.1489a.395.395,0,0,0,.3893-.4h0A.395.395,0,0,0,36.1489,165.8969Z" transform="translate(4.6055)"/><path class="cls-11" d="M30.09,162.0206H24.2566a.3951.3951,0,0,0-.3894.4006h0a.395.395,0,0,0,.3894.4H30.09a.395.395,0,0,0,.3893-.4h0A.395.395,0,0,0,30.09,162.0206Z" transform="translate(4.6055)"/><path class="cls-16" d="M52.3944,163.9587H46.5607a.3951.3951,0,0,0-.3893.4006h0a.3951.3951,0,0,0,.3893.4006h5.8337a.3951.3951,0,0,0,.3893-.4006h0A.3951.3951,0,0,0,52.3944,163.9587Z" transform="translate(4.6055)"/><path class="cls-11" d="M43.4644,165.8969H37.6306a.395.395,0,0,0-.3893.4006h0a.395.395,0,0,0,.3893.4h5.8338a.395.395,0,0,0,.3893-.4h0A.395.395,0,0,0,43.4644,165.8969Z" transform="translate(4.6055)"/><path class="cls-11" d="M58.7459,160.0824H38.1015a.395.395,0,0,0-.3893.4006h0a.3951.3951,0,0,0,.3893.4006H58.7459a.3951.3951,0,0,0,.3893-.4006h0A.395.395,0,0,0,58.7459,160.0824Z" transform="translate(4.6055)"/><path class="cls-11" d="M44.9009,163.9587H24.2566a.3951.3951,0,0,0-.3894.4006h0a.3951.3951,0,0,0,.3894.4006H44.9009a.3952.3952,0,0,0,.3894-.4006h0A.3952.3952,0,0,0,44.9009,163.9587Z" transform="translate(4.6055)"/><path class="cls-11" d="M52.3944,162.0206H31.75a.3951.3951,0,0,0-.3894.4006h0a.395.395,0,0,0,.3894.4H52.3944a.395.395,0,0,0,.3893-.4h0A.395.395,0,0,0,52.3944,162.0206Z" transform="translate(4.6055)"/><path class="cls-11" d="M62.6734,160.0824H60.7376a.395.395,0,0,0-.3893.4006h0a.3951.3951,0,0,0,.3893.4006h1.9358a.3951.3951,0,0,0,.3893-.4006h0A.395.395,0,0,0,62.6734,160.0824Z" transform="translate(4.6055)"/><path class="cls-16" d="M56.0339,163.9587H54.0981a.3952.3952,0,0,0-.3894.4006h0a.3952.3952,0,0,0,.3894.4006h1.9358a.3951.3951,0,0,0,.3893-.4006h0A.3951.3951,0,0,0,56.0339,163.9587Z" transform="translate(4.6055)"/><path class="cls-11" d="M47.1182,165.8969H45.1825a.3951.3951,0,0,0-.3894.4006h0a.3951.3951,0,0,0,.3894.4h1.9357a.395.395,0,0,0,.3894-.4h0A.3951.3951,0,0,0,47.1182,165.8969Z" transform="translate(4.6055)"/><path class="cls-16" d="M30.09,167.835H24.2566a.3951.3951,0,0,0-.3894.4006h0a.3951.3951,0,0,0,.3894.4006H30.09a.3951.3951,0,0,0,.3893-.4006h0A.3951.3951,0,0,0,30.09,167.835Z" transform="translate(4.6055)"/><path class="cls-11" d="M33.7442,167.835H31.8084a.395.395,0,0,0-.3893.4006h0a.395.395,0,0,0,.3893.4006h1.9358a.3951.3951,0,0,0,.3893-.4006h0A.3951.3951,0,0,0,33.7442,167.835Z" transform="translate(4.6055)"/><path class="cls-8" d="M57.1153,155.7931H48.1047a.6637.6637,0,0,0-.654.6729h0a.6637.6637,0,0,0,.654.6729h9.0106a.6636.6636,0,0,0,.6539-.6729h0A.6636.6636,0,0,0,57.1153,155.7931Z" transform="translate(4.6055)"/><path class="cls-8" d="M44.1392,173.882H24.5212a.6637.6637,0,0,0-.654.6729h0a.6637.6637,0,0,0,.654.6729h19.618a.6636.6636,0,0,0,.6539-.6729h0A.6636.6636,0,0,0,44.1392,173.882Z" transform="translate(4.6055)"/><path class="cls-11" d="M36.1489,178.1713H24.2566a.3951.3951,0,0,0-.3894.4006h0a.3951.3951,0,0,0,.3894.4006H36.1489a.395.395,0,0,0,.3893-.4006h0A.3951.3951,0,0,0,36.1489,178.1713Z" transform="translate(4.6055)"/><path class="cls-16" d="M36.1489,183.9858H24.2566a.3951.3951,0,0,0-.3894.4006h0a.3951.3951,0,0,0,.3894.4006H36.1489a.3951.3951,0,0,0,.3893-.4006h0A.395.395,0,0,0,36.1489,183.9858Z" transform="translate(4.6055)"/><path class="cls-11" d="M30.09,180.11H24.2566a.3951.3951,0,0,0-.3894.4006h0a.3951.3951,0,0,0,.3894.4006H30.09a.3951.3951,0,0,0,.3893-.4006h0A.395.395,0,0,0,30.09,180.11Z" transform="translate(4.6055)"/><path class="cls-11" d="M52.3944,182.0476H46.5607a.3951.3951,0,0,0-.3893.4006h0a.395.395,0,0,0,.3893.4006h5.8337a.395.395,0,0,0,.3893-.4006h0A.3951.3951,0,0,0,52.3944,182.0476Z" transform="translate(4.6055)"/><path class="cls-17" d="M43.4644,183.9858H37.6306a.395.395,0,0,0-.3893.4006h0a.3951.3951,0,0,0,.3893.4006h5.8338a.3951.3951,0,0,0,.3893-.4006h0A.395.395,0,0,0,43.4644,183.9858Z" transform="translate(4.6055)"/><path class="cls-16" d="M58.7459,178.1713H38.1015a.3951.3951,0,0,0-.3893.4006h0a.395.395,0,0,0,.3893.4006H58.7459a.395.395,0,0,0,.3893-.4006h0A.3951.3951,0,0,0,58.7459,178.1713Z" transform="translate(4.6055)"/><path class="cls-17" d="M44.9009,182.0476H24.2566a.3951.3951,0,0,0-.3894.4006h0a.3951.3951,0,0,0,.3894.4006H44.9009a.3951.3951,0,0,0,.3894-.4006h0A.3952.3952,0,0,0,44.9009,182.0476Z" transform="translate(4.6055)"/><path class="cls-11" d="M52.3944,180.11H31.75a.3951.3951,0,0,0-.3894.4006h0a.3951.3951,0,0,0,.3894.4006H52.3944a.3951.3951,0,0,0,.3893-.4006h0A.395.395,0,0,0,52.3944,180.11Z" transform="translate(4.6055)"/><path class="cls-11" d="M62.6734,178.1713H60.7376a.3951.3951,0,0,0-.3893.4006h0a.395.395,0,0,0,.3893.4006h1.9358a.395.395,0,0,0,.3893-.4006h0A.3951.3951,0,0,0,62.6734,178.1713Z" transform="translate(4.6055)"/><path class="cls-11" d="M56.0339,182.0476H54.0981a.3952.3952,0,0,0-.3894.4006h0a.3951.3951,0,0,0,.3894.4006h1.9358a.395.395,0,0,0,.3893-.4006h0A.3951.3951,0,0,0,56.0339,182.0476Z" transform="translate(4.6055)"/><path class="cls-11" d="M47.1182,183.9858H45.1825a.3951.3951,0,0,0-.3894.4006h0a.3952.3952,0,0,0,.3894.4006h1.9357a.3951.3951,0,0,0,.3894-.4006h0A.3951.3951,0,0,0,47.1182,183.9858Z" transform="translate(4.6055)"/><path class="cls-11" d="M30.09,185.9239H24.2566a.3951.3951,0,0,0-.3894.4006h0a.3951.3951,0,0,0,.3894.4006H30.09a.395.395,0,0,0,.3893-.4006h0A.3951.3951,0,0,0,30.09,185.9239Z" transform="translate(4.6055)"/><path class="cls-16" d="M33.7442,185.9239H31.8084a.395.395,0,0,0-.3893.4006h0a.395.395,0,0,0,.3893.4006h1.9358a.395.395,0,0,0,.3893-.4006h0A.3951.3951,0,0,0,33.7442,185.9239Z" transform="translate(4.6055)"/><path class="cls-8" d="M57.1153,173.882H48.1047a.6637.6637,0,0,0-.654.6729h0a.6637.6637,0,0,0,.654.6729h9.0106a.6636.6636,0,0,0,.6539-.6729h0A.6636.6636,0,0,0,57.1153,173.882Z" transform="translate(4.6055)"/><rect class="cls-9" x="104.5354" y="138.5729" width="7.4808" height="7.6975"/><rect class="cls-18" x="104.7737" y="138.8181" width="7.0043" height="7.2071"/><rect class="cls-8" x="113.646" y="138.5729" width="7.4808" height="7.6975"/><rect class="cls-11" x="104.5354" y="147.808" width="7.4808" height="7.6975"/><rect class="cls-9" x="113.646" y="147.808" width="7.4808" height="7.6975"/><rect class="cls-18" x="113.8843" y="148.0531" width="7.0043" height="7.2071"/><path class="cls-11" d="M118.271,137.8644v-1.1731h-1.14v.5227H99.4919v-.5227h-1.14v1.1731h.508v18.15h-.508v1.1731h1.14v-.5227H117.131v.5227h1.14v-1.1731h-.508v-18.15Zm-1.016-1.0455h.892v.9178h-.892Zm-18.7792,0h.892v.9178h-.892Zm.892,20.2409h-.892v-.9178h.892Zm18.7792,0h-.892v-.9178h.892Zm-.508-1.0455h-.508v.5228H99.4919v-.5228h-.5081v-18.15h.5081v-.5227H117.131v.5227h.508Z" transform="translate(4.6055)"/><g class="cls-19"><polygon class="cls-20" points="27.87 128.268 22.298 134.001 22.298 195.066 87.216 128.268 27.87 128.268"/><polygon class="cls-20" points="92.186 128.268 26.592 195.761 38.329 195.761 103.922 128.268 92.186 128.268"/><polygon class="cls-20" points="110.312 128.268 44.718 195.761 104.065 195.761 127.302 171.851 127.302 128.268 110.312 128.268"/><polygon class="cls-20" points="120.771 195.761 127.302 189.041 127.302 176.965 109.034 195.761 120.771 195.761"/></g><rect class="cls-8" x="17.505" y="122.5377" width="0.261" height="73.2234"/><rect class="cls-8" x="18.2713" y="121.7492" width="113.0567" height="0.2685"/><rect class="cls-8" x="131.8334" y="122.5377" width="0.261" height="73.2234"/><path class="cls-8" d="M128.1247,197.2038h-1.5326v-1.577h1.5326Zm-1.2717-.2685h1.0107v-1.04H126.853Z" transform="translate(4.6055)"/><path class="cls-8" d="M13.7963,197.2038H12.2637v-1.577h1.5326Zm-1.2716-.2685h1.0107v-1.04H12.5247Z" transform="translate(4.6055)"/><path class="cls-8" d="M13.7963,122.6719H12.2637V121.095h1.5326Zm-1.2716-.2685h1.0107v-1.04H12.5247Z" transform="translate(4.6055)"/><path class="cls-8" d="M128.1247,122.6719h-1.5326V121.095h1.5326Zm-1.2717-.2685h1.0107v-1.04H126.853Z" transform="translate(4.6055)"/><g class="cls-21"><rect class="cls-5" x="65.322" y="126.0321" width="11.1338" height="11.4562" rx="1.5148"/><path class="cls-5" d="M64.5144,133.5738a2.1871,2.1871,0,0,1-.9263.1718,1.6633,1.6633,0,0,1-1.7324-1.8261,1.7713,1.7713,0,0,1,1.8315-1.8965,1.8307,1.8307,0,0,1,.8325.1611l-.1093.38a1.6082,1.6082,0,0,0-.7076-.1494,1.3246,1.3246,0,0,0-1.3686,1.4883,1.2952,1.2952,0,0,0,1.3476,1.4511,1.7711,1.7711,0,0,0,.7388-.1494Z" transform="translate(4.6055)"/><path class="cls-5" d="M66.4069,130.8423v1.2588h1.1758v.3213H66.4069v1.2695h-.333v-1.2695H64.8977v-.3213h1.1762v-1.2588Z" transform="translate(4.6055)"/><path class="cls-5" d="M69.5114,130.8423v1.2588h1.1758v.3213H69.5114v1.2695h-.333v-1.2695H68.0022v-.3213h1.1762v-1.2588Z" transform="translate(4.6055)"/><rect class="cls-5" x="16.9234" y="163.142" width="13.553" height="13.9454" rx="1.5148"/><path class="cls-5" d="M15.0022,168.4781a5.08,5.08,0,0,1,.874-.07,1.42,1.42,0,0,1,.9892.3018.99.99,0,0,1,.3086.7588,1.0889,1.0889,0,0,1-.2719.7764,1.44,1.44,0,0,1-1.0787.3984,1.56,1.56,0,0,1-.3662-.0322v1.4541h-.455Zm.455,1.75a1.4689,1.4689,0,0,0,.377.038c.5493,0,.8843-.2754.8843-.7754,0-.4794-.33-.7119-.8321-.7119a1.8579,1.8579,0,0,0-.4292.0381Z" transform="translate(4.6055)"/><path class="cls-5" d="M18.2409,168.4341v1.5195H19.947v-1.5195h.4609v3.6309H19.947v-1.7022H18.2409v1.7022h-.455v-3.6309Z" transform="translate(4.6055)"/><path class="cls-5" d="M21.1975,168.4781a5.08,5.08,0,0,1,.874-.07,1.4209,1.4209,0,0,1,.9893.3018.99.99,0,0,1,.3085.7588,1.0889,1.0889,0,0,1-.2719.7764,1.44,1.44,0,0,1-1.0786.3984,1.56,1.56,0,0,1-.3663-.0322v1.4541h-.455Zm.455,1.75a1.4694,1.4694,0,0,0,.377.038c.5493,0,.8843-.2754.8843-.7754,0-.4794-.33-.7119-.8321-.7119a1.8579,1.8579,0,0,0-.4292.0381Z" transform="translate(4.6055)"/><rect class="cls-5" x="121.4264" y="185.1713" width="9.9648" height="10.2534" rx="1.5148"/><path class="cls-5" d="M118.48,189.2359v.916h1.03v-.916h.2773v2.19H119.51V190.399h-1.03v1.0273h-.2744v-2.19Z" transform="translate(4.6055)"/><path class="cls-5" d="M120.674,189.4761h-.6474v-.24h1.5761v.24h-.6513v1.95h-.2774Z" transform="translate(4.6055)"/><path class="cls-5" d="M123.6369,190.4644c-.0156-.3057-.0351-.6729-.0312-.9463h-.01c-.0723.2568-.1611.53-.2685.832l-.376,1.0635h-.208l-.3448-1.0439c-.1-.3086-.1865-.5909-.2461-.8516h-.0068c-.0058.2734-.0215.6406-.041.9687l-.0566.94h-.2618l.1485-2.19h.3506l.3632,1.06c.0879.27.1612.51.2149.7373h.0088c.0537-.2207.13-.4609.2246-.7373l.3789-1.06h.3506l.1328,2.19h-.2686Z" transform="translate(4.6055)"/><path class="cls-5" d="M124.3889,189.2359h.2744v1.9531h.91v.2373h-1.1845Z" transform="translate(4.6055)"/><rect class="cls-5" x="73.2606" y="186.0683" width="15.4269" height="15.8737" rx="1.5148"/><path class="cls-5" d="M72.1628,192.1841h.4531v2.415c0,.959-.458,1.253-1.0615,1.253a1.4359,1.4359,0,0,1-.4839-.085l.0674-.3808a1.0432,1.0432,0,0,0,.38.0693c.4057,0,.645-.1865.645-.8936Z" transform="translate(4.6055)"/><path class="cls-5" d="M73.9392,194.6577l-.3643,1.1358h-.4682l1.1914-3.6094h.5468l1.1963,3.6094h-.4834l-.375-1.1358Zm1.15-.3642-.3438-1.0391c-.0781-.2353-.13-.4492-.1816-.6582h-.0108c-.0517.2139-.1093.4336-.1767.6533l-.3433,1.044Z" transform="translate(4.6055)"/><path class="cls-5" d="M77.0539,195.7935l-1.1445-3.6094h.4892l.5459,1.7774c.1514.4873.2813.9267.375,1.35H77.33c.0986-.417.2441-.8731.4-1.3438l.5927-1.7832h.4844l-1.2539,3.6094Z" transform="translate(4.6055)"/><path class="cls-5" d="M79.4611,194.6577l-.3642,1.1358h-.4678l1.1914-3.6094h.5469l1.1963,3.6094H81.08l-.375-1.1358Zm1.15-.3642-.3427-1.0391c-.0782-.2353-.1309-.4492-.1827-.6582h-.0107c-.0518.2139-.1094.4336-.1768.6533l-.3437,1.044Z" transform="translate(4.6055)"/><rect class="cls-5" x="95.9873" y="136.9421" width="8.6262" height="8.876" rx="1.5148"/><path class="cls-5" d="M94.2834,139.7974h.4531v2.415c0,.959-.458,1.253-1.0615,1.253a1.4438,1.4438,0,0,1-.4844-.085L93.259,143a1.0346,1.0346,0,0,0,.38.0694c.4053,0,.6445-.1866.6445-.8936Z" transform="translate(4.6055)"/><path class="cls-5" d="M95.4309,142.8394a1.5753,1.5753,0,0,0,.8115.2353c.4629,0,.7334-.2519.7334-.6162,0-.3369-.1865-.53-.66-.7178-.5722-.2089-.9267-.5136-.9267-1.0224a1.0206,1.0206,0,0,1,1.1347-.9805,1.559,1.559,0,0,1,.7754.1768l-.125.3808a1.3629,1.3629,0,0,0-.666-.1718c-.4785,0-.6611.2949-.6611.541,0,.3379.2139.5039.6973.6963.5937.2353.8955.53.8955,1.0605,0,.5567-.4014,1.0391-1.2286,1.0391a1.7682,1.7682,0,0,1-.8945-.2305Z" transform="translate(4.6055)"/></g><rect class="cls-17" x="65.322" y="119.0321" width="11.1338" height="11.4562" rx="1.5148"/><path class="cls-20" d="M64.5144,126.5738a2.1871,2.1871,0,0,1-.9263.1718,1.6633,1.6633,0,0,1-1.7324-1.8261,1.7713,1.7713,0,0,1,1.8315-1.8965,1.8307,1.8307,0,0,1,.8325.1611l-.1093.38a1.6082,1.6082,0,0,0-.7076-.1494,1.3246,1.3246,0,0,0-1.3686,1.4883,1.2952,1.2952,0,0,0,1.3476,1.4511,1.7711,1.7711,0,0,0,.7388-.1494Z" transform="translate(4.6055)"/><path class="cls-20" d="M66.4069,123.8423v1.2588h1.1758v.3213H66.4069v1.27h-.333v-1.27H64.8977v-.3213h1.1762v-1.2588Z" transform="translate(4.6055)"/><path class="cls-20" d="M69.5114,123.8423v1.2588h1.1758v.3213H69.5114v1.27h-.333v-1.27H68.0022v-.3213h1.1762v-1.2588Z" transform="translate(4.6055)"/><rect class="cls-16" x="16.9234" y="156.142" width="13.553" height="13.9454" rx="1.5148"/><path class="cls-20" d="M15.0022,161.4781a5.08,5.08,0,0,1,.874-.07,1.42,1.42,0,0,1,.9892.3018.99.99,0,0,1,.3086.7588,1.0889,1.0889,0,0,1-.2719.7764,1.44,1.44,0,0,1-1.0787.3984,1.56,1.56,0,0,1-.3662-.0322v1.4541h-.455Zm.455,1.75a1.4689,1.4689,0,0,0,.377.038c.5493,0,.8843-.2754.8843-.7754,0-.4794-.33-.7119-.8321-.7119a1.8579,1.8579,0,0,0-.4292.0381Z" transform="translate(4.6055)"/><path class="cls-20" d="M18.2409,161.4341v1.5195H19.947v-1.5195h.4609v3.6309H19.947v-1.7022H18.2409v1.7022h-.455v-3.6309Z" transform="translate(4.6055)"/><path class="cls-20" d="M21.1975,161.4781a5.08,5.08,0,0,1,.874-.07,1.4209,1.4209,0,0,1,.9893.3018.99.99,0,0,1,.3085.7588,1.0889,1.0889,0,0,1-.2719.7764,1.44,1.44,0,0,1-1.0786.3984,1.56,1.56,0,0,1-.3663-.0322v1.4541h-.455Zm.455,1.75a1.4694,1.4694,0,0,0,.377.038c.5493,0,.8843-.2754.8843-.7754,0-.4794-.33-.7119-.8321-.7119a1.8579,1.8579,0,0,0-.4292.0381Z" transform="translate(4.6055)"/><rect class="cls-16" x="121.4264" y="178.1713" width="9.9648" height="10.2534" rx="1.5148"/><path class="cls-20" d="M118.48,182.2359v.916h1.03v-.916h.2773v2.19H119.51V183.399h-1.03v1.0273h-.2744v-2.19Z" transform="translate(4.6055)"/><path class="cls-20" d="M120.674,182.4761h-.6474v-.24h1.5761v.24h-.6513v1.95h-.2774Z" transform="translate(4.6055)"/><path class="cls-20" d="M123.6369,183.4644c-.0156-.3057-.0351-.6729-.0312-.9463h-.01c-.0723.2568-.1611.53-.2685.832l-.376,1.0635h-.208l-.3448-1.0439c-.1-.3086-.1865-.5909-.2461-.8516h-.0068c-.0058.2734-.0215.6406-.041.9687l-.0566.94h-.2618l.1485-2.19h.3506l.3632,1.06c.0879.27.1612.51.2149.7373h.0088c.0537-.2207.13-.4609.2246-.7373l.3789-1.06h.3506l.1328,2.19h-.2686Z" transform="translate(4.6055)"/><path class="cls-20" d="M124.3889,182.2359h.2744v1.9531h.91v.2373h-1.1845Z" transform="translate(4.6055)"/><rect class="cls-22" x="73.2606" y="179.0683" width="15.4269" height="15.8737" rx="1.5148"/><path class="cls-20" d="M72.1628,185.1841h.4531v2.415c0,.959-.458,1.253-1.0615,1.253a1.4359,1.4359,0,0,1-.4839-.085l.0674-.3808a1.0432,1.0432,0,0,0,.38.0693c.4057,0,.645-.1865.645-.8936Z" transform="translate(4.6055)"/><path class="cls-20" d="M73.9392,187.6577l-.3643,1.1358h-.4682l1.1914-3.6094h.5468l1.1963,3.6094h-.4834l-.375-1.1358Zm1.15-.3642-.3438-1.0391c-.0781-.2353-.13-.4492-.1816-.6582h-.0108c-.0517.2139-.1093.4336-.1767.6533l-.3433,1.044Z" transform="translate(4.6055)"/><path class="cls-20" d="M77.0539,188.7935l-1.1445-3.6094h.4892l.5459,1.7774c.1514.4873.2813.9267.375,1.35H77.33c.0986-.417.2441-.8731.4-1.3438l.5927-1.7832h.4844l-1.2539,3.6094Z" transform="translate(4.6055)"/><path class="cls-20" d="M79.4611,187.6577l-.3642,1.1358h-.4678l1.1914-3.6094h.5469l1.1963,3.6094H81.08l-.375-1.1358Zm1.15-.3642-.3427-1.0391c-.0782-.2353-.1309-.4492-.1827-.6582h-.0107c-.0518.2139-.1094.4336-.1768.6533l-.3437,1.044Z" transform="translate(4.6055)"/><rect class="cls-22" x="95.9873" y="129.9421" width="8.6262" height="8.876" rx="1.5148"/><path class="cls-20" d="M94.2834,132.7974h.4531v2.415c0,.959-.458,1.253-1.0615,1.253a1.4438,1.4438,0,0,1-.4844-.085L93.259,136a1.0346,1.0346,0,0,0,.38.0694c.4053,0,.6445-.1866.6445-.8936Z" transform="translate(4.6055)"/><path class="cls-20" d="M95.4309,135.8394a1.5753,1.5753,0,0,0,.8115.2353c.4629,0,.7334-.2519.7334-.6162,0-.3369-.1865-.53-.66-.7178-.5722-.2089-.9267-.5136-.9267-1.0224a1.0206,1.0206,0,0,1,1.1347-.9805,1.559,1.559,0,0,1,.7754.1768l-.125.3808a1.3629,1.3629,0,0,0-.666-.1718c-.4785,0-.6611.2949-.6611.541,0,.3379.2139.5039.6973.6963.5937.2353.8955.53.8955,1.0605,0,.5567-.4014,1.0391-1.2286,1.0391a1.7682,1.7682,0,0,1-.8945-.2305Z" transform="translate(4.6055)"/><g class="cls-23"><path class="cls-5" d="M33.861,131.5684a3.0245,3.0245,0,1,1,2.9381-3.0234A2.9851,2.9851,0,0,1,33.861,131.5684Zm0-5.51a2.4873,2.4873,0,1,0,2.4162,2.4862A2.4548,2.4548,0,0,0,33.861,126.0588Z" transform="translate(4.6055)"/><path class="cls-5" d="M122.8822,163.8007a3.0245,3.0245,0,1,1,2.9382-3.0231A2.9849,2.9849,0,0,1,122.8822,163.8007Zm0-5.5094a2.4872,2.4872,0,1,0,2.4163,2.4863A2.455,2.455,0,0,0,122.8822,158.2913Z" transform="translate(4.6055)"/><path class="cls-5" d="M67.3484,199.03a3.0246,3.0246,0,1,1,2.9383-3.0234A2.985,2.985,0,0,1,67.3484,199.03Zm0-5.51a2.4874,2.4874,0,1,0,2.4163,2.4863A2.455,2.455,0,0,0,67.3484,193.52Z" transform="translate(4.6055)"/><ellipse class="cls-5" cx="66.311" cy="190.0051" rx="1.1607" ry="1.1943"/><path class="cls-5" d="M105.1719,131.3a1.1612,1.1612,0,1,0-1.1607,1.1943A1.1779,1.1779,0,0,0,105.1719,131.3Z" transform="translate(4.6055)"/><path class="cls-5" d="M17.0013,153.9512a1.1612,1.1612,0,1,0-1.1607,1.1944A1.1779,1.1779,0,0,0,17.0013,153.9512Z" transform="translate(4.6055)"/><path class="cls-5" d="M20.4123,150.1873a.6592.6592,0,1,0-.659.678A.6687.6687,0,0,0,20.4123,150.1873Z" transform="translate(4.6055)"/><path class="cls-5" d="M42.7312,135.7168a.6592.6592,0,1,0-.659.678A.6688.6688,0,0,0,42.7312,135.7168Z" transform="translate(4.6055)"/><path class="cls-5" d="M72.9268,177.5549a.6592.6592,0,1,0-.6589.678A.6686.6686,0,0,0,72.9268,177.5549Z" transform="translate(4.6055)"/><path class="cls-5" d="M130.9729,168.5364a.6592.6592,0,1,0-.659.6781A.6687.6687,0,0,0,130.9729,168.5364Z" transform="translate(4.6055)"/><path class="cls-5" d="M95.299,120.797a.6592.6592,0,1,0-.659.678A.6688.6688,0,0,0,95.299,120.797Z" transform="translate(4.6055)"/><path class="cls-5" d="M9.3386,191.1994a.6592.6592,0,1,0-.659.6781A.6688.6688,0,0,0,9.3386,191.1994Z" transform="translate(4.6055)"/><path class="cls-5" d="M57.0821,194.71a.6592.6592,0,1,0-.6589.678A.6686.6686,0,0,0,57.0821,194.71Z" transform="translate(4.6055)"/></g><path class="cls-22" d="M33.861,128.5684a3.0245,3.0245,0,1,1,2.9381-3.0234A2.9851,2.9851,0,0,1,33.861,128.5684Zm0-5.51a2.4873,2.4873,0,1,0,2.4162,2.4862A2.4548,2.4548,0,0,0,33.861,123.0588Z" transform="translate(4.6055)"/><path class="cls-17" d="M122.8822,160.8007a3.0245,3.0245,0,1,1,2.9382-3.0231A2.9849,2.9849,0,0,1,122.8822,160.8007Zm0-5.5094a2.4872,2.4872,0,1,0,2.4163,2.4863A2.455,2.455,0,0,0,122.8822,155.2913Z" transform="translate(4.6055)"/><path class="cls-16" d="M67.3484,196.03a3.0246,3.0246,0,1,1,2.9383-3.0234A2.985,2.985,0,0,1,67.3484,196.03Zm0-5.51a2.4874,2.4874,0,1,0,2.4163,2.4863A2.455,2.455,0,0,0,67.3484,190.52Z" transform="translate(4.6055)"/><ellipse class="cls-17" cx="66.311" cy="187.0051" rx="1.1607" ry="1.1943"/><path class="cls-16" d="M105.1719,128.3a1.1612,1.1612,0,1,0-1.1607,1.1943A1.1779,1.1779,0,0,0,105.1719,128.3Z" transform="translate(4.6055)"/><path class="cls-22" d="M17.0013,150.9512a1.1612,1.1612,0,1,0-1.1607,1.1944A1.1779,1.1779,0,0,0,17.0013,150.9512Z" transform="translate(4.6055)"/><path class="cls-8" d="M20.4123,147.1873a.6592.6592,0,1,0-.659.678A.6687.6687,0,0,0,20.4123,147.1873Z" transform="translate(4.6055)"/><path class="cls-8" d="M42.7312,132.7168a.6592.6592,0,1,0-.659.678A.6688.6688,0,0,0,42.7312,132.7168Z" transform="translate(4.6055)"/><path class="cls-8" d="M72.9268,174.5549a.6592.6592,0,1,0-.6589.678A.6686.6686,0,0,0,72.9268,174.5549Z" transform="translate(4.6055)"/><path class="cls-8" d="M130.9729,165.5364a.6592.6592,0,1,0-.659.6781A.6687.6687,0,0,0,130.9729,165.5364Z" transform="translate(4.6055)"/><path class="cls-8" d="M95.299,117.797a.6592.6592,0,1,0-.659.678A.6688.6688,0,0,0,95.299,117.797Z" transform="translate(4.6055)"/><path class="cls-8" d="M9.3386,188.1994a.6592.6592,0,1,0-.659.6781A.6688.6688,0,0,0,9.3386,188.1994Z" transform="translate(4.6055)"/><path class="cls-8" d="M57.0821,191.71a.6592.6592,0,1,0-.6589.678A.6686.6686,0,0,0,57.0821,191.71Z" transform="translate(4.6055)"/></g></g></svg>