<svg id="Layer_1" data-name="Layer 1" xmlns="http://www.w3.org/2000/svg" width="183.88" height="210.86" viewBox="0 0 183.88 210.86"><defs><style>.cls-1{fill:none;}.cls-2{fill:#f3f3f3;}.cls-3{fill:#ccc;}.cls-4{fill:#010101;}.cls-5{fill:#3f81c3;}.cls-6{fill:#3974ba;}.cls-7{fill:#3268b2;}.cls-8{fill:#2b5ba9;}.cls-9{fill:#214ba0;}.cls-10{fill:#243e92;}.cls-11{fill:#2a3480;}.cls-12{fill:#204ca0;}.cls-13{fill:#3e80c3;}.cls-14{fill:#52c4ca;}.cls-15{fill:#f1614a;}</style></defs><title>IT</title><rect class="cls-1" width="183.88" height="210.86"/><rect class="cls-2" x="75.51" y="46.88" width="99.6" height="136.41" rx="4"/><rect class="cls-3" x="86.03" y="141.01" width="69.03" height="4.01" rx="1.88"/><rect class="cls-3" x="85.38" y="100.16" width="69.03" height="4.01" rx="1.88"/><path class="cls-4" d="M97,71.05H96V63.21H97Z"/><path class="cls-4" d="M104.1,71.05h-.94l-3.57-6v6h-.94V63.21h.94l3.58,6.07V63.21h.93Z"/><path class="cls-4" d="M109.66,67.59h-3v3.46h-.93V63.21h4.38v.85h-3.45v2.69h3Z"/><path class="cls-4" d="M116.71,67.39a5.35,5.35,0,0,1-.35,2,2.84,2.84,0,0,1-1,1.31,2.56,2.56,0,0,1-1.5.45,2.52,2.52,0,0,1-1.48-.45,3,3,0,0,1-1-1.3,5.1,5.1,0,0,1-.37-2v-.57a5.21,5.21,0,0,1,.36-2,3,3,0,0,1,1-1.32,2.51,2.51,0,0,1,1.49-.46,2.56,2.56,0,0,1,1.5.45,2.84,2.84,0,0,1,1,1.32,5.42,5.42,0,0,1,.35,2Zm-.93-.51a3.87,3.87,0,0,0-.5-2.14,1.61,1.61,0,0,0-1.42-.74,1.58,1.58,0,0,0-1.39.74,3.72,3.72,0,0,0-.53,2.07v.58a3.71,3.71,0,0,0,.52,2.12,1.69,1.69,0,0,0,2.81,0,3.76,3.76,0,0,0,.51-2.09Z"/><path class="cls-4" d="M120.71,67.88h-1.66v3.17h-.94V63.21h2.34a2.6,2.6,0,0,1,1.84.61,2.58,2.58,0,0,1,.29,3,2.2,2.2,0,0,1-1,.81L123.25,71v.06h-1ZM119.05,67h1.43a1.57,1.57,0,0,0,1.11-.4,1.44,1.44,0,0,0,.41-1.07,1.51,1.51,0,0,0-.39-1.12,1.54,1.54,0,0,0-1.13-.39h-1.43Z"/><path class="cls-4" d="M125.45,63.21l2.32,6.4,2.31-6.4h1.22v7.84h-.94V68l.09-3.29-2.33,6.34h-.71l-2.32-6.33.09,3.28v3h-.93V63.21Z"/><path class="cls-4" d="M136.94,69h-3l-.67,2h-1l2.7-7.84h.82l2.71,7.84h-1Zm-2.68-.84h2.41l-1.21-3.67Z"/><path class="cls-4" d="M143.8,64.06h-2.28v7h-.93v-7h-2.27v-.85h5.48Z"/><path class="cls-4" d="M145.85,71.05h-.93V63.21h.93Z"/><path class="cls-4" d="M153,67.39a5.35,5.35,0,0,1-.35,2,2.93,2.93,0,0,1-1,1.31,2.5,2.5,0,0,1-1.49.45,2.55,2.55,0,0,1-1.49-.45,3,3,0,0,1-1-1.3,5.1,5.1,0,0,1-.37-2v-.57a5.21,5.21,0,0,1,.36-2,2.89,2.89,0,0,1,1-1.32,2.48,2.48,0,0,1,1.49-.46,2.6,2.6,0,0,1,1.5.45,2.91,2.91,0,0,1,1,1.32,5.42,5.42,0,0,1,.35,2Zm-.93-.51a3.78,3.78,0,0,0-.51-2.14,1.7,1.7,0,0,0-2.81,0,3.72,3.72,0,0,0-.52,2.07v.58a3.8,3.8,0,0,0,.51,2.12,1.7,1.7,0,0,0,2.82,0,3.76,3.76,0,0,0,.51-2.09Z"/><path class="cls-4" d="M159.85,71.05h-.94l-3.56-6v6h-.94V63.21h.94l3.57,6.07V63.21h.93Z"/><path class="cls-4" d="M101.72,77.29H99.44v7h-.93v-7H96.24v-.84h5.48Z"/><path class="cls-4" d="M106.77,80.66H103.7v2.78h3.57v.85h-4.5V76.45h4.45v.84H103.7v2.53h3.07Z"/><path class="cls-4" d="M113.64,81.8a3.05,3.05,0,0,1-.83,1.92,2.56,2.56,0,0,1-1.86.68,2.43,2.43,0,0,1-2-1,4.34,4.34,0,0,1-.75-2.67V80a4.77,4.77,0,0,1,.35-1.92,2.82,2.82,0,0,1,1-1.28,2.62,2.62,0,0,1,1.5-.44,2.41,2.41,0,0,1,1.81.7,3.1,3.1,0,0,1,.79,1.93h-.94a2.35,2.35,0,0,0-.53-1.36,1.5,1.5,0,0,0-1.13-.42,1.62,1.62,0,0,0-1.41.73,3.61,3.61,0,0,0-.51,2.08v.76a3.78,3.78,0,0,0,.49,2,1.51,1.51,0,0,0,1.34.75,1.7,1.7,0,0,0,1.2-.39,2.24,2.24,0,0,0,.55-1.36Z"/><path class="cls-4" d="M120.36,84.29h-.94V80.66h-3.57v3.63h-.94V76.45h.94v3.37h3.57V76.45h.94Z"/><path class="cls-4" d="M127.46,84.29h-.94l-3.56-6v6H122V76.45H123l3.57,6.07V76.45h.93Z"/><path class="cls-4" d="M134.57,80.62a5.35,5.35,0,0,1-.35,2,2.93,2.93,0,0,1-1,1.31,2.51,2.51,0,0,1-1.49.46,2.55,2.55,0,0,1-1.49-.46,3,3,0,0,1-1-1.3,5.1,5.1,0,0,1-.37-2v-.56a5.17,5.17,0,0,1,.36-2,2.92,2.92,0,0,1,1-1.33,2.48,2.48,0,0,1,1.49-.46,2.6,2.6,0,0,1,1.5.45,3,3,0,0,1,1,1.32,5.44,5.44,0,0,1,.35,2Zm-.93-.51a3.78,3.78,0,0,0-.51-2.14,1.7,1.7,0,0,0-2.81,0A3.72,3.72,0,0,0,129.8,80v.58a3.86,3.86,0,0,0,.51,2.13,1.64,1.64,0,0,0,1.42.77,1.61,1.61,0,0,0,1.4-.73,3.81,3.81,0,0,0,.51-2.09Z"/><path class="cls-4" d="M136.91,83.44h3.35v.85H136V76.45h.94Z"/><path class="cls-4" d="M146.46,80.62a5.35,5.35,0,0,1-.35,2,2.84,2.84,0,0,1-1,1.31,2.56,2.56,0,0,1-1.5.46,2.52,2.52,0,0,1-1.48-.46,3,3,0,0,1-1-1.3,5.1,5.1,0,0,1-.37-2v-.56a5.17,5.17,0,0,1,.36-2,3,3,0,0,1,1-1.33,2.51,2.51,0,0,1,1.49-.46,2.56,2.56,0,0,1,1.5.45,2.94,2.94,0,0,1,1,1.32,5.44,5.44,0,0,1,.35,2Zm-.93-.51A3.87,3.87,0,0,0,145,78a1.63,1.63,0,0,0-1.42-.74,1.61,1.61,0,0,0-1.39.74,3.72,3.72,0,0,0-.53,2.07v.58a3.85,3.85,0,0,0,.52,2.13,1.69,1.69,0,0,0,2.81,0,3.81,3.81,0,0,0,.51-2.09Z"/><path class="cls-4" d="M153.09,83.26a2.19,2.19,0,0,1-1,.85,3.68,3.68,0,0,1-1.5.29,2.7,2.7,0,0,1-1.54-.45,3,3,0,0,1-1-1.28,5,5,0,0,1-.38-1.93v-.68a4.43,4.43,0,0,1,.75-2.75,2.79,2.79,0,0,1,3.88-.34,2.79,2.79,0,0,1,.83,1.78h-.93a1.71,1.71,0,0,0-3.1-.83,3.91,3.91,0,0,0-.49,2.11v.64a3.56,3.56,0,0,0,.55,2.1,1.7,1.7,0,0,0,1.47.78,2.84,2.84,0,0,0,.92-.13,1.46,1.46,0,0,0,.65-.43V81.23h-1.64v-.85h2.57Z"/><path class="cls-4" d="M156.81,80.38l1.85-3.93h1.06l-2.44,4.91v2.93h-.94V81.36l-2.44-4.91H155Z"/><rect class="cls-3" x="84.76" y="120.96" width="69.03" height="4.01" rx="1.88"/><path class="cls-5" d="M6.79,151.35a3.1,3.1,0,1,1,3.1-3.1A3.1,3.1,0,0,1,6.79,151.35Z"/><path class="cls-6" d="M14.61,151.35a3.1,3.1,0,1,1,3.11-3.1A3.1,3.1,0,0,1,14.61,151.35Z"/><path class="cls-7" d="M22.44,151.35a3.1,3.1,0,1,1,3.1-3.1A3.1,3.1,0,0,1,22.44,151.35Z"/><path class="cls-8" d="M30.26,151.35a3.1,3.1,0,1,1,3.11-3.1A3.1,3.1,0,0,1,30.26,151.35Z"/><path class="cls-9" d="M38.09,151.35a3.1,3.1,0,1,1,3.1-3.1A3.1,3.1,0,0,1,38.09,151.35Z"/><path class="cls-10" d="M45.91,151.35a3.1,3.1,0,1,1,3.11-3.1A3.1,3.1,0,0,1,45.91,151.35Z"/><path class="cls-11" d="M53.74,151.35a3.1,3.1,0,1,1,3.1-3.1A3.1,3.1,0,0,1,53.74,151.35Z"/><path class="cls-12" d="M57.84,112.93a45.24,45.24,0,0,1,5.64-3.15l2,4.61a41.41,41.41,0,0,0-4.77,2.67Z"/><path class="cls-12" d="M65.91,108.73a46.64,46.64,0,0,1,6.14-2l1.1,4.91a40.33,40.33,0,0,0-5.2,1.67Z"/><path class="cls-12" d="M40.53,133.65a46.71,46.71,0,0,1,2.92-5.78l4.28,2.72a39.45,39.45,0,0,0-2.49,4.89Z"/><path class="cls-12" d="M74.65,106.2a47.35,47.35,0,0,1,6.39-.73l.12,5a42.8,42.8,0,0,0-5.42.61Z"/><path class="cls-12" d="M44.9,125.65a46.36,46.36,0,0,1,4-5.08l3.64,3.48a41.93,41.93,0,0,0-3.4,4.3Z"/><path class="cls-12" d="M50.74,118.65a45.26,45.26,0,0,1,4.92-4.21l2.9,4.13a42.21,42.21,0,0,0-4.17,3.56Z"/><path class="cls-12" d="M121.81,126.36a47.27,47.27,0,0,1,3.11,5.56l-4.63,2a39.36,39.36,0,0,0-2.62-4.69Z"/><path class="cls-12" d="M83.69,105.43a45.77,45.77,0,0,1,6.4.52l-.87,5a40.85,40.85,0,0,0-5.41-.46Z"/><path class="cls-12" d="M116.15,119.35a47.35,47.35,0,0,1,4.13,4.84l-4.12,2.9a40.79,40.79,0,0,0-3.48-4.1Z"/><path class="cls-12" d="M126,134.36a46.38,46.38,0,0,1,2,6L123,141.5a42.09,42.09,0,0,0-1.65-5.1Z"/><path class="cls-12" d="M92.7,106.42a46.09,46.09,0,0,1,6.17,1.76l-1.82,4.7a41.81,41.81,0,0,0-5.21-1.51Z"/><path class="cls-12" d="M101.34,109.15a44.36,44.36,0,0,1,5.69,2.93l-2.71,4.26a42.11,42.11,0,0,0-4.8-2.5Z"/><path class="cls-12" d="M109.26,113.51a45.57,45.57,0,0,1,5,4l-3.48,3.65a43.26,43.26,0,0,0-4.22-3.37Z"/><path class="cls-12" d="M38.05,142.09a46.1,46.1,0,0,1,1.59-6l4.74,1.76a42.24,42.24,0,0,0-1.16,4.24Z"/><path class="cls-13" d="M119.49,142.09a37.59,37.59,0,0,0-72.74,0h-.68a38.26,38.26,0,0,1,74.11,0Z"/><path class="cls-14" d="M110,142.09a28.27,28.27,0,0,0-3.42-6.73,29.08,29.08,0,0,0-3.76-4.38l1.56-1.64h0a30.57,30.57,0,0,0-21.62-8.51l0,2.27a28.46,28.46,0,0,0-23.58,13L57.3,134.9a30.5,30.5,0,0,0-3.41,7.19H49.72A34.29,34.29,0,0,1,58,127.61a34.76,34.76,0,0,1,6.81-5.55l.49.79a33.2,33.2,0,0,1,6.41-3.09l-.32-.87A34.75,34.75,0,0,1,114,135.76l-.84.43a33.63,33.63,0,0,1,2.36,5.9Z"/><path class="cls-14" d="M61.64,160.87a21.68,21.68,0,0,1-1-6.48v-.07h2.59v.07a19.21,19.21,0,1,0,19.27-19.2V132.6a21.79,21.79,0,1,1-20.88,28.27Z"/><path class="cls-12" d="M77.6,167.47a13.94,13.94,0,0,1,5.59-27A14,14,0,0,1,96,151.09l-1,.24a13,13,0,0,0-11.88-9.86A12.95,12.95,0,0,0,78,166.54Z"/><path class="cls-12" d="M82.28,147.74a6.16,6.16,0,1,0,6.13,6.18A6.16,6.16,0,0,0,82.28,147.74Z"/><path class="cls-5" d="M82.45,165a10.6,10.6,0,0,1-8.73-16.62l.83.57a9.59,9.59,0,0,0,13.88,12.95,9.56,9.56,0,0,0,3-11l.93-.36A10.6,10.6,0,0,1,82.45,165Z"/><ellipse class="cls-15" cx="82.25" cy="153.9" rx="4" ry="3.98" transform="translate(-84.73 103.24) rotate(-45)"/><path class="cls-12" d="M99.33,188.67l3.67,6.15.54-.31-3.68-6.16Z"/><path class="cls-12" d="M96.37,190.22l3,6.47.56-.27L96.92,190Z"/><path class="cls-12" d="M93.13,191.53l2.39,6.74.58-.22-2.39-6.73Z"/><path class="cls-12" d="M102.25,186.76l4.28,5.77.49-.37-4.27-5.77Z"/><path class="cls-12" d="M79.66,193.36l-.37,7.13.62,0,.36-7.12Z"/><path class="cls-12" d="M83.15,193.39l.35,7.12.61,0-.35-7.13Z"/><path class="cls-12" d="M86.48,193.11l1,7,.62-.07-1-7.08Z"/><path class="cls-12" d="M89.91,192.46l1.74,6.95.6-.16-1.74-6.94Z"/><path class="cls-12" d="M109.5,179.65l5.73,4.27c.13-.17.26-.32.38-.49l-5.74-4.28Z"/><path class="cls-12" d="M107.35,182.21l5.3,4.81.42-.46-5.3-4.8Z"/><path class="cls-12" d="M104.86,184.66l4.8,5.32c.16-.13.3-.28.45-.42l-4.79-5.32Z"/><path class="cls-12" d="M76.33,193l-1,7.07.61.08,1-7.06C76.73,193.07,76.53,193,76.33,193Z"/><path class="cls-12" d="M53.58,179.09l-5.7,4.23.36.49L54,179.58C53.82,179.42,53.7,179.26,53.58,179.09Z"/><path class="cls-12" d="M55.68,181.7l-5.28,4.76.41.46,5.28-4.76Z"/><path class="cls-12" d="M66.5,189.92l-3,6.41.55.26,3-6.4Z"/><path class="cls-12" d="M72.91,192.29l-1.74,6.89.59.17,1.75-6.91C73.31,192.4,73.11,192.34,72.91,192.29Z"/><path class="cls-12" d="M69.71,191.29,67.33,198l.58.21,2.39-6.67Z"/><path class="cls-12" d="M58.12,184.19l-4.78,5.27.46.42,4.78-5.28C58.42,184.47,58.27,184.33,58.12,184.19Z"/><path class="cls-12" d="M63.57,188.31l-3.66,6.09.53.32,3.66-6.09Z"/><path class="cls-12" d="M60.69,186.34,56.44,192l.49.38,4.25-5.71Z"/><path class="cls-12" d="M102.22,184.09l5.88,7.2.49-.38-5.89-7.2Z"/><path class="cls-12" d="M93.87,189l3.53,8.61.58-.22-3.53-8.6C94.26,188.83,94.06,188.89,93.87,189Z"/><path class="cls-12" d="M96.85,187.6l4.38,8.23.54-.31-4.37-8.2Z"/><path class="cls-5" d="M99.56,186l5.14,7.76c.18-.11.34-.23.51-.35l-5.12-7.73Z"/><path class="cls-12" d="M90.9,190l2.68,8.88.59-.17-2.67-8.87Z"/><path class="cls-12" d="M81.75,191.31l-.43,0,0,9.27.47,0h.15l0-9.27Z"/><path class="cls-5" d="M87.71,190.74l1.78,9.11.6-.12-1.77-9.08C88.12,190.69,87.91,190.7,87.71,190.74Z"/><path class="cls-12" d="M84.6,191.16l.89,9.25.62-.08-.9-9.21Z"/><path class="cls-12" d="M104.57,182l6.56,6.6c.14-.14.3-.27.45-.42L105,181.58C104.87,181.73,104.72,181.87,104.57,182Z"/><path class="cls-12" d="M106.8,179.61l7.18,5.92c.14-.16.25-.33.38-.49l-7.16-5.9C107.07,179.3,106.94,179.46,106.8,179.61Z"/><path class="cls-5" d="M108.71,177.11l7.69,5.18.34-.52-7.69-5.17Z"/><path class="cls-12" d="M56.24,179.06l-7.18,5.87c.12.16.27.31.4.47l7.16-5.86Z"/><path class="cls-12" d="M78.18,191.11l-.92,9.2.62.07.92-9.22Z"/><path class="cls-12" d="M71.91,189.8l-2.7,8.85.05,0,.54.14L72.5,190Z"/><path class="cls-5" d="M75,190.59l-1.84,9.06.61.12,1.84-9.07Z"/><path class="cls-12" d="M58.32,181.41,51.73,188l.44.43,6.58-6.53Z"/><path class="cls-12" d="M68.83,188.65l-3.57,8.54.58.22,3.57-8.53Z"/><path class="cls-12" d="M66,187.27l-4.39,8.17c.18.1.38.18.56.27l4.38-8.16Z"/><path class="cls-12" d="M60.72,183.64l-5.91,7.17c.16.14.33.25.49.38L61.2,184Z"/><path class="cls-5" d="M63.22,185.55,58,193.25c.17.11.35.21.52.33l5.17-7.69Z"/></svg>