<svg id="Layer_1" data-name="Layer 1" xmlns="http://www.w3.org/2000/svg" width="183.8816" height="210.8553" viewBox="0 0 183.8816 210.8553"><defs><style>.cls-1{fill:#373f44;}.cls-2{fill:#f3f3f3;}.cls-3{fill:#ccc;}.cls-4{fill:#010101;}.cls-5{fill:#3f81c3;}.cls-6{fill:#3974ba;}.cls-7{fill:#3268b2;}.cls-8{fill:#2b5ba9;}.cls-9{fill:#214ba0;}.cls-10{fill:#243e92;}.cls-11{fill:#2a3480;}.cls-12{fill:#204ca0;}.cls-13{fill:#3e80c3;}.cls-14{fill:#52c4ca;}.cls-15{fill:#f1614a;}</style></defs><title>IT</title><rect class="cls-1" width="183.8816" height="210.8553"/><rect class="cls-2" x="75.5078" y="46.8805" width="99.6017" height="136.4054" rx="4"/><rect class="cls-3" x="86.0263" y="141.0113" width="69.0324" height="4.0138" rx="1.8818"/><rect class="cls-3" x="85.379" y="100.1564" width="69.0324" height="4.0138" rx="1.8818"/><path class="cls-4" d="M96.9455,71.0542h-.9336v-7.84h.9336Z"/><path class="cls-4" d="M104.0969,71.0542h-.94L99.592,65.0127v6.0415h-.9385v-7.84h.9385l3.5752,6.0688V63.2139h.93Z"/><path class="cls-4" d="M109.6623,67.5918H106.69v3.4624h-.9336v-7.84h4.3877V64.06H106.69v2.687h2.9726Z"/><path class="cls-4" d="M116.7111,67.3872a5.3068,5.3068,0,0,1-.35,2.0113,2.8814,2.8814,0,0,1-.9922,1.311,2.6771,2.6771,0,0,1-2.9825-.0024,2.9452,2.9452,0,0,1-1.0039-1.2979,5.0711,5.0711,0,0,1-.3671-1.9521v-.5655a5.2478,5.2478,0,0,1,.3544-1.9975,2.9483,2.9483,0,0,1,1.0049-1.3272,2.5046,2.5046,0,0,1,1.4864-.46,2.5533,2.5533,0,0,1,1.5009.455,2.8766,2.8766,0,0,1,.9991,1.3194,5.33,5.33,0,0,1,.35,2.0107Zm-.93-.5063a3.7945,3.7945,0,0,0-.5059-2.14,1.6952,1.6952,0,0,0-2.8086,0,3.7072,3.7072,0,0,0-.5234,2.07v.5761a3.8005,3.8005,0,0,0,.5136,2.1245,1.6935,1.6935,0,0,0,2.8135.043,3.7787,3.7787,0,0,0,.5108-2.0923Z"/><path class="cls-4" d="M120.71,67.8828h-1.6641v3.1714h-.9385v-7.84h2.3448a2.5927,2.5927,0,0,1,1.8408.6035,2.6021,2.6021,0,0,1,.2871,3.0313,2.1635,2.1635,0,0,1-.9951.8129l1.664,3.3282v.0644h-1.0019Zm-1.6641-.8457h1.4356a1.5221,1.5221,0,0,0,1.1064-.3989,1.423,1.423,0,0,0,.4111-1.0684,1.5058,1.5058,0,0,0-.3916-1.1166,1.5573,1.5573,0,0,0-1.1308-.3936h-1.4307Z"/><path class="cls-4" d="M125.4533,63.2139l2.3155,6.3975,2.3154-6.3975h1.2109v7.84h-.9336V68.001l.0879-3.2954-2.3261,6.3486h-.7149l-2.32-6.3325.0928,3.2793v3.0532h-.9346v-7.84Z"/><path class="cls-4" d="M136.9436,69.0025h-2.9678l-.666,2.0517h-.9639l2.7051-7.84h.8174l2.71,7.84h-.959Zm-2.6856-.8452h2.4082l-1.207-3.667Z"/><path class="cls-4" d="M143.7981,64.06h-2.2764v6.9946h-.93V64.06h-2.2715v-.8457h5.4776Z"/><path class="cls-4" d="M145.8508,71.0542h-.9336v-7.84h.9336Z"/><path class="cls-4" d="M153.007,67.3872a5.3068,5.3068,0,0,1-.3505,2.0113,2.8814,2.8814,0,0,1-.9922,1.311,2.6771,2.6771,0,0,1-2.9825-.0024,2.9452,2.9452,0,0,1-1.0039-1.2979,5.0711,5.0711,0,0,1-.3671-1.9521v-.5655a5.2478,5.2478,0,0,1,.3544-1.9975,2.9476,2.9476,0,0,1,1.0049-1.3272,2.5046,2.5046,0,0,1,1.4864-.46,2.5533,2.5533,0,0,1,1.5009.455,2.8772,2.8772,0,0,1,.9991,1.3194,5.33,5.33,0,0,1,.3505,2.0107Zm-.93-.5063a3.7945,3.7945,0,0,0-.5059-2.14,1.6952,1.6952,0,0,0-2.8086,0,3.7072,3.7072,0,0,0-.5234,2.07v.5761a3.8005,3.8005,0,0,0,.5136,2.1245,1.6935,1.6935,0,0,0,2.8135.043,3.7787,3.7787,0,0,0,.5108-2.0923Z"/><path class="cls-4" d="M159.8518,71.0542h-.94l-3.5654-6.0415v6.0415h-.9385v-7.84h.9385l3.5752,6.0688V63.2139h.93Z"/><path class="cls-4" d="M101.716,77.293H99.4387v6.9946H98.51V77.293H96.2375v-.8457h5.4785Z"/><path class="cls-4" d="M106.77,80.6636H103.7v2.7788h3.5664v.8452h-4.5v-7.84h4.4512v.8457H103.7v2.5254H106.77Z"/><path class="cls-4" d="M113.6389,81.8a3.0131,3.0131,0,0,1-.8291,1.92,2.557,2.557,0,0,1-1.8555.6757,2.4,2.4,0,0,1-2.0117-.9965,4.2951,4.2951,0,0,1-.7568-2.6651V79.98a4.873,4.873,0,0,1,.3525-1.9224,2.8469,2.8469,0,0,1,1-1.2734,2.5808,2.5808,0,0,1,1.498-.4443,2.4139,2.4139,0,0,1,1.81.6972,3.0594,3.0594,0,0,1,.793,1.9307H112.7a2.3661,2.3661,0,0,0-.5283-1.3613,1.5037,1.5037,0,0,0-1.1358-.4214,1.6167,1.6167,0,0,0-1.4033.7329,3.6353,3.6353,0,0,0-.5088,2.0859v.76a3.7385,3.7385,0,0,0,.4825,2.0317,1.5134,1.5134,0,0,0,1.3476.7544,1.6774,1.6774,0,0,0,1.1934-.39A2.2723,2.2723,0,0,0,112.7,81.8Z"/><path class="cls-4" d="M120.3576,84.2876h-.9394v-3.624h-3.57v3.624h-.9336v-7.84h.9336v3.3711h3.57V76.4473h.9394Z"/><path class="cls-4" d="M127.46,84.2876h-.9395l-3.5654-6.0415v6.0415h-.9385v-7.84h.9385l3.5752,6.0688V76.4473h.93Z"/><path class="cls-4" d="M134.5676,80.6206a5.3067,5.3067,0,0,1-.3506,2.0113,2.8814,2.8814,0,0,1-.9922,1.311,2.6769,2.6769,0,0,1-2.9824-.0024,2.9445,2.9445,0,0,1-1.0039-1.2979,5.0711,5.0711,0,0,1-.3672-1.9521V80.125a5.2478,5.2478,0,0,1,.3545-1.9975A2.9476,2.9476,0,0,1,130.2307,76.8a2.5045,2.5045,0,0,1,1.4863-.46,2.5534,2.5534,0,0,1,1.501.455,2.8771,2.8771,0,0,1,.999,1.3194,5.33,5.33,0,0,1,.3506,2.0107Zm-.93-.5063a3.7945,3.7945,0,0,0-.5059-2.14,1.6952,1.6952,0,0,0-2.8086,0,3.708,3.708,0,0,0-.5234,2.07v.5761a3.8,3.8,0,0,0,.5137,2.1245,1.6935,1.6935,0,0,0,2.8135.043,3.78,3.78,0,0,0,.5107-2.0923Z"/><path class="cls-4" d="M136.9074,83.4424h3.3565v.8452H135.969v-7.84h.9384Z"/><path class="cls-4" d="M146.4611,80.6206a5.3072,5.3072,0,0,1-.35,2.0113,2.8807,2.8807,0,0,1-.9922,1.311,2.6769,2.6769,0,0,1-2.9824-.0024,2.94,2.94,0,0,1-1.0049-1.2979,5.09,5.09,0,0,1-.3671-1.9521V80.125a5.2283,5.2283,0,0,1,.3554-1.9975A2.94,2.94,0,0,1,142.1242,76.8a2.5068,2.5068,0,0,1,1.4864-.46,2.5511,2.5511,0,0,1,1.5009.455,2.8781,2.8781,0,0,1,1,1.3194,5.3307,5.3307,0,0,1,.35,2.0107Zm-.9287-.5063a3.8027,3.8027,0,0,0-.5058-2.14,1.6172,1.6172,0,0,0-1.416-.7456,1.6,1.6,0,0,0-1.3936.7456,3.7074,3.7074,0,0,0-.5225,2.07v.5761a3.8083,3.8083,0,0,0,.5127,2.1245,1.6944,1.6944,0,0,0,2.8145.043,3.7788,3.7788,0,0,0,.5107-2.0923Z"/><path class="cls-4" d="M153.092,83.2593a2.2021,2.2021,0,0,1-1.0039.8535,3.7146,3.7146,0,0,1-1.501.2827,2.6972,2.6972,0,0,1-1.5371-.45,2.9109,2.9109,0,0,1-1.0391-1.2788,4.8178,4.8178,0,0,1-.3769-1.9223v-.6841a4.4282,4.4282,0,0,1,.7471-2.7461A2.49,2.49,0,0,1,150.48,76.34a2.5185,2.5185,0,0,1,1.7852.6274,2.8338,2.8338,0,0,1,.8271,1.7793h-.9336a1.704,1.704,0,0,0-3.0967-.831,3.8676,3.8676,0,0,0-.4892,2.1152v.6411a3.5992,3.5992,0,0,0,.5449,2.0991,1.7085,1.7085,0,0,0,1.4746.7788,2.9588,2.9588,0,0,0,.9189-.1289,1.4059,1.4059,0,0,0,.6524-.435V81.229h-1.64v-.8452h2.5684Z"/><path class="cls-4" d="M156.8088,80.3838l1.8486-3.9365h1.0606l-2.4424,4.9165v2.9238h-.9336V81.3638L153.9,76.4473h1.07Z"/><rect class="cls-3" x="84.7594" y="120.96" width="69.0324" height="4.0138" rx="1.8818"/><path class="cls-5" d="M6.7877,151.3539A3.1044,3.1044,0,1,1,9.892,148.25,3.1044,3.1044,0,0,1,6.7877,151.3539Z"/><path class="cls-6" d="M14.6126,151.3539A3.1044,3.1044,0,1,1,17.717,148.25,3.1043,3.1043,0,0,1,14.6126,151.3539Z"/><path class="cls-7" d="M22.4376,151.3539a3.1044,3.1044,0,1,1,3.1043-3.1044A3.1044,3.1044,0,0,1,22.4376,151.3539Z"/><path class="cls-8" d="M30.2625,151.3539a3.1044,3.1044,0,1,1,3.1044-3.1044A3.1043,3.1043,0,0,1,30.2625,151.3539Z"/><path class="cls-9" d="M38.0875,151.3539a3.1044,3.1044,0,1,1,3.1043-3.1044A3.1044,3.1044,0,0,1,38.0875,151.3539Z"/><path class="cls-10" d="M45.9124,151.3539a3.1044,3.1044,0,1,1,3.1044-3.1044A3.1043,3.1043,0,0,1,45.9124,151.3539Z"/><path class="cls-11" d="M53.7374,151.3539a3.1044,3.1044,0,1,1,3.1043-3.1044A3.1044,3.1044,0,0,1,53.7374,151.3539Z"/><path class="cls-12" d="M57.8356,112.928a45.7811,45.7811,0,0,1,5.641-3.1446l2.0362,4.6089a40.8262,40.8262,0,0,0-4.7768,2.6648Z"/><path class="cls-12" d="M65.9127,108.7281a46.1392,46.1392,0,0,1,6.14-1.967l1.096,4.91a41.0476,41.0476,0,0,0-5.2,1.6657Z"/><path class="cls-12" d="M40.5291,133.6539a45.8572,45.8572,0,0,1,2.925-5.7819l4.2736,2.7136A40.8168,40.8168,0,0,0,45.24,135.478Z"/><path class="cls-12" d="M74.6463,106.203a46.5415,46.5415,0,0,1,6.3918-.7294l.1171,5.0256a41.3331,41.3331,0,0,0-5.413.6128Z"/><path class="cls-12" d="M44.9012,125.647a46.4433,46.4433,0,0,1,4.0107-5.078l3.6428,3.4768a41.3719,41.3719,0,0,0-3.4011,4.3014Z"/><path class="cls-12" d="M50.7406,118.6453a46.1936,46.1936,0,0,1,4.9166-4.2018l2.9,4.1293a41.2986,41.2986,0,0,0-4.1647,3.5585Z"/><path class="cls-12" d="M121.8089,126.3648a45.8035,45.8035,0,0,1,3.11,5.5532l-4.6284,2.0448a40.8255,40.8255,0,0,0-2.6163-4.6935Z"/><path class="cls-12" d="M83.6922,105.4276a46.5262,46.5262,0,0,1,6.3984.5238l-.8661,4.955a41.33,41.33,0,0,0-5.4152-.4532Z"/><path class="cls-12" d="M116.1494,119.347a46.3973,46.3973,0,0,1,4.1313,4.8474l-4.12,2.8942a41.2746,41.2746,0,0,0-3.4841-4.1028Z"/><path class="cls-12" d="M125.9589,134.3594a46.0583,46.0583,0,0,1,1.9464,6.0471l-4.91,1.0961a41.04,41.04,0,0,0-1.6481-5.1059Z"/><path class="cls-12" d="M92.7036,106.42a46.0976,46.0976,0,0,1,6.1641,1.7577l-1.8191,4.6982a41.0293,41.0293,0,0,0-5.2112-1.5006Z"/><path class="cls-12" d="M101.3384,109.1456a45.8044,45.8044,0,0,1,5.69,2.93l-2.7049,4.26a40.8453,40.8453,0,0,0-4.8039-2.4907Z"/><path class="cls-12" d="M109.2591,113.5107a46.2958,46.2958,0,0,1,4.9942,3.9786l-3.4861,3.6525a41.3973,41.3973,0,0,0-4.2132-3.3711Z"/><path class="cls-12" d="M38.0526,142.0863a45.7571,45.7571,0,0,1,1.5825-5.9949l4.7485,1.7545a41.1191,41.1191,0,0,0-1.1594,4.24Z"/><path class="cls-13" d="M119.4937,142.0863a37.5933,37.5933,0,0,0-72.74,0h-.6867a38.2623,38.2623,0,0,1,74.11,0Z"/><path class="cls-14" d="M109.9713,142.0863a28.4122,28.4122,0,0,0-3.4241-6.723,28.7,28.7,0,0,0-3.7577-4.3868l1.56-1.6349-.0007-.0007a30.5926,30.5926,0,0,0-21.6218-8.5131l.0289,2.2685A28.29,28.29,0,0,0,62.5,131.9127a28.8816,28.8816,0,0,0-3.3211,4.2028l-1.8785-1.2168a30.5531,30.5531,0,0,0-3.4143,7.1876h-4.17a34.5148,34.5148,0,0,1,8.27-14.48,34.8963,34.8963,0,0,1,6.8158-5.5426l.4885.787a33.3043,33.3043,0,0,1,6.4071-3.09l-.3132-.8743a34.7847,34.7847,0,0,1,42.6592,16.8709l-.8424.4317a33.79,33.79,0,0,1,2.355,5.8974Z"/><path class="cls-14" d="M61.6366,160.8744a21.7924,21.7924,0,0,1-.9908-6.4878c0-.0237.0027-.0468.0028-.07l2.5961.0088c0,.0231-.0034.0453-.0034.0684a19.2031,19.2031,0,1,0,19.273-19.1994l.0089-2.5907a21.7911,21.7911,0,1,1-20.8866,28.2712Z"/><path class="cls-12" d="M77.5992,167.473a13.9467,13.9467,0,0,1,5.5928-27.0044,14.0352,14.0352,0,0,1,12.8047,10.6235l-.9727.2363a13.0248,13.0248,0,0,0-11.8847-9.8608,12.9467,12.9467,0,0,0-5.1924,25.0679Z"/><path class="cls-12" d="M82.277,147.7439a6.1548,6.1548,0,1,0,6.1326,6.1769A6.1548,6.1548,0,0,0,82.277,147.7439Z"/><path class="cls-5" d="M82.4547,164.9857a10.5945,10.5945,0,0,1-8.7305-16.6172l.8223.5693A9.6578,9.6578,0,0,0,74.944,160.38a9.5981,9.5981,0,0,0,16.4414-9.48l.9316-.3642a10.5939,10.5939,0,0,1-9.8623,14.45Z"/><ellipse class="cls-15" cx="82.2548" cy="153.8987" rx="4.0039" ry="3.9758" transform="translate(-84.731 103.2388) rotate(-45)"/><path class="cls-12" d="M99.3331,188.6722,103,194.82c.1778-.1042.3613-.1989.5375-.3056l-3.6759-6.1633C99.6856,188.4586,99.5112,188.568,99.3331,188.6722Z"/><path class="cls-12" d="M96.3651,190.2227l3.0562,6.4638c.187-.0864.3737-.1729.5592-.2621l-3.059-6.47C96.7362,190.0445,96.5522,190.1362,96.3651,190.2227Z"/><path class="cls-12" d="M93.127,191.5283l2.396,6.7421c.1954-.0673.3847-.1472.5789-.2174l-2.3942-6.7373C93.5141,191.3865,93.3223,191.4609,93.127,191.5283Z"/><path class="cls-12" d="M102.254,186.7569l4.28,5.7726c.1655-.1209.3239-.251.4877-.3745l-4.2754-5.7663C102.5829,186.5122,102.42,186.6361,102.254,186.7569Z"/><path class="cls-12" d="M79.657,193.3592l-.3657,7.1268c.2049.0122.41.0143.6153.0235l.3652-7.1193Q79.9636,193.3771,79.657,193.3592Z"/><path class="cls-12" d="M83.1464,193.3942l.3487,7.1165c.2051-.0083.4108-.0134.6151-.0246l-.349-7.1229C83.5567,193.3749,83.352,193.386,83.1464,193.3942Z"/><path class="cls-12" d="M86.4812,193.1066l1.031,7.0562c.2035-.0277.41-.0434.613-.074l-1.0339-7.0752C86.888,193.0449,86.6856,193.0789,86.4812,193.1066Z"/><path class="cls-12" d="M89.912,192.4646l1.7384,6.9446c.2007-.0481.398-.1042.5976-.1552L90.51,192.3109C90.3107,192.3625,90.1126,192.4165,89.912,192.4646Z"/><path class="cls-12" d="M109.5026,179.6487l5.73,4.2692c.1238-.1646.2572-.3209.3787-.4875l-5.7391-4.2759Q109.69,179.4037,109.5026,179.6487Z"/><path class="cls-12" d="M107.3519,182.2142l5.2989,4.8039c.139-.1517.2791-.3024.416-.4563l-5.3-4.8044Q107.5617,181.988,107.3519,182.2142Z"/><path class="cls-12" d="M104.86,184.6588l4.8038,5.3234c.1535-.1368.2991-.2828.4507-.422l-4.7977-5.3166C105.1656,184.383,105.0144,184.5221,104.86,184.6588Z"/><path class="cls-12" d="M76.3267,193.0015l-1.0489,7.0639c.2036.0322.4079.0549.6118.0839l1.0476-7.0546C76.7327,193.0663,76.53,193.0333,76.3267,193.0015Z"/><path class="cls-12" d="M53.5771,179.0906l-5.7,4.2267c.12.1657.2393.3329.3621.4967l5.7066-4.2311C53.8216,179.4194,53.6979,179.2562,53.5771,179.0906Z"/><path class="cls-12" d="M55.6769,181.6989,50.4006,186.46c.1366.1541.2724.3088.411.4607l5.28-4.7653C55.9527,182.0043,55.8135,181.8528,55.6769,181.6989Z"/><path class="cls-12" d="M66.5035,189.92l-3.047,6.4061c.1858.09.37.1811.5572.2681l3.0468-6.4059C66.8734,190.1014,66.6887,190.01,66.5035,189.92Z"/><path class="cls-12" d="M72.9094,192.2908l-1.7425,6.893c.199.052.3964.1125.5961.1616l1.7445-6.9008C73.3069,192.396,73.1085,192.3429,72.9094,192.2908Z"/><path class="cls-12" d="M69.7144,191.2883,67.3265,197.96c.1939.0708.3861.1444.5814.2126l2.3879-6.6712C70.1005,191.4331,69.908,191.36,69.7144,191.2883Z"/><path class="cls-12" d="M58.1206,184.19l-4.778,5.27c.1514.1395.3008.2809.4543.418l4.7806-5.2732C58.4238,184.4679,58.272,184.3293,58.1206,184.19Z"/><path class="cls-12" d="M63.567,188.31l-3.6534,6.0934c.1762.1069.35.217.528.3214l3.6537-6.0938C63.9176,188.5261,63.7427,188.4173,63.567,188.31Z"/><path class="cls-12" d="M60.6859,186.34l-4.2492,5.7034c.1643.1241.327.25.4931.3714L61.18,186.71Q60.9313,186.5274,60.6859,186.34Z"/><path class="cls-12" d="M102.217,184.0944l5.8869,7.1962c.16-.1292.3238-.2534.4819-.385L102.7,183.7109C102.5422,183.8429,102.3774,183.9656,102.217,184.0944Z"/><path class="cls-12" d="M93.87,188.9618l3.528,8.6046c.1909-.0762.3883-.138.5779-.217l-3.526-8.6C94.2608,188.8292,94.06,188.8856,93.87,188.9618Z"/><path class="cls-12" d="M96.8475,187.5987l4.3817,8.2282c.1831-.0955.3564-.2074.5378-.3056l-4.3649-8.1967C97.2214,187.4233,97.03,187.5035,96.8475,187.5987Z"/><path class="cls-5" d="M99.5611,186.0128l5.1427,7.7569c.1724-.1126.34-.2313.5111-.3464l-5.1286-7.7356C99.9161,185.8031,99.7336,185.9006,99.5611,186.0128Z"/><path class="cls-12" d="M90.8988,189.9861l2.68,8.8854c.1976-.0575.3968-.11.5931-.1705l-2.6758-8.87C91.3011,189.8914,91.0959,189.9289,90.8988,189.9861Z"/><path class="cls-12" d="M81.7485,191.308c-.1438,0-.2826-.02-.426-.0214l-.0332,9.2756c.1577.0018.3148.018.4727.018.0491,0,.0969-.0058.146-.0059l.0333-9.2759C81.8764,191.2987,81.8136,191.308,81.7485,191.308Z"/><path class="cls-5" d="M87.71,190.74l1.7776,9.1083c.2031-.0375.4036-.0825.6058-.1229l-1.7718-9.0787C88.1205,190.6876,87.9114,190.7028,87.71,190.74Z"/><path class="cls-12" d="M84.596,191.1643l.8958,9.2426c.2062-.0181.4079-.053.6135-.0741l-.8928-9.2117C85.0089,191.1425,84.8007,191.1465,84.596,191.1643Z"/><path class="cls-12" d="M104.5711,182.0105l6.5551,6.6025c.1468-.1443.3054-.2753.45-.4217l-6.5614-6.6087C104.87,181.7289,104.7184,181.8669,104.5711,182.0105Z"/><path class="cls-12" d="M106.8035,179.6146l7.18,5.911c.1318-.1586.2508-.3289.38-.4894l-7.1674-5.9C107.0664,179.2965,106.9365,179.4564,106.8035,179.6146Z"/><path class="cls-5" d="M108.7093,177.1123l7.6881,5.177c.1154-.17.2254-.3434.3384-.5151L109.0527,176.6C108.9392,176.7721,108.8258,176.9429,108.7093,177.1123Z"/><path class="cls-12" d="M56.2409,179.0557l-7.1854,5.8783c.1291.1609.27.31.4016.4685l7.1676-5.8636C56.4927,179.3809,56.37,179.2161,56.2409,179.0557Z"/><path class="cls-12" d="M78.1846,191.1059l-.9206,9.2008c.2048.0223.409.0511.6141.07l.9222-9.2178C78.595,191.1409,78.3888,191.128,78.1846,191.1059Z"/><path class="cls-12" d="M71.9057,189.7958l-2.7,8.851c.02.0063.0389.0154.0591.0216.1773.0553.358.0923.5359.1452l2.7-8.8525C72.3036,189.903,72.1014,189.8574,71.9057,189.7958Z"/><path class="cls-5" d="M74.9467,190.59l-1.8359,9.06c.202.0428.4053.0768.608.1166l1.8364-9.0618C75.3524,190.6656,75.1482,190.6326,74.9467,190.59Z"/><path class="cls-12" d="M58.3241,181.4085l-6.5918,6.5448c.1438.1473.2954.2857.4412.4309l6.5787-6.5318C58.6059,181.7078,58.4677,181.5558,58.3241,181.4085Z"/><path class="cls-12" d="M68.8331,188.6505l-3.5746,8.5428c.1891.08.3874.1435.578.2213l3.5706-8.5334C69.2161,188.8033,69.0224,188.7319,68.8331,188.6505Z"/><path class="cls-12" d="M66.0091,187.2723l-4.3844,8.1723c.18.0977.3743.1723.5559.2674l4.3766-8.1577C66.3751,187.4587,66.1889,187.3713,66.0091,187.2723Z"/><path class="cls-12" d="M60.7194,183.6405l-5.9059,7.1733c.1586.1326.3308.2476.4914.3778l5.8934-7.1583C61.0375,183.9033,60.8776,183.7735,60.7194,183.6405Z"/><path class="cls-5" d="M63.222,185.5466l-5.1857,7.7012c.17.1158.3494.2163.521.33l5.1765-7.6874C63.5621,185.7766,63.3912,185.6631,63.222,185.5466Z"/></svg>