<svg id="Layer_1" data-name="Layer 1" xmlns="http://www.w3.org/2000/svg" width="100" height="100" viewBox="0 0 100 100"><title>IT</title><circle cx="50" cy="50" r="50" style="fill:#1f773f"/><path d="M454.56,43.53v2.64h-.66a.5.5,0,0,0-.5.5v1.62l-4.76-4.76h-1.77v2.64h-.67a.5.5,0,0,0-.5.5v1.62l-4.76-4.76h-1.77v2.64h-.66a.5.5,0,0,0-.5.5v1.62l-4.76-4.76h-1.78v2.64h-.66a.5.5,0,0,0-.5.5v1.62l-4.76-4.76h-1.77v2.64h-.66a.5.5,0,0,0-.5.5V50h-.44a4.11,4.11,0,0,0-4.11,4.11v.43h-3.28a.5.5,0,0,0-.5.5v.67h-2.64v1.77l4.75,4.76h-1.61a.5.5,0,0,0-.5.5v.66h-2.64v1.78l4.75,4.75h-1.61a.5.5,0,0,0-.5.5v.67h-2.64v1.77l4.75,4.76h-1.61a.5.5,0,0,0-.5.5v.66h-2.64v1.78l4.75,4.75h-1.61a.5.5,0,0,0-.5.5v.67h-2.64v1.77l12.13,12.13,21.33,21.34A50,50,0,0,0,489.8,77L456.33,43.53Z" transform="translate(-390.06 -21.94)" style="opacity:0.10000000149011612;isolation:isolate"/><path d="M464.24,55.67h4.23v1.77h-4.23Z" transform="translate(-390.06 -21.94)" style="fill:#dbd8dd"/><path d="M465.33,54.5h-3.88a.5.5,0,0,0-.5.5v3.1a.5.5,0,0,0,.5.5h3.88a.5.5,0,0,0,.5-.5V55A.51.51,0,0,0,465.33,54.5Z" transform="translate(-390.06 -21.94)" style="fill:#feda6f"/><path d="M464.24,63.36h4.23v1.78h-4.23Z" transform="translate(-390.06 -21.94)" style="fill:#dbd8dd"/><path d="M465.33,62.2h-3.88a.5.5,0,0,0-.5.5v3.1a.5.5,0,0,0,.5.5h3.88a.51.51,0,0,0,.5-.5V62.7A.5.5,0,0,0,465.33,62.2Z" transform="translate(-390.06 -21.94)" style="fill:#feda6f"/><path d="M464.24,71.06h4.23v1.77h-4.23Z" transform="translate(-390.06 -21.94)" style="fill:#dbd8dd"/><path d="M465.33,69.89h-3.88a.5.5,0,0,0-.5.5v3.1a.5.5,0,0,0,.5.5h3.88a.5.5,0,0,0,.5-.5v-3.1A.51.51,0,0,0,465.33,69.89Z" transform="translate(-390.06 -21.94)" style="fill:#feda6f"/><path d="M464.24,78.75h4.23v1.77h-4.23Z" transform="translate(-390.06 -21.94)" style="fill:#dbd8dd"/><path d="M465.33,77.59h-3.88a.5.5,0,0,0-.5.5v3.1a.5.5,0,0,0,.5.5h3.88a.51.51,0,0,0,.5-.5v-3.1A.5.5,0,0,0,465.33,77.59Z" transform="translate(-390.06 -21.94)" style="fill:#feda6f"/><path d="M464.24,86.45h4.23v1.77h-4.23Z" transform="translate(-390.06 -21.94)" style="fill:#dbd8dd"/><path d="M465.33,85.28h-3.88a.5.5,0,0,0-.5.5v3.1a.5.5,0,0,0,.5.5h3.88a.5.5,0,0,0,.5-.5v-3.1A.51.51,0,0,0,465.33,85.28Z" transform="translate(-390.06 -21.94)" style="fill:#feda6f"/><path d="M411.64,55.67h4.24v1.77h-4.24Z" transform="translate(-390.06 -21.94)" style="fill:#dbd8dd"/><path d="M414.79,54.5h3.88a.5.5,0,0,1,.49.5v3.1a.49.49,0,0,1-.49.5h-3.88a.5.5,0,0,1-.5-.5V55A.5.5,0,0,1,414.79,54.5Z" transform="translate(-390.06 -21.94)" style="fill:#feda6f"/><path d="M411.64,63.36h4.24v1.78h-4.24Z" transform="translate(-390.06 -21.94)" style="fill:#dbd8dd"/><path d="M414.79,62.2h3.88a.49.49,0,0,1,.49.5v3.1a.5.5,0,0,1-.49.5h-3.88a.5.5,0,0,1-.5-.5V62.7A.5.5,0,0,1,414.79,62.2Z" transform="translate(-390.06 -21.94)" style="fill:#feda6f"/><path d="M411.64,71.06h4.24v1.77h-4.24Z" transform="translate(-390.06 -21.94)" style="fill:#dbd8dd"/><path d="M414.79,69.89h3.88a.5.5,0,0,1,.49.5v3.1a.49.49,0,0,1-.49.5h-3.88a.5.5,0,0,1-.5-.5v-3.1A.5.5,0,0,1,414.79,69.89Z" transform="translate(-390.06 -21.94)" style="fill:#feda6f"/><path d="M411.64,78.75h4.24v1.77h-4.24Z" transform="translate(-390.06 -21.94)" style="fill:#dbd8dd"/><path d="M414.79,77.59h3.88a.49.49,0,0,1,.49.5v3.1a.5.5,0,0,1-.49.5h-3.88a.5.5,0,0,1-.5-.5v-3.1A.5.5,0,0,1,414.79,77.59Z" transform="translate(-390.06 -21.94)" style="fill:#feda6f"/><path d="M411.64,86.45h4.24v1.77h-4.24Z" transform="translate(-390.06 -21.94)" style="fill:#dbd8dd"/><path d="M414.79,85.28h3.88a.5.5,0,0,1,.49.5v3.1a.49.49,0,0,1-.49.5h-3.88a.5.5,0,0,1-.5-.5v-3.1A.5.5,0,0,1,414.79,85.28Z" transform="translate(-390.06 -21.94)" style="fill:#feda6f"/><path d="M454.56,96.12h1.77v4.24h-1.77Z" transform="translate(-390.06 -21.94)" style="fill:#dbd8dd"/><path d="M457.5,97.21V93.33a.5.5,0,0,0-.5-.49h-3.1a.49.49,0,0,0-.5.49v3.88a.5.5,0,0,0,.5.5H457A.5.5,0,0,0,457.5,97.21Z" transform="translate(-390.06 -21.94)" style="fill:#feda6f"/><path d="M446.86,96.12h1.78v4.24h-1.78Z" transform="translate(-390.06 -21.94)" style="fill:#dbd8dd"/><path d="M449.8,97.21V93.33a.49.49,0,0,0-.5-.49h-3.1a.5.5,0,0,0-.5.49v3.88a.5.5,0,0,0,.5.5h3.1A.5.5,0,0,0,449.8,97.21Z" transform="translate(-390.06 -21.94)" style="fill:#feda6f"/><path d="M439.17,96.12h1.77v4.24h-1.77Z" transform="translate(-390.06 -21.94)" style="fill:#dbd8dd"/><path d="M442.11,97.21V93.33a.5.5,0,0,0-.5-.49h-3.1a.49.49,0,0,0-.5.49v3.88a.5.5,0,0,0,.5.5h3.1A.5.5,0,0,0,442.11,97.21Z" transform="translate(-390.06 -21.94)" style="fill:#feda6f"/><path d="M431.48,96.12h1.77v4.24h-1.77Z" transform="translate(-390.06 -21.94)" style="fill:#dbd8dd"/><path d="M434.41,97.21V93.33a.49.49,0,0,0-.5-.49h-3.1a.5.5,0,0,0-.5.49v3.88a.5.5,0,0,0,.5.5h3.1A.5.5,0,0,0,434.41,97.21Z" transform="translate(-390.06 -21.94)" style="fill:#feda6f"/><path d="M423.78,96.12h1.77v4.24h-1.77Z" transform="translate(-390.06 -21.94)" style="fill:#dbd8dd"/><path d="M426.72,97.21V93.33a.5.5,0,0,0-.5-.49h-3.1a.49.49,0,0,0-.5.49v3.88a.5.5,0,0,0,.5.5h3.1A.5.5,0,0,0,426.72,97.21Z" transform="translate(-390.06 -21.94)" style="fill:#feda6f"/><path d="M454.56,43.53h1.77v4.23h-1.77Z" transform="translate(-390.06 -21.94)" style="fill:#dbd8dd"/><path d="M457.5,46.67v3.88a.5.5,0,0,1-.5.5h-3.1a.5.5,0,0,1-.5-.5V46.67a.5.5,0,0,1,.5-.5H457A.51.51,0,0,1,457.5,46.67Z" transform="translate(-390.06 -21.94)" style="fill:#feda6f"/><path d="M446.86,43.53h1.78v4.23h-1.78Z" transform="translate(-390.06 -21.94)" style="fill:#dbd8dd"/><path d="M449.8,46.67v3.88a.5.5,0,0,1-.5.5h-3.1a.5.5,0,0,1-.5-.5V46.67a.51.51,0,0,1,.5-.5h3.1A.5.5,0,0,1,449.8,46.67Z" transform="translate(-390.06 -21.94)" style="fill:#feda6f"/><path d="M439.17,43.53h1.77v4.23h-1.77Z" transform="translate(-390.06 -21.94)" style="fill:#dbd8dd"/><path d="M442.11,46.67v3.88a.5.5,0,0,1-.5.5h-3.1a.5.5,0,0,1-.5-.5V46.67a.5.5,0,0,1,.5-.5h3.1A.51.51,0,0,1,442.11,46.67Z" transform="translate(-390.06 -21.94)" style="fill:#feda6f"/><path d="M431.48,43.53h1.77v4.23h-1.77Z" transform="translate(-390.06 -21.94)" style="fill:#dbd8dd"/><path d="M434.41,46.67v3.88a.5.5,0,0,1-.5.5h-3.1a.5.5,0,0,1-.5-.5V46.67a.51.51,0,0,1,.5-.5h3.1A.5.5,0,0,1,434.41,46.67Z" transform="translate(-390.06 -21.94)" style="fill:#feda6f"/><path d="M423.78,43.53h1.77v4.23h-1.77Z" transform="translate(-390.06 -21.94)" style="fill:#dbd8dd"/><path d="M426.72,46.67v3.88a.5.5,0,0,1-.5.5h-3.1a.5.5,0,0,1-.5-.5V46.67a.5.5,0,0,1,.5-.5h3.1A.51.51,0,0,1,426.72,46.67Z" transform="translate(-390.06 -21.94)" style="fill:#feda6f"/><path d="M457.93,50H422.18a4.11,4.11,0,0,0-4.11,4.11V89.82a4.11,4.11,0,0,0,4.11,4.11h35.75A4.11,4.11,0,0,0,462,89.82V54.07A4.11,4.11,0,0,0,457.93,50Z" transform="translate(-390.06 -21.94)" style="fill:#41a38e"/><path d="M462,60V59h-6.19V52.73h-7V50h-1v5h-11V65.44H427.1V50h-1v16.5h10.79v6.75H418.07v1h18.79V87.39H426.07v6.54h1V88.41h10.78V56h11v-2.2h5.94V67.43h3.35v9.22H447.87V93.93h1V77.68H459.2V67.43H462v-1h-6.19V60Z" transform="translate(-390.06 -21.94)" style="fill:#338270"/><path d="M428.76,60.65h22.59V83.24H428.76Z" transform="translate(-390.06 -21.94)" style="fill:#ededed"/></svg>