<svg id="Layer_1" data-name="Layer 1" xmlns="http://www.w3.org/2000/svg" width="595.28" height="841.89" viewBox="0 0 595.28 841.89"><defs><style>.cls-1{fill:#2a3136;}.cls-2{fill:#31c5f4;}.cls-3{fill:#69788f;}.cls-4{fill:#4e9ad4;}.cls-5{fill:#333945;}</style></defs><title>logo</title><g id="Paperly"><g id="_1" data-name="1"><path class="cls-1" d="M-7.0343-5.0428c-1.6481-1.8985-2.9966-1.3948-2.9966,1.1192V254.5758c0,2.514,1.327,2.9993,2.9489,1.0784l32.7954-38.8437a14.5533,14.5533,0,0,0,2.9489-8.0637V40.6481a14.2261,14.2261,0,0,0-2.9966-8.0228Z" transform="translate(273 284)"/></g><g id="_2" data-name="2"><path class="cls-1" d="M118.13,54.9616a6.7279,6.7279,0,0,0-3.5411-6.4948L-7.59-9.5838c-2.2708-1.079-2.7837-.4054-1.14,1.4967l53.3063,61.681a25.9778,25.9778,0,0,0,7.1176,5.42l57.8663,27.494a39.1974,39.1974,0,0,0,4.1926,1.8424c.0352-.0656.3284-2.1592.6516-4.6524Z" transform="translate(273 284)"/></g><g id="_3" data-name="3"><path class="cls-2" d="M123.4317,48.0407c-.0008-2.5141-1.8251-3.62-4.0542-2.457l-169.95,88.6528c-2.229,1.1628-2.3188,3.2207-.2,4.5732l30.4068,19.4057a8.7558,8.7558,0,0,0,7.9046.3424L119.3924,89.6706a8.3077,8.3077,0,0,0,4.05-6.6877Z" transform="translate(273 284)"/></g></g><polygon class="cls-3" points="119.743 841.89 261.08 841.89 317.006 785.531 179.521 785.531 119.743 841.89"/><polygon class="cls-3" points="0 841.89 70.669 841.89 130.113 785.531 63.297 785.531 0 841.89"/><polygon class="cls-3" points="595.28 393.046 595.28 504.594 523.848 570.113 523.848 465.063 595.28 393.046"/><polygon class="cls-3" points="595.28 341.475 595.28 272.454 559.564 308.463 559.564 377.483 595.28 341.475"/><polygon class="cls-4" points="245.658 841.89 595.279 489.319 594.823 841.89 245.658 841.89"/><polygon class="cls-3" points="331.219 841.89 595.279 575.666 595.28 841.89 331.219 841.89"/><polygon class="cls-5" points="595.28 575.666 595.28 841.89 523.848 779.682 523.848 647.683 595.28 575.666"/><polygon class="cls-4" points="523.848 779.682 461.207 841.89 595.28 841.89 523.848 779.682"/><polygon class="cls-4" points="59.679 841.89 130.348 841.89 218.374 759.247 151.558 759.247 59.679 841.89"/><polygon class="cls-3" points="353.45 0 248.398 0 206.831 41.89 309.019 41.89 353.45 0"/><polygon class="cls-3" points="442.45 0 389.924 0 345.741 41.89 395.404 41.89 442.45 0"/><polygon class="cls-3" points="0 333.61 0 250.7 53.093 202.002 53.093 280.082 0 333.61"/><polygon class="cls-3" points="0 371.941 0 423.241 26.546 396.477 26.546 345.177 0 371.941"/><polygon class="cls-4" points="259.923 0 0 262.053 0 0.405 259.923 0"/><polygon class="cls-3" points="196.267 0 0 197.875 0 0 196.267 0"/><polygon class="cls-5" points="0 197.875 0 0 53.093 46.237 53.093 144.347 0 197.875"/><polygon class="cls-4" points="53.093 46.237 99.244 0 0 0 53.093 46.237"/><polygon class="cls-4" points="398.093 0 345.567 0 280.14 61.426 329.802 61.426 398.093 0"/></svg>