<svg id="Layer_1" data-name="Layer 1" xmlns="http://www.w3.org/2000/svg" width="175.75" height="266.93" viewBox="0 0 175.75 266.93"><defs><style>.cls-1{fill:#373f44;}.cls-2{fill:#3f58a7;}</style></defs><title>logo</title><g id="Paperly"><g id="_1" data-name="1"><path class="cls-1" d="M50.66,10.64c-1.65-1.9-3-1.39-3,1.12v258.5c0,2.51,1.33,3,3,1.08L83.4,232.49a14.54,14.54,0,0,0,2.95-8.06V56.33a14.28,14.28,0,0,0-3-8Z" transform="translate(-5.38 -5.59)"/></g><g id="_2" data-name="2"><path class="cls-1" d="M175.82,70.65a6.74,6.74,0,0,0-3.54-6.5L50.1,6.1C47.83,5,47.32,5.7,49,7.6l53.31,61.68a26,26,0,0,0,7.11,5.42l57.87,27.49a38.1,38.1,0,0,0,4.19,1.84c0-.06.33-2.15.65-4.65Z" transform="translate(-5.38 -5.59)"/></g><g id="_3" data-name="3"><path class="cls-2" d="M181.12,63.73c0-2.52-1.82-3.62-4.05-2.46L7.12,149.92c-2.23,1.16-2.32,3.22-.2,4.57l30.4,19.41a8.76,8.76,0,0,0,7.91.34l131.85-68.88a8.32,8.32,0,0,0,4-6.69Z" transform="translate(-5.38 -5.59)"/></g></g></svg>