<svg id="Layer_1" data-name="Layer 1" xmlns="http://www.w3.org/2000/svg" xmlns:xlink="http://www.w3.org/1999/xlink" width="183.8816" height="210.8553" viewBox="0 0 183.8816 210.8553"><defs><style>.cls-1{fill:none;}.cls-2{fill:#f3f3f3;}.cls-3{fill:#ccc;}.cls-4{fill:#010101;}.cls-5{fill:#89c540;}.cls-6{fill:#5eab45;}.cls-7{fill:#41bb95;}.cls-8{fill:#009974;}.cls-9{fill:#13a0c0;}.cls-10{fill:#107890;}.cls-11{fill:#515aa8;}.cls-12{fill:#3c4481;}.cls-13{fill:#08909f;}.cls-14{fill:#086d77;}.cls-15,.cls-16,.cls-17,.cls-18,.cls-19,.cls-21,.cls-23,.cls-24,.cls-25,.cls-26{fill-rule:evenodd;}.cls-15{fill:url(#linear-gradient);}.cls-16{fill:url(#linear-gradient-2);}.cls-17,.cls-22{fill:#fff;}.cls-18{fill:url(#linear-gradient-3);}.cls-19{fill:url(#linear-gradient-4);}.cls-20{fill:url(#linear-gradient-5);}.cls-21{fill:url(#linear-gradient-6);}.cls-23{fill:url(#linear-gradient-7);}.cls-24{fill:url(#linear-gradient-8);}.cls-25{fill:url(#linear-gradient-9);}.cls-26{fill:url(#linear-gradient-10);}</style><linearGradient id="linear-gradient" x1="41.7966" y1="88.2251" x2="23.0425" y2="69.471" gradientUnits="userSpaceOnUse"><stop offset="0" stop-color="#89c540"/><stop offset="1" stop-color="#5eab45"/></linearGradient><linearGradient id="linear-gradient-2" x1="43.7162" y1="90.1447" x2="28.5059" y2="74.9344" gradientUnits="userSpaceOnUse"><stop offset="0" stop-color="#5eab45"/><stop offset="1" stop-color="#89c540"/></linearGradient><linearGradient id="linear-gradient-3" x1="105.5809" y1="97.0518" x2="127.3504" y2="76.6429" gradientUnits="userSpaceOnUse"><stop offset="0" stop-color="#41bb95"/><stop offset="1" stop-color="#009974"/></linearGradient><linearGradient id="linear-gradient-4" x1="122.3017" y1="80.9175" x2="103.6927" y2="99.5266" xlink:href="#linear-gradient-3"/><linearGradient id="linear-gradient-5" x1="124.7107" y1="150.6526" x2="145.1186" y2="169.7" gradientUnits="userSpaceOnUse"><stop offset="0" stop-color="#13a0c0"/><stop offset="1" stop-color="#107890"/></linearGradient><linearGradient id="linear-gradient-6" x1="141.0364" y1="166.0473" x2="119.8777" y2="145.8652" xlink:href="#linear-gradient-5"/><linearGradient id="linear-gradient-7" x1="87.8003" y1="185.0926" x2="70.1128" y2="201.6462" gradientUnits="userSpaceOnUse"><stop offset="0" stop-color="#515aa8"/><stop offset="1" stop-color="#3c4481"/></linearGradient><linearGradient id="linear-gradient-8" x1="69.7572" y1="202.1293" x2="89.1589" y2="183.637" xlink:href="#linear-gradient-7"/><linearGradient id="linear-gradient-9" x1="50.3963" y1="151.1866" x2="29.195" y2="162.6895" gradientUnits="userSpaceOnUse"><stop offset="0" stop-color="#08909f"/><stop offset="1" stop-color="#086d77"/></linearGradient><linearGradient id="linear-gradient-10" x1="30.3652" y1="165.6331" x2="49.7671" y2="147.1406" xlink:href="#linear-gradient-9"/></defs><title>marketing-2</title><rect class="cls-1" width="183.8816" height="210.8553"/><rect class="cls-2" x="75.7173" y="46.8805" width="99.6017" height="136.4054" rx="4"/><rect class="cls-3" x="86.2358" y="132.0113" width="69.0324" height="4.0138" rx="1.8818"/><rect class="cls-3" x="85.5885" y="91.1565" width="69.0324" height="4.0138" rx="1.8818"/><path class="cls-4" d="M102.1594,63.2139l2.3154,6.3975,2.3154-6.3975h1.211v7.84h-.9336V68.001l.0879-3.2954-2.3262,6.3486h-.7148l-2.32-6.3325.0927,3.2793v3.0532h-.9345v-7.84Z"/><path class="cls-4" d="M113.65,69.0025h-2.9678l-.666,2.0517h-.9638l2.705-7.84h.8174l2.71,7.84h-.959Zm-2.6855-.8452h2.4082l-1.2071-3.667Z"/><path class="cls-4" d="M118.8352,67.8828h-1.6631v3.1714h-.9395v-7.84h2.3448a2.5953,2.5953,0,0,1,1.8418.6035,2.6021,2.6021,0,0,1,.2871,3.0313,2.1638,2.1638,0,0,1-.9952.8129l1.6641,3.3282v.0644h-1.0029Zm-1.6631-.8457h1.4346a1.5189,1.5189,0,0,0,1.1064-.3989,1.4192,1.4192,0,0,0,.4111-1.0684,1.5021,1.5021,0,0,0-.3916-1.1166,1.5542,1.5542,0,0,0-1.1308-.3936h-1.43Z"/><path class="cls-4" d="M124.1721,67.4087l-.8662.9961v2.6494h-.9336v-7.84h.9336v3.8774l3.1474-3.8774h1.1289l-2.788,3.4624,3.0068,4.3779h-1.1192Z"/><path class="cls-4" d="M132.6213,67.43H129.552V70.209h3.5664v.8452h-4.5v-7.84H133.07V64.06H129.552V66.585h3.0693Z"/><path class="cls-4" d="M139.2727,64.06h-2.2774v6.9946h-.9287V64.06h-2.2724v-.8457h5.4785Z"/><path class="cls-4" d="M141.3254,71.0542h-.9346v-7.84h.9346Z"/><path class="cls-4" d="M148.4758,71.0542h-.9385l-3.5654-6.0415v6.0415h-.94v-7.84h.94l3.5752,6.0688V63.2139h.9287Z"/><path class="cls-4" d="M155.3645,70.0259a2.2031,2.2031,0,0,1-1.0039.8535,3.7146,3.7146,0,0,1-1.501.2827,2.6967,2.6967,0,0,1-1.5371-.45,2.91,2.91,0,0,1-1.0391-1.2788,4.8178,4.8178,0,0,1-.3769-1.9223v-.6841a4.4288,4.4288,0,0,1,.747-2.7461,2.49,2.49,0,0,1,2.0987-.9746,2.5184,2.5184,0,0,1,1.7851.6274,2.8333,2.8333,0,0,1,.8272,1.7793h-.9336a1.704,1.704,0,0,0-3.0967-.831,3.8667,3.8667,0,0,0-.4893,2.1152v.6411a3.5992,3.5992,0,0,0,.545,2.0991,1.7083,1.7083,0,0,0,1.4746.7788,2.9593,2.9593,0,0,0,.9189-.1289,1.4059,1.4059,0,0,0,.6524-.435V67.9956h-1.64V67.15h2.5684Z"/><rect class="cls-3" x="84.9689" y="111.96" width="69.0324" height="4.0138" rx="1.8818"/><path class="cls-5" d="M77.7156,66.0182V115.27a28.1971,28.1971,0,0,0-26.7067,19.7321l-10.8335-3.5978L5.2963,119.8178C15.6945,87.0994,44.0708,66.0182,77.7156,66.0182Z"/><path class="cls-6" d="M77.7156,115.27v12.5735a15.6068,15.6068,0,0,0-11.1881,4.74,16.1277,16.1277,0,0,0-3.8191,6.31l-11.6995-3.8913A28.1971,28.1971,0,0,1,77.7156,115.27Z"/><path class="cls-7" d="M141.4961,122.6858l-37.0735,12.3165A28.2015,28.2015,0,0,0,77.7156,115.27v-39.85C107.4832,75.4207,132.7224,95.2445,141.4961,122.6858Z"/><path class="cls-8" d="M104.4226,135.0023l-11.6995,3.8868a16.1808,16.1808,0,0,0-3.82-6.3052,15.6054,15.6054,0,0,0-11.188-4.74V115.27A28.2015,28.2015,0,0,1,104.4226,135.0023Z"/><path class="cls-9" d="M135.6128,144.0239a59.5415,59.5415,0,0,1-23.7943,47.8476l-5.4079-7.6127L94.3158,167.2342a29.22,29.22,0,0,0,10.1068-32.2275l28.3315-9.4115A60.47,60.47,0,0,1,135.6128,144.0239Z"/><path class="cls-10" d="M105.8361,144.0239a28.9186,28.9186,0,0,1-11.52,23.21h-.0043l-7.2207-10.1689a16.0363,16.0363,0,0,0,1.8128-1.5971,16.4345,16.4345,0,0,0,3.82-16.5746l11.7-3.8869A29.1866,29.1866,0,0,1,105.8361,144.0239Z"/><path class="cls-11" d="M94.3115,167.2342,87.086,157.0653h.0048Z"/><path class="cls-11" d="M61.12,167.1455a27.6051,27.6051,0,0,0,33.1917-.0045h.0043l12.0948,17.0243a47.8321,47.8321,0,0,1-57.39,0l5.4033-7.6082,6.6913-9.4116Z"/><path class="cls-12" d="M94.3115,167.2342a27.6061,27.6061,0,0,1-33.1917.0048L68.3455,157.07a15.549,15.549,0,0,0,18.74-.0044Z"/><path class="cls-13" d="M61.1155,167.239l-6.687,9.4161a.0045.0045,0,0,1-.0045-.0049A40.6116,40.6116,0,0,1,38.21,144.0239a41.2078,41.2078,0,0,1,1.9657-12.6194l10.8335,3.5978A29.2331,29.2331,0,0,0,61.1155,167.239Z"/><path class="cls-14" d="M68.3407,157.0653,61.1155,167.239a29.2331,29.2331,0,0,1-10.1066-32.2367l11.7,3.8913a16.4348,16.4348,0,0,0,3.8191,16.5746A16.0835,16.0835,0,0,0,68.3407,157.0653Z"/><path class="cls-15" d="M46.6752,81.1761A11.9306,11.9306,0,1,1,34.7477,68.98,12.0641,12.0641,0,0,1,46.6752,81.1761Z"/><path class="cls-16" d="M44.4214,81.1761a9.6761,9.6761,0,1,1-9.6737-9.8916A9.7845,9.7845,0,0,1,44.4214,81.1761Z"/><path class="cls-17" d="M32.63,81.6642a2.12,2.12,0,1,1,1.93,2.3448,2.1337,2.1337,0,0,1-1.93-2.3448Zm6.6983-3.6223-.6272-.6968a.0268.0268,0,0,0-.0384-.0015l-.47.4426a5.2464,5.2464,0,0,0-2.4659-1.2474v-.9419a.0656.0656,0,0,0-.0647-.0661H33.8243a.0657.0657,0,0,0-.0647.0661v.92a5.24,5.24,0,0,0-2.5336,1.23l-.3931-.37a.0268.0268,0,0,0-.0384.0015l-.6272.6968a.0283.0283,0,0,0,.0015.0393l.3759.3539a5.4816,5.4816,0,0,0-1.1654,3.3932,5.3095,5.3095,0,1,0,10.6163,0,5.4813,5.4813,0,0,0-1.13-3.3476l.4605-.4334a.0284.0284,0,0,0,.0015-.0393Zm-4.6405-1.1147a4.9363,4.9363,0,1,0,4.8263,4.935,4.8817,4.8817,0,0,0-4.8263-4.935Zm5.5525.5276a.1564.1564,0,0,1-.0082.217l-.4732.4474a.1479.1479,0,0,1-.2121-.0084l-.8892-.9827a.1563.1563,0,0,1,.0082-.217l.473-.4475a.1484.1484,0,0,1,.2124.0083l.8891.9829Zm-10.9847.0339.8891-.9829a.1485.1485,0,0,1,.2122-.0084l.473.4476a.1564.1564,0,0,1,.0084.217l-.8893.9829a.1485.1485,0,0,1-.2122.0084l-.473-.4476a.1564.1564,0,0,1-.0082-.217Zm3.8153-3.3442h3.3323a.1618.1618,0,0,1,.1594.1629v.9231a.1618.1618,0,0,1-.1594.163H33.0706a.1618.1618,0,0,1-.16-.163v-.9231a.1617.1617,0,0,1,.16-.1629Zm.9681,7.6268a.6653.6653,0,1,0,.72-.6191.6757.6757,0,0,0-.72.6191Zm-2.6717-.7392-.5383.08a.0615.0615,0,0,0-.0521.0565l-.0519.6183a.0618.0618,0,0,0,.0419.0646l.5133.1714a3.576,3.576,0,0,0,.1429.84l-.415.3347a.0625.0625,0,0,0-.0175.0754l.2572.5622a.0608.0608,0,0,0,.0682.0346l.514-.111a3.531,3.531,0,0,0,.5439.6642l-.1909.4893a.0626.0626,0,0,0,.0219.0743l.4976.3552a.06.06,0,0,0,.0758-.0046l.3809-.35a3.3872,3.3872,0,0,0,.8075.2985l.0723.5106a.0611.0611,0,0,0,.0552.0532l.6047.0533a.06.06,0,0,0,.0632-.0428l.1571-.4916a3.36,3.36,0,0,0,.85-.1574l.31.4024a.06.06,0,0,0,.0739.0179l.55-.2632a.0624.0624,0,0,0,.0339-.07l-.1049-.5074a3.4986,3.4986,0,0,0,.6541-.5711l.47.1919a.06.06,0,0,0,.0727-.0223l.3474-.5089a.0629.0629,0,0,0-.0046-.0775l-.3439-.3915a3.564,3.564,0,0,0,.2814-.8218l.5117-.076a.0612.0612,0,0,0,.0521-.0564l.0521-.6182a.0619.0619,0,0,0-.0419-.0648L38.18,81.607a3.5827,3.5827,0,0,0-.156-.8422l.4173-.3364a.063.063,0,0,0,.0175-.0756l-.2574-.5618a.06.06,0,0,0-.0679-.0346l-.5326.1151a3.5272,3.5272,0,0,0-.537-.6385l.2023-.5191a.0627.0627,0,0,0-.0216-.0745l-.4977-.3552a.06.06,0,0,0-.0758.0049l-.4137.38a3.3915,3.3915,0,0,0-.7674-.2766l-.08-.5626a.0609.0609,0,0,0-.0551-.0533l-.6046-.0531a.0605.0605,0,0,0-.0634.0428l-.1745.5471a3.3594,3.3594,0,0,0-.796.1485l-.3459-.4489a.06.06,0,0,0-.074-.0179l-.55.263a.0626.0626,0,0,0-.0339.07l.1163.5625a3.5,3.5,0,0,0-.62.5346l-.5157-.21a.06.06,0,0,0-.0729.0224l-.3473.5088a.0632.0632,0,0,0,.0047.0775l.37.4209a3.5613,3.5613,0,0,0-.2807.7885Zm.8656.5882A2.5089,2.5089,0,1,0,34.946,79.285,2.5482,2.5482,0,0,0,32.2326,81.62Z"/><path class="cls-18" d="M126.8919,88.255a11.9305,11.9305,0,1,1-11.9276-12.1964A12.0641,12.0641,0,0,1,126.8919,88.255Z"/><path class="cls-19" d="M124.6383,88.255a9.6763,9.6763,0,1,1-9.674-9.8918A9.7846,9.7846,0,0,1,124.6383,88.255Z"/><path class="cls-17" d="M117.0828,82.9254a.06.06,0,0,0,.0591-.0121l1.4477-1.2422a.0627.0627,0,0,1,.1.0652l-.47,1.8373a.0636.0636,0,0,0,.0168.0618,3.0183,3.0183,0,0,1,.3228,3.8328,2.8681,2.8681,0,0,0-2.8624-.4431,2.924,2.924,0,0,0-2.3426-1.74,2.8938,2.8938,0,0,1,3.7284-2.36Zm-1.3909,4.1126a2.8885,2.8885,0,0,0-1.286,1.0154,2.8455,2.8455,0,0,0,1.5031.6311,3.0037,3.0037,0,0,0-.2171-1.6465Zm3.0048,4.9345a.0623.0623,0,0,0-.0193.0583l.3282,1.9028a.0626.0626,0,0,1-.1056.0566l-1.3206-1.3351a.0608.0608,0,0,0-.0609-.016,2.8735,2.8735,0,0,1-3.4077-1.63,2.9724,2.9724,0,0,0,1.8066-2.3133,2.8911,2.8911,0,0,0,2.6449-1.2043,3.0032,3.0032,0,0,1,.1344,4.4815Zm-.5833-.8939a.2967.2967,0,0,0,.3024-.32.3007.3007,0,0,0-.3024-.3268.3046.3046,0,0,0-.3023.3268.2986.2986,0,0,0,.3023.32Zm-.8634.0112a.2969.2969,0,0,0,.3024-.32.3009.3009,0,0,0-.3024-.3267.3049.3049,0,0,0-.3027.3267.299.299,0,0,0,.3027.32Zm-.8637.0112a.297.297,0,0,0,.3027-.32.3009.3009,0,0,0-.3027-.3267.3048.3048,0,0,0-.3024.3267.2987.2987,0,0,0,.3024.32Zm-6.1591-2.223A2.89,2.89,0,0,0,114.09,91a3.0486,3.0486,0,0,1,.3024-2.9444,3.02,3.02,0,0,1-1.0558-2.7562,2.8958,2.8958,0,0,0-3.0846,2.2023.0622.0622,0,0,1-.0441.0456l-1.7913.5019a.0645.0645,0,0,0-.0048.1219l1.7757.6608a.0623.0623,0,0,1,.04.0464Zm2.2412-.14h-.44c-.0423-.6861.4364-.8462.4364-1.2194,0-.35-.443-.309-.6426-.1652l-.1067-.38c.4411-.27,1.2649-.2034,1.2649.464,0,.563-.5123.5991-.5123,1.3Zm-.2266.8788a.2989.2989,0,0,1-.3027-.32.3049.3049,0,0,1,.3027-.3269.3009.3009,0,0,1,.3024.3269.2969.2969,0,0,1-.3024.32Zm3.77-6.126.0692,1.8689h.4033l.07-1.8689Zm.271,2.7715a.3.3,0,0,0,.3057-.3234.3063.3063,0,1,0-.3057.3234Z"/><ellipse class="cls-20" cx="133.3687" cy="158.7334" rx="11.9276" ry="12.1962"/><path class="cls-21" d="M143.0423,158.7334a9.6762,9.6762,0,1,1-9.6736-9.8918A9.7845,9.7845,0,0,1,143.0423,158.7334Z"/><rect class="cls-22" x="128.4858" y="161.9225" width="10.7964" height="0.5308"/><polygon class="cls-22" points="138.464 154.784 138.645 155.046 135.012 157.602 132.839 154.466 127.921 157.969 127.922 158.536 132.734 155.11 134.906 158.224 138.907 155.424 139.089 155.688 139.714 154.555 138.464 154.784"/><polygon class="cls-22" points="128.566 161.488 130.366 161.488 130.366 157.182 128.566 158.499 128.566 161.488"/><polygon class="cls-22" points="138.812 156.032 137.203 157.195 137.203 161.488 139.003 161.488 139.003 156.309 138.812 156.032"/><polygon class="cls-22" points="135.044 158.626 135.044 161.488 136.843 161.488 136.843 157.326 135.049 158.623 135.044 158.626"/><polygon class="cls-22" points="130.726 157.05 130.726 161.488 132.525 161.488 132.525 155.731 130.726 157.05"/><polygon class="cls-22" points="132.885 155.998 132.885 161.488 134.684 161.488 134.684 158.671 132.885 155.998"/><path class="cls-23" d="M90.4009,193.8217a11.9307,11.9307,0,1,1-11.9276-12.1962A12.0645,12.0645,0,0,1,90.4009,193.8217Z"/><path class="cls-24" d="M88.1469,193.8217a9.6761,9.6761,0,1,1-9.6736-9.8914A9.7843,9.7843,0,0,1,88.1469,193.8217Z"/><path class="cls-22" d="M79.677,191.8753a3.02,3.02,0,0,0-1.0124-.3178v1.53l.216.0529q.45.1241.8172.2656a1.7391,1.7391,0,0,1,1.0161.862,2.0512,2.0512,0,0,1-.03,1.56,2.0988,2.0988,0,0,1-1.9414,1.026v.7074a.2622.2622,0,0,1-.2594.2652h0a.2624.2624,0,0,1-.2594-.2652v-.7164a4.4669,4.4669,0,0,1-1.75-.5033.574.574,0,0,1,.5333-1.0165,3.86,3.86,0,0,0,1.2948.4235v-1.521a7.1572,7.1572,0,0,1-1.0769-.358,1.434,1.434,0,0,1-.9727-1.4278,1.8188,1.8188,0,0,1,1.1935-1.7777,2.7794,2.7794,0,0,1,.7781-.1765v-.637a.2625.2625,0,0,1,.2594-.2653h0a.2623.2623,0,0,1,.2594.2653v.628a3.64,3.64,0,0,1,1.4059.3971.5642.5642,0,0,1,.2361.7659A.5311.5311,0,0,1,79.677,191.8753Zm-2.1972.3721a.5366.5366,0,0,0,.2034.4553,1.9733,1.9733,0,0,0,.6182.2786v-1.4327Q77.4794,191.6017,77.48,192.2474Zm2.1014,2.8736a.5383.5383,0,0,0-.2423-.4686,2.6346,2.6346,0,0,0-.6743-.31v1.4234Q79.581,195.74,79.5812,195.121Z"/><path class="cls-22" d="M84.8175,192.2623h-.72a5.86,5.86,0,0,0-6.1937-4.3886,5.9822,5.9822,0,0,0,.5552,11.9224,5.8209,5.8209,0,0,0,5.0494-2.9749.4421.4421,0,0,0-.1942-.6206l-.01-.0045a.42.42,0,0,0-.54.1736,4.95,4.95,0,0,1-4.6636,2.5279,5.094,5.094,0,0,1,.3581-10.1645,4.9976,4.9976,0,0,1,4.7361,3.5292h-.76a.4189.4189,0,0,0-.3439.6456l1.18,1.8689a.4049.4049,0,0,0,.6863.003l1.2019-1.8689A.4189.4189,0,0,0,84.8175,192.2623Z"/><path class="cls-25" d="M51.0089,157.3256A11.9307,11.9307,0,1,1,39.0813,145.13,12.0641,12.0641,0,0,1,51.0089,157.3256Z"/><path class="cls-26" d="M48.7551,157.3256a9.6763,9.6763,0,1,1-9.6738-9.8918A9.7847,9.7847,0,0,1,48.7551,157.3256Z"/><path class="cls-22" d="M40.6859,161.1122a.0556.0556,0,0,0-.0548-.0562h-.065c.6423-2.5067,3.0374-3.3523,2.9054-6.1659a4.388,4.388,0,1,0-8.7754.003c-.12,2.5961,1.8664,3.48,2.7057,5.5471a4.8256,4.8256,0,0,1,.2035.6169H37.54a.0556.0556,0,0,0-.055.0563v.7785l3.2007-.0011Zm-.8849-.5979-.0005-2.0227a.3409.3409,0,0,0-.039-.1587c.2865-.979.8166-2.7991.958-3.2863.516-.02,1.1231-.0358,1.3459-.38.3518-.5449-.469-1.3079-1.0316-1.0084-.3491.1856-.4511.7045-.5468,1.084-.6308.0164-2.1877.0168-2.8159.0008-.1-.3956-.2762-1.4159-1.1175-1.087a.7416.7416,0,0,0-.4611,1.0125c.2246.3472.839.3595,1.3463.3792.3678,1.2606.5691,1.9531.9634,3.2983a.34.34,0,0,0-.0331.146l.0007,2.0231h-.3727a8.04,8.04,0,0,0-1.44-2.3949,4.4524,4.4524,0,0,1-1.3314-3.201,4.2991,4.2991,0,0,1,1.1456-2.7715,3.6528,3.6528,0,0,1,2.711-1.1563,3.702,3.702,0,0,1,2.175.6862,4.2087,4.2087,0,0,1,1.6844,3.239,4.5372,4.5372,0,0,1-1.3358,3.2088,8.2317,8.2317,0,0,0-1.4316,2.389Zm-.9665-4.4478a.2548.2548,0,0,0,.0862.1911l.0007,1.8976-.2235,0a.2865.2865,0,0,0-.0323.0015c-.2164-.7391-.78-2.668-.9056-3.1.4721.01,2.1746.0089,2.6383-.0011-.15.5182-.627,2.1542-.9035,3.1l-.0235-.0011h-.2235l0-1.8976a.2557.2557,0,0,0,.0861-.1911.25.25,0,1,0-.4989,0Zm1.9719-1.3422c.0978-.3978.2061-.8206.4979-.8206.3771,0,.62.4135.5065.59-.1352.2094-.74.222-1.0061.2358Zm-4.4592-.2283c-.1747-.2719.3464-.7137.6357-.56.2.1065.2938.4853.3688.79C37.367,154.7832,36.4748,154.6934,36.3472,154.496Z"/><rect class="cls-22" x="37.4857" y="162.2065" width="3.2007" height="0.4075"/><path class="cls-22" d="M40.4644,163.3373h.1084a.1112.1112,0,0,0,.1139-.1088l0-.3-3.2007.0011,0,.3a.1112.1112,0,0,0,.114.1084h.1093c.2813.5893.5254,1.217,1.1471,1.2166h.4608C39.9548,164.5546,40.1812,163.9266,40.4644,163.3373Z"/></svg>