<svg id="Layer_1" data-name="Layer 1" xmlns="http://www.w3.org/2000/svg" width="100" height="100" viewBox="0 0 100 100"><title>marketing</title><circle cx="50" cy="50" r="50" style="fill:#21b3a9"/><path d="M461.84,91.92c-.18-3.47-.58-7.61-1.45-9.26-1.19-2.25-4.94-3.25-6.84-3.61a6.88,6.88,0,0,0-.7-.12h-.2l-.24,0h-.69l-1.29-.09-1.76.79-1.76-.79-1.29.09h-.69l-.26,0h-.19l-.43.07h-.14c-1.87.35-5.75,1.34-7,3.64-.87,1.65-1.27,5.78-1.46,9.26Z" transform="translate(-374.45 -37.55)" style="fill:#2f4859"/><path d="M446.14,75.26h5.05v4.25h-5.05Z" transform="translate(-374.45 -37.55)" style="fill:#f7be56"/><path d="M443.31,69.2c.49-.08,1,.67,1.17,1.67s-.1,1.89-.58,2-1-.68-1.17-1.68S442.83,69.28,443.31,69.2Z" transform="translate(-374.45 -37.55)" style="fill:#fcd462"/><path d="M453.94,69.2c-.49-.08-1,.67-1.17,1.67s.09,1.89.58,2,1-.68,1.17-1.68S454.42,69.28,453.94,69.2Z" transform="translate(-374.45 -37.55)" style="fill:#fcd462"/><path d="M448.67,62.91c-2.86,0-5.17,3.21-5.17,7.19s2.34,7.19,5.17,7.19,5.17-3.22,5.17-7.19S451.52,62.91,448.67,62.91Z" transform="translate(-374.45 -37.55)" style="fill:#fcd462"/><path d="M453.64,63.55c-3-3.37-8.16-1.61-9.68-.28-1.76,1.57-.61,5.55-.51,7.39a.34.34,0,0,0,.33.32.32.32,0,0,0,.32-.3c.13-1.31.11-4.69.78-5,1.75,3,5.47-2.49,7.73,1.94a6.4,6.4,0,0,1,.73,3,.33.33,0,0,0,.33.31.34.34,0,0,0,.33-.32C454.09,68.8,454.66,64.7,453.64,63.55Z" transform="translate(-374.45 -37.55)" style="fill:#3a556a"/><path d="M447.4,91.92h2.54l-.67-9.3,1.41-2-2-1.15-2,1.15,1.41,2Z" transform="translate(-374.45 -37.55)" style="fill:#e1e6e9"/><path d="M451.2,77.48l-2.53,2,2.13,2.36,1.61-3Z" transform="translate(-374.45 -37.55)" style="fill:#3a556a"/><path d="M446.14,77.48l2.53,2-2.37,2.3-1.37-3Z" transform="translate(-374.45 -37.55)" style="fill:#3a556a"/><path d="M413.41,91.92c-.18-3.47-.58-7.61-1.45-9.26-1.19-2.25-4.94-3.25-6.84-3.61a1.93,1.93,0,0,0-.7-.1h-.2l-.24,0h-.69L402,78.83l-1.77.78-1.75-.78-1.29.08h-.69l-.26,0h-.19l-.43.07h-.14c-1.87.35-5.75,1.35-7,3.64-.87,1.65-1.27,5.79-1.46,9.26Z" transform="translate(-374.45 -37.55)" style="fill:#e1e6e9"/><path d="M397.71,75.26h5.05v4.25h-5.05Z" transform="translate(-374.45 -37.55)" style="fill:#f7be56"/><path d="M394.88,69.2c.49-.08,1,.67,1.17,1.67s-.1,1.89-.58,2-1-.68-1.17-1.68S394.4,69.28,394.88,69.2Z" transform="translate(-374.45 -37.55)" style="fill:#fcd462"/><path d="M405.51,69.2c-.49-.08-1,.67-1.17,1.67s.09,1.89.58,2,1-.68,1.17-1.68S406,69.28,405.51,69.2Z" transform="translate(-374.45 -37.55)" style="fill:#fcd462"/><path d="M400.23,62.91c-2.85,0-5.16,3.21-5.16,7.19s2.34,7.19,5.16,7.19,5.18-3.22,5.18-7.19S403.09,62.91,400.23,62.91Z" transform="translate(-374.45 -37.55)" style="fill:#fcd462"/><path d="M405.61,63.68a5.29,5.29,0,0,0-2.74-.93c-.83-2.34-5.82-.78-7.34.52-1.76,1.57-.61,5.55-.51,7.39a.34.34,0,0,0,.33.32.32.32,0,0,0,.32-.3c.13-1.31.11-4.69.78-5,1.75,3,4.93,3,7.73,1.94a6.4,6.4,0,0,1,.73,3,.33.33,0,0,0,.32.31.34.34,0,0,0,.34-.32c.09-1.86,1.22-6,0-7Z" transform="translate(-374.45 -37.55)" style="fill:#3a556a"/><path d="M399,91.92h2.54l-.67-9.3,1.41-2-2-1.15-2,1.15,1.41,2Z" transform="translate(-374.45 -37.55)" style="fill:#e56353"/><path d="M402.77,77.48l-2.53,2,2.14,2.36,1.6-3Z" transform="translate(-374.45 -37.55)" style="fill:#ebf0f3"/><path d="M397.71,77.48l2.53,2-2.37,2.3-1.37-3Z" transform="translate(-374.45 -37.55)" style="fill:#ebf0f3"/><path d="M443.75,113.55c-.28-5.28-.88-11.55-2.2-14.07-1.8-3.41-7.5-4.93-10.39-5.46l-1.05-.22h-.27l-.36,0-.7,0h-.34l-2-.14-2.68,1.2-2.67-1.2-2,.14h-.36l-.68,0-.39,0h-.32l-.65.11h-.21c-2.83.54-8.72,2-10.56,5.53-1.32,2.49-1.92,8.76-2.2,14.06Z" transform="translate(-374.45 -37.55)" style="fill:#fe7058"/><path d="M419.94,88.27h7.65v6.44h-7.65Z" transform="translate(-374.45 -37.55)" style="fill:#f7be56"/><path d="M421.84,113.55h3.86l-1-14.1,2.15-3-3.05-1.74-3.06,1.74,2.15,3Z" transform="translate(-374.45 -37.55)" style="fill:#e1e6e9"/><path d="M427.59,91.63l-3.82,3.08L427,98.28l2.43-4.55Z" transform="translate(-374.45 -37.55)" style="fill:#ea6453"/><path d="M419.94,91.63l3.83,3.08-3.61,3.49-2.07-4.47Z" transform="translate(-374.45 -37.55)" style="fill:#ea6453"/><path d="M430.77,80.92s.56-1.16,1.19-1,.83.08.61,1.42-.15.91-.31,2-.49,3.22-2,2,.47-4.43.47-4.43Z" transform="translate(-374.45 -37.55)" style="fill:#fcd462"/><path d="M430.55,73.2c-1.07-2-6.54-1.82-6.54-1.82s-5.47-.16-6.54,1.82-.45,7-.45,7a17.35,17.35,0,0,0,.45,5.18,6.93,6.93,0,0,0,3.38,5,5.94,5.94,0,0,0,6.31,0,7,7,0,0,0,3.39-5,17.34,17.34,0,0,0,.43-5.18s.63-5-.43-7Z" transform="translate(-374.45 -37.55)" style="fill:#fcd462"/><path d="M417.23,80.92s-.54-1.16-1.18-1-.83.08-.61,1.42.15.91.32,2,.48,3.22,1.95,2-.48-4.43-.48-4.43Z" transform="translate(-374.45 -37.55)" style="fill:#fcd462"/><path d="M430.77,81.8h.5s2.1-7.32,2.14-8.68a1.44,1.44,0,0,0-1.32-1.49s1.61-4.84-4.75-5.47-9.63,1.46-11.16,3.86-.53,7.82-.24,9,.82,2.82.82,2.82h.58s-.62-5,.5-7,1.85-2.7,4.08-2c5.17,1.66,8.43.38,8.43.38s.15,3.76.45,5.54a8.29,8.29,0,0,1,0,3.1Z" transform="translate(-374.45 -37.55)" style="fill:#2f4859"/></svg>