<svg id="Layer_1" data-name="Layer 1" xmlns="http://www.w3.org/2000/svg" xmlns:xlink="http://www.w3.org/1999/xlink" width="183.88" height="210.86" viewBox="0 0 183.88 210.86"><defs><style>.cls-1{fill:none;}.cls-2{fill:#f3f3f3;}.cls-3{fill:#ccc;}.cls-4{fill:#010101;}.cls-5{fill:#89c540;}.cls-6{fill:#5eab45;}.cls-7{fill:#41bb95;}.cls-8{fill:#009974;}.cls-9{fill:#13a0c0;}.cls-10{fill:#107890;}.cls-11{fill:#515aa8;}.cls-12{fill:#3c4481;}.cls-13{fill:#08909f;}.cls-14{fill:#086d77;}.cls-15,.cls-16,.cls-17,.cls-18,.cls-19,.cls-21,.cls-23,.cls-24,.cls-25,.cls-26{fill-rule:evenodd;}.cls-15{fill:url(#linear-gradient);}.cls-16{fill:url(#linear-gradient-2);}.cls-17,.cls-22{fill:#fff;}.cls-18{fill:url(#linear-gradient-3);}.cls-19{fill:url(#linear-gradient-4);}.cls-20{fill:url(#linear-gradient-5);}.cls-21{fill:url(#linear-gradient-6);}.cls-23{fill:url(#linear-gradient-7);}.cls-24{fill:url(#linear-gradient-8);}.cls-25{fill:url(#linear-gradient-9);}.cls-26{fill:url(#linear-gradient-10);}</style><linearGradient id="linear-gradient" x1="41.8" y1="88.23" x2="23.04" y2="69.47" gradientUnits="userSpaceOnUse"><stop offset="0" stop-color="#89c540"/><stop offset="1" stop-color="#5eab45"/></linearGradient><linearGradient id="linear-gradient-2" x1="43.72" y1="90.14" x2="28.51" y2="74.93" gradientUnits="userSpaceOnUse"><stop offset="0" stop-color="#5eab45"/><stop offset="1" stop-color="#89c540"/></linearGradient><linearGradient id="linear-gradient-3" x1="105.58" y1="97.05" x2="127.35" y2="76.64" gradientUnits="userSpaceOnUse"><stop offset="0" stop-color="#41bb95"/><stop offset="1" stop-color="#009974"/></linearGradient><linearGradient id="linear-gradient-4" x1="122.3" y1="80.92" x2="103.69" y2="99.53" xlink:href="#linear-gradient-3"/><linearGradient id="linear-gradient-5" x1="124.71" y1="150.65" x2="145.12" y2="169.7" gradientUnits="userSpaceOnUse"><stop offset="0" stop-color="#13a0c0"/><stop offset="1" stop-color="#107890"/></linearGradient><linearGradient id="linear-gradient-6" x1="141.04" y1="166.05" x2="119.88" y2="145.87" xlink:href="#linear-gradient-5"/><linearGradient id="linear-gradient-7" x1="87.8" y1="185.09" x2="70.11" y2="201.65" gradientUnits="userSpaceOnUse"><stop offset="0" stop-color="#515aa8"/><stop offset="1" stop-color="#3c4481"/></linearGradient><linearGradient id="linear-gradient-8" x1="69.76" y1="202.13" x2="89.16" y2="183.64" xlink:href="#linear-gradient-7"/><linearGradient id="linear-gradient-9" x1="50.4" y1="151.19" x2="29.19" y2="162.69" gradientUnits="userSpaceOnUse"><stop offset="0" stop-color="#08909f"/><stop offset="1" stop-color="#086d77"/></linearGradient><linearGradient id="linear-gradient-10" x1="30.37" y1="165.63" x2="49.77" y2="147.14" xlink:href="#linear-gradient-9"/></defs><title>marketing</title><rect class="cls-1" width="183.88" height="210.86"/><rect class="cls-2" x="75.72" y="46.88" width="99.6" height="136.41" rx="4"/><rect class="cls-3" x="86.24" y="132.01" width="69.03" height="4.01" rx="1.88"/><rect class="cls-3" x="85.59" y="91.16" width="69.03" height="4.01" rx="1.88"/><path class="cls-4" d="M102.16,63.21l2.31,6.4,2.32-6.4H108v7.84h-.93V68l.09-3.29-2.33,6.34h-.72l-2.32-6.33.1,3.28v3H101V63.21Z"/><path class="cls-4" d="M113.65,69h-3l-.66,2h-1l2.71-7.84h.81l2.71,7.84h-1ZM111,68.16h2.41l-1.2-3.67Z"/><path class="cls-4" d="M118.84,67.88h-1.67v3.17h-.94V63.21h2.35a2.6,2.6,0,0,1,1.84.61,2.27,2.27,0,0,1,.64,1.75,2.34,2.34,0,0,1-.35,1.28,2.18,2.18,0,0,1-1,.81L121.38,71v.06h-1ZM117.17,67h1.44a1.53,1.53,0,0,0,1.1-.4,1.4,1.4,0,0,0,.41-1.07,1.51,1.51,0,0,0-.39-1.12,1.54,1.54,0,0,0-1.13-.39h-1.43Z"/><path class="cls-4" d="M124.17,67.41l-.86,1v2.65h-.94V63.21h.94v3.88l3.14-3.88h1.13l-2.79,3.47,3,4.37h-1.12Z"/><path class="cls-4" d="M132.62,67.43h-3.07v2.78h3.57v.84h-4.5V63.21h4.45v.85h-3.52v2.52h3.07Z"/><path class="cls-4" d="M139.27,64.06H137v7h-.93v-7h-2.28v-.85h5.48Z"/><path class="cls-4" d="M141.33,71.05h-.94V63.21h.94Z"/><path class="cls-4" d="M148.48,71.05h-.94L144,65v6H143V63.21H144l3.58,6.07V63.21h.93Z"/><path class="cls-4" d="M155.36,70a2.19,2.19,0,0,1-1,.85,3.68,3.68,0,0,1-1.5.28,2.7,2.7,0,0,1-1.54-.45,2.9,2.9,0,0,1-1-1.28,4.76,4.76,0,0,1-.37-1.92v-.68a4.5,4.5,0,0,1,.74-2.75,2.49,2.49,0,0,1,2.1-1,2.56,2.56,0,0,1,1.79.62,2.86,2.86,0,0,1,.82,1.78h-.93A1.59,1.59,0,0,0,152.76,64a1.63,1.63,0,0,0-1.43.73,4,4,0,0,0-.49,2.12v.64a3.63,3.63,0,0,0,.55,2.1,1.7,1.7,0,0,0,1.47.78,3.14,3.14,0,0,0,.92-.13,1.43,1.43,0,0,0,.66-.44V68H152.8v-.85h2.56Z"/><rect class="cls-3" x="84.97" y="111.96" width="69.03" height="4.01" rx="1.88"/><path class="cls-5" d="M77.72,66v49.25A28.2,28.2,0,0,0,51,135l-10.83-3.6L5.3,119.82C15.69,87.1,44.07,66,77.72,66Z"/><path class="cls-6" d="M77.72,115.27v12.57a15.64,15.64,0,0,0-11.19,4.74,16.17,16.17,0,0,0-3.82,6.31L51,135A28.2,28.2,0,0,1,77.72,115.27Z"/><path class="cls-7" d="M141.5,122.69,104.42,135a28.2,28.2,0,0,0-26.7-19.73V75.42C107.48,75.42,132.72,95.24,141.5,122.69Z"/><path class="cls-8" d="M104.42,135l-11.7,3.89a16.14,16.14,0,0,0-3.82-6.31,15.62,15.62,0,0,0-11.18-4.74V115.27A28.2,28.2,0,0,1,104.42,135Z"/><path class="cls-9" d="M135.61,144a59.53,59.53,0,0,1-23.79,47.85l-5.41-7.61-12.09-17A29.18,29.18,0,0,0,104.42,135l28.33-9.41A60.22,60.22,0,0,1,135.61,144Z"/><path class="cls-10" d="M105.84,144a28.9,28.9,0,0,1-11.52,23.21h0l-7.22-10.16a16,16,0,0,0,1.81-1.6,16.43,16.43,0,0,0,3.82-16.58l11.7-3.88A29.15,29.15,0,0,1,105.84,144Z"/><path class="cls-11" d="M94.31,167.23l-7.22-10.16h0Z"/><path class="cls-11" d="M61.12,167.15a27.61,27.61,0,0,0,33.19,0h0l12.09,17a47.85,47.85,0,0,1-57.39,0l5.4-7.61,6.7-9.41Z"/><path class="cls-12" d="M94.31,167.23a27.61,27.61,0,0,1-33.19,0l7.23-10.17a15.57,15.57,0,0,0,18.74,0Z"/><path class="cls-13" d="M61.12,167.24l-6.69,9.42h0A40.63,40.63,0,0,1,38.21,144a41.05,41.05,0,0,1,2-12.62L51,135a29.21,29.21,0,0,0-1.41,9A28.91,28.91,0,0,0,61.12,167.24Z"/><path class="cls-14" d="M68.34,157.07l-7.22,10.17A28.91,28.91,0,0,1,49.6,144,29.21,29.21,0,0,1,51,135l11.7,3.89a16.43,16.43,0,0,0,3.82,16.58A16,16,0,0,0,68.34,157.07Z"/><path class="cls-15" d="M46.68,81.18A11.93,11.93,0,1,1,34.75,69,12.06,12.06,0,0,1,46.68,81.18Z"/><path class="cls-16" d="M44.42,81.18a9.68,9.68,0,1,1-9.67-9.9A9.78,9.78,0,0,1,44.42,81.18Z"/><path class="cls-17" d="M32.63,81.66A2.12,2.12,0,1,1,34.56,84a2.14,2.14,0,0,1-1.93-2.35ZM39.33,78l-.63-.69a0,0,0,0,0,0,0l-.47.45a5.25,5.25,0,0,0-2.46-1.25V75.6a.07.07,0,0,0-.07-.07H33.82a.07.07,0,0,0-.06.07v.92a5.19,5.19,0,0,0-2.53,1.23l-.4-.37h0l-.62.7s0,0,0,0l.37.35a5.53,5.53,0,0,0-1.16,3.39,5.31,5.31,0,1,0,10.62,0,5.56,5.56,0,0,0-1.13-3.35l.46-.43a0,0,0,0,0,0,0Zm-4.64-1.11a4.94,4.94,0,1,0,4.82,4.93,4.88,4.88,0,0,0-4.82-4.93Zm5.55.52a.16.16,0,0,1,0,.22l-.47.45a.14.14,0,0,1-.21,0l-.89-1a.15.15,0,0,1,0-.22l.47-.45a.15.15,0,0,1,.21,0l.89,1Zm-11,0,.88-1a.15.15,0,0,1,.22,0l.47.45a.15.15,0,0,1,0,.21l-.89,1a.14.14,0,0,1-.21,0l-.48-.44a.16.16,0,0,1,0-.22Zm3.81-3.35H36.4a.17.17,0,0,1,.16.17v.92a.16.16,0,0,1-.16.16H33.07a.16.16,0,0,1-.16-.16v-.92a.17.17,0,0,1,.16-.17Zm1,7.63a.66.66,0,1,0,1.32.12A.66.66,0,1,0,34,81.77ZM31.37,81l-.54.08a.06.06,0,0,0,0,.06l-.06.62a.06.06,0,0,0,.05.06l.51.17a3.36,3.36,0,0,0,.14.84L31,83.2a.07.07,0,0,0,0,.07l.26.57a.06.06,0,0,0,.07,0l.51-.11a3.46,3.46,0,0,0,.54.66l-.19.49a.08.08,0,0,0,0,.08l.5.35a.06.06,0,0,0,.08,0l.38-.35a3.56,3.56,0,0,0,.81.3l.07.51a.05.05,0,0,0,.05,0l.61.05s0,0,.06,0l.16-.49a3.45,3.45,0,0,0,.85-.16l.31.4a.05.05,0,0,0,.07,0l.55-.26a.07.07,0,0,0,0-.07l-.11-.51a3.56,3.56,0,0,0,.66-.57l.47.19a.07.07,0,0,0,.07,0l.35-.51a.08.08,0,0,0,0-.08l-.34-.39a3.6,3.6,0,0,0,.28-.82l.51-.08a0,0,0,0,0,.05-.05l0-.62a.06.06,0,0,0,0-.07l-.5-.16a3.45,3.45,0,0,0-.16-.85l.42-.33a.08.08,0,0,0,0-.08l-.26-.56a.05.05,0,0,0-.07,0l-.53.11a3.28,3.28,0,0,0-.54-.64l.21-.52a.06.06,0,0,0,0-.07l-.49-.36a.08.08,0,0,0-.08,0l-.41.38a3.37,3.37,0,0,0-.77-.28l-.08-.56a.06.06,0,0,0-.06,0l-.6-.06a.06.06,0,0,0-.06,0l-.18.54a3.45,3.45,0,0,0-.79.15L33.37,78a.07.07,0,0,0-.07,0l-.55.27a.07.07,0,0,0,0,.07l.12.56a3.16,3.16,0,0,0-.62.53l-.52-.21a.06.06,0,0,0-.07,0l-.35.51a.06.06,0,0,0,0,.07l.37.42a3.53,3.53,0,0,0-.28.79Zm.86.59a2.55,2.55,0,0,0,2.29,2.77,2.51,2.51,0,0,0,2.71-2.33,2.51,2.51,0,1,0-5-.44Z"/><path class="cls-18" d="M126.89,88.25A11.93,11.93,0,1,1,115,76.06,12.07,12.07,0,0,1,126.89,88.25Z"/><path class="cls-19" d="M124.64,88.25A9.68,9.68,0,1,1,115,78.36,9.79,9.79,0,0,1,124.64,88.25Z"/><path class="cls-17" d="M117.08,82.93s0,0,.06,0l1.45-1.24a.06.06,0,0,1,.1.07l-.47,1.83a.06.06,0,0,0,0,.07,3,3,0,0,1,.32,3.83A2.83,2.83,0,0,0,115.7,87a2.9,2.9,0,0,0-2.35-1.74,2.89,2.89,0,0,1,3.73-2.36ZM115.69,87a2.81,2.81,0,0,0-1.28,1,2.72,2.72,0,0,0,1.5.63,3,3,0,0,0-.22-1.64Zm3,4.93s0,0,0,.06l.33,1.9a.07.07,0,0,1-.11.06l-1.32-1.33s0,0-.06,0A2.88,2.88,0,0,1,114.11,91a3,3,0,0,0,1.81-2.31,2.88,2.88,0,0,0,2.64-1.21A3,3,0,0,1,118.7,92Zm-.59-.89a.3.3,0,0,0,.31-.32.31.31,0,1,0-.61,0,.3.3,0,0,0,.3.32Zm-.86,0a.29.29,0,0,0,.3-.32.3.3,0,0,0-.3-.33.31.31,0,0,0-.3.33.29.29,0,0,0,.3.32Zm-.86,0a.3.3,0,0,0,.3-.32.3.3,0,0,0-.3-.33.31.31,0,0,0-.31.33.3.3,0,0,0,.31.32Zm-6.16-2.22A2.89,2.89,0,0,0,114.09,91a3.05,3.05,0,0,1,.3-2.94,3,3,0,0,1-1-2.76,2.9,2.9,0,0,0-3.09,2.2.07.07,0,0,1,0,0l-1.79.5a.06.06,0,0,0,0,.12l1.78.66a.1.1,0,0,1,0,0Zm2.24-.14H112c0-.69.44-.85.44-1.22s-.45-.31-.65-.17l-.1-.38c.44-.27,1.26-.2,1.26.47s-.51.6-.51,1.3Zm-.23.88a.3.3,0,0,1-.3-.32.3.3,0,0,1,.3-.33.3.3,0,0,1,.3.33.29.29,0,0,1-.3.32ZM116,83.49l.07,1.87h.4l.07-1.87Zm.27,2.77a.3.3,0,0,0,.31-.32.31.31,0,1,0-.61,0A.29.29,0,0,0,116.28,86.26Z"/><ellipse class="cls-20" cx="133.37" cy="158.73" rx="11.93" ry="12.2"/><path class="cls-21" d="M143,158.73a9.68,9.68,0,1,1-9.67-9.89A9.79,9.79,0,0,1,143,158.73Z"/><rect class="cls-22" x="128.49" y="161.92" width="10.8" height="0.53"/><polygon class="cls-22" points="138.46 154.78 138.65 155.05 135.01 157.6 132.84 154.47 127.92 157.97 127.92 158.54 132.73 155.11 134.91 158.22 138.91 155.42 139.09 155.69 139.71 154.56 138.46 154.78"/><polygon class="cls-22" points="128.57 161.49 130.37 161.49 130.37 157.18 128.57 158.5 128.57 161.49"/><polygon class="cls-22" points="138.81 156.03 137.2 157.19 137.2 161.49 139 161.49 139 156.31 138.81 156.03"/><polygon class="cls-22" points="135.04 158.63 135.04 161.49 136.84 161.49 136.84 157.33 135.05 158.62 135.04 158.63"/><polygon class="cls-22" points="130.73 157.05 130.73 161.49 132.53 161.49 132.53 155.73 130.73 157.05"/><polygon class="cls-22" points="132.88 156 132.88 161.49 134.68 161.49 134.68 158.67 132.88 156"/><path class="cls-23" d="M90.4,193.82a11.93,11.93,0,1,1-11.93-12.19A12.07,12.07,0,0,1,90.4,193.82Z"/><path class="cls-24" d="M88.15,193.82a9.68,9.68,0,1,1-9.68-9.89A9.79,9.79,0,0,1,88.15,193.82Z"/><path class="cls-22" d="M79.68,191.88a3,3,0,0,0-1-.32v1.53l.22,0a7.17,7.17,0,0,1,.82.27,1.69,1.69,0,0,1,1,.86,2,2,0,0,1,0,1.56,2.1,2.1,0,0,1-1.94,1v.71a.26.26,0,0,1-.26.27h0a.27.27,0,0,1-.26-.27v-.71a4.5,4.5,0,0,1-1.75-.51.57.57,0,0,1,.54-1,3.91,3.91,0,0,0,1.29.42v-1.52a8.36,8.36,0,0,1-1.08-.36,1.44,1.44,0,0,1-1-1.43,1.82,1.82,0,0,1,1.2-1.78,2.78,2.78,0,0,1,.77-.17v-.64a.26.26,0,0,1,.26-.26h0a.25.25,0,0,1,.26.26v.63a3.43,3.43,0,0,1,1.41.4.56.56,0,0,1,.23.76A.52.52,0,0,1,79.68,191.88Zm-2.2.37a.54.54,0,0,0,.2.45,1.8,1.8,0,0,0,.62.28v-1.43C77.75,191.58,77.48,191.82,77.48,192.25Zm2.1,2.87a.54.54,0,0,0-.24-.47,2.93,2.93,0,0,0-.68-.31v1.43C79.28,195.75,79.58,195.53,79.58,195.12Z"/><path class="cls-22" d="M84.82,192.26H84.1a5.87,5.87,0,0,0-6.2-4.39,6,6,0,0,0,.56,11.93,5.82,5.82,0,0,0,5.05-3,.44.44,0,0,0-.2-.62h0a.42.42,0,0,0-.54.17,4.93,4.93,0,0,1-4.66,2.53,5.09,5.09,0,1,1,5.1-6.64h-.76a.42.42,0,0,0-.35.65l1.18,1.87a.41.41,0,0,0,.69,0l1.2-1.87A.42.42,0,0,0,84.82,192.26Z"/><path class="cls-25" d="M51,157.33a11.93,11.93,0,1,1-11.93-12.2A12.06,12.06,0,0,1,51,157.33Z"/><path class="cls-26" d="M48.76,157.33a9.68,9.68,0,1,1-9.68-9.9A9.79,9.79,0,0,1,48.76,157.33Z"/><path class="cls-22" d="M40.69,161.11a.06.06,0,0,0-.06-.05h-.06c.64-2.51,3-3.36,2.9-6.17a4.39,4.39,0,1,0-8.77,0c-.12,2.6,1.86,3.48,2.7,5.55a5,5,0,0,1,.21.62h-.07a0,0,0,0,0,0,.05v.78h3.2Zm-.89-.6v-2a.29.29,0,0,0,0-.16c.29-1,.82-2.8,1-3.28.52,0,1.12,0,1.35-.38.35-.55-.47-1.31-1-1-.35.18-.45.7-.54,1.08-.63,0-2.19,0-2.82,0-.1-.39-.28-1.41-1.12-1.08a.73.73,0,0,0-.46,1c.23.35.84.36,1.35.38.37,1.26.57,1.95,1,3.3a.32.32,0,0,0,0,.14v2H38a8.4,8.4,0,0,0-1.44-2.39,4.4,4.4,0,0,1-1.33-3.2,4.23,4.23,0,0,1,1.14-2.77A3.65,3.65,0,0,1,39.08,151a3.72,3.72,0,0,1,2.18.69,4.21,4.21,0,0,1,1.68,3.24,4.54,4.54,0,0,1-1.33,3.21,8.11,8.11,0,0,0-1.44,2.38Zm-1-4.44a.28.28,0,0,0,.09.19v1.9h-.25c-.22-.74-.78-2.67-.91-3.1H40.4l-.91,3.1h-.24v-1.9a.27.27,0,0,0,.08-.19.26.26,0,0,0-.25-.26A.26.26,0,0,0,38.83,156.07Zm2-1.35c.09-.39.2-.82.49-.82s.62.42.51.59-.74.23-1,.24Zm-4.46-.22c-.18-.28.34-.72.63-.56s.3.48.37.79C37.37,154.78,36.47,154.69,36.35,154.5Z"/><rect class="cls-22" x="37.49" y="162.21" width="3.2" height="0.41"/><path class="cls-22" d="M40.46,163.34h.11a.11.11,0,0,0,.12-.11v-.3h-3.2v.3a.11.11,0,0,0,.11.11h.11c.28.59.52,1.22,1.15,1.22h.46C40,164.55,40.18,163.93,40.46,163.34Z"/></svg>