<svg id="Layer_1" data-name="Layer 1" xmlns="http://www.w3.org/2000/svg" width="100" height="100" viewBox="0 0 100 100"><title>music</title><g id="Circle_Grid" data-name="Circle Grid"><circle cx="50" cy="50" r="50" style="fill:#6de8d0"/></g><g id="icon"><circle cx="49.6" cy="74.31" r="9.68" style="fill:#ef5261"/><path d="M470,27.64a1.25,1.25,0,0,1,1.24,1.25h0V74.31H468.8V28.89A1.24,1.24,0,0,1,470,27.64Z" transform="translate(-412 0)" style="fill:#ef5261"/><path d="M470.46,28.89s16.77,4.78,18.73,16.91a1.41,1.41,0,0,1-2.36,1.25,34.58,34.58,0,0,0-16.37-8.13Z" transform="translate(-412 0)" style="fill:#ef5261"/><circle cx="30.66" cy="53.97" r="7.87" style="fill:#ef5261"/><path d="M449.52,16a1,1,0,0,1,1,1V54h-2V17a1,1,0,0,1,1-1Z" transform="translate(-412 0)" style="fill:#ef5261"/><path d="M449.86,17s13.65,3.89,15.24,13.75a1.16,1.16,0,0,1-.84,1.29,1.18,1.18,0,0,1-1.09-.27,28.07,28.07,0,0,0-13.31-6.61Z" transform="translate(-412 0)" style="fill:#ef5261"/></g></svg>