<svg id="Layer_1" data-name="Layer 1" xmlns="http://www.w3.org/2000/svg" width="183.88" height="210.86" viewBox="0 0 183.88 210.86"><defs><style>.cls-1{fill:none;}.cls-2{fill:#f3f3f3;}.cls-3{fill:#ccc;}.cls-4{fill:#010101;}.cls-5{fill:#e2e2e2;}.cls-6{fill:#fff;}.cls-7{fill:#231f20;}</style></defs><title>physics</title><rect class="cls-1" width="183.88" height="210.86"/><rect class="cls-2" x="75.51" y="46.88" width="99.6" height="136.41" rx="4"/><rect class="cls-3" x="86.03" y="132.01" width="69.03" height="4.01" rx="1.88"/><rect class="cls-3" x="85.38" y="91.16" width="69.03" height="4.01" rx="1.88"/><path class="cls-4" d="M109.58,68v3.07h-.94V63.21h2.61a2.47,2.47,0,0,1,1.83.66,2.39,2.39,0,0,1,.65,1.74,2.32,2.32,0,0,1-.64,1.76,2.58,2.58,0,0,1-1.85.61Zm0-.84h1.67a1.59,1.59,0,0,0,1.15-.39,1.5,1.5,0,0,0,.4-1.13,1.54,1.54,0,0,0-.4-1.12,1.49,1.49,0,0,0-1.09-.44h-1.73Z"/><path class="cls-4" d="M120.37,71.05h-.94V67.43h-3.57v3.62h-.93V63.21h.93v3.37h3.57V63.21h.94Z"/><path class="cls-4" d="M124.05,67.15l1.85-3.94H127l-2.44,4.92v2.92h-.93V68.13l-2.45-4.92h1.07Z"/><path class="cls-4" d="M129.88,67.56a4.25,4.25,0,0,1-1.74-.94,1.87,1.87,0,0,1-.55-1.38,2,2,0,0,1,.67-1.53,2.49,2.49,0,0,1,1.74-.6,2.66,2.66,0,0,1,1.3.31,2.21,2.21,0,0,1,.88.86,2.4,2.4,0,0,1,.32,1.2h-.94a1.53,1.53,0,0,0-.41-1.12,1.85,1.85,0,0,0-2.23-.07,1.17,1.17,0,0,0-.39.94,1.08,1.08,0,0,0,.37.81,3.37,3.37,0,0,0,1.25.6,5.68,5.68,0,0,1,1.38.61,2.25,2.25,0,0,1,.74.77,2.16,2.16,0,0,1,.24,1,1.9,1.9,0,0,1-.67,1.53,2.67,2.67,0,0,1-1.79.57,3,3,0,0,1-1.37-.31,2.3,2.3,0,0,1-1-.85,2.18,2.18,0,0,1-.34-1.22h.93a1.38,1.38,0,0,0,.48,1.12,1.84,1.84,0,0,0,1.27.42,1.66,1.66,0,0,0,1.13-.34,1.27,1.27,0,0,0,0-1.8A3.93,3.93,0,0,0,129.88,67.56Z"/><path class="cls-4" d="M134.71,71.05h-.93V63.21h.93Z"/><path class="cls-4" d="M141.63,68.57a3.05,3.05,0,0,1-.83,1.92,2.56,2.56,0,0,1-1.86.67,2.42,2.42,0,0,1-2-1,4.36,4.36,0,0,1-.75-2.67v-.75a4.85,4.85,0,0,1,.35-1.93,2.85,2.85,0,0,1,1-1.27,2.55,2.55,0,0,1,1.5-.44,2.44,2.44,0,0,1,1.81.69,3.13,3.13,0,0,1,.79,1.93h-.94a2.38,2.38,0,0,0-.53-1.36A1.5,1.5,0,0,0,139,64a1.64,1.64,0,0,0-1.41.73,3.65,3.65,0,0,0-.51,2.09v.76a3.65,3.65,0,0,0,.49,2,1.52,1.52,0,0,0,1.34.76,1.7,1.7,0,0,0,1.2-.39,2.33,2.33,0,0,0,.55-1.36Z"/><path class="cls-4" d="M145,67.56a4.37,4.37,0,0,1-1.75-.94,1.91,1.91,0,0,1-.55-1.38,2,2,0,0,1,.67-1.53,2.52,2.52,0,0,1,1.74-.6,2.63,2.63,0,0,1,1.3.31,2.23,2.23,0,0,1,.89.86,2.39,2.39,0,0,1,.31,1.2h-.94a1.52,1.52,0,0,0-.4-1.12A1.59,1.59,0,0,0,145.1,64a1.57,1.57,0,0,0-1.08.34,1.2,1.2,0,0,0-.38.94A1,1,0,0,0,144,66a3.37,3.37,0,0,0,1.25.6,6.06,6.06,0,0,1,1.38.61,2.25,2.25,0,0,1,.74.77,2.16,2.16,0,0,1,.24,1,1.93,1.93,0,0,1-.67,1.53,2.7,2.7,0,0,1-1.8.57,3,3,0,0,1-1.36-.31,2.33,2.33,0,0,1-1-.85,2.18,2.18,0,0,1-.34-1.22h.94a1.41,1.41,0,0,0,.47,1.12,1.85,1.85,0,0,0,1.27.42,1.66,1.66,0,0,0,1.13-.34,1.24,1.24,0,0,0,0-1.8A3.86,3.86,0,0,0,145,67.56Z"/><rect class="cls-3" x="84.76" y="111.96" width="69.03" height="4.01" rx="1.88"/><path class="cls-1" d="M53.92,170.15c-1.5.14-3,.27-4.5.36q-4.17.26-8.33.25a36.61,36.61,0,0,0-.36,3.82A17.54,17.54,0,0,0,42,182.79a7.56,7.56,0,0,0,1.13,1.69,6.88,6.88,0,0,0,.72.63l.47.33.4.19a6.54,6.54,0,0,0,4,.43A21.56,21.56,0,0,0,57,182.27c.63-.43,1.25-.89,1.86-1.36q-2-3.78-3.64-7.73C54.74,172.18,54.32,171.17,53.92,170.15Z"/><path class="cls-1" d="M93.64,139.58c.69.56,1.39,1.12,2.1,1.72A95.94,95.94,0,0,1,106,151.25l.3.36c1.33-.62,2.66-1.22,4-1.88a77.85,77.85,0,0,0,7.32-4.16c0-.12-.09-.22-.12-.34a5.16,5.16,0,0,1,3.84-6.19,5.09,5.09,0,0,1,3.84.62,19.89,19.89,0,0,0,3.37-4.31,8.25,8.25,0,0,0,1.18-4.85,6.63,6.63,0,0,0-.72-2.35,8.76,8.76,0,0,0-1.53-2,15.92,15.92,0,0,0-4.31-2.9,30.44,30.44,0,0,0-4.9-1.82,57.88,57.88,0,0,0-9.88-1.81c-2.74-.29-5.39-.42-8-.46a79.28,79.28,0,0,1-4.79,15.9Q94.68,137.35,93.64,139.58Z"/><path class="cls-1" d="M45.94,152.94c.37-.85.75-1.67,1.12-2.47-1.27-1-2.52-2.09-3.73-3.18a87.79,87.79,0,0,1-7.73-7.7,6.34,6.34,0,0,1-1.3.49,5.87,5.87,0,0,1-6.34-2.7c-.94.55-1.89,1.11-2.84,1.72a57.92,57.92,0,0,0-8.07,6,31.55,31.55,0,0,0-3.59,3.8,15.91,15.91,0,0,0-2.59,4.51,8.84,8.84,0,0,0-.51,2.46l0,.57a2.47,2.47,0,0,0,.06.62l.12.7.18.51a8.25,8.25,0,0,0,3.19,3.85c3,2,6.79,3.07,10.64,3.8a72.25,72.25,0,0,0,12.06,1c1.44,0,2.9,0,4.36,0l.12-.46A94.94,94.94,0,0,1,45.94,152.94Z"/><path class="cls-1" d="M52.37,166c-1.74-4.87-3.21-9.86-4.48-14.91l-.67-.53c-.35.8-.69,1.6-1,2.45a82.06,82.06,0,0,0-4.34,13.54l-.06.26q3.65-.12,7.33-.45C50.2,166.3,51.29,166.16,52.37,166Z"/><path class="cls-1" d="M48.31,128c2-.65,3.79-1.23,5.45-1.72,3.63-1.1,6.54-1.82,8.51-2.32l.78-.19c.54-.72,1.12-1.47,1.72-2.25-1.22-.56-2.49-1.12-3.87-1.68a81.36,81.36,0,0,0-13.39-4.34c0,2.76.14,5.55.38,8.34C48,125.23,48.16,126.62,48.31,128Z"/><path class="cls-1" d="M61,119.59c1.37.62,2.64,1.22,3.87,1.81.84-1.08,1.71-2.18,2.67-3.33s1.79-2.1,2.76-3.17V94.11c-.36-.41-.72-.82-1.1-1.22a22.78,22.78,0,0,0-6.59-5A6.23,6.23,0,0,1,52.4,90.58a26.45,26.45,0,0,0-3.69,9.71,66.31,66.31,0,0,0-1.18,11.56c0,1,0,1.92,0,2.89l.1,0A97,97,0,0,1,61,119.59Z"/><path class="cls-1" d="M95.57,141.51c-.68-.61-1.35-1.18-2-1.74-.61,1.33-1.27,2.65-1.94,4,.37,1.74.8,3.94,1.23,6.58.31,1.89.62,4,.91,6.31,1.7-.6,3.38-1.2,5-1.83,2.3-.89,4.55-1.85,6.77-2.86l-.16-.21A82.87,82.87,0,0,0,95.57,141.51Z"/><path class="cls-1" d="M94.12,163.44c0-.8-.09-1.58-.14-2.35-4.49,1.63-9.08,3-13.74,4.28a1.31,1.31,0,0,1,.08.21,5.82,5.82,0,0,1,.14,1.24c2.93,1.28,5.91,2.42,8.88,3.39,1.64.54,3.29,1,4.94,1.42C94.33,168.75,94.25,166,94.12,163.44Z"/><path class="cls-1" d="M94.25,161c.08.79.16,1.59.23,2.42.22,2.61.37,5.4.4,8.34,1.29.3,2.59.56,3.87.76a21.79,21.79,0,0,0,9.06-.26,6.66,6.66,0,0,0,3.41-2.16,5.28,5.28,0,0,0,.93-1.75,7.24,7.24,0,0,0,.27-2,17.7,17.7,0,0,0-2.49-7.93c-.62-1.14-1.3-2.23-2-3.28q-3.72,1.86-7.59,3.48Q97.33,159.88,94.25,161Z"/><path class="cls-1" d="M77.46,107.78l1.32-1.11c-1.09-2-2.29-4.09-3.65-6.16a56.71,56.71,0,0,0-4.82-6.4V114.9A96.21,96.21,0,0,1,77.46,107.78Z"/><path class="cls-1" d="M63,180.82l.87,1.73A67.49,67.49,0,0,0,70,192.4l.27.34V174.17A74.79,74.79,0,0,1,63,180.82Z"/><path class="cls-1" d="M69.93,170.12a5.5,5.5,0,0,1-.85-1.91,2.51,2.51,0,0,1,0-.27q-5.37,1-10.81,1.74c.24.64.47,1.3.72,1.94.89,2.3,1.87,4.55,2.91,6.76.85-.76,1.7-1.54,2.52-2.35C66.3,174.17,68.14,172.18,69.93,170.12Z"/><path class="cls-1" d="M76,172.54a5.69,5.69,0,0,1-3.76-.43c-.63.7-1.27,1.38-1.93,2.06v18.57a25,25,0,0,0,7.7,7,8.08,8.08,0,0,0,4.69,1,7.19,7.19,0,0,0,4.21-2.08,20.77,20.77,0,0,0,4.81-8.67,54.51,54.51,0,0,0,2-9.46c.27-2.15.43-4.25.53-6.29a77.67,77.67,0,0,1-14.53-4.39A5.74,5.74,0,0,1,76,172.54Z"/><path class="cls-1" d="M38.22,131.72l2.55-1c1.17-.45,2.31-.87,3.41-1.27-.16-1.77-.3-3.55-.39-5.32-.16-3.12-.21-6.24-.12-9.33a38.53,38.53,0,0,0-4.2-.42,17.28,17.28,0,0,0-8.18,1.26,7.46,7.46,0,0,0-1.68,1.12,7.27,7.27,0,0,0-.64.74l-.32.47-.19.39a6.71,6.71,0,0,0-.43,4,19.13,19.13,0,0,0,2.65,6.51,6.24,6.24,0,0,1,.95-.32A5.85,5.85,0,0,1,38.22,131.72Z"/><path class="cls-1" d="M67.38,122.77q-1.17-.58-2.46-1.17c-.59.73-1.16,1.44-1.69,2.14l2.08-.5Z"/><path class="cls-1" d="M70.31,122.18l-2,.4-.75.16c1,.49,1.87,1,2.71,1.41Z"/><path class="cls-1" d="M50.76,143.06c1.44-2.69,2.67-4.75,3.5-6.15s1.31-2.14,1.31-2.14l1.33-2.12c.89-1.37,2.18-3.39,4-5.87.65-.92,1.39-1.93,2.18-3l-.75.18c-2,.53-4.86,1.27-8.49,2.41-1.66.51-3.5,1.11-5.46,1.8.55,5,1.32,10,2.34,15Z"/><path class="cls-1" d="M70.31,161.87V156a12.13,12.13,0,1,1,0-24.25v-7.46c-.9-.48-1.87-1-2.9-1.48l-2.1.46-2.1.52c-.83,1.08-1.6,2.12-2.29,3.07-1.79,2.47-3.1,4.47-4,5.83l-1.35,2.11-1.29,2.15c-.82,1.41-2,3.48-3.44,6.18-.05.08-.09.17-.14.26.33,1.59.66,3.18,1,4.76.17.78.38,1.54.57,2.31,3.1,2.31,6.31,4.51,9.62,6.55C64.67,158.72,67.47,160.34,70.31,161.87Z"/><path class="cls-1" d="M91,137.68,90.1,137c.2.84.34,1.43.41,1.76Z"/><path class="cls-1" d="M81.21,130.62l-2.1-1.35L77,128c-1.41-.82-3.46-2-6.15-3.46l-.51-.26v7.46a12.14,12.14,0,0,1,2.51,23.94,12.76,12.76,0,0,1-2.51.31v5.9l.85.45a5.78,5.78,0,0,1,2.23-1.07,5.69,5.69,0,0,1,3.4.24c2.24-3.06,4.38-6.21,6.38-9.48a138.55,138.55,0,0,0,7.34-13.27c-.08-.34-.23-.94-.44-1.79C89,136.12,88,135.33,87,134.64,84.56,132.84,82.56,131.53,81.21,130.62Z"/><path class="cls-1" d="M53.58,155.39q1.41,5.13,3.14,10.12,5.18-.69,10.35-1.69c-2.33-1.27-4.64-2.6-6.9-4S55.74,156.92,53.58,155.39Z"/><path class="cls-1" d="M85,119.89c1,3,1.94,5.68,2.65,8,1.07,3.5,1.75,6.29,2.24,8.19,0,.23.11.45.15.66l1,.77c.58-1.22,1.16-2.44,1.7-3.67a98.43,98.43,0,0,0,3.57-9.38q.87-2.67,1.49-5.34c-2.52,0-4.93.12-7.2.26Q87.66,119.6,85,119.89Z"/><path class="cls-1" d="M45.34,145l1.4,1.13a149.73,149.73,0,0,1-2.53-16.38c-1.08.42-2.17.86-3.3,1.34-.82.34-1.66.7-2.51,1.08a6.21,6.21,0,0,1,.29.86,5.86,5.86,0,0,1-1,4.79l.32.34A95.39,95.39,0,0,0,45.34,145Z"/><path class="cls-1" d="M84.94,119.69q2.67-.34,5.66-.63c2.31-.21,4.79-.37,7.36-.46.27-1.19.5-2.37.68-3.55a22.16,22.16,0,0,0-.26-9.1,6.71,6.71,0,0,0-2.15-3.43,5.47,5.47,0,0,0-1.75-.93,7,7,0,0,0-2-.27,17.43,17.43,0,0,0-7.9,2.5,40.85,40.85,0,0,0-4.9,3.19c1.43,2.93,2.64,5.77,3.68,8.44C83.93,116.92,84.45,118.32,84.94,119.69Z"/><path class="cls-1" d="M81.56,160.44c4.06-1.12,8.08-2.37,12-3.75-.25-2.32-.55-4.45-.84-6.36-.4-2.6-.81-4.78-1.15-6.52q-2.59,5.08-5.6,10C84.58,156.05,83.09,158.26,81.56,160.44Z"/><path class="cls-1" d="M70.31,115.45v6.68c1.79-.38,4-.83,6.69-1.28,2.27-.38,4.85-.77,7.7-1.13-.51-1.34-1.06-2.7-1.67-4.13-1.11-2.6-2.38-5.36-3.87-8.19-.41.32-.83.63-1.23.95A76.63,76.63,0,0,0,70.31,115.45Z"/><path class="cls-1" d="M65,121.47c.88.43,1.73.84,2.54,1.25l.78-.17,2-.42v-6.68c-.89,1-1.75,1.88-2.55,2.79C66.77,119.35,65.88,120.42,65,121.47Z"/><path class="cls-1" d="M70.86,124.44c2.68,1.44,4.72,2.68,6.12,3.51l2.13,1.32,2.11,1.33c1.36.9,3.37,2.2,5.85,4,.92.66,1.92,1.4,3,2.19,0-.2-.1-.41-.15-.63-.5-1.89-1.22-4.68-2.32-8.17-.74-2.37-1.65-5.09-2.78-8-2.87.31-5.46.68-7.75,1-2.67.42-4.91.85-6.71,1.21v2Z"/><path class="cls-5" d="M92.74,150.33c.29,1.91.59,4,.84,6.36l.18-.06c-.29-2.31-.6-4.42-.91-6.31-.43-2.64-.86-4.84-1.23-6.58l0,.07C91.93,145.55,92.34,147.73,92.74,150.33Z"/><path class="cls-6" d="M58.23,169.68c-1.43.18-2.87.34-4.31.47.4,1,.82,2,1.25,3q1.69,3.94,3.64,7.73c1-.79,2-1.65,3-2.53-1-2.21-2-4.46-2.91-6.76C58.7,171,58.47,170.32,58.23,169.68Z"/><path class="cls-5" d="M84.7,119.72l.24,0c-.49-1.37-1-2.77-1.58-4.24-1-2.67-2.25-5.51-3.68-8.44l-.52.39c1.49,2.83,2.76,5.59,3.87,8.19C83.64,117,84.19,118.38,84.7,119.72Z"/><path class="cls-6" d="M43.79,124.12c.09,1.77.23,3.55.39,5.32,1.44-.51,2.81-1,4.13-1.43-.15-1.39-.31-2.78-.42-4.16-.24-2.79-.36-5.58-.38-8.34l-.09,0c-1.22-.27-2.47-.51-3.75-.7C43.58,117.88,43.63,121,43.79,124.12Z"/><path class="cls-6" d="M47.53,111.85a66.31,66.31,0,0,1,1.18-11.56,26.45,26.45,0,0,1,3.69-9.71,6.24,6.24,0,0,1-1.53-2.26l-.24.27a21.21,21.21,0,0,0-3.11,5.23,36.38,36.38,0,0,0-1.92,5.76,72.82,72.82,0,0,0-1.89,14.27c1.3.26,2.56.56,3.79.89C47.5,113.77,47.51,112.81,47.53,111.85Z"/><path class="cls-6" d="M50.67,143.22c-1-5-1.79-10-2.34-15-1.32.46-2.69,1-4.12,1.51a149.73,149.73,0,0,0,2.53,16.38c.58.47,1.15.95,1.74,1.41C49.25,145.93,50,144.51,50.67,143.22Z"/><path class="cls-6" d="M90.51,138.74h0c-.07-.33-.21-.92-.41-1.76l0,0C90.28,137.8,90.43,138.4,90.51,138.74Z"/><path class="cls-5" d="M87.55,128c1.1,3.49,1.82,6.28,2.32,8.17,0,.22.11.43.15.63l0,0c0-.21-.1-.43-.15-.66-.49-1.9-1.17-4.69-2.24-8.19-.71-2.36-1.6-5.08-2.65-8l-.24,0C85.9,122.87,86.81,125.59,87.55,128Z"/><path class="cls-5" d="M93.67,180.48a54.51,54.51,0,0,1-2,9.46,20.77,20.77,0,0,1-4.81,8.67,7.19,7.19,0,0,1-4.21,2.08,8.08,8.08,0,0,1-4.69-1,25,25,0,0,1-7.7-7v4.55c.5.48,1,1,1.53,1.42A21.12,21.12,0,0,0,76.93,202a12.48,12.48,0,0,0,3,.91,11.61,11.61,0,0,0,1.58.13,8.1,8.1,0,0,0,1.57-.14,9.13,9.13,0,0,0,2.91-1A11,11,0,0,0,88.29,200a17,17,0,0,0,3-4.69,30.15,30.15,0,0,0,1.73-5,55,55,0,0,0,1.56-9.75c.16-2.17.22-4.24.24-6.27l-.66-.12C94.1,176.23,93.94,178.33,93.67,180.48Z"/><path class="cls-6" d="M53.58,155.39q-2.91-2.05-5.69-4.26c1.27,5.05,2.74,10,4.48,14.91,1.45-.16,2.9-.33,4.35-.53Q55,160.53,53.58,155.39Z"/><path class="cls-6" d="M50.7,143.36c-.66,1.28-1.38,2.68-2.11,4.23,1.22,1,2.46,1.91,3.72,2.84-.19-.77-.4-1.53-.57-2.31C51.36,146.54,51,145,50.7,143.36Z"/><path class="cls-6" d="M70,192.4a67.49,67.49,0,0,1-6.14-9.85L63,180.82c-1,.79-2,1.55-3.05,2.26a71.57,71.57,0,0,0,7.61,11.32,39.06,39.06,0,0,0,2.72,2.89v-4.55Z"/><path class="cls-5" d="M75.13,100.51c1.36,2.07,2.56,4.13,3.65,6.16.17-.15.35-.29.53-.43-1-2-2.12-4.13-3.36-6.24a54,54,0,0,0-5.64-8v2.11A56.71,56.71,0,0,1,75.13,100.51Z"/><path class="cls-5" d="M94.48,163.42c-.07-.83-.15-1.63-.23-2.42l-.27.09c0,.77.1,1.55.14,2.35.13,2.57.21,5.31.16,8.19l.6.13C94.85,168.82,94.7,166,94.48,163.42Z"/><path class="cls-6" d="M69.21,92.89c.38.4.74.81,1.1,1.22V92l0-.07a30.51,30.51,0,0,0-3.74-3.71,18.49,18.49,0,0,0-3.59-2.34,6.22,6.22,0,0,1-.31,2A22.78,22.78,0,0,1,69.21,92.89Z"/><path class="cls-5" d="M95.74,141.3c-.71-.6-1.41-1.16-2.1-1.72,0,.06,0,.13-.08.19.66.56,1.33,1.13,2,1.74a82.87,82.87,0,0,1,9.85,10.22l.16.21.7-.33-.3-.36A95.94,95.94,0,0,0,95.74,141.3Z"/><path class="cls-6" d="M47.22,150.6l.67.53-.33-1.31C47.45,150.08,47.34,150.34,47.22,150.6Z"/><path class="cls-6" d="M70.31,161.87c-2.84-1.53-5.64-3.15-8.38-4.89-3.31-2-6.52-4.24-9.62-6.55.4,1.66.81,3.32,1.27,5,2.16,1.53,4.35,3,6.59,4.44s4.57,2.72,6.9,4c1.08-.21,2.16-.45,3.24-.68Z"/><path class="cls-6" d="M67.57,122.72c-.81-.41-1.66-.82-2.54-1.25l-.11.13q1.29.59,2.46,1.17Z"/><path class="cls-6" d="M77,128l2.14,1.29L77,128c-1.4-.83-3.44-2.07-6.12-3.51l-.55-.29v.11l.51.26C73.51,125.94,75.56,127.16,77,128Z"/><path class="cls-6" d="M47.39,149.14c-.22-1-.44-2-.65-3L45.34,145A95.39,95.39,0,0,1,38,138.12l-.32-.34a5.84,5.84,0,0,1-2.1,1.81,87.79,87.79,0,0,0,7.73,7.7c1.21,1.09,2.46,2.15,3.73,3.18l.44-.93C47.46,149.41,47.43,149.27,47.39,149.14Z"/><path class="cls-6" d="M71.16,162.32l-.85-.45v1.27h0A5.93,5.93,0,0,1,71.16,162.32Z"/><path class="cls-5" d="M80.46,166.82a5.78,5.78,0,0,1-.79,3,77.67,77.67,0,0,0,14.53,4.39c0-.86.07-1.72.08-2.56-1.65-.4-3.3-.88-4.94-1.42C86.37,169.24,83.39,168.1,80.46,166.82Z"/><path class="cls-6" d="M90.1,137l.91.71.06-.13-1-.77C90.07,136.85,90.08,136.91,90.1,137Z"/><path class="cls-5" d="M109.93,158.4a17.7,17.7,0,0,1,2.49,7.93,7.24,7.24,0,0,1-.27,2,5.28,5.28,0,0,1-.93,1.75,6.66,6.66,0,0,1-3.41,2.16,21.79,21.79,0,0,1-9.06.26c-1.28-.2-2.58-.46-3.87-.76,0,.83,0,1.69,0,2.55,1.2.21,2.41.4,3.61.52a23.59,23.59,0,0,0,10-.77,8.39,8.39,0,0,0,4.17-3,7.2,7.2,0,0,0,1.09-2.33,9.07,9.07,0,0,0,.23-2.47,14.51,14.51,0,0,0-1-4.52,24.38,24.38,0,0,0-2-3.92,37.63,37.63,0,0,0-2.12-3.15l-.84.41C108.63,156.17,109.31,157.26,109.93,158.4Z"/><path class="cls-6" d="M64.77,121.53l.11-.13c-1.23-.59-2.5-1.19-3.87-1.81a97,97,0,0,0-13.41-4.83l-.1,0c0,.25,0,.51,0,.77a81.36,81.36,0,0,1,13.39,4.34C62.28,120.41,63.55,121,64.77,121.53Z"/><path class="cls-5" d="M81.22,130.6l-2.11-1.33,2.1,1.35c1.35.91,3.35,2.22,5.8,4,.95.69,2,1.48,3.06,2.31a1.33,1.33,0,0,0,0-.19c-1-.79-2-1.53-3-2.19C84.59,132.8,82.58,131.5,81.22,130.6Z"/><path class="cls-6" d="M28,122.39a6.71,6.71,0,0,1,.43-4l.19-.39.32-.47a7.27,7.27,0,0,1,.64-.74,7.46,7.46,0,0,1,1.68-1.12,17.28,17.28,0,0,1,8.18-1.26,38.53,38.53,0,0,1,4.2.42c0-.32,0-.62,0-.94a39.48,39.48,0,0,0-4.17-.59,23.67,23.67,0,0,0-4.38-.05,14.14,14.14,0,0,0-4.51,1.05,8.77,8.77,0,0,0-2.11,1.3,7.86,7.86,0,0,0-.9,1l-.35.45c-.18.27-.23.41-.35.62a8.48,8.48,0,0,0-.81,5.06,21.28,21.28,0,0,0,2.68,7.53,6.07,6.07,0,0,1,1.87-1.27A19.13,19.13,0,0,1,28,122.39Z"/><path class="cls-6" d="M70.31,124.26v-.11c-.84-.45-1.75-.92-2.71-1.41l-.19,0C68.44,123.29,69.41,123.78,70.31,124.26Z"/><path class="cls-6" d="M94.28,171.63c0,.84,0,1.7-.08,2.56l.66.12c0-.86,0-1.72,0-2.55Z"/><path class="cls-6" d="M46.74,146.09c.21,1,.43,2,.65,3,0,.13.07.27.11.4.33-.69.66-1.39,1-2C47.89,147,47.32,146.56,46.74,146.09Z"/><path class="cls-6" d="M90.07,137l0,0c0-.06,0-.12,0-.19l0,0A1.33,1.33,0,0,1,90.07,137Z"/><path class="cls-6" d="M47.42,115.49l.09,0c0-.26,0-.52,0-.77-1.23-.33-2.49-.63-3.79-.89,0,.32,0,.62,0,.94C45,115,46.2,115.22,47.42,115.49Z"/><path class="cls-6" d="M52.31,150.43c-1.26-.93-2.5-1.87-3.72-2.84-.34.71-.68,1.46-1,2.23l.33,1.31q2.78,2.2,5.69,4.26C53.12,153.75,52.71,152.09,52.31,150.43Z"/><path class="cls-6" d="M44.21,129.71l0-.27c-1.1.4-2.24.82-3.41,1.27l-2.55,1c.07.13.12.27.18.41.85-.38,1.69-.74,2.51-1.08C42,130.57,43.13,130.13,44.21,129.71Z"/><path class="cls-5" d="M81.56,160.44c-.72,1-1.45,2-2.2,3a5.56,5.56,0,0,1,.88,1.89c4.66-1.25,9.25-2.65,13.74-4.28-.11-1.53-.25-3-.4-4.4C89.64,158.07,85.62,159.32,81.56,160.44Z"/><path class="cls-5" d="M77,121c2.29-.37,4.88-.74,7.75-1,0-.07,0-.13-.07-.2-2.85.36-5.43.75-7.7,1.13-2.66.45-4.9.9-6.69,1.28v.05C72.11,121.82,74.35,121.39,77,121Z"/><path class="cls-6" d="M67.57,122.72l0,0,.75-.16,2-.4v-.05l-2,.42Z"/><path class="cls-6" d="M69.25,165c-.73-.38-1.45-.79-2.18-1.19q-5.17,1-10.35,1.69c.48,1.4,1,2.79,1.51,4.17Q63.66,169,69,167.94A5.9,5.9,0,0,1,69.25,165Z"/><path class="cls-5" d="M93.76,156.63c.18,1.38.34,2.84.49,4.37q3.07-1.12,6.08-2.4,3.87-1.62,7.59-3.48c-.75-1.11-1.54-2.16-2.34-3.18-2.22,1-4.47,2-6.77,2.86C97.14,155.43,95.46,156,93.76,156.63Z"/><path class="cls-6" d="M53.79,126.4c3.63-1.14,6.52-1.88,8.49-2.41l.75-.18,0,0-.78.19c-2,.5-4.88,1.22-8.51,2.32-1.66.49-3.49,1.07-5.45,1.72a1.23,1.23,0,0,1,0,.19C50.29,127.51,52.13,126.91,53.79,126.4Z"/><path class="cls-5" d="M84.94,119.69a1.59,1.59,0,0,0,.07.2q2.65-.28,5.62-.47c2.27-.14,4.68-.24,7.2-.26,0-.18.09-.37.13-.56-2.57.09-5,.25-7.36.46Q87.62,119.35,84.94,119.69Z"/><path class="cls-5" d="M117.56,145.57a77.85,77.85,0,0,1-7.32,4.16c-1.3.66-2.63,1.26-4,1.88.84,1,1.68,2,2.48,3.1a85.2,85.2,0,0,0,10.75-6.45A5,5,0,0,1,117.56,145.57Z"/><path class="cls-6" d="M36.64,166.91a72.25,72.25,0,0,1-12.06-1c-3.85-.73-7.67-1.76-10.64-3.8a8.25,8.25,0,0,1-3.19-3.85l-.18-.51-.12-.7a2.47,2.47,0,0,1-.06-.62l0-.57a8.84,8.84,0,0,1,.51-2.46,15.91,15.91,0,0,1,2.59-4.51,31.55,31.55,0,0,1,3.59-3.8,57.92,57.92,0,0,1,8.07-6c.95-.61,1.9-1.17,2.84-1.72a6.23,6.23,0,0,1-.39-.72c-1,.51-2,1-2.95,1.6A60.56,60.56,0,0,0,16.13,144a32.86,32.86,0,0,0-4,3.79A18,18,0,0,0,9,152.71a11.45,11.45,0,0,0-.77,3v.86a4.06,4.06,0,0,0,0,.81l.09.71a.86.86,0,0,0,0,.17l0,.1.06.2.11.4a10.47,10.47,0,0,0,3.82,5.21,21.8,21.8,0,0,0,5.53,3,39.27,39.27,0,0,0,6,1.82,79.85,79.85,0,0,0,16.19,1.7c.24-1.33.54-2.62.86-3.88C39.54,166.91,38.08,166.93,36.64,166.91Z"/><path class="cls-5" d="M130.76,136.53a10.5,10.5,0,0,0,1.13-6.38,8.68,8.68,0,0,0-1.11-3.05,11.1,11.1,0,0,0-2-2.37,17.69,17.69,0,0,0-5-3,30.64,30.64,0,0,0-5.23-1.64,59.94,59.94,0,0,0-10.15-1.42c-2.75-.15-5.38-.17-7.91-.14l-.12.64c2.56,0,5.21.17,8,.46a57.88,57.88,0,0,1,9.88,1.81,30.44,30.44,0,0,1,4.9,1.82,15.92,15.92,0,0,1,4.31,2.9,8.76,8.76,0,0,1,1.53,2,6.63,6.63,0,0,1,.72,2.35,8.25,8.25,0,0,1-1.18,4.85,19.89,19.89,0,0,1-3.37,4.31,5.2,5.2,0,0,1,1.93,2.14s.06-.06.09-.1A22.44,22.44,0,0,0,130.76,136.53Z"/><path class="cls-6" d="M63.23,123.74l0,0,2.1-.52Z"/><path class="cls-6" d="M65.31,123.24l2.1-.46h0Z"/><path class="cls-6" d="M49.42,170.51c1.5-.09,3-.22,4.5-.36-.54-1.36-1.05-2.73-1.55-4.11-1.08.12-2.17.26-3.25.36q-3.69.33-7.33.45c-.27,1.27-.51,2.57-.7,3.91Q45.25,170.76,49.42,170.51Z"/><path class="cls-6" d="M85,119.89a1.59,1.59,0,0,1-.07-.2l-.24,0c0,.07,0,.13.07.2Z"/><path class="cls-6" d="M48.33,128.2a1.23,1.23,0,0,0,0-.19c-1.32.44-2.69.92-4.13,1.43l0,.27C45.64,129.16,47,128.66,48.33,128.2Z"/><path class="cls-5" d="M94,161.09l.27-.09c-.15-1.53-.31-3-.49-4.37l-.18.06C93.73,158.09,93.87,159.56,94,161.09Z"/><path class="cls-6" d="M52.37,166c.5,1.38,1,2.75,1.55,4.11,1.44-.13,2.88-.29,4.31-.47-.51-1.38-1-2.77-1.51-4.17C55.27,165.71,53.82,165.88,52.37,166Z"/><polygon class="cls-6" points="70.31 163.15 70.32 163.14 70.31 163.14 70.31 163.15"/><path class="cls-6" d="M70.31,163.14c-1.08.23-2.16.47-3.24.68.73.4,1.45.81,2.18,1.19a6,6,0,0,1,1.06-1.86Z"/><path class="cls-6" d="M67.41,122.78l.19,0,0,0-.19,0Z"/><path class="cls-5" d="M105.58,151.94c.8,1,1.59,2.07,2.34,3.18l.84-.41c-.8-1.09-1.64-2.12-2.48-3.1Z"/><path class="cls-6" d="M70.31,174.17v-3.55a4.7,4.7,0,0,1-.38-.5c-1.79,2.06-3.63,4-5.55,5.91-.82.81-1.67,1.59-2.52,2.35.38.82.77,1.63,1.17,2.44A74.79,74.79,0,0,0,70.31,174.17Z"/><path class="cls-6" d="M64.92,121.6l-.15-.07c-.6.78-1.18,1.53-1.72,2.25l.18,0C63.76,123,64.33,122.33,64.92,121.6Z"/><path class="cls-6" d="M70.31,170.62v3.55c.66-.68,1.3-1.36,1.93-2.06A5.7,5.7,0,0,1,70.31,170.62Z"/><path class="cls-5" d="M97.83,119.16q-.61,2.67-1.49,5.34a98.43,98.43,0,0,1-3.57,9.38c-.54,1.23-1.12,2.45-1.7,3.67.83.63,1.69,1.32,2.57,2q1-2.24,2-4.5a79.28,79.28,0,0,0,4.79-15.9C99.52,119.16,98.67,119.16,97.83,119.16Z"/><path class="cls-6" d="M46.19,153.05c.34-.85.68-1.65,1-2.45l-.16-.13c-.37.8-.75,1.62-1.12,2.47a94.94,94.94,0,0,0-4.82,13.47l-.12.46.79,0,.06-.26A82.06,82.06,0,0,1,46.19,153.05Z"/><path class="cls-5" d="M90.51,138.73l.08.32.66,2.93c.11.52.24,1.11.37,1.76.67-1.32,1.33-2.64,1.94-4-.87-.74-1.73-1.44-2.55-2.09Z"/><path class="cls-6" d="M67.76,118.24c.8-.91,1.66-1.84,2.55-2.79v-.55c-1,1.07-1.9,2.14-2.76,3.17s-1.83,2.25-2.67,3.33l.15.07C65.88,120.42,66.77,119.35,67.76,118.24Z"/><path class="cls-6" d="M57,182.27a21.56,21.56,0,0,1-8.24,3.79,6.54,6.54,0,0,1-4-.43l-.4-.19-.47-.33a6.88,6.88,0,0,1-.72-.63A7.56,7.56,0,0,1,42,182.79a17.54,17.54,0,0,1-1.25-8.21,36.61,36.61,0,0,1,.36-3.82h-1c-.22,1.22-.41,2.47-.52,3.75a24.81,24.81,0,0,0,0,4.4,14.24,14.24,0,0,0,1,4.53,9.33,9.33,0,0,0,1.29,2.12,7.86,7.86,0,0,0,1,.9l.45.35c.27.18.41.23.62.36a8.41,8.41,0,0,0,5,.81,23.8,23.8,0,0,0,9.27-3.72c.59-.37,1.16-.77,1.74-1.17-.4-.71-.79-1.44-1.17-2.17C58.2,181.38,57.58,181.84,57,182.27Z"/><path class="cls-5" d="M83.17,152c-2,3.27-4.14,6.42-6.38,9.48l.21.11c1.52-.37,3-.75,4.56-1.16,1.53-2.18,3-4.39,4.43-6.64q3-4.91,5.6-10c-.14-.68-.26-1.29-.37-1.83l-.63-2.93-.08-.31A138.55,138.55,0,0,1,83.17,152Z"/><path class="cls-5" d="M84.58,103.82a17.43,17.43,0,0,1,7.9-2.5,7,7,0,0,1,2,.27,5.47,5.47,0,0,1,1.75.93A6.71,6.71,0,0,1,98.38,106a22.16,22.16,0,0,1,.26,9.1c-.18,1.18-.41,2.36-.68,3.55.83,0,1.68,0,2.54-.06.17-1.07.33-2.14.44-3.22a24.07,24.07,0,0,0-.76-10,8.55,8.55,0,0,0-3-4.19,6.86,6.86,0,0,0-2.32-1.09,8.56,8.56,0,0,0-2.45-.23,13.66,13.66,0,0,0-4.51,1.06,24.55,24.55,0,0,0-3.9,2,42.17,42.17,0,0,0-4.73,3.38c.12.26.25.51.37.77A40.85,40.85,0,0,1,84.58,103.82Z"/><path class="cls-6" d="M50.76,143.06l-.09.16,0,.14c0-.09.09-.18.14-.26,1.41-2.7,2.62-4.77,3.44-6.18l1.29-2.15s-.46.74-1.31,2.14S52.2,140.37,50.76,143.06Z"/><path class="cls-6" d="M56.9,132.65l-1.33,2.12,1.35-2.11c.9-1.36,2.21-3.36,4-5.83.69-1,1.46-2,2.29-3.07l-.18,0c-.79,1-1.53,2-2.18,3C59.08,129.26,57.79,131.28,56.9,132.65Z"/><path class="cls-5" d="M70.31,114.9v.55a76.63,76.63,0,0,1,7.62-7.1c.4-.32.82-.63,1.23-.95l-.38-.73-1.32,1.11A96.21,96.21,0,0,0,70.31,114.9Z"/><path class="cls-6" d="M90.59,139.05l.63,2.93c.11.54.23,1.15.37,1.83l0-.07c-.13-.65-.26-1.24-.37-1.76Z"/><path class="cls-6" d="M79.16,107.4l.52-.39c-.12-.26-.25-.51-.37-.77-.18.14-.36.28-.53.43Z"/><path class="cls-6" d="M90.59,139.05l-.08-.32h0Z"/><path class="cls-6" d="M50.67,143.22c-.68,1.29-1.42,2.71-2.19,4.28l.11.09c.73-1.55,1.45-3,2.11-4.23Z"/><path class="cls-6" d="M61.86,178.38c-1,.88-2,1.74-3,2.53.38.73.77,1.46,1.17,2.17,1-.71,2.06-1.47,3.05-2.26C62.63,180,62.24,179.2,61.86,178.38Z"/><path class="cls-6" d="M93.56,139.77c0-.06,0-.13.08-.19-.88-.71-1.74-1.4-2.57-2l-.06.13C91.83,138.33,92.69,139,93.56,139.77Z"/><path class="cls-6" d="M47.5,149.54l-.44.93.16.13c.12-.26.23-.52.34-.78Z"/><path class="cls-6" d="M65,121.47l-.15-.07-.11.13.15.07Z"/><path class="cls-6" d="M47.5,149.54l.06.28c.35-.77.69-1.52,1-2.23l-.11-.09C48.16,148.15,47.83,148.85,47.5,149.54Z"/><path class="cls-6" d="M63.21,123.76l0,0-.18,0,0,0Z"/><path class="cls-6" d="M97.83,119.16c.84,0,1.69,0,2.55,0l.12-.64c-.86,0-1.71,0-2.54.06C97.92,118.79,97.88,119,97.83,119.16Z"/><path class="cls-6" d="M41.79,166.85l-.79,0c-.32,1.26-.62,2.55-.86,3.88h1C41.28,169.42,41.52,168.12,41.79,166.85Z"/><path class="cls-5" d="M79.36,163.48c.75-1,1.48-2,2.2-3-1.51.41-3,.79-4.56,1.16A5.78,5.78,0,0,1,79.36,163.48Z"/><path class="cls-4" d="M79.5,141.92"/><path class="cls-4" d="M77.26,140.52a9.31,9.31,0,0,0-3.09-5"/><path class="cls-4" d="M70.31,153.42V156a12.76,12.76,0,0,0,2.51-.31,12.14,12.14,0,0,0-2.51-23.94v20.05"/><path class="cls-4" d="M72.52,153.18"/><path class="cls-7" d="M70.28,151.78h0V131.72a12.13,12.13,0,1,0,0,24.25v-2.55"/><path class="cls-7" d="M64.41,151.22"/><path class="cls-7" d="M58.09,92.1a6.25,6.25,0,0,0,4.53-4.24,13.6,13.6,0,0,0-1.53-.62,8.83,8.83,0,0,0-2.37-.39l-.54,0h-.26l-.34.06-.67.13-.49.17a8.1,8.1,0,0,0-3.78,3l-.24.36A6.26,6.26,0,0,0,58.09,92.1Z"/><path class="cls-7" d="M55.72,85.07,56.1,85l.19,0,.1,0,.16,0,.68-.09.34,0h1.24a11.11,11.11,0,0,1,2.91.65,11.91,11.91,0,0,1,1.21.52,6.9,6.9,0,0,0-.16-1.34A6.27,6.27,0,1,0,50.56,87.4a9,9,0,0,0,.31.92A10.3,10.3,0,0,1,55.72,85.07Z"/><path class="cls-7" d="M52.64,90.22a8.1,8.1,0,0,1,3.78-3l.49-.17.67-.13.34-.06h.26l.54,0a8.83,8.83,0,0,1,2.37.39,13.6,13.6,0,0,1,1.53.62,6.22,6.22,0,0,0,.31-2,11.91,11.91,0,0,0-1.21-.52,11.11,11.11,0,0,0-2.91-.65H57.57l-.34,0-.68.09-.16,0-.1,0-.19,0-.38.11a10.3,10.3,0,0,0-4.85,3.25,6.24,6.24,0,0,0,1.53,2.26Z"/><path class="cls-7" d="M29.83,132c-.35-.59-.69-1.18-1-1.78a5.9,5.9,0,0,0-1.57,5.5,6.76,6.76,0,0,0,.33,1c1.38-.73,2.73-1.4,4.07-2C31,133.74,30.4,132.86,29.83,132Z"/><path class="cls-7" d="M34.3,140.08a6.34,6.34,0,0,0,1.3-.49q-1.89-2.15-3.57-4.44-2,1-4.07,2.23A5.87,5.87,0,0,0,34.3,140.08Z"/><path class="cls-7" d="M38.69,133a6.21,6.21,0,0,0-.29-.86c-1.33.58-2.68,1.2-4.07,1.87,1.06,1.3,2.19,2.56,3.37,3.78A5.86,5.86,0,0,0,38.69,133Z"/><path class="cls-7" d="M31.63,128.58a6.24,6.24,0,0,0-.95.32c.36.6.73,1.18,1.12,1.76.67,1,1.41,1.94,2.16,2.88,1.45-.65,2.88-1.26,4.26-1.82A5.85,5.85,0,0,0,31.63,128.58Z"/><path class="cls-7" d="M31.64,134.62,34,133.54c-.75-.94-1.49-1.9-2.16-2.88-.39-.58-.76-1.16-1.12-1.76a6.07,6.07,0,0,0-1.87,1.27c.33.6.67,1.19,1,1.78C30.4,132.86,31,133.74,31.64,134.62Z"/><path class="cls-7" d="M37.7,137.78c-1.18-1.22-2.31-2.48-3.37-3.78L32,135.15q1.68,2.29,3.57,4.44A5.84,5.84,0,0,0,37.7,137.78Z"/><path class="cls-7" d="M32,135.15l-.39-.53c-1.34.64-2.69,1.31-4.07,2a6.23,6.23,0,0,0,.39.72Q30,136.2,32,135.15Z"/><path class="cls-7" d="M38.4,132.13c-.06-.14-.11-.28-.18-.41-1.38.56-2.81,1.17-4.26,1.82l.37.46C35.72,133.33,37.07,132.71,38.4,132.13Z"/><path class="cls-7" d="M34,133.54l-2.32,1.08.39.53,2.3-1.15Z"/><path class="cls-4" d="M80,166.63l.46.19a5.82,5.82,0,0,0-.14-1.24,1.31,1.31,0,0,0-.08-.21l-1.88.5Z"/><path class="cls-7" d="M70.31,167.69l-1.27.25a2.51,2.51,0,0,0,0,.27,5.5,5.5,0,0,0,.85,1.91c.12-.14.26-.29.38-.44Z"/><path class="cls-4" d="M73.39,161.25a5.78,5.78,0,0,0-2.23,1.07l.87.45c.78-.18,1.56-.33,2.33-.52s1.52-.38,2.28-.56l.15-.2A5.69,5.69,0,0,0,73.39,161.25Z"/><path class="cls-7" d="M70.31,169.68c.29-.34.6-.66.88-1s.75-.94,1.13-1.4l-2,.41Z"/><path class="cls-4" d="M75.71,168.11c-.73.87-1.44,1.75-2.19,2.59l-1.28,1.41a5.68,5.68,0,0,0,7.43-2.31l-.87-.34C77.76,169,76.74,168.57,75.71,168.11Z"/><path class="cls-4" d="M78.36,165.87l-1,.25c-.54.68-1.09,1.33-1.63,2,1,.46,2.05.93,3.09,1.35l.87.34a5.78,5.78,0,0,0,.79-3l-.46-.19Z"/><path class="cls-7" d="M70.32,163.14l1.71-.37-.87-.45A5.93,5.93,0,0,0,70.32,163.14Z"/><path class="cls-7" d="M70.31,165.54v2.15l2-.41.43-.54C71.93,166.35,71.12,166,70.31,165.54Z"/><path class="cls-4" d="M72,162.77c.92.47,1.83.94,2.76,1.4.62-.82,1.24-1.65,1.85-2.48-.76.18-1.52.39-2.28.56S72.81,162.59,72,162.77Z"/><path class="cls-7" d="M70.31,165.54c-.35-.18-.71-.34-1.06-.53a5.9,5.9,0,0,0-.21,2.93l1.27-.25Z"/><path class="cls-4" d="M77.75,165.58l.61.29,1.88-.5a5.56,5.56,0,0,0-.88-1.89C78.83,164.19,78.3,164.89,77.75,165.58Z"/><path class="cls-4" d="M78.36,165.87l-.61-.29-.41.54Z"/><path class="cls-4" d="M74.79,164.17c-.93-.46-1.84-.93-2.76-1.4l-1.71.37h0v2.39c.81.41,1.62.81,2.44,1.2C73.43,165.89,74.12,165,74.79,164.17Z"/><path class="cls-7" d="M69.25,165c.35.19.71.35,1.06.53v-2.39A6,6,0,0,0,69.25,165Z"/><path class="cls-4" d="M77,161.6l-.21-.11-.15.2Z"/><path class="cls-7" d="M69.93,170.12a4.7,4.7,0,0,0,.38.5v-.94C70.19,169.83,70.05,170,69.93,170.12Z"/><path class="cls-4" d="M75.71,168.11c-.78-.35-1.57-.69-2.34-1.06l-1.05.23c-.38.46-.74.94-1.13,1.4s-.59.66-.88,1v.94a5.7,5.7,0,0,0,1.93,1.49l1.28-1.41C74.27,169.86,75,169,75.71,168.11Z"/><path class="cls-4" d="M73.37,167.05c.77.37,1.56.71,2.34,1.06.54-.66,1.09-1.31,1.63-2l-2,.5Z"/><path class="cls-7" d="M72.32,167.28l1.05-.23-.62-.31Z"/><path class="cls-4" d="M77,161.6l-.36.09c-.61.83-1.23,1.66-1.85,2.48,1,.49,2,1,3,1.41.55-.69,1.08-1.39,1.61-2.1A5.78,5.78,0,0,0,77,161.6Z"/><path class="cls-4" d="M72.75,166.74l.62.31,2-.43,2-.5.41-.54c-1-.46-2-.92-3-1.41C74.12,165,73.43,165.89,72.75,166.74Z"/><path class="cls-4" d="M121.28,139a5.16,5.16,0,0,0-3.84,6.19c0,.12.08.22.12.34,1-.67,2.07-1.36,3.06-2.08a42.83,42.83,0,0,0,4.5-3.83A5.09,5.09,0,0,0,121.28,139Z"/><path class="cls-4" d="M122.54,146c-1,.78-2,1.53-3,2.26a5.07,5.07,0,0,0,4.1.82,5.15,5.15,0,0,0,3.83-6.19,5.41,5.41,0,0,0-.39-1.09A41.69,41.69,0,0,1,122.54,146Z"/><path class="cls-4" d="M125.12,139.66a42.83,42.83,0,0,1-4.5,3.83c-1,.72-2,1.41-3.06,2.08a5,5,0,0,0,2,2.69c1-.73,2-1.48,3-2.26a41.69,41.69,0,0,0,4.51-4.2A5.2,5.2,0,0,0,125.12,139.66Z"/></svg>