<svg id="Layer_1" data-name="Layer 1" xmlns="http://www.w3.org/2000/svg" width="183.8816" height="210.8553" viewBox="0 0 183.8816 210.8553"><defs><style>.cls-1{fill:#373f44;}.cls-2{fill:#f3f3f3;}.cls-3{fill:#ccc;}.cls-4{fill:#010101;}.cls-5{fill:none;}.cls-6{fill:#e2e2e2;}.cls-7{fill:#fff;}.cls-8{fill:#231f20;}</style></defs><title>physics</title><rect class="cls-1" width="183.8816" height="210.8553"/><rect class="cls-2" x="75.5078" y="46.8805" width="99.6017" height="136.4054" rx="4"/><rect class="cls-3" x="86.0263" y="132.0113" width="69.0324" height="4.0138" rx="1.8818"/><rect class="cls-3" x="85.379" y="91.1565" width="69.0324" height="4.0138" rx="1.8818"/><path class="cls-4" d="M109.5754,67.9849v3.0693h-.9346v-7.84h2.6123a2.4677,2.4677,0,0,1,1.8223.6572,2.3464,2.3464,0,0,1,.6592,1.7393,2.317,2.317,0,0,1-.6446,1.7578,2.5677,2.5677,0,0,1-1.8466.6167Zm0-.8452h1.6777a1.574,1.574,0,0,0,1.1485-.3911,1.5142,1.5142,0,0,0,.3984-1.13,1.5638,1.5638,0,0,0-.3984-1.1216,1.4867,1.4867,0,0,0-1.0948-.437h-1.7314Z"/><path class="cls-4" d="M120.3693,71.0542h-.9384V67.43h-3.57v3.624h-.9346v-7.84h.9346V66.585h3.57V63.2139h.9384Z"/><path class="cls-4" d="M124.052,67.15l1.8486-3.9365h1.0605L124.52,68.13v2.9238h-.9345V68.13l-2.4424-4.9165h1.07Z"/><path class="cls-4" d="M129.885,67.56a4.2483,4.2483,0,0,1-1.7491-.94,1.889,1.889,0,0,1-.5468-1.3759,1.9762,1.9762,0,0,1,.6689-1.5318,2.4878,2.4878,0,0,1,1.7393-.6059,2.6643,2.6643,0,0,1,1.3008.3125,2.2254,2.2254,0,0,1,.8857.8613,2.3809,2.3809,0,0,1,.3135,1.2007h-.9385A1.5133,1.5133,0,0,0,131.15,64.36a1.5591,1.5591,0,0,0-1.1523-.4082,1.5854,1.5854,0,0,0-1.0781.3374,1.1756,1.1756,0,0,0-.3868.936,1.0545,1.0545,0,0,0,.3672.8115,3.445,3.445,0,0,0,1.251.607,5.502,5.502,0,0,1,1.3809.6064,2.2106,2.2106,0,0,1,.74.7725,2.1442,2.1442,0,0,1,.24,1.04,1.9074,1.9074,0,0,1-.6709,1.5264,2.6714,2.6714,0,0,1-1.7949.5737,3.0513,3.0513,0,0,1-1.3623-.31,2.3428,2.3428,0,0,1-.9756-.8477,2.2292,2.2292,0,0,1-.3428-1.2226h.9385a1.41,1.41,0,0,0,.4746,1.123,1.8659,1.8659,0,0,0,1.2676.4116,1.7059,1.7059,0,0,0,1.1328-.334,1.1286,1.1286,0,0,0,.3945-.91,1.1135,1.1135,0,0,0-.3652-.8911A4.0142,4.0142,0,0,0,129.885,67.56Z"/><path class="cls-4" d="M134.7111,71.0542h-.9345v-7.84h.9345Z"/><path class="cls-4" d="M141.6281,68.5664a3.0126,3.0126,0,0,1-.8291,1.92,2.557,2.557,0,0,1-1.8554.6757,2.4,2.4,0,0,1-2.0118-.9965,4.2957,4.2957,0,0,1-.7568-2.6651v-.7539a4.8748,4.8748,0,0,1,.3525-1.9224,2.8476,2.8476,0,0,1,1-1.2734,2.5811,2.5811,0,0,1,1.4981-.4443,2.414,2.414,0,0,1,1.81.6972,3.0593,3.0593,0,0,1,.7929,1.9307H140.69a2.3661,2.3661,0,0,0-.5284-1.3613,1.5036,1.5036,0,0,0-1.1357-.4214,1.6165,1.6165,0,0,0-1.4033.7329,3.6345,3.6345,0,0,0-.5088,2.0859v.76a3.7385,3.7385,0,0,0,.4824,2.0317,1.5134,1.5134,0,0,0,1.3477.7544,1.6771,1.6771,0,0,0,1.1933-.39,2.2723,2.2723,0,0,0,.5528-1.36Z"/><path class="cls-4" d="M144.99,67.56a4.2352,4.2352,0,0,1-1.749-.94,1.8858,1.8858,0,0,1-.5478-1.3759,1.98,1.98,0,0,1,.6689-1.5318,2.4912,2.4912,0,0,1,1.7393-.6059,2.6676,2.6676,0,0,1,1.3017.3125,2.2224,2.2224,0,0,1,.8848.8613,2.3716,2.3716,0,0,1,.3144,1.2007h-.9394a1.5132,1.5132,0,0,0-.4082-1.1211,1.5617,1.5617,0,0,0-1.1533-.4082,1.5846,1.5846,0,0,0-1.0772.3374,1.1758,1.1758,0,0,0-.3867.936,1.0512,1.0512,0,0,0,.3672.8115,3.4388,3.4388,0,0,0,1.25.607,5.5085,5.5085,0,0,1,1.3818.6064,2.2076,2.2076,0,0,1,.7393.7725,2.1444,2.1444,0,0,1,.2412,1.04,1.9051,1.9051,0,0,1-.6719,1.5264,2.67,2.67,0,0,1-1.7949.5737,3.0575,3.0575,0,0,1-1.3623-.31,2.349,2.349,0,0,1-.9756-.8477,2.2292,2.2292,0,0,1-.3428-1.2226h.94a1.4127,1.4127,0,0,0,.4736,1.123,1.8677,1.8677,0,0,0,1.2676.4116,1.707,1.707,0,0,0,1.1338-.334,1.1279,1.1279,0,0,0,.3935-.91,1.1132,1.1132,0,0,0-.3642-.8911A4.0139,4.0139,0,0,0,144.99,67.56Z"/><rect class="cls-3" x="84.7594" y="111.96" width="69.0324" height="4.0138" rx="1.8818"/><path class="cls-5" d="M53.92,170.1532c-1.5.1413-2.9992.2677-4.4956.3557q-4.1763.2567-8.333.2468c-.1766,1.251-.3087,2.5255-.3618,3.8224a17.6226,17.6226,0,0,0,1.252,8.2128,7.443,7.443,0,0,0,1.1248,1.6875,7.0481,7.0481,0,0,0,.7285.6309l.4679.3336.3939.1885a6.6148,6.6148,0,0,0,4.0165.4277,21.7343,21.7343,0,0,0,8.2392-3.7853c.6285-.4363,1.2482-.8926,1.8619-1.3625-1.3051-2.5182-2.5164-5.1032-3.64-7.7342Q54.5241,171.6762,53.92,170.1532Z"/><path class="cls-5" d="M93.6425,139.581c.6865.5541,1.3829,1.122,2.1014,1.7233a95.5263,95.5263,0,0,1,10.2357,9.95c.1.1153.1989.238.3.3559,1.33-.615,2.6645-1.2225,3.9584-1.88a79.3347,79.3347,0,0,0,7.3206-4.1609c-.0359-.1152-.089-.2219-.116-.3423a5.1564,5.1564,0,0,1,3.8349-6.1893,5.0989,5.0989,0,0,1,3.8436.6262,19.987,19.987,0,0,0,3.3683-4.31,8.1883,8.1883,0,0,0,1.1766-4.8577,6.6116,6.6116,0,0,0-.7125-2.3421,8.9231,8.9231,0,0,0-1.5359-1.9887,15.798,15.798,0,0,0-4.3116-2.8925,29.9432,29.9432,0,0,0-4.8942-1.8227,58.39,58.39,0,0,0-9.8851-1.8076c-2.74-.289-5.39-.4241-7.944-.4662a79.3009,79.3009,0,0,1-4.7931,15.901C94.9809,136.593,94.3253,138.0918,93.6425,139.581Z"/><path class="cls-5" d="M45.9361,152.9428c.3778-.8567.7532-1.6739,1.1249-2.4747-1.2692-1.0328-2.5175-2.088-3.7289-3.1753a89.6577,89.6577,0,0,1-7.7316-7.7056,5.7608,5.7608,0,0,1-7.6379-2.2046c-.9445.5481-1.8915,1.1122-2.8423,1.7135A58.4572,58.4572,0,0,0,17.0516,145.1a30.67,30.67,0,0,0-3.5894,3.8025,16.1149,16.1149,0,0,0-2.5952,4.5056,8.9566,8.9566,0,0,0-.5026,2.4611l.021.5667a2.3647,2.3647,0,0,0,.0618.62l.1259.7067.18.5046a8.12,8.12,0,0,0,3.19,3.8485c2.9634,2.042,6.7847,3.0785,10.6333,3.8064a73.5882,73.5882,0,0,0,12.0592.9931c1.4472.02,2.9053-.0013,4.3684-.04.0383-.1525.0754-.31.1148-.4624A95.516,95.516,0,0,1,45.9361,152.9428Z"/><path class="cls-5" d="M52.3726,166.0393c-1.7445-4.8664-3.2127-9.863-4.4819-14.91-.2223-.1774-.4506-.3472-.6716-.5257-.3446.7922-.69,1.5994-1.0322,2.45a82.0125,82.0125,0,0,0-4.3412,13.5342c-.0186.0868-.0347.1773-.0531.2654q3.6429-.1209,7.3254-.4526C50.2009,166.2972,51.2873,166.16,52.3726,166.0393Z"/><path class="cls-5" d="M48.3142,128.0144c1.952-.651,3.7843-1.23,5.4437-1.7271,3.6363-1.096,6.5378-1.8214,8.51-2.3222.28-.067.5371-.1277.7816-.186q.8132-1.0861,1.7224-2.2478c-1.2236-.5617-2.4954-1.1258-3.8683-1.6851a81.68,81.68,0,0,0-13.3965-4.3369q.0352,4.1416.379,8.3405C48.0043,125.2347,48.1624,126.6245,48.3142,128.0144Z"/><path class="cls-5" d="M61.0069,119.5946c1.3718.6112,2.6447,1.2113,3.87,1.8014.84-1.0724,1.7175-2.1721,2.678-3.3277.8557-1.0327,1.7879-2.0941,2.7584-3.1665V94.1145c-.3618-.4117-.72-.8257-1.1014-1.2263a22.8547,22.8547,0,0,0-6.59-5.03A6.2355,6.2355,0,0,1,52.3985,90.581a26.4464,26.4464,0,0,0-3.69,9.7091,66.209,66.209,0,0,0-1.1755,11.5555q-.0388,1.4392-.0358,2.89l.1037.0261A95.0869,95.0869,0,0,1,61.0069,119.5946Z"/><path class="cls-5" d="M95.5674,141.5127c-.6816-.6113-1.3483-1.1829-2.0076-1.7408-.6136,1.3328-1.27,2.6508-1.9372,3.965.363,1.7444.8,3.9452,1.226,6.5787.3124,1.8894.6247,4.0034.9137,6.312,1.694-.5927,3.3806-1.1964,5.0437-1.83,2.304-.8852,4.556-1.85,6.7761-2.8578-.0544-.0683-.1086-.1414-.163-.2109A81.8035,81.8035,0,0,0,95.5674,141.5127Z"/><path class="cls-5" d="M94.12,163.4443c-.04-.8034-.0889-1.582-.1433-2.3521-4.4857,1.6305-9.0788,3.0315-13.7323,4.2739.021.0731.0556.1388.0729.2132a5.784,5.784,0,0,1,.1432,1.24c2.9324,1.2857,5.9043,2.425,8.8787,3.3884q2.465.8128,4.9425,1.42C94.3339,168.7471,94.2525,166.007,94.12,163.4443Z"/><path class="cls-5" d="M94.2525,160.9956c.079.7935.1555,1.5969.2259,2.4264.2185,2.6037.3667,5.3945.4013,8.3392,1.2927.3,2.5855.5629,3.8745.7563a21.7119,21.7119,0,0,0,9.0578-.2616,6.6127,6.6127,0,0,0,3.4114-2.1561,5.5765,5.5765,0,0,0,.9285-1.7544,7.3208,7.3208,0,0,0,.2716-2.016,17.6864,17.6864,0,0,0-2.49-7.925,38.0289,38.0289,0,0,0-2.0125-3.2807q-3.7227,1.8541-7.5922,3.4766Q97.3281,159.8741,94.2525,160.9956Z"/><path class="cls-5" d="M77.4642,107.7826c.4285-.3733.8681-.744,1.3138-1.1146-1.089-2.03-2.2916-4.0928-3.6461-6.16a56.794,56.794,0,0,0-4.819-6.3939v20.7873A94.1609,94.1609,0,0,1,77.4642,107.7826Z"/><path class="cls-5" d="M63.0344,180.8171c.2876.5778.5741,1.1592.87,1.73a66.2644,66.2644,0,0,0,6.14,9.853c.0876.1128.179.2244.2679.336V174.1665A74.7747,74.7747,0,0,1,63.0344,180.8171Z"/><path class="cls-5" d="M69.9251,170.1246a5.7465,5.7465,0,0,1-.8494-1.9193c-.021-.0881-.0173-.1748-.0334-.2629-3.5868.6931-7.1958,1.2784-10.8085,1.7347.2407.6447.4667,1.3.7136,1.94.8964,2.3048,1.8744,4.5563,2.909,6.7622.8544-.7589,1.7-1.5363,2.525-2.3472C66.3,174.1727,68.1386,172.1827,69.9251,170.1246Z"/><path class="cls-5" d="M76.0048,172.5386a5.6916,5.6916,0,0,1-3.7609-.429q-.9537,1.0433-1.931,2.0569v18.5692a24.9632,24.9632,0,0,0,7.6922,6.96,8.1165,8.1165,0,0,0,4.6905.9931,7.1808,7.1808,0,0,0,4.2116-2.0805,20.63,20.63,0,0,0,4.8079-8.6727,53.9277,53.9277,0,0,0,1.9582-9.46c.2681-2.15.431-4.2465.5248-6.2836a77.7958,77.7958,0,0,1-14.5274-4.39A5.7489,5.7489,0,0,1,76.0048,172.5386Z"/><path class="cls-5" d="M38.2218,131.7165c.8618-.3508,1.7162-.69,2.55-1.0092,1.1716-.4475,2.3064-.8653,3.4127-1.2634-.1668-1.7754-.3039-3.55-.39-5.3214-.1618-3.1219-.2174-6.2414-.1248-9.336a38.0968,38.0968,0,0,0-4.2042-.4166,17.3355,17.3355,0,0,0-8.1786,1.2572,7.3251,7.3251,0,0,0-1.6742,1.1257,6.985,6.985,0,0,0-.6384.7329l-.3235.47-.19.3981a6.6526,6.6526,0,0,0-.4284,4.0331,19.0577,19.0577,0,0,0,2.6471,6.5179,5.75,5.75,0,0,1,7.5429,2.8119Z"/><path class="cls-5" d="M67.378,122.7673q-1.1706-.5765-2.4559-1.1666-.8927,1.099-1.689,2.135l2.073-.4947S66.0284,123.0774,67.378,122.7673Z"/><path class="cls-5" d="M70.3129,122.1785c-.726.1463-1.3866.2813-1.9608.3992-.2691.0582-.5173.1128-.7519.1636.9594.4873,1.8681.9584,2.7127,1.41Z"/><path class="cls-5" d="M50.7577,143.0587c1.4408-2.693,2.6694-4.7473,3.5028-6.1522.8532-1.3947,1.3113-2.1349,1.3113-2.1349s.46-.7378,1.3272-2.1239c.889-1.3688,2.1805-3.3872,3.9487-5.8682.6555-.9212,1.3964-1.9267,2.1792-2.9707-.2347.0583-.4827.1191-.7508.186-1.9644.5208-4.8584,1.2672-8.4872,2.4028-1.662.5158-3.5017,1.1146-5.4562,1.7978.5507,5.0077,1.32,10.0317,2.341,15.0245C50.7009,143.1678,50.7305,143.11,50.7577,143.0587Z"/><path class="cls-5" d="M70.3129,161.8672V155.968a12.127,12.127,0,1,1,0-24.2477v-7.4638c-.899-.4725-1.8719-.966-2.9028-1.473-1.3718.2976-2.104.4575-2.104.4575l-2.094.522c-.8285,1.0774-1.6063,2.1177-2.2941,3.0661-1.789,2.4673-3.1028,4.4709-4,5.8323-.8779,1.3749-1.3458,2.11-1.3458,2.11s-.45.7451-1.2878,2.1487c-.8223,1.41-2.0361,3.4765-3.4473,6.1781-.0432.0818-.09.1761-.1334.2591.3272,1.592.6581,3.1827,1.0371,4.7647.173.775.3816,1.5412.5668,2.3124,3.1078,2.3037,6.313,4.5055,9.6245,6.5464C64.6677,158.7192,67.4718,160.3409,70.3129,161.8672Z"/><path class="cls-5" d="M91.01,137.6778c-.3135-.2492-.6062-.47-.9112-.7068.1976.8382.3371,1.43.4148,1.7606C90.6829,138.3808,90.8435,138.0286,91.01,137.6778Z"/><path class="cls-5" d="M81.2079,130.6217c-1.3718-.8814-2.1-1.35-2.1-1.35s-.7432-.45-2.136-1.2945c-1.4088-.822-3.4658-2.0408-6.155-3.4592-.1593-.0843-.3408-.176-.5037-.2615V131.72a12.1263,12.1263,0,0,1,0,24.2477v5.8992c.2839.1525.5666.3075.8519.4575a5.6862,5.6862,0,0,1,5.6216-.8307c2.241-3.06,4.3857-6.2165,6.3859-9.4873a138.5588,138.5588,0,0,0,7.339-13.2713c-.0815-.3324-.2284-.9324-.44-1.7842-1.0754-.8344-2.1125-1.6167-3.0595-2.3086C84.56,132.8424,82.5635,131.5294,81.2079,130.6217Z"/><path class="cls-5" d="M53.5765,155.3891q1.4169,5.1291,3.14,10.1245,5.1782-.6955,10.3553-1.6949c-2.331-1.2733-4.64-2.5949-6.9056-3.9886C57.9276,158.4105,55.736,156.9189,53.5765,155.3891Z"/><path class="cls-5" d="M85.0071,119.89c1.0568,2.9607,1.9408,5.676,2.6557,8.04,1.0632,3.5025,1.7521,6.2922,2.2361,8.1928.0544.232.1062.45.1544.656.34.2566.6667.5,1.0174.77.5791-1.2212,1.1556-2.4437,1.6989-3.67a96.4322,96.4322,0,0,0,3.567-9.382q.8706-2.6595,1.4978-5.3326c-2.52.02-4.934.12-7.207.26C88.653,119.54,86.7775,119.7025,85.0071,119.89Z"/><path class="cls-5" d="M45.34,144.9594c.458.3843.9347.7539,1.3989,1.1332a153.2153,153.2153,0,0,1-2.5312-16.38c-1.0729.4178-2.1693.8554-3.299,1.3341-.8212.3434-1.6619.7066-2.5127,1.0812a5.6214,5.6214,0,0,1-.6951,5.6549c.1074.1116.21.2269.3173.3372A95.71,95.71,0,0,0,45.34,144.9594Z"/><path class="cls-5" d="M84.9354,119.6864q2.6743-.3348,5.6623-.6225c2.3139-.217,4.7882-.3719,7.3626-.4637.2654-1.1865.5024-2.3718.6791-3.5546a22.0815,22.0815,0,0,0-.2594-9.0992,6.715,6.715,0,0,0-2.1508-3.4245,5.3776,5.3776,0,0,0-1.7484-.9312,7.2706,7.2706,0,0,0-2.0027-.27,17.3861,17.3861,0,0,0-7.8946,2.5,41.4861,41.4861,0,0,0-4.9029,3.1889c1.4247,2.9347,2.6422,5.7715,3.6818,8.4446C83.934,116.924,84.4477,118.3237,84.9354,119.6864Z"/><path class="cls-5" d="M81.5622,160.4352c4.061-1.1109,8.0774-2.3656,12.02-3.7419-.2531-2.3272-.5518-4.456-.8458-6.3592-.3962-2.6037-.8063-4.7857-1.1483-6.5252q-2.5872,5.0846-5.5955,9.9956C84.581,156.051,83.092,158.2593,81.5622,160.4352Z"/><path class="cls-5" d="M70.3129,115.451v6.6766c1.7915-.377,4.0251-.8282,6.69-1.2758,2.2718-.3819,4.8487-.7736,7.6958-1.1344-.5124-1.3329-1.0568-2.6992-1.6717-4.1262-1.1088-2.5963-2.3768-5.3575-3.8634-8.1918-.4148.3162-.8285.6336-1.23.9535A74.94,74.94,0,0,0,70.3129,115.451Z"/><path class="cls-5" d="M65.0283,121.4693q1.328.6415,2.5386,1.2546c.242-.0544.4987-.114.779-.1785.5767-.1228,1.2385-.2641,1.967-.4178V115.451c-.8928.946-1.7521,1.8821-2.5534,2.791C66.7717,119.3529,65.8791,120.4228,65.0283,121.4693Z"/><path class="cls-5" d="M70.8574,124.4387c2.678,1.442,4.7239,2.6855,6.1266,3.5162,1.3815.8592,2.1236,1.3168,2.1236,1.3168s.7321.4673,2.1125,1.3328c1.3644.8914,3.3745,2.1908,5.8488,3.9662.9162.6583,1.9163,1.401,2.9547,2.1859-.0482-.1984-.1-.4067-.1555-.63-.5026-1.89-1.2224-4.6755-2.3163-8.1632-.7384-2.3694-1.6508-5.0933-2.7794-8.0466-2.8707.31-5.4648.6868-7.7477,1.0526-2.6732.4178-4.9166.8481-6.7118,1.2089v1.9726C70.4894,124.2453,70.6857,124.3457,70.8574,124.4387Z"/><path class="cls-6" d="M92.7362,150.3341c.294,1.9032.5927,4.032.8458,6.3592.0605-.0211.12-.0447.18-.0657-.289-2.3086-.6013-4.4226-.9137-6.312-.426-2.6335-.863-4.8343-1.226-6.5787-.0124.0236-.0235.0484-.0347.072C91.93,145.5484,92.34,147.73,92.7362,150.3341Z"/><path class="cls-7" d="M58.2338,169.6771q-2.1576.2714-4.314.4761.6073,1.5231,1.2545,3.0239c1.1234,2.631,2.3347,5.216,3.64,7.7342,1.0372-.7961,2.0471-1.649,3.0423-2.5317-1.0346-2.2059-2.0126-4.4574-2.909-6.7622C58.7005,170.9776,58.4745,170.3218,58.2338,169.6771Z"/><path class="cls-6" d="M84.6983,119.7174c.08-.01.1568-.02.2371-.031-.4877-1.3627-1.0014-2.7624-1.573-4.2329-1.04-2.6731-2.2571-5.51-3.6818-8.4446-.1741.129-.3458.2591-.5174.3905,1.4866,2.8343,2.7546,5.5955,3.8634,8.1918C83.6415,117.0182,84.1859,118.3845,84.6983,119.7174Z"/><path class="cls-7" d="M43.794,124.1225c.0863,1.7718.2234,3.546.39,5.3214,1.44-.5182,2.81-.9894,4.13-1.43-.1518-1.39-.31-2.78-.4285-4.1646q-.35-4.1919-.379-8.3405c-.0284-.0063-.0555-.0149-.084-.0211-1.22-.2665-2.4743-.5084-3.7535-.7017C43.5766,117.8811,43.6322,121.0006,43.794,124.1225Z"/><path class="cls-7" d="M47.5326,111.8456A66.209,66.209,0,0,1,48.7081,100.29a26.4464,26.4464,0,0,1,3.69-9.7091,6.2513,6.2513,0,0,1-1.5248-2.2628c-.079.09-.1629.18-.2395.2715a21.2367,21.2367,0,0,0-3.1176,5.2309,36.0455,36.0455,0,0,0-1.9126,5.7567,72.22,72.22,0,0,0-1.8916,14.2768c1.2977.2529,2.5584.558,3.7844.8815Q47.495,113.285,47.5326,111.8456Z"/><path class="cls-7" d="M50.6737,143.22c-1.0211-4.9928-1.79-10.0168-2.341-15.0245-1.32.4613-2.69.9608-4.1252,1.5176a153.2153,153.2153,0,0,0,2.5312,16.38c.5766.4712,1.1532.9436,1.7385,1.4085C49.2488,145.9339,49.9859,144.5093,50.6737,143.22Z"/><path class="cls-7" d="M90.5113,138.7354l.0024-.0038c-.0777-.331-.2172-.9224-.4148-1.7606-.0086-.0062-.0173-.0135-.0272-.02C90.2829,137.803,90.43,138.403,90.5113,138.7354Z"/><path class="cls-6" d="M87.5518,127.9636c1.0939,3.4877,1.8137,6.2736,2.3163,8.1632.0555.2231.1073.4314.1555.63l.03.0223c-.0482-.2059-.1-.424-.1544-.656-.484-1.9006-1.1729-4.69-2.2361-8.1928-.7149-2.3644-1.5989-5.08-2.6557-8.04-.079.0087-.1557.0186-.2347.0273C85.901,122.87,86.8134,125.5942,87.5518,127.9636Z"/><path class="cls-6" d="M93.6733,180.4761a53.9277,53.9277,0,0,1-1.9582,9.46,20.63,20.63,0,0,1-4.8079,8.6727,7.1808,7.1808,0,0,1-4.2116,2.0805,8.1165,8.1165,0,0,1-4.69-.9931,24.9632,24.9632,0,0,1-7.6922-6.96v4.55c.5013.4822.9975.9707,1.526,1.4232a21.1445,21.1445,0,0,0,5.09,3.31,12.6947,12.6947,0,0,0,2.9694.915,13.4223,13.4223,0,0,0,1.5793.1289A8.546,8.546,0,0,0,83.05,202.92a8.8338,8.8338,0,0,0,2.9077-1.044,10.8609,10.8609,0,0,0,2.33-1.866A17.2076,17.2076,0,0,0,91.33,195.322a29.9275,29.9275,0,0,0,1.7262-4.9928,54.6111,54.6111,0,0,0,1.5655-9.754c.1556-2.161.2173-4.234.2408-6.2649-.2222-.0384-.4432-.0769-.6643-.1178C94.1043,176.23,93.9414,178.3262,93.6733,180.4761Z"/><path class="cls-7" d="M53.5765,155.3891c-1.9372-1.3739-3.8412-2.7861-5.6858-4.26,1.2692,5.0474,2.7374,10.044,4.4819,14.91,1.4472-.1612,2.8942-.331,4.3438-.5257Q54.99,160.5276,53.5765,155.3891Z"/><path class="cls-7" d="M50.7033,143.3575c-.6667,1.2783-1.38,2.6818-2.1175,4.2316q1.8317,1.4506,3.7214,2.8455c-.1852-.7712-.3938-1.5374-.5668-2.3124C51.3614,146.54,51.0305,144.95,50.7033,143.3575Z"/><path class="cls-7" d="M70.045,192.4a66.2644,66.2644,0,0,1-6.14-9.853c-.2962-.57-.5827-1.1518-.87-1.73-.9977.7909-2.0139,1.55-3.0535,2.2676a71.5617,71.5617,0,0,0,7.6119,11.3112,35.9711,35.9711,0,0,0,2.72,2.89v-4.55C70.224,192.6241,70.1326,192.5125,70.045,192.4Z"/><path class="cls-6" d="M75.1319,100.5084c1.3545,2.0668,2.5571,4.13,3.6461,6.16.1741-.1438.3518-.2864.5284-.43-1.01-2.0407-2.1213-4.1262-3.3559-6.2426a54.6734,54.6734,0,0,0-5.6376-7.997v2.1164A56.794,56.794,0,0,1,75.1319,100.5084Z"/><path class="cls-6" d="M94.4784,163.422c-.07-.8295-.1469-1.6329-.2259-2.4264-.0914.0334-.1841.0645-.2754.0966.0544.77.1037,1.5487.1433,2.3521.1321,2.5627.2135,5.3028.1617,8.183.1987.0484.3975.088.5976.1339C94.8451,168.8165,94.6969,166.0257,94.4784,163.422Z"/><path class="cls-7" d="M69.2115,92.8882c.3816.4006.74.8146,1.1014,1.2263V91.9981c-.0186-.0223-.0358-.0447-.0544-.067a30.1717,30.1717,0,0,0-3.74-3.7145,18.6377,18.6377,0,0,0-3.5905-2.3347,6.2687,6.2687,0,0,1-.3062,1.9763A22.8547,22.8547,0,0,1,69.2115,92.8882Z"/><path class="cls-6" d="M95.7439,141.3043c-.7185-.6013-1.4149-1.1692-2.1014-1.7233-.0284.0632-.0531.1277-.0827.1909.6593.5579,1.326,1.13,2.0076,1.7408a81.8035,81.8035,0,0,1,9.8517,10.2162c.0544.0695.1086.1426.163.2109.2345-.1066.463-.2219.6976-.33-.1012-.1179-.2-.2406-.3-.3559A95.5263,95.5263,0,0,0,95.7439,141.3043Z"/><path class="cls-7" d="M47.2191,150.6032c.221.1785.4493.3483.6716.5257q-.1649-.6547-.3272-1.3093C47.4487,150.0775,47.3351,150.3391,47.2191,150.6032Z"/><path class="cls-7" d="M70.3129,161.8672c-2.8411-1.5263-5.6452-3.148-8.3812-4.8862-3.3115-2.0409-6.5167-4.2427-9.6245-6.5464.3988,1.66.8162,3.3129,1.2693,4.9545,2.1595,1.53,4.3511,3.0214,6.59,4.441,2.2657,1.3937,4.5746,2.7153,6.9056,3.9886,1.0817-.21,2.1608-.4438,3.2412-.6757Z"/><path class="cls-7" d="M67.5669,122.7239q-1.2114-.6135-2.5386-1.2546c-.0357.0433-.0715.0867-.1062.1314q1.2835.5913,2.4559,1.1666C67.4422,122.7538,67.5,122.74,67.5669,122.7239Z"/><path class="cls-7" d="M76.9716,127.9772c1.3928.8444,2.136,1.2945,2.136,1.2945s-.7421-.4576-2.1236-1.3168c-1.4027-.8307-3.4486-2.0742-6.1266-3.5162-.1717-.093-.368-.1934-.5445-.2876v.1054c.1629.0855.3444.1772.5037.2615C73.5058,125.9364,75.5628,127.1552,76.9716,127.9772Z"/><path class="cls-7" d="M47.3943,149.1389q-.3408-1.5194-.6556-3.0463c-.4642-.3793-.9409-.7489-1.3989-1.1332a95.71,95.71,0,0,1-7.3218-6.839c-.1073-.11-.21-.2256-.3173-.3372a5.8293,5.8293,0,0,1-2.1,1.804,89.6577,89.6577,0,0,0,7.7316,7.7056c1.2114,1.0873,2.46,2.1425,3.7289,3.1753.1457-.315.2889-.6176.4346-.9238C47.4622,149.4092,47.4264,149.274,47.3943,149.1389Z"/><path class="cls-7" d="M71.1648,162.3247c-.2853-.15-.568-.305-.8519-.4575v1.2758l.0073-.0012A5.79,5.79,0,0,1,71.1648,162.3247Z"/><path class="cls-6" d="M80.4609,166.8192a5.7963,5.7963,0,0,1-.79,2.983,77.7958,77.7958,0,0,0,14.5274,4.39c.04-.8653.0692-1.7233.084-2.5652q-2.4744-.6026-4.9425-1.42C86.3652,169.2442,83.3933,168.1049,80.4609,166.8192Z"/><path class="cls-7" d="M90.0989,136.971c.305.2368.5977.4576.9112.7068.021-.0434.04-.0855.0606-.129-.3507-.27-.6779-.5133-1.0174-.77C90.0693,136.8471,90.0841,136.9065,90.0989,136.971Z"/><path class="cls-6" d="M109.9331,158.4044a17.6864,17.6864,0,0,1,2.49,7.925,7.3208,7.3208,0,0,1-.2716,2.016,5.5765,5.5765,0,0,1-.9285,1.7544,6.6127,6.6127,0,0,1-3.4114,2.1561,21.7119,21.7119,0,0,1-9.0578.2616c-1.289-.1934-2.5818-.4563-3.8745-.7563.0086.8307-.0074,1.6936-.0173,2.5491,1.2.2108,2.4028.3968,3.6091.5245a23.6708,23.6708,0,0,0,9.9455-.7713,8.4349,8.4349,0,0,0,4.172-2.9656,7.2475,7.2475,0,0,0,1.0926-2.3272,8.8827,8.8827,0,0,0,.2261-2.4674,14.2291,14.2291,0,0,0-1.0508-4.5217,24.4,24.4,0,0,0-1.9768-3.9266c-.663-1.11-1.38-2.15-2.12-3.148-.2779.1415-.5606.2765-.84.4167A38.0289,38.0289,0,0,1,109.9331,158.4044Z"/><path class="cls-7" d="M64.7715,121.5313c.0358-.0459.07-.0906.105-.1353-1.2249-.59-2.4978-1.19-3.87-1.8014a95.0869,95.0869,0,0,0-13.4064-4.8329l-.1037-.0261c0,.258.0074.5158.01.7737a81.68,81.68,0,0,1,13.3965,4.3369C62.2761,120.4055,63.5479,120.97,64.7715,121.5313Z"/><path class="cls-6" d="M81.22,130.6045c-1.38-.8655-2.1125-1.3328-2.1125-1.3328s.7285.4686,2.1,1.35c1.3556.9077,3.3521,2.2207,5.8043,4.0209.947.6919,1.9841,1.4742,3.06,2.3086-.016-.0657-.0308-.1264-.0481-.1946-1.0384-.7849-2.0385-1.5276-2.9547-2.1859C84.5946,132.7953,82.5845,131.4959,81.22,130.6045Z"/><path class="cls-7" d="M28.0318,122.3867a6.6526,6.6526,0,0,1,.4284-4.0331l.19-.3981.3235-.47a6.985,6.985,0,0,1,.6384-.7329,7.3251,7.3251,0,0,1,1.6742-1.1257A17.3355,17.3355,0,0,1,39.465,114.37a38.0968,38.0968,0,0,1,4.2042.4166c.0087-.3125.031-.6212.0432-.9324a39.19,39.19,0,0,0-4.1757-.5976,24.7449,24.7449,0,0,0-4.3782-.0484,14.1618,14.1618,0,0,0-4.5068,1.0526,8.6527,8.6527,0,0,0-2.1075,1.2957,8.4,8.4,0,0,0-.9026.9522l-.3469.4539c-.1828.27-.2321.4053-.3569.6148a8.4724,8.4724,0,0,0-.8038,5.0649,21.27,21.27,0,0,0,2.6769,7.5307,5.8334,5.8334,0,0,1,1.868-1.2683A19.0577,19.0577,0,0,1,28.0318,122.3867Z"/><path class="cls-7" d="M70.3129,124.2565v-.1054c-.8446-.4514-1.7533-.9225-2.7127-1.41-.0679.0149-.1259.0273-.19.0422C68.441,123.2905,69.4139,123.784,70.3129,124.2565Z"/><path class="cls-7" d="M94.2821,171.6273c-.0148.8419-.0445,1.7-.084,2.5652.2211.0409.4421.0794.6643.1178.01-.8555.0259-1.7184.0173-2.5491C94.68,171.7153,94.4808,171.6757,94.2821,171.6273Z"/><path class="cls-7" d="M46.7387,146.0926q.3148,1.525.6556,3.0463c.0321.1351.0679.27.1013.4054.3308-.6992.6606-1.3911.9816-2.0432C47.8919,147.0362,47.3153,146.5638,46.7387,146.0926Z"/><path class="cls-7" d="M90.0717,136.9512c.01.0063.0186.0136.0272.02-.0148-.0645-.03-.1239-.0456-.1921l-.03-.0223C90.0409,136.8248,90.0557,136.8855,90.0717,136.9512Z"/><path class="cls-7" d="M47.4227,115.4882c.0285.0062.0556.0148.084.0211-.0025-.2579-.01-.5157-.01-.7737-1.226-.3235-2.4867-.6286-3.7844-.8815-.0122.3112-.0345.62-.0432.9324C44.9484,114.98,46.2029,115.2217,47.4227,115.4882Z"/><path class="cls-7" d="M52.3072,150.4346q-1.8871-1.3986-3.7214-2.8455c-.3371.71-.6791,1.463-1.0223,2.2305q.1611.6546.3272,1.3093c1.8446,1.4741,3.7486,2.8863,5.6858,4.26C53.1234,153.7475,52.706,152.0947,52.3072,150.4346Z"/><path class="cls-7" d="M44.2075,129.713c-.0086-.0893-.0147-.18-.0233-.2691-1.1063.3981-2.2411.8159-3.4127,1.2634-.8335.3187-1.6879.6584-2.55,1.0092.0654.1327.1185.2716.174.4118.8508-.3746,1.6915-.7378,2.5127-1.0812C42.0382,130.5684,43.1346,130.1308,44.2075,129.713Z"/><path class="cls-6" d="M81.5622,160.4352c-.7211,1.0254-1.4508,2.0421-2.2,3.045a5.78,5.78,0,0,1,.8828,1.8859c4.6535-1.2424,9.2466-2.6434,13.7323-4.2739-.1087-1.536-.2432-3.0041-.3951-4.3989C89.64,158.07,85.6232,159.3243,81.5622,160.4352Z"/><path class="cls-6" d="M77.0247,120.97c2.2829-.3658,4.877-.7427,7.7477-1.0526-.0259-.0682-.0494-.1314-.0741-.2-2.8471.3608-5.424.7525-7.6958,1.1344-2.6645.4476-4.8981.8988-6.69,1.2758v.0509C72.1081,121.8177,74.3515,121.3874,77.0247,120.97Z"/><path class="cls-7" d="M67.5669,122.7239c.0111.0062.0222.0125.0333.0174.2346-.0508.4828-.1054.7519-.1636.5742-.1179,1.2348-.2529,1.9608-.3992v-.0509c-.7285.1537-1.39.295-1.967.4178C68.0656,122.61,67.8089,122.67,67.5669,122.7239Z"/><path class="cls-7" d="M69.2535,165.0127c-.7335-.3831-1.4545-.796-2.1818-1.194q-5.1746,1.0062-10.3553,1.6949c.4852,1.4011,1,2.7823,1.5174,4.1635,3.6127-.4563,7.2217-1.0416,10.8085-1.7347A5.7667,5.7667,0,0,1,69.2535,165.0127Z"/><path class="cls-6" d="M93.7623,156.6276q.2612,2.0775.49,4.368,3.0744-1.1233,6.0759-2.3953,3.8652-1.6218,7.5922-3.4766c-.7532-1.11-1.5408-2.1685-2.3385-3.1839-2.22,1.0079-4.4721,1.9726-6.7761,2.8578C97.1429,155.4312,95.4563,156.0349,93.7623,156.6276Z"/><path class="cls-7" d="M53.7889,126.3976c3.6288-1.1356,6.5228-1.882,8.4872-2.4028.2681-.0669.5161-.1277.7508-.186l.0222-.03c-.2445.0583-.5013.119-.7816.186-1.9718.5008-4.8733,1.2262-8.51,2.3222-1.6594.4972-3.4917,1.0761-5.4437,1.7271.0062.0608.0112.12.0185.181C50.2872,127.5122,52.1269,126.9134,53.7889,126.3976Z"/><path class="cls-6" d="M84.9354,119.6864c.0246.0693.0482.1351.0717.2033,1.77-.1872,3.6459-.35,5.62-.465,2.273-.14,4.6869-.24,7.207-.26.0431-.1871.0839-.3756.1259-.5641-2.5744.0918-5.0487.2467-7.3626.4637Q87.6122,119.3466,84.9354,119.6864Z"/><path class="cls-6" d="M117.5587,145.5694a79.3347,79.3347,0,0,1-7.3206,4.1609c-1.2939.6572-2.6287,1.2647-3.9584,1.88.8421.9831,1.6767,2.011,2.48,3.097a85.8849,85.8849,0,0,0,10.748-6.4422A5.0984,5.0984,0,0,1,117.5587,145.5694Z"/><path class="cls-7" d="M36.6363,166.9147a73.5882,73.5882,0,0,1-12.0592-.9931c-3.8486-.7279-7.67-1.7644-10.6333-3.8064a8.12,8.12,0,0,1-3.19-3.8485l-.18-.5046-.1259-.7067a2.3647,2.3647,0,0,1-.0618-.62l-.021-.5667a8.9566,8.9566,0,0,1,.5026-2.4611,16.1149,16.1149,0,0,1,2.5952-4.5056A30.67,30.67,0,0,1,17.0516,145.1a58.4572,58.4572,0,0,1,8.0687-6.0035c.9508-.6013,1.8978-1.1654,2.8423-1.7135a5.8934,5.8934,0,0,1-.3889-.7253c-.9767.5133-1.9594,1.0416-2.9522,1.6007a60.0658,60.0658,0,0,0-8.49,5.7666,32.0424,32.0424,0,0,0-3.9684,3.79,17.8466,17.8466,0,0,0-3.15,4.8924,11.1922,11.1922,0,0,0-.7718,3.0254l-.0135.8617a4.4512,4.4512,0,0,0,.0395.8034l.0914.7129c-.0074-.0446.0235.1562.0321.1724l.0272.0979.0567.2008.1174.4017a10.4963,10.4963,0,0,0,3.814,5.2111,22.1883,22.1883,0,0,0,5.53,3.04,40.342,40.342,0,0,0,6.013,1.8164A80.2937,80.2937,0,0,0,40.14,170.7544c.2446-1.3315.5409-2.6235.8643-3.88C39.5416,166.9134,38.0835,166.9345,36.6363,166.9147Z"/><path class="cls-6" d="M130.7613,136.5259a10.5367,10.5367,0,0,0,1.1285-6.3777,8.7423,8.7423,0,0,0-1.1112-3.0488,10.9241,10.9241,0,0,0-2.0212-2.3718,17.7026,17.7026,0,0,0-4.9721-2.9893,31.2248,31.2248,0,0,0-5.22-1.6428,59.7687,59.7687,0,0,0-10.1591-1.4135c-2.746-.15-5.371-.1748-7.9106-.1388-.036.2108-.0741.4216-.1124.6336,2.5545.0421,5.2042.1772,7.944.4662a58.39,58.39,0,0,1,9.8851,1.8076,29.9432,29.9432,0,0,1,4.8942,1.8227,15.798,15.798,0,0,1,4.3116,2.8925,8.9231,8.9231,0,0,1,1.5359,1.9887,6.6116,6.6116,0,0,1,.7125,2.3421,8.1883,8.1883,0,0,1-1.1766,4.8577,19.987,19.987,0,0,1-3.3683,4.31,5.1317,5.1317,0,0,1,1.9249,2.1313c.0284-.0323.0617-.06.09-.0917A22.249,22.249,0,0,0,130.7613,136.5259Z"/><path class="cls-7" d="M63.2331,123.7357a.2172.2172,0,0,0-.021.0273l2.094-.522Z"/><path class="cls-7" d="M65.3061,123.241s.7322-.16,2.104-.4575c-.0111-.0063-.021-.0112-.0321-.0162C66.0284,123.0774,65.3061,123.241,65.3061,123.241Z"/><path class="cls-7" d="M49.4242,170.5089c1.4964-.088,2.9953-.2144,4.4956-.3557-.542-1.359-1.0521-2.7327-1.5472-4.1139-1.0853.12-2.1717.2579-3.2546.3608q-3.68.3366-7.3254.4526c-.27,1.2683-.5125,2.5713-.7014,3.903Q45.2433,170.7686,49.4242,170.5089Z"/><path class="cls-7" d="M85.0071,119.89c-.0235-.0682-.0471-.134-.0717-.2033-.08.011-.1568.0211-.2371.031.0247.0682.0482.1314.0741.2C84.8514,119.9083,84.9281,119.8984,85.0071,119.89Z"/><path class="cls-7" d="M48.3327,128.1954c-.0073-.0607-.0123-.12-.0185-.181-1.32.44-2.69.9113-4.13,1.43.0086.0893.0147.18.0233.2691C45.6423,129.1562,47.0128,128.6567,48.3327,128.1954Z"/><path class="cls-6" d="M93.9771,161.0922c.0913-.0321.184-.0632.2754-.0966q-.228-2.2875-.49-4.368c-.06.021-.12.0446-.18.0657C93.7339,158.0881,93.8684,159.5562,93.9771,161.0922Z"/><path class="cls-7" d="M52.3726,166.0393c.4951,1.3812,1.0052,2.7549,1.5472,4.1139q2.1557-.2048,4.314-.4761c-.5174-1.3812-1.0322-2.7624-1.5174-4.1635C55.2668,165.7083,53.82,165.8781,52.3726,166.0393Z"/><polygon class="cls-7" points="70.313 163.152 70.32 163.142 70.313 163.143 70.313 163.152"/><path class="cls-7" d="M70.3129,163.143c-1.08.2319-2.1595.4662-3.2412.6757.7273.398,1.4483.8109,2.1818,1.194a5.7836,5.7836,0,0,1,1.0594-1.861Z"/><path class="cls-7" d="M67.41,122.7835c.0642-.0149.1222-.0273.19-.0422-.0111-.0049-.0222-.0112-.0333-.0174-.0667.0161-.1247.03-.1889.0434C67.3891,122.7723,67.399,122.7772,67.41,122.7835Z"/><path class="cls-6" d="M105.5821,151.94c.7977,1.0154,1.5853,2.0742,2.3385,3.1839.279-.14.5617-.2752.84-.4167-.8038-1.086-1.6384-2.1139-2.48-3.097C106.0451,151.7179,105.8166,151.8332,105.5821,151.94Z"/><path class="cls-7" d="M70.3129,174.1665V170.623a5.6851,5.6851,0,0,1-.3878-.4984c-1.7865,2.0581-3.625,4.0481-5.5437,5.9078-.8249.8109-1.6706,1.5883-2.525,2.3472q.576,1.2292,1.178,2.4375A74.7747,74.7747,0,0,0,70.3129,174.1665Z"/><path class="cls-7" d="M64.9221,121.6007c-.05-.0236-.1-.0471-.1506-.0694q-.9074,1.1622-1.7224,2.2478c.0643-.0149.121-.0286.184-.0434Q64.0295,122.698,64.9221,121.6007Z"/><path class="cls-7" d="M70.3129,170.623v3.5435q.98-1.0118,1.931-2.0569A5.757,5.757,0,0,1,70.3129,170.623Z"/><path class="cls-6" d="M97.8344,119.1643q-.6281,2.6707-1.4978,5.3326a96.4322,96.4322,0,0,1-3.567,9.382c-.5433,1.2262-1.12,2.4487-1.6989,3.67.8247.6361,1.6877,1.318,2.5718,2.0322.6828-1.4892,1.3384-2.988,1.9472-4.5032a79.3009,79.3009,0,0,0,4.7931-15.901Q99.09,119.1545,97.8344,119.1643Z"/><path class="cls-7" d="M46.1869,153.0531c.342-.8505.6876-1.6577,1.0322-2.45-.0544-.0435-.105-.0906-.1581-.1351-.3717.8008-.7471,1.618-1.1249,2.4747a95.516,95.516,0,0,0-4.8166,13.47c-.0394.1525-.0765.31-.1148.4624q.3928-.0093.7879-.0222c.0184-.0881.0345-.1786.0531-.2654A82.0125,82.0125,0,0,1,46.1869,153.0531Z"/><path class="cls-6" d="M90.5137,138.7316c.047.2021.0741.3174.0741.3174s.2309,1.018.6656,2.9273c.1086.5195.2345,1.1109.3692,1.7606.6667-1.3142,1.3236-2.6322,1.9372-3.965-.8729-.739-1.7274-1.4431-2.55-2.0941C90.8435,138.0286,90.6829,138.3808,90.5137,138.7316Z"/><path class="cls-7" d="M67.76,118.242c.8013-.9089,1.6606-1.845,2.5534-2.791v-.5492c-.9705,1.0724-1.9027,2.1338-2.7584,3.1665-.9605,1.1556-1.8385,2.2553-2.678,3.3277.0506.0249.1013.0484.1518.0733C65.8791,120.4228,66.7717,119.3529,67.76,118.242Z"/><path class="cls-7" d="M56.9522,182.2738a21.7343,21.7343,0,0,1-8.2392,3.7853,6.6148,6.6148,0,0,1-4.0165-.4277l-.3939-.1885-.4679-.3336a7.0481,7.0481,0,0,1-.7285-.6309,7.443,7.443,0,0,1-1.1248-1.6875,17.6226,17.6226,0,0,1-1.252-8.2128c.0531-1.2969.1852-2.5714.3618-3.8224-.3161-.0013-.6347.0024-.9508-.0013-.2234,1.2189-.4086,2.4661-.5161,3.7493a25.0988,25.0988,0,0,0-.0493,4.3991,14.218,14.218,0,0,0,1.047,4.5266,8.8941,8.8941,0,0,0,1.29,2.1177,8.1839,8.1839,0,0,0,.9506.9038l.4482.3484c.273.1811.4051.2344.6161.3583a8.4184,8.4184,0,0,0,5.0414.81,23.677,23.677,0,0,0,9.2665-3.7183c.59-.3731,1.1692-.7662,1.7458-1.1642-.3964-.7191-.7877-1.4419-1.1668-2.1734C58.2,181.3812,57.5807,181.8375,56.9522,182.2738Z"/><path class="cls-6" d="M83.1723,152.0067c-2,3.2708-4.1449,6.4274-6.3859,9.4873.0741.03.1407.0743.2135.1066,1.5249-.3719,3.0473-.7514,4.5623-1.1654,1.53-2.1759,3.0188-4.3842,4.43-6.6307q2.9964-4.9078,5.5955-9.9956c-.1332-.6746-.2568-1.2883-.363-1.8264-.4173-1.9143-.6371-2.9335-.6371-2.9335s-.0271-.114-.0765-.3136A138.5588,138.5588,0,0,1,83.1723,152.0067Z"/><path class="cls-6" d="M84.5835,103.82a17.3861,17.3861,0,0,1,7.8946-2.5,7.2706,7.2706,0,0,1,2.0027.27,5.3776,5.3776,0,0,1,1.7484.9312,6.715,6.715,0,0,1,2.1508,3.4245,22.0815,22.0815,0,0,1,.2594,9.0992c-.1767,1.1828-.4137,2.3681-.6791,3.5546.8309-.0285,1.6779-.0446,2.5349-.057.1777-1.0712.337-2.1437.4493-3.2187a23.9388,23.9388,0,0,0-.768-9.9807,8.4288,8.4288,0,0,0-2.9546-4.1894,6.963,6.963,0,0,0-2.3175-1.0974,8.7308,8.7308,0,0,0-2.4584-.2281,14.015,14.015,0,0,0-4.5029,1.0564,24.5691,24.5691,0,0,0-3.9065,1.9776,42.4562,42.4562,0,0,0-4.73,3.3748c.1284.2579.2494.5133.3742.7712A41.4861,41.4861,0,0,1,84.5835,103.82Z"/><path class="cls-7" d="M50.7577,143.0587c-.0272.0509-.0568.1091-.084.1612.0086.0458.02.0918.03.1376.0433-.083.09-.1773.1334-.2591,1.4112-2.7016,2.625-4.7685,3.4473-6.1781.8383-1.4036,1.2878-2.1487,1.2878-2.1487s-.4581.74-1.3113,2.1349C53.4271,138.3114,52.1985,140.3657,50.7577,143.0587Z"/><path class="cls-7" d="M56.899,132.6477c-.8667,1.3861-1.3272,2.1239-1.3272,2.1239s.4679-.7353,1.3458-2.11c.8976-1.3614,2.2114-3.365,4-5.8323.6878-.9484,1.4656-1.9887,2.2941-3.0661-.0629.0148-.12.03-.1852.0458-.7828,1.044-1.5237,2.0495-2.1792,2.9707C59.08,129.2605,57.788,131.2789,56.899,132.6477Z"/><path class="cls-6" d="M70.3129,114.9018v.5492a74.94,74.94,0,0,1,7.6205-7.0981c.4013-.32.815-.6373,1.23-.9535-.1284-.2443-.2544-.4873-.3852-.7314-.4457.3706-.8853.7413-1.3138,1.1146A94.1609,94.1609,0,0,0,70.3129,114.9018Z"/><path class="cls-7" d="M90.5878,139.049s.22,1.0192.6371,2.9335c.1062.5381.23,1.1518.363,1.8264.0112-.0236.0223-.0484.0347-.072-.1347-.65-.2606-1.2411-.3692-1.7606C90.8187,140.067,90.5878,139.049,90.5878,139.049Z"/><path class="cls-7" d="M79.1632,107.3994c.1716-.1314.3433-.2615.5174-.3905-.1248-.2579-.2458-.5133-.3742-.7712-.1766.1439-.3543.2865-.5284.43C78.9088,106.9121,79.0348,107.1551,79.1632,107.3994Z"/><path class="cls-7" d="M90.5878,139.049s-.0271-.1153-.0741-.3174l-.0024.0038C90.5607,138.935,90.5878,139.049,90.5878,139.049Z"/><path class="cls-7" d="M50.6737,143.22c-.6878,1.2894-1.4249,2.714-2.1965,4.2812.037.0285.0716.0583.1086.088.7371-1.55,1.4508-2.9533,2.1175-4.2316C50.6935,143.3117,50.6823,143.2657,50.6737,143.22Z"/><path class="cls-7" d="M61.8564,178.38c-.9952.8827-2.0051,1.7356-3.0423,2.5317.3791.7315.77,1.4543,1.1668,2.1734,1.04-.7178,2.0558-1.4767,3.0535-2.2676Q62.43,179.61,61.8564,178.38Z"/><path class="cls-7" d="M93.56,139.7719c.03-.0632.0543-.1277.0827-.1909-.8841-.7142-1.7471-1.3961-2.5718-2.0322-.021.0435-.04.0856-.0606.129C91.8324,138.3288,92.6869,139.0329,93.56,139.7719Z"/><path class="cls-7" d="M47.4956,149.5443c-.1457.3062-.2889.6088-.4346.9238.0531.0445.1037.0916.1581.1351.116-.2641.23-.5257.3444-.7836C47.5412,149.7279,47.5178,149.6361,47.4956,149.5443Z"/><path class="cls-7" d="M65.0283,121.4693c-.05-.0249-.1012-.0484-.1518-.0733-.0347.0447-.0692.0894-.105.1353.0506.0223.1.0458.1506.0694C64.9568,121.556,64.9926,121.5126,65.0283,121.4693Z"/><path class="cls-7" d="M47.4956,149.5443c.0222.0918.0456.1836.0679.2753.3432-.7675.6852-1.52,1.0223-2.2305-.037-.03-.0716-.06-.1086-.088C48.1562,148.1532,47.8264,148.8451,47.4956,149.5443Z"/><path class="cls-7" d="M63.2121,123.763a.2172.2172,0,0,1,.021-.0273c-.063.0148-.12.0285-.184.0434l-.0222.03C63.0923,123.7927,63.1492,123.7778,63.2121,123.763Z"/><path class="cls-7" d="M97.8344,119.1643q1.2556-.0093,2.5484.0125c.0383-.212.0764-.4228.1124-.6336-.857.0124-1.704.0285-2.5349.057C97.9183,118.7887,97.8775,118.9772,97.8344,119.1643Z"/><path class="cls-7" d="M41.7926,166.8527q-.3945.0129-.7879.0222c-.3234,1.256-.62,2.548-.8643,3.88.3161.0037.6347,0,.9508.0013C41.28,169.424,41.5221,168.121,41.7926,166.8527Z"/><path class="cls-6" d="M79.362,163.48c.7494-1.0029,1.4791-2.02,2.2-3.045-1.515.414-3.0374.7935-4.5623,1.1654A5.7791,5.7791,0,0,1,79.362,163.48Z"/><path class="cls-4" d="M79.5039,141.923"/><path class="cls-4" d="M77.2618,140.5183a9.3272,9.3272,0,0,0-3.0966-5.0425"/><path class="cls-4" d="M70.3129,153.4226v2.5454a12.127,12.127,0,0,0,0-24.2477v20.0484"/><path class="cls-4" d="M72.5229,153.1783"/><path class="cls-8" d="M70.2832,151.7773l.03-.0086V131.72a12.1254,12.1254,0,1,0,0,24.2477v-2.5454"/><path class="cls-8" d="M64.406,151.2182"/><path class="cls-8" d="M58.0869,92.1a6.253,6.253,0,0,0,4.535-4.2415,13.2276,13.2276,0,0,0-1.5286-.615,8.759,8.759,0,0,0-2.3706-.3942l-.5383.0247-.2692.0063-.3383.0619-.67.1277-.49.1736a8.0622,8.0622,0,0,0-3.772,2.9731c-.0865.1166-.163.2443-.2458.3647A6.2407,6.2407,0,0,0,58.0869,92.1Z"/><path class="cls-8" d="M55.7236,85.07l.379-.11.19-.052.0927-.0261a1.0833,1.0833,0,0,1,.1679-.03l.6815-.0918.3383-.0408.4124-.0075.8211.0012a10.8612,10.8612,0,0,1,2.9151.646c.4161.1549.8162.3335,1.2063.5232a6.3906,6.3906,0,0,0-.158-1.3378,6.269,6.269,0,1,0-12.2088,2.8541,6.4975,6.4975,0,0,0,.3124.92A10.3053,10.3053,0,0,1,55.7236,85.07Z"/><path class="cls-8" d="M52.6443,90.2163a8.0622,8.0622,0,0,1,3.772-2.9731l.49-.1736.67-.1277.3383-.0619.2692-.0063.5383-.0247a8.759,8.759,0,0,1,2.3706.3942,13.2276,13.2276,0,0,1,1.5286.615,6.2687,6.2687,0,0,0,.3062-1.9763c-.39-.19-.79-.3683-1.2063-.5232a10.8612,10.8612,0,0,0-2.9151-.646l-.8211-.0012-.4124.0075-.3383.0408-.6815.0918a1.0833,1.0833,0,0,0-.1679.03l-.0927.0261-.19.052-.379.11a10.3053,10.3053,0,0,0-4.85,3.2484,6.2513,6.2513,0,0,0,1.5248,2.2628C52.4813,90.4606,52.5578,90.3329,52.6443,90.2163Z"/><path class="cls-8" d="M29.8345,131.9459c-.3531-.5814-.6952-1.1741-1.0236-1.773a5.898,5.898,0,0,0-1.573,5.4939,5.983,5.983,0,0,0,.3358.99q2.0613-1.0842,4.0671-2.0382C31.0149,133.7424,30.4048,132.856,29.8345,131.9459Z"/><path class="cls-8" d="M34.2967,140.0769a5.8734,5.8734,0,0,0,1.3038-.49q-1.891-2.1481-3.5684-4.4325-2.013,1.04-4.07,2.2279A5.8459,5.8459,0,0,0,34.2967,140.0769Z"/><path class="cls-8" d="M38.69,132.9924a5.8755,5.8755,0,0,0-.2939-.8641q-1.9872.8739-4.0621,1.8758,1.5909,1.94,3.367,3.7791A5.88,5.88,0,0,0,38.69,132.9924Z"/><path class="cls-8" d="M31.6321,128.5773a5.8109,5.8109,0,0,0-.9532.3273c.3569.5927.7311,1.1791,1.12,1.7543.6741.9821,1.4076,1.938,2.1644,2.8827q2.1761-.98,4.2585-1.8251A5.8655,5.8655,0,0,0,31.6321,128.5773Z"/><path class="cls-8" d="M31.6408,134.6191q1.1742-.56,2.3225-1.0775c-.7568-.9447-1.49-1.9006-2.1644-2.8827-.3889-.5752-.7631-1.1616-1.12-1.7543a5.8334,5.8334,0,0,0-1.868,1.2683c.3284.5989.6705,1.1916,1.0236,1.773C30.4048,132.856,31.0149,133.7424,31.6408,134.6191Z"/><path class="cls-8" d="M37.7007,137.7832q-1.7706-1.8394-3.367-3.7791-1.1409.5523-2.3016,1.1506,1.6745,2.2856,3.5684,4.4325A5.8293,5.8293,0,0,0,37.7007,137.7832Z"/><path class="cls-8" d="M32.0321,135.1547c-.1308-.1786-.2629-.3558-.3913-.5356q-2.004.9558-4.0671,2.0382a5.8934,5.8934,0,0,0,.3889.7253Q30.0166,136.1907,32.0321,135.1547Z"/><path class="cls-8" d="M38.3958,132.1283c-.0555-.14-.1086-.2791-.174-.4118q-2.08.8463-4.2585,1.8251c.1234.1537.2456.31.37.4625Q36.4061,133,38.3958,132.1283Z"/><path class="cls-8" d="M33.9633,133.5416q-1.15.519-2.3225,1.0775c.1284.18.2605.357.3913.5356q1.1613-.597,2.3016-1.1506C34.2089,133.8516,34.0867,133.6953,33.9633,133.5416Z"/><path class="cls-4" d="M79.9954,166.627c.1544.0681.3111.1251.4655.1922a5.784,5.784,0,0,0-.1432-1.24c-.0173-.0744-.0519-.14-.0729-.2132-.6261.1673-1.252.3372-1.8817.5C78.9075,166.1162,79.45,166.3827,79.9954,166.627Z"/><path class="cls-8" d="M70.3129,167.6858c-.4236.0856-.847.1736-1.2706.2566.0161.0881.0124.1748.0334.2629a5.7465,5.7465,0,0,0,.8494,1.9193c.1284-.1475.2606-.2914.3878-.44Z"/><path class="cls-4" d="M73.3861,161.2485a5.7067,5.7067,0,0,0-2.2213,1.0762c.2865.1526.5766.2913.8643.4414.7778-.1761,1.557-.3273,2.3336-.5146.7618-.1723,1.5174-.3793,2.278-.5628.0482-.0645.0975-.129.1457-.1947A5.7269,5.7269,0,0,0,73.3861,161.2485Z"/><path class="cls-8" d="M70.3129,169.6844c.29-.34.5951-.66.8816-1.003.3814-.46.7481-.9373,1.126-1.4022-.6679.14-1.3384.2727-2.0076.4066Z"/><path class="cls-4" d="M75.7073,168.1073c-.7236.87-1.44,1.7495-2.188,2.5913-.42.4761-.8482.9435-1.2754,1.411a5.6916,5.6916,0,0,0,3.7609.429,5.7489,5.7489,0,0,0,3.6659-2.7364c-.29-.1152-.58-.2256-.8692-.3447C77.7618,169.036,76.7358,168.5662,75.7073,168.1073Z"/><path class="cls-4" d="M78.3631,165.8657c-.3408.0868-.6828.17-1.0248.2554-.5333.6745-1.0841,1.3279-1.631,1.9862,1.0285.4589,2.0545.9287,3.0942,1.35.2889.1191.579.23.8692.3447a5.7963,5.7963,0,0,0,.79-2.983c-.1544-.0671-.3111-.1241-.4655-.1922C79.45,166.3827,78.9075,166.1162,78.3631,165.8657Z"/><path class="cls-8" d="M70.32,163.1418c.5692-.1215,1.14-.248,1.7089-.3757-.2877-.15-.5778-.2888-.8643-.4414A5.79,5.79,0,0,0,70.32,163.1418Z"/><path class="cls-8" d="M70.3129,165.54v2.1461c.6692-.1339,1.34-.2666,2.0076-.4066.1432-.1774.2852-.3572.4284-.5344C71.934,166.3517,71.1215,165.9525,70.3129,165.54Z"/><path class="cls-4" d="M72.0291,162.7661c.9161.4761,1.8335.9485,2.7571,1.4035.6272-.8171,1.2421-1.6478,1.8545-2.4809-.7606.1835-1.5162.39-2.278.5628C73.5861,162.4388,72.8069,162.59,72.0291,162.7661Z"/><path class="cls-8" d="M70.3129,165.54c-.3519-.18-.7088-.3435-1.0594-.527a5.7667,5.7667,0,0,0-.2112,2.93c.4236-.083.847-.171,1.2706-.2566Z"/><path class="cls-4" d="M77.7532,165.5806c.2037.0942.4061.1909.61.2851.63-.1624,1.2556-.3323,1.8817-.5a5.78,5.78,0,0,0-.8828-1.8859C78.8335,164.1882,78.2964,164.8862,77.7532,165.5806Z"/><path class="cls-4" d="M78.3631,165.8657c-.2038-.0942-.4062-.1909-.61-.2851-.14.1785-.2741.3632-.4149.5405C77.68,166.0356,78.0223,165.9525,78.3631,165.8657Z"/><path class="cls-4" d="M74.7862,164.17c-.9236-.455-1.841-.9274-2.7571-1.4035-.5692.1277-1.14.2542-1.7089.3757l-.0073.01v2.388c.8086.4128,1.6211.812,2.436,1.2051C73.4341,165.8917,74.1183,165.04,74.7862,164.17Z"/><path class="cls-8" d="M69.2535,165.0127c.3506.1835.7075.3472,1.0594.527v-2.388A5.7836,5.7836,0,0,0,69.2535,165.0127Z"/><path class="cls-4" d="M77,161.6006c-.0728-.0323-.1394-.0768-.2135-.1066-.0482.0657-.0975.13-.1457.1947C76.7605,161.66,76.88,161.63,77,161.6006Z"/><path class="cls-8" d="M69.9251,170.1246a5.6851,5.6851,0,0,0,.3878.4984v-.9386C70.1857,169.8332,70.0535,169.9771,69.9251,170.1246Z"/><path class="cls-4" d="M75.7073,168.1073c-.7816-.3471-1.5644-.6893-2.3385-1.0563-.3495.0757-.699.1538-1.0483.2282-.3779.4649-.7446.9423-1.126,1.4022-.2865.3435-.5915.6633-.8816,1.003v.9386a5.757,5.757,0,0,0,1.931,1.4866c.4272-.4675.8557-.9349,1.2754-1.411C74.2676,169.8568,74.9837,168.9778,75.7073,168.1073Z"/><path class="cls-4" d="M73.3688,167.051c.7741.367,1.5569.7092,2.3385,1.0563.5469-.6583,1.0977-1.3117,1.631-1.9862-.6667.1687-1.3323.3385-2.0015.5009C74.6824,166.77,74.0256,166.9084,73.3688,167.051Z"/><path class="cls-8" d="M72.3205,167.2792c.3493-.0744.6988-.1525,1.0483-.2282-.2075-.0991-.4125-.2071-.62-.3062C72.6057,166.922,72.4637,167.1018,72.3205,167.2792Z"/><path class="cls-4" d="M77,161.6006c-.12.03-.2394.06-.3592.0881-.6124.8331-1.2273,1.6638-1.8545,2.4809.9853.486,1.9755.9484,2.967,1.411.5432-.6944,1.08-1.3924,1.6088-2.1A5.7791,5.7791,0,0,0,77,161.6006Z"/><path class="cls-4" d="M72.7489,166.7448c.2074.0991.4124.2071.62.3062.6568-.1426,1.3136-.2815,1.968-.429.6692-.1624,1.3348-.3322,2.0015-.5009.1408-.1773.2753-.362.4149-.5405-.9915-.4626-1.9817-.925-2.967-1.411C74.1183,165.04,73.4341,165.8917,72.7489,166.7448Z"/><path class="cls-4" d="M121.2776,139.0378a5.1564,5.1564,0,0,0-3.8349,6.1893c.027.12.08.2271.116.3423,1.0445-.672,2.0718-1.3588,3.0607-2.0817a42.8144,42.8144,0,0,0,4.5018-3.8237A5.0989,5.0989,0,0,0,121.2776,139.0378Z"/><path class="cls-4" d="M122.542,145.9984c-.9853.786-2.0027,1.535-3.0338,2.2664a5.0789,5.0789,0,0,0,4.0981.8134,5.1249,5.1249,0,0,0,3.44-7.2829A40.8881,40.8881,0,0,1,122.542,145.9984Z"/><path class="cls-4" d="M125.1212,139.664a42.8144,42.8144,0,0,1-4.5018,3.8237c-.9889.7229-2.0162,1.41-3.0607,2.0817a5.0984,5.0984,0,0,0,1.95,2.6954c1.0311-.7314,2.0485-1.48,3.0338-2.2664a40.8881,40.8881,0,0,0,4.5041-4.2031A5.1317,5.1317,0,0,0,125.1212,139.664Z"/></svg>