<svg id="Layer_1" data-name="Layer 1" xmlns="http://www.w3.org/2000/svg" width="100" height="100" viewBox="0 0 100 100"><title>physics</title><circle cx="50" cy="50" r="50" style="fill:#efc84a"/><path d="M512,50.4a50,50,0,0,1-42.66,49.06L444.9,75a1,1,0,0,1-.55-1.37l4.17-9.81L435.24,50.59,433.35,43l2.92-.72.15.62,10.25-2.53-.62-2.5,2.91-.73,10.24-2.52L458.82,33l3.15-.78,18.93-4.68-.3-1.22,5.85-1.45Z" transform="translate(-412 0)" style="opacity:0.10000000149011612;isolation:isolate"/><path d="M468.36,75.13a1,1,0,0,1-.95-.64L456.83,49.61,446.26,74.49a1,1,0,1,1-1.91-.81l11.53-27.14a1,1,0,0,1,1.91,0l11.53,27.14a1,1,0,0,1-.55,1.36A1,1,0,0,1,468.36,75.13Z" transform="translate(-412 0)" style="fill:#3a556a"/><path d="M456.83,73.37a1,1,0,0,1-1-1V47a1,1,0,0,1,2.09,0V72.33A1,1,0,0,1,456.83,73.37Z" transform="translate(-412 0)" style="fill:#3a556a"/><rect x="482.62" y="25.34" width="6.02" height="17.5" transform="translate(-406.01 117.45) rotate(-13.88)" style="fill:#3a556a"/><rect x="463.49" y="29.66" width="19.5" height="14.98" transform="translate(-407.1 114.57) rotate(-13.88)" style="fill:#ebf0f3"/><rect x="460.57" y="32.39" width="3.25" height="14.98" transform="translate(-408.08 112) rotate(-13.88)" style="fill:#e56353"/><rect x="450.22" y="35.66" width="10.55" height="11.75" transform="translate(-408.67 110.44) rotate(-13.88)" style="fill:#ebf0f3"/><rect x="447.41" y="37.29" width="3" height="11.75" transform="translate(-409.25 108.91) rotate(-13.88)" style="fill:#e56353"/><rect x="437.06" y="41.49" width="10.55" height="6.58" transform="translate(-409.83 107.38) rotate(-13.88)" style="fill:#ebf0f3"/><rect x="434.26" y="42.47" width="3" height="7.88" transform="translate(-410.41 105.85) rotate(-13.88)" style="fill:#64798a"/><circle cx="44.83" cy="46.95" r="3.71" style="fill:#64798a"/><circle cx="44.83" cy="46.95" r="2.04" style="fill:#2f4859"/></svg>