<svg xmlns="http://www.w3.org/2000/svg" width="166.28" height="350.93" viewBox="0 0 166.28 350.93"><title>Rocket (2)</title><g style="isolation:isolate"><g id="Layer_2" data-name="Layer 2"><g id="Layer_1-2" data-name="Layer 1"><g id="Rocket"><path d="M111,258,83.5,245.26l-28,12.7s-21.76,24.56-.11,64.85c0,0,1.1-11,3.33-17.32,0,0,7.36,33.21,24.83,45.44,16.59-12.23,24.38-45.44,24.38-45.44,2.23,6.31,2.89,17.32,2.89,17.32C132.42,282.52,111,258,111,258ZM101,297.12s-.36-7.11-1.81-11.19c0,0-5.22,21.46-15.7,29.36-11.35-7.9-16.1-29.36-16.1-29.36a63.91,63.91,0,0,0-2.2,11.19c-14-26,.1-41.9.1-41.9L83.5,247l17.67,8.2S115,271.09,101,297.12Z" style="fill:#4e9ad4"/><path d="M100.61,297.12s-.37-7.11-1.82-11.19c0,0-5.22,21.46-15.7,29.36C71.74,307.39,67,285.93,67,285.93a63.91,63.91,0,0,0-2.2,11.19c-14-26,.1-41.9.1-41.9L83.09,247l17.68,8.2S114.6,271.09,100.61,297.12Z" style="fill:#ffd66d"/><path d="M83.09,247l-18.2,8.21s-14.1,15.87-.1,41.9A63.91,63.91,0,0,1,67,285.93s4.75,21.46,16.1,29.36c10.48-7.9,15.7-29.36,15.7-29.36,1.45,4.08,1.82,11.19,1.82,11.19,14-26,.16-41.91.16-41.91Z" style="fill:#5ec9e2"/><rect x="56.37" y="248.53" width="53.5" height="12.06" style="fill:#818181"/><path d="M38.57,195.09s-16.35.77-22.35-11.22c0,0-32.55,53.4-5.43,114.23,0,0,10.57-53.41,40-67.11Z" style="fill:#4555a5"/><path d="M127.71,195.09s16.35.77,22.35-11.22c0,0,32.55,53.4,5.42,114.23,0,0-10.56-53.41-40-67.11Z" style="fill:#004669"/><path d="M109.91,248.53c13-26,21.55-53.36,21.55-103.68C131.46,64.85,83.14,0,83.14,0S34.81,64.85,34.81,144.85c0,50.32,8.57,77.72,21.56,103.68Z" style="fill:#4e9ad4"/><path d="M50.59,236.11c1.8,4.23,3.73,8.35,5.78,12.42h53.54c2-4.07,4-8.19,5.78-12.42Z" style="fill:#4555a5"/><path d="M115,60.75C101,24,83.14,0,83.14,0S65.29,24,51.29,60.75Z" style="fill:#373f44"/><path d="M77.76,241a309.25,309.25,0,0,0,5.38,57.12A309.8,309.8,0,0,0,88.51,241c0-31.54-2.4-57.11-5.37-57.11S77.76,209.44,77.76,241Z" style="fill:#4555a5"/><path d="M105.92,109.77A22.78,22.78,0,1,1,83.14,87,22.78,22.78,0,0,1,105.92,109.77Z" style="fill:#4555a5"/><path d="M100,109.77A16.81,16.81,0,1,1,83.14,93,16.82,16.82,0,0,1,100,109.77Z" style="fill:#02546f"/><g style="mix-blend-mode:multiply"><path d="M87.86,260.59h22V248.53H88.41C88.3,252.71,88.11,256.75,87.86,260.59Z" style="fill:#818181"/><path d="M150.06,183.87c-6,12-22.35,11.22-22.35,11.22v0A180.38,180.38,0,0,1,117.4,232c28,15.06,38.08,66.13,38.08,66.13C182.61,237.27,150.06,183.87,150.06,183.87Z" style="fill:#4555a5"/><path d="M83.6.63l.24.34Z" style="fill:#fcfdf3"/><path d="M83.21.1l.11.14Z" style="fill:#fcfdf3"/><path d="M131.46,144.85c0-70.95-38-129.95-46.58-142.39A285.71,285.71,0,0,1,115,60.75H83.14V87a22.78,22.78,0,0,1,0,45.56v51.32c2.81,0,5.12,23,5.35,52.24h27.2q.87-2.06,1.71-4.14a180.38,180.38,0,0,0,10.3-36.86C130.12,181.05,131.46,164.75,131.46,144.85Z" style="fill:#fcfdf3"/><path d="M112.76,242.63q-1.38,3-2.85,5.9Q111.38,245.61,112.76,242.63Z" style="fill:#fcfdf3"/><path d="M84,1.25l.84,1.2C84.55,2,84.27,1.59,84,1.25Z" style="fill:#fcfdf3"/><path d="M115.68,236.12c-.86,2-1.76,4-2.69,6C113.92,240.16,114.82,238.16,115.68,236.12Z" style="fill:#fcfdf3"/><path d="M84.88,2.46h0L84,1.25,83.84,1,83.6.63,83.32.24,83.21.1,83.14,0V60.75H115A285.71,285.71,0,0,0,84.88,2.46Z" style="fill:#373f44"/><path d="M83.14,183.87V298.1a297.06,297.06,0,0,0,4.72-37.51c.25-3.84.44-7.88.55-12.06h21.5q1.47-2.92,2.85-5.9c.08-.16.16-.32.23-.48.93-2,1.83-4,2.69-6H88.49C88.26,206.85,86,183.87,83.14,183.87Z" style="fill:#4555a5"/><path d="M105.92,109.77A22.78,22.78,0,0,0,83.14,87v6a16.81,16.81,0,0,1,0,33.62v6A22.78,22.78,0,0,0,105.92,109.77Z" style="fill:#4555a5"/><path d="M100,109.77A16.82,16.82,0,0,0,83.14,93v33.62A16.82,16.82,0,0,0,100,109.77Z" style="fill:#02546f"/></g><g id="Paperly"><g id="Paperly_logo"><g id="part3"><path d="M92.83,149.08a.75.75,0,0,0-.38-.63l-.4-.18h0l-.4-.19-13-6.19c-.22-.1-.27,0-.11.15l6,6.89a2.54,2.54,0,0,0,.69.53l4,1.92.4.19.39.19,1.71.81.76.37c.2.09.37,0,.37-.27Z" style="fill:#fff"/></g><g id="part2"><path d="M78.75,142.57c-.18-.21-.33-.15-.33.12v28.5c0,.28.14.33.32.12L82.36,167a1.58,1.58,0,0,0,.32-.89V147.61a1.59,1.59,0,0,0-.33-.89Z" style="fill:#fff"/></g><g id="part1"><path d="M93.13,148.42c0-.28-.2-.4-.45-.27L74,157.92a.27.27,0,0,0,0,.51l3.36,2.14a1,1,0,0,0,.87,0L92.68,153a.91.91,0,0,0,.45-.74Z" style="fill:#31c5f4"/></g></g></g></g></g></g></g></svg>