<svg xmlns="http://www.w3.org/2000/svg" width="161" height="161" viewBox="0 0 161 161"><defs><style>.a{fill:#e58257;}</style></defs><title>S</title><path class="a" d="M174.5,126A80.5,80.5,0,1,0,255,206.5,80.5,80.5,0,0,0,174.5,126Zm0,146A65.5,65.5,0,1,1,240,206.5,65.51,65.51,0,0,1,174.5,272Z" transform="translate(-94 -126)"/><path class="a" d="M160.07,223.77a22.21,22.21,0,0,0,11.24,3.17c6.41,0,10.15-3.38,10.15-8.28,0-4.54-2.59-7.13-9.14-9.65-7.93-2.81-12.82-6.91-12.82-13.75,0-7.56,6.26-13.18,15.7-13.18a22,22,0,0,1,10.72,2.38l-1.72,5.11a19.29,19.29,0,0,0-9.22-2.31c-6.63,0-9.15,4-9.15,7.28,0,4.53,3,6.77,9.65,9.36,8.21,3.17,12.39,7.13,12.39,14.26,0,7.48-5.55,14-17,14-4.69,0-9.8-1.37-12.39-3.1Z" transform="translate(-94 -126)"/></svg>