<svg id="Layer_1" data-name="Layer 1" xmlns="http://www.w3.org/2000/svg" width="183.88" height="210.86" viewBox="0 0 183.88 210.86"><defs><style>.cls-1{fill:none;}.cls-2{fill:#f3f3f3;}.cls-3{fill:#ccc;}.cls-4{fill:#010101;}.cls-5{fill:#646f84;}.cls-10,.cls-11,.cls-12,.cls-13,.cls-14,.cls-15,.cls-5,.cls-6,.cls-7,.cls-8,.cls-9{fill-rule:evenodd;}.cls-6{fill:#fff;}.cls-7{fill:#8892a2;}.cls-8{fill:#08aac4;}.cls-9{fill:#3bc1da;}.cls-10{fill:#1594ac;}.cls-11{fill:#d8e0e3;}.cls-12{fill:#6d6e71;}.cls-13{fill:#2b3990;}.cls-14{fill:#99a2b2;}.cls-15{fill:#d6dde2;}</style></defs><title>scifortech</title><rect class="cls-1" width="183.88" height="210.86"/><rect class="cls-2" x="75.72" y="46.88" width="99.6" height="136.41" rx="4"/><rect class="cls-3" x="86.24" y="141.76" width="69.03" height="4.01" rx="1.88"/><rect class="cls-3" x="85.59" y="100.91" width="69.03" height="4.01" rx="1.88"/><path class="cls-4" d="M98.79,67.56A4.3,4.3,0,0,1,97,66.62a1.87,1.87,0,0,1-.55-1.38,2,2,0,0,1,.67-1.53,2.52,2.52,0,0,1,1.74-.6,2.66,2.66,0,0,1,1.3.31,2.23,2.23,0,0,1,.89.86,2.39,2.39,0,0,1,.31,1.2h-.94a1.53,1.53,0,0,0-.41-1.12,1.85,1.85,0,0,0-2.23-.07,1.17,1.17,0,0,0-.39.94,1.08,1.08,0,0,0,.37.81,3.45,3.45,0,0,0,1.25.6,5.68,5.68,0,0,1,1.38.61,2,2,0,0,1,1,1.81,1.9,1.9,0,0,1-.67,1.53,2.65,2.65,0,0,1-1.79.57,3,3,0,0,1-1.36-.31,2.27,2.27,0,0,1-1-.85,2.18,2.18,0,0,1-.34-1.22h.94a1.38,1.38,0,0,0,.47,1.12,1.85,1.85,0,0,0,1.27.42,1.66,1.66,0,0,0,1.13-.34,1.27,1.27,0,0,0,0-1.8A3.86,3.86,0,0,0,98.79,67.56Z"/><path class="cls-4" d="M107.82,68.57a3,3,0,0,1-.83,1.92,2.53,2.53,0,0,1-1.85.67,2.42,2.42,0,0,1-2-1,4.36,4.36,0,0,1-.75-2.67v-.75a4.85,4.85,0,0,1,.35-1.93,2.92,2.92,0,0,1,1-1.27,2.55,2.55,0,0,1,1.5-.44,2.44,2.44,0,0,1,1.81.69,3.07,3.07,0,0,1,.79,1.93h-.94a2.32,2.32,0,0,0-.53-1.36,1.5,1.5,0,0,0-1.13-.42,1.64,1.64,0,0,0-1.41.73,3.73,3.73,0,0,0-.5,2.09v.76a3.74,3.74,0,0,0,.48,2,1.53,1.53,0,0,0,1.35.76,1.69,1.69,0,0,0,1.19-.39,2.27,2.27,0,0,0,.55-1.36Z"/><path class="cls-4" d="M110.1,71.05h-.94V63.21h.94Z"/><path class="cls-4" d="M115.81,67.43h-3.07v2.78h3.56v.84h-4.5V63.21h4.46v.85h-3.52v2.52h3.07Z"/><path class="cls-4" d="M122.91,71.05H122l-3.56-6v6h-.94V63.21h.94L122,69.28V63.21h.93Z"/><path class="cls-4" d="M129.78,68.57a3,3,0,0,1-.83,1.92,2.54,2.54,0,0,1-1.86.67,2.42,2.42,0,0,1-2-1,4.36,4.36,0,0,1-.75-2.67v-.75a4.85,4.85,0,0,1,.35-1.93,2.85,2.85,0,0,1,1-1.27,2.55,2.55,0,0,1,1.5-.44,2.44,2.44,0,0,1,1.81.69,3.07,3.07,0,0,1,.79,1.93h-.94a2.38,2.38,0,0,0-.53-1.36,1.5,1.5,0,0,0-1.13-.42,1.64,1.64,0,0,0-1.41.73,3.65,3.65,0,0,0-.5,2.09v.76a3.74,3.74,0,0,0,.48,2,1.52,1.52,0,0,0,1.34.76,1.7,1.7,0,0,0,1.2-.39,2.27,2.27,0,0,0,.55-1.36Z"/><path class="cls-4" d="M135.06,67.43H132v2.78h3.56v.84h-4.5V63.21h4.46v.85H132v2.52h3.07Z"/><path class="cls-4" d="M143.09,67.59h-3v3.46h-.94V63.21h4.39v.85h-3.45v2.69h3Z"/><path class="cls-4" d="M150.14,67.39a5.35,5.35,0,0,1-.35,2,2.91,2.91,0,0,1-1,1.31,2.71,2.71,0,0,1-3,0,3,3,0,0,1-1-1.3,5.1,5.1,0,0,1-.37-2v-.57a5.21,5.21,0,0,1,.36-2,2.89,2.89,0,0,1,1-1.32,2.51,2.51,0,0,1,1.49-.46,2.56,2.56,0,0,1,1.5.45,2.84,2.84,0,0,1,1,1.32,5.42,5.42,0,0,1,.35,2Zm-.93-.51a3.78,3.78,0,0,0-.51-2.14,1.7,1.7,0,0,0-2.81,0,3.81,3.81,0,0,0-.52,2.07v.58a3.8,3.8,0,0,0,.51,2.12,1.62,1.62,0,0,0,1.42.77,1.59,1.59,0,0,0,1.4-.73,3.76,3.76,0,0,0,.51-2.09Z"/><path class="cls-4" d="M154.14,67.88h-1.67v3.17h-.93V63.21h2.34a2.6,2.6,0,0,1,1.84.61,2.58,2.58,0,0,1,.29,3,2.18,2.18,0,0,1-1,.81L156.68,71v.06h-1ZM152.47,67h1.44a1.57,1.57,0,0,0,1.11-.4,1.44,1.44,0,0,0,.41-1.07,1.51,1.51,0,0,0-.39-1.12,1.56,1.56,0,0,0-1.14-.39h-1.43Z"/><path class="cls-4" d="M100.18,77.29H97.9v7H97v-7H94.7v-.84h5.48Z"/><path class="cls-4" d="M105.23,80.66h-3.07v2.78h3.57v.85h-4.5V76.45h4.45v.84h-3.52v2.53h3.07Z"/><path class="cls-4" d="M112.1,81.8a3,3,0,0,1-.83,1.92,2.56,2.56,0,0,1-1.86.68,2.43,2.43,0,0,1-2-1,4.34,4.34,0,0,1-.75-2.67V80a4.77,4.77,0,0,1,.35-1.92,2.82,2.82,0,0,1,1-1.28,2.62,2.62,0,0,1,1.5-.44,2.41,2.41,0,0,1,1.81.7A3.1,3.1,0,0,1,112.1,79h-.94a2.35,2.35,0,0,0-.53-1.36,1.5,1.5,0,0,0-1.13-.42,1.62,1.62,0,0,0-1.41.73,3.61,3.61,0,0,0-.5,2.08v.76a3.78,3.78,0,0,0,.48,2,1.51,1.51,0,0,0,1.34.75,1.7,1.7,0,0,0,1.2-.39,2.24,2.24,0,0,0,.55-1.36Z"/><path class="cls-4" d="M118.82,84.29h-.94V80.66h-3.57v3.63h-.94V76.45h.94v3.37h3.57V76.45h.94Z"/><path class="cls-4" d="M125.92,84.29H125l-3.56-6v6h-.94V76.45h.94L125,82.52V76.45h.93Z"/><path class="cls-4" d="M133,80.62a5.35,5.35,0,0,1-.35,2,3,3,0,0,1-1,1.31,2.66,2.66,0,0,1-3,0,3,3,0,0,1-1-1.3,5.1,5.1,0,0,1-.37-2v-.56a5.17,5.17,0,0,1,.36-2,2.92,2.92,0,0,1,1-1.33,2.48,2.48,0,0,1,1.49-.46,2.58,2.58,0,0,1,1.5.45,3,3,0,0,1,1,1.32,5.44,5.44,0,0,1,.35,2Zm-.93-.51a3.78,3.78,0,0,0-.51-2.14,1.7,1.7,0,0,0-2.81,0,3.72,3.72,0,0,0-.52,2.07v.58a3.86,3.86,0,0,0,.51,2.13,1.64,1.64,0,0,0,1.42.77,1.61,1.61,0,0,0,1.4-.73,3.81,3.81,0,0,0,.51-2.09Z"/><path class="cls-4" d="M135.37,83.44h3.35v.85h-4.29V76.45h.94Z"/><path class="cls-4" d="M144.92,80.62a5.35,5.35,0,0,1-.35,2,2.84,2.84,0,0,1-1,1.31,2.56,2.56,0,0,1-1.5.46,2.52,2.52,0,0,1-1.48-.46,3,3,0,0,1-1-1.3,4.92,4.92,0,0,1-.36-2v-.56a5.18,5.18,0,0,1,.35-2,2.94,2.94,0,0,1,1-1.33,2.45,2.45,0,0,1,1.48-.46,2.56,2.56,0,0,1,1.5.45,2.88,2.88,0,0,1,1,1.32,5.44,5.44,0,0,1,.35,2Zm-.93-.51a3.87,3.87,0,0,0-.5-2.14,1.63,1.63,0,0,0-1.42-.74,1.61,1.61,0,0,0-1.39.74,3.72,3.72,0,0,0-.53,2.07v.58a3.85,3.85,0,0,0,.52,2.13,1.69,1.69,0,0,0,2.81,0A3.81,3.81,0,0,0,144,80.7Z"/><path class="cls-4" d="M151.55,83.26a2.19,2.19,0,0,1-1,.85,3.68,3.68,0,0,1-1.5.29,2.7,2.7,0,0,1-1.54-.45,3,3,0,0,1-1-1.28,5,5,0,0,1-.38-1.93v-.68a4.43,4.43,0,0,1,.75-2.75,2.49,2.49,0,0,1,2.1-1,2.54,2.54,0,0,1,1.79.63,2.83,2.83,0,0,1,.82,1.78h-.93c-.18-1-.73-1.56-1.67-1.56a1.6,1.6,0,0,0-1.43.73A3.91,3.91,0,0,0,147,80v.64a3.63,3.63,0,0,0,.55,2.1,1.7,1.7,0,0,0,1.47.78,2.84,2.84,0,0,0,.92-.13,1.46,1.46,0,0,0,.65-.43V81.23H149v-.85h2.57Z"/><path class="cls-4" d="M155.27,80.38l1.85-3.93h1.06l-2.44,4.91v2.93h-.94V81.36l-2.44-4.91h1.07Z"/><rect class="cls-3" x="84.97" y="121.71" width="69.03" height="4.01" rx="1.88"/><polygon class="cls-5" points="50.09 90.33 43.02 95.47 58.47 99.24 78.89 84.9 50.09 90.33 50.09 90.33"/><polygon class="cls-6" points="52.9 151.58 51.4 152.61 78.11 195.07 79.61 194.04 52.9 151.58 52.9 151.58"/><polygon class="cls-7" points="62.07 163.93 58.61 166.3 61.47 170.84 64.93 168.48 62.07 163.93 62.07 163.93"/><polygon class="cls-8" points="64.93 168.48 61.47 170.84 72.67 188.65 76.13 186.28 64.93 168.48 64.93 168.48"/><polygon class="cls-9" points="60.98 162.19 57.51 164.56 58.61 166.3 62.07 163.93 60.98 162.19 60.98 162.19"/><polygon class="cls-10" points="61.47 170.85 72.67 188.65 73.49 188.09 62.29 170.29 61.47 170.85 61.47 170.85"/><polygon class="cls-10" points="57.52 164.56 58.61 166.3 59.43 165.74 58.34 164 57.52 164.56 57.52 164.56"/><path class="cls-7" d="M77.08,202.73a7.88,7.88,0,0,1-4.8-9.84,7.42,7.42,0,0,1,9.43-5,7.89,7.89,0,0,1,4.81,9.83,7.44,7.44,0,0,1-9.44,5Z"/><path class="cls-7" d="M100.35,151.18c-1.86,12.49-11.48,9.78-14.84,5-1.8-2.53-10.33-2.45-12.39-.51-5.46,5.15-13,5.81-16.83-1.46-4.18-7.88,12.58-14.21,17.5-17.65l28.95-20.23h11.31c1,24.11-13,29.87-13.7,34.82Z"/><path class="cls-5" d="M79.52,86.2c-17.84,0-32.31,15.08-32.31,33.68s14.47,33.68,32.31,33.68,32.31-15.08,32.31-33.68S97.36,86.2,79.52,86.2Z"/><path class="cls-11" d="M79.52,94.72c-13.33,0-24.14,11.26-24.14,25.16S66.19,145,79.52,145s24.14-11.27,24.14-25.16S92.85,94.72,79.52,94.72Z"/><path class="cls-9" d="M79.52,101.29c-9.85,0-17.83,8.33-17.83,18.59s8,18.59,17.83,18.59,17.83-8.33,17.83-18.59-8-18.59-17.83-18.59Z"/><path class="cls-6" d="M94.05,148.36a5,5,0,0,0-6.29,3.33,5.25,5.25,0,0,0,3.2,6.56,5,5,0,0,0,6.29-3.34,5.25,5.25,0,0,0-3.2-6.55Z"/><path class="cls-6" d="M77.85,200.25a5.24,5.24,0,0,1-3.2-6.55,5,5,0,0,1,6.29-3.34,5.26,5.26,0,0,1,3.2,6.56,5,5,0,0,1-6.29,3.33Z"/><polygon class="cls-6" points="93.19 153.54 91.82 153.07 78.71 195.08 80.08 195.54 93.19 153.54 93.19 153.54"/><path class="cls-5" d="M93,151.65a1.66,1.66,0,0,0-2.11,1.11A1.77,1.77,0,0,0,92,155a1.66,1.66,0,0,0,2.11-1.12A1.76,1.76,0,0,0,93,151.65Z"/><path class="cls-5" d="M78.61,197.81A2.66,2.66,0,0,1,77,194.49a2.51,2.51,0,0,1,3.19-1.69,2.66,2.66,0,0,1,1.62,3.32,2.51,2.51,0,0,1-3.19,1.69Z"/><polygon class="cls-7" points="91.44 166.36 86 164.51 84.51 169.29 89.95 171.13 91.44 166.36 91.44 166.36"/><polygon class="cls-9" points="89.95 171.13 84.51 169.29 78.67 187.98 84.12 189.83 89.95 171.13 89.95 171.13"/><polygon class="cls-9" points="92.01 164.53 86.57 162.69 86 164.51 91.44 166.36 92.01 164.53 92.01 164.53"/><polygon class="cls-10" points="83.01 189.45 84.12 189.83 89.92 171.24 88.81 170.86 83.01 189.45 83.01 189.45"/><polygon class="cls-10" points="90.33 165.98 91.44 166.36 91.98 164.64 90.87 164.26 90.33 165.98 90.33 165.98"/><path class="cls-6" d="M63.47,151.64a3.44,3.44,0,0,0-2.77,4,3.34,3.34,0,0,0,3.79,2.88,3.44,3.44,0,0,0,2.77-3.95,3.34,3.34,0,0,0-3.79-2.88Z"/><path class="cls-6" d="M70.49,198.79a3.33,3.33,0,0,1-3.78-2.88A3.43,3.43,0,0,1,69.47,192a3.33,3.33,0,0,1,3.78,2.88,3.44,3.44,0,0,1-2.76,3.94Z"/><polygon class="cls-6" points="64.69 154.94 63.27 155.17 69.27 195.49 70.69 195.26 64.69 154.94 64.69 154.94"/><path class="cls-5" d="M63.72,153.33a1.73,1.73,0,0,0-1.39,2,1.68,1.68,0,0,0,1.91,1.46,1.74,1.74,0,0,0,1.39-2,1.68,1.68,0,0,0-1.91-1.46Z"/><path class="cls-5" d="M70.24,197.1a1.68,1.68,0,0,1-1.91-1.46,1.74,1.74,0,0,1,1.39-2,1.69,1.69,0,0,1,1.91,1.46,1.73,1.73,0,0,1-1.39,2Z"/><polygon class="cls-7" points="67.46 167.15 64.17 167.68 64.82 172 68.11 171.47 67.46 167.15 67.46 167.15"/><polygon class="cls-9" points="68.11 171.47 64.82 172 67.33 188.91 70.62 188.38 68.11 171.47 68.11 171.47"/><polygon class="cls-9" points="67.22 165.5 63.93 166.03 64.17 167.68 67.46 167.15 67.22 165.5 67.22 165.5"/><polygon class="cls-10" points="64.82 172.03 67.33 188.91 68.36 188.74 65.84 171.86 64.82 172.03 64.82 172.03"/><polygon class="cls-10" points="63.93 166.06 64.17 167.68 65.2 167.52 64.95 165.89 63.93 166.06 63.93 166.06"/><path class="cls-10" d="M81.52,133.41h-4a1.25,1.25,0,0,0-1.22,1.26v5.24a1.25,1.25,0,0,0,1.22,1.27h4a1.24,1.24,0,0,0,1.21-1.27v-5.24a1.24,1.24,0,0,0-1.21-1.26Z"/><path class="cls-10" d="M76.07,133.09l-3.66-1.7a1.19,1.19,0,0,0-1.6.64l-2,4.78a1.31,1.31,0,0,0,.62,1.68L73,140.18a1.19,1.19,0,0,0,1.6-.64l2-4.78a1.28,1.28,0,0,0-.61-1.67Z"/><path class="cls-10" d="M71.21,130.48l-2.68-3.1a1.17,1.17,0,0,0-1.71-.09l-3.73,3.5a1.3,1.3,0,0,0-.09,1.79l2.67,3.1a1.18,1.18,0,0,0,1.72.09l3.73-3.5a1.3,1.3,0,0,0,.09-1.79Z"/><path class="cls-10" d="M67.79,126l-1.23-4a1.22,1.22,0,0,0-1.54-.82l-4.77,1.62a1.28,1.28,0,0,0-.78,1.6l1.23,4a1.22,1.22,0,0,0,1.54.82L67,127.64a1.27,1.27,0,0,0,.78-1.6Z"/><path class="cls-12" d="M79.52,108.63a11.26,11.26,0,1,0,10.79,11.25,11,11,0,0,0-10.79-11.25Z"/><path class="cls-9" d="M79.52,112.87a6.64,6.64,0,0,0-5.51,3,7.26,7.26,0,0,0-.53,2.73,6.87,6.87,0,0,0,6.72,7,6.65,6.65,0,0,0,5.51-3,7.26,7.26,0,0,0,.53-2.73,6.87,6.87,0,0,0-6.72-7Z"/><path class="cls-5" d="M66.33,118.38a1.08,1.08,0,0,0-1.37.72,1.14,1.14,0,0,0,.7,1.43,1.08,1.08,0,0,0,1.37-.72,1.14,1.14,0,0,0-.7-1.43Z"/><path class="cls-5" d="M68.06,112.92a1.06,1.06,0,0,0-1.54.08,1.16,1.16,0,0,0,.08,1.6,1.06,1.06,0,0,0,1.54-.08,1.17,1.17,0,0,0-.08-1.6Z"/><path class="cls-5" d="M71.77,108.66a1.08,1.08,0,0,0-1.44-.58,1.15,1.15,0,0,0-.55,1.5,1.07,1.07,0,0,0,1.43.58,1.17,1.17,0,0,0,.56-1.5Z"/><path class="cls-5" d="M76.81,106.34a1.09,1.09,0,1,0-1.09,1.14,1.11,1.11,0,0,0,1.09-1.14Z"/><path class="cls-5" d="M92.71,118.49a1.1,1.1,0,0,0,1.2-1,1.13,1.13,0,0,0-1-1.25,1.11,1.11,0,0,0-1.2,1,1.13,1.13,0,0,0,1,1.25Z"/><path class="cls-5" d="M92.11,124.21a1.07,1.07,0,0,0,1.49-.42,1.16,1.16,0,0,0-.4-1.55,1.06,1.06,0,0,0-1.48.42,1.15,1.15,0,0,0,.39,1.55Z"/><path class="cls-5" d="M89.34,129.17a1.05,1.05,0,0,0,1.52.25,1.17,1.17,0,0,0,.24-1.58,1.06,1.06,0,0,0-1.52-.25,1.15,1.15,0,0,0-.24,1.58Z"/><path class="cls-5" d="M84.86,132.53a1.09,1.09,0,0,0,1.29.88,1.14,1.14,0,0,0,.84-1.35,1.09,1.09,0,0,0-1.29-.87,1.13,1.13,0,0,0-.84,1.34Z"/><path class="cls-13" d="M67.32,122.29a12.8,12.8,0,0,0,12.36,10.33,11.84,11.84,0,0,0,2.54-.27.83.83,0,0,0,.56-.41.88.88,0,0,0,.09-.71l-.32-1.15a.85.85,0,0,0-1-.62,9.63,9.63,0,0,1-2,.2,9.77,9.77,0,0,1-9.44-7.92.86.86,0,0,0-1-.7l-1.17.17a.87.87,0,0,0-.59.38.91.91,0,0,0-.13.7Z"/><path class="cls-5" d="M80.71,130.1a.67.67,0,0,0-.85.45.71.71,0,0,0,.43.89.68.68,0,0,0,.86-.45.71.71,0,0,0-.44-.89Z"/><path class="cls-5" d="M76.62,129.72a.65.65,0,0,0-1,.05.73.73,0,0,0,0,1,.67.67,0,0,0,1-.05.73.73,0,0,0,0-1Z"/><path class="cls-5" d="M73,127.64a.66.66,0,0,0-.89-.36.72.72,0,0,0-.35.93.67.67,0,0,0,.9.36.72.72,0,0,0,.34-.93Z"/><path class="cls-5" d="M70.56,124.22a.68.68,0,1,0-.67.71.69.69,0,0,0,.67-.71Z"/><path class="cls-8" d="M81.1,134.23H77.94a1,1,0,0,0-1,1v4.13a1,1,0,0,0,1,1H81.1a1,1,0,0,0,1-1v-4.13a1,1,0,0,0-1-1Z"/><path class="cls-11" d="M82.31,93.16H76.72c-.94,0-1.69.45-1.69,1v3.78a22.49,22.49,0,0,1,3-.19,23.46,23.46,0,0,1,6,.77.59.59,0,0,0,0-.23V94.16c0-.55-.77-1-1.71-1Z"/><path class="cls-11" d="M92.5,96.66l-5.12-2.37c-.85-.4-1.72-.31-1.93.19l-1.61,3.77a.59.59,0,0,0,0,.22,23.78,23.78,0,0,1,8.08,3.83.58.58,0,0,0,.18-.23l1.61-3.77c.22-.51-.31-1.24-1.16-1.64Z"/><path class="cls-11" d="M100.43,104.17l-3.74-4.34c-.63-.72-1.45-1-1.85-.64L91.9,102a.63.63,0,0,0-.16.25A24.76,24.76,0,0,1,98,108.83l2.84-2.67c.39-.37.2-1.26-.43-2Z"/><path class="cls-11" d="M104.75,114.4,103,108.85c-.28-.93-.93-1.54-1.43-1.37l-3.65,1.23a25.69,25.69,0,0,1,3.62,8.64l2.81-1c.5-.17.67-1.07.38-2Z"/><path class="cls-8" d="M75.36,133.66l-2.88-1.34a.94.94,0,0,0-1.27.51L69.6,136.6a1,1,0,0,0,.49,1.32L73,139.25a1,1,0,0,0,1.27-.5L75.85,135a1,1,0,0,0-.49-1.32Z"/><path class="cls-8" d="M70.34,130.7l-2.11-2.44a.93.93,0,0,0-1.35-.07L63.94,131a1,1,0,0,0-.08,1.41L66,134.8a.94.94,0,0,0,1.35.08l2.94-2.77a1,1,0,0,0,.07-1.41Z"/><path class="cls-8" d="M66.91,125.88l-1-3.13a1,1,0,0,0-1.21-.64L61,123.38a1,1,0,0,0-.61,1.26l1,3.13a1,1,0,0,0,1.21.64l3.77-1.27a1,1,0,0,0,.61-1.26Z"/><path class="cls-10" d="M79.52,90.33c-15.65,0-28.35,13.23-28.35,29.55s12.7,29.55,28.35,29.55,28.34-13.24,28.34-29.55S95.17,90.33,79.52,90.33Zm0,1.93c-14.63,0-26.5,12.37-26.5,27.62s11.87,27.62,26.5,27.62S106,135.13,106,119.88,94.15,92.26,79.52,92.26Z"/><path class="cls-6" d="M24.13,123c.37,3.65,1.44,4.62,2.33,5.59-1.28,5.38-2.46,9.44-3.78,11.78S20,143.14,20,144.66c.07,5.39,4.19,3.91,6.72,4.09,1.14,2.36.43,3.81-1,4.43A3.52,3.52,0,0,0,27.78,157c-1.05,1.19-1.81,2.11-.52,4.77,1,.41,3.75.23,3.31,2.11-1.52,3.16-2.6,6.42-.59,10.4,10.08-2.34,18.47-7,26.12-12.54,4.23-3.07,6.89-7.75,8.66-13.61,1.22-5.31,1-4.49,2.26-9.79C51.66,132,45.4,112.12,57.39,95.62,62.18,89,68.63,86,79.52,86.2s26.35,9.22,29.93,21.39c4.18,14.25-9,22.06-22.31,22.11,5,11,14,22.32,21,14.57,5.46-6.06,8.44-15.43,6.1-30.07-2.88-18-21-31.4-42.14-31.4a45.2,45.2,0,0,0-26.68,8.58C32.24,101,29.64,108.59,24.13,123Z"/><path class="cls-14" d="M48.91,164.56c2-1.3,4-2.67,6-4.06,4-2.78,6.38-7.17,8-12.6,1.13-4.91,1-4.15,2.09-9.06a23.43,23.43,0,0,1-6.07-3.68c-8.14,5.8-9.59,17.18-10,29.4Z"/><path class="cls-14" d="M27.78,157h6.38c.56-.66.27-1.24-.86-1.74a1.56,1.56,0,0,1-.92.6c-4.31-.43-4.07-1.59-6.53-2.74l-.12.05A3.52,3.52,0,0,0,27.78,157Z"/><path class="cls-15" d="M37.79,131.92A9.16,9.16,0,0,1,30.12,134c-.08-.62-.17-1.23-.26-1.85a8.83,8.83,0,0,0,7.83-1.43c0,.4.07.81.1,1.21Z"/><path class="cls-14" d="M28.76,147.9c.92-1.46-.75-1.49-2.79-1.32l-2.76.57c3,.38,4.36-.19,5.55.75Z"/><path class="cls-14" d="M26.43,122.69c-.32,2.17-.19,4.25,1.56,6l11.94,2a7.31,7.31,0,0,0,2.56-.91c-6.79-5.13-14.23-2.79-16.06-7.1Z"/><polygon class="cls-6" points="37.79 129.11 29.56 127.04 29.27 128.89 37.68 130.32 37.79 129.11 37.79 129.11"/><path class="cls-14" d="M37.68,130.22,30,129a6.26,6.26,0,0,0,0,.63,4.94,4.94,0,0,0,.35,1.81,7.88,7.88,0,0,0,7.38-1.24l.1,1.12-.11-1.12Z"/><path class="cls-5" d="M95.39,133.91a.68.68,0,1,0-1.36,0,.68.68,0,1,0,1.36,0Z"/><path class="cls-5" d="M104,131.29a.68.68,0,1,0-1.35,0,.68.68,0,1,0,1.35,0Z"/><path class="cls-5" d="M62.57,140.84a.68.68,0,1,0-1.36,0,.68.68,0,1,0,1.36,0Z"/><path class="cls-5" d="M60.85,148.09a.68.68,0,1,0-1.35,0,.68.68,0,1,0,1.35,0Z"/><path class="cls-5" d="M57.47,155.38a.68.68,0,1,0-1.35,0,.68.68,0,1,0,1.35,0Z"/></svg>