<svg id="Layer_1" data-name="Layer 1" xmlns="http://www.w3.org/2000/svg" width="183.8816" height="210.8553" viewBox="0 0 183.8816 210.8553"><defs><style>.cls-1{fill:#373f44;}.cls-2{fill:#f3f3f3;}.cls-3{fill:#ccc;}.cls-4{fill:#010101;}.cls-5{fill:#646f84;}.cls-10,.cls-11,.cls-12,.cls-13,.cls-14,.cls-15,.cls-5,.cls-6,.cls-7,.cls-8,.cls-9{fill-rule:evenodd;}.cls-6{fill:#fff;}.cls-7{fill:#8892a2;}.cls-8{fill:#08aac4;}.cls-9{fill:#3bc1da;}.cls-10{fill:#1594ac;}.cls-11{fill:#d8e0e3;}.cls-12{fill:#6d6e71;}.cls-13{fill:#2b3990;}.cls-14{fill:#99a2b2;}.cls-15{fill:#d6dde2;}</style></defs><title>scifortech</title><rect class="cls-1" width="183.8816" height="210.8553"/><rect class="cls-2" x="75.7173" y="46.8805" width="99.6017" height="136.4054" rx="4"/><rect class="cls-3" x="86.2358" y="141.7613" width="69.0324" height="4.0138" rx="1.8818"/><rect class="cls-3" x="85.5885" y="100.9064" width="69.0324" height="4.0138" rx="1.8818"/><path class="cls-4" d="M98.7873,67.56a4.2345,4.2345,0,0,1-1.749-.94,1.8859,1.8859,0,0,1-.5479-1.3759,1.98,1.98,0,0,1,.669-1.5318,2.4911,2.4911,0,0,1,1.7392-.6059,2.668,2.668,0,0,1,1.3018.3125,2.2224,2.2224,0,0,1,.8848.8613A2.3726,2.3726,0,0,1,101.4,65.481H100.46a1.5132,1.5132,0,0,0-.4082-1.1211,1.562,1.562,0,0,0-1.1534-.4082,1.5845,1.5845,0,0,0-1.0771.3374,1.1758,1.1758,0,0,0-.3867.936,1.0508,1.0508,0,0,0,.3672.8115,3.4388,3.4388,0,0,0,1.25.607,5.51,5.51,0,0,1,1.3818.6064,2.2085,2.2085,0,0,1,.7393.7725,2.1444,2.1444,0,0,1,.2412,1.04,1.9054,1.9054,0,0,1-.6719,1.5264,2.67,2.67,0,0,1-1.7949.5737,3.0569,3.0569,0,0,1-1.3623-.31,2.349,2.349,0,0,1-.9756-.8477,2.2292,2.2292,0,0,1-.3428-1.2226h.9395a1.4127,1.4127,0,0,0,.4736,1.123,1.8677,1.8677,0,0,0,1.2676.4116,1.7072,1.7072,0,0,0,1.1338-.334,1.1279,1.1279,0,0,0,.3935-.91,1.1132,1.1132,0,0,0-.3642-.8911A4.0139,4.0139,0,0,0,98.7873,67.56Z"/><path class="cls-4" d="M107.8205,68.5664a3.0126,3.0126,0,0,1-.8291,1.92,2.557,2.557,0,0,1-1.8555.6757,2.4,2.4,0,0,1-2.0117-.9965,4.2951,4.2951,0,0,1-.7568-2.6651v-.7539a4.8748,4.8748,0,0,1,.3525-1.9224,2.8476,2.8476,0,0,1,1-1.2734,2.5811,2.5811,0,0,1,1.4981-.4443,2.4138,2.4138,0,0,1,1.81.6972,3.0589,3.0589,0,0,1,.793,1.9307h-.9385a2.3654,2.3654,0,0,0-.5283-1.3613,1.5036,1.5036,0,0,0-1.1357-.4214,1.6165,1.6165,0,0,0-1.4033.7329,3.6345,3.6345,0,0,0-.5088,2.0859v.76a3.7385,3.7385,0,0,0,.4824,2.0317,1.5134,1.5134,0,0,0,1.3476.7544,1.6774,1.6774,0,0,0,1.1934-.39,2.2717,2.2717,0,0,0,.5527-1.36Z"/><path class="cls-4" d="M110.0979,71.0542h-.9346v-7.84h.9346Z"/><path class="cls-4" d="M115.8088,67.43H112.74V70.209h3.5654v.8452h-4.5v-7.84h4.4512V64.06H112.74V66.585h3.0693Z"/><path class="cls-4" d="M122.9113,71.0542h-.9394l-3.5654-6.0415v6.0415h-.9385v-7.84h.9385l3.5752,6.0688V63.2139h.93Z"/><path class="cls-4" d="M129.78,68.5664a3.0138,3.0138,0,0,1-.83,1.92,2.5554,2.5554,0,0,1-1.8555.6757,2.4009,2.4009,0,0,1-2.0117-.9965,4.3013,4.3013,0,0,1-.7558-2.6651v-.7539a4.873,4.873,0,0,1,.3525-1.9224,2.8458,2.8458,0,0,1,.999-1.2734,2.5842,2.5842,0,0,1,1.499-.4443,2.4154,2.4154,0,0,1,1.81.6972,3.0648,3.0648,0,0,1,.793,1.9307h-.9395a2.3722,2.3722,0,0,0-.5273-1.3613,1.5037,1.5037,0,0,0-1.1358-.4214,1.6167,1.6167,0,0,0-1.4033.7329,3.6275,3.6275,0,0,0-.5088,2.0859v.76a3.7387,3.7387,0,0,0,.4815,2.0317,1.5156,1.5156,0,0,0,1.3476.7544,1.6817,1.6817,0,0,0,1.1944-.39,2.2723,2.2723,0,0,0,.5517-1.36Z"/><path class="cls-4" d="M135.0588,67.43H131.99V70.209h3.5654v.8452h-4.5v-7.84h4.4512V64.06H131.99V66.585h3.0693Z"/><path class="cls-4" d="M143.09,67.5918h-2.9716v3.4624h-.9346v-7.84h4.3877V64.06h-3.4531v2.687H143.09Z"/><path class="cls-4" d="M150.1389,67.3872a5.3072,5.3072,0,0,1-.35,2.0113,2.8814,2.8814,0,0,1-.9922,1.311,2.6769,2.6769,0,0,1-2.9824-.0024,2.9392,2.9392,0,0,1-1.0049-1.2979,5.0879,5.0879,0,0,1-.3672-1.9521v-.5655a5.2283,5.2283,0,0,1,.3555-1.9975,2.9382,2.9382,0,0,1,1.0039-1.3272,2.5067,2.5067,0,0,1,1.4863-.46,2.5512,2.5512,0,0,1,1.501.455,2.8787,2.8787,0,0,1,1,1.3194,5.3307,5.3307,0,0,1,.35,2.0107Zm-.9287-.5063a3.8027,3.8027,0,0,0-.5059-2.14,1.6172,1.6172,0,0,0-1.416-.7456,1.6,1.6,0,0,0-1.3936.7456,3.7083,3.7083,0,0,0-.5224,2.07v.5761a3.8083,3.8083,0,0,0,.5127,2.1245,1.6943,1.6943,0,0,0,2.8144.043,3.7787,3.7787,0,0,0,.5108-2.0923Z"/><path class="cls-4" d="M154.1379,67.8828h-1.6631v3.1714h-.9394v-7.84H153.88a2.5953,2.5953,0,0,1,1.8418.6035,2.6021,2.6021,0,0,1,.2871,3.0313,2.1635,2.1635,0,0,1-.9951.8129l1.664,3.3282v.0644H155.675Zm-1.6631-.8457h1.4346a1.5187,1.5187,0,0,0,1.1064-.3989,1.4193,1.4193,0,0,0,.4112-1.0684,1.5021,1.5021,0,0,0-.3916-1.1166,1.5544,1.5544,0,0,0-1.1309-.3936h-1.43Z"/><path class="cls-4" d="M100.176,77.293H97.9v6.9946h-.93V77.293H94.6984v-.8457h5.4776Z"/><path class="cls-4" d="M105.2307,80.6636h-3.0694v2.7788h3.5655v.8452h-4.5v-7.84h4.4511v.8457h-3.5166v2.5254h3.0694Z"/><path class="cls-4" d="M112.1,81.8a3.0133,3.0133,0,0,1-.83,1.92,2.5552,2.5552,0,0,1-1.8554.6757,2.4011,2.4011,0,0,1-2.0118-.9965,4.3013,4.3013,0,0,1-.7558-2.6651V79.98a4.8748,4.8748,0,0,1,.3525-1.9224,2.8453,2.8453,0,0,1,.9991-1.2734,2.5837,2.5837,0,0,1,1.499-.4443,2.4153,2.4153,0,0,1,1.81.6972,3.0648,3.0648,0,0,1,.793,1.9307H111.16a2.3729,2.3729,0,0,0-.5274-1.3613,1.5036,1.5036,0,0,0-1.1357-.4214,1.6165,1.6165,0,0,0-1.4033.7329,3.6267,3.6267,0,0,0-.5088,2.0859v.76a3.7388,3.7388,0,0,0,.4814,2.0317,1.5156,1.5156,0,0,0,1.3477.7544,1.6814,1.6814,0,0,0,1.1943-.39,2.2729,2.2729,0,0,0,.5518-1.36Z"/><path class="cls-4" d="M118.8176,84.2876h-.9385v-3.624h-3.57v3.624h-.9346v-7.84h.9346v3.3711h3.57V76.4473h.9385Z"/><path class="cls-4" d="M125.92,84.2876h-.9384l-3.5655-6.0415v6.0415h-.9394v-7.84h.9394l3.5752,6.0688V76.4473h.9287Z"/><path class="cls-4" d="M133.0275,80.6206a5.3072,5.3072,0,0,1-.35,2.0113,2.8812,2.8812,0,0,1-.9921,1.311,2.677,2.677,0,0,1-2.9825-.0024,2.94,2.94,0,0,1-1.0049-1.2979,5.09,5.09,0,0,1-.3671-1.9521V80.125a5.2283,5.2283,0,0,1,.3554-1.9975A2.94,2.94,0,0,1,128.6906,76.8a2.5068,2.5068,0,0,1,1.4864-.46,2.5511,2.5511,0,0,1,1.5009.455,2.8781,2.8781,0,0,1,1,1.3194,5.3307,5.3307,0,0,1,.35,2.0107Zm-.9287-.5063a3.8027,3.8027,0,0,0-.5058-2.14,1.6172,1.6172,0,0,0-1.416-.7456,1.6,1.6,0,0,0-1.3936.7456,3.7074,3.7074,0,0,0-.5225,2.07v.5761a3.8083,3.8083,0,0,0,.5127,2.1245,1.6944,1.6944,0,0,0,2.8145.043,3.7779,3.7779,0,0,0,.5107-2.0923Z"/><path class="cls-4" d="M135.3684,83.4424h3.3564v.8452h-4.2959v-7.84h.94Z"/><path class="cls-4" d="M144.9221,80.6206a5.3067,5.3067,0,0,1-.3506,2.0113,2.8814,2.8814,0,0,1-.9922,1.311,2.6769,2.6769,0,0,1-2.9824-.0024,2.9445,2.9445,0,0,1-1.0039-1.2979,5.0711,5.0711,0,0,1-.3672-1.9521V80.125a5.2478,5.2478,0,0,1,.3545-1.9975A2.9469,2.9469,0,0,1,140.5852,76.8a2.5045,2.5045,0,0,1,1.4863-.46,2.5534,2.5534,0,0,1,1.501.455,2.8771,2.8771,0,0,1,.999,1.3194,5.33,5.33,0,0,1,.3506,2.0107Zm-.93-.5063a3.7945,3.7945,0,0,0-.5059-2.14,1.6952,1.6952,0,0,0-2.8086,0,3.708,3.708,0,0,0-.5234,2.07v.5761a3.8,3.8,0,0,0,.5137,2.1245,1.6935,1.6935,0,0,0,2.8135.043,3.78,3.78,0,0,0,.5107-2.0923Z"/><path class="cls-4" d="M151.5529,83.2593a2.2049,2.2049,0,0,1-1.0048.8535,3.7078,3.7078,0,0,1-1.501.2827,2.6967,2.6967,0,0,1-1.5371-.45,2.9076,2.9076,0,0,1-1.0381-1.2788,4.8176,4.8176,0,0,1-.3779-1.9223v-.6841a4.4288,4.4288,0,0,1,.747-2.7461,2.4916,2.4916,0,0,1,2.1-.9746,2.52,2.52,0,0,1,1.7852.6274,2.8379,2.8379,0,0,1,.8271,1.7793h-.9345a1.7033,1.7033,0,0,0-3.0957-.831,3.8492,3.8492,0,0,0-.4893,2.1152v.6411a3.5992,3.5992,0,0,0,.5449,2.0991,1.7081,1.7081,0,0,0,1.4737.7788,2.9619,2.9619,0,0,0,.92-.1289,1.4029,1.4029,0,0,0,.6514-.435V81.229h-1.64v-.8452h2.5693Z"/><path class="cls-4" d="M155.2688,80.3838l1.8486-3.9365h1.06l-2.4414,4.9165v2.9238h-.9345V81.3638L152.36,76.4473h1.07Z"/><rect class="cls-3" x="84.9689" y="121.71" width="69.0324" height="4.0138" rx="1.8818"/><polygon class="cls-5" points="50.087 90.334 43.021 95.473 58.467 99.241 78.889 84.902 50.087 90.334 50.087 90.334"/><polygon class="cls-6" points="52.902 151.584 51.402 152.608 78.11 195.067 79.609 194.042 52.902 151.584 52.902 151.584"/><polygon class="cls-7" points="62.072 163.929 58.608 166.297 61.468 170.843 64.932 168.476 62.072 163.929 62.072 163.929"/><polygon class="cls-8" points="64.933 168.477 61.468 170.844 72.667 188.648 76.132 186.28 64.933 168.477 64.933 168.477"/><polygon class="cls-9" points="60.977 162.187 57.512 164.555 58.608 166.297 62.073 163.93 60.977 162.187 60.977 162.187"/><polygon class="cls-10" points="61.471 170.849 72.667 188.648 73.489 188.086 62.293 170.287 61.471 170.849 61.471 170.849"/><polygon class="cls-10" points="57.515 164.559 58.608 166.297 59.43 165.736 58.337 163.998 57.515 164.559 57.515 164.559"/><path class="cls-7" d="M77.0808,202.73a7.8789,7.8789,0,0,1-4.8032-9.8352,7.4278,7.4278,0,0,1,9.4351-5.0075,7.88,7.88,0,0,1,4.8032,9.8357,7.4283,7.4283,0,0,1-9.4351,5.007Z"/><path class="cls-7" d="M100.35,151.1759c-1.8606,12.4949-11.4815,9.7825-14.8428,5.0372-1.7954-2.5353-10.3319-2.4492-12.3859-.5137-5.46,5.1462-12.9856,5.8068-16.8309-1.4548-4.1768-7.8879,12.583-14.21,17.5044-17.6506l28.9434-20.2328,11.3106.0033c.9881,24.1079-12.9619,29.8638-13.6988,34.8114Z"/><path class="cls-5" d="M79.5179,86.2009c-17.8411,0-32.31,15.0816-32.31,33.679s14.4687,33.6792,32.31,33.6792,32.3093-15.082,32.3093-33.6792S97.359,86.2009,79.5179,86.2009Z"/><path class="cls-11" d="M79.5179,94.7164c-13.33,0-24.14,11.2684-24.14,25.1635s10.81,25.1636,24.14,25.1636,24.14-11.2686,24.14-25.1636-10.81-25.1635-24.14-25.1635Z"/><path class="cls-9" d="M79.5179,101.294c-9.8456,0-17.83,8.323-17.83,18.5859s7.9845,18.5857,17.83,18.5857,17.83-8.3227,17.83-18.5857-7.9845-18.5859-17.83-18.5859Z"/><path class="cls-6" d="M94.0486,148.3577a4.9506,4.9506,0,0,0-6.2882,3.3369,5.251,5.251,0,0,0,3.2013,6.5549,4.95,4.95,0,0,0,6.2882-3.3369,5.2516,5.2516,0,0,0-3.2013-6.5549Z"/><path class="cls-6" d="M77.8533,200.2549A5.251,5.251,0,0,1,74.652,193.7a4.95,4.95,0,0,1,6.2878-3.3368,5.2508,5.2508,0,0,1,3.2017,6.5543,4.9507,4.9507,0,0,1-6.2882,3.3374Z"/><polygon class="cls-6" points="93.19 153.536 91.82 153.071 78.712 195.077 80.081 195.542 93.19 153.536 93.19 153.536"/><path class="cls-5" d="M93.0224,151.6452a1.66,1.66,0,0,0-2.1083,1.1191,1.76,1.76,0,0,0,1.0736,2.1975,1.6594,1.6594,0,0,0,2.1083-1.1185,1.7608,1.7608,0,0,0-1.0736-2.1981Z"/><path class="cls-5" d="M78.6141,197.8149a2.6607,2.6607,0,0,1-1.6217-3.3213,2.5079,2.5079,0,0,1,3.1861-1.6908A2.66,2.66,0,0,1,81.8,196.124a2.5084,2.5084,0,0,1-3.1863,1.6909Z"/><polygon class="cls-7" points="91.44 166.359 85.997 164.514 84.508 169.288 89.95 171.133 91.44 166.359 91.44 166.359"/><polygon class="cls-9" points="89.95 171.134 84.507 169.289 78.674 187.982 84.117 189.827 89.95 171.134 89.95 171.134"/><polygon class="cls-9" points="92.011 164.531 86.568 162.685 85.997 164.515 91.44 166.36 92.011 164.531 92.011 164.531"/><polygon class="cls-10" points="83.006 189.451 84.117 189.827 89.917 171.239 88.807 170.863 83.006 189.451 83.006 189.451"/><polygon class="cls-10" points="90.33 165.984 91.44 166.36 91.978 164.636 90.867 164.259 90.33 165.984 90.33 165.984"/><path class="cls-6" d="M63.4711,151.6367A3.4439,3.4439,0,0,0,60.7,155.5856a3.34,3.34,0,0,0,3.7883,2.8877,3.4427,3.4427,0,0,0,2.77-3.9485,3.34,3.34,0,0,0-3.7879-2.8881Z"/><path class="cls-6" d="M70.4875,198.7855a3.33,3.33,0,0,1-3.7767-2.88,3.4329,3.4329,0,0,1,2.7621-3.937,3.3305,3.3305,0,0,1,3.7773,2.8792,3.4337,3.4337,0,0,1-2.7627,3.9374Z"/><polygon class="cls-6" points="64.691 154.94 63.268 155.17 69.269 195.492 70.692 195.262 64.691 154.94 64.691 154.94"/><path class="cls-5" d="M63.723,153.3316a1.7362,1.7362,0,0,0-1.3966,1.9909,1.6836,1.6836,0,0,0,1.91,1.4557,1.7353,1.7353,0,0,0,1.3967-1.99,1.684,1.684,0,0,0-1.91-1.4561Z"/><path class="cls-5" d="M70.2368,197.1a1.6839,1.6839,0,0,1-1.91-1.4559,1.7361,1.7361,0,0,1,1.3971-1.9908,1.6843,1.6843,0,0,1,1.91,1.4566,1.7356,1.7356,0,0,1-1.3971,1.99Z"/><polygon class="cls-7" points="67.464 167.151 64.175 167.683 64.817 172.001 68.107 171.469 67.464 167.151 67.464 167.151"/><polygon class="cls-9" points="68.107 171.47 64.817 172.001 67.333 188.909 70.623 188.377 68.107 171.47 68.107 171.47"/><polygon class="cls-9" points="67.218 165.497 63.928 166.029 64.175 167.683 67.464 167.151 67.218 165.497 67.218 165.497"/><polygon class="cls-10" points="64.821 172.028 67.333 188.909 68.357 188.744 65.844 171.863 64.821 172.028 64.821 172.028"/><polygon class="cls-10" points="63.932 166.055 64.175 167.683 65.198 167.518 64.955 165.89 63.932 166.055 63.932 166.055"/><path class="cls-10" d="M81.5184,133.4064H77.5178a1.2458,1.2458,0,0,0-1.2161,1.2677v5.234a1.246,1.246,0,0,0,1.2161,1.2677h4.0006a1.246,1.246,0,0,0,1.2161-1.2677v-5.234a1.2459,1.2459,0,0,0-1.2161-1.2677Z"/><path class="cls-10" d="M76.0667,133.0857l-3.6548-1.6963a1.2,1.2,0,0,0-1.6056.6423l-2.0424,4.7817a1.2926,1.2926,0,0,0,.6166,1.6735l3.6549,1.6965a1.2,1.2,0,0,0,1.6055-.6425l2.042-4.7815a1.2923,1.2923,0,0,0-.6162-1.6737Z"/><path class="cls-10" d="M71.2115,130.4811l-2.6769-3.0992a1.1845,1.1845,0,0,0-1.7174-.0936l-3.7314,3.502a1.31,1.31,0,0,0-.09,1.7905l2.6772,3.0991a1.1849,1.1849,0,0,0,1.7176.0938l3.7314-3.5021a1.3092,1.3092,0,0,0,.09-1.7905Z"/><path class="cls-10" d="M67.7926,126.0433l-1.2364-3.9662a1.2094,1.2094,0,0,0-1.5322-.8137l-4.7756,1.6174a1.283,1.283,0,0,0-.7809,1.5974l1.2362,3.9658a1.21,1.21,0,0,0,1.5328.814l4.775-1.6172a1.2833,1.2833,0,0,0,.7811-1.5975Z"/><path class="cls-12" d="M79.5179,108.6343A11.2551,11.2551,0,1,0,90.306,119.88a11.0255,11.0255,0,0,0-10.7881-11.2456Z"/><path class="cls-9" d="M79.5179,112.8732a6.6363,6.6363,0,0,0-5.5094,2.993,7.244,7.244,0,0,0-.5332,2.7378,6.8694,6.8694,0,0,0,6.7216,7.0067,6.64,6.64,0,0,0,5.5117-2.9987A7.2443,7.2443,0,0,0,86.24,119.88a6.8693,6.8693,0,0,0-6.7216-7.0067Z"/><path class="cls-5" d="M66.3321,118.3762a1.08,1.08,0,0,0-1.3724.7279,1.1459,1.1459,0,0,0,.6988,1.43,1.08,1.08,0,0,0,1.3719-.728,1.1451,1.1451,0,0,0-.6983-1.43Z"/><path class="cls-5" d="M68.0583,112.916a1.0584,1.0584,0,0,0-1.538.0834,1.1694,1.1694,0,0,0,.08,1.6025,1.0586,1.0586,0,0,0,1.538-.0832,1.1694,1.1694,0,0,0-.08-1.6027Z"/><path class="cls-5" d="M71.7654,108.66a1.0718,1.0718,0,0,0-1.437-.576,1.1547,1.1547,0,0,0-.5525,1.4983,1.0721,1.0721,0,0,0,1.4374.5756,1.1546,1.1546,0,0,0,.5521-1.4979Z"/><path class="cls-5" d="M76.813,106.3433a1.09,1.09,0,1,0-1.089,1.1342,1.1121,1.1121,0,0,0,1.089-1.1342Z"/><path class="cls-5" d="M92.7127,118.4907a1.101,1.101,0,0,0,1.1968-1.01,1.1242,1.1242,0,0,0-.9683-1.2477,1.1013,1.1013,0,0,0-1.1969,1.01,1.1243,1.1243,0,0,0,.9684,1.2475Z"/><path class="cls-5" d="M92.1136,124.2057a1.0648,1.0648,0,0,0,1.487-.4148,1.1614,1.1614,0,0,0-.398-1.5506,1.0647,1.0647,0,0,0-1.487.4148,1.1616,1.1616,0,0,0,.398,1.5506Z"/><path class="cls-5" d="M89.336,129.1724a1.0608,1.0608,0,0,0,1.5207.2516,1.1672,1.1672,0,0,0,.2414-1.5852,1.0607,1.0607,0,0,0-1.5207-.2516,1.1665,1.1665,0,0,0-.2414,1.5852Z"/><path class="cls-5" d="M84.8608,132.5321a1.09,1.09,0,0,0,1.2907.8743,1.1349,1.1349,0,0,0,.839-1.3459,1.09,1.09,0,0,0-1.291-.8741,1.1348,1.1348,0,0,0-.8387,1.3457Z"/><path class="cls-13" d="M67.3217,122.2908a12.791,12.791,0,0,0,12.3541,10.33,12.18,12.18,0,0,0,2.54-.2667.83.83,0,0,0,.561-.4121.8928.8928,0,0,0,.09-.7092l-.3179-1.15a.8516.8516,0,0,0-.995-.6266,9.3056,9.3056,0,0,1-1.9513.2064,9.7716,9.7716,0,0,1-9.4428-7.9233.8573.8573,0,0,0-.9543-.6941l-1.1656.1695a.8245.8245,0,0,0-.585.3746.8938.8938,0,0,0-.1332.7019Z"/><path class="cls-5" d="M80.7112,130.0959a.672.672,0,0,0-.8532.4526.7124.7124,0,0,0,.4343.889.6715.6715,0,0,0,.853-.4523.7128.7128,0,0,0-.4341-.8893Z"/><path class="cls-5" d="M76.6208,129.7193a.657.657,0,0,0-.9555.0518.7258.7258,0,0,0,.05.9959.6577.6577,0,0,0,.956-.0516.7265.7265,0,0,0-.05-.9961Z"/><path class="cls-5" d="M73.0315,127.6408a.6661.6661,0,0,0-.8935-.3578.7177.7177,0,0,0-.3432.9309.6665.6665,0,0,0,.8936.3582.7177.7177,0,0,0,.3431-.9313Z"/><path class="cls-5" d="M70.5633,124.22a.6773.6773,0,1,0-.677.7051.6916.6916,0,0,0,.677-.7051Z"/><path class="cls-8" d="M81.0955,134.2275h-3.155a.9826.9826,0,0,0-.9589,1v4.1278a.9826.9826,0,0,0,.9589,1h3.155a.9827.9827,0,0,0,.9591-1v-4.1278a.9827.9827,0,0,0-.9591-1Z"/><path class="cls-11" d="M82.3147,93.1642h-5.598c-.9358,0-1.691.4488-1.691,1v3.7741A23.3977,23.3977,0,0,1,83.97,98.52a.5951.5951,0,0,0,.0474-.2285V94.1642c0-.5512-.7667-1-1.7022-1Z"/><path class="cls-11" d="M92.4965,96.66l-5.1139-2.3734c-.8551-.3965-1.72-.3068-1.9352.1967l-1.6106,3.7709a.599.599,0,0,0-.0466.2205,23.5817,23.5817,0,0,1,8.0756,3.8288.5946.5946,0,0,0,.1849-.2368l1.61-3.771c.2153-.5041-.31-1.2386-1.1647-1.6357Z"/><path class="cls-11" d="M100.4339,104.1706,96.6884,99.834c-.6265-.7248-1.4516-1.0093-1.8447-.6409l-2.9428,2.7624a.6177.6177,0,0,0-.16.26,24.84,24.84,0,0,1,6.2772,6.6106l2.8418-2.6669c.3933-.3693.2-1.2634-.4263-1.9881Z"/><path class="cls-11" d="M104.7546,114.3972l-1.73-5.55c-.2893-.928-.932-1.5376-1.4352-1.3677L97.944,108.715a25.584,25.584,0,0,1,3.615,8.63l2.8092-.9514c.5037-.17.6757-1.0692.3864-1.9967Z"/><path class="cls-8" d="M75.36,133.6566l-2.8819-1.3377a.9462.9462,0,0,0-1.2663.5068l-1.61,3.77a1.0194,1.0194,0,0,0,.4856,1.32l2.882,1.3379a.9465.9465,0,0,0,1.2662-.5068l1.6107-3.7706a1.0192,1.0192,0,0,0-.4862-1.32Z"/><path class="cls-8" d="M70.3429,130.703l-2.1109-2.4436a.9337.9337,0,0,0-1.3544-.0741l-2.9423,2.7616a1.032,1.032,0,0,0-.071,1.4117l2.1109,2.4439a.9338.9338,0,0,0,1.3542.0741l2.9429-2.762a1.0317,1.0317,0,0,0,.0706-1.4116Z"/><path class="cls-8" d="M66.9123,125.8779l-.9749-3.1276a.9537.9537,0,0,0-1.2084-.6421l-3.7655,1.2757a1.0118,1.0118,0,0,0-.6157,1.26l.9747,3.1272a.9538.9538,0,0,0,1.2084.6419l3.7661-1.2754a1.0113,1.0113,0,0,0,.6153-1.26Z"/><path class="cls-10" d="M79.5179,90.3343c-15.651,0-28.3444,13.2305-28.3444,29.5456s12.6934,29.5458,28.3444,29.5458,28.3438-13.2315,28.3438-29.5458S95.1693,90.3343,79.5179,90.3343Zm0,1.9284c-14.63,0-26.4941,12.367-26.4941,27.6172s11.8641,27.6173,26.4941,27.6173S106.0123,135.13,106.0123,119.88,94.1478,92.2627,79.5179,92.2627Z"/><path class="cls-6" d="M24.1267,122.9665c.3714,3.651,1.4433,4.6282,2.3325,5.59-1.28,5.3879-2.46,9.4466-3.7809,11.7875-1.2415,2.2-2.6655,2.7933-2.6473,4.316.0651,5.3933,4.1881,3.9144,6.7218,4.0887,1.1345,2.3649.4318,3.81-1.027,4.4359a3.5214,3.5214,0,0,0,2.0544,3.8244c-1.0479,1.1914-1.8066,2.1067-.5238,4.7755.9784.4077,3.7486.2235,3.3122,2.1082-1.5221,3.16-2.6006,6.4222-.5872,10.4018,10.0771-2.3461,18.4645-6.9776,26.1214-12.5435,4.2294-3.0746,6.8859-7.75,8.6579-13.6145,1.2231-5.303,1.0339-4.4837,2.2569-9.7864-15.3625-6.388-21.6157-26.2276-9.6273-42.728,4.79-6.5924,11.24-9.5965,22.1276-9.4211s26.3566,9.2149,29.9289,21.3869c4.1837,14.255-8.9722,22.0664-22.3047,22.1128,4.96,10.9756,13.9787,22.3169,20.9635,14.5681,5.4619-6.0592,8.4467-15.4246,6.1033-30.0677-2.8747-17.9609-21.04-31.4053-42.1412-31.4053A45.1486,45.1486,0,0,0,45.39,91.3848c-13.1507,9.5826-15.7486,17.2044-21.2631,31.5817Z"/><path class="cls-14" d="M48.9056,164.5553c2.04-1.2935,4.0177-2.6695,5.9844-4.0507,3.96-2.7811,6.376-7.1755,8.017-12.606,1.1323-4.91.9573-4.1517,2.09-9.0619a23.2326,23.2326,0,0,1-6.0643-3.672c-8.1468,5.79-9.59,17.171-10.0266,29.3906Z"/><path class="cls-14" d="M27.78,157.0089q3.1914.0007,6.3828.0017.8352-.9914-.8639-1.7427a1.5362,1.5362,0,0,1-.9214.6009c-4.3034-.4278-4.0668-1.5875-6.5257-2.741-.0415.02-.0839.0384-.1262.0567a3.5214,3.5214,0,0,0,2.0544,3.8244Z"/><path class="cls-15" d="M37.7875,131.9211a9.11,9.11,0,0,1-7.6627,2.0656q-.1341-.9233-.2687-1.8475a8.8369,8.8369,0,0,0,7.8325-1.4288q.0493.6054.0989,1.2107Z"/><path class="cls-14" d="M28.7645,147.8983c.9169-1.4606-.7527-1.4925-2.7926-1.3213q-1.38.2877-2.76.5759c3.04.3725,4.3628-.19,5.5523.7454Z"/><path class="cls-14" d="M26.431,122.6939c-.3257,2.1705-.1955,4.2451,1.5628,5.98,4.48.7608,7.4568,1.2662,11.9372,2.0277a7.1105,7.1105,0,0,0,2.56-.9158c-6.79-5.1279-14.23-2.7851-16.06-7.0919Z"/><polygon class="cls-6" points="37.787 129.108 29.557 127.043 29.268 128.89 37.681 130.319 37.787 129.108 37.787 129.108"/><path class="cls-14" d="M37.6809,130.2207l-7.6772-1.2057a4.8462,4.8462,0,0,0,.31,2.4484,7.8732,7.8732,0,0,0,7.3748-1.2436l.0992,1.1191-.1066-1.1182Z"/><path class="cls-5" d="M95.3858,133.906a.6773.6773,0,1,0-.6769.7053.6913.6913,0,0,0,.6769-.7053Z"/><path class="cls-5" d="M104.0426,131.2939a.6773.6773,0,1,0-.6769.7053.6918.6918,0,0,0,.6769-.7053Z"/><path class="cls-5" d="M62.5652,140.84a.6773.6773,0,1,0-.6771.7052.6918.6918,0,0,0,.6771-.7052Z"/><path class="cls-5" d="M60.8539,148.0883a.6773.6773,0,1,0-.6769.7052.6915.6915,0,0,0,.6769-.7052Z"/><path class="cls-5" d="M57.47,155.379a.6773.6773,0,1,0-.6769.7053.6913.6913,0,0,0,.6769-.7053Z"/></svg>