<svg id="Layer_1" data-name="Layer 1" xmlns="http://www.w3.org/2000/svg" width="100" height="100" viewBox="0 0 100 100"><title>scifortech</title><g id="Circle_Grid" data-name="Circle Grid"><circle cx="50" cy="50" r="50" style="fill:#ea8953"/></g><g id="icon"><path d="M486.78,27.35a1.51,1.51,0,1,1,0-2.13h0A1.51,1.51,0,0,1,486.78,27.35Z" transform="translate(-412 0)" style="fill:#dbd8dd"/><path d="M480.75,30.49l4.14-4.15.76.76-4.14,4.14Z" transform="translate(-412 0)" style="fill:#dbd8dd"/><path d="M458.61,42.19l-3-3,1.69-1.7,3,3Z" transform="translate(-412 0)" style="fill:#dbd8dd"/><path d="M451.84,48.41l-3-3,1.7-1.7,3,3Z" transform="translate(-412 0)" style="fill:#dbd8dd"/><path d="M471.52,51.69l3,3-1.7,1.69-3-3Z" transform="translate(-412 0)" style="fill:#dbd8dd"/><path d="M465.29,58.45l3,3-1.69,1.69-3-3Z" transform="translate(-412 0)" style="fill:#dbd8dd"/><rect x="468.84" y="54.98" width="19.67" height="24.15" rx="1.26" transform="translate(-319.22 358.11) rotate(-45)" style="fill:#eeefee"/><rect x="470.13" y="56.33" width="17.08" height="21.46" rx="0.18" transform="translate(-319.22 358.11) rotate(-45)" style="fill:#69b0ee"/><path d="M489.63,64.85l.52.52-13,13-.52-.52Z" transform="translate(-412 0)" style="fill:#eeefee"/><path d="M490.17,71.31l-.52.52L474,56.16l.52-.52Z" transform="translate(-412 0)" style="fill:#eeefee"/><path d="M483.48,78l-.52.52L467.28,62.86l.52-.53Z" transform="translate(-412 0)" style="fill:#eeefee"/><path d="M486.83,74.66l-.52.52L470.63,59.51l.52-.52Z" transform="translate(-412 0)" style="fill:#eeefee"/><path d="M486.54,61.76l.52.52L474,75.33l-.52-.52Z" transform="translate(-412 0)" style="fill:#eeefee"/><path d="M483.45,58.67l.52.52-13.05,13-.52-.52Z" transform="translate(-412 0)" style="fill:#eeefee"/><path d="M480.35,55.58l.53.52L467.83,69.15l-.52-.52Z" transform="translate(-412 0)" style="fill:#eeefee"/><rect x="435.1" y="21.24" width="19.67" height="24.15" rx="1.26" transform="translate(-305.24 324.37) rotate(-45)" style="fill:#eeefee"/><path d="M431.44,31.64l11.82-11.82a.19.19,0,0,1,.26,0h0l14.91,14.91a.19.19,0,0,1,0,.26h0L446.61,46.81a.19.19,0,0,1-.26,0h0L431.44,31.9a.19.19,0,0,1,0-.26Z" transform="translate(-412 0)" style="fill:#69b0ee"/><path d="M434.08,35.43l-.52-.52,13.05-13,.52.52Z" transform="translate(-412 0)" style="fill:#eeefee"/><path d="M456.37,37.52l-.52.52L440.17,22.36l.52-.52Z" transform="translate(-412 0)" style="fill:#eeefee"/><path d="M449.67,44.21l-.52.52L433.48,29.06l.52-.52Z" transform="translate(-412 0)" style="fill:#eeefee"/><path d="M453,40.86l-.52.52L436.82,25.71l.52-.52Z" transform="translate(-412 0)" style="fill:#eeefee"/><path d="M437.18,38.52l-.52-.52,13-13,.52.52Z" transform="translate(-412 0)" style="fill:#eeefee"/><path d="M440.27,41.61l-.52-.52L452.8,28l.52.52Z" transform="translate(-412 0)" style="fill:#eeefee"/><path d="M443.36,44.7l-.52-.52,13.05-13,.52.52Z" transform="translate(-412 0)" style="fill:#eeefee"/><circle cx="37.41" cy="62.58" r="6.6" style="fill:#dbd8dd"/><path d="M470.48,36.46,473.92,33l5.05,5-3.44,3.44Z" transform="translate(-412 0)" style="fill:#bbbbcd"/><path d="M479.77,44.73,456.42,68.08a1.08,1.08,0,0,1-1.51,0l-11-11a1.06,1.06,0,0,1,0-1.51h0l23.34-23.34a1.06,1.06,0,0,1,1.51,0h0l11,11a1.08,1.08,0,0,1,0,1.51Z" transform="translate(-412 0)" style="fill:#dbd8dd"/><path d="M477.23,42.2,453.89,65.55a1.08,1.08,0,0,1-1.51,0l-8.45-8.45a1.06,1.06,0,0,1,0-1.51h0l23.34-23.34a1.06,1.06,0,0,1,1.51,0h0l8.44,8.45A1.06,1.06,0,0,1,477.23,42.2Z" transform="translate(-412 0)" style="fill:#eeefee"/><path d="M494,42.81c-3.53,3.53-11.94.83-18.8-6-.49-.49-1-1-1.4-1.49-5.81-6.55-7.92-14-4.64-17.32Z" transform="translate(-412 0)" style="fill:#dbd8dd"/><path d="M491.13,39.91c-3.28,3.28-10.77,1.18-17.3-4.62-5.81-6.55-7.92-14-4.64-17.32Z" transform="translate(-412 0)" style="fill:#eeefee"/></g></svg>