<svg id="Layer_1" data-name="Layer 1" xmlns="http://www.w3.org/2000/svg" width="183.88" height="210.86" viewBox="0 0 183.88 210.86"><defs><style>.cls-1{fill:none;}.cls-2{fill:#f3f3f3;}.cls-3{fill:#ccc;}.cls-4{fill:#010101;}.cls-5{fill:#00b9d6;}.cls-6{fill:#3d5a71;}.cls-7{fill:#f04848;}.cls-8{fill:#fbaf29;}.cls-9{fill:#c4d0d2;}.cls-10{fill:#9dafb0;}</style></defs><title>statistics</title><rect class="cls-1" width="183.88" height="210.86"/><rect class="cls-2" x="75.72" y="46.88" width="99.6" height="136.41" rx="4"/><rect class="cls-3" x="86.24" y="132.01" width="69.03" height="4.01" rx="1.88"/><rect class="cls-3" x="85.59" y="91.16" width="69.03" height="4.01" rx="1.88"/><path class="cls-4" d="M103.3,67.56a4.23,4.23,0,0,1-1.75-.94,1.87,1.87,0,0,1-.55-1.38,2,2,0,0,1,.67-1.53,2.49,2.49,0,0,1,1.74-.6,2.66,2.66,0,0,1,1.3.31,2.21,2.21,0,0,1,.88.86,2.4,2.4,0,0,1,.32,1.2H105a1.53,1.53,0,0,0-.41-1.12,1.85,1.85,0,0,0-2.23-.07,1.17,1.17,0,0,0-.39.94,1.08,1.08,0,0,0,.37.81,3.37,3.37,0,0,0,1.25.6,5.68,5.68,0,0,1,1.38.61,2.25,2.25,0,0,1,.74.77,2.16,2.16,0,0,1,.24,1,1.9,1.9,0,0,1-.67,1.53,2.67,2.67,0,0,1-1.79.57,3,3,0,0,1-1.37-.31,2.3,2.3,0,0,1-1-.85,2.18,2.18,0,0,1-.34-1.22h.93a1.38,1.38,0,0,0,.48,1.12,1.85,1.85,0,0,0,1.27.42,1.66,1.66,0,0,0,1.13-.34,1.27,1.27,0,0,0,0-1.8A4,4,0,0,0,103.3,67.56Z"/><path class="cls-4" d="M112,64.06h-2.27v7h-.93v-7h-2.27v-.85H112Z"/><path class="cls-4" d="M116.59,69h-3l-.66,2h-1l2.71-7.84h.82l2.71,7.84h-1Zm-2.68-.84h2.4l-1.2-3.67Z"/><path class="cls-4" d="M123.45,64.06h-2.28v7h-.93v-7H118v-.85h5.48Z"/><path class="cls-4" d="M125.5,71.05h-.94V63.21h.94Z"/><path class="cls-4" d="M129.29,67.56a4.37,4.37,0,0,1-1.75-.94,1.9,1.9,0,0,1-.54-1.38,2,2,0,0,1,.67-1.53,2.48,2.48,0,0,1,1.73-.6,2.67,2.67,0,0,1,1.31.31,2.21,2.21,0,0,1,.88.86,2.4,2.4,0,0,1,.32,1.2H131a1.53,1.53,0,0,0-.41-1.12A1.58,1.58,0,0,0,129.4,64a1.55,1.55,0,0,0-1.07.34,1.17,1.17,0,0,0-.39.94,1,1,0,0,0,.37.81,3.37,3.37,0,0,0,1.25.6,5.68,5.68,0,0,1,1.38.61,2.25,2.25,0,0,1,.74.77,2.16,2.16,0,0,1,.24,1,1.9,1.9,0,0,1-.67,1.53,2.7,2.7,0,0,1-1.8.57,3,3,0,0,1-1.36-.31,2.24,2.24,0,0,1-1-.85,2.18,2.18,0,0,1-.35-1.22h.94a1.38,1.38,0,0,0,.48,1.12,1.83,1.83,0,0,0,1.26.42,1.69,1.69,0,0,0,1.14-.34,1.27,1.27,0,0,0,0-1.8A4,4,0,0,0,129.29,67.56Z"/><path class="cls-4" d="M138,64.06h-2.28v7h-.93v-7h-2.27v-.85H138Z"/><path class="cls-4" d="M140.06,71.05h-.93V63.21h.93Z"/><path class="cls-4" d="M147,68.57a3,3,0,0,1-.83,1.92,2.53,2.53,0,0,1-1.85.67,2.42,2.42,0,0,1-2-1,4.36,4.36,0,0,1-.75-2.67v-.75a4.85,4.85,0,0,1,.35-1.93,2.92,2.92,0,0,1,1-1.27,2.55,2.55,0,0,1,1.5-.44,2.44,2.44,0,0,1,1.81.69,3.07,3.07,0,0,1,.79,1.93H146a2.32,2.32,0,0,0-.53-1.36,1.5,1.5,0,0,0-1.13-.42,1.64,1.64,0,0,0-1.41.73,3.73,3.73,0,0,0-.5,2.09v.76a3.74,3.74,0,0,0,.48,2,1.53,1.53,0,0,0,1.35.76,1.69,1.69,0,0,0,1.19-.39,2.27,2.27,0,0,0,.55-1.36Z"/><path class="cls-4" d="M150.34,67.56a4.37,4.37,0,0,1-1.75-.94,1.9,1.9,0,0,1-.54-1.38,2,2,0,0,1,.67-1.53,2.48,2.48,0,0,1,1.73-.6,2.67,2.67,0,0,1,1.31.31,2.21,2.21,0,0,1,.88.86,2.4,2.4,0,0,1,.32,1.2H152a1.53,1.53,0,0,0-.41-1.12,1.58,1.58,0,0,0-1.16-.41,1.53,1.53,0,0,0-1.07.34,1.17,1.17,0,0,0-.39.94,1,1,0,0,0,.37.81,3.37,3.37,0,0,0,1.25.6,5.68,5.68,0,0,1,1.38.61,2.25,2.25,0,0,1,.74.77,2.16,2.16,0,0,1,.24,1,1.9,1.9,0,0,1-.67,1.53,2.7,2.7,0,0,1-1.8.57,3,3,0,0,1-1.36-.31,2.24,2.24,0,0,1-1-.85,2.18,2.18,0,0,1-.35-1.22h.94a1.38,1.38,0,0,0,.48,1.12,1.81,1.81,0,0,0,1.26.42,1.69,1.69,0,0,0,1.14-.34,1.27,1.27,0,0,0,0-1.8A4,4,0,0,0,150.34,67.56Z"/><rect class="cls-3" x="84.97" y="111.96" width="69.03" height="4.01" rx="1.88"/><rect class="cls-5" x="25.38" y="140.33" width="14.9" height="53.53"/><rect class="cls-6" x="48.92" y="127.66" width="14.9" height="66.2"/><rect class="cls-7" x="73.07" y="154.94" width="14.9" height="38.95"/><rect class="cls-8" x="96.5" y="138.09" width="14.9" height="55.8"/><rect class="cls-9" x="19.96" y="190.57" width="96.95" height="6.64"/><polygon class="cls-9" points="81.46 149.62 56.23 107.83 33.85 136.02 31.81 134.65 56.52 103.52 82.02 145.76 103.05 125.89 104.85 127.51 81.46 149.62"/><path class="cls-10" d="M38.64,134a4.33,4.33,0,0,1-4.5,4.14,4.16,4.16,0,1,1,0-8.29A4.33,4.33,0,0,1,38.64,134Z"/><path class="cls-10" d="M61.43,105.67a4.52,4.52,0,1,1-4.5-4.14A4.33,4.33,0,0,1,61.43,105.67Z"/><path class="cls-10" d="M86.18,147.69a4.51,4.51,0,1,1-4.5-4.15A4.33,4.33,0,0,1,86.18,147.69Z"/><ellipse class="cls-10" cx="103.95" cy="126.68" rx="4.5" ry="4.15"/></svg>