<svg id="Layer_1" data-name="Layer 1" xmlns="http://www.w3.org/2000/svg" width="100" height="100" viewBox="0 0 100 100"><title>statistics</title><g id="Circle_Grid" data-name="Circle Grid"><circle cx="50" cy="50" r="50" style="fill:#5966d8"/></g><g id="icon"><path d="M494.57,50.24a32.49,32.49,0,0,1-10.13,23.61l-5.29-5.56a24.87,24.87,0,0,0,7.76-18.05Z" transform="translate(-412 0)" style="fill:#2cbfae"/><path d="M462,17.67v7.66a24.9,24.9,0,0,0-20.63,38.86l-6.11,4.65A32.58,32.58,0,0,1,462,17.67Z" transform="translate(-412 0)" style="fill:#69b0ee"/><path d="M494.57,50.24h-7.66A25,25,0,0,0,462,25.33V17.67A32.57,32.57,0,0,1,494.57,50.24Z" transform="translate(-412 0)" style="fill:#f6c863"/><path d="M484.44,73.85a32.58,32.58,0,0,1-46.05-1.17,32,32,0,0,1-3.13-3.84l6.11-4.65a24.88,24.88,0,0,0,34.54,6.7,26.16,26.16,0,0,0,3.24-2.6Z" transform="translate(-412 0)" style="fill:#ef5261"/><path d="M486.91,50.24a24.83,24.83,0,1,1,0-.17Z" transform="translate(-412 0)" style="fill:none"/><path d="M469.94,41.21h6.75V62.56h-6.75Z" transform="translate(-412 0)" style="fill:#eeefee"/><path d="M447.31,45.77h6.75V62.56h-6.75Z" transform="translate(-412 0)" style="fill:#eeefee"/><path d="M458.62,36.46h6.76v26.1h-6.76Z" transform="translate(-412 0)" style="fill:#eeefee"/></g></svg>