<svg id="Layer_1" data-name="Layer 1" xmlns="http://www.w3.org/2000/svg" width="183.8816" height="210.8553" viewBox="0 0 183.8816 210.8553"><defs><style>.cls-1{fill:#373f44;}.cls-2{fill:#f3f3f3;}.cls-3{fill:#ccc;}.cls-4{fill:#010101;}.cls-5{fill:#00b9d6;}.cls-6{fill:#3d5a71;}.cls-7{fill:#f04848;}.cls-8{fill:#fbaf29;}.cls-9{fill:#c4d0d2;}.cls-10{fill:#9dafb0;}</style></defs><title>statistics</title><rect class="cls-1" width="183.8816" height="210.8553"/><rect class="cls-2" x="75.7173" y="46.8805" width="99.6017" height="136.4054" rx="4"/><rect class="cls-3" x="86.2358" y="132.0113" width="69.0324" height="4.0138" rx="1.8818"/><rect class="cls-3" x="85.5885" y="91.1565" width="69.0324" height="4.0138" rx="1.8818"/><path class="cls-4" d="M103.2951,67.56a4.2471,4.2471,0,0,1-1.749-.94,1.8887,1.8887,0,0,1-.5469-1.3759,1.9763,1.9763,0,0,1,.669-1.5318,2.4877,2.4877,0,0,1,1.7392-.6059,2.6638,2.6638,0,0,1,1.3008.3125,2.225,2.225,0,0,1,.8858.8613,2.3819,2.3819,0,0,1,.3134,1.2007h-.9384A1.5137,1.5137,0,0,0,104.56,64.36a1.56,1.56,0,0,0-1.1524-.4082,1.5856,1.5856,0,0,0-1.0781.3374,1.1758,1.1758,0,0,0-.3867.936,1.0541,1.0541,0,0,0,.3672.8115,3.445,3.445,0,0,0,1.251.607,5.5011,5.5011,0,0,1,1.3808.6064,2.2106,2.2106,0,0,1,.74.7725,2.1431,2.1431,0,0,1,.24,1.04,1.9077,1.9077,0,0,1-.6709,1.5264,2.6716,2.6716,0,0,1-1.7949.5737,3.0513,3.0513,0,0,1-1.3623-.31,2.3428,2.3428,0,0,1-.9756-.8477,2.2292,2.2292,0,0,1-.3428-1.2226h.9385a1.41,1.41,0,0,0,.4746,1.123,1.8659,1.8659,0,0,0,1.2676.4116,1.7061,1.7061,0,0,0,1.1328-.334,1.1286,1.1286,0,0,0,.3945-.91,1.1139,1.1139,0,0,0-.3652-.8911A4.0139,4.0139,0,0,0,103.2951,67.56Z"/><path class="cls-4" d="M112.0129,64.06h-2.2764v6.9946h-.93V64.06h-2.2714v-.8457h5.4775Z"/><path class="cls-4" d="M116.591,69.0025h-2.9677l-.6661,2.0517h-.9638l2.705-7.84h.8174l2.71,7.84h-.959Zm-2.6855-.8452h2.4082l-1.207-3.667Z"/><path class="cls-4" d="M123.4455,64.06h-2.2763v6.9946h-.93V64.06H117.968v-.8457h5.4775Z"/><path class="cls-4" d="M125.4983,71.0542h-.9336v-7.84h.9336Z"/><path class="cls-4" d="M129.2932,67.56a4.2338,4.2338,0,0,1-1.749-.94,1.8855,1.8855,0,0,1-.5479-1.3759,1.98,1.98,0,0,1,.6689-1.5318,2.4912,2.4912,0,0,1,1.7393-.6059,2.6683,2.6683,0,0,1,1.3018.3125,2.2228,2.2228,0,0,1,.8847.8613,2.3717,2.3717,0,0,1,.3145,1.2007h-.9395a1.5128,1.5128,0,0,0-.4082-1.1211,1.5616,1.5616,0,0,0-1.1533-.4082,1.5844,1.5844,0,0,0-1.0771.3374,1.1756,1.1756,0,0,0-.3868.936,1.0512,1.0512,0,0,0,.3672.8115,3.44,3.44,0,0,0,1.25.607,5.5094,5.5094,0,0,1,1.3819.6064,2.2073,2.2073,0,0,1,.7392.7725,2.1433,2.1433,0,0,1,.2412,1.04,1.9054,1.9054,0,0,1-.6718,1.5264,2.67,2.67,0,0,1-1.795.5737,3.0575,3.0575,0,0,1-1.3623-.31,2.35,2.35,0,0,1-.9756-.8477,2.2291,2.2291,0,0,1-.3427-1.2226h.9394a1.4125,1.4125,0,0,0,.4737,1.123,1.8674,1.8674,0,0,0,1.2675.4116,1.707,1.707,0,0,0,1.1338-.334,1.1279,1.1279,0,0,0,.3936-.91,1.113,1.113,0,0,0-.3643-.8911A4.0131,4.0131,0,0,0,129.2932,67.56Z"/><path class="cls-4" d="M138.0109,64.06h-2.2773v6.9946h-.9287V64.06h-2.2725v-.8457h5.4785Z"/><path class="cls-4" d="M140.0637,71.0542h-.9346v-7.84h.9346Z"/><path class="cls-4" d="M146.9807,68.5664a3.0131,3.0131,0,0,1-.8291,1.92,2.557,2.557,0,0,1-1.8555.6757,2.4,2.4,0,0,1-2.0117-.9965,4.2951,4.2951,0,0,1-.7569-2.6651v-.7539a4.873,4.873,0,0,1,.3526-1.9224,2.8462,2.8462,0,0,1,1-1.2734,2.5808,2.5808,0,0,1,1.498-.4443,2.4139,2.4139,0,0,1,1.81.6972,3.0594,3.0594,0,0,1,.793,1.9307h-.9385a2.3661,2.3661,0,0,0-.5283-1.3613,1.5037,1.5037,0,0,0-1.1358-.4214,1.6167,1.6167,0,0,0-1.4033.7329,3.6345,3.6345,0,0,0-.5088,2.0859v.76a3.7394,3.7394,0,0,0,.4824,2.0317,1.5136,1.5136,0,0,0,1.3477.7544,1.6774,1.6774,0,0,0,1.1934-.39,2.2723,2.2723,0,0,0,.5527-1.36Z"/><path class="cls-4" d="M150.343,67.56a4.2338,4.2338,0,0,1-1.749-.94,1.8855,1.8855,0,0,1-.5479-1.3759,1.98,1.98,0,0,1,.6689-1.5318,2.4912,2.4912,0,0,1,1.7393-.6059,2.6683,2.6683,0,0,1,1.3018.3125,2.2228,2.2228,0,0,1,.8847.8613,2.3717,2.3717,0,0,1,.3145,1.2007h-.9395a1.5128,1.5128,0,0,0-.4082-1.1211,1.5616,1.5616,0,0,0-1.1533-.4082,1.5844,1.5844,0,0,0-1.0771.3374,1.1756,1.1756,0,0,0-.3868.936,1.0512,1.0512,0,0,0,.3672.8115,3.44,3.44,0,0,0,1.25.607,5.5094,5.5094,0,0,1,1.3819.6064,2.2073,2.2073,0,0,1,.7392.7725,2.1433,2.1433,0,0,1,.2412,1.04,1.9054,1.9054,0,0,1-.6718,1.5264,2.67,2.67,0,0,1-1.795.5737,3.0575,3.0575,0,0,1-1.3623-.31,2.35,2.35,0,0,1-.9756-.8477,2.2291,2.2291,0,0,1-.3427-1.2226h.9394a1.4125,1.4125,0,0,0,.4737,1.123,1.8674,1.8674,0,0,0,1.2675.4116,1.707,1.707,0,0,0,1.1338-.334,1.1279,1.1279,0,0,0,.3936-.91,1.113,1.113,0,0,0-.3643-.8911A4.0121,4.0121,0,0,0,150.343,67.56Z"/><rect class="cls-3" x="84.9689" y="111.96" width="69.0324" height="4.0138" rx="1.8818"/><rect class="cls-5" x="25.3787" y="134.1609" width="14.9025" height="59.3387"/><rect class="cls-6" x="48.9245" y="120.1163" width="14.9027" height="73.381"/><rect class="cls-7" x="73.0708" y="150.3596" width="14.9048" height="43.1711"/><rect class="cls-8" x="96.4988" y="131.6829" width="14.9025" height="61.8478"/><rect class="cls-9" x="19.9599" y="189.8511" width="96.9508" height="7.3603"/><polygon class="cls-9" points="81.46 144.458 56.232 98.136 33.847 129.389 31.811 127.867 56.52 93.367 82.018 140.183 103.046 118.161 104.852 119.959 81.46 144.458"/><path class="cls-10" d="M38.6394,127.0893a4.5,4.5,0,1,1-4.4974-4.5954A4.5466,4.5466,0,0,1,38.6394,127.0893Z"/><path class="cls-10" d="M61.4322,95.75a4.5011,4.5011,0,1,1-4.5-4.5936A4.5483,4.5483,0,0,1,61.4322,95.75Z"/><path class="cls-10" d="M86.1787,142.32a4.4994,4.4994,0,1,1-4.5-4.5942A4.5472,4.5472,0,0,1,86.1787,142.32Z"/><ellipse class="cls-10" cx="103.949" cy="119.0355" rx="4.4985" ry="4.5948"/></svg>