<svg xmlns="http://www.w3.org/2000/svg" width="104.39" height="104.96" viewBox="0 0 104.39 104.96"><defs><style>.a{fill:#ff7c5e;}.b{fill:#ffca57;}</style></defs><title>tadaa</title><polygon class="a" points="104.39 104.96 75.25 40.62 40.05 75.82 104.39 104.96"/><polygon class="b" points="52.11 63.76 46.22 78.61 50.76 80.67 60.98 54.89 52.11 63.76"/><polygon class="b" points="79.29 49.54 64.49 86.89 69.03 88.94 82.14 55.85 79.29 49.54"/><polygon class="b" points="85.03 62.23 73.62 91.02 78.16 93.08 87.89 68.53 85.03 62.23"/><polygon class="b" points="90.78 74.91 82.75 95.16 87.29 97.21 93.63 81.22 90.78 74.91"/><polygon class="b" points="96.52 87.6 91.89 99.3 96.43 101.35 99.38 93.9 96.52 87.6"/><polygon class="b" points="59.9 84.8 76.4 43.16 75.25 40.62 69.95 45.91 55.36 82.75 59.9 84.8"/><path class="a" d="M164.88,187l-45.53-21.18a3.59,3.59,0,0,1,3-6.52,4,4,0,0,1,.45.25Z" transform="translate(-117.27 -130.1)"/><path class="a" d="M176.84,177.84l-27.21-42.2a3.59,3.59,0,1,1,6-3.9,4.92,4.92,0,0,1,.24.45Z" transform="translate(-117.27 -130.1)"/><path class="b" d="M168.09,180.65l-25.66-24.94a3.6,3.6,0,1,1,5-5.17,4,4,0,0,1,.46.55Z" transform="translate(-117.27 -130.1)"/><polygon class="a" points="13.67 12.37 8.32 11.01 12.66 7.59 12.3 2.09 16.89 5.15 22.02 3.11 20.52 8.42 24.04 12.67 18.53 12.88 15.58 17.55 13.67 12.37"/><polygon class="b" points="59.8 18.97 55.79 15.19 61.24 14.3 63.59 9.32 66.12 14.22 71.59 14.93 67.71 18.84 68.73 24.26 63.8 21.78 58.96 24.43 59.8 18.97"/><polygon class="b" points="27.4 67.97 25.04 72.96 22.52 68.05 17.05 67.35 20.93 63.43 19.91 58.01 24.84 60.5 29.68 57.85 28.83 63.3 32.85 67.09 27.4 67.97"/></svg>