<?xml version="1.0" standalone="no"?><svg xmlns="http://www.w3.org/2000/svg" viewBox="0 0 1440 320"><path fill="#1fa2ff" fill-opacity="1" d="M0,32L30,48C60,64,120,96,180,106.7C240,117,300,107,360,96C420,85,480,75,540,101.3C600,128,660,192,720,197.3C780,203,840,149,900,154.7C960,160,1020,224,1080,245.3C1140,267,1200,245,1260,213.3C1320,181,1380,139,1410,117.3L1440,96L1440,320L1410,320C1380,320,1320,320,1260,320C1200,320,1140,320,1080,320C1020,320,960,320,900,320C840,320,780,320,720,320C660,320,600,320,540,320C480,320,420,320,360,320C300,320,240,320,180,320C120,320,60,320,30,320L0,320Z"></path></svg>