<svg id="Layer_1" data-name="Layer 1" xmlns="http://www.w3.org/2000/svg" viewBox="0 0 1440 489.72"><defs><style>.cls-1{fill:#1fa2ff;}</style></defs><title>2waves</title><path class="cls-1" d="M363,480l48,16c48,16,144,48,240,32s192-80,288-90.7c96-10.3,192,31.7,288,80,96,47.7,192,101.7,288,96,96-5.3,192-69.3,240-101.3l48-32V384H363Z" transform="translate(-363 -124)"/><path class="cls-1" d="M363,284l48,21.3C459,327,555,369,651,380s192-11,288-32,192-43,288-32,192,53,288,26.7C1611,316,1707,220,1755,172l48-48V412H363Z" transform="translate(-363 -124)"/></svg>