<?xml version="1.0" standalone="no"?><svg xmlns="http://www.w3.org/2000/svg" viewBox="0 0 1440 320"><path fill="#1fa2ff" fill-opacity="1" d="M0,128L30,122.7C60,117,120,107,180,138.7C240,171,300,245,360,261.3C420,277,480,235,540,186.7C600,139,660,85,720,101.3C780,117,840,203,900,202.7C960,203,1020,117,1080,112C1140,107,1200,181,1260,192C1320,203,1380,149,1410,122.7L1440,96L1440,0L1410,0C1380,0,1320,0,1260,0C1200,0,1140,0,1080,0C1020,0,960,0,900,0C840,0,780,0,720,0C660,0,600,0,540,0C480,0,420,0,360,0C300,0,240,0,180,0C120,0,60,0,30,0L0,0Z"></path></svg>