<svg xmlns="http://www.w3.org/2000/svg" width="1327.66" height="501.52" viewBox="0 0 1327.66 501.52"><title>Paperly (11)</title><g id="Layer_2" data-name="Layer 2"><g id="Layer_1-2" data-name="Layer 1"><g id="Paperly"><text/><g id="PaperlyLogo"><g id="Paperly_logo"><g id="circle1" style="opacity:0.07"><circle cx="569.29" cy="301.79" r="193.15" style="fill:#dce3e5"/></g><g id="circle2" style="opacity:0.19"><circle cx="780.32" cy="80.89" r="46.46" style="fill:#edefef"/></g><g id="part3"><path d="M770.61,150a10,10,0,0,0-5.09-8.3l-5.3-2.52L760,139s-2.39-1.15-5.31-2.54L581.2,54.05c-2.92-1.39-3.58-.52-1.47,1.92l79.45,91.94a33.7,33.7,0,0,0,9.16,7l53.88,25.6c2.93,1.39,5.31,2.54,5.3,2.56s2.38,1.16,5.3,2.55l22.76,10.84,10.17,4.84c2.67,1.27,4.86-.34,4.86-3.57Z" style="fill:#fff"/></g><g id="part2"><path d="M582.86,63.19c-2.42-2.79-4.4-2-4.4,1.64v380c0,3.7,1.95,4.41,4.33,1.59L631,389.29a21.39,21.39,0,0,0,4.33-11.85V130.35a20.93,20.93,0,0,0-4.4-11.79Z" style="fill:#fff"/></g><g id="part1"><path d="M774.64,141.22c0-3.7-2.69-5.32-6-3.61L518.87,267.92c-3.28,1.71-3.41,4.73-.3,6.72l44.7,28.52a12.87,12.87,0,0,0,11.62.51L768.7,202.41a12.23,12.23,0,0,0,5.95-9.83Z" style="fill:#31c5f4"/></g></g><text id="title" transform="translate(531.51 263.08)" style="font-size:48px;fill:#fff;font-family:OCRAExtended, OCR A Extended;letter-spacing:-0.09999593098958333em">WELCOME TO PAPERLY</text></g></g></g></g></svg>